%TF.GenerationSoftware,KiCad,Pcbnew,10.0.5*%
%TF.CreationDate,2026-08-29T19:51:17-07:00*%
%TF.ProjectId,witnessv0.1,7769746e-6573-4737-9630-2e312e6b6963,rev?*%
%TF.SameCoordinates,Original*%
%TF.FileFunction,Paste,Bot*%
%TF.FilePolarity,Positive*%
%FSLAX46Y46*%
G04 Gerber Fmt 4.6, Leading zero omitted, Abs format (unit mm)*
G04 Created by KiCad (PCBNEW 10.0.5) date 2026-08-29 19:51:17*
%MOMM*%
%LPD*%
G01*
G04 APERTURE LIST*
G04 Aperture macros list*
%AMRoundRect*
0 Rectangle with rounded corners*
0 $1 Rounding radius*
0 $2 $3 $4 $5 $6 $7 $8 $9 X,Y pos of 4 corners*
0 Add a 4 corners polygon primitive as box body*
4,1,4,$2,$3,$4,$5,$6,$7,$8,$9,$2,$3,0*
0 Add four circle primitives for the rounded corners*
1,1,$1+$1,$2,$3*
1,1,$1+$1,$4,$5*
1,1,$1+$1,$6,$7*
1,1,$1+$1,$8,$9*
0 Add four rect primitives between the rounded corners*
20,1,$1+$1,$2,$3,$4,$5,0*
20,1,$1+$1,$4,$5,$6,$7,0*
20,1,$1+$1,$6,$7,$8,$9,0*
20,1,$1+$1,$8,$9,$2,$3,0*%
%AMFreePoly0*
4,1,11,0.760000,0.825000,0.380000,0.510000,0.380000,-0.510000,0.760000,-0.825000,0.760000,-1.525000,-0.125000,-1.525000,-0.380000,-1.270000,-0.380000,1.270000,-0.125000,1.525000,0.760000,1.525000,0.760000,0.825000,0.760000,0.825000,$1*%
G04 Aperture macros list end*
%ADD10FreePoly0,180.000000*%
%ADD11FreePoly0,0.000000*%
%ADD12RoundRect,0.250000X0.375000X1.075000X-0.375000X1.075000X-0.375000X-1.075000X0.375000X-1.075000X0*%
%ADD13RoundRect,0.225000X-0.250000X0.225000X-0.250000X-0.225000X0.250000X-0.225000X0.250000X0.225000X0*%
%ADD14RoundRect,0.140000X0.170000X-0.140000X0.170000X0.140000X-0.170000X0.140000X-0.170000X-0.140000X0*%
%ADD15RoundRect,0.140000X0.140000X0.170000X-0.140000X0.170000X-0.140000X-0.170000X0.140000X-0.170000X0*%
%ADD16RoundRect,0.100000X-0.400000X-0.400000X0.400000X-0.400000X0.400000X0.400000X-0.400000X0.400000X0*%
%ADD17RoundRect,0.105000X-0.420000X-0.995000X0.420000X-0.995000X0.420000X0.995000X-0.420000X0.995000X0*%
%ADD18RoundRect,0.250000X-0.475000X0.250000X-0.475000X-0.250000X0.475000X-0.250000X0.475000X0.250000X0*%
%ADD19RoundRect,0.225000X0.225000X0.250000X-0.225000X0.250000X-0.225000X-0.250000X0.225000X-0.250000X0*%
%ADD20RoundRect,0.100000X-0.575000X0.100000X-0.575000X-0.100000X0.575000X-0.100000X0.575000X0.100000X0*%
%ADD21O,1.600000X0.900000*%
%ADD22RoundRect,0.250000X-0.450000X0.550000X-0.450000X-0.550000X0.450000X-0.550000X0.450000X0.550000X0*%
%ADD23RoundRect,0.250000X-0.700000X0.700000X-0.700000X-0.700000X0.700000X-0.700000X0.700000X0.700000X0*%
%ADD24RoundRect,0.135000X0.135000X0.185000X-0.135000X0.185000X-0.135000X-0.185000X0.135000X-0.185000X0*%
%ADD25RoundRect,0.140000X-0.140000X-0.170000X0.140000X-0.170000X0.140000X0.170000X-0.140000X0.170000X0*%
%ADD26RoundRect,0.037500X-0.087500X0.262500X-0.087500X-0.262500X0.087500X-0.262500X0.087500X0.262500X0*%
%ADD27RoundRect,0.037500X0.087500X-0.262500X0.087500X0.262500X-0.087500X0.262500X-0.087500X-0.262500X0*%
%ADD28RoundRect,0.037500X0.262500X0.087500X-0.262500X0.087500X-0.262500X-0.087500X0.262500X-0.087500X0*%
%ADD29RoundRect,0.037500X-0.262500X-0.087500X0.262500X-0.087500X0.262500X0.087500X-0.262500X0.087500X0*%
%ADD30RoundRect,0.037500X0.087500X-0.637500X0.087500X0.637500X-0.087500X0.637500X-0.087500X-0.637500X0*%
%ADD31RoundRect,0.037500X0.087500X-0.812500X0.087500X0.812500X-0.087500X0.812500X-0.087500X-0.812500X0*%
%ADD32RoundRect,0.037500X-0.087500X0.637500X-0.087500X-0.637500X0.087500X-0.637500X0.087500X0.637500X0*%
%ADD33RoundRect,0.150000X-0.250000X0.150000X-0.250000X-0.150000X0.250000X-0.150000X0.250000X0.150000X0*%
%ADD34RoundRect,0.075000X-0.075000X0.100000X-0.075000X-0.100000X0.075000X-0.100000X0.075000X0.100000X0*%
%ADD35RoundRect,0.058750X-0.058750X0.376250X-0.058750X-0.376250X0.058750X-0.376250X0.058750X0.376250X0*%
%ADD36RoundRect,0.135000X-0.185000X0.135000X-0.185000X-0.135000X0.185000X-0.135000X0.185000X0.135000X0*%
%ADD37RoundRect,0.087500X-0.225000X-0.087500X0.225000X-0.087500X0.225000X0.087500X-0.225000X0.087500X0*%
%ADD38RoundRect,0.087500X-0.087500X-0.225000X0.087500X-0.225000X0.087500X0.225000X-0.087500X0.225000X0*%
%ADD39RoundRect,0.135000X-0.135000X-0.185000X0.135000X-0.185000X0.135000X0.185000X-0.135000X0.185000X0*%
%ADD40RoundRect,0.200000X-0.200000X-0.275000X0.200000X-0.275000X0.200000X0.275000X-0.200000X0.275000X0*%
%ADD41RoundRect,0.250000X0.285000X0.285000X-0.285000X0.285000X-0.285000X-0.285000X0.285000X-0.285000X0*%
%ADD42RoundRect,0.050000X0.350000X0.050000X-0.350000X0.050000X-0.350000X-0.050000X0.350000X-0.050000X0*%
%ADD43RoundRect,0.050000X0.050000X0.350000X-0.050000X0.350000X-0.050000X-0.350000X0.050000X-0.350000X0*%
%ADD44RoundRect,0.150000X0.150000X0.250000X-0.150000X0.250000X-0.150000X-0.250000X0.150000X-0.250000X0*%
%ADD45RoundRect,0.075000X0.100000X0.075000X-0.100000X0.075000X-0.100000X-0.075000X0.100000X-0.075000X0*%
%ADD46RoundRect,0.058750X0.376250X0.058750X-0.376250X0.058750X-0.376250X-0.058750X0.376250X-0.058750X0*%
%ADD47R,0.550000X0.950000*%
%ADD48RoundRect,0.135000X0.185000X-0.135000X0.185000X0.135000X-0.185000X0.135000X-0.185000X-0.135000X0*%
%ADD49RoundRect,0.250000X0.300000X0.300000X-0.300000X0.300000X-0.300000X-0.300000X0.300000X-0.300000X0*%
%ADD50RoundRect,0.250000X0.475000X-0.250000X0.475000X0.250000X-0.475000X0.250000X-0.475000X-0.250000X0*%
%ADD51RoundRect,0.225000X-0.225000X-0.250000X0.225000X-0.250000X0.225000X0.250000X-0.225000X0.250000X0*%
%ADD52RoundRect,0.140000X-0.170000X0.140000X-0.170000X-0.140000X0.170000X-0.140000X0.170000X0.140000X0*%
%ADD53RoundRect,0.185000X0.185000X-0.230000X0.185000X0.230000X-0.185000X0.230000X-0.185000X-0.230000X0*%
%ADD54RoundRect,0.062500X0.062500X-0.237500X0.062500X0.237500X-0.062500X0.237500X-0.062500X-0.237500X0*%
%ADD55RoundRect,0.218750X0.218750X0.381250X-0.218750X0.381250X-0.218750X-0.381250X0.218750X-0.381250X0*%
%ADD56RoundRect,0.147500X-0.147500X-0.172500X0.147500X-0.172500X0.147500X0.172500X-0.147500X0.172500X0*%
%ADD57R,0.250000X0.675000*%
%ADD58R,0.675000X0.250000*%
%ADD59R,0.500000X0.600000*%
%ADD60RoundRect,0.150000X-0.512500X-0.150000X0.512500X-0.150000X0.512500X0.150000X-0.512500X0.150000X0*%
G04 APERTURE END LIST*
D10*
%TO.C,L2*%
X8770000Y9900000D03*
D11*
X6230000Y9900000D03*
%TD*%
D12*
%TO.C,L3*%
X19950000Y22700000D03*
X17150000Y22700000D03*
%TD*%
D13*
%TO.C,C8*%
X15750000Y10752951D03*
X15750000Y9202951D03*
%TD*%
D14*
%TO.C,C32*%
X19050000Y39520000D03*
X19050000Y40480000D03*
%TD*%
D15*
%TO.C,C7*%
X18630000Y6977951D03*
X17670000Y6977951D03*
%TD*%
D16*
%TO.C,AE1*%
X23150000Y38950000D03*
D17*
X24625000Y40450000D03*
D16*
X23150000Y41950000D03*
D17*
X21675000Y40450000D03*
%TD*%
D14*
%TO.C,C3*%
X10800000Y39420000D03*
X10800000Y40380000D03*
%TD*%
D18*
%TO.C,C12*%
X11950000Y10077951D03*
X11950000Y8177951D03*
%TD*%
D15*
%TO.C,C38*%
X23097500Y45602500D03*
X22137500Y45602500D03*
%TD*%
D19*
%TO.C,C17*%
X9025000Y13650000D03*
X7475000Y13650000D03*
%TD*%
D15*
%TO.C,C6*%
X6630000Y32300000D03*
X5670000Y32300000D03*
%TD*%
D19*
%TO.C,C31*%
X20675000Y33800000D03*
X19125000Y33800000D03*
%TD*%
D20*
%TO.C,J3*%
X25825000Y31200000D03*
X25825000Y30550000D03*
X25825000Y29900000D03*
X25825000Y29250000D03*
X25825000Y28600000D03*
D21*
X28500000Y33200000D03*
D22*
X26050000Y33100000D03*
D23*
X28500000Y31100000D03*
X28500000Y28700000D03*
D22*
X26050000Y26700000D03*
D21*
X28500000Y26600000D03*
%TD*%
D24*
%TO.C,R6*%
X20410000Y16900000D03*
X19390000Y16900000D03*
%TD*%
D25*
%TO.C,C16*%
X6370000Y7750000D03*
X7330000Y7750000D03*
%TD*%
D14*
%TO.C,C33*%
X20050000Y39570000D03*
X20050000Y40530000D03*
%TD*%
D26*
%TO.C,U6*%
X19300000Y18050000D03*
X18800000Y18050000D03*
X18300000Y18050000D03*
D27*
X17800000Y18050000D03*
D28*
X17150000Y18450000D03*
X17150000Y18950000D03*
X17150000Y19450000D03*
D29*
X17150000Y19950000D03*
D30*
X18050000Y19950000D03*
D31*
X18550000Y19800000D03*
D32*
X19050000Y19950000D03*
D29*
X19950000Y19950000D03*
X19950000Y19450000D03*
X19950000Y18950000D03*
D28*
X19950000Y18450000D03*
%TD*%
D12*
%TO.C,L1*%
X20100000Y13177951D03*
X17300000Y13177951D03*
%TD*%
D33*
%TO.C,Q1*%
X2825000Y15275000D03*
X2825000Y14575000D03*
D34*
X3800000Y15850000D03*
D35*
X3800000Y14885000D03*
D34*
X3800000Y14000000D03*
%TD*%
D14*
%TO.C,C5*%
X15250000Y39570000D03*
X15250000Y40530000D03*
%TD*%
D36*
%TO.C,R27*%
X7700000Y41210000D03*
X7700000Y40190000D03*
%TD*%
D37*
%TO.C,U5*%
X14087500Y44000000D03*
X14087500Y44500000D03*
X14087500Y45000000D03*
X14087500Y45500000D03*
D38*
X14750000Y45662500D03*
X15250000Y45662500D03*
X15750000Y45662500D03*
D37*
X16412500Y45500000D03*
X16412500Y45000000D03*
X16412500Y44500000D03*
X16412500Y44000000D03*
D38*
X15750000Y43837500D03*
X15250000Y43837500D03*
X14750000Y43837500D03*
%TD*%
D39*
%TO.C,R20*%
X2240000Y8500000D03*
X3260000Y8500000D03*
%TD*%
%TO.C,R18*%
X4440000Y29350000D03*
X5460000Y29350000D03*
%TD*%
D40*
%TO.C,R33*%
X5525000Y16150000D03*
X7175000Y16150000D03*
%TD*%
D41*
%TO.C,U1*%
X13580000Y33220000D03*
X13580000Y34550000D03*
X13580000Y35880000D03*
X12250000Y33220000D03*
X12250000Y34550000D03*
X12250000Y35880000D03*
X10920000Y33220000D03*
X10920000Y34550000D03*
X10920000Y35880000D03*
D42*
X15700000Y37150000D03*
X15700000Y36750000D03*
X15700000Y36350000D03*
X15700000Y35950000D03*
X15700000Y35550000D03*
X15700000Y35150000D03*
X15700000Y34750000D03*
X15700000Y34350000D03*
X15700000Y33950000D03*
X15700000Y33550000D03*
X15700000Y33150000D03*
X15700000Y32750000D03*
X15700000Y32350000D03*
X15700000Y31950000D03*
D43*
X14850000Y31100000D03*
X14450000Y31100000D03*
X14050000Y31100000D03*
X13650000Y31100000D03*
X13250000Y31100000D03*
X12850000Y31100000D03*
X12450000Y31100000D03*
X12050000Y31100000D03*
X11650000Y31100000D03*
X11250000Y31100000D03*
X10850000Y31100000D03*
X10450000Y31100000D03*
X10050000Y31100000D03*
X9650000Y31100000D03*
D42*
X8800000Y31950000D03*
X8800000Y32350000D03*
X8800000Y32750000D03*
X8800000Y33150000D03*
X8800000Y33550000D03*
X8800000Y33950000D03*
X8800000Y34350000D03*
X8800000Y34750000D03*
X8800000Y35150000D03*
X8800000Y35550000D03*
X8800000Y35950000D03*
X8800000Y36350000D03*
X8800000Y36750000D03*
X8800000Y37150000D03*
D43*
X9650000Y38000000D03*
X10050000Y38000000D03*
X10450000Y38000000D03*
X10850000Y38000000D03*
X11250000Y38000000D03*
X11650000Y38000000D03*
X12050000Y38000000D03*
X12450000Y38000000D03*
X12850000Y38000000D03*
X13250000Y38000000D03*
X13650000Y38000000D03*
X14050000Y38000000D03*
X14450000Y38000000D03*
X14850000Y38000000D03*
%TD*%
D44*
%TO.C,Q2*%
X3050000Y18075000D03*
X2350000Y18075000D03*
D45*
X3625000Y17100000D03*
D46*
X2660000Y17100000D03*
D45*
X1775000Y17100000D03*
%TD*%
D18*
%TO.C,C24*%
X11600000Y20025000D03*
X11600000Y18125000D03*
%TD*%
D47*
%TO.C,U7*%
X23250000Y47000000D03*
X22000000Y47000000D03*
X20750000Y47000000D03*
X19500000Y47000000D03*
X19500000Y49150000D03*
X20750000Y49150000D03*
X22000000Y49150000D03*
X23250000Y49150000D03*
%TD*%
D18*
%TO.C,C19*%
X23250000Y20350000D03*
X23250000Y18450000D03*
%TD*%
D48*
%TO.C,R1*%
X10250000Y11717951D03*
X10250000Y12737951D03*
%TD*%
D36*
%TO.C,R8*%
X9800000Y18060000D03*
X9800000Y17040000D03*
%TD*%
D49*
%TO.C,D4*%
X26000000Y36700000D03*
X23200000Y36700000D03*
%TD*%
D36*
%TO.C,R25*%
X19850000Y43335000D03*
X19850000Y42315000D03*
%TD*%
D39*
%TO.C,R10*%
X22790000Y5850000D03*
X23810000Y5850000D03*
%TD*%
D14*
%TO.C,C37*%
X7837500Y45870000D03*
X7837500Y46830000D03*
%TD*%
D50*
%TO.C,C23*%
X15300000Y21600000D03*
X15300000Y23500000D03*
%TD*%
D15*
%TO.C,C29*%
X20380000Y35100000D03*
X19420000Y35100000D03*
%TD*%
D24*
%TO.C,R21*%
X9785000Y21750000D03*
X8765000Y21750000D03*
%TD*%
D51*
%TO.C,C43*%
X4475000Y41000000D03*
X6025000Y41000000D03*
%TD*%
D18*
%TO.C,C10*%
X23300000Y10927951D03*
X23300000Y9027951D03*
%TD*%
D48*
%TO.C,R12*%
X20950000Y6090000D03*
X20950000Y7110000D03*
%TD*%
D39*
%TO.C,R2*%
X11390000Y6427951D03*
X12410000Y6427951D03*
%TD*%
D40*
%TO.C,R34*%
X5425000Y21000000D03*
X7075000Y21000000D03*
%TD*%
D25*
%TO.C,C28*%
X17570000Y35150000D03*
X18530000Y35150000D03*
%TD*%
D50*
%TO.C,C18*%
X22400000Y21900000D03*
X22400000Y23800000D03*
%TD*%
D25*
%TO.C,C40*%
X14020000Y46850000D03*
X14980000Y46850000D03*
%TD*%
D13*
%TO.C,C20*%
X21400000Y20075000D03*
X21400000Y18525000D03*
%TD*%
D36*
%TO.C,R7*%
X9800000Y19960000D03*
X9800000Y18940000D03*
%TD*%
D15*
%TO.C,C42*%
X2430000Y42450000D03*
X1470000Y42450000D03*
%TD*%
D48*
%TO.C,R30*%
X11250000Y28590000D03*
X11250000Y29610000D03*
%TD*%
D24*
%TO.C,R3*%
X15485000Y6477951D03*
X14465000Y6477951D03*
%TD*%
D15*
%TO.C,C36*%
X9137500Y48750000D03*
X8177500Y48750000D03*
%TD*%
D52*
%TO.C,C34*%
X8250000Y19080000D03*
X8250000Y18120000D03*
%TD*%
D39*
%TO.C,R5*%
X7480000Y12050000D03*
X8500000Y12050000D03*
%TD*%
D48*
%TO.C,R24*%
X18200000Y42390000D03*
X18200000Y43410000D03*
%TD*%
D13*
%TO.C,C9*%
X21500000Y10752951D03*
X21500000Y9202951D03*
%TD*%
D53*
%TO.C,U3*%
X5950000Y18550000D03*
X6750000Y18550000D03*
D54*
X7100000Y17600000D03*
X6600000Y17600000D03*
X6100000Y17600000D03*
X5600000Y17600000D03*
X5600000Y19500000D03*
X6100000Y19500000D03*
X6600000Y19500000D03*
X7100000Y19500000D03*
%TD*%
D52*
%TO.C,C26*%
X12850000Y29530000D03*
X12850000Y28570000D03*
%TD*%
D15*
%TO.C,C27*%
X6630000Y31300000D03*
X5670000Y31300000D03*
%TD*%
D52*
%TO.C,C15*%
X10200000Y9707951D03*
X10200000Y8747951D03*
%TD*%
D50*
%TO.C,C13*%
X14000000Y11577951D03*
X14000000Y13477951D03*
%TD*%
D48*
%TO.C,R31*%
X10200000Y28600000D03*
X10200000Y29620000D03*
%TD*%
D55*
%TO.C,L4*%
X19812500Y36650000D03*
X17687500Y36650000D03*
%TD*%
D36*
%TO.C,R9*%
X18400000Y16960000D03*
X18400000Y15940000D03*
%TD*%
D18*
%TO.C,C25*%
X13850000Y19975000D03*
X13850000Y18075000D03*
%TD*%
D13*
%TO.C,C22*%
X15700000Y19775000D03*
X15700000Y18225000D03*
%TD*%
D56*
%TO.C,L5*%
X19065000Y38600000D03*
X20035000Y38600000D03*
%TD*%
D24*
%TO.C,R11*%
X23860000Y7500000D03*
X22840000Y7500000D03*
%TD*%
%TO.C,R19*%
X5460000Y27750000D03*
X4440000Y27750000D03*
%TD*%
D52*
%TO.C,C30*%
X21100000Y37050000D03*
X21100000Y36090000D03*
%TD*%
D18*
%TO.C,C14*%
X14000000Y10127951D03*
X14000000Y8227951D03*
%TD*%
D15*
%TO.C,C21*%
X17430000Y16950000D03*
X16470000Y16950000D03*
%TD*%
D48*
%TO.C,R26*%
X8700000Y40190000D03*
X8700000Y41210000D03*
%TD*%
D26*
%TO.C,U2*%
X19350000Y8577951D03*
X18850000Y8577951D03*
X18350000Y8577951D03*
D27*
X17850000Y8577951D03*
D28*
X17200000Y8977951D03*
X17200000Y9477951D03*
X17200000Y9977951D03*
D29*
X17200000Y10477951D03*
D30*
X18100000Y10477951D03*
D31*
X18600000Y10327951D03*
D32*
X19100000Y10477951D03*
D29*
X20000000Y10477951D03*
X20000000Y9977951D03*
X20000000Y9477951D03*
D28*
X20000000Y8977951D03*
%TD*%
D48*
%TO.C,R22*%
X27750000Y39990000D03*
X27750000Y41010000D03*
%TD*%
D39*
%TO.C,R28*%
X16190000Y26400000D03*
X17210000Y26400000D03*
%TD*%
%TO.C,R17*%
X4490000Y26200000D03*
X5510000Y26200000D03*
%TD*%
D24*
%TO.C,R29*%
X17210000Y25400000D03*
X16190000Y25400000D03*
%TD*%
D57*
%TO.C,U4*%
X10750000Y45087500D03*
X10250000Y45087500D03*
X9750000Y45087500D03*
X9250000Y45087500D03*
D58*
X8987500Y45850000D03*
X8987500Y46350000D03*
X8987500Y46850000D03*
D57*
X9250000Y47612500D03*
X9750000Y47612500D03*
X10250000Y47612500D03*
X10750000Y47612500D03*
D58*
X11012500Y46850000D03*
X11012500Y46350000D03*
X11012500Y45850000D03*
%TD*%
D39*
%TO.C,R23*%
X1015000Y27150000D03*
X2035000Y27150000D03*
%TD*%
D50*
%TO.C,C11*%
X22250000Y12427951D03*
X22250000Y14327951D03*
%TD*%
D14*
%TO.C,C4*%
X14300000Y39570000D03*
X14300000Y40530000D03*
%TD*%
D15*
%TO.C,C39*%
X16900000Y46850000D03*
X15940000Y46850000D03*
%TD*%
D19*
%TO.C,C41*%
X2755000Y43500000D03*
X1205000Y43500000D03*
%TD*%
D59*
%TO.C,Y1*%
X9300000Y24700000D03*
X9300000Y23600000D03*
X8500000Y23600000D03*
X8500000Y24700000D03*
%TD*%
D60*
%TO.C,U9*%
X21212500Y28350000D03*
X21212500Y29300000D03*
X21212500Y30250000D03*
X23487500Y30250000D03*
X23487500Y29300000D03*
X23487500Y28350000D03*
%TD*%
M02*
