%TF.GenerationSoftware,KiCad,Pcbnew,10.0.4*%
%TF.CreationDate,2026-09-06T13:40:58-07:00*%
%TF.ProjectId,aperture,61706572-7475-4726-952e-6b696361645f,rev?*%
%TF.SameCoordinates,Original*%
%TF.FileFunction,Copper,L2,Bot*%
%TF.FilePolarity,Positive*%
%FSLAX46Y46*%
G04 Gerber Fmt 4.6, Leading zero omitted, Abs format (unit mm)*
G04 Created by KiCad (PCBNEW 10.0.4) date 2026-09-06 13:40:58*
%MOMM*%
%LPD*%
G01*
G04 APERTURE LIST*
G04 Aperture macros list*
%AMRoundRect*
0 Rectangle with rounded corners*
0 $1 Rounding radius*
0 $2 $3 $4 $5 $6 $7 $8 $9 X,Y pos of 4 corners*
0 Add a 4 corners polygon primitive as box body*
4,1,4,$2,$3,$4,$5,$6,$7,$8,$9,$2,$3,0*
0 Add four circle primitives for the rounded corners*
1,1,$1+$1,$2,$3*
1,1,$1+$1,$4,$5*
1,1,$1+$1,$6,$7*
1,1,$1+$1,$8,$9*
0 Add four rect primitives between the rounded corners*
20,1,$1+$1,$2,$3,$4,$5,0*
20,1,$1+$1,$4,$5,$6,$7,0*
20,1,$1+$1,$6,$7,$8,$9,0*
20,1,$1+$1,$8,$9,$2,$3,0*%
G04 Aperture macros list end*
%TA.AperFunction,ComponentPad*%
%ADD10RoundRect,0.250000X-1.050000X-0.550000X1.050000X-0.550000X1.050000X0.550000X-1.050000X0.550000X0*%
%TD*%
%TA.AperFunction,ComponentPad*%
%ADD11O,2.600000X1.600000*%
%TD*%
%TA.AperFunction,ViaPad*%
%ADD12C,0.600000*%
%TD*%
%TA.AperFunction,Conductor*%
%ADD13C,0.200000*%
%TD*%
G04 APERTURE END LIST*
D10*
%TO.P,A1,1,~{RESET}_1*%
%TO.N,unconnected-(A1-~{RESET}-Pad1)*%
X1560000Y44375000D03*
D11*
%TO.P,A1,2,3V3_2*%
%TO.N,+3V3*%
X1560000Y41835000D03*
%TO.P,A1,3,NC_3*%
%TO.N,unconnected-(A1-NC-Pad3)*%
X1560000Y39295000D03*
%TO.P,A1,4,GND_4*%
%TO.N,GND*%
X1560000Y36755000D03*
%TO.P,A1,5,DAC2/A0_5*%
%TO.N,/PPS*%
X1560000Y34215000D03*
%TO.P,A1,6,DAC1/A1_6*%
%TO.N,unconnected-(A1-DAC1{slash}A1-Pad6)*%
X1560000Y31675000D03*
%TO.P,A1,7,I34/A2_7*%
%TO.N,unconnected-(A1-I34{slash}A2-Pad7)*%
X1560000Y29135000D03*
%TO.P,A1,8,I39/A3_8*%
%TO.N,unconnected-(A1-I39{slash}A3-Pad8)*%
X1560000Y26595000D03*
%TO.P,A1,9,IO36/A4_9*%
%TO.N,/GPS_RST*%
X1560000Y24055000D03*
%TO.P,A1,10,IO4/A5_10*%
%TO.N,unconnected-(A1-IO4{slash}A5-Pad10)*%
X1560000Y21515000D03*
%TO.P,A1,11,SCK/IO5_11*%
%TO.N,/SPI3_SCLK*%
X1560000Y18975000D03*
%TO.P,A1,12,MOSI/IO18_12*%
%TO.N,/SPI3_COPI*%
X1560000Y16435000D03*
%TO.P,A1,13,MISO/IO19_13*%
%TO.N,/SPI3_CIPO*%
X1560000Y13895000D03*
%TO.P,A1,14,RX/IO16_14*%
%TO.N,/RX_MCU*%
X1560000Y11355000D03*
%TO.P,A1,15,TX/IO17_15*%
%TO.N,/TX_MCU*%
X1560000Y8815000D03*
%TO.P,A1,16,IO21_16*%
%TO.N,/RAD_BUSY*%
X1560000Y6275000D03*
%TO.P,A1,17,SDA/IO23_17*%
%TO.N,/RAD_RF_EN*%
X21280000Y6275000D03*
%TO.P,A1,18,SCL/IO22_18*%
%TO.N,/RAD_CS*%
X21280000Y8815000D03*
%TO.P,A1,19,A6/IO14_19*%
%TO.N,unconnected-(A1-A6{slash}IO14-Pad19)*%
X21280000Y11355000D03*
%TO.P,A1,20,A7/IO32_20*%
%TO.N,unconnected-(A1-A7{slash}IO32-Pad20)*%
X21280000Y13895000D03*
%TO.P,A1,21,A8/IO15_21*%
%TO.N,/RAD_DIO3*%
X21280000Y16435000D03*
%TO.P,A1,22,A9/IO33_22*%
%TO.N,/RAD_DIO2*%
X21280000Y18975000D03*
%TO.P,A1,23,A10/IO27_23*%
%TO.N,/RAD_DIO1*%
X21280000Y21515000D03*
%TO.P,A1,24,A11/IO12_24*%
%TO.N,/RAD_RST*%
X21280000Y24055000D03*
%TO.P,A1,25,A12/IO13_25*%
%TO.N,unconnected-(A1-A12{slash}IO13-Pad25)*%
X21280000Y26595000D03*
%TO.P,A1,26,USB_26*%
%TO.N,unconnected-(A1-USB-Pad26)*%
X21280000Y29135000D03*
%TO.P,A1,27,EN_27*%
%TO.N,unconnected-(A1-EN-Pad27)*%
X21280000Y31675000D03*
%TO.P,A1,28,VBAT_28*%
%TO.N,unconnected-(A1-VBAT-Pad28)*%
X21280000Y34215000D03*
%TD*%
D12*
%TO.N,GND*%
X20000000Y17500000D03*
X20000000Y15000000D03*
X20000000Y7500000D03*
X20000000Y10000000D03*
X20000000Y12500000D03*
X7500000Y10000000D03*
X7500000Y15000000D03*
X12500000Y10000000D03*
X10000000Y12500000D03*
X7500000Y20000000D03*
X10000000Y20000000D03*
X12500000Y20000000D03*
X15000000Y20000000D03*
X17500000Y20000000D03*
X10000000Y17500000D03*
X5000000Y35000000D03*
X5000000Y37500000D03*
X5000000Y40000000D03*
X10000000Y40000000D03*
X7500000Y37500000D03*
X17500000Y50000000D03*
X15000000Y50000000D03*
X12500000Y50000000D03*
X5000000Y10000000D03*
X4850000Y15000000D03*
X17500000Y25000000D03*
X12500000Y35000000D03*
X12500000Y32500000D03*
X10000000Y32500000D03*
X5000000Y12500000D03*
X18500000Y7900000D03*
X15000000Y17500000D03*
X20000000Y45000000D03*
X2500000Y50000000D03*
X7500000Y25000000D03*
X15000000Y35000000D03*
X17500000Y2500000D03*
X20000000Y37500000D03*
X20000000Y47500000D03*
X10000000Y37500000D03*
X15000000Y10000000D03*
X20000000Y42500000D03*
X17500000Y17500000D03*
X18500000Y28400000D03*
X17500000Y15000000D03*
X2500000Y2500000D03*
X5000000Y47500000D03*
X2500000Y47500000D03*
X15000000Y32500000D03*
X12500000Y12500000D03*
X5000000Y50000000D03*
X15000000Y15000000D03*
X7500000Y40000000D03*
X12500000Y17500000D03*
X5000000Y20000000D03*
X7500000Y2500000D03*
X7500000Y17500000D03*
X10000000Y47500000D03*
X15000000Y40000000D03*
X15000000Y2500000D03*
X20000000Y2500000D03*
X10000000Y2500000D03*
X16500000Y24200000D03*
X17500000Y35000000D03*
X12370000Y45780000D03*
X12500000Y2500000D03*
X10000000Y50000000D03*
X17500000Y37500000D03*
X20000000Y40000000D03*
X7500000Y32500000D03*
X17500000Y32500000D03*
X20000000Y50000000D03*
X17500000Y10000000D03*
X7500000Y47500000D03*
X5000000Y25000000D03*
X12500000Y40000000D03*
X5000000Y2500000D03*
X7500000Y50000000D03*
X13300000Y25000000D03*
X12500000Y15000000D03*
X7500000Y35000000D03*
X4500000Y8100000D03*
X17500000Y12500000D03*
X15000000Y12500000D03*
X10000000Y35000000D03*
X10000000Y15000000D03*
%TO.N,/RX_MCU*%
X3932007Y32324039D03*
%TO.N,/TX_MCU*%
X4800000Y31000000D03*
%TO.N,/SPI3_SCLK*%
X5750000Y13042463D03*
%TD*%
%TO.N,/TX_MCU*%
D13*
X4000000Y30200000D02*
X4800000Y31000000D01*
X3600000Y30200000D02*
X4000000Y30200000D01*
X4000000Y10300000D02*
X4400000Y10700000D01*
X4900000Y10700000D02*
X6800000Y12600000D01*
X3600000Y19165686D02*
X3600000Y30200000D01*
X3380684Y8815000D02*
X4000000Y9434316D01*
X4000000Y9434316D02*
X4000000Y10300000D01*
X6800000Y12600000D02*
X6800000Y15965686D01*
X1260000Y8815000D02*
X3380684Y8815000D01*
X4400000Y10700000D02*
X4900000Y10700000D01*
X6800000Y15965686D02*
X3600000Y19165686D01*
%TO.N,/SPI3_SCLK*%
X2025000Y18975000D02*
X5750000Y15250000D01*
X5750000Y15250000D02*
X5750000Y13042463D01*
X1260000Y18975000D02*
X2025000Y18975000D01*
%TO.N,/RX_MCU*%
X3200000Y30800000D02*
X3932007Y31532007D01*
X4989314Y11355000D02*
X6400000Y12765686D01*
X3200000Y19000001D02*
X3200000Y30800000D01*
X1260000Y11355000D02*
X4989314Y11355000D01*
X6400000Y15800000D02*
X3200000Y19000001D01*
X6400000Y12765686D02*
X6400000Y15800000D01*
X3932007Y31532007D02*
X3932007Y32324039D01*
%TD*%
%TA.AperFunction,Conductor*%
%TO.N,GND*%
G36*
X21304418Y50299184D02*
G01*
X21504561Y50284870D01*
X21522063Y50282353D01*
X21713795Y50240645D01*
X21730760Y50235664D01*
X21914611Y50167091D01*
X21930694Y50159747D01*
X22047495Y50095968D01*
X22102908Y50065710D01*
X22117791Y50056145D01*
X22274864Y49938562D01*
X22288235Y49926976D01*
X22426975Y49788236D01*
X22438561Y49774865D01*
X22556144Y49617792D01*
X22565709Y49602909D01*
X22659743Y49430700D01*
X22667093Y49414606D01*
X22735661Y49230766D01*
X22740645Y49213791D01*
X22782351Y49022069D01*
X22784869Y49004558D01*
X22799184Y48804420D01*
X22799500Y48795573D01*
X22799500Y34898837D01*
X22779815Y34831798D01*
X22727011Y34786043D01*
X22657853Y34776099D01*
X22594297Y34805124D01*
X22572398Y34829946D01*
X22557139Y34852782D01*
X22557136Y34852786D01*
X22417785Y34992137D01*
X22417781Y34992140D01*
X22253920Y35101629D01*
X22253907Y35101636D01*
X22071839Y35177050D01*
X22071829Y35177053D01*
X21878543Y35215500D01*
X21878541Y35215500D01*
X20681459Y35215500D01*
X20681457Y35215500D01*
X20488170Y35177053D01*
X20488160Y35177050D01*
X20306092Y35101636D01*
X20306079Y35101629D01*
X20142218Y34992140D01*
X20142214Y34992137D01*
X20002863Y34852786D01*
X20002860Y34852782D01*
X19893371Y34688921D01*
X19893364Y34688908D01*
X19817950Y34506840D01*
X19817947Y34506830D01*
X19779500Y34313544D01*
X19779500Y34313541D01*
X19779500Y34116459D01*
X19779500Y34116457D01*
X19779499Y34116457D01*
X19817947Y33923171D01*
X19817950Y33923161D01*
X19893364Y33741093D01*
X19893371Y33741080D01*
X20002860Y33577219D01*
X20002863Y33577215D01*
X20142214Y33437864D01*
X20142218Y33437861D01*
X20306079Y33328372D01*
X20306092Y33328365D01*
X20488160Y33252951D01*
X20488165Y33252949D01*
X20488169Y33252949D01*
X20488170Y33252948D01*
X20681456Y33214500D01*
X20681459Y33214500D01*
X21878543Y33214500D01*
X22008582Y33240368D01*
X22071835Y33252949D01*
X22253914Y33328368D01*
X22417782Y33437861D01*
X22557139Y33577218D01*
X22572397Y33600053D01*
X22626009Y33644859D01*
X22695333Y33653568D01*
X22758361Y33623414D01*
X22795081Y33563971D01*
X22799500Y33531164D01*
X22799500Y32358837D01*
X22779815Y32291798D01*
X22727011Y32246043D01*
X22657853Y32236099D01*
X22594297Y32265124D01*
X22572398Y32289946D01*
X22557139Y32312782D01*
X22557136Y32312786D01*
X22417785Y32452137D01*
X22417781Y32452140D01*
X22253920Y32561629D01*
X22253907Y32561636D01*
X22071839Y32637050D01*
X22071829Y32637053D01*
X21878543Y32675500D01*
X21878541Y32675500D01*
X20681459Y32675500D01*
X20681457Y32675500D01*
X20488170Y32637053D01*
X20488160Y32637050D01*
X20306092Y32561636D01*
X20306079Y32561629D01*
X20142218Y32452140D01*
X20142214Y32452137D01*
X20002863Y32312786D01*
X20002860Y32312782D01*
X19893371Y32148921D01*
X19893364Y32148908D01*
X19817950Y31966840D01*
X19817947Y31966830D01*
X19779500Y31773544D01*
X19779500Y31773541D01*
X19779500Y31576459D01*
X19779500Y31576457D01*
X19779499Y31576457D01*
X19817947Y31383171D01*
X19817950Y31383161D01*
X19893364Y31201093D01*
X19893371Y31201080D01*
X20002860Y31037219D01*
X20002863Y31037215D01*
X20142214Y30897864D01*
X20142218Y30897861D01*
X20306079Y30788372D01*
X20306092Y30788365D01*
X20488160Y30712951D01*
X20488165Y30712949D01*
X20488169Y30712949D01*
X20488170Y30712948D01*
X20681456Y30674500D01*
X20681459Y30674500D01*
X21878543Y30674500D01*
X22008582Y30700368D01*
X22071835Y30712949D01*
X22212655Y30771279D01*
X22253907Y30788365D01*
X22253907Y30788366D01*
X22253914Y30788368D01*
X22417782Y30897861D01*
X22557139Y31037218D01*
X22572397Y31060053D01*
X22626009Y31104859D01*
X22695333Y31113568D01*
X22758361Y31083414D01*
X22795081Y31023971D01*
X22799500Y30991164D01*
X22799500Y29818837D01*
X22779815Y29751798D01*
X22727011Y29706043D01*
X22657853Y29696099D01*
X22594297Y29725124D01*
X22572398Y29749946D01*
X22557139Y29772782D01*
X22557136Y29772786D01*
X22417785Y29912137D01*
X22417781Y29912140D01*
X22253920Y30021629D01*
X22253907Y30021636D01*
X22071839Y30097050D01*
X22071829Y30097053D01*
X21878543Y30135500D01*
X21878541Y30135500D01*
X20681459Y30135500D01*
X20681457Y30135500D01*
X20488170Y30097053D01*
X20488160Y30097050D01*
X20306092Y30021636D01*
X20306079Y30021629D01*
X20142218Y29912140D01*
X20142214Y29912137D01*
X20002863Y29772786D01*
X20002860Y29772782D01*
X19893371Y29608921D01*
X19893364Y29608908D01*
X19817950Y29426840D01*
X19817947Y29426830D01*
X19779500Y29233544D01*
X19779500Y29233541D01*
X19779500Y29036459D01*
X19779500Y29036457D01*
X19779499Y29036457D01*
X19817947Y28843171D01*
X19817950Y28843161D01*
X19893364Y28661093D01*
X19893371Y28661080D01*
X20002860Y28497219D01*
X20002863Y28497215D01*
X20142214Y28357864D01*
X20142218Y28357861D01*
X20306079Y28248372D01*
X20306092Y28248365D01*
X20488160Y28172951D01*
X20488165Y28172949D01*
X20488169Y28172949D01*
X20488170Y28172948D01*
X20681456Y28134500D01*
X20681459Y28134500D01*
X21878543Y28134500D01*
X22008582Y28160368D01*
X22071835Y28172949D01*
X22253914Y28248368D01*
X22417782Y28357861D01*
X22557139Y28497218D01*
X22572397Y28520053D01*
X22626009Y28564859D01*
X22695333Y28573568D01*
X22758361Y28543414D01*
X22795081Y28483971D01*
X22799500Y28451164D01*
X22799500Y27278837D01*
X22779815Y27211798D01*
X22727011Y27166043D01*
X22657853Y27156099D01*
X22594297Y27185124D01*
X22572398Y27209946D01*
X22557139Y27232782D01*
X22557136Y27232786D01*
X22417785Y27372137D01*
X22417781Y27372140D01*
X22253920Y27481629D01*
X22253907Y27481636D01*
X22071839Y27557050D01*
X22071829Y27557053D01*
X21878543Y27595500D01*
X21878541Y27595500D01*
X20681459Y27595500D01*
X20681457Y27595500D01*
X20488170Y27557053D01*
X20488160Y27557050D01*
X20306092Y27481636D01*
X20306079Y27481629D01*
X20142218Y27372140D01*
X20142214Y27372137D01*
X20002863Y27232786D01*
X20002860Y27232782D01*
X19893371Y27068921D01*
X19893364Y27068908D01*
X19817950Y26886840D01*
X19817947Y26886830D01*
X19779500Y26693544D01*
X19779500Y26693541D01*
X19779500Y26496459D01*
X19779500Y26496457D01*
X19779499Y26496457D01*
X19817947Y26303171D01*
X19817950Y26303161D01*
X19893364Y26121093D01*
X19893371Y26121080D01*
X20002860Y25957219D01*
X20002863Y25957215D01*
X20142214Y25817864D01*
X20142218Y25817861D01*
X20306079Y25708372D01*
X20306092Y25708365D01*
X20488160Y25632951D01*
X20488165Y25632949D01*
X20488169Y25632949D01*
X20488170Y25632948D01*
X20681456Y25594500D01*
X20681459Y25594500D01*
X21878543Y25594500D01*
X22008582Y25620368D01*
X22071835Y25632949D01*
X22253914Y25708368D01*
X22417782Y25817861D01*
X22557139Y25957218D01*
X22572397Y25980053D01*
X22626009Y26024859D01*
X22695333Y26033568D01*
X22758361Y26003414D01*
X22795081Y25943971D01*
X22799500Y25911164D01*
X22799500Y24738837D01*
X22779815Y24671798D01*
X22727011Y24626043D01*
X22657853Y24616099D01*
X22594297Y24645124D01*
X22572398Y24669946D01*
X22557139Y24692782D01*
X22557136Y24692786D01*
X22417785Y24832137D01*
X22417781Y24832140D01*
X22253920Y24941629D01*
X22253907Y24941636D01*
X22071839Y25017050D01*
X22071829Y25017053D01*
X21878543Y25055500D01*
X21878541Y25055500D01*
X20681459Y25055500D01*
X20681457Y25055500D01*
X20488170Y25017053D01*
X20488160Y25017050D01*
X20306092Y24941636D01*
X20306079Y24941629D01*
X20142218Y24832140D01*
X20142214Y24832137D01*
X20002863Y24692786D01*
X20002860Y24692782D01*
X19893371Y24528921D01*
X19893364Y24528908D01*
X19817950Y24346840D01*
X19817947Y24346830D01*
X19779500Y24153544D01*
X19779500Y24153541D01*
X19779500Y23956459D01*
X19779500Y23956457D01*
X19779499Y23956457D01*
X19817947Y23763171D01*
X19817950Y23763161D01*
X19893364Y23581093D01*
X19893371Y23581080D01*
X20002860Y23417219D01*
X20002863Y23417215D01*
X20142214Y23277864D01*
X20142218Y23277861D01*
X20306079Y23168372D01*
X20306092Y23168365D01*
X20488160Y23092951D01*
X20488165Y23092949D01*
X20488169Y23092949D01*
X20488170Y23092948D01*
X20681456Y23054500D01*
X20681459Y23054500D01*
X21878543Y23054500D01*
X22008582Y23080368D01*
X22071835Y23092949D01*
X22253914Y23168368D01*
X22417782Y23277861D01*
X22557139Y23417218D01*
X22572397Y23440053D01*
X22626009Y23484859D01*
X22695333Y23493568D01*
X22758361Y23463414D01*
X22795081Y23403971D01*
X22799500Y23371164D01*
X22799500Y22198837D01*
X22779815Y22131798D01*
X22727011Y22086043D01*
X22657853Y22076099D01*
X22594297Y22105124D01*
X22572398Y22129946D01*
X22557139Y22152782D01*
X22557136Y22152786D01*
X22417785Y22292137D01*
X22417781Y22292140D01*
X22253920Y22401629D01*
X22253907Y22401636D01*
X22071839Y22477050D01*
X22071829Y22477053D01*
X21878543Y22515500D01*
X21878541Y22515500D01*
X20681459Y22515500D01*
X20681457Y22515500D01*
X20488170Y22477053D01*
X20488160Y22477050D01*
X20306092Y22401636D01*
X20306079Y22401629D01*
X20142218Y22292140D01*
X20142214Y22292137D01*
X20002863Y22152786D01*
X20002860Y22152782D01*
X19893371Y21988921D01*
X19893364Y21988908D01*
X19817950Y21806840D01*
X19817947Y21806830D01*
X19779500Y21613544D01*
X19779500Y21613541D01*
X19779500Y21416459D01*
X19779500Y21416457D01*
X19779499Y21416457D01*
X19817947Y21223171D01*
X19817950Y21223161D01*
X19893364Y21041093D01*
X19893371Y21041080D01*
X20002860Y20877219D01*
X20002863Y20877215D01*
X20142214Y20737864D01*
X20142218Y20737861D01*
X20306079Y20628372D01*
X20306092Y20628365D01*
X20488160Y20552951D01*
X20488165Y20552949D01*
X20488169Y20552949D01*
X20488170Y20552948D01*
X20681456Y20514500D01*
X20681459Y20514500D01*
X21878543Y20514500D01*
X22008582Y20540368D01*
X22071835Y20552949D01*
X22253914Y20628368D01*
X22417782Y20737861D01*
X22557139Y20877218D01*
X22572397Y20900053D01*
X22626009Y20944859D01*
X22695333Y20953568D01*
X22758361Y20923414D01*
X22795081Y20863971D01*
X22799500Y20831164D01*
X22799500Y19658837D01*
X22779815Y19591798D01*
X22727011Y19546043D01*
X22657853Y19536099D01*
X22594297Y19565124D01*
X22572398Y19589946D01*
X22557139Y19612782D01*
X22557136Y19612786D01*
X22417785Y19752137D01*
X22417781Y19752140D01*
X22253920Y19861629D01*
X22253907Y19861636D01*
X22071839Y19937050D01*
X22071829Y19937053D01*
X21878543Y19975500D01*
X21878541Y19975500D01*
X20681459Y19975500D01*
X20681457Y19975500D01*
X20488170Y19937053D01*
X20488160Y19937050D01*
X20306092Y19861636D01*
X20306079Y19861629D01*
X20142218Y19752140D01*
X20142214Y19752137D01*
X20002863Y19612786D01*
X20002860Y19612782D01*
X19893371Y19448921D01*
X19893364Y19448908D01*
X19817950Y19266840D01*
X19817947Y19266830D01*
X19779500Y19073544D01*
X19779500Y19073541D01*
X19779500Y18876459D01*
X19779500Y18876457D01*
X19779499Y18876457D01*
X19817947Y18683171D01*
X19817950Y18683161D01*
X19893364Y18501093D01*
X19893371Y18501080D01*
X20002860Y18337219D01*
X20002863Y18337215D01*
X20142214Y18197864D01*
X20142218Y18197861D01*
X20306079Y18088372D01*
X20306092Y18088365D01*
X20466046Y18022111D01*
X20488165Y18012949D01*
X20488169Y18012949D01*
X20488170Y18012948D01*
X20681456Y17974500D01*
X20681459Y17974500D01*
X21878543Y17974500D01*
X22008582Y18000368D01*
X22071835Y18012949D01*
X22253914Y18088368D01*
X22417782Y18197861D01*
X22557139Y18337218D01*
X22572397Y18360053D01*
X22626009Y18404859D01*
X22695333Y18413568D01*
X22758361Y18383414D01*
X22795081Y18323971D01*
X22799500Y18291164D01*
X22799500Y17118837D01*
X22779815Y17051798D01*
X22727011Y17006043D01*
X22657853Y16996099D01*
X22594297Y17025124D01*
X22572398Y17049946D01*
X22557139Y17072782D01*
X22557136Y17072786D01*
X22417785Y17212137D01*
X22417781Y17212140D01*
X22253920Y17321629D01*
X22253907Y17321636D01*
X22071839Y17397050D01*
X22071829Y17397053D01*
X21878543Y17435500D01*
X21878541Y17435500D01*
X20681459Y17435500D01*
X20681457Y17435500D01*
X20488170Y17397053D01*
X20488160Y17397050D01*
X20306092Y17321636D01*
X20306079Y17321629D01*
X20142218Y17212140D01*
X20142214Y17212137D01*
X20002863Y17072786D01*
X20002860Y17072782D01*
X19893371Y16908921D01*
X19893364Y16908908D01*
X19817950Y16726840D01*
X19817947Y16726830D01*
X19779500Y16533544D01*
X19779500Y16533541D01*
X19779500Y16336459D01*
X19779500Y16336457D01*
X19779499Y16336457D01*
X19817947Y16143171D01*
X19817950Y16143161D01*
X19893364Y15961093D01*
X19893371Y15961080D01*
X20002860Y15797219D01*
X20002863Y15797215D01*
X20142214Y15657864D01*
X20142218Y15657861D01*
X20306079Y15548372D01*
X20306092Y15548365D01*
X20488160Y15472951D01*
X20488165Y15472949D01*
X20488169Y15472949D01*
X20488170Y15472948D01*
X20681456Y15434500D01*
X20681459Y15434500D01*
X21878543Y15434500D01*
X22032939Y15465212D01*
X22071835Y15472949D01*
X22253914Y15548368D01*
X22417782Y15657861D01*
X22557139Y15797218D01*
X22572397Y15820053D01*
X22626009Y15864859D01*
X22695333Y15873568D01*
X22758361Y15843414D01*
X22795081Y15783971D01*
X22799500Y15751164D01*
X22799500Y14578837D01*
X22779815Y14511798D01*
X22727011Y14466043D01*
X22657853Y14456099D01*
X22594297Y14485124D01*
X22572398Y14509946D01*
X22557139Y14532782D01*
X22557136Y14532786D01*
X22417785Y14672137D01*
X22417781Y14672140D01*
X22253920Y14781629D01*
X22253907Y14781636D01*
X22071839Y14857050D01*
X22071829Y14857053D01*
X21878543Y14895500D01*
X21878541Y14895500D01*
X20681459Y14895500D01*
X20681457Y14895500D01*
X20488170Y14857053D01*
X20488160Y14857050D01*
X20306092Y14781636D01*
X20306079Y14781629D01*
X20142218Y14672140D01*
X20142214Y14672137D01*
X20002863Y14532786D01*
X20002860Y14532782D01*
X19893371Y14368921D01*
X19893364Y14368908D01*
X19817950Y14186840D01*
X19817947Y14186830D01*
X19779500Y13993544D01*
X19779500Y13993541D01*
X19779500Y13796459D01*
X19779500Y13796457D01*
X19779499Y13796457D01*
X19817947Y13603171D01*
X19817950Y13603161D01*
X19893364Y13421093D01*
X19893371Y13421080D01*
X20002860Y13257219D01*
X20002863Y13257215D01*
X20142214Y13117864D01*
X20142218Y13117861D01*
X20306079Y13008372D01*
X20306092Y13008365D01*
X20398744Y12969988D01*
X20488165Y12932949D01*
X20488169Y12932949D01*
X20488170Y12932948D01*
X20681456Y12894500D01*
X20681459Y12894500D01*
X21878543Y12894500D01*
X22008582Y12920368D01*
X22071835Y12932949D01*
X22253914Y13008368D01*
X22417782Y13117861D01*
X22557139Y13257218D01*
X22572397Y13280053D01*
X22626009Y13324859D01*
X22695333Y13333568D01*
X22758361Y13303414D01*
X22795081Y13243971D01*
X22799500Y13211164D01*
X22799500Y12038837D01*
X22779815Y11971798D01*
X22727011Y11926043D01*
X22657853Y11916099D01*
X22594297Y11945124D01*
X22572398Y11969946D01*
X22557139Y11992782D01*
X22557136Y11992786D01*
X22417785Y12132137D01*
X22417781Y12132140D01*
X22253920Y12241629D01*
X22253907Y12241636D01*
X22071839Y12317050D01*
X22071829Y12317053D01*
X21878543Y12355500D01*
X21878541Y12355500D01*
X20681459Y12355500D01*
X20681457Y12355500D01*
X20488170Y12317053D01*
X20488160Y12317050D01*
X20306092Y12241636D01*
X20306079Y12241629D01*
X20142218Y12132140D01*
X20142214Y12132137D01*
X20002863Y11992786D01*
X20002860Y11992782D01*
X19893371Y11828921D01*
X19893364Y11828908D01*
X19817950Y11646840D01*
X19817947Y11646830D01*
X19779500Y11453544D01*
X19779500Y11453541D01*
X19779500Y11256459D01*
X19779500Y11256457D01*
X19779499Y11256457D01*
X19817947Y11063171D01*
X19817950Y11063161D01*
X19893364Y10881093D01*
X19893371Y10881080D01*
X20002860Y10717219D01*
X20002863Y10717215D01*
X20142214Y10577864D01*
X20142218Y10577861D01*
X20306079Y10468372D01*
X20306092Y10468365D01*
X20423987Y10419532D01*
X20488165Y10392949D01*
X20488169Y10392949D01*
X20488170Y10392948D01*
X20681456Y10354500D01*
X20681459Y10354500D01*
X21878543Y10354500D01*
X22008582Y10380368D01*
X22071835Y10392949D01*
X22253914Y10468368D01*
X22417782Y10577861D01*
X22557139Y10717218D01*
X22572397Y10740053D01*
X22626009Y10784859D01*
X22695333Y10793568D01*
X22758361Y10763414D01*
X22795081Y10703971D01*
X22799500Y10671164D01*
X22799500Y9498837D01*
X22779815Y9431798D01*
X22727011Y9386043D01*
X22657853Y9376099D01*
X22594297Y9405124D01*
X22572398Y9429946D01*
X22557139Y9452782D01*
X22557136Y9452786D01*
X22417785Y9592137D01*
X22417781Y9592140D01*
X22253920Y9701629D01*
X22253907Y9701636D01*
X22071839Y9777050D01*
X22071829Y9777053D01*
X21878543Y9815500D01*
X21878541Y9815500D01*
X20681459Y9815500D01*
X20681457Y9815500D01*
X20488170Y9777053D01*
X20488160Y9777050D01*
X20306092Y9701636D01*
X20306079Y9701629D01*
X20142218Y9592140D01*
X20142214Y9592137D01*
X20002863Y9452786D01*
X20002860Y9452782D01*
X19893371Y9288921D01*
X19893364Y9288908D01*
X19817950Y9106840D01*
X19817947Y9106830D01*
X19779500Y8913544D01*
X19779500Y8913541D01*
X19779500Y8716459D01*
X19779500Y8716457D01*
X19779499Y8716457D01*
X19817947Y8523171D01*
X19817950Y8523161D01*
X19893364Y8341093D01*
X19893371Y8341080D01*
X20002860Y8177219D01*
X20002863Y8177215D01*
X20142214Y8037864D01*
X20142218Y8037861D01*
X20306079Y7928372D01*
X20306092Y7928365D01*
X20488160Y7852951D01*
X20488165Y7852949D01*
X20488169Y7852949D01*
X20488170Y7852948D01*
X20681456Y7814500D01*
X20681459Y7814500D01*
X21878543Y7814500D01*
X22008582Y7840368D01*
X22071835Y7852949D01*
X22253914Y7928368D01*
X22417782Y8037861D01*
X22557139Y8177218D01*
X22572397Y8200053D01*
X22626009Y8244859D01*
X22695333Y8253568D01*
X22758361Y8223414D01*
X22795081Y8163971D01*
X22799500Y8131164D01*
X22799500Y6958837D01*
X22779815Y6891798D01*
X22727011Y6846043D01*
X22657853Y6836099D01*
X22594297Y6865124D01*
X22572398Y6889946D01*
X22557139Y6912782D01*
X22557136Y6912786D01*
X22417785Y7052137D01*
X22417781Y7052140D01*
X22253920Y7161629D01*
X22253907Y7161636D01*
X22071839Y7237050D01*
X22071829Y7237053D01*
X21878543Y7275500D01*
X21878541Y7275500D01*
X20681459Y7275500D01*
X20681457Y7275500D01*
X20488170Y7237053D01*
X20488160Y7237050D01*
X20306092Y7161636D01*
X20306079Y7161629D01*
X20142218Y7052140D01*
X20142214Y7052137D01*
X20002863Y6912786D01*
X20002860Y6912782D01*
X19893371Y6748921D01*
X19893364Y6748908D01*
X19817950Y6566840D01*
X19817947Y6566830D01*
X19779500Y6373544D01*
X19779500Y6373541D01*
X19779500Y6176459D01*
X19779500Y6176457D01*
X19779499Y6176457D01*
X19817947Y5983171D01*
X19817950Y5983161D01*
X19893364Y5801093D01*
X19893371Y5801080D01*
X20002860Y5637219D01*
X20002863Y5637215D01*
X20142214Y5497864D01*
X20142218Y5497861D01*
X20306079Y5388372D01*
X20306092Y5388365D01*
X20488160Y5312951D01*
X20488165Y5312949D01*
X20488169Y5312949D01*
X20488170Y5312948D01*
X20681456Y5274500D01*
X20681459Y5274500D01*
X21878543Y5274500D01*
X22008582Y5300368D01*
X22071835Y5312949D01*
X22253914Y5388368D01*
X22417782Y5497861D01*
X22557139Y5637218D01*
X22572397Y5660053D01*
X22626009Y5704859D01*
X22695333Y5713568D01*
X22758361Y5683414D01*
X22795081Y5623971D01*
X22799500Y5591164D01*
X22799500Y1804428D01*
X22799184Y1795582D01*
X22799184Y1795581D01*
X22784869Y1595443D01*
X22782351Y1577932D01*
X22740645Y1386210D01*
X22735661Y1369235D01*
X22667093Y1185395D01*
X22659743Y1169301D01*
X22565709Y997092D01*
X22556144Y982209D01*
X22438561Y825136D01*
X22426975Y811765D01*
X22288235Y673025D01*
X22274864Y661439D01*
X22117791Y543856D01*
X22102908Y534291D01*
X21930699Y440257D01*
X21914605Y432907D01*
X21730765Y364339D01*
X21713790Y359355D01*
X21522068Y317649D01*
X21504557Y315131D01*
X21323779Y302201D01*
X21304417Y300816D01*
X21295572Y300500D01*
X1704428Y300500D01*
X1695582Y300816D01*
X1673622Y302387D01*
X1495442Y315131D01*
X1477931Y317649D01*
X1286209Y359355D01*
X1269234Y364339D01*
X1085394Y432907D01*
X1069300Y440257D01*
X897091Y534291D01*
X882208Y543856D01*
X725135Y661439D01*
X711764Y673025D01*
X573024Y811765D01*
X561438Y825136D01*
X443855Y982209D01*
X434290Y997092D01*
X340256Y1169301D01*
X332909Y1185389D01*
X264336Y1369240D01*
X259354Y1386210D01*
X217648Y1577932D01*
X215130Y1595444D01*
X200816Y1795582D01*
X200500Y1804428D01*
X200500Y5420216D01*
X220185Y5487255D01*
X272989Y5533010D01*
X342147Y5542954D01*
X405703Y5513929D01*
X412181Y5507897D01*
X422214Y5497864D01*
X422218Y5497861D01*
X586079Y5388372D01*
X586092Y5388365D01*
X768160Y5312951D01*
X768165Y5312949D01*
X768169Y5312949D01*
X768170Y5312948D01*
X961456Y5274500D01*
X961459Y5274500D01*
X2158543Y5274500D01*
X2288582Y5300368D01*
X2351835Y5312949D01*
X2533914Y5388368D01*
X2697782Y5497861D01*
X2837139Y5637218D01*
X2946632Y5801086D01*
X3022051Y5983165D01*
X3060500Y6176459D01*
X3060500Y6373541D01*
X3060500Y6373544D01*
X3022052Y6566830D01*
X3022051Y6566831D01*
X3022051Y6566835D01*
X3022049Y6566840D01*
X2946635Y6748908D01*
X2946628Y6748921D01*
X2837139Y6912782D01*
X2837136Y6912786D01*
X2697785Y7052137D01*
X2697781Y7052140D01*
X2533920Y7161629D01*
X2533907Y7161636D01*
X2351839Y7237050D01*
X2351829Y7237053D01*
X2158543Y7275500D01*
X2158541Y7275500D01*
X961459Y7275500D01*
X961457Y7275500D01*
X768170Y7237053D01*
X768160Y7237050D01*
X586092Y7161636D01*
X586079Y7161629D01*
X422218Y7052140D01*
X422214Y7052137D01*
X412181Y7042103D01*
X350858Y7008618D01*
X281166Y7013602D01*
X225233Y7055474D01*
X200816Y7120938D01*
X200500Y7129784D01*
X200500Y7960216D01*
X220185Y8027255D01*
X272989Y8073010D01*
X342147Y8082954D01*
X405703Y8053929D01*
X412181Y8047897D01*
X422214Y8037864D01*
X422218Y8037861D01*
X586079Y7928372D01*
X586092Y7928365D01*
X768160Y7852951D01*
X768165Y7852949D01*
X768169Y7852949D01*
X768170Y7852948D01*
X961456Y7814500D01*
X961459Y7814500D01*
X2158543Y7814500D01*
X2288582Y7840368D01*
X2351835Y7852949D01*
X2533914Y7928368D01*
X2697782Y8037861D01*
X2837139Y8177218D01*
X2946632Y8341086D01*
X2966044Y8387954D01*
X3009884Y8442355D01*
X3076178Y8464421D01*
X3080605Y8464500D01*
X3426826Y8464500D01*
X3426828Y8464500D01*
X3515972Y8488386D01*
X3595896Y8534530D01*
X4280470Y9219104D01*
X4326614Y9299028D01*
X4350500Y9388172D01*
X4350500Y10103457D01*
X4359144Y10132898D01*
X4365668Y10162884D01*
X4369422Y10167900D01*
X4370185Y10170496D01*
X4386819Y10191138D01*
X4508862Y10313181D01*
X4570185Y10346666D01*
X4596543Y10349500D01*
X4946142Y10349500D01*
X4946144Y10349500D01*
X5035288Y10373386D01*
X5115212Y10419530D01*
X7080470Y12384788D01*
X7126614Y12464712D01*
X7150500Y12553856D01*
X7150500Y12646144D01*
X7150500Y16011830D01*
X7126614Y16100974D01*
X7102255Y16143165D01*
X7080473Y16180892D01*
X7080470Y16180895D01*
X7080469Y16180898D01*
X7015212Y16246155D01*
X3986819Y19274549D01*
X3953334Y19335872D01*
X3950500Y19362230D01*
X3950500Y29728725D01*
X3957180Y29751476D01*
X3959489Y29775077D01*
X3966843Y29784385D01*
X3970185Y29795764D01*
X3988102Y29811290D01*
X4002806Y29829898D01*
X4017594Y29836845D01*
X4022989Y29841519D01*
X4034214Y29845998D01*
X4044408Y29849500D01*
X4046144Y29849500D01*
X4135288Y29873386D01*
X4156270Y29885500D01*
X4215212Y29919530D01*
X4708863Y30413181D01*
X4770186Y30446666D01*
X4796544Y30449500D01*
X4872472Y30449500D01*
X4872475Y30449500D01*
X5012485Y30487016D01*
X5138015Y30559491D01*
X5240509Y30661985D01*
X5312984Y30787515D01*
X5350500Y30927525D01*
X5350500Y31072475D01*
X5312984Y31212485D01*
X5252760Y31316795D01*
X5240511Y31338012D01*
X5240506Y31338018D01*
X5138017Y31440507D01*
X5138011Y31440512D01*
X5012488Y31512983D01*
X5012489Y31512983D01*
X5001006Y31516060D01*
X4872475Y31550500D01*
X4727525Y31550500D01*
X4598993Y31516060D01*
X4587511Y31512983D01*
X4468507Y31444275D01*
X4400607Y31427802D01*
X4334580Y31450654D01*
X4291389Y31505576D01*
X4282507Y31551662D01*
X4282507Y31844653D01*
X4302192Y31911692D01*
X4318826Y31932334D01*
X4372516Y31986024D01*
X4444991Y32111554D01*
X4482507Y32251564D01*
X4482507Y32396514D01*
X4444991Y32536524D01*
X4386950Y32637053D01*
X4372518Y32662051D01*
X4372513Y32662057D01*
X4270024Y32764546D01*
X4270018Y32764551D01*
X4144495Y32837022D01*
X4144496Y32837022D01*
X4133013Y32840099D01*
X4004482Y32874539D01*
X3859532Y32874539D01*
X3731000Y32840099D01*
X3719518Y32837022D01*
X3593995Y32764551D01*
X3593989Y32764546D01*
X3491500Y32662057D01*
X3491495Y32662051D01*
X3419024Y32536528D01*
X3419023Y32536524D01*
X3381507Y32396514D01*
X3381507Y32251564D01*
X3409014Y32148908D01*
X3419024Y32111551D01*
X3491495Y31986028D01*
X3491500Y31986022D01*
X3545188Y31932334D01*
X3559891Y31905407D01*
X3576484Y31879588D01*
X3577375Y31873388D01*
X3578673Y31871011D01*
X3581507Y31844653D01*
X3581507Y31728551D01*
X3561822Y31661512D01*
X3545188Y31640870D01*
X3245189Y31340872D01*
X3183866Y31307387D01*
X3114174Y31312371D01*
X3058241Y31354243D01*
X3033824Y31419707D01*
X3035891Y31452745D01*
X3060500Y31576457D01*
X3060500Y31773544D01*
X3022052Y31966830D01*
X3022051Y31966831D01*
X3022051Y31966835D01*
X3014101Y31986028D01*
X2946635Y32148908D01*
X2946628Y32148921D01*
X2837139Y32312782D01*
X2837136Y32312786D01*
X2697785Y32452137D01*
X2697781Y32452140D01*
X2533920Y32561629D01*
X2533907Y32561636D01*
X2351839Y32637050D01*
X2351829Y32637053D01*
X2158543Y32675500D01*
X2158541Y32675500D01*
X961459Y32675500D01*
X961457Y32675500D01*
X768170Y32637053D01*
X768160Y32637050D01*
X586092Y32561636D01*
X586079Y32561629D01*
X422218Y32452140D01*
X422214Y32452137D01*
X412181Y32442103D01*
X350858Y32408618D01*
X281166Y32413602D01*
X225233Y32455474D01*
X200816Y32520938D01*
X200500Y32529784D01*
X200500Y33360216D01*
X220185Y33427255D01*
X272989Y33473010D01*
X342147Y33482954D01*
X405703Y33453929D01*
X412181Y33447897D01*
X422214Y33437864D01*
X422218Y33437861D01*
X586079Y33328372D01*
X586092Y33328365D01*
X768160Y33252951D01*
X768165Y33252949D01*
X768169Y33252949D01*
X768170Y33252948D01*
X961456Y33214500D01*
X961459Y33214500D01*
X2158543Y33214500D01*
X2288582Y33240368D01*
X2351835Y33252949D01*
X2533914Y33328368D01*
X2697782Y33437861D01*
X2837139Y33577218D01*
X2946632Y33741086D01*
X3022051Y33923165D01*
X3060500Y34116459D01*
X3060500Y34313541D01*
X3060500Y34313544D01*
X3022052Y34506830D01*
X3022051Y34506831D01*
X3022051Y34506835D01*
X3022049Y34506840D01*
X2946635Y34688908D01*
X2946628Y34688921D01*
X2837139Y34852782D01*
X2837136Y34852786D01*
X2697785Y34992137D01*
X2697781Y34992140D01*
X2533920Y35101629D01*
X2533907Y35101636D01*
X2351839Y35177050D01*
X2351829Y35177053D01*
X2170937Y35213035D01*
X2109026Y35245420D01*
X2074452Y35306136D01*
X2078192Y35375905D01*
X2119059Y35432577D01*
X2175731Y35457125D01*
X2364417Y35487010D01*
X2559031Y35550245D01*
X2741349Y35643141D01*
X2906894Y35763418D01*
X2906895Y35763418D01*
X3051582Y35908105D01*
X3051582Y35908106D01*
X3171859Y36073651D01*
X3264755Y36255971D01*
X3327990Y36450587D01*
X3336609Y36505000D01*
X1693012Y36505000D01*
X1725925Y36562007D01*
X1760000Y36689174D01*
X1760000Y36820826D01*
X1725925Y36947993D01*
X1693012Y37005000D01*
X3336609Y37005000D01*
X3327990Y37059414D01*
X3264755Y37254030D01*
X3171859Y37436350D01*
X3051582Y37601895D01*
X3051582Y37601896D01*
X2906895Y37746583D01*
X2741349Y37866860D01*
X2559031Y37959756D01*
X2364417Y38022991D01*
X2175731Y38052876D01*
X2112596Y38082806D01*
X2075665Y38142117D01*
X2076663Y38211980D01*
X2115273Y38270212D01*
X2170938Y38296966D01*
X2351835Y38332949D01*
X2533914Y38408368D01*
X2697782Y38517861D01*
X2837139Y38657218D01*
X2946632Y38821086D01*
X3022051Y39003165D01*
X3060500Y39196459D01*
X3060500Y39393541D01*
X3060500Y39393544D01*
X3022052Y39586830D01*
X3022051Y39586831D01*
X3022051Y39586835D01*
X3022049Y39586840D01*
X2946635Y39768908D01*
X2946628Y39768921D01*
X2837139Y39932782D01*
X2837136Y39932786D01*
X2697785Y40072137D01*
X2697781Y40072140D01*
X2533920Y40181629D01*
X2533907Y40181636D01*
X2351839Y40257050D01*
X2351829Y40257053D01*
X2158543Y40295500D01*
X2158541Y40295500D01*
X961459Y40295500D01*
X961457Y40295500D01*
X768170Y40257053D01*
X768160Y40257050D01*
X586092Y40181636D01*
X586079Y40181629D01*
X422218Y40072140D01*
X422214Y40072137D01*
X412181Y40062103D01*
X350858Y40028618D01*
X281166Y40033602D01*
X225233Y40075474D01*
X200816Y40140938D01*
X200500Y40149784D01*
X200500Y40980216D01*
X220185Y41047255D01*
X272989Y41093010D01*
X342147Y41102954D01*
X405703Y41073929D01*
X412181Y41067897D01*
X422214Y41057864D01*
X422218Y41057861D01*
X586079Y40948372D01*
X586092Y40948365D01*
X768160Y40872951D01*
X768165Y40872949D01*
X768169Y40872949D01*
X768170Y40872948D01*
X961456Y40834500D01*
X961459Y40834500D01*
X2158543Y40834500D01*
X2288582Y40860368D01*
X2351835Y40872949D01*
X2533914Y40948368D01*
X2697782Y41057861D01*
X2837139Y41197218D01*
X2946632Y41361086D01*
X3022051Y41543165D01*
X3060500Y41736459D01*
X3060500Y41933541D01*
X3060500Y41933544D01*
X3022052Y42126830D01*
X3022051Y42126831D01*
X3022051Y42126835D01*
X3022049Y42126840D01*
X2946635Y42308908D01*
X2946628Y42308921D01*
X2837139Y42472782D01*
X2837136Y42472786D01*
X2697785Y42612137D01*
X2697781Y42612140D01*
X2533920Y42721629D01*
X2533907Y42721636D01*
X2351839Y42797050D01*
X2351829Y42797053D01*
X2158543Y42835500D01*
X2158541Y42835500D01*
X961459Y42835500D01*
X961457Y42835500D01*
X768170Y42797053D01*
X768160Y42797050D01*
X586092Y42721636D01*
X586079Y42721629D01*
X422218Y42612140D01*
X422214Y42612137D01*
X412181Y42602103D01*
X350858Y42568618D01*
X281166Y42573602D01*
X225233Y42615474D01*
X200816Y42680938D01*
X200500Y42689784D01*
X200500Y43281254D01*
X220185Y43348293D01*
X272989Y43394048D01*
X342147Y43403992D01*
X365452Y43398296D01*
X425301Y43377354D01*
X425300Y43377354D01*
X455730Y43374500D01*
X455734Y43374500D01*
X2664270Y43374500D01*
X2694699Y43377354D01*
X2694701Y43377354D01*
X2770826Y43403992D01*
X2822882Y43422207D01*
X2932150Y43502850D01*
X3012793Y43612118D01*
X3035219Y43676210D01*
X3057646Y43740299D01*
X3057646Y43740301D01*
X3060500Y43770731D01*
X3060500Y44979270D01*
X3057646Y45009700D01*
X3057646Y45009702D01*
X3012793Y45137881D01*
X3012792Y45137883D01*
X2932150Y45247150D01*
X2822882Y45327793D01*
X2822880Y45327794D01*
X2694700Y45372647D01*
X2664270Y45375500D01*
X2664266Y45375500D01*
X455734Y45375500D01*
X455730Y45375500D01*
X425302Y45372647D01*
X365454Y45351705D01*
X295676Y45348144D01*
X235048Y45382873D01*
X202821Y45444866D01*
X200500Y45468747D01*
X200500Y48795573D01*
X200816Y48804419D01*
X215130Y49004557D01*
X215131Y49004566D01*
X217646Y49022062D01*
X259356Y49213800D01*
X264335Y49230758D01*
X332911Y49414618D01*
X340251Y49430690D01*
X434294Y49602917D01*
X443850Y49617786D01*
X561443Y49774872D01*
X573017Y49788229D01*
X711771Y49926983D01*
X725128Y49938557D01*
X882214Y50056150D01*
X897083Y50065706D01*
X1069310Y50159749D01*
X1085382Y50167089D01*
X1269242Y50235665D01*
X1286200Y50240644D01*
X1477938Y50282354D01*
X1495436Y50284870D01*
X1695582Y50299184D01*
X1704428Y50299500D01*
X1765892Y50299500D01*
X21234108Y50299500D01*
X21295572Y50299500D01*
X21304418Y50299184D01*
G37*
%TD.AperFunction*%
%TA.AperFunction,Conductor*%
G36*
X328814Y18241038D02*
G01*
X342147Y18242954D01*
X362290Y18233755D01*
X383927Y18229048D01*
X401652Y18215780D01*
X405703Y18213929D01*
X412181Y18207897D01*
X422214Y18197864D01*
X422218Y18197861D01*
X586079Y18088372D01*
X586092Y18088365D01*
X746046Y18022111D01*
X768165Y18012949D01*
X768169Y18012949D01*
X768170Y18012948D01*
X961456Y17974500D01*
X961459Y17974500D01*
X2158543Y17974500D01*
X2288582Y18000368D01*
X2351835Y18012949D01*
X2373954Y18022112D01*
X2443422Y18029580D01*
X2505901Y17998306D01*
X2509087Y17995231D01*
X5363181Y15141137D01*
X5396666Y15079814D01*
X5399500Y15053456D01*
X5399500Y13521849D01*
X5379815Y13454810D01*
X5363181Y13434168D01*
X5309493Y13380481D01*
X5309488Y13380475D01*
X5237017Y13254952D01*
X5237016Y13254948D01*
X5199500Y13114938D01*
X5199500Y12969988D01*
X5237016Y12829978D01*
X5237017Y12829975D01*
X5309488Y12704452D01*
X5309490Y12704450D01*
X5309491Y12704448D01*
X5411985Y12601954D01*
X5480360Y12562478D01*
X5528575Y12511911D01*
X5541799Y12443304D01*
X5515831Y12378440D01*
X5506041Y12367410D01*
X4880451Y11741819D01*
X4819128Y11708334D01*
X4792770Y11705500D01*
X3080605Y11705500D01*
X3013566Y11725185D01*
X2967811Y11777989D01*
X2966060Y11782010D01*
X2946632Y11828914D01*
X2881733Y11926043D01*
X2837139Y11992783D01*
X2697785Y12132137D01*
X2697781Y12132140D01*
X2533920Y12241629D01*
X2533907Y12241636D01*
X2351839Y12317050D01*
X2351829Y12317053D01*
X2158543Y12355500D01*
X2158541Y12355500D01*
X961459Y12355500D01*
X961457Y12355500D01*
X768170Y12317053D01*
X768160Y12317050D01*
X586092Y12241636D01*
X586079Y12241629D01*
X422218Y12132140D01*
X422214Y12132137D01*
X412181Y12122103D01*
X350858Y12088618D01*
X281166Y12093602D01*
X225233Y12135474D01*
X200816Y12200938D01*
X200500Y12209784D01*
X200500Y13040216D01*
X220185Y13107255D01*
X272989Y13153010D01*
X342147Y13162954D01*
X405703Y13133929D01*
X412181Y13127897D01*
X422214Y13117864D01*
X422218Y13117861D01*
X586079Y13008372D01*
X586092Y13008365D01*
X678744Y12969988D01*
X768165Y12932949D01*
X768169Y12932949D01*
X768170Y12932948D01*
X961456Y12894500D01*
X961459Y12894500D01*
X2158543Y12894500D01*
X2288582Y12920368D01*
X2351835Y12932949D01*
X2533914Y13008368D01*
X2697782Y13117861D01*
X2837139Y13257218D01*
X2946632Y13421086D01*
X3022051Y13603165D01*
X3060500Y13796459D01*
X3060500Y13993541D01*
X3060500Y13993544D01*
X3022052Y14186830D01*
X3022051Y14186831D01*
X3022051Y14186835D01*
X3022049Y14186840D01*
X2946635Y14368908D01*
X2946628Y14368921D01*
X2837139Y14532782D01*
X2837136Y14532786D01*
X2697785Y14672137D01*
X2697781Y14672140D01*
X2533920Y14781629D01*
X2533907Y14781636D01*
X2351839Y14857050D01*
X2351829Y14857053D01*
X2158543Y14895500D01*
X2158541Y14895500D01*
X961459Y14895500D01*
X961457Y14895500D01*
X768170Y14857053D01*
X768160Y14857050D01*
X586092Y14781636D01*
X586079Y14781629D01*
X422218Y14672140D01*
X422214Y14672137D01*
X412181Y14662103D01*
X350858Y14628618D01*
X281166Y14633602D01*
X225233Y14675474D01*
X200816Y14740938D01*
X200500Y14749784D01*
X200500Y15580216D01*
X220185Y15647255D01*
X272989Y15693010D01*
X342147Y15702954D01*
X405703Y15673929D01*
X412181Y15667897D01*
X422214Y15657864D01*
X422218Y15657861D01*
X586079Y15548372D01*
X586092Y15548365D01*
X768160Y15472951D01*
X768165Y15472949D01*
X768169Y15472949D01*
X768170Y15472948D01*
X961456Y15434500D01*
X961459Y15434500D01*
X2158543Y15434500D01*
X2312939Y15465212D01*
X2351835Y15472949D01*
X2533914Y15548368D01*
X2697782Y15657861D01*
X2837139Y15797218D01*
X2946632Y15961086D01*
X3022051Y16143165D01*
X3060500Y16336459D01*
X3060500Y16533541D01*
X3060500Y16533544D01*
X3022052Y16726830D01*
X3022051Y16726831D01*
X3022051Y16726835D01*
X3022049Y16726840D01*
X2946635Y16908908D01*
X2946628Y16908921D01*
X2837139Y17072782D01*
X2837136Y17072786D01*
X2697785Y17212137D01*
X2697781Y17212140D01*
X2533920Y17321629D01*
X2533907Y17321636D01*
X2351839Y17397050D01*
X2351829Y17397053D01*
X2158543Y17435500D01*
X2158541Y17435500D01*
X961459Y17435500D01*
X961457Y17435500D01*
X768170Y17397053D01*
X768160Y17397050D01*
X586092Y17321636D01*
X586079Y17321629D01*
X422218Y17212140D01*
X422214Y17212137D01*
X412181Y17202103D01*
X350858Y17168618D01*
X281166Y17173602D01*
X225233Y17215474D01*
X200816Y17280938D01*
X200500Y17289784D01*
X200500Y18120216D01*
X206738Y18141462D01*
X208318Y18163550D01*
X216390Y18174334D01*
X220185Y18187255D01*
X236918Y18201755D01*
X250190Y18219483D01*
X262810Y18224191D01*
X272989Y18233010D01*
X294906Y18236162D01*
X315654Y18243900D01*
X328814Y18241038D01*
G37*
%TD.AperFunction*%
%TD*%
M02*
