%TF.GenerationSoftware,KiCad,Pcbnew,10.0.4*%
%TF.CreationDate,2026-09-06T20:48:54-07:00*%
%TF.ProjectId,aperture,61706572-7475-4726-952e-6b696361645f,rev?*%
%TF.SameCoordinates,Original*%
%TF.FileFunction,Legend,Bot*%
%TF.FilePolarity,Positive*%
%FSLAX46Y46*%
G04 Gerber Fmt 4.6, Leading zero omitted, Abs format (unit mm)*
G04 Created by KiCad (PCBNEW 10.0.4) date 2026-09-06 20:48:54*
%MOMM*%
%LPD*%
G01*
G04 APERTURE LIST*
G04 Aperture macros list*
%AMRoundRect*
0 Rectangle with rounded corners*
0 $1 Rounding radius*
0 $2 $3 $4 $5 $6 $7 $8 $9 X,Y pos of 4 corners*
0 Add a 4 corners polygon primitive as box body*
4,1,4,$2,$3,$4,$5,$6,$7,$8,$9,$2,$3,0*
0 Add four circle primitives for the rounded corners*
1,1,$1+$1,$2,$3*
1,1,$1+$1,$4,$5*
1,1,$1+$1,$6,$7*
1,1,$1+$1,$8,$9*
0 Add four rect primitives between the rounded corners*
20,1,$1+$1,$2,$3,$4,$5,0*
20,1,$1+$1,$4,$5,$6,$7,0*
20,1,$1+$1,$6,$7,$8,$9,0*
20,1,$1+$1,$8,$9,$2,$3,0*%
G04 Aperture macros list end*
%ADD10C,0.100000*%
%ADD11C,0.150000*%
%ADD12RoundRect,0.250000X-1.050000X-0.550000X1.050000X-0.550000X1.050000X0.550000X-1.050000X0.550000X0*%
%ADD13O,2.600000X1.600000*%
G04 APERTURE END LIST*
D10*
X15296115Y23557413D02*
X15296115Y24557413D01*
X15296115Y24557413D02*
X15058020Y24557413D01*
X15058020Y24557413D02*
X14915163Y24509794D01*
X14915163Y24509794D02*
X14819925Y24414556D01*
X14819925Y24414556D02*
X14772306Y24319318D01*
X14772306Y24319318D02*
X14724687Y24128842D01*
X14724687Y24128842D02*
X14724687Y23985985D01*
X14724687Y23985985D02*
X14772306Y23795509D01*
X14772306Y23795509D02*
X14819925Y23700271D01*
X14819925Y23700271D02*
X14915163Y23605032D01*
X14915163Y23605032D02*
X15058020Y23557413D01*
X15058020Y23557413D02*
X15296115Y23557413D01*
X14296115Y24081223D02*
X13962782Y24081223D01*
X13819925Y23557413D02*
X14296115Y23557413D01*
X14296115Y23557413D02*
X14296115Y24557413D01*
X14296115Y24557413D02*
X13819925Y24557413D01*
X13438972Y23605032D02*
X13296115Y23557413D01*
X13296115Y23557413D02*
X13058020Y23557413D01*
X13058020Y23557413D02*
X12962782Y23605032D01*
X12962782Y23605032D02*
X12915163Y23652652D01*
X12915163Y23652652D02*
X12867544Y23747890D01*
X12867544Y23747890D02*
X12867544Y23843128D01*
X12867544Y23843128D02*
X12915163Y23938366D01*
X12915163Y23938366D02*
X12962782Y23985985D01*
X12962782Y23985985D02*
X13058020Y24033604D01*
X13058020Y24033604D02*
X13248496Y24081223D01*
X13248496Y24081223D02*
X13343734Y24128842D01*
X13343734Y24128842D02*
X13391353Y24176461D01*
X13391353Y24176461D02*
X13438972Y24271699D01*
X13438972Y24271699D02*
X13438972Y24366937D01*
X13438972Y24366937D02*
X13391353Y24462175D01*
X13391353Y24462175D02*
X13343734Y24509794D01*
X13343734Y24509794D02*
X13248496Y24557413D01*
X13248496Y24557413D02*
X13010401Y24557413D01*
X13010401Y24557413D02*
X12867544Y24509794D01*
X12438972Y23557413D02*
X12438972Y24557413D01*
X11438973Y24509794D02*
X11534211Y24557413D01*
X11534211Y24557413D02*
X11677068Y24557413D01*
X11677068Y24557413D02*
X11819925Y24509794D01*
X11819925Y24509794D02*
X11915163Y24414556D01*
X11915163Y24414556D02*
X11962782Y24319318D01*
X11962782Y24319318D02*
X12010401Y24128842D01*
X12010401Y24128842D02*
X12010401Y23985985D01*
X12010401Y23985985D02*
X11962782Y23795509D01*
X11962782Y23795509D02*
X11915163Y23700271D01*
X11915163Y23700271D02*
X11819925Y23605032D01*
X11819925Y23605032D02*
X11677068Y23557413D01*
X11677068Y23557413D02*
X11581830Y23557413D01*
X11581830Y23557413D02*
X11438973Y23605032D01*
X11438973Y23605032D02*
X11391354Y23652652D01*
X11391354Y23652652D02*
X11391354Y23985985D01*
X11391354Y23985985D02*
X11581830Y23985985D01*
X10962782Y23557413D02*
X10962782Y24557413D01*
X10962782Y24557413D02*
X10391354Y23557413D01*
X10391354Y23557413D02*
X10391354Y24557413D01*
X9915163Y24081223D02*
X9581830Y24081223D01*
X9438973Y23557413D02*
X9915163Y23557413D01*
X9915163Y23557413D02*
X9915163Y24557413D01*
X9915163Y24557413D02*
X9438973Y24557413D01*
X9010401Y23557413D02*
X9010401Y24557413D01*
X9010401Y24557413D02*
X8772306Y24557413D01*
X8772306Y24557413D02*
X8629449Y24509794D01*
X8629449Y24509794D02*
X8534211Y24414556D01*
X8534211Y24414556D02*
X8486592Y24319318D01*
X8486592Y24319318D02*
X8438973Y24128842D01*
X8438973Y24128842D02*
X8438973Y23985985D01*
X8438973Y23985985D02*
X8486592Y23795509D01*
X8486592Y23795509D02*
X8534211Y23700271D01*
X8534211Y23700271D02*
X8629449Y23605032D01*
X8629449Y23605032D02*
X8772306Y23557413D01*
X8772306Y23557413D02*
X9010401Y23557413D01*
X6915163Y24081223D02*
X6772306Y24033604D01*
X6772306Y24033604D02*
X6724687Y23985985D01*
X6724687Y23985985D02*
X6677068Y23890747D01*
X6677068Y23890747D02*
X6677068Y23747890D01*
X6677068Y23747890D02*
X6724687Y23652652D01*
X6724687Y23652652D02*
X6772306Y23605032D01*
X6772306Y23605032D02*
X6867544Y23557413D01*
X6867544Y23557413D02*
X7248496Y23557413D01*
X7248496Y23557413D02*
X7248496Y24557413D01*
X7248496Y24557413D02*
X6915163Y24557413D01*
X6915163Y24557413D02*
X6819925Y24509794D01*
X6819925Y24509794D02*
X6772306Y24462175D01*
X6772306Y24462175D02*
X6724687Y24366937D01*
X6724687Y24366937D02*
X6724687Y24271699D01*
X6724687Y24271699D02*
X6772306Y24176461D01*
X6772306Y24176461D02*
X6819925Y24128842D01*
X6819925Y24128842D02*
X6915163Y24081223D01*
X6915163Y24081223D02*
X7248496Y24081223D01*
X6058020Y24033604D02*
X6058020Y23557413D01*
X6391353Y24557413D02*
X6058020Y24033604D01*
X6058020Y24033604D02*
X5724687Y24557413D01*
X5391353Y23652652D02*
X5343734Y23605032D01*
X5343734Y23605032D02*
X5391353Y23557413D01*
X5391353Y23557413D02*
X5438972Y23605032D01*
X5438972Y23605032D02*
X5391353Y23652652D01*
X5391353Y23652652D02*
X5391353Y23557413D01*
X5391353Y24176461D02*
X5343734Y24128842D01*
X5343734Y24128842D02*
X5391353Y24081223D01*
X5391353Y24081223D02*
X5438972Y24128842D01*
X5438972Y24128842D02*
X5391353Y24176461D01*
X5391353Y24176461D02*
X5391353Y24081223D01*
X15296115Y22471279D02*
X14962782Y22471279D01*
X14819925Y21947469D02*
X15296115Y21947469D01*
X15296115Y21947469D02*
X15296115Y22947469D01*
X15296115Y22947469D02*
X14819925Y22947469D01*
X13915163Y21947469D02*
X14391353Y21947469D01*
X14391353Y21947469D02*
X14391353Y22947469D01*
X13581829Y21947469D02*
X13581829Y22947469D01*
X12819925Y22947469D02*
X12819925Y22233184D01*
X12819925Y22233184D02*
X12867544Y22090327D01*
X12867544Y22090327D02*
X12962782Y21995088D01*
X12962782Y21995088D02*
X13105639Y21947469D01*
X13105639Y21947469D02*
X13200877Y21947469D01*
X12391353Y22233184D02*
X11915163Y22233184D01*
X12486591Y21947469D02*
X12153258Y22947469D01*
X12153258Y22947469D02*
X11819925Y21947469D01*
X11486591Y21947469D02*
X11486591Y22947469D01*
X11486591Y22471279D02*
X10915163Y22471279D01*
X10915163Y21947469D02*
X10915163Y22947469D01*
X9724686Y21995088D02*
X9581829Y21947469D01*
X9581829Y21947469D02*
X9343734Y21947469D01*
X9343734Y21947469D02*
X9248496Y21995088D01*
X9248496Y21995088D02*
X9200877Y22042708D01*
X9200877Y22042708D02*
X9153258Y22137946D01*
X9153258Y22137946D02*
X9153258Y22233184D01*
X9153258Y22233184D02*
X9200877Y22328422D01*
X9200877Y22328422D02*
X9248496Y22376041D01*
X9248496Y22376041D02*
X9343734Y22423660D01*
X9343734Y22423660D02*
X9534210Y22471279D01*
X9534210Y22471279D02*
X9629448Y22518898D01*
X9629448Y22518898D02*
X9677067Y22566517D01*
X9677067Y22566517D02*
X9724686Y22661755D01*
X9724686Y22661755D02*
X9724686Y22756993D01*
X9724686Y22756993D02*
X9677067Y22852231D01*
X9677067Y22852231D02*
X9629448Y22899850D01*
X9629448Y22899850D02*
X9534210Y22947469D01*
X9534210Y22947469D02*
X9296115Y22947469D01*
X9296115Y22947469D02*
X9153258Y22899850D01*
X8534210Y22947469D02*
X8343734Y22947469D01*
X8343734Y22947469D02*
X8248496Y22899850D01*
X8248496Y22899850D02*
X8153258Y22804612D01*
X8153258Y22804612D02*
X8105639Y22614136D01*
X8105639Y22614136D02*
X8105639Y22280803D01*
X8105639Y22280803D02*
X8153258Y22090327D01*
X8153258Y22090327D02*
X8248496Y21995088D01*
X8248496Y21995088D02*
X8343734Y21947469D01*
X8343734Y21947469D02*
X8534210Y21947469D01*
X8534210Y21947469D02*
X8629448Y21995088D01*
X8629448Y21995088D02*
X8724686Y22090327D01*
X8724686Y22090327D02*
X8772305Y22280803D01*
X8772305Y22280803D02*
X8772305Y22614136D01*
X8772305Y22614136D02*
X8724686Y22804612D01*
X8724686Y22804612D02*
X8629448Y22899850D01*
X8629448Y22899850D02*
X8534210Y22947469D01*
X7677067Y21947469D02*
X7677067Y22947469D01*
X7677067Y22471279D02*
X7105639Y22471279D01*
X7105639Y21947469D02*
X7105639Y22947469D01*
X6629448Y21947469D02*
X6629448Y22947469D01*
X6629448Y22947469D02*
X6058020Y21947469D01*
X6058020Y21947469D02*
X6058020Y22947469D01*
X15296115Y20337525D02*
X15296115Y21337525D01*
X14486592Y20861335D02*
X14819925Y20861335D01*
X14819925Y20337525D02*
X14819925Y21337525D01*
X14819925Y21337525D02*
X14343735Y21337525D01*
X12867544Y20861335D02*
X13200877Y20861335D01*
X13200877Y20337525D02*
X13200877Y21337525D01*
X13200877Y21337525D02*
X12724687Y21337525D01*
X12153258Y21337525D02*
X11962782Y21337525D01*
X11962782Y21337525D02*
X11867544Y21289906D01*
X11867544Y21289906D02*
X11772306Y21194668D01*
X11772306Y21194668D02*
X11724687Y21004192D01*
X11724687Y21004192D02*
X11724687Y20670859D01*
X11724687Y20670859D02*
X11772306Y20480383D01*
X11772306Y20480383D02*
X11867544Y20385144D01*
X11867544Y20385144D02*
X11962782Y20337525D01*
X11962782Y20337525D02*
X12153258Y20337525D01*
X12153258Y20337525D02*
X12248496Y20385144D01*
X12248496Y20385144D02*
X12343734Y20480383D01*
X12343734Y20480383D02*
X12391353Y20670859D01*
X12391353Y20670859D02*
X12391353Y21004192D01*
X12391353Y21004192D02*
X12343734Y21194668D01*
X12343734Y21194668D02*
X12248496Y21289906D01*
X12248496Y21289906D02*
X12153258Y21337525D01*
X11296115Y21337525D02*
X11296115Y20528002D01*
X11296115Y20528002D02*
X11248496Y20432764D01*
X11248496Y20432764D02*
X11200877Y20385144D01*
X11200877Y20385144D02*
X11105639Y20337525D01*
X11105639Y20337525D02*
X10915163Y20337525D01*
X10915163Y20337525D02*
X10819925Y20385144D01*
X10819925Y20385144D02*
X10772306Y20432764D01*
X10772306Y20432764D02*
X10724687Y20528002D01*
X10724687Y20528002D02*
X10724687Y21337525D01*
X10248496Y20337525D02*
X10248496Y21337525D01*
X10248496Y21337525D02*
X9677068Y20337525D01*
X9677068Y20337525D02*
X9677068Y21337525D01*
X9200877Y20337525D02*
X9200877Y21337525D01*
X9200877Y21337525D02*
X8962782Y21337525D01*
X8962782Y21337525D02*
X8819925Y21289906D01*
X8819925Y21289906D02*
X8724687Y21194668D01*
X8724687Y21194668D02*
X8677068Y21099430D01*
X8677068Y21099430D02*
X8629449Y20908954D01*
X8629449Y20908954D02*
X8629449Y20766097D01*
X8629449Y20766097D02*
X8677068Y20575621D01*
X8677068Y20575621D02*
X8724687Y20480383D01*
X8724687Y20480383D02*
X8819925Y20385144D01*
X8819925Y20385144D02*
X8962782Y20337525D01*
X8962782Y20337525D02*
X9200877Y20337525D01*
X6867544Y20432764D02*
X6915163Y20385144D01*
X6915163Y20385144D02*
X7058020Y20337525D01*
X7058020Y20337525D02*
X7153258Y20337525D01*
X7153258Y20337525D02*
X7296115Y20385144D01*
X7296115Y20385144D02*
X7391353Y20480383D01*
X7391353Y20480383D02*
X7438972Y20575621D01*
X7438972Y20575621D02*
X7486591Y20766097D01*
X7486591Y20766097D02*
X7486591Y20908954D01*
X7486591Y20908954D02*
X7438972Y21099430D01*
X7438972Y21099430D02*
X7391353Y21194668D01*
X7391353Y21194668D02*
X7296115Y21289906D01*
X7296115Y21289906D02*
X7153258Y21337525D01*
X7153258Y21337525D02*
X7058020Y21337525D01*
X7058020Y21337525D02*
X6915163Y21289906D01*
X6915163Y21289906D02*
X6867544Y21242287D01*
X6486591Y20623240D02*
X6010401Y20623240D01*
X6581829Y20337525D02*
X6248496Y21337525D01*
X6248496Y21337525D02*
X5915163Y20337525D01*
X5105639Y20337525D02*
X5581829Y20337525D01*
X5581829Y20337525D02*
X5581829Y21337525D01*
X4296115Y20337525D02*
X4772305Y20337525D01*
X4772305Y20337525D02*
X4772305Y21337525D01*
X14867544Y19727581D02*
X15058020Y19727581D01*
X15058020Y19727581D02*
X15153258Y19679962D01*
X15153258Y19679962D02*
X15200877Y19632343D01*
X15200877Y19632343D02*
X15296115Y19489486D01*
X15296115Y19489486D02*
X15343734Y19299010D01*
X15343734Y19299010D02*
X15343734Y18918058D01*
X15343734Y18918058D02*
X15296115Y18822820D01*
X15296115Y18822820D02*
X15248496Y18775200D01*
X15248496Y18775200D02*
X15153258Y18727581D01*
X15153258Y18727581D02*
X14962782Y18727581D01*
X14962782Y18727581D02*
X14867544Y18775200D01*
X14867544Y18775200D02*
X14819925Y18822820D01*
X14819925Y18822820D02*
X14772306Y18918058D01*
X14772306Y18918058D02*
X14772306Y19156153D01*
X14772306Y19156153D02*
X14819925Y19251391D01*
X14819925Y19251391D02*
X14867544Y19299010D01*
X14867544Y19299010D02*
X14962782Y19346629D01*
X14962782Y19346629D02*
X15153258Y19346629D01*
X15153258Y19346629D02*
X15248496Y19299010D01*
X15248496Y19299010D02*
X15296115Y19251391D01*
X15296115Y19251391D02*
X15343734Y19156153D01*
X13915163Y19394248D02*
X13915163Y18727581D01*
X14153258Y19775200D02*
X14391353Y19060915D01*
X14391353Y19060915D02*
X13772306Y19060915D01*
X12962782Y19727581D02*
X13153258Y19727581D01*
X13153258Y19727581D02*
X13248496Y19679962D01*
X13248496Y19679962D02*
X13296115Y19632343D01*
X13296115Y19632343D02*
X13391353Y19489486D01*
X13391353Y19489486D02*
X13438972Y19299010D01*
X13438972Y19299010D02*
X13438972Y18918058D01*
X13438972Y18918058D02*
X13391353Y18822820D01*
X13391353Y18822820D02*
X13343734Y18775200D01*
X13343734Y18775200D02*
X13248496Y18727581D01*
X13248496Y18727581D02*
X13058020Y18727581D01*
X13058020Y18727581D02*
X12962782Y18775200D01*
X12962782Y18775200D02*
X12915163Y18822820D01*
X12915163Y18822820D02*
X12867544Y18918058D01*
X12867544Y18918058D02*
X12867544Y19156153D01*
X12867544Y19156153D02*
X12915163Y19251391D01*
X12915163Y19251391D02*
X12962782Y19299010D01*
X12962782Y19299010D02*
X13058020Y19346629D01*
X13058020Y19346629D02*
X13248496Y19346629D01*
X13248496Y19346629D02*
X13343734Y19299010D01*
X13343734Y19299010D02*
X13391353Y19251391D01*
X13391353Y19251391D02*
X13438972Y19156153D01*
X11248496Y19727581D02*
X11438972Y19727581D01*
X11438972Y19727581D02*
X11534210Y19679962D01*
X11534210Y19679962D02*
X11581829Y19632343D01*
X11581829Y19632343D02*
X11677067Y19489486D01*
X11677067Y19489486D02*
X11724686Y19299010D01*
X11724686Y19299010D02*
X11724686Y18918058D01*
X11724686Y18918058D02*
X11677067Y18822820D01*
X11677067Y18822820D02*
X11629448Y18775200D01*
X11629448Y18775200D02*
X11534210Y18727581D01*
X11534210Y18727581D02*
X11343734Y18727581D01*
X11343734Y18727581D02*
X11248496Y18775200D01*
X11248496Y18775200D02*
X11200877Y18822820D01*
X11200877Y18822820D02*
X11153258Y18918058D01*
X11153258Y18918058D02*
X11153258Y19156153D01*
X11153258Y19156153D02*
X11200877Y19251391D01*
X11200877Y19251391D02*
X11248496Y19299010D01*
X11248496Y19299010D02*
X11343734Y19346629D01*
X11343734Y19346629D02*
X11534210Y19346629D01*
X11534210Y19346629D02*
X11629448Y19299010D01*
X11629448Y19299010D02*
X11677067Y19251391D01*
X11677067Y19251391D02*
X11724686Y19156153D01*
X10200877Y18727581D02*
X10772305Y18727581D01*
X10486591Y18727581D02*
X10486591Y19727581D01*
X10486591Y19727581D02*
X10581829Y19584724D01*
X10581829Y19584724D02*
X10677067Y19489486D01*
X10677067Y19489486D02*
X10772305Y19441867D01*
X9629448Y19299010D02*
X9724686Y19346629D01*
X9724686Y19346629D02*
X9772305Y19394248D01*
X9772305Y19394248D02*
X9819924Y19489486D01*
X9819924Y19489486D02*
X9819924Y19537105D01*
X9819924Y19537105D02*
X9772305Y19632343D01*
X9772305Y19632343D02*
X9724686Y19679962D01*
X9724686Y19679962D02*
X9629448Y19727581D01*
X9629448Y19727581D02*
X9438972Y19727581D01*
X9438972Y19727581D02*
X9343734Y19679962D01*
X9343734Y19679962D02*
X9296115Y19632343D01*
X9296115Y19632343D02*
X9248496Y19537105D01*
X9248496Y19537105D02*
X9248496Y19489486D01*
X9248496Y19489486D02*
X9296115Y19394248D01*
X9296115Y19394248D02*
X9343734Y19346629D01*
X9343734Y19346629D02*
X9438972Y19299010D01*
X9438972Y19299010D02*
X9629448Y19299010D01*
X9629448Y19299010D02*
X9724686Y19251391D01*
X9724686Y19251391D02*
X9772305Y19203772D01*
X9772305Y19203772D02*
X9819924Y19108534D01*
X9819924Y19108534D02*
X9819924Y18918058D01*
X9819924Y18918058D02*
X9772305Y18822820D01*
X9772305Y18822820D02*
X9724686Y18775200D01*
X9724686Y18775200D02*
X9629448Y18727581D01*
X9629448Y18727581D02*
X9438972Y18727581D01*
X9438972Y18727581D02*
X9343734Y18775200D01*
X9343734Y18775200D02*
X9296115Y18822820D01*
X9296115Y18822820D02*
X9248496Y18918058D01*
X9248496Y18918058D02*
X9248496Y19108534D01*
X9248496Y19108534D02*
X9296115Y19203772D01*
X9296115Y19203772D02*
X9343734Y19251391D01*
X9343734Y19251391D02*
X9438972Y19299010D01*
X7629448Y19394248D02*
X7629448Y18727581D01*
X7867543Y19775200D02*
X8105638Y19060915D01*
X8105638Y19060915D02*
X7486591Y19060915D01*
X6677067Y19394248D02*
X6677067Y18727581D01*
X6915162Y19775200D02*
X7153257Y19060915D01*
X7153257Y19060915D02*
X6534210Y19060915D01*
X5629448Y18727581D02*
X6200876Y18727581D01*
X5915162Y18727581D02*
X5915162Y19727581D01*
X5915162Y19727581D02*
X6010400Y19584724D01*
X6010400Y19584724D02*
X6105638Y19489486D01*
X6105638Y19489486D02*
X6200876Y19441867D01*
X4724686Y19727581D02*
X5200876Y19727581D01*
X5200876Y19727581D02*
X5248495Y19251391D01*
X5248495Y19251391D02*
X5200876Y19299010D01*
X5200876Y19299010D02*
X5105638Y19346629D01*
X5105638Y19346629D02*
X4867543Y19346629D01*
X4867543Y19346629D02*
X4772305Y19299010D01*
X4772305Y19299010D02*
X4724686Y19251391D01*
X4724686Y19251391D02*
X4677067Y19156153D01*
X4677067Y19156153D02*
X4677067Y18918058D01*
X4677067Y18918058D02*
X4724686Y18822820D01*
X4724686Y18822820D02*
X4772305Y18775200D01*
X4772305Y18775200D02*
X4867543Y18727581D01*
X4867543Y18727581D02*
X5105638Y18727581D01*
X5105638Y18727581D02*
X5200876Y18775200D01*
X5200876Y18775200D02*
X5248495Y18822820D01*
D11*
X7022493Y41469820D02*
X7022493Y42184105D01*
X7022493Y42184105D02*
X6974874Y42326962D01*
X6974874Y42326962D02*
X6879636Y42422200D01*
X6879636Y42422200D02*
X6736779Y42469820D01*
X6736779Y42469820D02*
X6641541Y42469820D01*
X7974874Y42469820D02*
X7498684Y42469820D01*
X7498684Y42469820D02*
X7498684Y41469820D01*
X8879636Y42374581D02*
X8832017Y42422200D01*
X8832017Y42422200D02*
X8689160Y42469820D01*
X8689160Y42469820D02*
X8593922Y42469820D01*
X8593922Y42469820D02*
X8451065Y42422200D01*
X8451065Y42422200D02*
X8355827Y42326962D01*
X8355827Y42326962D02*
X8308208Y42231724D01*
X8308208Y42231724D02*
X8260589Y42041248D01*
X8260589Y42041248D02*
X8260589Y41898391D01*
X8260589Y41898391D02*
X8308208Y41707915D01*
X8308208Y41707915D02*
X8355827Y41612677D01*
X8355827Y41612677D02*
X8451065Y41517439D01*
X8451065Y41517439D02*
X8593922Y41469820D01*
X8593922Y41469820D02*
X8689160Y41469820D01*
X8689160Y41469820D02*
X8832017Y41517439D01*
X8832017Y41517439D02*
X8879636Y41565058D01*
X9593922Y41469820D02*
X9593922Y42184105D01*
X9593922Y42184105D02*
X9546303Y42326962D01*
X9546303Y42326962D02*
X9451065Y42422200D01*
X9451065Y42422200D02*
X9308208Y42469820D01*
X9308208Y42469820D02*
X9212970Y42469820D01*
X10546303Y42469820D02*
X10070113Y42469820D01*
X10070113Y42469820D02*
X10070113Y41469820D01*
X11451065Y42374581D02*
X11403446Y42422200D01*
X11403446Y42422200D02*
X11260589Y42469820D01*
X11260589Y42469820D02*
X11165351Y42469820D01*
X11165351Y42469820D02*
X11022494Y42422200D01*
X11022494Y42422200D02*
X10927256Y42326962D01*
X10927256Y42326962D02*
X10879637Y42231724D01*
X10879637Y42231724D02*
X10832018Y42041248D01*
X10832018Y42041248D02*
X10832018Y41898391D01*
X10832018Y41898391D02*
X10879637Y41707915D01*
X10879637Y41707915D02*
X10927256Y41612677D01*
X10927256Y41612677D02*
X11022494Y41517439D01*
X11022494Y41517439D02*
X11165351Y41469820D01*
X11165351Y41469820D02*
X11260589Y41469820D01*
X11260589Y41469820D02*
X11403446Y41517439D01*
X11403446Y41517439D02*
X11451065Y41565058D01*
X12165351Y41469820D02*
X12165351Y42184105D01*
X12165351Y42184105D02*
X12117732Y42326962D01*
X12117732Y42326962D02*
X12022494Y42422200D01*
X12022494Y42422200D02*
X11879637Y42469820D01*
X11879637Y42469820D02*
X11784399Y42469820D01*
X13117732Y42469820D02*
X12641542Y42469820D01*
X12641542Y42469820D02*
X12641542Y41469820D01*
X14022494Y42374581D02*
X13974875Y42422200D01*
X13974875Y42422200D02*
X13832018Y42469820D01*
X13832018Y42469820D02*
X13736780Y42469820D01*
X13736780Y42469820D02*
X13593923Y42422200D01*
X13593923Y42422200D02*
X13498685Y42326962D01*
X13498685Y42326962D02*
X13451066Y42231724D01*
X13451066Y42231724D02*
X13403447Y42041248D01*
X13403447Y42041248D02*
X13403447Y41898391D01*
X13403447Y41898391D02*
X13451066Y41707915D01*
X13451066Y41707915D02*
X13498685Y41612677D01*
X13498685Y41612677D02*
X13593923Y41517439D01*
X13593923Y41517439D02*
X13736780Y41469820D01*
X13736780Y41469820D02*
X13832018Y41469820D01*
X13832018Y41469820D02*
X13974875Y41517439D01*
X13974875Y41517439D02*
X14022494Y41565058D01*
X14736780Y41469820D02*
X14736780Y42184105D01*
X14736780Y42184105D02*
X14689161Y42326962D01*
X14689161Y42326962D02*
X14593923Y42422200D01*
X14593923Y42422200D02*
X14451066Y42469820D01*
X14451066Y42469820D02*
X14355828Y42469820D01*
X15689161Y42469820D02*
X15212971Y42469820D01*
X15212971Y42469820D02*
X15212971Y41469820D01*
X16593923Y42374581D02*
X16546304Y42422200D01*
X16546304Y42422200D02*
X16403447Y42469820D01*
X16403447Y42469820D02*
X16308209Y42469820D01*
X16308209Y42469820D02*
X16165352Y42422200D01*
X16165352Y42422200D02*
X16070114Y42326962D01*
X16070114Y42326962D02*
X16022495Y42231724D01*
X16022495Y42231724D02*
X15974876Y42041248D01*
X15974876Y42041248D02*
X15974876Y41898391D01*
X15974876Y41898391D02*
X16022495Y41707915D01*
X16022495Y41707915D02*
X16070114Y41612677D01*
X16070114Y41612677D02*
X16165352Y41517439D01*
X16165352Y41517439D02*
X16308209Y41469820D01*
X16308209Y41469820D02*
X16403447Y41469820D01*
X16403447Y41469820D02*
X16546304Y41517439D01*
X16546304Y41517439D02*
X16593923Y41565058D01*
%LPC*%
D12*
%TO.C,A1*%
X1560000Y44375000D03*
D13*
X1560000Y41835000D03*
X1560000Y39295000D03*
X1560000Y36755000D03*
X1560000Y34215000D03*
X1560000Y31675000D03*
X1560000Y29135000D03*
X1560000Y26595000D03*
X1560000Y24055000D03*
X1560000Y21515000D03*
X1560000Y18975000D03*
X1560000Y16435000D03*
X1560000Y13895000D03*
X1560000Y11355000D03*
X1560000Y8815000D03*
X1560000Y6275000D03*
X21280000Y6275000D03*
X21280000Y8815000D03*
X21280000Y11355000D03*
X21280000Y13895000D03*
X21280000Y16435000D03*
X21280000Y18975000D03*
X21280000Y21515000D03*
X21280000Y24055000D03*
X21280000Y26595000D03*
X21280000Y29135000D03*
X21280000Y31675000D03*
X21280000Y34215000D03*
%TD*%
%LPD*%
M02*
