M48
; DRILL file KiCad 10.0.4 date 2026-09-06T20:48:54
; FORMAT={-:-/ absolute / inch / decimal}
; #@! TF.CreationDate,2026-09-06T20:48:54-07:00
; #@! TF.GenerationSoftware,Kicad,Pcbnew,10.0.4
; #@! TF.FileFunction,Plated,1,2,PTH
FMAT,2
INCH
; #@! TA.AperFunction,Plated,PTH,ViaDrill
T1C0.0118
; #@! TA.AperFunction,Plated,PTH,ComponentDrill
T2C0.0394
%
G90
G05
T1
X0.0984Y1.9685
X0.0984Y1.8701
X0.0984Y0.0984
X0.1548Y1.2726
X0.1772Y0.3189
X0.189Y1.2205
X0.1909Y0.5906
X0.1969Y1.9685
X0.1969Y1.8701
X0.1969Y1.5748
X0.1969Y1.4764
X0.1969Y1.378
X0.1969Y0.9843
X0.1969Y0.7874
X0.1969Y0.4921
X0.1969Y0.3937
X0.1969Y0.0984
X0.2264Y0.5135
X0.2953Y1.9685
X0.2953Y1.8701
X0.2953Y1.5748
X0.2953Y1.4764
X0.2953Y1.378
X0.2953Y1.2795
X0.2953Y0.9843
X0.2953Y0.7874
X0.2953Y0.689
X0.2953Y0.5906
X0.2953Y0.3937
X0.2953Y0.0984
X0.3937Y1.9685
X0.3937Y1.8701
X0.3937Y1.5748
X0.3937Y1.4764
X0.3937Y1.378
X0.3937Y1.2795
X0.3937Y0.7874
X0.3937Y0.689
X0.3937Y0.5906
X0.3937Y0.4921
X0.3937Y0.0984
X0.487Y1.8024
X0.4921Y1.9685
X0.4921Y1.5748
X0.4921Y1.378
X0.4921Y1.2795
X0.4921Y0.7874
X0.4921Y0.689
X0.4921Y0.5906
X0.4921Y0.4921
X0.4921Y0.3937
X0.4921Y0.0984
X0.5236Y0.9843
X0.5906Y1.9685
X0.5906Y1.5748
X0.5906Y1.378
X0.5906Y1.2795
X0.5906Y0.7874
X0.5906Y0.689
X0.5906Y0.5906
X0.5906Y0.4921
X0.5906Y0.3937
X0.5906Y0.0984
X0.6496Y0.9528
X0.689Y1.9685
X0.689Y1.4764
X0.689Y1.378
X0.689Y1.2795
X0.689Y0.9843
X0.689Y0.7874
X0.689Y0.689
X0.689Y0.5906
X0.689Y0.4921
X0.689Y0.3937
X0.689Y0.0984
X0.7283Y1.1181
X0.7283Y0.311
X0.7874Y1.9685
X0.7874Y1.8701
X0.7874Y1.7717
X0.7874Y1.6732
X0.7874Y1.5748
X0.7874Y1.4764
X0.7874Y0.689
X0.7874Y0.5906
X0.7874Y0.4921
X0.7874Y0.3937
X0.7874Y0.2953
X0.7874Y0.0984
T2
X0.0496Y1.747
X0.0496Y1.647
X0.0496Y1.547
X0.0496Y1.447
X0.0496Y1.347
X0.0496Y1.247
X0.0496Y1.147
X0.0496Y1.047
X0.0496Y0.947
X0.0496Y0.847
X0.0496Y0.747
X0.0496Y0.647
X0.0496Y0.547
X0.0496Y0.447
X0.0496Y0.347
X0.0496Y0.247
X0.8496Y1.347
X0.8496Y1.247
X0.8496Y1.147
X0.8496Y1.047
X0.8496Y0.947
X0.8496Y0.847
X0.8496Y0.747
X0.8496Y0.647
X0.8496Y0.547
X0.8496Y0.447
X0.8496Y0.347
X0.8496Y0.247
M30
