%TF.GenerationSoftware,KiCad,Pcbnew,10.0.4*%
%TF.CreationDate,2026-09-06T13:40:58-07:00*%
%TF.ProjectId,aperture,61706572-7475-4726-952e-6b696361645f,rev?*%
%TF.SameCoordinates,Original*%
%TF.FileFunction,Legend,Top*%
%TF.FilePolarity,Positive*%
%FSLAX46Y46*%
G04 Gerber Fmt 4.6, Leading zero omitted, Abs format (unit mm)*
G04 Created by KiCad (PCBNEW 10.0.4) date 2026-09-06 13:40:58*
%MOMM*%
%LPD*%
G01*
G04 APERTURE LIST*
G04 Aperture macros list*
%AMRoundRect*
0 Rectangle with rounded corners*
0 $1 Rounding radius*
0 $2 $3 $4 $5 $6 $7 $8 $9 X,Y pos of 4 corners*
0 Add a 4 corners polygon primitive as box body*
4,1,4,$2,$3,$4,$5,$6,$7,$8,$9,$2,$3,0*
0 Add four circle primitives for the rounded corners*
1,1,$1+$1,$2,$3*
1,1,$1+$1,$4,$5*
1,1,$1+$1,$6,$7*
1,1,$1+$1,$8,$9*
0 Add four rect primitives between the rounded corners*
20,1,$1+$1,$2,$3,$4,$5,0*
20,1,$1+$1,$4,$5,$6,$7,0*
20,1,$1+$1,$6,$7,$8,$9,0*
20,1,$1+$1,$8,$9,$2,$3,0*%
G04 Aperture macros list end*
%ADD10C,0.100000*%
%ADD11C,0.120000*%
%ADD12C,0.150000*%
%ADD13RoundRect,0.250000X-1.050000X-0.550000X1.050000X-0.550000X1.050000X0.550000X-1.050000X0.550000X0*%
%ADD14O,2.600000X1.600000*%
%ADD15R,1.000000X2.500000*%
%ADD16RoundRect,0.200000X0.275000X-0.200000X0.275000X0.200000X-0.275000X0.200000X-0.275000X-0.200000X0*%
%ADD17R,1.500000X2.000000*%
%ADD18RoundRect,0.225000X-0.225000X-0.250000X0.225000X-0.250000X0.225000X0.250000X-0.225000X0.250000X0*%
%ADD19RoundRect,0.200000X-0.275000X0.200000X-0.275000X-0.200000X0.275000X-0.200000X0.275000X0.200000X0*%
G04 APERTURE END LIST*
D10*
X1506265Y3023240D02*
X1982455Y3023240D01*
X1411027Y2737525D02*
X1744360Y3737525D01*
X1744360Y3737525D02*
X2077693Y2737525D01*
X2411027Y2737525D02*
X2411027Y3737525D01*
X2411027Y3737525D02*
X2791979Y3737525D01*
X2791979Y3737525D02*
X2887217Y3689906D01*
X2887217Y3689906D02*
X2934836Y3642287D01*
X2934836Y3642287D02*
X2982455Y3547049D01*
X2982455Y3547049D02*
X2982455Y3404192D01*
X2982455Y3404192D02*
X2934836Y3308954D01*
X2934836Y3308954D02*
X2887217Y3261335D01*
X2887217Y3261335D02*
X2791979Y3213716D01*
X2791979Y3213716D02*
X2411027Y3213716D01*
X3411027Y3261335D02*
X3744360Y3261335D01*
X3887217Y2737525D02*
X3411027Y2737525D01*
X3411027Y2737525D02*
X3411027Y3737525D01*
X3411027Y3737525D02*
X3887217Y3737525D01*
X4887217Y2737525D02*
X4553884Y3213716D01*
X4315789Y2737525D02*
X4315789Y3737525D01*
X4315789Y3737525D02*
X4696741Y3737525D01*
X4696741Y3737525D02*
X4791979Y3689906D01*
X4791979Y3689906D02*
X4839598Y3642287D01*
X4839598Y3642287D02*
X4887217Y3547049D01*
X4887217Y3547049D02*
X4887217Y3404192D01*
X4887217Y3404192D02*
X4839598Y3308954D01*
X4839598Y3308954D02*
X4791979Y3261335D01*
X4791979Y3261335D02*
X4696741Y3213716D01*
X4696741Y3213716D02*
X4315789Y3213716D01*
X5172932Y3737525D02*
X5744360Y3737525D01*
X5458646Y2737525D02*
X5458646Y3737525D01*
X6077694Y3737525D02*
X6077694Y2928002D01*
X6077694Y2928002D02*
X6125313Y2832764D01*
X6125313Y2832764D02*
X6172932Y2785144D01*
X6172932Y2785144D02*
X6268170Y2737525D01*
X6268170Y2737525D02*
X6458646Y2737525D01*
X6458646Y2737525D02*
X6553884Y2785144D01*
X6553884Y2785144D02*
X6601503Y2832764D01*
X6601503Y2832764D02*
X6649122Y2928002D01*
X6649122Y2928002D02*
X6649122Y3737525D01*
X7696741Y2737525D02*
X7363408Y3213716D01*
X7125313Y2737525D02*
X7125313Y3737525D01*
X7125313Y3737525D02*
X7506265Y3737525D01*
X7506265Y3737525D02*
X7601503Y3689906D01*
X7601503Y3689906D02*
X7649122Y3642287D01*
X7649122Y3642287D02*
X7696741Y3547049D01*
X7696741Y3547049D02*
X7696741Y3404192D01*
X7696741Y3404192D02*
X7649122Y3308954D01*
X7649122Y3308954D02*
X7601503Y3261335D01*
X7601503Y3261335D02*
X7506265Y3213716D01*
X7506265Y3213716D02*
X7125313Y3213716D01*
X8125313Y3261335D02*
X8458646Y3261335D01*
X8601503Y2737525D02*
X8125313Y2737525D01*
X8125313Y2737525D02*
X8125313Y3737525D01*
X8125313Y3737525D02*
X8601503Y3737525D01*
X10315789Y3689906D02*
X10220551Y3737525D01*
X10220551Y3737525D02*
X10077694Y3737525D01*
X10077694Y3737525D02*
X9934837Y3689906D01*
X9934837Y3689906D02*
X9839599Y3594668D01*
X9839599Y3594668D02*
X9791980Y3499430D01*
X9791980Y3499430D02*
X9744361Y3308954D01*
X9744361Y3308954D02*
X9744361Y3166097D01*
X9744361Y3166097D02*
X9791980Y2975621D01*
X9791980Y2975621D02*
X9839599Y2880383D01*
X9839599Y2880383D02*
X9934837Y2785144D01*
X9934837Y2785144D02*
X10077694Y2737525D01*
X10077694Y2737525D02*
X10172932Y2737525D01*
X10172932Y2737525D02*
X10315789Y2785144D01*
X10315789Y2785144D02*
X10363408Y2832764D01*
X10363408Y2832764D02*
X10363408Y3166097D01*
X10363408Y3166097D02*
X10172932Y3166097D01*
X11363408Y2737525D02*
X11030075Y3213716D01*
X10791980Y2737525D02*
X10791980Y3737525D01*
X10791980Y3737525D02*
X11172932Y3737525D01*
X11172932Y3737525D02*
X11268170Y3689906D01*
X11268170Y3689906D02*
X11315789Y3642287D01*
X11315789Y3642287D02*
X11363408Y3547049D01*
X11363408Y3547049D02*
X11363408Y3404192D01*
X11363408Y3404192D02*
X11315789Y3308954D01*
X11315789Y3308954D02*
X11268170Y3261335D01*
X11268170Y3261335D02*
X11172932Y3213716D01*
X11172932Y3213716D02*
X10791980Y3213716D01*
X11982456Y3737525D02*
X12172932Y3737525D01*
X12172932Y3737525D02*
X12268170Y3689906D01*
X12268170Y3689906D02*
X12363408Y3594668D01*
X12363408Y3594668D02*
X12411027Y3404192D01*
X12411027Y3404192D02*
X12411027Y3070859D01*
X12411027Y3070859D02*
X12363408Y2880383D01*
X12363408Y2880383D02*
X12268170Y2785144D01*
X12268170Y2785144D02*
X12172932Y2737525D01*
X12172932Y2737525D02*
X11982456Y2737525D01*
X11982456Y2737525D02*
X11887218Y2785144D01*
X11887218Y2785144D02*
X11791980Y2880383D01*
X11791980Y2880383D02*
X11744361Y3070859D01*
X11744361Y3070859D02*
X11744361Y3404192D01*
X11744361Y3404192D02*
X11791980Y3594668D01*
X11791980Y3594668D02*
X11887218Y3689906D01*
X11887218Y3689906D02*
X11982456Y3737525D01*
X12839599Y3737525D02*
X12839599Y2928002D01*
X12839599Y2928002D02*
X12887218Y2832764D01*
X12887218Y2832764D02*
X12934837Y2785144D01*
X12934837Y2785144D02*
X13030075Y2737525D01*
X13030075Y2737525D02*
X13220551Y2737525D01*
X13220551Y2737525D02*
X13315789Y2785144D01*
X13315789Y2785144D02*
X13363408Y2832764D01*
X13363408Y2832764D02*
X13411027Y2928002D01*
X13411027Y2928002D02*
X13411027Y3737525D01*
X13887218Y2737525D02*
X13887218Y3737525D01*
X13887218Y3737525D02*
X14458646Y2737525D01*
X14458646Y2737525D02*
X14458646Y3737525D01*
X14934837Y2737525D02*
X14934837Y3737525D01*
X14934837Y3737525D02*
X15172932Y3737525D01*
X15172932Y3737525D02*
X15315789Y3689906D01*
X15315789Y3689906D02*
X15411027Y3594668D01*
X15411027Y3594668D02*
X15458646Y3499430D01*
X15458646Y3499430D02*
X15506265Y3308954D01*
X15506265Y3308954D02*
X15506265Y3166097D01*
X15506265Y3166097D02*
X15458646Y2975621D01*
X15458646Y2975621D02*
X15411027Y2880383D01*
X15411027Y2880383D02*
X15315789Y2785144D01*
X15315789Y2785144D02*
X15172932Y2737525D01*
X15172932Y2737525D02*
X14934837Y2737525D01*
X16649123Y2785144D02*
X16791980Y2737525D01*
X16791980Y2737525D02*
X17030075Y2737525D01*
X17030075Y2737525D02*
X17125313Y2785144D01*
X17125313Y2785144D02*
X17172932Y2832764D01*
X17172932Y2832764D02*
X17220551Y2928002D01*
X17220551Y2928002D02*
X17220551Y3023240D01*
X17220551Y3023240D02*
X17172932Y3118478D01*
X17172932Y3118478D02*
X17125313Y3166097D01*
X17125313Y3166097D02*
X17030075Y3213716D01*
X17030075Y3213716D02*
X16839599Y3261335D01*
X16839599Y3261335D02*
X16744361Y3308954D01*
X16744361Y3308954D02*
X16696742Y3356573D01*
X16696742Y3356573D02*
X16649123Y3451811D01*
X16649123Y3451811D02*
X16649123Y3547049D01*
X16649123Y3547049D02*
X16696742Y3642287D01*
X16696742Y3642287D02*
X16744361Y3689906D01*
X16744361Y3689906D02*
X16839599Y3737525D01*
X16839599Y3737525D02*
X17077694Y3737525D01*
X17077694Y3737525D02*
X17220551Y3689906D01*
X17506266Y3737525D02*
X18077694Y3737525D01*
X17791980Y2737525D02*
X17791980Y3737525D01*
X18363409Y3023240D02*
X18839599Y3023240D01*
X18268171Y2737525D02*
X18601504Y3737525D01*
X18601504Y3737525D02*
X18934837Y2737525D01*
X19125314Y3737525D02*
X19696742Y3737525D01*
X19411028Y2737525D02*
X19411028Y3737525D01*
X20030076Y2737525D02*
X20030076Y3737525D01*
X20696742Y3737525D02*
X20887218Y3737525D01*
X20887218Y3737525D02*
X20982456Y3689906D01*
X20982456Y3689906D02*
X21077694Y3594668D01*
X21077694Y3594668D02*
X21125313Y3404192D01*
X21125313Y3404192D02*
X21125313Y3070859D01*
X21125313Y3070859D02*
X21077694Y2880383D01*
X21077694Y2880383D02*
X20982456Y2785144D01*
X20982456Y2785144D02*
X20887218Y2737525D01*
X20887218Y2737525D02*
X20696742Y2737525D01*
X20696742Y2737525D02*
X20601504Y2785144D01*
X20601504Y2785144D02*
X20506266Y2880383D01*
X20506266Y2880383D02*
X20458647Y3070859D01*
X20458647Y3070859D02*
X20458647Y3404192D01*
X20458647Y3404192D02*
X20506266Y3594668D01*
X20506266Y3594668D02*
X20601504Y3689906D01*
X20601504Y3689906D02*
X20696742Y3737525D01*
X21553885Y2737525D02*
X21553885Y3737525D01*
X21553885Y3737525D02*
X22125313Y2737525D01*
X22125313Y2737525D02*
X22125313Y3737525D01*
X1411027Y2127581D02*
X1744360Y1127581D01*
X1744360Y1127581D02*
X2077693Y2127581D01*
X2934836Y1127581D02*
X2363408Y1127581D01*
X2649122Y1127581D02*
X2649122Y2127581D01*
X2649122Y2127581D02*
X2553884Y1984724D01*
X2553884Y1984724D02*
X2458646Y1889486D01*
X2458646Y1889486D02*
X2363408Y1841867D01*
%TO.C,U1*%
D11*
X3490000Y44410000D02*
X3990000Y44410000D01*
X3490000Y28190000D02*
X3490000Y44410000D01*
X3490000Y28190000D02*
X3990000Y28190000D01*
X19710000Y44410000D02*
X18210000Y44410000D01*
X19710000Y28190000D02*
X18210000Y28190000D01*
X19710000Y28190000D02*
X19710000Y44410000D01*
X18210000Y44960000D02*
X18540000Y45200000D01*
X18540000Y44720000D01*
X18210000Y44960000D01*
G36*
X18540000Y44720000D02*
G01*
X18210000Y44960000D01*
X18540000Y45200000D01*
X18540000Y44720000D01*
G37*
%TO.C,R1*%
X14567500Y46987742D02*
X14567500Y47462258D01*
X15612500Y46987742D02*
X15612500Y47462258D01*
%TO.C,U10*%
D12*
X2750000Y22950000D02*
X2750000Y6450000D01*
X2750000Y6450000D02*
X3500000Y6450000D01*
X3500000Y22950000D02*
X2750000Y22950000D01*
X19500000Y22950000D02*
X20250000Y22950000D01*
X20250000Y22950000D02*
X20250000Y6450000D01*
X20250000Y6450000D02*
X19500000Y6450000D01*
D11*
X19500000Y23250000D02*
X19500000Y23750000D01*
X20000000Y23250000D01*
X19500000Y23250000D01*
G36*
X20000000Y23250000D02*
G01*
X19500000Y23250000D01*
X19500000Y23750000D01*
X20000000Y23250000D01*
G37*
%TO.C,C42*%
X15259420Y25610000D02*
X15540580Y25610000D01*
X15259420Y24590000D02*
X15540580Y24590000D01*
%TO.C,C43*%
X11434420Y25610000D02*
X11715580Y25610000D01*
X11434420Y24590000D02*
X11715580Y24590000D01*
%TO.C,R2*%
X17272500Y47487258D02*
X17272500Y47012742D01*
X16227500Y47487258D02*
X16227500Y47012742D01*
%TO.C,C41*%
X10834420Y46910000D02*
X11115580Y46910000D01*
X10834420Y45890000D02*
X11115580Y45890000D01*
%TD*%
%LPC*%
D13*
%TO.C,A1*%
X1560000Y44375000D03*
D14*
X1560000Y41835000D03*
X1560000Y39295000D03*
X1560000Y36755000D03*
X1560000Y34215000D03*
X1560000Y31675000D03*
X1560000Y29135000D03*
X1560000Y26595000D03*
X1560000Y24055000D03*
X1560000Y21515000D03*
X1560000Y18975000D03*
X1560000Y16435000D03*
X1560000Y13895000D03*
X1560000Y11355000D03*
X1560000Y8815000D03*
X1560000Y6275000D03*
X21280000Y6275000D03*
X21280000Y8815000D03*
X21280000Y11355000D03*
X21280000Y13895000D03*
X21280000Y16435000D03*
X21280000Y18975000D03*
X21280000Y21515000D03*
X21280000Y24055000D03*
X21280000Y26595000D03*
X21280000Y29135000D03*
X21280000Y31675000D03*
X21280000Y34215000D03*
%TD*%
D15*
%TO.C,U1*%
X17450000Y44050000D03*
X14910000Y44050000D03*
X12370000Y44050000D03*
X9830000Y44050000D03*
X7290000Y44050000D03*
X4750000Y44050000D03*
X4750000Y28550000D03*
X7290000Y28550000D03*
X9830000Y28550000D03*
X12370000Y28550000D03*
X14910000Y28550000D03*
X17450000Y28550000D03*
%TD*%
D16*
%TO.C,R1*%
X15090000Y46400000D03*
X15090000Y48050000D03*
%TD*%
D17*
%TO.C,U10*%
X18500000Y22700000D03*
X16500000Y22700000D03*
X14500000Y22700000D03*
X12500000Y22700000D03*
X10500000Y22700000D03*
X8500000Y22700000D03*
X6500000Y22700000D03*
X4500000Y22700000D03*
X4500000Y6700000D03*
X6500000Y6700000D03*
X8500000Y6700000D03*
X10500000Y6700000D03*
X12500000Y6700000D03*
X14500000Y6700000D03*
X16500000Y6700000D03*
X18500000Y6700000D03*
%TD*%
D18*
%TO.C,C42*%
X14625000Y25100000D03*
X16175000Y25100000D03*
%TD*%
%TO.C,C43*%
X10800000Y25100000D03*
X12350000Y25100000D03*
%TD*%
D19*
%TO.C,R2*%
X16750000Y48075000D03*
X16750000Y46425000D03*
%TD*%
D18*
%TO.C,C41*%
X10200000Y46400000D03*
X11750000Y46400000D03*
%TD*%
%LPD*%
M02*
