%TF.GenerationSoftware,KiCad,Pcbnew,10.0.4*%
%TF.CreationDate,2026-09-06T13:40:58-07:00*%
%TF.ProjectId,aperture,61706572-7475-4726-952e-6b696361645f,rev?*%
%TF.SameCoordinates,Original*%
%TF.FileFunction,Copper,L1,Top*%
%TF.FilePolarity,Positive*%
%FSLAX46Y46*%
G04 Gerber Fmt 4.6, Leading zero omitted, Abs format (unit mm)*
G04 Created by KiCad (PCBNEW 10.0.4) date 2026-09-06 13:40:58*
%MOMM*%
%LPD*%
G01*
G04 APERTURE LIST*
G04 Aperture macros list*
%AMRoundRect*
0 Rectangle with rounded corners*
0 $1 Rounding radius*
0 $2 $3 $4 $5 $6 $7 $8 $9 X,Y pos of 4 corners*
0 Add a 4 corners polygon primitive as box body*
4,1,4,$2,$3,$4,$5,$6,$7,$8,$9,$2,$3,0*
0 Add four circle primitives for the rounded corners*
1,1,$1+$1,$2,$3*
1,1,$1+$1,$4,$5*
1,1,$1+$1,$6,$7*
1,1,$1+$1,$8,$9*
0 Add four rect primitives between the rounded corners*
20,1,$1+$1,$2,$3,$4,$5,0*
20,1,$1+$1,$4,$5,$6,$7,0*
20,1,$1+$1,$6,$7,$8,$9,0*
20,1,$1+$1,$8,$9,$2,$3,0*%
G04 Aperture macros list end*
%TA.AperFunction,ComponentPad*%
%ADD10RoundRect,0.250000X-1.050000X-0.550000X1.050000X-0.550000X1.050000X0.550000X-1.050000X0.550000X0*%
%TD*%
%TA.AperFunction,ComponentPad*%
%ADD11O,2.600000X1.600000*%
%TD*%
%TA.AperFunction,SMDPad,CuDef*%
%ADD12R,1.000000X2.500000*%
%TD*%
%TA.AperFunction,SMDPad,CuDef*%
%ADD13RoundRect,0.200000X0.275000X-0.200000X0.275000X0.200000X-0.275000X0.200000X-0.275000X-0.200000X0*%
%TD*%
%TA.AperFunction,SMDPad,CuDef*%
%ADD14R,1.500000X2.000000*%
%TD*%
%TA.AperFunction,SMDPad,CuDef*%
%ADD15RoundRect,0.225000X-0.225000X-0.250000X0.225000X-0.250000X0.225000X0.250000X-0.225000X0.250000X0*%
%TD*%
%TA.AperFunction,SMDPad,CuDef*%
%ADD16RoundRect,0.200000X-0.275000X0.200000X-0.275000X-0.200000X0.275000X-0.200000X0.275000X0.200000X0*%
%TD*%
%TA.AperFunction,ViaPad*%
%ADD17C,0.600000*%
%TD*%
%TA.AperFunction,Conductor*%
%ADD18C,0.200000*%
%TD*%
%TA.AperFunction,Conductor*%
%ADD19C,0.500000*%
%TD*%
G04 APERTURE END LIST*
D10*
%TO.P,A1,1,~{RESET}_1*%
%TO.N,unconnected-(A1-~{RESET}-Pad1)*%
X1560000Y44375000D03*
D11*
%TO.P,A1,2,3V3_2*%
%TO.N,+3V3*%
X1560000Y41835000D03*
%TO.P,A1,3,NC_3*%
%TO.N,unconnected-(A1-NC-Pad3)*%
X1560000Y39295000D03*
%TO.P,A1,4,GND_4*%
%TO.N,GND*%
X1560000Y36755000D03*
%TO.P,A1,5,DAC2/A0_5*%
%TO.N,/PPS*%
X1560000Y34215000D03*
%TO.P,A1,6,DAC1/A1_6*%
%TO.N,unconnected-(A1-DAC1{slash}A1-Pad6)*%
X1560000Y31675000D03*
%TO.P,A1,7,I34/A2_7*%
%TO.N,unconnected-(A1-I34{slash}A2-Pad7)*%
X1560000Y29135000D03*
%TO.P,A1,8,I39/A3_8*%
%TO.N,unconnected-(A1-I39{slash}A3-Pad8)*%
X1560000Y26595000D03*
%TO.P,A1,9,IO36/A4_9*%
%TO.N,/GPS_RST*%
X1560000Y24055000D03*
%TO.P,A1,10,IO4/A5_10*%
%TO.N,unconnected-(A1-IO4{slash}A5-Pad10)*%
X1560000Y21515000D03*
%TO.P,A1,11,SCK/IO5_11*%
%TO.N,/SPI3_SCLK*%
X1560000Y18975000D03*
%TO.P,A1,12,MOSI/IO18_12*%
%TO.N,/SPI3_COPI*%
X1560000Y16435000D03*
%TO.P,A1,13,MISO/IO19_13*%
%TO.N,/SPI3_CIPO*%
X1560000Y13895000D03*
%TO.P,A1,14,RX/IO16_14*%
%TO.N,/RX_MCU*%
X1560000Y11355000D03*
%TO.P,A1,15,TX/IO17_15*%
%TO.N,/TX_MCU*%
X1560000Y8815000D03*
%TO.P,A1,16,IO21_16*%
%TO.N,/RAD_BUSY*%
X1560000Y6275000D03*
%TO.P,A1,17,SDA/IO23_17*%
%TO.N,/RAD_RF_EN*%
X21280000Y6275000D03*
%TO.P,A1,18,SCL/IO22_18*%
%TO.N,/RAD_CS*%
X21280000Y8815000D03*
%TO.P,A1,19,A6/IO14_19*%
%TO.N,unconnected-(A1-A6{slash}IO14-Pad19)*%
X21280000Y11355000D03*
%TO.P,A1,20,A7/IO32_20*%
%TO.N,unconnected-(A1-A7{slash}IO32-Pad20)*%
X21280000Y13895000D03*
%TO.P,A1,21,A8/IO15_21*%
%TO.N,/RAD_DIO3*%
X21280000Y16435000D03*
%TO.P,A1,22,A9/IO33_22*%
%TO.N,/RAD_DIO2*%
X21280000Y18975000D03*
%TO.P,A1,23,A10/IO27_23*%
%TO.N,/RAD_DIO1*%
X21280000Y21515000D03*
%TO.P,A1,24,A11/IO12_24*%
%TO.N,/RAD_RST*%
X21280000Y24055000D03*
%TO.P,A1,25,A12/IO13_25*%
%TO.N,unconnected-(A1-A12{slash}IO13-Pad25)*%
X21280000Y26595000D03*
%TO.P,A1,26,USB_26*%
%TO.N,unconnected-(A1-USB-Pad26)*%
X21280000Y29135000D03*
%TO.P,A1,27,EN_27*%
%TO.N,unconnected-(A1-EN-Pad27)*%
X21280000Y31675000D03*
%TO.P,A1,28,VBAT_28*%
%TO.N,unconnected-(A1-VBAT-Pad28)*%
X21280000Y34215000D03*
%TD*%
D12*
%TO.P,U1,1,RXD1_1*%
%TO.N,Net-(U1-RXD1)*%
X17450000Y44050000D03*
%TO.P,U1,2,TXD1_2*%
%TO.N,Net-(U1-TXD1)*%
X14910000Y44050000D03*
%TO.P,U1,3,GND_3*%
%TO.N,GND*%
X12370000Y44050000D03*
%TO.P,U1,4,VCC_4*%
%TO.N,+3V3*%
X9830000Y44050000D03*
%TO.P,U1,5,V_BCKP_5*%
X7290000Y44050000D03*
%TO.P,U1,6,1PPS_6*%
%TO.N,/PPS*%
X4750000Y44050000D03*
%TO.P,U1,7,RESERVED_7*%
%TO.N,unconnected-(U1-RESERVED-Pad7)*%
X4750000Y28550000D03*
%TO.P,U1,8,RESERVED_8*%
%TO.N,unconnected-(U1-RESERVED-Pad8)*%
X7290000Y28550000D03*
%TO.P,U1,9,NC_9*%
%TO.N,unconnected-(U1-NC-Pad9)*%
X9830000Y28550000D03*
%TO.P,U1,10,~{RESET}_10*%
%TO.N,/GPS_RST*%
X12370000Y28550000D03*
%TO.P,U1,11,RESERVED_11*%
%TO.N,unconnected-(U1-RESERVED-Pad11)*%
X14910000Y28550000D03*
%TO.P,U1,12,GND_12*%
%TO.N,GND*%
X17450000Y28550000D03*
%TD*%
D13*
%TO.P,R1,1*%
%TO.N,Net-(U1-TXD1)*%
X15090000Y46400000D03*
%TO.P,R1,2*%
%TO.N,/RX_MCU*%
X15090000Y48050000D03*
%TD*%
D14*
%TO.P,U10,1,ANT_1*%
%TO.N,unconnected-(U10-ANT-Pad1)*%
X18500000Y22700000D03*
%TO.P,U10,2,GND_2*%
%TO.N,GND*%
X16500000Y22700000D03*
%TO.P,U10,3,VDD_3*%
%TO.N,+3V3*%
X14500000Y22700000D03*
%TO.P,U10,4,~{RESET}_4*%
%TO.N,/RAD_RST*%
X12500000Y22700000D03*
%TO.P,U10,5,VCC_PA_5*%
%TO.N,+3V3*%
X10500000Y22700000D03*
%TO.P,U10,6,DIO1_6*%
%TO.N,/RAD_DIO1*%
X8500000Y22700000D03*
%TO.P,U10,7,DIO2_7*%
%TO.N,/RAD_DIO2*%
X6500000Y22700000D03*
%TO.P,U10,8,DIO3_8*%
%TO.N,/RAD_DIO3*%
X4500000Y22700000D03*
%TO.P,U10,9,GND_9*%
%TO.N,GND*%
X4500000Y6700000D03*
%TO.P,U10,10,BUSY_10*%
%TO.N,/RAD_BUSY*%
X6500000Y6700000D03*
%TO.P,U10,11,RF_EN_11*%
%TO.N,/RAD_RF_EN*%
X8500000Y6700000D03*
%TO.P,U10,12,SCK_12*%
%TO.N,/SPI3_SCLK*%
X10500000Y6700000D03*
%TO.P,U10,13,MISO_13*%
%TO.N,/SPI3_CIPO*%
X12500000Y6700000D03*
%TO.P,U10,14,MOSI_14*%
%TO.N,/SPI3_COPI*%
X14500000Y6700000D03*
%TO.P,U10,15,~{NSS}_15*%
%TO.N,/RAD_CS*%
X16500000Y6700000D03*
%TO.P,U10,16,GND_16*%
%TO.N,GND*%
X18500000Y6700000D03*
%TD*%
D15*
%TO.P,C42,1*%
%TO.N,+3V3*%
X14625000Y25100000D03*
%TO.P,C42,2*%
%TO.N,GND*%
X16175000Y25100000D03*
%TD*%
%TO.P,C43,1*%
%TO.N,+3V3*%
X10800000Y25100000D03*
%TO.P,C43,2*%
%TO.N,GND*%
X12350000Y25100000D03*
%TD*%
D16*
%TO.P,R2,1*%
%TO.N,Net-(U1-RXD1)*%
X16750000Y48075000D03*
%TO.P,R2,2*%
%TO.N,/TX_MCU*%
X16750000Y46425000D03*
%TD*%
D15*
%TO.P,C41,1*%
%TO.N,+3V3*%
X10200000Y46400000D03*
%TO.P,C41,2*%
%TO.N,GND*%
X11750000Y46400000D03*
%TD*%
D17*
%TO.N,GND*%
X20000000Y17500000D03*
X20000000Y15000000D03*
X20000000Y7500000D03*
X20000000Y10000000D03*
X20000000Y12500000D03*
X7500000Y10000000D03*
X7500000Y15000000D03*
X12500000Y10000000D03*
X10000000Y12500000D03*
X7500000Y20000000D03*
X10000000Y20000000D03*
X12500000Y20000000D03*
X15000000Y20000000D03*
X17500000Y20000000D03*
X10000000Y17500000D03*
X5000000Y35000000D03*
X5000000Y37500000D03*
X5000000Y40000000D03*
X10000000Y40000000D03*
X7500000Y37500000D03*
X17500000Y50000000D03*
X15000000Y50000000D03*
X12500000Y50000000D03*
X5000000Y10000000D03*
X4850000Y15000000D03*
X17500000Y25000000D03*
X12500000Y35000000D03*
X12500000Y32500000D03*
X10000000Y32500000D03*
X5000000Y12500000D03*
X18500000Y7900000D03*
X15000000Y17500000D03*
X20000000Y45000000D03*
X2500000Y50000000D03*
X7500000Y25000000D03*
X15000000Y35000000D03*
X17500000Y2500000D03*
X20000000Y37500000D03*
X20000000Y47500000D03*
X10000000Y37500000D03*
X15000000Y10000000D03*
X20000000Y42500000D03*
X17500000Y17500000D03*
X18500000Y28400000D03*
X17500000Y15000000D03*
X2500000Y2500000D03*
X5000000Y47500000D03*
X2500000Y47500000D03*
X15000000Y32500000D03*
X12500000Y12500000D03*
X5000000Y50000000D03*
X15000000Y15000000D03*
X7500000Y40000000D03*
X12500000Y17500000D03*
X5000000Y20000000D03*
X7500000Y2500000D03*
X7500000Y17500000D03*
X10000000Y47500000D03*
X15000000Y40000000D03*
X15000000Y2500000D03*
X20000000Y2500000D03*
X10000000Y2500000D03*
X16500000Y24200000D03*
X17500000Y35000000D03*
X12370000Y45780000D03*
X12500000Y2500000D03*
X10000000Y50000000D03*
X17500000Y37500000D03*
X20000000Y40000000D03*
X7500000Y32500000D03*
X17500000Y32500000D03*
X20000000Y50000000D03*
X17500000Y10000000D03*
X7500000Y47500000D03*
X5000000Y25000000D03*
X12500000Y40000000D03*
X5000000Y2500000D03*
X7500000Y50000000D03*
X13300000Y25000000D03*
X12500000Y15000000D03*
X7500000Y35000000D03*
X4500000Y8100000D03*
X17500000Y12500000D03*
X15000000Y12500000D03*
X10000000Y35000000D03*
X10000000Y15000000D03*
%TO.N,/RX_MCU*%
X3932007Y32324039D03*
%TO.N,/TX_MCU*%
X4800000Y31000000D03*
%TO.N,/SPI3_SCLK*%
X5750000Y13042463D03*
%TD*%
%TO.N,/RAD_DIO2*%
D18*
X19955000Y20600000D02*
X21580000Y18975000D01*
X8350000Y20600000D02*
X19955000Y20600000D01*
X6500000Y22450000D02*
X8350000Y20600000D01*
X6500000Y22700000D02*
X6500000Y22450000D01*
%TO.N,/RAD_DIO1*%
X8500000Y22450000D02*
X8500000Y22700000D01*
X9950000Y21000000D02*
X8500000Y22450000D01*
X21065000Y21000000D02*
X9950000Y21000000D01*
X21580000Y21515000D02*
X21065000Y21000000D01*
%TO.N,/RAD_DIO3*%
X4500000Y21500000D02*
X4500000Y22700000D01*
X9565000Y16435000D02*
X4500000Y21500000D01*
X21580000Y16435000D02*
X9565000Y16435000D01*
%TO.N,/PPS*%
X3600000Y41200000D02*
X4750000Y42350000D01*
X4750000Y42350000D02*
X4750000Y44050000D01*
X2800000Y35000000D02*
X3600000Y35800000D01*
X3600000Y35800000D02*
X3600000Y41200000D01*
X2045000Y35000000D02*
X2800000Y35000000D01*
X1260000Y34215000D02*
X2045000Y35000000D01*
%TO.N,/RX_MCU*%
X4100000Y32492032D02*
X3932007Y32324039D01*
X4100000Y33100000D02*
X4100000Y32492032D01*
X13400000Y42400000D02*
X4100000Y33100000D01*
X13400000Y47935000D02*
X13400000Y42400000D01*
%TO.N,/TX_MCU*%
X15710000Y45335000D02*
X16750000Y46375000D01*
%TO.N,/RX_MCU*%
X15090000Y48050000D02*
X13515000Y48050000D01*
%TO.N,/TX_MCU*%
X15710000Y42610000D02*
X15710000Y45335000D01*
%TO.N,/RX_MCU*%
X13515000Y48050000D02*
X13400000Y47935000D01*
%TO.N,/TX_MCU*%
X13965686Y42400000D02*
X15500000Y42400000D01*
X5600000Y31000000D02*
X5600000Y34034314D01*
X4800000Y31000000D02*
X5600000Y31000000D01*
X15500000Y42400000D02*
X15710000Y42610000D01*
X5600000Y34034314D02*
X13965686Y42400000D01*
%TO.N,+3V3*%
D19*
X13050000Y49250000D02*
X10200000Y46400000D01*
X17774780Y49250000D02*
X13050000Y49250000D01*
X18525000Y48499780D02*
X17774780Y49250000D01*
X18525000Y40116496D02*
X18525000Y48499780D01*
X13700000Y35291496D02*
X18525000Y40116496D01*
X13700000Y26025000D02*
X13700000Y35291496D01*
%TO.N,/SPI3_SCLK*%
D18*
X10500000Y8292463D02*
X5750000Y13042463D01*
X10500000Y6700000D02*
X10500000Y8292463D01*
%TO.N,Net-(U1-RXD1)*%
X17525000Y44125000D02*
X17525000Y47250000D01*
X17525000Y47250000D02*
X16750000Y48025000D01*
X17450000Y44050000D02*
X17525000Y44125000D01*
%TO.N,Net-(U1-TXD1)*%
X14910000Y46220000D02*
X15090000Y46400000D01*
X14910000Y44050000D02*
X14910000Y46220000D01*
%TO.N,/SPI3_CIPO*%
X12500000Y6950000D02*
X12500000Y6700000D01*
X6450000Y13269239D02*
X6450000Y13000000D01*
X5824239Y13895000D02*
X6450000Y13269239D01*
X1260000Y13895000D02*
X5824239Y13895000D01*
X6450000Y13000000D02*
X12500000Y6950000D01*
%TO.N,+3V3*%
D19*
X4450000Y46400000D02*
X7400000Y46400000D01*
X11725000Y26025000D02*
X10800000Y25100000D01*
X14500000Y22700000D02*
X14500000Y24975000D01*
X3800000Y43000000D02*
X3800000Y45750000D01*
X10500000Y24800000D02*
X10800000Y25100000D01*
X3800000Y45750000D02*
X4450000Y46400000D01*
X13700000Y26025000D02*
X11725000Y26025000D01*
X7400000Y46400000D02*
X10200000Y46400000D01*
X1260000Y41835000D02*
X2635000Y41835000D01*
X10500000Y22700000D02*
X10500000Y24800000D01*
X13800000Y25925000D02*
X13700000Y26025000D01*
X9830000Y46030000D02*
X10200000Y46400000D01*
X7290000Y46290000D02*
X7400000Y46400000D01*
X7290000Y44050000D02*
X7290000Y46290000D01*
X9830000Y44050000D02*
X9830000Y46030000D01*
X13800000Y25925000D02*
X14625000Y25100000D01*
X14500000Y24975000D02*
X14625000Y25100000D01*
X2635000Y41835000D02*
X3800000Y43000000D01*
%TO.N,GND*%
X16500000Y24200000D02*
X16500000Y24775000D01*
X18500000Y6700000D02*
X18500000Y7900000D01*
X16500000Y24775000D02*
X16175000Y25100000D01*
X12350000Y25100000D02*
X13200000Y25100000D01*
X12370000Y45780000D02*
X11750000Y46400000D01*
X16500000Y22700000D02*
X16500000Y24200000D01*
X18350000Y28550000D02*
X18500000Y28400000D01*
X13200000Y25100000D02*
X13300000Y25000000D01*
X12370000Y44050000D02*
X12370000Y45780000D01*
X4500000Y6700000D02*
X4500000Y8100000D01*
X17450000Y28550000D02*
X18350000Y28550000D01*
%TO.N,/GPS_RST*%
D18*
X1260000Y24055000D02*
X7875000Y24055000D01*
X7875000Y24055000D02*
X12370000Y28550000D01*
%TO.N,/SPI3_COPI*%
X14500000Y6950000D02*
X5015000Y16435000D01*
X14500000Y6700000D02*
X14500000Y6950000D01*
X5015000Y16435000D02*
X1260000Y16435000D01*
%TO.N,/RAD_BUSY*%
X6500000Y5800000D02*
X6500000Y6700000D01*
X6100000Y5400000D02*
X6500000Y5800000D01*
X2135000Y5400000D02*
X6100000Y5400000D01*
X1260000Y6275000D02*
X2135000Y5400000D01*
%TO.N,/RAD_RF_EN*%
X8500000Y6700000D02*
X8500000Y6450000D01*
X8500000Y6450000D02*
X9550000Y5400000D01*
X20705000Y5400000D02*
X21580000Y6275000D01*
X9550000Y5400000D02*
X20705000Y5400000D01*
%TO.N,/RAD_CS*%
X18265000Y8815000D02*
X16500000Y7050000D01*
X21580000Y8815000D02*
X18265000Y8815000D01*
X16500000Y7050000D02*
X16500000Y6700000D01*
%TO.N,/RAD_RST*%
X12500000Y22700000D02*
X12500000Y22350000D01*
X19680000Y21700000D02*
X19680000Y22155000D01*
X13450000Y21400000D02*
X19380000Y21400000D01*
X12500000Y22350000D02*
X13450000Y21400000D01*
X19680000Y22155000D02*
X21580000Y24055000D01*
X19380000Y21400000D02*
X19680000Y21700000D01*
%TD*%
%TA.AperFunction,Conductor*%
%TO.N,GND*%
G36*
X22758361Y5683414D02*
G01*
X22795081Y5623971D01*
X22799500Y5591164D01*
X22799500Y1804428D01*
X22799184Y1795581D01*
X22784869Y1595443D01*
X22782351Y1577932D01*
X22740645Y1386210D01*
X22735661Y1369235D01*
X22667093Y1185395D01*
X22659743Y1169301D01*
X22565709Y997092D01*
X22556144Y982209D01*
X22438561Y825136D01*
X22426975Y811765D01*
X22288235Y673025D01*
X22274864Y661439D01*
X22117791Y543856D01*
X22102908Y534291D01*
X21930699Y440257D01*
X21914605Y432907D01*
X21730765Y364339D01*
X21713790Y359355D01*
X21522068Y317649D01*
X21504557Y315131D01*
X21323779Y302201D01*
X21304417Y300816D01*
X21295572Y300500D01*
X1704428Y300500D01*
X1695582Y300816D01*
X1673622Y302387D01*
X1495442Y315131D01*
X1477931Y317649D01*
X1286209Y359355D01*
X1269234Y364339D01*
X1085394Y432907D01*
X1069300Y440257D01*
X897091Y534291D01*
X882208Y543856D01*
X725135Y661439D01*
X711764Y673025D01*
X573024Y811765D01*
X561438Y825136D01*
X443855Y982209D01*
X434290Y997092D01*
X340256Y1169301D01*
X332909Y1185389D01*
X264336Y1369240D01*
X259354Y1386210D01*
X217648Y1577932D01*
X215130Y1595444D01*
X200816Y1795582D01*
X200500Y1804428D01*
X200500Y5420216D01*
X220185Y5487255D01*
X272989Y5533010D01*
X342147Y5542954D01*
X405703Y5513929D01*
X412181Y5507897D01*
X422214Y5497864D01*
X422218Y5497861D01*
X586079Y5388372D01*
X586092Y5388365D01*
X768160Y5312951D01*
X768165Y5312949D01*
X768169Y5312949D01*
X768170Y5312948D01*
X961456Y5274500D01*
X961459Y5274500D01*
X1713456Y5274500D01*
X1780495Y5254815D01*
X1801137Y5238181D01*
X1919788Y5119530D01*
X1999712Y5073386D01*
X2088856Y5049500D01*
X2088858Y5049500D01*
X6146142Y5049500D01*
X6146144Y5049500D01*
X6235288Y5073386D01*
X6315212Y5119530D01*
X6608862Y5413182D01*
X6670185Y5446666D01*
X6696543Y5449500D01*
X7274676Y5449500D01*
X7274677Y5449501D01*
X7347740Y5464034D01*
X7413387Y5507897D01*
X7431110Y5519739D01*
X7497787Y5540617D01*
X7565167Y5522132D01*
X7568890Y5519739D01*
X7652256Y5464036D01*
X7652258Y5464036D01*
X7652260Y5464034D01*
X7652262Y5464034D01*
X7652264Y5464033D01*
X7725321Y5449501D01*
X7725324Y5449500D01*
X7725326Y5449500D01*
X8953457Y5449500D01*
X9020496Y5429815D01*
X9041138Y5413181D01*
X9269531Y5184788D01*
X9334788Y5119531D01*
X9334791Y5119530D01*
X9334794Y5119527D01*
X9414706Y5073389D01*
X9414707Y5073389D01*
X9414712Y5073386D01*
X9503856Y5049500D01*
X9503858Y5049500D01*
X20751142Y5049500D01*
X20751144Y5049500D01*
X20840288Y5073386D01*
X20920212Y5119530D01*
X21038863Y5238181D01*
X21100186Y5271666D01*
X21126544Y5274500D01*
X21878543Y5274500D01*
X22008582Y5300368D01*
X22071835Y5312949D01*
X22253914Y5388368D01*
X22417782Y5497861D01*
X22557139Y5637218D01*
X22572397Y5660053D01*
X22626009Y5704859D01*
X22695333Y5713568D01*
X22758361Y5683414D01*
G37*
%TD.AperFunction*%
%TA.AperFunction,Conductor*%
G36*
X5256454Y13524815D02*
G01*
X5302209Y13472011D01*
X5312153Y13402853D01*
X5296802Y13358502D01*
X5271907Y13315381D01*
X5238327Y13257218D01*
X5237016Y13254948D01*
X5199500Y13114938D01*
X5199500Y12969988D01*
X5237016Y12829978D01*
X5237017Y12829975D01*
X5309488Y12704452D01*
X5309490Y12704450D01*
X5309491Y12704448D01*
X5411985Y12601954D01*
X5411986Y12601953D01*
X5411988Y12601952D01*
X5537511Y12529481D01*
X5537512Y12529481D01*
X5537515Y12529479D01*
X5677525Y12491963D01*
X5753456Y12491963D01*
X5820495Y12472278D01*
X5841137Y12455644D01*
X10113181Y8183601D01*
X10127884Y8156674D01*
X10144477Y8130855D01*
X10145368Y8124655D01*
X10146666Y8122278D01*
X10149500Y8095920D01*
X10149500Y8074500D01*
X10129815Y8007461D01*
X10077011Y7961706D01*
X10025500Y7950500D01*
X9725323Y7950500D01*
X9652264Y7935968D01*
X9652260Y7935967D01*
X9568890Y7880261D01*
X9502212Y7859384D01*
X9434832Y7877869D01*
X9431110Y7880261D01*
X9347739Y7935967D01*
X9347735Y7935968D01*
X9274677Y7950500D01*
X9274674Y7950500D01*
X7725326Y7950500D01*
X7725323Y7950500D01*
X7652264Y7935968D01*
X7652260Y7935967D01*
X7568890Y7880261D01*
X7502212Y7859384D01*
X7434832Y7877869D01*
X7431110Y7880261D01*
X7347739Y7935967D01*
X7347735Y7935968D01*
X7274677Y7950500D01*
X7274674Y7950500D01*
X5749126Y7950500D01*
X5682087Y7970185D01*
X5649860Y8000188D01*
X5607187Y8057191D01*
X5492093Y8143351D01*
X5492086Y8143355D01*
X5357379Y8193597D01*
X5357372Y8193599D01*
X5297844Y8200000D01*
X4750000Y8200000D01*
X4750000Y6824000D01*
X4730315Y6756961D01*
X4677511Y6711206D01*
X4626000Y6700000D01*
X4500000Y6700000D01*
X4500000Y6574000D01*
X4480315Y6506961D01*
X4427511Y6461206D01*
X4376000Y6450000D01*
X3249999Y6450000D01*
X3243293Y6443294D01*
X3181970Y6409809D01*
X3112278Y6414795D01*
X3056345Y6456667D01*
X3033996Y6506785D01*
X3022052Y6566828D01*
X3022051Y6566835D01*
X2958739Y6719685D01*
X2946635Y6748908D01*
X2946628Y6748921D01*
X2837139Y6912782D01*
X2837136Y6912786D01*
X2697785Y7052137D01*
X2697781Y7052140D01*
X2533920Y7161629D01*
X2533907Y7161636D01*
X2351839Y7237050D01*
X2351829Y7237053D01*
X2158543Y7275500D01*
X2158541Y7275500D01*
X961459Y7275500D01*
X961457Y7275500D01*
X768170Y7237053D01*
X768160Y7237050D01*
X586092Y7161636D01*
X586079Y7161629D01*
X422218Y7052140D01*
X422214Y7052137D01*
X412181Y7042103D01*
X350858Y7008618D01*
X281166Y7013602D01*
X225233Y7055474D01*
X200816Y7120938D01*
X200500Y7129784D01*
X200500Y7747845D01*
X3250000Y7747845D01*
X3250000Y6950000D01*
X4250000Y6950000D01*
X4250000Y8200000D01*
X3702155Y8200000D01*
X3642627Y8193599D01*
X3642620Y8193597D01*
X3507913Y8143355D01*
X3507906Y8143351D01*
X3392812Y8057191D01*
X3392809Y8057188D01*
X3306649Y7942094D01*
X3306645Y7942087D01*
X3256403Y7807380D01*
X3256401Y7807373D01*
X3250000Y7747845D01*
X200500Y7747845D01*
X200500Y7960216D01*
X220185Y8027255D01*
X272989Y8073010D01*
X342147Y8082954D01*
X405703Y8053929D01*
X412181Y8047897D01*
X422214Y8037864D01*
X422218Y8037861D01*
X586079Y7928372D01*
X586092Y7928365D01*
X702227Y7880261D01*
X768165Y7852949D01*
X768169Y7852949D01*
X768170Y7852948D01*
X961456Y7814500D01*
X961459Y7814500D01*
X2158543Y7814500D01*
X2288582Y7840368D01*
X2351835Y7852949D01*
X2367371Y7859384D01*
X2382644Y7865710D01*
X2533907Y7928365D01*
X2533907Y7928366D01*
X2533914Y7928368D01*
X2697782Y8037861D01*
X2837139Y8177218D01*
X2946632Y8341086D01*
X3022051Y8523165D01*
X3060500Y8716459D01*
X3060500Y8913541D01*
X3060500Y8913544D01*
X3022052Y9106830D01*
X3022051Y9106831D01*
X3022051Y9106835D01*
X3007645Y9141614D01*
X2946635Y9288908D01*
X2946628Y9288921D01*
X2837139Y9452782D01*
X2837136Y9452786D01*
X2697785Y9592137D01*
X2697781Y9592140D01*
X2533920Y9701629D01*
X2533907Y9701636D01*
X2351839Y9777050D01*
X2351829Y9777053D01*
X2158543Y9815500D01*
X2158541Y9815500D01*
X961459Y9815500D01*
X961457Y9815500D01*
X768170Y9777053D01*
X768160Y9777050D01*
X586092Y9701636D01*
X586079Y9701629D01*
X422218Y9592140D01*
X422214Y9592137D01*
X412181Y9582103D01*
X350858Y9548618D01*
X281166Y9553602D01*
X225233Y9595474D01*
X200816Y9660938D01*
X200500Y9669784D01*
X200500Y10500216D01*
X220185Y10567255D01*
X272989Y10613010D01*
X342147Y10622954D01*
X405703Y10593929D01*
X412181Y10587897D01*
X422214Y10577864D01*
X422218Y10577861D01*
X586079Y10468372D01*
X586092Y10468365D01*
X768160Y10392951D01*
X768165Y10392949D01*
X768169Y10392949D01*
X768170Y10392948D01*
X961456Y10354500D01*
X961459Y10354500D01*
X2158543Y10354500D01*
X2288582Y10380368D01*
X2351835Y10392949D01*
X2533914Y10468368D01*
X2697782Y10577861D01*
X2837139Y10717218D01*
X2946632Y10881086D01*
X3022051Y11063165D01*
X3060500Y11256459D01*
X3060500Y11453541D01*
X3060500Y11453544D01*
X3022052Y11646830D01*
X3022051Y11646831D01*
X3022051Y11646835D01*
X3022049Y11646840D01*
X2946635Y11828908D01*
X2946628Y11828921D01*
X2837139Y11992782D01*
X2837136Y11992786D01*
X2697785Y12132137D01*
X2697781Y12132140D01*
X2533920Y12241629D01*
X2533907Y12241636D01*
X2351839Y12317050D01*
X2351829Y12317053D01*
X2158543Y12355500D01*
X2158541Y12355500D01*
X961459Y12355500D01*
X961457Y12355500D01*
X768170Y12317053D01*
X768160Y12317050D01*
X586092Y12241636D01*
X586079Y12241629D01*
X422218Y12132140D01*
X422214Y12132137D01*
X412181Y12122103D01*
X350858Y12088618D01*
X281166Y12093602D01*
X225233Y12135474D01*
X200816Y12200938D01*
X200500Y12209784D01*
X200500Y13040216D01*
X220185Y13107255D01*
X272989Y13153010D01*
X342147Y13162954D01*
X405703Y13133929D01*
X412181Y13127897D01*
X422214Y13117864D01*
X422218Y13117861D01*
X586079Y13008372D01*
X586092Y13008365D01*
X678744Y12969988D01*
X768165Y12932949D01*
X768169Y12932949D01*
X768170Y12932948D01*
X961456Y12894500D01*
X961459Y12894500D01*
X2158543Y12894500D01*
X2288582Y12920368D01*
X2351835Y12932949D01*
X2533914Y13008368D01*
X2697782Y13117861D01*
X2837139Y13257218D01*
X2946632Y13421086D01*
X2966044Y13467954D01*
X3009884Y13522355D01*
X3076178Y13544421D01*
X3080605Y13544500D01*
X5189415Y13544500D01*
X5256454Y13524815D01*
G37*
%TD.AperFunction*%
%TA.AperFunction,Conductor*%
G36*
X19826434Y8444815D02*
G01*
X19872189Y8392011D01*
X19873939Y8387991D01*
X19890051Y8349094D01*
X19893367Y8341088D01*
X19893371Y8341081D01*
X20002860Y8177218D01*
X20142214Y8037864D01*
X20142218Y8037861D01*
X20306079Y7928372D01*
X20306092Y7928365D01*
X20422227Y7880261D01*
X20488165Y7852949D01*
X20488169Y7852949D01*
X20488170Y7852948D01*
X20681456Y7814500D01*
X20681459Y7814500D01*
X21878543Y7814500D01*
X22008582Y7840368D01*
X22071835Y7852949D01*
X22253914Y7928368D01*
X22417782Y8037861D01*
X22557139Y8177218D01*
X22568084Y8193599D01*
X22572397Y8200053D01*
X22626009Y8244859D01*
X22695333Y8253568D01*
X22758361Y8223414D01*
X22795081Y8163971D01*
X22799500Y8131164D01*
X22799500Y6958837D01*
X22779815Y6891798D01*
X22727011Y6846043D01*
X22657853Y6836099D01*
X22594297Y6865124D01*
X22572398Y6889946D01*
X22557139Y6912782D01*
X22557136Y6912786D01*
X22417785Y7052137D01*
X22417781Y7052140D01*
X22253920Y7161629D01*
X22253907Y7161636D01*
X22071839Y7237050D01*
X22071829Y7237053D01*
X21878543Y7275500D01*
X21878541Y7275500D01*
X20681459Y7275500D01*
X20681457Y7275500D01*
X20488170Y7237053D01*
X20488160Y7237050D01*
X20306092Y7161636D01*
X20306079Y7161629D01*
X20142218Y7052140D01*
X20142214Y7052137D01*
X20002863Y6912786D01*
X20002860Y6912782D01*
X19977102Y6874232D01*
X19923489Y6829427D01*
X19854164Y6820720D01*
X19791137Y6850875D01*
X19754418Y6910318D01*
X19750000Y6943123D01*
X19750000Y7747828D01*
X19749999Y7747845D01*
X19743598Y7807373D01*
X19743596Y7807380D01*
X19693354Y7942087D01*
X19693350Y7942094D01*
X19607190Y8057188D01*
X19607187Y8057191D01*
X19492093Y8143351D01*
X19492086Y8143355D01*
X19357379Y8193597D01*
X19357372Y8193599D01*
X19297844Y8200000D01*
X18750000Y8200000D01*
X18750000Y6824000D01*
X18730315Y6756961D01*
X18677511Y6711206D01*
X18626000Y6700000D01*
X18374000Y6700000D01*
X18306961Y6719685D01*
X18261206Y6772489D01*
X18250000Y6824000D01*
X18250000Y8251362D01*
X18253865Y8251362D01*
X18257021Y8295493D01*
X18285522Y8339840D01*
X18373863Y8428181D01*
X18435186Y8461666D01*
X18461544Y8464500D01*
X19759395Y8464500D01*
X19826434Y8444815D01*
G37*
%TD.AperFunction*%
%TA.AperFunction,Conductor*%
G36*
X3442539Y23684815D02*
G01*
X3488294Y23632011D01*
X3499500Y23580500D01*
X3499500Y21675322D01*
X3514032Y21602265D01*
X3514033Y21602261D01*
X3514034Y21602260D01*
X3569399Y21519399D01*
X3652257Y21464036D01*
X3652260Y21464034D01*
X3652264Y21464033D01*
X3725321Y21449501D01*
X3725324Y21449500D01*
X3725326Y21449500D01*
X4055518Y21449500D01*
X4122557Y21429815D01*
X4168312Y21377011D01*
X4170064Y21372138D01*
X4170274Y21372224D01*
X4173385Y21364714D01*
X4219527Y21284792D01*
X4219529Y21284789D01*
X4219530Y21284788D01*
X9349788Y16154530D01*
X9429712Y16108386D01*
X9518856Y16084500D01*
X9518857Y16084500D01*
X9611144Y16084500D01*
X19759395Y16084500D01*
X19826434Y16064815D01*
X19872189Y16012011D01*
X19873939Y16007991D01*
X19890051Y15969094D01*
X19893367Y15961088D01*
X19893371Y15961081D01*
X20002860Y15797218D01*
X20142214Y15657864D01*
X20142218Y15657861D01*
X20306079Y15548372D01*
X20306092Y15548365D01*
X20488160Y15472951D01*
X20488165Y15472949D01*
X20488169Y15472949D01*
X20488170Y15472948D01*
X20681456Y15434500D01*
X20681459Y15434500D01*
X21878543Y15434500D01*
X22008582Y15460368D01*
X22071835Y15472949D01*
X22253914Y15548368D01*
X22417782Y15657861D01*
X22557139Y15797218D01*
X22572397Y15820053D01*
X22626009Y15864859D01*
X22695333Y15873568D01*
X22758361Y15843414D01*
X22795081Y15783971D01*
X22799500Y15751164D01*
X22799500Y14578837D01*
X22779815Y14511798D01*
X22727011Y14466043D01*
X22657853Y14456099D01*
X22594297Y14485124D01*
X22572398Y14509946D01*
X22557139Y14532782D01*
X22557136Y14532786D01*
X22417785Y14672137D01*
X22417781Y14672140D01*
X22253920Y14781629D01*
X22253907Y14781636D01*
X22071839Y14857050D01*
X22071829Y14857053D01*
X21878543Y14895500D01*
X21878541Y14895500D01*
X20681459Y14895500D01*
X20681457Y14895500D01*
X20488170Y14857053D01*
X20488160Y14857050D01*
X20306092Y14781636D01*
X20306079Y14781629D01*
X20142218Y14672140D01*
X20142214Y14672137D01*
X20002863Y14532786D01*
X20002860Y14532782D01*
X19893371Y14368921D01*
X19893364Y14368908D01*
X19817950Y14186840D01*
X19817947Y14186830D01*
X19779500Y13993544D01*
X19779500Y13993541D01*
X19779500Y13796459D01*
X19779500Y13796457D01*
X19779499Y13796457D01*
X19817947Y13603171D01*
X19817950Y13603161D01*
X19893364Y13421093D01*
X19893371Y13421080D01*
X20002860Y13257219D01*
X20002863Y13257215D01*
X20142214Y13117864D01*
X20142218Y13117861D01*
X20306079Y13008372D01*
X20306092Y13008365D01*
X20398744Y12969988D01*
X20488165Y12932949D01*
X20488169Y12932949D01*
X20488170Y12932948D01*
X20681456Y12894500D01*
X20681459Y12894500D01*
X21878543Y12894500D01*
X22008582Y12920368D01*
X22071835Y12932949D01*
X22253914Y13008368D01*
X22417782Y13117861D01*
X22557139Y13257218D01*
X22572397Y13280053D01*
X22626009Y13324859D01*
X22695333Y13333568D01*
X22758361Y13303414D01*
X22795081Y13243971D01*
X22799500Y13211164D01*
X22799500Y12038837D01*
X22779815Y11971798D01*
X22727011Y11926043D01*
X22657853Y11916099D01*
X22594297Y11945124D01*
X22572398Y11969946D01*
X22557139Y11992782D01*
X22557136Y11992786D01*
X22417785Y12132137D01*
X22417781Y12132140D01*
X22253920Y12241629D01*
X22253907Y12241636D01*
X22071839Y12317050D01*
X22071829Y12317053D01*
X21878543Y12355500D01*
X21878541Y12355500D01*
X20681459Y12355500D01*
X20681457Y12355500D01*
X20488170Y12317053D01*
X20488160Y12317050D01*
X20306092Y12241636D01*
X20306079Y12241629D01*
X20142218Y12132140D01*
X20142214Y12132137D01*
X20002863Y11992786D01*
X20002860Y11992782D01*
X19893371Y11828921D01*
X19893364Y11828908D01*
X19817950Y11646840D01*
X19817947Y11646830D01*
X19779500Y11453544D01*
X19779500Y11453541D01*
X19779500Y11256459D01*
X19779500Y11256457D01*
X19779499Y11256457D01*
X19817947Y11063171D01*
X19817950Y11063161D01*
X19893364Y10881093D01*
X19893371Y10881080D01*
X20002860Y10717219D01*
X20002863Y10717215D01*
X20142214Y10577864D01*
X20142218Y10577861D01*
X20306079Y10468372D01*
X20306092Y10468365D01*
X20488160Y10392951D01*
X20488165Y10392949D01*
X20488169Y10392949D01*
X20488170Y10392948D01*
X20681456Y10354500D01*
X20681459Y10354500D01*
X21878543Y10354500D01*
X22008582Y10380368D01*
X22071835Y10392949D01*
X22253914Y10468368D01*
X22417782Y10577861D01*
X22557139Y10717218D01*
X22572397Y10740053D01*
X22626009Y10784859D01*
X22695333Y10793568D01*
X22758361Y10763414D01*
X22795081Y10703971D01*
X22799500Y10671164D01*
X22799500Y9498837D01*
X22779815Y9431798D01*
X22727011Y9386043D01*
X22657853Y9376099D01*
X22594297Y9405124D01*
X22572398Y9429946D01*
X22557139Y9452782D01*
X22557136Y9452786D01*
X22417785Y9592137D01*
X22417781Y9592140D01*
X22253920Y9701629D01*
X22253907Y9701636D01*
X22071839Y9777050D01*
X22071829Y9777053D01*
X21878543Y9815500D01*
X21878541Y9815500D01*
X20681459Y9815500D01*
X20681457Y9815500D01*
X20488170Y9777053D01*
X20488160Y9777050D01*
X20306092Y9701636D01*
X20306079Y9701629D01*
X20142218Y9592140D01*
X20142214Y9592137D01*
X20002860Y9452783D01*
X19893371Y9288920D01*
X19893367Y9288913D01*
X19885351Y9269562D01*
X19873955Y9242047D01*
X19830116Y9187645D01*
X19763822Y9165579D01*
X19759395Y9165500D01*
X18218856Y9165500D01*
X18129712Y9141614D01*
X18129709Y9141613D01*
X18049791Y9095473D01*
X18049786Y9095469D01*
X16941137Y7986819D01*
X16879814Y7953334D01*
X16853456Y7950500D01*
X15725323Y7950500D01*
X15652264Y7935968D01*
X15652260Y7935967D01*
X15568890Y7880261D01*
X15502212Y7859384D01*
X15434832Y7877869D01*
X15431110Y7880261D01*
X15347739Y7935967D01*
X15347735Y7935968D01*
X15274677Y7950500D01*
X15274674Y7950500D01*
X14046544Y7950500D01*
X13979505Y7970185D01*
X13958863Y7986819D01*
X5230213Y16715469D01*
X5230208Y16715473D01*
X5150290Y16761613D01*
X5150289Y16761614D01*
X5150288Y16761614D01*
X5061144Y16785500D01*
X5061143Y16785500D01*
X3080605Y16785500D01*
X3013566Y16805185D01*
X2967811Y16857989D01*
X2966060Y16862010D01*
X2946632Y16908914D01*
X2881733Y17006043D01*
X2837139Y17072783D01*
X2697785Y17212137D01*
X2697781Y17212140D01*
X2533920Y17321629D01*
X2533907Y17321636D01*
X2351839Y17397050D01*
X2351829Y17397053D01*
X2158543Y17435500D01*
X2158541Y17435500D01*
X961459Y17435500D01*
X961457Y17435500D01*
X768170Y17397053D01*
X768160Y17397050D01*
X586092Y17321636D01*
X586079Y17321629D01*
X422218Y17212140D01*
X422214Y17212137D01*
X412181Y17202103D01*
X350858Y17168618D01*
X281166Y17173602D01*
X225233Y17215474D01*
X200816Y17280938D01*
X200500Y17289784D01*
X200500Y18120216D01*
X220185Y18187255D01*
X272989Y18233010D01*
X342147Y18242954D01*
X405703Y18213929D01*
X412181Y18207897D01*
X422214Y18197864D01*
X422218Y18197861D01*
X586079Y18088372D01*
X586092Y18088365D01*
X768160Y18012951D01*
X768165Y18012949D01*
X768169Y18012949D01*
X768170Y18012948D01*
X961456Y17974500D01*
X961459Y17974500D01*
X2158543Y17974500D01*
X2288582Y18000368D01*
X2351835Y18012949D01*
X2533914Y18088368D01*
X2697782Y18197861D01*
X2837139Y18337218D01*
X2946632Y18501086D01*
X3022051Y18683165D01*
X3060500Y18876459D01*
X3060500Y19073541D01*
X3060500Y19073544D01*
X3022052Y19266830D01*
X3022051Y19266831D01*
X3022051Y19266835D01*
X3022049Y19266840D01*
X2946635Y19448908D01*
X2946628Y19448921D01*
X2837139Y19612782D01*
X2837136Y19612786D01*
X2697785Y19752137D01*
X2697781Y19752140D01*
X2533920Y19861629D01*
X2533907Y19861636D01*
X2351839Y19937050D01*
X2351829Y19937053D01*
X2158543Y19975500D01*
X2158541Y19975500D01*
X961459Y19975500D01*
X961457Y19975500D01*
X768170Y19937053D01*
X768160Y19937050D01*
X586092Y19861636D01*
X586079Y19861629D01*
X422218Y19752140D01*
X422214Y19752137D01*
X412181Y19742103D01*
X350858Y19708618D01*
X281166Y19713602D01*
X225233Y19755474D01*
X200816Y19820938D01*
X200500Y19829784D01*
X200500Y20660216D01*
X220185Y20727255D01*
X272989Y20773010D01*
X342147Y20782954D01*
X405703Y20753929D01*
X412181Y20747897D01*
X422214Y20737864D01*
X422218Y20737861D01*
X586079Y20628372D01*
X586092Y20628365D01*
X768160Y20552951D01*
X768165Y20552949D01*
X768169Y20552949D01*
X768170Y20552948D01*
X961456Y20514500D01*
X961459Y20514500D01*
X2158543Y20514500D01*
X2288582Y20540368D01*
X2351835Y20552949D01*
X2533914Y20628368D01*
X2697782Y20737861D01*
X2837139Y20877218D01*
X2946632Y21041086D01*
X3022051Y21223165D01*
X3052963Y21378566D01*
X3060500Y21416457D01*
X3060500Y21613544D01*
X3022052Y21806830D01*
X3022051Y21806831D01*
X3022051Y21806835D01*
X3022049Y21806840D01*
X2946635Y21988908D01*
X2946628Y21988921D01*
X2837139Y22152782D01*
X2837136Y22152786D01*
X2697785Y22292137D01*
X2697781Y22292140D01*
X2533920Y22401629D01*
X2533907Y22401636D01*
X2351839Y22477050D01*
X2351829Y22477053D01*
X2158543Y22515500D01*
X2158541Y22515500D01*
X961459Y22515500D01*
X961457Y22515500D01*
X768170Y22477053D01*
X768160Y22477050D01*
X586092Y22401636D01*
X586079Y22401629D01*
X422218Y22292140D01*
X422214Y22292137D01*
X412181Y22282103D01*
X350858Y22248618D01*
X281166Y22253602D01*
X225233Y22295474D01*
X200816Y22360938D01*
X200500Y22369784D01*
X200500Y23200216D01*
X220185Y23267255D01*
X272989Y23313010D01*
X342147Y23322954D01*
X405703Y23293929D01*
X412181Y23287897D01*
X422214Y23277864D01*
X422218Y23277861D01*
X586079Y23168372D01*
X586092Y23168365D01*
X768160Y23092951D01*
X768165Y23092949D01*
X768169Y23092949D01*
X768170Y23092948D01*
X961456Y23054500D01*
X961459Y23054500D01*
X2158543Y23054500D01*
X2288582Y23080368D01*
X2351835Y23092949D01*
X2533914Y23168368D01*
X2697782Y23277861D01*
X2837139Y23417218D01*
X2946632Y23581086D01*
X2966044Y23627954D01*
X3009884Y23682355D01*
X3076178Y23704421D01*
X3080605Y23704500D01*
X3375500Y23704500D01*
X3442539Y23684815D01*
G37*
%TD.AperFunction*%
%TA.AperFunction,Conductor*%
G36*
X4885495Y16064815D02*
G01*
X4906137Y16048181D01*
X12792137Y8162181D01*
X12825622Y8100858D01*
X12820638Y8031166D01*
X12778766Y7975233D01*
X12713302Y7950816D01*
X12704456Y7950500D01*
X12046544Y7950500D01*
X11979505Y7970185D01*
X11958863Y7986819D01*
X6836819Y13108863D01*
X6803334Y13170186D01*
X6800500Y13196544D01*
X6800500Y13315381D01*
X6800500Y13315383D01*
X6776614Y13404527D01*
X6730470Y13484451D01*
X6039451Y14175470D01*
X6039450Y14175471D01*
X6039447Y14175473D01*
X5959529Y14221613D01*
X5959528Y14221614D01*
X5959527Y14221614D01*
X5870383Y14245500D01*
X5870382Y14245500D01*
X3080605Y14245500D01*
X3013566Y14265185D01*
X2967811Y14317989D01*
X2966060Y14322010D01*
X2946632Y14368914D01*
X2881733Y14466043D01*
X2837139Y14532783D01*
X2697785Y14672137D01*
X2697781Y14672140D01*
X2533920Y14781629D01*
X2533907Y14781636D01*
X2351839Y14857050D01*
X2351829Y14857053D01*
X2158543Y14895500D01*
X2158541Y14895500D01*
X961459Y14895500D01*
X961457Y14895500D01*
X768170Y14857053D01*
X768160Y14857050D01*
X586092Y14781636D01*
X586079Y14781629D01*
X422218Y14672140D01*
X422214Y14672137D01*
X412181Y14662103D01*
X350858Y14628618D01*
X281166Y14633602D01*
X225233Y14675474D01*
X200816Y14740938D01*
X200500Y14749784D01*
X200500Y15580216D01*
X220185Y15647255D01*
X272989Y15693010D01*
X342147Y15702954D01*
X405703Y15673929D01*
X412181Y15667897D01*
X422214Y15657864D01*
X422218Y15657861D01*
X586079Y15548372D01*
X586092Y15548365D01*
X768160Y15472951D01*
X768165Y15472949D01*
X768169Y15472949D01*
X768170Y15472948D01*
X961456Y15434500D01*
X961459Y15434500D01*
X2158543Y15434500D01*
X2288582Y15460368D01*
X2351835Y15472949D01*
X2533914Y15548368D01*
X2697782Y15657861D01*
X2837139Y15797218D01*
X2946632Y15961086D01*
X2966044Y16007954D01*
X3009884Y16062355D01*
X3076178Y16084421D01*
X3080605Y16084500D01*
X4818456Y16084500D01*
X4885495Y16064815D01*
G37*
%TD.AperFunction*%
%TA.AperFunction,Conductor*%
G36*
X5517063Y21535329D02*
G01*
X5537053Y21534972D01*
X5562170Y21522955D01*
X5565167Y21522132D01*
X5568890Y21519739D01*
X5652256Y21464036D01*
X5652258Y21464036D01*
X5652260Y21464034D01*
X5652262Y21464034D01*
X5652264Y21464033D01*
X5725321Y21449501D01*
X5725324Y21449500D01*
X5725326Y21449500D01*
X6953456Y21449500D01*
X7020495Y21429815D01*
X7041137Y21413181D01*
X8134788Y20319530D01*
X8214712Y20273386D01*
X8303856Y20249500D01*
X19758456Y20249500D01*
X19825495Y20229815D01*
X19846137Y20213181D01*
X20137017Y19922301D01*
X20170502Y19860978D01*
X20165518Y19791286D01*
X20137017Y19746939D01*
X20002863Y19612786D01*
X20002860Y19612782D01*
X19893371Y19448921D01*
X19893364Y19448908D01*
X19817950Y19266840D01*
X19817947Y19266830D01*
X19779500Y19073544D01*
X19779500Y19073541D01*
X19779500Y18876459D01*
X19779500Y18876457D01*
X19779499Y18876457D01*
X19817947Y18683171D01*
X19817950Y18683161D01*
X19893364Y18501093D01*
X19893371Y18501080D01*
X20002860Y18337219D01*
X20002863Y18337215D01*
X20142214Y18197864D01*
X20142218Y18197861D01*
X20306079Y18088372D01*
X20306092Y18088365D01*
X20488160Y18012951D01*
X20488165Y18012949D01*
X20488169Y18012949D01*
X20488170Y18012948D01*
X20681456Y17974500D01*
X20681459Y17974500D01*
X21878543Y17974500D01*
X22008582Y18000368D01*
X22071835Y18012949D01*
X22253914Y18088368D01*
X22417782Y18197861D01*
X22557139Y18337218D01*
X22572397Y18360053D01*
X22626009Y18404859D01*
X22695333Y18413568D01*
X22758361Y18383414D01*
X22795081Y18323971D01*
X22799500Y18291164D01*
X22799500Y17118837D01*
X22779815Y17051798D01*
X22727011Y17006043D01*
X22657853Y16996099D01*
X22594297Y17025124D01*
X22572398Y17049946D01*
X22557139Y17072782D01*
X22557136Y17072786D01*
X22417785Y17212137D01*
X22417781Y17212140D01*
X22253920Y17321629D01*
X22253907Y17321636D01*
X22071839Y17397050D01*
X22071829Y17397053D01*
X21878543Y17435500D01*
X21878541Y17435500D01*
X20681459Y17435500D01*
X20681457Y17435500D01*
X20488170Y17397053D01*
X20488160Y17397050D01*
X20306092Y17321636D01*
X20306079Y17321629D01*
X20142218Y17212140D01*
X20142214Y17212137D01*
X20002860Y17072783D01*
X19893371Y16908920D01*
X19893367Y16908913D01*
X19885351Y16889562D01*
X19873955Y16862047D01*
X19830116Y16807645D01*
X19763822Y16785579D01*
X19759395Y16785500D01*
X9761544Y16785500D01*
X9694505Y16805185D01*
X9673863Y16821819D01*
X5248131Y21247551D01*
X5214646Y21308874D01*
X5219630Y21378566D01*
X5261502Y21434499D01*
X5311618Y21456849D01*
X5347740Y21464034D01*
X5430601Y21519399D01*
X5430600Y21519399D01*
X5431110Y21519739D01*
X5450184Y21525712D01*
X5467194Y21536219D01*
X5482848Y21535940D01*
X5497787Y21540617D01*
X5517063Y21535329D01*
G37*
%TD.AperFunction*%
%TA.AperFunction,Conductor*%
G36*
X21304418Y50299184D02*
G01*
X21504561Y50284870D01*
X21522063Y50282353D01*
X21713795Y50240645D01*
X21730760Y50235664D01*
X21914611Y50167091D01*
X21930694Y50159747D01*
X22047495Y50095968D01*
X22102908Y50065710D01*
X22117791Y50056145D01*
X22274864Y49938562D01*
X22288235Y49926976D01*
X22426975Y49788236D01*
X22438561Y49774865D01*
X22556144Y49617792D01*
X22565709Y49602909D01*
X22659743Y49430700D01*
X22667093Y49414606D01*
X22735661Y49230766D01*
X22740645Y49213791D01*
X22782351Y49022069D01*
X22784869Y49004558D01*
X22799184Y48804420D01*
X22799500Y48795573D01*
X22799500Y34898837D01*
X22779815Y34831798D01*
X22727011Y34786043D01*
X22657853Y34776099D01*
X22594297Y34805124D01*
X22572398Y34829946D01*
X22557139Y34852782D01*
X22557136Y34852786D01*
X22417785Y34992137D01*
X22417781Y34992140D01*
X22253920Y35101629D01*
X22253907Y35101636D01*
X22071839Y35177050D01*
X22071829Y35177053D01*
X21878543Y35215500D01*
X21878541Y35215500D01*
X20681459Y35215500D01*
X20681457Y35215500D01*
X20488170Y35177053D01*
X20488160Y35177050D01*
X20306092Y35101636D01*
X20306079Y35101629D01*
X20142218Y34992140D01*
X20142214Y34992137D01*
X20002863Y34852786D01*
X20002860Y34852782D01*
X19893371Y34688921D01*
X19893364Y34688908D01*
X19817950Y34506840D01*
X19817947Y34506830D01*
X19779500Y34313544D01*
X19779500Y34313541D01*
X19779500Y34116459D01*
X19779500Y34116457D01*
X19779499Y34116457D01*
X19817947Y33923171D01*
X19817950Y33923161D01*
X19893364Y33741093D01*
X19893371Y33741080D01*
X20002860Y33577219D01*
X20002863Y33577215D01*
X20142214Y33437864D01*
X20142218Y33437861D01*
X20306079Y33328372D01*
X20306092Y33328365D01*
X20488158Y33252952D01*
X20488165Y33252949D01*
X20488169Y33252949D01*
X20488170Y33252948D01*
X20681456Y33214500D01*
X20681459Y33214500D01*
X21878543Y33214500D01*
X22008582Y33240368D01*
X22071835Y33252949D01*
X22253914Y33328368D01*
X22417782Y33437861D01*
X22557139Y33577218D01*
X22572397Y33600053D01*
X22626009Y33644859D01*
X22695333Y33653568D01*
X22758361Y33623414D01*
X22795081Y33563971D01*
X22799500Y33531164D01*
X22799500Y32358837D01*
X22779815Y32291798D01*
X22727011Y32246043D01*
X22657853Y32236099D01*
X22594297Y32265124D01*
X22572398Y32289946D01*
X22557139Y32312782D01*
X22557136Y32312786D01*
X22417785Y32452137D01*
X22417781Y32452140D01*
X22253920Y32561629D01*
X22253907Y32561636D01*
X22071839Y32637050D01*
X22071829Y32637053D01*
X21878543Y32675500D01*
X21878541Y32675500D01*
X20681459Y32675500D01*
X20681457Y32675500D01*
X20488170Y32637053D01*
X20488160Y32637050D01*
X20306092Y32561636D01*
X20306079Y32561629D01*
X20142218Y32452140D01*
X20142214Y32452137D01*
X20002863Y32312786D01*
X20002860Y32312782D01*
X19893371Y32148921D01*
X19893364Y32148908D01*
X19817950Y31966840D01*
X19817947Y31966830D01*
X19779500Y31773544D01*
X19779500Y31773541D01*
X19779500Y31576459D01*
X19779500Y31576457D01*
X19779499Y31576457D01*
X19817947Y31383171D01*
X19817950Y31383161D01*
X19893364Y31201093D01*
X19893371Y31201080D01*
X20002860Y31037219D01*
X20002863Y31037215D01*
X20142214Y30897864D01*
X20142218Y30897861D01*
X20306079Y30788372D01*
X20306092Y30788365D01*
X20472284Y30719527D01*
X20488165Y30712949D01*
X20488169Y30712949D01*
X20488170Y30712948D01*
X20681456Y30674500D01*
X20681459Y30674500D01*
X21878543Y30674500D01*
X22008582Y30700368D01*
X22071835Y30712949D01*
X22245288Y30784795D01*
X22253907Y30788365D01*
X22253907Y30788366D01*
X22253914Y30788368D01*
X22417782Y30897861D01*
X22557139Y31037218D01*
X22572397Y31060053D01*
X22626009Y31104859D01*
X22695333Y31113568D01*
X22758361Y31083414D01*
X22795081Y31023971D01*
X22799500Y30991164D01*
X22799500Y29818837D01*
X22779815Y29751798D01*
X22727011Y29706043D01*
X22657853Y29696099D01*
X22594297Y29725124D01*
X22572398Y29749946D01*
X22557139Y29772782D01*
X22557136Y29772786D01*
X22417785Y29912137D01*
X22417781Y29912140D01*
X22253920Y30021629D01*
X22253907Y30021636D01*
X22071839Y30097050D01*
X22071829Y30097053D01*
X21878543Y30135500D01*
X21878541Y30135500D01*
X20681459Y30135500D01*
X20681457Y30135500D01*
X20488170Y30097053D01*
X20488160Y30097050D01*
X20306092Y30021636D01*
X20306079Y30021629D01*
X20142218Y29912140D01*
X20142214Y29912137D01*
X20002863Y29772786D01*
X20002860Y29772782D01*
X19893371Y29608921D01*
X19893364Y29608908D01*
X19817950Y29426840D01*
X19817947Y29426830D01*
X19779500Y29233544D01*
X19779500Y29233541D01*
X19779500Y29036459D01*
X19779500Y29036457D01*
X19779499Y29036457D01*
X19817947Y28843171D01*
X19817950Y28843161D01*
X19893364Y28661093D01*
X19893371Y28661080D01*
X20002860Y28497219D01*
X20002863Y28497215D01*
X20142214Y28357864D01*
X20142218Y28357861D01*
X20306079Y28248372D01*
X20306092Y28248365D01*
X20488160Y28172951D01*
X20488165Y28172949D01*
X20488169Y28172949D01*
X20488170Y28172948D01*
X20681456Y28134500D01*
X20681459Y28134500D01*
X21878543Y28134500D01*
X22008582Y28160368D01*
X22071835Y28172949D01*
X22253914Y28248368D01*
X22417782Y28357861D01*
X22557139Y28497218D01*
X22572397Y28520053D01*
X22626009Y28564859D01*
X22695333Y28573568D01*
X22758361Y28543414D01*
X22795081Y28483971D01*
X22799500Y28451164D01*
X22799500Y27278837D01*
X22779815Y27211798D01*
X22727011Y27166043D01*
X22657853Y27156099D01*
X22594297Y27185124D01*
X22572398Y27209946D01*
X22557139Y27232782D01*
X22557136Y27232786D01*
X22417785Y27372137D01*
X22417781Y27372140D01*
X22253920Y27481629D01*
X22253907Y27481636D01*
X22071839Y27557050D01*
X22071829Y27557053D01*
X21878543Y27595500D01*
X21878541Y27595500D01*
X20681459Y27595500D01*
X20681457Y27595500D01*
X20488170Y27557053D01*
X20488160Y27557050D01*
X20306092Y27481636D01*
X20306079Y27481629D01*
X20142218Y27372140D01*
X20142214Y27372137D01*
X20002863Y27232786D01*
X20002860Y27232782D01*
X19893371Y27068921D01*
X19893364Y27068908D01*
X19817950Y26886840D01*
X19817947Y26886830D01*
X19779500Y26693544D01*
X19779500Y26693541D01*
X19779500Y26496459D01*
X19779500Y26496457D01*
X19779499Y26496457D01*
X19817947Y26303171D01*
X19817950Y26303161D01*
X19893364Y26121093D01*
X19893371Y26121080D01*
X20002860Y25957219D01*
X20002863Y25957215D01*
X20142214Y25817864D01*
X20142218Y25817861D01*
X20306079Y25708372D01*
X20306092Y25708365D01*
X20426522Y25658482D01*
X20488165Y25632949D01*
X20488169Y25632949D01*
X20488170Y25632948D01*
X20681456Y25594500D01*
X20681459Y25594500D01*
X21878543Y25594500D01*
X22013086Y25621263D01*
X22071835Y25632949D01*
X22253914Y25708368D01*
X22417782Y25817861D01*
X22557139Y25957218D01*
X22572397Y25980053D01*
X22626009Y26024859D01*
X22695333Y26033568D01*
X22758361Y26003414D01*
X22795081Y25943971D01*
X22799500Y25911164D01*
X22799500Y24738837D01*
X22779815Y24671798D01*
X22727011Y24626043D01*
X22657853Y24616099D01*
X22594297Y24645124D01*
X22572398Y24669946D01*
X22557139Y24692782D01*
X22557136Y24692786D01*
X22417785Y24832137D01*
X22417781Y24832140D01*
X22253920Y24941629D01*
X22253907Y24941636D01*
X22071839Y25017050D01*
X22071829Y25017053D01*
X21878543Y25055500D01*
X21878541Y25055500D01*
X20681459Y25055500D01*
X20681457Y25055500D01*
X20488170Y25017053D01*
X20488160Y25017050D01*
X20306092Y24941636D01*
X20306079Y24941629D01*
X20142218Y24832140D01*
X20142214Y24832137D01*
X20002863Y24692786D01*
X20002860Y24692782D01*
X19893371Y24528921D01*
X19893364Y24528908D01*
X19817950Y24346840D01*
X19817947Y24346830D01*
X19779500Y24153544D01*
X19779500Y24153541D01*
X19779500Y23956459D01*
X19779500Y23956457D01*
X19779499Y23956457D01*
X19817947Y23763171D01*
X19817950Y23763161D01*
X19893364Y23581093D01*
X19893371Y23581080D01*
X20002860Y23417219D01*
X20002863Y23417215D01*
X20137016Y23283062D01*
X20170501Y23221739D01*
X20165517Y23152047D01*
X20137016Y23107700D01*
X19712181Y22682864D01*
X19650858Y22649379D01*
X19581167Y22654363D01*
X19525233Y22696234D01*
X19500816Y22761699D01*
X19500500Y22770545D01*
X19500500Y23724677D01*
X19500499Y23724679D01*
X19485967Y23797736D01*
X19485966Y23797740D01*
X19430601Y23880601D01*
X19347740Y23935966D01*
X19347739Y23935967D01*
X19347735Y23935968D01*
X19274677Y23950500D01*
X19274674Y23950500D01*
X17749126Y23950500D01*
X17682087Y23970185D01*
X17649860Y24000188D01*
X17607187Y24057191D01*
X17492093Y24143351D01*
X17492086Y24143355D01*
X17357379Y24193597D01*
X17357372Y24193599D01*
X17297844Y24200000D01*
X17072720Y24200000D01*
X17005681Y24219685D01*
X16959926Y24272489D01*
X16949982Y24341647D01*
X16970726Y24389922D01*
X16968782Y24391121D01*
X17061542Y24541508D01*
X17061547Y24541519D01*
X17114855Y24702394D01*
X17124999Y24801678D01*
X17125000Y24801691D01*
X17125000Y24850000D01*
X16299000Y24850000D01*
X16231961Y24869685D01*
X16186206Y24922489D01*
X16175000Y24974000D01*
X16175000Y25100000D01*
X16049000Y25100000D01*
X15981961Y25119685D01*
X15936206Y25172489D01*
X15925000Y25224000D01*
X15925000Y25350000D01*
X16425000Y25350000D01*
X17124999Y25350000D01*
X17124999Y25398308D01*
X17124998Y25398323D01*
X17114855Y25497608D01*
X17061547Y25658482D01*
X17061542Y25658493D01*
X16972575Y25802729D01*
X16972572Y25802733D01*
X16852732Y25922573D01*
X16852728Y25922576D01*
X16708492Y26011543D01*
X16708481Y26011548D01*
X16547606Y26064856D01*
X16448322Y26075000D01*
X16425000Y26075000D01*
X16425000Y25350000D01*
X15925000Y25350000D01*
X15925000Y26075001D01*
X15901693Y26075000D01*
X15901674Y26074999D01*
X15802392Y26064856D01*
X15641518Y26011548D01*
X15641507Y26011543D01*
X15497271Y25922576D01*
X15497267Y25922573D01*
X15377424Y25802730D01*
X15341649Y25744730D01*
X15289701Y25698007D01*
X15220738Y25686786D01*
X15161802Y25710562D01*
X15080230Y25771626D01*
X15080227Y25771627D01*
X15080226Y25771628D01*
X14952114Y25819412D01*
X14952112Y25819413D01*
X14952110Y25819413D01*
X14895501Y25825500D01*
X14895485Y25825500D01*
X14658675Y25825500D01*
X14591636Y25845185D01*
X14570994Y25861819D01*
X14236819Y26195995D01*
X14203334Y26257318D01*
X14200500Y26283676D01*
X14200500Y26935170D01*
X14220185Y27002209D01*
X14272989Y27047964D01*
X14342147Y27057908D01*
X14348689Y27056788D01*
X14361426Y27054254D01*
X14385325Y27049500D01*
X14385326Y27049500D01*
X15434676Y27049500D01*
X15434677Y27049501D01*
X15507740Y27064034D01*
X15590601Y27119399D01*
X15645966Y27202260D01*
X15655891Y27252156D01*
X16450000Y27252156D01*
X16456401Y27192628D01*
X16456403Y27192621D01*
X16506645Y27057914D01*
X16506649Y27057907D01*
X16592809Y26942813D01*
X16592812Y26942810D01*
X16707906Y26856650D01*
X16707913Y26856646D01*
X16842620Y26806404D01*
X16842627Y26806402D01*
X16902155Y26800001D01*
X16902172Y26800000D01*
X17200000Y26800000D01*
X17700000Y26800000D01*
X17997828Y26800000D01*
X17997844Y26800001D01*
X18057372Y26806402D01*
X18057379Y26806404D01*
X18192086Y26856646D01*
X18192093Y26856650D01*
X18307187Y26942810D01*
X18307190Y26942813D01*
X18393350Y27057907D01*
X18393354Y27057914D01*
X18443596Y27192621D01*
X18443598Y27192628D01*
X18449999Y27252156D01*
X18450000Y27252173D01*
X18450000Y28300000D01*
X17700000Y28300000D01*
X17700000Y26800000D01*
X17200000Y26800000D01*
X17200000Y28300000D01*
X16450000Y28300000D01*
X16450000Y27252156D01*
X15655891Y27252156D01*
X15660500Y27275326D01*
X15660500Y29824674D01*
X15660499Y29824677D01*
X15660047Y29826952D01*
X15660047Y29826955D01*
X15660046Y29826958D01*
X15655891Y29847845D01*
X16450000Y29847845D01*
X16450000Y28800000D01*
X17200000Y28800000D01*
X17700000Y28800000D01*
X18450000Y28800000D01*
X18450000Y29847828D01*
X18449999Y29847845D01*
X18443598Y29907373D01*
X18443596Y29907380D01*
X18393354Y30042087D01*
X18393350Y30042094D01*
X18307190Y30157188D01*
X18307187Y30157191D01*
X18192093Y30243351D01*
X18192086Y30243355D01*
X18057379Y30293597D01*
X18057372Y30293599D01*
X17997844Y30300000D01*
X17700000Y30300000D01*
X17700000Y28800000D01*
X17200000Y28800000D01*
X17200000Y30300000D01*
X16902155Y30300000D01*
X16842627Y30293599D01*
X16842620Y30293597D01*
X16707913Y30243355D01*
X16707906Y30243351D01*
X16592812Y30157191D01*
X16592809Y30157188D01*
X16506649Y30042094D01*
X16506645Y30042087D01*
X16456403Y29907380D01*
X16456401Y29907373D01*
X16450000Y29847845D01*
X15655891Y29847845D01*
X15645967Y29897736D01*
X15645966Y29897740D01*
X15643051Y29902103D01*
X15590601Y29980601D01*
X15507740Y30035966D01*
X15507739Y30035967D01*
X15507735Y30035968D01*
X15434677Y30050500D01*
X15434674Y30050500D01*
X14385326Y30050500D01*
X14348690Y30043213D01*
X14279098Y30049442D01*
X14223922Y30092305D01*
X14200678Y30158195D01*
X14200500Y30164831D01*
X14200500Y35032820D01*
X14220185Y35099859D01*
X14236819Y35120501D01*
X16445478Y37329160D01*
X18925499Y39809181D01*
X18991392Y39923310D01*
X19025500Y40050603D01*
X19025500Y40182388D01*
X19025500Y48565672D01*
X18991392Y48692966D01*
X18925500Y48807094D01*
X18832314Y48900280D01*
X18832313Y48900281D01*
X18827983Y48904611D01*
X18827972Y48904621D01*
X18082096Y49650498D01*
X18082095Y49650499D01*
X18082094Y49650500D01*
X18025030Y49683446D01*
X17967967Y49716392D01*
X17904319Y49733446D01*
X17840672Y49750500D01*
X13115893Y49750500D01*
X12984108Y49750500D01*
X12856812Y49716392D01*
X12742686Y49650500D01*
X12742683Y49650498D01*
X10254003Y47161819D01*
X10192680Y47128334D01*
X10166323Y47125500D01*
X9929519Y47125500D01*
X9929509Y47125499D01*
X9872885Y47119413D01*
X9744773Y47071628D01*
X9635312Y46989686D01*
X9635309Y46989683D01*
X9605747Y46950191D01*
X9549814Y46908319D01*
X9506479Y46900500D01*
X4384108Y46900500D01*
X4256812Y46866392D01*
X4142686Y46800500D01*
X4142683Y46800498D01*
X3399502Y46057317D01*
X3399500Y46057314D01*
X3333608Y45943188D01*
X3299500Y45815892D01*
X3299500Y45048334D01*
X3279815Y44981295D01*
X3227011Y44935540D01*
X3157853Y44925596D01*
X3094297Y44954621D01*
X3058459Y45007378D01*
X3032581Y45081330D01*
X3012793Y45137882D01*
X2932150Y45247150D01*
X2822882Y45327793D01*
X2822880Y45327794D01*
X2694700Y45372647D01*
X2664270Y45375500D01*
X2664266Y45375500D01*
X455734Y45375500D01*
X455730Y45375500D01*
X425302Y45372647D01*
X365454Y45351705D01*
X295676Y45348144D01*
X235048Y45382873D01*
X202821Y45444866D01*
X200500Y45468747D01*
X200500Y48795573D01*
X200816Y48804419D01*
X215130Y49004557D01*
X215131Y49004566D01*
X217646Y49022062D01*
X259356Y49213800D01*
X264335Y49230758D01*
X332911Y49414618D01*
X340251Y49430690D01*
X434294Y49602917D01*
X443850Y49617786D01*
X561443Y49774872D01*
X573017Y49788229D01*
X711771Y49926983D01*
X725128Y49938557D01*
X882214Y50056150D01*
X897083Y50065706D01*
X1069310Y50159749D01*
X1085382Y50167089D01*
X1269242Y50235665D01*
X1286200Y50240644D01*
X1477938Y50282354D01*
X1495436Y50284870D01*
X1695582Y50299184D01*
X1704428Y50299500D01*
X1765892Y50299500D01*
X21234108Y50299500D01*
X21295572Y50299500D01*
X21304418Y50299184D01*
G37*
%TD.AperFunction*%
%TA.AperFunction,Conductor*%
G36*
X13508363Y25504815D02*
G01*
X13529005Y25488181D01*
X13888181Y25129006D01*
X13921666Y25067683D01*
X13924500Y25041326D01*
X13924500Y24804520D01*
X13924501Y24804510D01*
X13930588Y24747884D01*
X13978369Y24619780D01*
X13982623Y24611990D01*
X13979997Y24610557D01*
X13999182Y24559151D01*
X13999500Y24550280D01*
X13999500Y24074500D01*
X13979815Y24007461D01*
X13927011Y23961706D01*
X13875500Y23950500D01*
X13725323Y23950500D01*
X13652264Y23935968D01*
X13652260Y23935967D01*
X13568890Y23880261D01*
X13502212Y23859384D01*
X13434832Y23877869D01*
X13431110Y23880261D01*
X13347739Y23935967D01*
X13347735Y23935968D01*
X13274677Y23950500D01*
X13274674Y23950500D01*
X12932519Y23950500D01*
X12865480Y23970185D01*
X12819725Y24022989D01*
X12809781Y24092147D01*
X12838806Y24155703D01*
X12880118Y24186884D01*
X12883489Y24188457D01*
X13027728Y24277425D01*
X13027732Y24277428D01*
X13147572Y24397268D01*
X13147575Y24397272D01*
X13236542Y24541508D01*
X13236547Y24541519D01*
X13289855Y24702394D01*
X13299999Y24801678D01*
X13300000Y24801691D01*
X13300000Y24850000D01*
X12474000Y24850000D01*
X12406961Y24869685D01*
X12361206Y24922489D01*
X12350000Y24974000D01*
X12350000Y25226000D01*
X12369685Y25293039D01*
X12422489Y25338794D01*
X12474000Y25350000D01*
X13299999Y25350000D01*
X13299999Y25400500D01*
X13302549Y25409186D01*
X13301261Y25418147D01*
X13312239Y25442188D01*
X13319684Y25467539D01*
X13326524Y25473467D01*
X13330286Y25481703D01*
X13352520Y25495993D01*
X13372488Y25513294D01*
X13383002Y25515582D01*
X13389064Y25519477D01*
X13423999Y25524500D01*
X13441324Y25524500D01*
X13508363Y25504815D01*
G37*
%TD.AperFunction*%
%TA.AperFunction,Conductor*%
G36*
X6732539Y45879815D02*
G01*
X6778294Y45827011D01*
X6789500Y45775500D01*
X6789500Y45657073D01*
X6769815Y45590034D01*
X6717011Y45544279D01*
X6695755Y45537414D01*
X6692260Y45535967D01*
X6609399Y45480601D01*
X6554033Y45397740D01*
X6554032Y45397736D01*
X6539500Y45324679D01*
X6539500Y42775322D01*
X6554032Y42702265D01*
X6554033Y42702261D01*
X6554034Y42702260D01*
X6609399Y42619399D01*
X6691645Y42564445D01*
X6692260Y42564034D01*
X6692264Y42564033D01*
X6765321Y42549501D01*
X6765324Y42549500D01*
X6765326Y42549500D01*
X7814676Y42549500D01*
X7814677Y42549501D01*
X7887740Y42564034D01*
X7970601Y42619399D01*
X8025966Y42702260D01*
X8040500Y42775326D01*
X8040500Y45324674D01*
X8040500Y45324677D01*
X8040499Y45324679D01*
X8025967Y45397736D01*
X8025966Y45397740D01*
X8007091Y45425989D01*
X7970601Y45480601D01*
X7887740Y45535966D01*
X7887739Y45535967D01*
X7876456Y45540640D01*
X7877157Y45542335D01*
X7862179Y45550170D01*
X7833297Y45563360D01*
X7831439Y45566252D01*
X7828396Y45567843D01*
X7812689Y45595426D01*
X7795523Y45622138D01*
X7794862Y45626735D01*
X7793823Y45628559D01*
X7790500Y45657073D01*
X7790500Y45775500D01*
X7810185Y45842539D01*
X7862989Y45888294D01*
X7914500Y45899500D01*
X9205500Y45899500D01*
X9272539Y45879815D01*
X9318294Y45827011D01*
X9329500Y45775500D01*
X9329500Y45657073D01*
X9309815Y45590034D01*
X9257011Y45544279D01*
X9235755Y45537414D01*
X9232260Y45535967D01*
X9149399Y45480601D01*
X9094033Y45397740D01*
X9094032Y45397736D01*
X9079500Y45324679D01*
X9079500Y42775322D01*
X9094032Y42702265D01*
X9094033Y42702261D01*
X9094034Y42702260D01*
X9149399Y42619399D01*
X9231645Y42564445D01*
X9232260Y42564034D01*
X9232264Y42564033D01*
X9305321Y42549501D01*
X9305324Y42549500D01*
X9305326Y42549500D01*
X10354676Y42549500D01*
X10354677Y42549501D01*
X10427740Y42564034D01*
X10510601Y42619399D01*
X10565966Y42702260D01*
X10575891Y42752156D01*
X11370000Y42752156D01*
X11376401Y42692628D01*
X11376403Y42692621D01*
X11426645Y42557914D01*
X11426649Y42557907D01*
X11512809Y42442813D01*
X11512812Y42442810D01*
X11627906Y42356650D01*
X11627913Y42356646D01*
X11762620Y42306404D01*
X11762627Y42306402D01*
X11822155Y42300001D01*
X11822172Y42300000D01*
X12120000Y42300000D01*
X12120000Y43800000D01*
X11370000Y43800000D01*
X11370000Y42752156D01*
X10575891Y42752156D01*
X10580500Y42775326D01*
X10580500Y45324674D01*
X10580500Y45324677D01*
X10580499Y45324679D01*
X10565967Y45397736D01*
X10565966Y45397740D01*
X10547091Y45425989D01*
X10510601Y45480601D01*
X10510599Y45480603D01*
X10510598Y45480604D01*
X10505862Y45485340D01*
X10493031Y45508838D01*
X10477109Y45530369D01*
X10476539Y45539040D01*
X10472377Y45546663D01*
X10474286Y45573369D01*
X10472533Y45600089D01*
X10476741Y45607690D01*
X10477361Y45616355D01*
X10493407Y45637791D01*
X10506377Y45661214D01*
X10515124Y45666800D01*
X10519233Y45672288D01*
X10534755Y45682200D01*
X10542236Y45686229D01*
X10655226Y45728372D01*
X10744204Y45794980D01*
X10752324Y45799352D01*
X10777834Y45804745D01*
X10802264Y45813857D01*
X10811467Y45811855D01*
X10820683Y45813803D01*
X10845058Y45804549D01*
X10870538Y45799006D01*
X10877801Y45792117D01*
X10886003Y45789003D01*
X10897555Y45773381D01*
X10916650Y45755270D01*
X10952424Y45697272D01*
X10952427Y45697268D01*
X11072267Y45577428D01*
X11072271Y45577425D01*
X11216507Y45488458D01*
X11216515Y45488455D01*
X11285002Y45465761D01*
X11342448Y45425989D01*
X11369272Y45361473D01*
X11370000Y45348054D01*
X11370000Y44300000D01*
X12246000Y44300000D01*
X12313039Y44280315D01*
X12358794Y44227511D01*
X12370000Y44176000D01*
X12370000Y44050000D01*
X12496000Y44050000D01*
X12563039Y44030315D01*
X12608794Y43977511D01*
X12620000Y43926000D01*
X12620000Y42300000D01*
X12624478Y42295522D01*
X12657963Y42234199D01*
X12652979Y42164507D01*
X12624478Y42120160D01*
X3819531Y33315214D01*
X3819529Y33315212D01*
X3783585Y33252952D01*
X3783583Y33252950D01*
X3773387Y33235291D01*
X3749500Y33146144D01*
X3749500Y32925923D01*
X3729815Y32858884D01*
X3687501Y32818536D01*
X3593992Y32764548D01*
X3593989Y32764546D01*
X3491500Y32662057D01*
X3491495Y32662051D01*
X3419024Y32536528D01*
X3419023Y32536524D01*
X3381507Y32396514D01*
X3381507Y32251564D01*
X3409014Y32148908D01*
X3419024Y32111551D01*
X3491495Y31986028D01*
X3491497Y31986026D01*
X3491498Y31986024D01*
X3593992Y31883530D01*
X3593993Y31883529D01*
X3593995Y31883528D01*
X3719518Y31811057D01*
X3719519Y31811057D01*
X3719522Y31811055D01*
X3859532Y31773539D01*
X3859535Y31773539D01*
X4004479Y31773539D01*
X4004482Y31773539D01*
X4144492Y31811055D01*
X4270022Y31883530D01*
X4372516Y31986024D01*
X4444991Y32111554D01*
X4482507Y32251564D01*
X4482507Y32396514D01*
X4454725Y32500198D01*
X4450500Y32532291D01*
X4450500Y32903456D01*
X4470185Y32970495D01*
X4486819Y32991137D01*
X5037819Y33542137D01*
X5099142Y33575622D01*
X5168834Y33570638D01*
X5224767Y33528766D01*
X5249184Y33463302D01*
X5249500Y33454456D01*
X5249500Y31590918D01*
X5229815Y31523879D01*
X5177011Y31478124D01*
X5107853Y31468180D01*
X5063500Y31483531D01*
X5012488Y31512983D01*
X5012489Y31512983D01*
X5001006Y31516060D01*
X4872475Y31550500D01*
X4727525Y31550500D01*
X4598993Y31516060D01*
X4587511Y31512983D01*
X4461988Y31440512D01*
X4461982Y31440507D01*
X4359493Y31338018D01*
X4359488Y31338012D01*
X4287017Y31212489D01*
X4287016Y31212485D01*
X4249500Y31072475D01*
X4249500Y30927525D01*
X4286788Y30788365D01*
X4287017Y30787512D01*
X4359488Y30661989D01*
X4359490Y30661987D01*
X4359491Y30661985D01*
X4461985Y30559491D01*
X4461986Y30559490D01*
X4461988Y30559489D01*
X4587511Y30487018D01*
X4587512Y30487018D01*
X4587515Y30487016D01*
X4727525Y30449500D01*
X4727528Y30449500D01*
X4872472Y30449500D01*
X4872475Y30449500D01*
X5012485Y30487016D01*
X5138015Y30559491D01*
X5191705Y30613181D01*
X5253028Y30646666D01*
X5279386Y30649500D01*
X5646142Y30649500D01*
X5646144Y30649500D01*
X5735288Y30673386D01*
X5815212Y30719531D01*
X5880469Y30784788D01*
X5926614Y30864712D01*
X5950500Y30953856D01*
X5950500Y33837770D01*
X5970185Y33904809D01*
X5986819Y33925451D01*
X8961369Y36900001D01*
X10975225Y36900001D01*
X10975225Y36900000D01*
X10994287Y36682116D01*
X10994289Y36682106D01*
X11050894Y36470850D01*
X11050896Y36470846D01*
X11050897Y36470842D01*
X11143333Y36272612D01*
X11268787Y36093446D01*
X11423444Y35938789D01*
X11423450Y35938784D01*
X11602608Y35813336D01*
X11602610Y35813335D01*
X11602613Y35813333D01*
X11800842Y35720897D01*
X12012111Y35664288D01*
X12186422Y35649038D01*
X12229999Y35645225D01*
X12230000Y35645225D01*
X12230001Y35645225D01*
X12266314Y35648403D01*
X12447889Y35664288D01*
X12659158Y35720897D01*
X12857387Y35813333D01*
X13036554Y35938787D01*
X13191213Y36093446D01*
X13316667Y36272612D01*
X13409103Y36470842D01*
X13465712Y36682111D01*
X13484775Y36900000D01*
X13465712Y37117889D01*
X13409103Y37329158D01*
X13316667Y37527387D01*
X13316665Y37527390D01*
X13316664Y37527392D01*
X13191216Y37706550D01*
X13191211Y37706556D01*
X13036555Y37861212D01*
X13036549Y37861217D01*
X12857391Y37986665D01*
X12857387Y37986667D01*
X12779490Y38022991D01*
X12659158Y38079103D01*
X12659154Y38079104D01*
X12659150Y38079106D01*
X12447894Y38135711D01*
X12447884Y38135713D01*
X12230001Y38154775D01*
X12229999Y38154775D01*
X12012115Y38135713D01*
X12012105Y38135711D01*
X11800849Y38079106D01*
X11800842Y38079104D01*
X11800842Y38079103D01*
X11775812Y38067432D01*
X11602612Y37986667D01*
X11602608Y37986665D01*
X11423450Y37861217D01*
X11423444Y37861212D01*
X11268787Y37706555D01*
X11143333Y37527388D01*
X11050898Y37329160D01*
X11050894Y37329151D01*
X10994289Y37117895D01*
X10994287Y37117885D01*
X10975225Y36900001D01*
X8961369Y36900001D01*
X14074549Y42013181D01*
X14135872Y42046666D01*
X14162230Y42049500D01*
X15546142Y42049500D01*
X15546144Y42049500D01*
X15635288Y42073386D01*
X15715212Y42119530D01*
X15990470Y42394788D01*
X16036614Y42474712D01*
X16060500Y42563856D01*
X16060500Y42656144D01*
X16060500Y45138456D01*
X16080185Y45205495D01*
X16096819Y45226137D01*
X16608863Y45738181D01*
X16670186Y45771666D01*
X16696544Y45774500D01*
X16804741Y45774500D01*
X16871780Y45754815D01*
X16917535Y45702011D01*
X16927479Y45632853D01*
X16898454Y45569297D01*
X16862163Y45543128D01*
X16862415Y45542751D01*
X16852260Y45535967D01*
X16852260Y45535966D01*
X16781158Y45488458D01*
X16769399Y45480601D01*
X16714033Y45397740D01*
X16714032Y45397736D01*
X16699500Y45324679D01*
X16699500Y42775322D01*
X16714032Y42702265D01*
X16714033Y42702261D01*
X16714034Y42702260D01*
X16769399Y42619399D01*
X16851645Y42564445D01*
X16852260Y42564034D01*
X16852264Y42564033D01*
X16925321Y42549501D01*
X16925324Y42549500D01*
X17900500Y42549500D01*
X17967539Y42529815D01*
X18013294Y42477011D01*
X18024500Y42425500D01*
X18024500Y40375172D01*
X18004815Y40308133D01*
X17988181Y40287491D01*
X13299502Y35598813D01*
X13299500Y35598810D01*
X13233608Y35484684D01*
X13199500Y35357388D01*
X13199500Y30113097D01*
X13179815Y30046058D01*
X13127011Y30000303D01*
X13057853Y29990359D01*
X13006611Y30009994D01*
X12967740Y30035966D01*
X12967739Y30035967D01*
X12967735Y30035968D01*
X12894677Y30050500D01*
X12894674Y30050500D01*
X11845326Y30050500D01*
X11845323Y30050500D01*
X11772264Y30035968D01*
X11772260Y30035967D01*
X11689399Y29980601D01*
X11634033Y29897740D01*
X11634032Y29897736D01*
X11619500Y29824679D01*
X11619500Y28346545D01*
X11599815Y28279506D01*
X11583181Y28258864D01*
X10792181Y27467864D01*
X10730858Y27434379D01*
X10661166Y27439363D01*
X10605233Y27481235D01*
X10580816Y27546699D01*
X10580500Y27555545D01*
X10580500Y29824677D01*
X10580499Y29824679D01*
X10565967Y29897736D01*
X10565966Y29897740D01*
X10563051Y29902103D01*
X10510601Y29980601D01*
X10427740Y30035966D01*
X10427739Y30035967D01*
X10427735Y30035968D01*
X10354677Y30050500D01*
X10354674Y30050500D01*
X9305326Y30050500D01*
X9305323Y30050500D01*
X9232264Y30035968D01*
X9232260Y30035967D01*
X9149399Y29980601D01*
X9094033Y29897740D01*
X9094032Y29897736D01*
X9079500Y29824679D01*
X9079500Y27275322D01*
X9094032Y27202265D01*
X9094033Y27202261D01*
X9094034Y27202260D01*
X9149399Y27119399D01*
X9232259Y27064035D01*
X9232260Y27064034D01*
X9232264Y27064033D01*
X9305321Y27049501D01*
X9305324Y27049500D01*
X10074455Y27049500D01*
X10141494Y27029815D01*
X10187249Y26977011D01*
X10197193Y26907853D01*
X10168168Y26844297D01*
X10162136Y26837819D01*
X7766137Y24441819D01*
X7704814Y24408334D01*
X7678456Y24405500D01*
X3080605Y24405500D01*
X3013566Y24425185D01*
X2967811Y24477989D01*
X2966060Y24482010D01*
X2946632Y24528914D01*
X2919500Y24569520D01*
X2837139Y24692783D01*
X2697785Y24832137D01*
X2697781Y24832140D01*
X2533920Y24941629D01*
X2533907Y24941636D01*
X2351839Y25017050D01*
X2351829Y25017053D01*
X2158543Y25055500D01*
X2158541Y25055500D01*
X961459Y25055500D01*
X961457Y25055500D01*
X768170Y25017053D01*
X768160Y25017050D01*
X586092Y24941636D01*
X586079Y24941629D01*
X422218Y24832140D01*
X422214Y24832137D01*
X412181Y24822103D01*
X350858Y24788618D01*
X281166Y24793602D01*
X225233Y24835474D01*
X200816Y24900938D01*
X200500Y24909784D01*
X200500Y25740216D01*
X220185Y25807255D01*
X272989Y25853010D01*
X342147Y25862954D01*
X405703Y25833929D01*
X412181Y25827897D01*
X422214Y25817864D01*
X422218Y25817861D01*
X586079Y25708372D01*
X586092Y25708365D01*
X706522Y25658482D01*
X768165Y25632949D01*
X768169Y25632949D01*
X768170Y25632948D01*
X961456Y25594500D01*
X961459Y25594500D01*
X2158543Y25594500D01*
X2293086Y25621263D01*
X2351835Y25632949D01*
X2533914Y25708368D01*
X2697782Y25817861D01*
X2837139Y25957218D01*
X2946632Y26121086D01*
X3022051Y26303165D01*
X3060500Y26496459D01*
X3060500Y26693541D01*
X3060500Y26693544D01*
X3022052Y26886830D01*
X3022051Y26886831D01*
X3022051Y26886835D01*
X2998866Y26942810D01*
X2946635Y27068908D01*
X2946628Y27068921D01*
X2837139Y27232782D01*
X2837136Y27232786D01*
X2697785Y27372137D01*
X2697781Y27372140D01*
X2533920Y27481629D01*
X2533907Y27481636D01*
X2351839Y27557050D01*
X2351829Y27557053D01*
X2158543Y27595500D01*
X2158541Y27595500D01*
X961459Y27595500D01*
X961457Y27595500D01*
X768170Y27557053D01*
X768160Y27557050D01*
X586092Y27481636D01*
X586079Y27481629D01*
X422218Y27372140D01*
X422214Y27372137D01*
X412181Y27362103D01*
X350858Y27328618D01*
X281166Y27333602D01*
X225233Y27375474D01*
X200816Y27440938D01*
X200500Y27449784D01*
X200500Y28280216D01*
X220185Y28347255D01*
X272989Y28393010D01*
X342147Y28402954D01*
X405703Y28373929D01*
X412181Y28367897D01*
X422214Y28357864D01*
X422218Y28357861D01*
X586079Y28248372D01*
X586092Y28248365D01*
X768160Y28172951D01*
X768165Y28172949D01*
X768169Y28172949D01*
X768170Y28172948D01*
X961456Y28134500D01*
X961459Y28134500D01*
X2158543Y28134500D01*
X2288582Y28160368D01*
X2351835Y28172949D01*
X2533914Y28248368D01*
X2697782Y28357861D01*
X2837139Y28497218D01*
X2946632Y28661086D01*
X3022051Y28843165D01*
X3060500Y29036459D01*
X3060500Y29233541D01*
X3060500Y29233544D01*
X3022052Y29426830D01*
X3022051Y29426831D01*
X3022051Y29426835D01*
X3022049Y29426840D01*
X2946635Y29608908D01*
X2946628Y29608921D01*
X2844427Y29761875D01*
X2844426Y29761876D01*
X2837137Y29772785D01*
X2785243Y29824679D01*
X3999500Y29824679D01*
X3999500Y27275322D01*
X4014032Y27202265D01*
X4014033Y27202261D01*
X4014034Y27202260D01*
X4069399Y27119399D01*
X4152259Y27064035D01*
X4152260Y27064034D01*
X4152264Y27064033D01*
X4225321Y27049501D01*
X4225324Y27049500D01*
X4225326Y27049500D01*
X5274676Y27049500D01*
X5274677Y27049501D01*
X5347740Y27064034D01*
X5430601Y27119399D01*
X5485966Y27202260D01*
X5500500Y27275326D01*
X5500500Y29824674D01*
X5500500Y29824676D01*
X5500500Y29824677D01*
X5500499Y29824679D01*
X6539500Y29824679D01*
X6539500Y27275322D01*
X6554032Y27202265D01*
X6554033Y27202261D01*
X6554034Y27202260D01*
X6609399Y27119399D01*
X6692259Y27064035D01*
X6692260Y27064034D01*
X6692264Y27064033D01*
X6765321Y27049501D01*
X6765324Y27049500D01*
X6765326Y27049500D01*
X7814676Y27049500D01*
X7814677Y27049501D01*
X7887740Y27064034D01*
X7970601Y27119399D01*
X8025966Y27202260D01*
X8040500Y27275326D01*
X8040500Y29824674D01*
X8040500Y29824676D01*
X8040500Y29824677D01*
X8040499Y29824679D01*
X8025967Y29897736D01*
X8025966Y29897740D01*
X8023051Y29902103D01*
X7970601Y29980601D01*
X7887740Y30035966D01*
X7887739Y30035967D01*
X7887735Y30035968D01*
X7814677Y30050500D01*
X7814674Y30050500D01*
X6765326Y30050500D01*
X6765323Y30050500D01*
X6692264Y30035968D01*
X6692260Y30035967D01*
X6609399Y29980601D01*
X6554033Y29897740D01*
X6554032Y29897736D01*
X6539500Y29824679D01*
X5500499Y29824679D01*
X5485967Y29897736D01*
X5485966Y29897740D01*
X5483051Y29902103D01*
X5430601Y29980601D01*
X5347740Y30035966D01*
X5347739Y30035967D01*
X5347735Y30035968D01*
X5274677Y30050500D01*
X5274674Y30050500D01*
X4225326Y30050500D01*
X4225323Y30050500D01*
X4152264Y30035968D01*
X4152260Y30035967D01*
X4069399Y29980601D01*
X4014033Y29897740D01*
X4014032Y29897736D01*
X3999500Y29824679D01*
X2785243Y29824679D01*
X2697785Y29912137D01*
X2697781Y29912140D01*
X2533920Y30021629D01*
X2533907Y30021636D01*
X2351839Y30097050D01*
X2351829Y30097053D01*
X2158543Y30135500D01*
X2158541Y30135500D01*
X961459Y30135500D01*
X961457Y30135500D01*
X768170Y30097053D01*
X768160Y30097050D01*
X586092Y30021636D01*
X586079Y30021629D01*
X422218Y29912140D01*
X422214Y29912137D01*
X412181Y29902103D01*
X350858Y29868618D01*
X281166Y29873602D01*
X225233Y29915474D01*
X200816Y29980938D01*
X200500Y29989784D01*
X200500Y30820216D01*
X220185Y30887255D01*
X272989Y30933010D01*
X342147Y30942954D01*
X405703Y30913929D01*
X412181Y30907897D01*
X422214Y30897864D01*
X422218Y30897861D01*
X586079Y30788372D01*
X586092Y30788365D01*
X752284Y30719527D01*
X768165Y30712949D01*
X768169Y30712949D01*
X768170Y30712948D01*
X961456Y30674500D01*
X961459Y30674500D01*
X2158543Y30674500D01*
X2288582Y30700368D01*
X2351835Y30712949D01*
X2525288Y30784795D01*
X2533907Y30788365D01*
X2533907Y30788366D01*
X2533914Y30788368D01*
X2697782Y30897861D01*
X2837139Y31037218D01*
X2946632Y31201086D01*
X3022051Y31383165D01*
X3050041Y31523879D01*
X3060500Y31576457D01*
X3060500Y31773544D01*
X3022052Y31966830D01*
X3022051Y31966831D01*
X3022051Y31966835D01*
X3014101Y31986028D01*
X2946635Y32148908D01*
X2946628Y32148921D01*
X2837139Y32312782D01*
X2837136Y32312786D01*
X2697785Y32452137D01*
X2697781Y32452140D01*
X2533920Y32561629D01*
X2533907Y32561636D01*
X2351839Y32637050D01*
X2351829Y32637053D01*
X2158543Y32675500D01*
X2158541Y32675500D01*
X961459Y32675500D01*
X961457Y32675500D01*
X768170Y32637053D01*
X768160Y32637050D01*
X586092Y32561636D01*
X586079Y32561629D01*
X422218Y32452140D01*
X422214Y32452137D01*
X412181Y32442103D01*
X350858Y32408618D01*
X281166Y32413602D01*
X225233Y32455474D01*
X200816Y32520938D01*
X200500Y32529784D01*
X200500Y33360216D01*
X220185Y33427255D01*
X272989Y33473010D01*
X342147Y33482954D01*
X405703Y33453929D01*
X412181Y33447897D01*
X422214Y33437864D01*
X422218Y33437861D01*
X586079Y33328372D01*
X586092Y33328365D01*
X768158Y33252952D01*
X768165Y33252949D01*
X768169Y33252949D01*
X768170Y33252948D01*
X961456Y33214500D01*
X961459Y33214500D01*
X2158543Y33214500D01*
X2288582Y33240368D01*
X2351835Y33252949D01*
X2533914Y33328368D01*
X2697782Y33437861D01*
X2837139Y33577218D01*
X2946632Y33741086D01*
X3022051Y33923165D01*
X3060500Y34116459D01*
X3060500Y34313541D01*
X3060500Y34313544D01*
X3022052Y34506830D01*
X3022051Y34506831D01*
X3022051Y34506835D01*
X2989456Y34585526D01*
X2981988Y34654991D01*
X3013263Y34717470D01*
X3016309Y34720628D01*
X3880470Y35584788D01*
X3926614Y35664712D01*
X3950500Y35753856D01*
X3950500Y35846144D01*
X3950500Y41003456D01*
X3970185Y41070495D01*
X3986819Y41091137D01*
X4406907Y41511225D01*
X5030470Y42134788D01*
X5076614Y42214712D01*
X5100500Y42303857D01*
X5100500Y42396144D01*
X5100500Y42425500D01*
X5120185Y42492539D01*
X5172989Y42538294D01*
X5224500Y42549500D01*
X5274676Y42549500D01*
X5274677Y42549501D01*
X5347740Y42564034D01*
X5430601Y42619399D01*
X5485966Y42702260D01*
X5500500Y42775326D01*
X5500500Y45324674D01*
X5500500Y45324677D01*
X5500499Y45324679D01*
X5485967Y45397736D01*
X5485966Y45397740D01*
X5467091Y45425989D01*
X5430601Y45480601D01*
X5347740Y45535966D01*
X5347739Y45535967D01*
X5347735Y45535968D01*
X5274677Y45550500D01*
X5274674Y45550500D01*
X4607676Y45550500D01*
X4586430Y45556739D01*
X4564342Y45558318D01*
X4553558Y45566391D01*
X4540637Y45570185D01*
X4526137Y45586919D01*
X4508409Y45600190D01*
X4503701Y45612811D01*
X4494882Y45622989D01*
X4491730Y45644907D01*
X4483992Y45665654D01*
X4486854Y45678815D01*
X4484938Y45692147D01*
X4494137Y45712291D01*
X4498844Y45733927D01*
X4512112Y45751653D01*
X4513963Y45755703D01*
X4519995Y45762181D01*
X4620995Y45863181D01*
X4682318Y45896666D01*
X4708676Y45899500D01*
X6665500Y45899500D01*
X6732539Y45879815D01*
G37*
%TD.AperFunction*%
%TA.AperFunction,Conductor*%
G36*
X14390269Y48745930D02*
G01*
X14402900Y48746997D01*
X14423159Y48736272D01*
X14445149Y48729815D01*
X14453447Y48720238D01*
X14464651Y48714307D01*
X14475896Y48694332D01*
X14490904Y48677011D01*
X14492707Y48664467D01*
X14498925Y48653422D01*
X14497585Y48630542D01*
X14500848Y48607853D01*
X14495493Y48594801D01*
X14494842Y48583672D01*
X14478329Y48552479D01*
X14478079Y48552137D01*
X14412207Y48462882D01*
X14411430Y48460663D01*
X14404739Y48451479D01*
X14349352Y48408888D01*
X14304520Y48400500D01*
X13468856Y48400500D01*
X13379712Y48376614D01*
X13379709Y48376613D01*
X13299791Y48330473D01*
X13299786Y48330469D01*
X13119532Y48150215D01*
X13119530Y48150213D01*
X13119530Y48150212D01*
X13090125Y48099281D01*
X13090124Y48099281D01*
X13073387Y48070291D01*
X13073386Y48070288D01*
X13049500Y47981144D01*
X13049500Y45923768D01*
X13046918Y45914976D01*
X13048206Y45905904D01*
X13037230Y45881982D01*
X13029815Y45856729D01*
X13022891Y45850730D01*
X13019069Y45842399D01*
X12996897Y45828206D01*
X12977011Y45810974D01*
X12966383Y45808672D01*
X12960224Y45804729D01*
X12934353Y45801734D01*
X12925280Y45799768D01*
X12794290Y45800000D01*
X12760547Y45809973D01*
X12727471Y45819685D01*
X12727397Y45819771D01*
X12727286Y45819803D01*
X12704272Y45846458D01*
X12681716Y45872489D01*
X12681699Y45872602D01*
X12681625Y45872688D01*
X12676746Y45907052D01*
X12671772Y45941647D01*
X12671811Y45941814D01*
X12671804Y45941864D01*
X12671843Y45941950D01*
X12676804Y45963003D01*
X12689855Y46002392D01*
X12699999Y46101678D01*
X12700000Y46101691D01*
X12700000Y46150000D01*
X11874000Y46150000D01*
X11806961Y46169685D01*
X11761206Y46222489D01*
X11750000Y46274000D01*
X11750000Y46526000D01*
X11769685Y46593039D01*
X11822489Y46638794D01*
X11874000Y46650000D01*
X12699999Y46650000D01*
X12699999Y46698308D01*
X12699998Y46698323D01*
X12689855Y46797608D01*
X12636547Y46958482D01*
X12636542Y46958493D01*
X12547575Y47102729D01*
X12547572Y47102733D01*
X12427732Y47222573D01*
X12427728Y47222576D01*
X12283492Y47311543D01*
X12283483Y47311547D01*
X12125705Y47363830D01*
X12068261Y47403603D01*
X12041438Y47468119D01*
X12053753Y47536895D01*
X12077025Y47569212D01*
X13220995Y48713181D01*
X13282318Y48746666D01*
X13308676Y48749500D01*
X14378110Y48749500D01*
X14390269Y48745930D01*
G37*
%TD.AperFunction*%
%TD*%
M02*
