%TF.GenerationSoftware,KiCad,Pcbnew,10.0.4*%
%TF.CreationDate,2026-09-06T22:16:51-07:00*%
%TF.ProjectId,iris,69726973-2e6b-4696-9361-645f70636258,rev?*%
%TF.SameCoordinates,Original*%
%TF.FileFunction,Copper,L3,Inr*%
%TF.FilePolarity,Positive*%
%FSLAX46Y46*%
G04 Gerber Fmt 4.6, Leading zero omitted, Abs format (unit mm)*
G04 Created by KiCad (PCBNEW 10.0.4) date 2026-09-06 22:16:51*
%MOMM*%
%LPD*%
G01*
G04 APERTURE LIST*
G04 Aperture macros list*
%AMRoundRect*
0 Rectangle with rounded corners*
0 $1 Rounding radius*
0 $2 $3 $4 $5 $6 $7 $8 $9 X,Y pos of 4 corners*
0 Add a 4 corners polygon primitive as box body*
4,1,4,$2,$3,$4,$5,$6,$7,$8,$9,$2,$3,0*
0 Add four circle primitives for the rounded corners*
1,1,$1+$1,$2,$3*
1,1,$1+$1,$4,$5*
1,1,$1+$1,$6,$7*
1,1,$1+$1,$8,$9*
0 Add four rect primitives between the rounded corners*
20,1,$1+$1,$2,$3,$4,$5,0*
20,1,$1+$1,$4,$5,$6,$7,0*
20,1,$1+$1,$6,$7,$8,$9,0*
20,1,$1+$1,$8,$9,$2,$3,0*%
G04 Aperture macros list end*
%TA.AperFunction,ComponentPad*%
%ADD10RoundRect,0.200000X0.450000X-0.200000X0.450000X0.200000X-0.450000X0.200000X-0.450000X-0.200000X0*%
%TD*%
%TA.AperFunction,ComponentPad*%
%ADD11O,1.300000X0.800000*%
%TD*%
%TA.AperFunction,ComponentPad*%
%ADD12RoundRect,0.200000X-0.200000X-0.450000X0.200000X-0.450000X0.200000X0.450000X-0.200000X0.450000X0*%
%TD*%
%TA.AperFunction,ComponentPad*%
%ADD13O,0.800000X1.300000*%
%TD*%
%TA.AperFunction,ComponentPad*%
%ADD14C,3.800000*%
%TD*%
%TA.AperFunction,ComponentPad*%
%ADD15RoundRect,0.200000X-0.450000X0.200000X-0.450000X-0.200000X0.450000X-0.200000X0.450000X0.200000X0*%
%TD*%
%TA.AperFunction,ComponentPad*%
%ADD16O,1.600000X0.900000*%
%TD*%
%TA.AperFunction,ViaPad*%
%ADD17C,0.600000*%
%TD*%
G04 APERTURE END LIST*
D10*
%TO.N,Net-(J6-Pin_1)*%
%TO.C,J6*%
X14750000Y7875000D03*
D11*
%TO.N,/IO/CAN_L*%
X14750000Y9125000D03*
%TO.N,/IO/CAN_H*%
X14750000Y10375000D03*
%TO.N,GND*%
X14750000Y11625000D03*
%TD*%
D12*
%TO.N,/IO/OUT1PWR*%
%TO.C,J5*%
X6975000Y4700000D03*
D13*
%TO.N,/IO/TXD1_MCU*%
X8225000Y4700000D03*
%TO.N,/IO/RXD1_MCU*%
X9475000Y4700000D03*
%TO.N,GND*%
X10725000Y4700000D03*
%TD*%
D14*
%TO.N,GND*%
%TO.C,H6*%
X2750000Y37500000D03*
%TD*%
%TO.N,GND*%
%TO.C,H5*%
X17500000Y3000000D03*
%TD*%
D15*
%TO.N,/IO/OUT3PWR*%
%TO.C,J8*%
X4600000Y25575000D03*
D11*
%TO.N,Net-(J8-Pin_2)*%
X4600000Y24325000D03*
%TO.N,Net-(J8-Pin_3)*%
X4600000Y23075000D03*
%TO.N,GND*%
X4600000Y21825000D03*
%TD*%
D15*
%TO.N,/IO/BATT_RAW*%
%TO.C,J2*%
X4700000Y9625000D03*
D11*
%TO.N,GND*%
X4700000Y8375000D03*
%TD*%
D14*
%TO.N,GND*%
%TO.C,H7*%
X17000000Y37500000D03*
%TD*%
D15*
%TO.N,/IO/OUT2PWR*%
%TO.C,J7*%
X4700000Y17575000D03*
D11*
%TO.N,/IO/TXD0_MCU*%
X4700000Y16325000D03*
%TO.N,/IO/RXD0_MCU*%
X4700000Y15075000D03*
%TO.N,GND*%
X4700000Y13825000D03*
%TD*%
D14*
%TO.N,GND*%
%TO.C,H4*%
X2750000Y2750000D03*
%TD*%
D16*
%TO.N,Net-(J3-Shield)*%
%TO.C,J3*%
X18500000Y28300000D03*
X18500000Y21700000D03*
%TD*%
D17*
%TO.N,/MCU/LS_EN*%
X13250000Y36400000D03*
%TO.N,GND*%
X8200000Y33500000D03*
X6449968Y17398508D03*
X17000000Y10400000D03*
X6150000Y14900000D03*
X11200000Y33500000D03*
X16015000Y20195464D03*
X19000000Y18700000D03*
X11450000Y37300000D03*
X7848186Y13913520D03*
X8100000Y36680000D03*
X5985000Y26400000D03*
X9940410Y23287468D03*
X8207107Y30392893D03*
X9380025Y26669975D03*
X7200000Y17500000D03*
X15050000Y31991278D03*
X3100000Y30400000D03*
X6100000Y36300000D03*
X10652447Y18237469D03*
X6700000Y10225000D03*
X6200000Y8000000D03*
X12454451Y28824056D03*
X5803574Y30222815D03*
X9911091Y24831191D03*
X11600000Y27120000D03*
X11200000Y30500000D03*
X17716868Y32249356D03*
X14809620Y23909620D03*
X13053650Y10002096D03*
X6600000Y20300000D03*
%TO.N,+3V3*%
X16915730Y19688116D03*
X11815776Y28420000D03*
X4490380Y27790380D03*
X12800000Y30237500D03*
X12124914Y8700000D03*
X15000000Y33050000D03*
X7506117Y35925356D03*
X18190118Y10405799D03*
X12784163Y20133719D03*
X6120705Y31611384D03*
X12608018Y37305000D03*
%TO.N,+BATT*%
X4090108Y11826267D03*
X7881158Y11092496D03*
%TO.N,/Load Switches/VIN1*%
X7157694Y6313812D03*
X10857069Y22367220D03*
X11936987Y5545844D03*
X14900000Y2200000D03*
%TO.N,/Load Switches/VIN2*%
X1350000Y30850000D03*
X3700000Y23758997D03*
X6010579Y22372253D03*
%TO.N,+5V*%
X6051612Y18830291D03*
X8750000Y18800000D03*
X3899999Y12551775D03*
X9500000Y9500000D03*
%TO.N,/Load Switches/VIN3*%
X1000000Y18350000D03*
X9996060Y21288604D03*
X3600000Y13533199D03*
%TO.N,/IO/TXD1_MCU*%
X5471814Y32788987D03*
%TO.N,/IO/RXD1_MCU*%
X3800000Y34900000D03*
%TO.N,/MCU/RST*%
X13400000Y38600000D03*
X7600000Y28610000D03*
%TO.N,Net-(R46-Pad1)*%
X14000000Y25150000D03*
%TO.N,/IO/BUTTON*%
X12844986Y27393588D03*
X17100000Y24200000D03*
X8912318Y28710698D03*
%TO.N,Net-(J8-Pin_2)*%
X5200000Y26800000D03*
X3800000Y26350000D03*
%TO.N,Net-(D1-RK)*%
X5300000Y37600000D03*
%TO.N,Net-(D1-GK)*%
X6300000Y39000000D03*
%TO.N,Net-(D1-BK)*%
X8200000Y39000000D03*
%TO.N,/IO/TXD0_MCU*%
X5248699Y29530686D03*
%TO.N,/IO/RXD0_MCU*%
X5047198Y30292633D03*
%TO.N,Net-(D3-K)*%
X12200000Y17500000D03*
%TO.N,Net-(D2-K)*%
X13600000Y17400000D03*
%TO.N,/Load Switches/CS1*%
X11491215Y23833764D03*
X13400000Y2400000D03*
%TO.N,Net-(Q5-D)*%
X9500000Y2900000D03*
X11200000Y3700000D03*
%TO.N,Net-(U5-STB)*%
X16200000Y6700000D03*
X17606708Y5347579D03*
%TO.N,/Load Switches/EN1*%
X8400000Y1050000D03*
X13500000Y12500000D03*
%TO.N,VBUS*%
X17750000Y31400000D03*
X3516890Y14484171D03*
X2150000Y7200000D03*
X15413601Y26939996D03*
%TO.N,/MCU/VSENSE*%
X10453851Y28587500D03*
X2150000Y28200000D03*
X3241722Y9941973D03*
%TO.N,/Load Switches/SDA*%
X6110000Y27733141D03*
X18115730Y19874823D03*
X11000025Y25085761D03*
%TO.N,/Load Switches/EN2*%
X3727645Y27550000D03*
X14800000Y15200000D03*
%TO.N,/MCU/CANRX*%
X15923513Y12930000D03*
X7533845Y29397202D03*
X13750000Y27600000D03*
X13617000Y19963760D03*
%TO.N,/MCU/LS_EN*%
X6200000Y34300000D03*
X19000000Y14900000D03*
%TO.N,/Load Switches/EN3*%
X14000000Y14900000D03*
X9850000Y17258578D03*
X4850000Y18920891D03*
%TO.N,/MCU/5V_EN*%
X13179948Y14676349D03*
X7547223Y10293687D03*
%TO.N,/MCU/LED_B*%
X15219827Y20499412D03*
X14500000Y38700000D03*
%TO.N,/Load Switches/SCL*%
X6181800Y28625309D03*
X17070974Y20809786D03*
X10758148Y25822615D03*
%TO.N,Net-(U6-PS{slash}SYNC)*%
X9200000Y11152817D03*
X6629999Y12816998D03*
%TO.N,/MCU/CANTX*%
X12900102Y21905687D03*
X18500000Y12400000D03*
X12787048Y25518285D03*
X9626904Y28390870D03*
%TO.N,/MCU/RXD0_MCU*%
X12909445Y32871315D03*
X1900000Y33900000D03*
%TO.N,/MCU/TXD0_MCU*%
X1600000Y32100000D03*
X12902284Y32101585D03*
%TO.N,/Load Switches/CS3*%
X1159314Y16090686D03*
X6582793Y21747321D03*
%TO.N,/Load Switches/CS2*%
X1181931Y20401170D03*
X5985000Y23600000D03*
%TD*%
%TA.AperFunction,Conductor*%
%TO.N,GND*%
G36*
X17504043Y39749235D02*
G01*
X17752895Y39732925D01*
X17768953Y39730810D01*
X17976105Y39689605D01*
X18009535Y39682955D01*
X18025202Y39678757D01*
X18194947Y39621137D01*
X18257481Y39599909D01*
X18272458Y39593706D01*
X18461461Y39500500D01*
X18492460Y39485213D01*
X18506506Y39477103D01*
X18710460Y39340826D01*
X18723329Y39330952D01*
X18907749Y39169219D01*
X18919218Y39157750D01*
X19080951Y38973330D01*
X19090825Y38960461D01*
X19227102Y38756507D01*
X19235212Y38742461D01*
X19343702Y38522466D01*
X19349909Y38507480D01*
X19428756Y38275203D01*
X19432954Y38259536D01*
X19480807Y38018965D01*
X19482925Y38002884D01*
X19499235Y37754044D01*
X19499500Y37745934D01*
X19499500Y28869808D01*
X19479815Y28802769D01*
X19427011Y28757014D01*
X19357853Y28747070D01*
X19294297Y28776095D01*
X19287819Y28782127D01*
X19264672Y28805274D01*
X19264668Y28805277D01*
X19158133Y28876462D01*
X19158124Y28876467D01*
X19039744Y28925501D01*
X19039738Y28925503D01*
X18914071Y28950500D01*
X18914069Y28950500D01*
X18085931Y28950500D01*
X18085929Y28950500D01*
X17960261Y28925503D01*
X17960255Y28925501D01*
X17841875Y28876467D01*
X17841866Y28876462D01*
X17735331Y28805277D01*
X17735327Y28805274D01*
X17644726Y28714673D01*
X17644723Y28714669D01*
X17573538Y28608134D01*
X17573533Y28608125D01*
X17524499Y28489745D01*
X17524497Y28489739D01*
X17499500Y28364072D01*
X17499500Y28364069D01*
X17499500Y28235931D01*
X17499500Y28235929D01*
X17499499Y28235929D01*
X17524497Y28110262D01*
X17524499Y28110256D01*
X17573533Y27991876D01*
X17573538Y27991867D01*
X17644723Y27885332D01*
X17644726Y27885328D01*
X17735327Y27794727D01*
X17735331Y27794724D01*
X17841866Y27723539D01*
X17841872Y27723536D01*
X17841873Y27723535D01*
X17960256Y27674499D01*
X17960260Y27674499D01*
X17960261Y27674498D01*
X18085928Y27649500D01*
X18085931Y27649500D01*
X18914071Y27649500D01*
X19003307Y27667251D01*
X19039744Y27674499D01*
X19158127Y27723535D01*
X19264669Y27794724D01*
X19274447Y27804502D01*
X19287819Y27817873D01*
X19349142Y27851358D01*
X19418834Y27846374D01*
X19474767Y27804502D01*
X19499184Y27739038D01*
X19499500Y27730192D01*
X19499500Y22269808D01*
X19479815Y22202769D01*
X19427011Y22157014D01*
X19357853Y22147070D01*
X19294297Y22176095D01*
X19287819Y22182127D01*
X19264672Y22205274D01*
X19264668Y22205277D01*
X19158133Y22276462D01*
X19158124Y22276467D01*
X19039744Y22325501D01*
X19039738Y22325503D01*
X18914071Y22350500D01*
X18914069Y22350500D01*
X18085931Y22350500D01*
X18085929Y22350500D01*
X17960261Y22325503D01*
X17960255Y22325501D01*
X17841875Y22276467D01*
X17841866Y22276462D01*
X17735331Y22205277D01*
X17735327Y22205274D01*
X17644726Y22114673D01*
X17644723Y22114669D01*
X17573538Y22008134D01*
X17573533Y22008125D01*
X17524499Y21889745D01*
X17524497Y21889739D01*
X17499500Y21764072D01*
X17499500Y21764069D01*
X17499500Y21635931D01*
X17499500Y21635929D01*
X17499499Y21635929D01*
X17524497Y21510262D01*
X17524499Y21510256D01*
X17573533Y21391876D01*
X17573538Y21391867D01*
X17628858Y21309074D01*
X17628864Y21309067D01*
X17644724Y21285331D01*
X17674481Y21255574D01*
X17674487Y21255567D01*
X17735327Y21194727D01*
X17735331Y21194724D01*
X17841866Y21123539D01*
X17841872Y21123536D01*
X17841873Y21123535D01*
X17960256Y21074499D01*
X17960260Y21074499D01*
X17960261Y21074498D01*
X18085928Y21049500D01*
X18085931Y21049500D01*
X18914071Y21049500D01*
X18998615Y21066318D01*
X19039744Y21074499D01*
X19158127Y21123535D01*
X19264669Y21194724D01*
X19274447Y21204502D01*
X19287819Y21217873D01*
X19349142Y21251358D01*
X19418834Y21246374D01*
X19474767Y21204502D01*
X19499184Y21139038D01*
X19499500Y21130192D01*
X19499500Y15404316D01*
X19479815Y15337277D01*
X19427011Y15291522D01*
X19357853Y15281578D01*
X19313500Y15296929D01*
X19193189Y15366391D01*
X19193186Y15366392D01*
X19065892Y15400500D01*
X18934108Y15400500D01*
X18806812Y15366392D01*
X18692686Y15300500D01*
X18692683Y15300498D01*
X18599502Y15207317D01*
X18599500Y15207314D01*
X18533608Y15093188D01*
X18499500Y14965892D01*
X18499500Y14834109D01*
X18533608Y14706813D01*
X18548396Y14681200D01*
X18599500Y14592686D01*
X18692686Y14499500D01*
X18767490Y14456312D01*
X18806810Y14433610D01*
X18806814Y14433608D01*
X18934108Y14399500D01*
X18934110Y14399500D01*
X19065890Y14399500D01*
X19065892Y14399500D01*
X19193186Y14433608D01*
X19307314Y14499500D01*
X19307316Y14499503D01*
X19313499Y14503072D01*
X19381399Y14519545D01*
X19447426Y14496693D01*
X19490617Y14441772D01*
X19499500Y14395685D01*
X19499500Y2754067D01*
X19499235Y2745957D01*
X19482925Y2497117D01*
X19480807Y2481036D01*
X19432954Y2240465D01*
X19428756Y2224798D01*
X19349909Y1992521D01*
X19343702Y1977535D01*
X19235212Y1757540D01*
X19227102Y1743494D01*
X19090825Y1539540D01*
X19080951Y1526671D01*
X18919218Y1342251D01*
X18907749Y1330782D01*
X18723329Y1169049D01*
X18710460Y1159175D01*
X18506506Y1022898D01*
X18492460Y1014788D01*
X18272465Y906298D01*
X18257479Y900091D01*
X18025202Y821244D01*
X18009535Y817046D01*
X17768964Y769193D01*
X17752883Y767075D01*
X17504043Y750765D01*
X17495933Y750500D01*
X8999505Y750500D01*
X8932466Y770185D01*
X8886711Y822989D01*
X8876767Y892147D01*
X8879730Y906593D01*
X8900500Y984108D01*
X8900500Y1115892D01*
X8866392Y1243186D01*
X8800500Y1357314D01*
X8707314Y1450500D01*
X8650250Y1483446D01*
X8593187Y1516392D01*
X8529539Y1533446D01*
X8465892Y1550500D01*
X8334108Y1550500D01*
X8206812Y1516392D01*
X8092686Y1450500D01*
X8092683Y1450498D01*
X7999502Y1357317D01*
X7999500Y1357314D01*
X7933608Y1243188D01*
X7899500Y1115892D01*
X7899500Y984109D01*
X7920270Y906593D01*
X7918607Y836743D01*
X7879444Y778881D01*
X7815216Y751377D01*
X7800495Y750500D01*
X2504067Y750500D01*
X2495957Y750765D01*
X2247116Y767075D01*
X2231035Y769193D01*
X1990464Y817046D01*
X1974797Y821244D01*
X1742520Y900091D01*
X1727534Y906298D01*
X1507539Y1014788D01*
X1493493Y1022898D01*
X1289539Y1159175D01*
X1276670Y1169049D01*
X1092250Y1330782D01*
X1080781Y1342251D01*
X985849Y1450500D01*
X919045Y1526675D01*
X909174Y1539540D01*
X772897Y1743494D01*
X764787Y1757540D01*
X694780Y1899500D01*
X656294Y1977542D01*
X650090Y1992521D01*
X571243Y2224798D01*
X567045Y2240465D01*
X548418Y2334109D01*
X519190Y2481047D01*
X517075Y2497105D01*
X500765Y2745957D01*
X500500Y2754067D01*
X500500Y2965892D01*
X8999500Y2965892D01*
X8999500Y2834109D01*
X9033608Y2706813D01*
X9037253Y2700500D01*
X9099500Y2592686D01*
X9192686Y2499500D01*
X9306814Y2433608D01*
X9434108Y2399500D01*
X9434110Y2399500D01*
X9565890Y2399500D01*
X9565892Y2399500D01*
X9693186Y2433608D01*
X9749103Y2465892D01*
X12899500Y2465892D01*
X12899500Y2334108D01*
X12914005Y2279974D01*
X12933608Y2206813D01*
X12966554Y2149750D01*
X12999500Y2092686D01*
X13092686Y1999500D01*
X13206814Y1933608D01*
X13334108Y1899500D01*
X13334110Y1899500D01*
X13465890Y1899500D01*
X13465892Y1899500D01*
X13593186Y1933608D01*
X13707314Y1999500D01*
X13800500Y2092686D01*
X13866392Y2206814D01*
X13882222Y2265892D01*
X14399500Y2265892D01*
X14399500Y2134108D01*
X14416554Y2070461D01*
X14433608Y2006813D01*
X14441860Y1992521D01*
X14499500Y1892686D01*
X14592686Y1799500D01*
X14706814Y1733608D01*
X14834108Y1699500D01*
X14834110Y1699500D01*
X14965890Y1699500D01*
X14965892Y1699500D01*
X15093186Y1733608D01*
X15207314Y1799500D01*
X15300500Y1892686D01*
X15366392Y2006814D01*
X15400500Y2134108D01*
X15400500Y2265892D01*
X15366392Y2393186D01*
X15300500Y2507314D01*
X15207314Y2600500D01*
X15150250Y2633446D01*
X15093187Y2666392D01*
X15029539Y2683446D01*
X14965892Y2700500D01*
X14834108Y2700500D01*
X14706812Y2666392D01*
X14592686Y2600500D01*
X14592683Y2600498D01*
X14499502Y2507317D01*
X14499500Y2507314D01*
X14433608Y2393188D01*
X14417778Y2334108D01*
X14399500Y2265892D01*
X13882222Y2265892D01*
X13900500Y2334108D01*
X13900500Y2465892D01*
X13866392Y2593186D01*
X13800500Y2707314D01*
X13707314Y2800500D01*
X13649100Y2834110D01*
X13593187Y2866392D01*
X13529539Y2883446D01*
X13465892Y2900500D01*
X13334108Y2900500D01*
X13206812Y2866392D01*
X13092686Y2800500D01*
X13092683Y2800498D01*
X12999502Y2707317D01*
X12999500Y2707314D01*
X12933608Y2593188D01*
X12933473Y2592684D01*
X12899500Y2465892D01*
X9749103Y2465892D01*
X9807314Y2499500D01*
X9900500Y2592686D01*
X9966392Y2706814D01*
X10000500Y2834108D01*
X10000500Y2965892D01*
X9966392Y3093186D01*
X9900500Y3207314D01*
X9807314Y3300500D01*
X9750250Y3333446D01*
X9693187Y3366392D01*
X9629539Y3383446D01*
X9565892Y3400500D01*
X9434108Y3400500D01*
X9306812Y3366392D01*
X9192686Y3300500D01*
X9192683Y3300498D01*
X9099502Y3207317D01*
X9099500Y3207314D01*
X9033608Y3093188D01*
X8999500Y2965892D01*
X500500Y2965892D01*
X500500Y5181525D01*
X6374500Y5181525D01*
X6374500Y4218483D01*
X6384938Y4152577D01*
X6389354Y4124696D01*
X6446950Y4011658D01*
X6446952Y4011656D01*
X6446954Y4011653D01*
X6536652Y3921955D01*
X6536654Y3921954D01*
X6536658Y3921950D01*
X6638772Y3869920D01*
X6649698Y3864353D01*
X6743475Y3849501D01*
X6743481Y3849500D01*
X7206518Y3849501D01*
X7300304Y3864354D01*
X7413342Y3921950D01*
X7503050Y4011658D01*
X7531490Y4067476D01*
X7579463Y4118270D01*
X7647284Y4135066D01*
X7713419Y4112529D01*
X7740348Y4086669D01*
X7744479Y4081286D01*
X7744480Y4081284D01*
X7856284Y3969480D01*
X7856286Y3969479D01*
X7856290Y3969476D01*
X7938609Y3921950D01*
X7993216Y3890423D01*
X8145943Y3849500D01*
X8145945Y3849500D01*
X8304055Y3849500D01*
X8304057Y3849500D01*
X8456784Y3890423D01*
X8593716Y3969480D01*
X8705520Y4081284D01*
X8742613Y4145533D01*
X8793179Y4193747D01*
X8861786Y4206971D01*
X8926651Y4181003D01*
X8957385Y4145534D01*
X8994480Y4081284D01*
X9106284Y3969480D01*
X9106286Y3969479D01*
X9106290Y3969476D01*
X9188609Y3921950D01*
X9243216Y3890423D01*
X9395943Y3849500D01*
X9395945Y3849500D01*
X9554055Y3849500D01*
X9554057Y3849500D01*
X9706784Y3890423D01*
X9829684Y3961380D01*
X9897584Y3977852D01*
X9963611Y3954999D01*
X9994786Y3922883D01*
X10025923Y3876284D01*
X10025926Y3876280D01*
X10151279Y3750927D01*
X10151283Y3750924D01*
X10298683Y3652434D01*
X10298693Y3652429D01*
X10462476Y3584588D01*
X10462483Y3584585D01*
X10475000Y3582096D01*
X10519373Y3618513D01*
X10547489Y3642875D01*
X10616647Y3652819D01*
X10680203Y3623794D01*
X10717977Y3565016D01*
X10718763Y3562215D01*
X10728603Y3525493D01*
X10733608Y3506813D01*
X10766554Y3449750D01*
X10799500Y3392686D01*
X10892686Y3299500D01*
X11006814Y3233608D01*
X11134108Y3199500D01*
X11134110Y3199500D01*
X11265890Y3199500D01*
X11265892Y3199500D01*
X11393186Y3233608D01*
X11507314Y3299500D01*
X11600500Y3392686D01*
X11666392Y3506814D01*
X11700500Y3634108D01*
X11700500Y3765892D01*
X11666392Y3893186D01*
X11600500Y4007314D01*
X11599185Y4008629D01*
X11598431Y4010009D01*
X11595553Y4013760D01*
X11596138Y4014209D01*
X11565700Y4069952D01*
X11570684Y4139644D01*
X11572305Y4143764D01*
X11590414Y4187484D01*
X11590415Y4187488D01*
X11624999Y4361354D01*
X11625000Y4361357D01*
X11625000Y4450000D01*
X10975000Y4450000D01*
X10975000Y4219616D01*
X10955315Y4152577D01*
X10913002Y4112230D01*
X10892686Y4100501D01*
X10799500Y4007314D01*
X10733608Y3893188D01*
X10725882Y3864353D01*
X10721903Y3849500D01*
X10718775Y3837827D01*
X10682410Y3778166D01*
X10619563Y3747637D01*
X10550187Y3755932D01*
X10496310Y3800417D01*
X10475035Y3866969D01*
X10475000Y3869920D01*
X10475000Y4650272D01*
X10513060Y4558386D01*
X10583386Y4488060D01*
X10675272Y4450000D01*
X10774728Y4450000D01*
X10866614Y4488060D01*
X10936940Y4558386D01*
X10975000Y4650272D01*
X10975000Y4749728D01*
X10936940Y4841614D01*
X10866614Y4911940D01*
X10774728Y4950000D01*
X10675272Y4950000D01*
X10583386Y4911940D01*
X10513060Y4841614D01*
X10475000Y4749728D01*
X10475000Y5817905D01*
X10474999Y5817906D01*
X10975000Y5817906D01*
X10975000Y4950000D01*
X11625000Y4950000D01*
X11625130Y4950131D01*
X11644685Y5016725D01*
X11697489Y5062480D01*
X11766647Y5072424D01*
X11781069Y5069467D01*
X11871095Y5045344D01*
X11871098Y5045344D01*
X12002877Y5045344D01*
X12002879Y5045344D01*
X12130173Y5079452D01*
X12244301Y5145344D01*
X12337487Y5238530D01*
X12403379Y5352658D01*
X12419674Y5413471D01*
X17106208Y5413471D01*
X17106208Y5281687D01*
X17107919Y5275302D01*
X17140316Y5154392D01*
X17145540Y5145344D01*
X17206208Y5040265D01*
X17299394Y4947079D01*
X17413522Y4881187D01*
X17540816Y4847079D01*
X17540818Y4847079D01*
X17672598Y4847079D01*
X17672600Y4847079D01*
X17799894Y4881187D01*
X17914022Y4947079D01*
X18007208Y5040265D01*
X18073100Y5154393D01*
X18107208Y5281687D01*
X18107208Y5413471D01*
X18073100Y5540765D01*
X18067479Y5550500D01*
X18064271Y5556058D01*
X18007208Y5654893D01*
X17914022Y5748079D01*
X17856958Y5781025D01*
X17799895Y5813971D01*
X17736247Y5831025D01*
X17672600Y5848079D01*
X17540816Y5848079D01*
X17413520Y5813971D01*
X17299394Y5748079D01*
X17299391Y5748077D01*
X17206210Y5654896D01*
X17206208Y5654893D01*
X17140316Y5540767D01*
X17110776Y5430520D01*
X17106208Y5413471D01*
X12419674Y5413471D01*
X12437487Y5479952D01*
X12437487Y5611736D01*
X12403379Y5739030D01*
X12337487Y5853158D01*
X12244301Y5946344D01*
X12187237Y5979290D01*
X12130174Y6012236D01*
X12066526Y6029290D01*
X12002879Y6046344D01*
X11871095Y6046344D01*
X11743799Y6012236D01*
X11629673Y5946344D01*
X11629670Y5946342D01*
X11536489Y5853161D01*
X11536487Y5853158D01*
X11470594Y5739030D01*
X11470594Y5739029D01*
X11468838Y5732474D01*
X11432473Y5672814D01*
X11369625Y5642286D01*
X11300250Y5650581D01*
X11280173Y5661467D01*
X11151316Y5747567D01*
X11151307Y5747572D01*
X10987519Y5815415D01*
X10975000Y5817906D01*
X10474999Y5817906D01*
X10462480Y5815415D01*
X10298692Y5747572D01*
X10298683Y5747567D01*
X10151283Y5649077D01*
X10151279Y5649074D01*
X10025926Y5523721D01*
X10025921Y5523715D01*
X9994785Y5477117D01*
X9941172Y5432312D01*
X9871847Y5423606D01*
X9829685Y5438621D01*
X9706784Y5509577D01*
X9654020Y5523715D01*
X9554057Y5550500D01*
X9395943Y5550500D01*
X9243216Y5509577D01*
X9243209Y5509574D01*
X9106290Y5430525D01*
X9106282Y5430519D01*
X8994481Y5318718D01*
X8994477Y5318713D01*
X8957387Y5254469D01*
X8906821Y5206254D01*
X8838214Y5193030D01*
X8773349Y5218998D01*
X8742613Y5254469D01*
X8705522Y5318713D01*
X8705518Y5318718D01*
X8593717Y5430519D01*
X8593709Y5430525D01*
X8456790Y5509574D01*
X8456786Y5509576D01*
X8456784Y5509577D01*
X8304057Y5550500D01*
X8145943Y5550500D01*
X7993216Y5509577D01*
X7993209Y5509574D01*
X7856290Y5430525D01*
X7856282Y5430519D01*
X7744479Y5318716D01*
X7740345Y5313328D01*
X7683914Y5272129D01*
X7614168Y5267979D01*
X7553250Y5302195D01*
X7531491Y5332523D01*
X7503050Y5388342D01*
X7503048Y5388344D01*
X7503045Y5388348D01*
X7413347Y5478046D01*
X7413344Y5478048D01*
X7413342Y5478050D01*
X7323708Y5523721D01*
X7300301Y5535648D01*
X7206524Y5550500D01*
X6743482Y5550500D01*
X6662519Y5537677D01*
X6649696Y5535646D01*
X6536658Y5478050D01*
X6536657Y5478049D01*
X6536652Y5478046D01*
X6446954Y5388348D01*
X6446951Y5388343D01*
X6389352Y5275302D01*
X6374500Y5181525D01*
X500500Y5181525D01*
X500500Y6379704D01*
X6657194Y6379704D01*
X6657194Y6247921D01*
X6691302Y6120625D01*
X6724248Y6063562D01*
X6757194Y6006498D01*
X6850380Y5913312D01*
X6949215Y5856249D01*
X6963366Y5848079D01*
X6964508Y5847420D01*
X7091802Y5813312D01*
X7091804Y5813312D01*
X7223584Y5813312D01*
X7223586Y5813312D01*
X7350880Y5847420D01*
X7465008Y5913312D01*
X7558194Y6006498D01*
X7624086Y6120626D01*
X7658194Y6247920D01*
X7658194Y6379704D01*
X7624086Y6506998D01*
X7558194Y6621126D01*
X7465008Y6714312D01*
X7375673Y6765890D01*
X7375670Y6765892D01*
X15699500Y6765892D01*
X15699500Y6634108D01*
X15716554Y6570461D01*
X15733608Y6506813D01*
X15766554Y6449750D01*
X15799500Y6392686D01*
X15892686Y6299500D01*
X16006814Y6233608D01*
X16134108Y6199500D01*
X16134110Y6199500D01*
X16265890Y6199500D01*
X16265892Y6199500D01*
X16393186Y6233608D01*
X16507314Y6299500D01*
X16600500Y6392686D01*
X16666392Y6506814D01*
X16700500Y6634108D01*
X16700500Y6765892D01*
X16666392Y6893186D01*
X16600500Y7007314D01*
X16507314Y7100500D01*
X16449100Y7134110D01*
X16393187Y7166392D01*
X16329539Y7183446D01*
X16265892Y7200500D01*
X16134108Y7200500D01*
X16006812Y7166392D01*
X15892686Y7100500D01*
X15892683Y7100498D01*
X15799502Y7007317D01*
X15799500Y7007314D01*
X15733608Y6893188D01*
X15733473Y6892684D01*
X15699500Y6765892D01*
X7375670Y6765892D01*
X7350881Y6780204D01*
X7278854Y6799503D01*
X7223586Y6814312D01*
X7091802Y6814312D01*
X6964506Y6780204D01*
X6850380Y6714312D01*
X6850377Y6714310D01*
X6757196Y6621129D01*
X6757194Y6621126D01*
X6691302Y6507000D01*
X6657194Y6379704D01*
X500500Y6379704D01*
X500500Y7265892D01*
X1649500Y7265892D01*
X1649500Y7134109D01*
X1683608Y7006813D01*
X1716554Y6949750D01*
X1749500Y6892686D01*
X1842686Y6799500D01*
X1956814Y6733608D01*
X2084108Y6699500D01*
X2084110Y6699500D01*
X2215890Y6699500D01*
X2215892Y6699500D01*
X2343186Y6733608D01*
X2457314Y6799500D01*
X2550500Y6892686D01*
X2616392Y7006814D01*
X2650500Y7134108D01*
X2650500Y7265892D01*
X2616392Y7393186D01*
X2550500Y7507314D01*
X2457314Y7600500D01*
X2382867Y7643482D01*
X2343187Y7666392D01*
X2279539Y7683446D01*
X2215892Y7700500D01*
X2084108Y7700500D01*
X1956812Y7666392D01*
X1842686Y7600500D01*
X1842683Y7600498D01*
X1749502Y7507317D01*
X1749500Y7507314D01*
X1683608Y7393188D01*
X1649500Y7265892D01*
X500500Y7265892D01*
X500500Y8125000D01*
X3582096Y8125000D01*
X3584584Y8112484D01*
X3584587Y8112477D01*
X3652428Y7948694D01*
X3652433Y7948684D01*
X3750923Y7801284D01*
X3750926Y7801280D01*
X3876279Y7675927D01*
X3876283Y7675924D01*
X4023683Y7577434D01*
X4023692Y7577429D01*
X4187479Y7509587D01*
X4187487Y7509585D01*
X4361353Y7475001D01*
X4361357Y7475000D01*
X4450000Y7475000D01*
X4950000Y7475000D01*
X5038643Y7475000D01*
X5038646Y7475001D01*
X5212512Y7509585D01*
X5212520Y7509587D01*
X5376307Y7577429D01*
X5376316Y7577434D01*
X5523716Y7675924D01*
X5523720Y7675927D01*
X5649073Y7801280D01*
X5649076Y7801284D01*
X5747566Y7948684D01*
X5747571Y7948694D01*
X5815412Y8112477D01*
X5815415Y8112484D01*
X5817904Y8125000D01*
X4950000Y8125000D01*
X4950000Y7475000D01*
X4450000Y7475000D01*
X4450000Y8125000D01*
X3582096Y8125000D01*
X500500Y8125000D01*
X500500Y10007865D01*
X2741222Y10007865D01*
X2741222Y9876082D01*
X2775330Y9748786D01*
X2807430Y9693188D01*
X2841222Y9634659D01*
X2934408Y9541473D01*
X3048536Y9475581D01*
X3175830Y9441473D01*
X3175832Y9441473D01*
X3307612Y9441473D01*
X3307614Y9441473D01*
X3434908Y9475581D01*
X3549036Y9541473D01*
X3637822Y9630260D01*
X3699141Y9663742D01*
X3768833Y9658758D01*
X3824767Y9616887D01*
X3849184Y9551423D01*
X3849500Y9542577D01*
X3849500Y9393483D01*
X3864354Y9299696D01*
X3903651Y9222571D01*
X3916547Y9153902D01*
X3890270Y9089162D01*
X3880136Y9078838D01*
X3880590Y9078384D01*
X3750926Y8948721D01*
X3750923Y8948717D01*
X3652433Y8801317D01*
X3652428Y8801307D01*
X3584587Y8637524D01*
X3584584Y8637517D01*
X3582096Y8625000D01*
X4650272Y8625000D01*
X4558386Y8586940D01*
X4488060Y8516614D01*
X4450000Y8424728D01*
X4450000Y8325272D01*
X4488060Y8233386D01*
X4558386Y8163060D01*
X4650272Y8125000D01*
X4749728Y8125000D01*
X4841614Y8163060D01*
X4911940Y8233386D01*
X4950000Y8325272D01*
X4950000Y8424728D01*
X4911940Y8516614D01*
X4841614Y8586940D01*
X4749728Y8625000D01*
X5817904Y8625000D01*
X5815415Y8637517D01*
X5815412Y8637524D01*
X5778530Y8726566D01*
X5762241Y8765892D01*
X11624414Y8765892D01*
X11624414Y8634108D01*
X11629957Y8613421D01*
X11658522Y8506813D01*
X11674312Y8479465D01*
X11724414Y8392686D01*
X11817600Y8299500D01*
X11931728Y8233608D01*
X12059022Y8199500D01*
X12059024Y8199500D01*
X12190804Y8199500D01*
X12190806Y8199500D01*
X12318100Y8233608D01*
X12432228Y8299500D01*
X12525414Y8392686D01*
X12591306Y8506814D01*
X12625414Y8634108D01*
X12625414Y8765892D01*
X12591306Y8893186D01*
X12525414Y9007314D01*
X12432228Y9100500D01*
X12375164Y9133446D01*
X12318101Y9166392D01*
X12254453Y9183446D01*
X12190806Y9200500D01*
X12059022Y9200500D01*
X11931726Y9166392D01*
X11817600Y9100500D01*
X11817597Y9100498D01*
X11724416Y9007317D01*
X11724414Y9007314D01*
X11658522Y8893188D01*
X11633903Y8801307D01*
X11624414Y8765892D01*
X5762241Y8765892D01*
X5747571Y8801308D01*
X5747566Y8801317D01*
X5649076Y8948717D01*
X5649073Y8948721D01*
X5519410Y9078384D01*
X5521383Y9080358D01*
X5488810Y9128242D01*
X5486983Y9198088D01*
X5496346Y9222568D01*
X5535646Y9299696D01*
X5535646Y9299698D01*
X5535647Y9299699D01*
X5550500Y9393476D01*
X5550500Y9565892D01*
X8999500Y9565892D01*
X8999500Y9434109D01*
X9033608Y9306813D01*
X9066554Y9249750D01*
X9099500Y9192686D01*
X9192686Y9099500D01*
X9306814Y9033608D01*
X9434108Y8999500D01*
X9434110Y8999500D01*
X9565890Y8999500D01*
X9565892Y8999500D01*
X9693186Y9033608D01*
X9807314Y9099500D01*
X9900500Y9192686D01*
X9966392Y9306814D01*
X10000500Y9434108D01*
X10000500Y9565892D01*
X9966392Y9693186D01*
X9900500Y9807314D01*
X9807314Y9900500D01*
X9721053Y9950303D01*
X9693187Y9966392D01*
X9629539Y9983446D01*
X9565892Y10000500D01*
X9434108Y10000500D01*
X9306812Y9966392D01*
X9192686Y9900500D01*
X9192683Y9900498D01*
X9099502Y9807317D01*
X9099500Y9807314D01*
X9033608Y9693188D01*
X8999500Y9565892D01*
X5550500Y9565892D01*
X5550500Y9574019D01*
X5550499Y9856518D01*
X5547401Y9876081D01*
X5535646Y9950304D01*
X5478050Y10063342D01*
X5478046Y10063346D01*
X5478045Y10063348D01*
X5388347Y10153046D01*
X5388344Y10153048D01*
X5388342Y10153050D01*
X5311517Y10192195D01*
X5275301Y10210648D01*
X5181524Y10225500D01*
X4218482Y10225500D01*
X4137519Y10212677D01*
X4124696Y10210646D01*
X4011658Y10153050D01*
X4011657Y10153049D01*
X4011656Y10153049D01*
X3920347Y10061740D01*
X3859023Y10028256D01*
X3789332Y10033240D01*
X3733399Y10075112D01*
X3712891Y10117329D01*
X3708113Y10135161D01*
X3663396Y10212612D01*
X3642222Y10249287D01*
X3549036Y10342473D01*
X3519408Y10359579D01*
X7046723Y10359579D01*
X7046723Y10227795D01*
X7051318Y10210646D01*
X7080831Y10100500D01*
X7081996Y10098483D01*
X7146723Y9986373D01*
X7239909Y9893187D01*
X7354037Y9827295D01*
X7481331Y9793187D01*
X7481333Y9793187D01*
X7613113Y9793187D01*
X7613115Y9793187D01*
X7740409Y9827295D01*
X7854537Y9893187D01*
X7947723Y9986373D01*
X8013615Y10100501D01*
X8047723Y10227795D01*
X8047723Y10359579D01*
X8014068Y10485183D01*
X8015731Y10555031D01*
X8054894Y10612893D01*
X8071843Y10624661D01*
X8074340Y10626104D01*
X8074344Y10626104D01*
X8188472Y10691996D01*
X8281658Y10785182D01*
X8347550Y10899310D01*
X8381658Y11026604D01*
X8381658Y11158388D01*
X8365495Y11218709D01*
X8699500Y11218709D01*
X8699500Y11086926D01*
X8733608Y10959630D01*
X8753069Y10925924D01*
X8799500Y10845503D01*
X8892686Y10752317D01*
X8991521Y10695254D01*
X8997166Y10691995D01*
X9006814Y10686425D01*
X9134108Y10652317D01*
X9134110Y10652317D01*
X9265890Y10652317D01*
X9265892Y10652317D01*
X9393186Y10686425D01*
X9507314Y10752317D01*
X9600500Y10845503D01*
X9666392Y10959631D01*
X9700500Y11086925D01*
X9700500Y11218709D01*
X9666392Y11346003D01*
X9666389Y11346007D01*
X9666389Y11346011D01*
X9666205Y11346329D01*
X9666203Y11346331D01*
X9649650Y11375000D01*
X13632096Y11375000D01*
X13634584Y11362484D01*
X13634587Y11362477D01*
X13702428Y11198694D01*
X13702433Y11198684D01*
X13800923Y11051284D01*
X13800926Y11051280D01*
X13926279Y10925927D01*
X13926283Y10925924D01*
X13972882Y10894787D01*
X14017687Y10841175D01*
X14026394Y10771850D01*
X14011379Y10729686D01*
X13940423Y10606785D01*
X13940423Y10606784D01*
X13899500Y10454057D01*
X13899500Y10295943D01*
X13937789Y10153049D01*
X13940423Y10143217D01*
X13940426Y10143210D01*
X14019475Y10006291D01*
X14019479Y10006286D01*
X14019480Y10006284D01*
X14131284Y9894480D01*
X14131285Y9894479D01*
X14131287Y9894478D01*
X14195531Y9857387D01*
X14243746Y9806821D01*
X14256970Y9738214D01*
X14231002Y9673349D01*
X14195531Y9642613D01*
X14131287Y9605523D01*
X14131282Y9605519D01*
X14019481Y9493718D01*
X14019475Y9493710D01*
X13940426Y9356791D01*
X13940423Y9356784D01*
X13899500Y9204057D01*
X13899500Y9045943D01*
X13911945Y8999500D01*
X13940423Y8893217D01*
X13940426Y8893210D01*
X14019475Y8756291D01*
X14019479Y8756286D01*
X14019480Y8756284D01*
X14131284Y8644480D01*
X14131287Y8644478D01*
X14136667Y8640350D01*
X14177869Y8583921D01*
X14182023Y8514175D01*
X14147809Y8453255D01*
X14117475Y8431491D01*
X14061659Y8403051D01*
X14061652Y8403046D01*
X13971954Y8313348D01*
X13971951Y8313343D01*
X13914352Y8200302D01*
X13899500Y8106525D01*
X13899500Y7643483D01*
X13906308Y7600500D01*
X13914354Y7549696D01*
X13971950Y7436658D01*
X13971952Y7436656D01*
X13971954Y7436653D01*
X14061652Y7346955D01*
X14061654Y7346954D01*
X14061658Y7346950D01*
X14174694Y7289355D01*
X14174698Y7289353D01*
X14268475Y7274501D01*
X14268481Y7274500D01*
X15231518Y7274501D01*
X15325304Y7289354D01*
X15438342Y7346950D01*
X15528050Y7436658D01*
X15585646Y7549696D01*
X15585646Y7549698D01*
X15585647Y7549699D01*
X15600499Y7643476D01*
X15600500Y7643481D01*
X15600499Y8106518D01*
X15585646Y8200304D01*
X15528050Y8313342D01*
X15528046Y8313346D01*
X15528045Y8313348D01*
X15438347Y8403046D01*
X15438338Y8403053D01*
X15382525Y8431491D01*
X15331729Y8479465D01*
X15314934Y8547286D01*
X15337472Y8613421D01*
X15363336Y8640353D01*
X15368705Y8644475D01*
X15368716Y8644480D01*
X15480520Y8756284D01*
X15559577Y8893216D01*
X15600500Y9045943D01*
X15600500Y9204057D01*
X15559577Y9356784D01*
X15538389Y9393483D01*
X15480524Y9493710D01*
X15480518Y9493718D01*
X15368715Y9605521D01*
X15344125Y9619718D01*
X15304467Y9642614D01*
X15256253Y9693179D01*
X15243029Y9761786D01*
X15268997Y9826651D01*
X15304468Y9857387D01*
X15368716Y9894480D01*
X15480520Y10006284D01*
X15559577Y10143216D01*
X15600500Y10295943D01*
X15600500Y10454057D01*
X15595775Y10471691D01*
X17689618Y10471691D01*
X17689618Y10339907D01*
X17701398Y10295944D01*
X17723726Y10212612D01*
X17756672Y10155549D01*
X17789618Y10098485D01*
X17882804Y10005299D01*
X17996932Y9939407D01*
X18124226Y9905299D01*
X18124228Y9905299D01*
X18256008Y9905299D01*
X18256010Y9905299D01*
X18383304Y9939407D01*
X18497432Y10005299D01*
X18590618Y10098485D01*
X18656510Y10212613D01*
X18690618Y10339907D01*
X18690618Y10471691D01*
X18656510Y10598985D01*
X18590618Y10713113D01*
X18497432Y10806299D01*
X18437025Y10841175D01*
X18383305Y10872191D01*
X18319657Y10889245D01*
X18256010Y10906299D01*
X18124226Y10906299D01*
X17996930Y10872191D01*
X17882804Y10806299D01*
X17882801Y10806297D01*
X17789620Y10713116D01*
X17789618Y10713113D01*
X17723726Y10598987D01*
X17693686Y10486873D01*
X17689618Y10471691D01*
X15595775Y10471691D01*
X15559577Y10606784D01*
X15533289Y10652317D01*
X15488621Y10729686D01*
X15472148Y10797586D01*
X15495001Y10863613D01*
X15527118Y10894788D01*
X15573719Y10925926D01*
X15699073Y11051280D01*
X15699076Y11051284D01*
X15797566Y11198684D01*
X15797571Y11198694D01*
X15865412Y11362477D01*
X15865415Y11362484D01*
X15867904Y11375000D01*
X14799728Y11375000D01*
X14891614Y11413060D01*
X14961940Y11483386D01*
X15000000Y11575272D01*
X15000000Y11674728D01*
X14961940Y11766614D01*
X14891614Y11836940D01*
X14799728Y11875000D01*
X14700272Y11875000D01*
X14608386Y11836940D01*
X14538060Y11766614D01*
X14500000Y11674728D01*
X14500000Y11575272D01*
X14538060Y11483386D01*
X14608386Y11413060D01*
X14700272Y11375000D01*
X13632096Y11375000D01*
X9649650Y11375000D01*
X9635326Y11399810D01*
X9600500Y11460131D01*
X9507314Y11553317D01*
X9438588Y11592996D01*
X9393187Y11619209D01*
X9329539Y11636263D01*
X9265892Y11653317D01*
X9134108Y11653317D01*
X9006812Y11619209D01*
X8892686Y11553317D01*
X8892683Y11553315D01*
X8799502Y11460134D01*
X8799500Y11460131D01*
X8733608Y11346005D01*
X8699500Y11218709D01*
X8365495Y11218709D01*
X8347550Y11285682D01*
X8281658Y11399810D01*
X8188472Y11492996D01*
X8131408Y11525942D01*
X8074345Y11558888D01*
X8010697Y11575942D01*
X7947050Y11592996D01*
X7815266Y11592996D01*
X7687970Y11558888D01*
X7573844Y11492996D01*
X7573841Y11492994D01*
X7480660Y11399813D01*
X7480658Y11399810D01*
X7414766Y11285684D01*
X7396821Y11218709D01*
X7380658Y11158388D01*
X7380658Y11026604D01*
X7405273Y10934737D01*
X7414312Y10901004D01*
X7412649Y10831154D01*
X7373486Y10773292D01*
X7356538Y10761525D01*
X7239915Y10694191D01*
X7239906Y10694185D01*
X7146725Y10601004D01*
X7146723Y10601001D01*
X7080831Y10486875D01*
X7068934Y10442473D01*
X7046723Y10359579D01*
X3519408Y10359579D01*
X3491972Y10375419D01*
X3434909Y10408365D01*
X3371261Y10425419D01*
X3307614Y10442473D01*
X3175830Y10442473D01*
X3048534Y10408365D01*
X2934408Y10342473D01*
X2934405Y10342471D01*
X2841224Y10249290D01*
X2841222Y10249287D01*
X2775330Y10135161D01*
X2741222Y10007865D01*
X500500Y10007865D01*
X500500Y14550063D01*
X3016390Y14550063D01*
X3016390Y14418279D01*
X3029585Y14369035D01*
X3050498Y14290984D01*
X3073400Y14251317D01*
X3116390Y14176857D01*
X3209576Y14083671D01*
X3216380Y14079743D01*
X3217396Y14079156D01*
X3265610Y14028588D01*
X3278832Y13959981D01*
X3252863Y13895117D01*
X3243076Y13884090D01*
X3199503Y13840517D01*
X3199500Y13840513D01*
X3133608Y13726387D01*
X3099500Y13599091D01*
X3099500Y13467308D01*
X3133608Y13340012D01*
X3146607Y13317498D01*
X3199500Y13225885D01*
X3292686Y13132699D01*
X3406814Y13066807D01*
X3436642Y13058815D01*
X3496303Y13022450D01*
X3526832Y12959603D01*
X3518537Y12890228D01*
X3502925Y12863554D01*
X3499501Y12859093D01*
X3433607Y12744963D01*
X3399499Y12617667D01*
X3399499Y12485884D01*
X3433607Y12358588D01*
X3447741Y12334108D01*
X3499499Y12244461D01*
X3499501Y12244459D01*
X3594650Y12149310D01*
X3628135Y12087987D01*
X3623833Y12027837D01*
X3625820Y12027304D01*
X3623716Y12019455D01*
X3623716Y12019453D01*
X3591575Y11899501D01*
X3589608Y11892159D01*
X3589608Y11760376D01*
X3623716Y11633080D01*
X3631725Y11619209D01*
X3689608Y11518953D01*
X3782794Y11425767D01*
X3896922Y11359875D01*
X4024216Y11325767D01*
X4024218Y11325767D01*
X4155998Y11325767D01*
X4156000Y11325767D01*
X4283294Y11359875D01*
X4397422Y11425767D01*
X4490608Y11518953D01*
X4556500Y11633081D01*
X4590608Y11760375D01*
X4590608Y11892159D01*
X4556500Y12019453D01*
X4551659Y12027837D01*
X4538103Y12051317D01*
X4490608Y12133581D01*
X4397422Y12226767D01*
X4395456Y12228733D01*
X4361971Y12290056D01*
X4366272Y12350206D01*
X4364287Y12350738D01*
X4366391Y12358589D01*
X4400499Y12485883D01*
X4400499Y12617667D01*
X4366391Y12744961D01*
X4366388Y12744966D01*
X4363279Y12752475D01*
X4366266Y12753713D01*
X4353360Y12806883D01*
X4376203Y12872913D01*
X4388886Y12882890D01*
X6129499Y12882890D01*
X6129499Y12751106D01*
X6141232Y12707317D01*
X6163607Y12623811D01*
X6181288Y12593188D01*
X6229499Y12509684D01*
X6322685Y12416498D01*
X6436813Y12350606D01*
X6564107Y12316498D01*
X6564109Y12316498D01*
X6695889Y12316498D01*
X6695891Y12316498D01*
X6823185Y12350606D01*
X6937313Y12416498D01*
X7030499Y12509684D01*
X7062951Y12565892D01*
X12999500Y12565892D01*
X12999500Y12434108D01*
X13000735Y12429500D01*
X13033608Y12306813D01*
X13043283Y12290056D01*
X13099500Y12192686D01*
X13192686Y12099500D01*
X13306814Y12033608D01*
X13434108Y11999500D01*
X13434110Y11999500D01*
X13505767Y11999500D01*
X13572806Y11979815D01*
X13618561Y11927011D01*
X13624753Y11883947D01*
X13632095Y11875000D01*
X14500000Y11875000D01*
X14500000Y12525000D01*
X15000000Y12525000D01*
X15000000Y11875000D01*
X15867904Y11875000D01*
X15865415Y11887517D01*
X15865412Y11887524D01*
X15797571Y12051307D01*
X15797566Y12051317D01*
X15699076Y12198717D01*
X15699073Y12198721D01*
X15653020Y12244774D01*
X15619535Y12306097D01*
X15624519Y12375789D01*
X15666391Y12431722D01*
X15731855Y12456139D01*
X15772788Y12452231D01*
X15857621Y12429500D01*
X15857624Y12429500D01*
X15989403Y12429500D01*
X15989405Y12429500D01*
X16116699Y12463608D01*
X16120655Y12465892D01*
X17999500Y12465892D01*
X17999500Y12334108D01*
X18011304Y12290056D01*
X18033608Y12206813D01*
X18041766Y12192684D01*
X18099500Y12092686D01*
X18192686Y11999500D01*
X18306814Y11933608D01*
X18434108Y11899500D01*
X18434110Y11899500D01*
X18565890Y11899500D01*
X18565892Y11899500D01*
X18693186Y11933608D01*
X18807314Y11999500D01*
X18900500Y12092686D01*
X18966392Y12206814D01*
X19000500Y12334108D01*
X19000500Y12465892D01*
X18966392Y12593186D01*
X18900500Y12707314D01*
X18807314Y12800500D01*
X18750250Y12833446D01*
X18693187Y12866392D01*
X18604228Y12890228D01*
X18565892Y12900500D01*
X18434108Y12900500D01*
X18306812Y12866392D01*
X18192686Y12800500D01*
X18192683Y12800498D01*
X18099502Y12707317D01*
X18099500Y12707314D01*
X18033608Y12593188D01*
X17999500Y12465892D01*
X16120655Y12465892D01*
X16230827Y12529500D01*
X16324013Y12622686D01*
X16389905Y12736814D01*
X16424013Y12864108D01*
X16424013Y12995892D01*
X16389905Y13123186D01*
X16388322Y13125927D01*
X16381076Y13138479D01*
X16324013Y13237314D01*
X16230827Y13330500D01*
X16173763Y13363446D01*
X16116700Y13396392D01*
X16053052Y13413446D01*
X15989405Y13430500D01*
X15857621Y13430500D01*
X15730325Y13396392D01*
X15616199Y13330500D01*
X15616196Y13330498D01*
X15523015Y13237317D01*
X15523013Y13237314D01*
X15457121Y13123188D01*
X15426843Y13010186D01*
X15423013Y12995892D01*
X15423013Y12864108D01*
X15454937Y12744964D01*
X15457122Y12736812D01*
X15457122Y12736811D01*
X15522613Y12623378D01*
X15539086Y12555478D01*
X15516234Y12489451D01*
X15461312Y12446260D01*
X15391759Y12439619D01*
X15367774Y12446817D01*
X15262524Y12490413D01*
X15262512Y12490416D01*
X15088646Y12525000D01*
X15000000Y12525000D01*
X14500000Y12525000D01*
X14411353Y12525000D01*
X14237487Y12490416D01*
X14237480Y12490414D01*
X14171474Y12463074D01*
X14102005Y12455606D01*
X14039526Y12486882D01*
X14003874Y12546971D01*
X14001083Y12561456D01*
X14000500Y12565881D01*
X14000500Y12565892D01*
X13966392Y12693186D01*
X13900500Y12807314D01*
X13807314Y12900500D01*
X13750250Y12933446D01*
X13693187Y12966392D01*
X13629539Y12983446D01*
X13565892Y13000500D01*
X13434108Y13000500D01*
X13306812Y12966392D01*
X13192686Y12900500D01*
X13192683Y12900498D01*
X13099502Y12807317D01*
X13099500Y12807314D01*
X13033608Y12693188D01*
X13015019Y12623812D01*
X12999500Y12565892D01*
X7062951Y12565892D01*
X7096391Y12623812D01*
X7130499Y12751106D01*
X7130499Y12882890D01*
X7096391Y13010184D01*
X7030499Y13124312D01*
X6937313Y13217498D01*
X6878794Y13251284D01*
X6823186Y13283390D01*
X6759538Y13300444D01*
X6695891Y13317498D01*
X6564107Y13317498D01*
X6436811Y13283390D01*
X6322685Y13217498D01*
X6322682Y13217496D01*
X6229501Y13124315D01*
X6229499Y13124312D01*
X6163607Y13010186D01*
X6134217Y12900498D01*
X6129499Y12882890D01*
X4388886Y12882890D01*
X4431118Y12916111D01*
X4443498Y12918499D01*
X4450000Y12925000D01*
X4950000Y12925000D01*
X5038643Y12925000D01*
X5038646Y12925001D01*
X5212512Y12959585D01*
X5212524Y12959588D01*
X5323553Y13005578D01*
X5323555Y13005578D01*
X5376307Y13027429D01*
X5376316Y13027434D01*
X5523716Y13125924D01*
X5523720Y13125927D01*
X5649073Y13251280D01*
X5649076Y13251284D01*
X5747566Y13398684D01*
X5747571Y13398694D01*
X5815412Y13562477D01*
X5815415Y13562484D01*
X5817904Y13575000D01*
X4950000Y13575000D01*
X4950000Y12925000D01*
X4450000Y12925000D01*
X4450000Y13701000D01*
X4462761Y13744462D01*
X4488060Y13683386D01*
X4558386Y13613060D01*
X4650272Y13575000D01*
X4749728Y13575000D01*
X4841614Y13613060D01*
X4911940Y13683386D01*
X4950000Y13775272D01*
X4950000Y13874728D01*
X4911940Y13966614D01*
X4841614Y14036940D01*
X4775303Y14064407D01*
X4824000Y14075000D01*
X5817904Y14075000D01*
X5815415Y14087517D01*
X5815412Y14087524D01*
X5747571Y14251307D01*
X5747566Y14251317D01*
X5649076Y14398717D01*
X5649073Y14398721D01*
X5523720Y14524074D01*
X5523716Y14524077D01*
X5477117Y14555214D01*
X5473947Y14559007D01*
X5469356Y14560845D01*
X5451757Y14585559D01*
X5432312Y14608827D01*
X5431696Y14613732D01*
X5428828Y14617759D01*
X5427384Y14648061D01*
X5423605Y14678152D01*
X5425673Y14683962D01*
X5425503Y14687550D01*
X5438621Y14720316D01*
X5451280Y14742241D01*
X12679448Y14742241D01*
X12679448Y14610457D01*
X12684210Y14592686D01*
X12713556Y14483162D01*
X12742166Y14433609D01*
X12779448Y14369035D01*
X12872634Y14275849D01*
X12986762Y14209957D01*
X13114056Y14175849D01*
X13114058Y14175849D01*
X13245838Y14175849D01*
X13245840Y14175849D01*
X13373134Y14209957D01*
X13487262Y14275849D01*
X13580448Y14369035D01*
X13603001Y14408098D01*
X13653566Y14456312D01*
X13722173Y14469536D01*
X13772387Y14453484D01*
X13806810Y14433610D01*
X13806811Y14433610D01*
X13806814Y14433608D01*
X13934108Y14399500D01*
X13934110Y14399500D01*
X14065890Y14399500D01*
X14065892Y14399500D01*
X14193186Y14433608D01*
X14307314Y14499500D01*
X14400500Y14592686D01*
X14451605Y14681204D01*
X14502169Y14729416D01*
X14570776Y14742640D01*
X14598940Y14735630D01*
X14598963Y14735712D01*
X14603593Y14734472D01*
X14606443Y14733762D01*
X14606810Y14733611D01*
X14606814Y14733608D01*
X14734108Y14699500D01*
X14734110Y14699500D01*
X14865890Y14699500D01*
X14865892Y14699500D01*
X14993186Y14733608D01*
X15107314Y14799500D01*
X15200500Y14892686D01*
X15266392Y15006814D01*
X15300500Y15134108D01*
X15300500Y15265892D01*
X15266392Y15393186D01*
X15200500Y15507314D01*
X15107314Y15600500D01*
X15033392Y15643179D01*
X14993187Y15666392D01*
X14911744Y15688214D01*
X14865892Y15700500D01*
X14734108Y15700500D01*
X14606812Y15666392D01*
X14492686Y15600500D01*
X14492683Y15600498D01*
X14399502Y15507317D01*
X14399496Y15507308D01*
X14348394Y15418799D01*
X14297827Y15370584D01*
X14229220Y15357362D01*
X14201059Y15364371D01*
X14201037Y15364288D01*
X14196402Y15365530D01*
X14193557Y15366238D01*
X14193186Y15366392D01*
X14093188Y15393186D01*
X14065892Y15400500D01*
X13934108Y15400500D01*
X13806812Y15366392D01*
X13692686Y15300500D01*
X13692683Y15300498D01*
X13599502Y15207317D01*
X13599498Y15207311D01*
X13576946Y15168251D01*
X13526378Y15120036D01*
X13457771Y15106815D01*
X13407560Y15122866D01*
X13373137Y15142740D01*
X13373134Y15142741D01*
X13245840Y15176849D01*
X13114056Y15176849D01*
X12986760Y15142741D01*
X12872634Y15076849D01*
X12872631Y15076847D01*
X12779450Y14983666D01*
X12779448Y14983663D01*
X12713556Y14869537D01*
X12692643Y14791485D01*
X12679448Y14742241D01*
X5451280Y14742241D01*
X5509577Y14843216D01*
X5550500Y14995943D01*
X5550500Y15154057D01*
X5509577Y15306784D01*
X5480376Y15357362D01*
X5430524Y15443710D01*
X5430518Y15443718D01*
X5318715Y15555521D01*
X5294125Y15569718D01*
X5254467Y15592614D01*
X5206253Y15643179D01*
X5193029Y15711786D01*
X5218997Y15776651D01*
X5254468Y15807387D01*
X5318716Y15844480D01*
X5430520Y15956284D01*
X5509577Y16093216D01*
X5550500Y16245943D01*
X5550500Y16404057D01*
X5509577Y16556784D01*
X5489715Y16591186D01*
X5430524Y16693710D01*
X5430518Y16693718D01*
X5318717Y16805519D01*
X5313331Y16809652D01*
X5272130Y16866081D01*
X5267977Y16935827D01*
X5302191Y16996747D01*
X5332522Y17018509D01*
X5388342Y17046950D01*
X5478050Y17136658D01*
X5535646Y17249696D01*
X5535646Y17249698D01*
X5535647Y17249699D01*
X5547489Y17324470D01*
X9349500Y17324470D01*
X9349500Y17192687D01*
X9383608Y17065391D01*
X9410675Y17018511D01*
X9449500Y16951264D01*
X9542686Y16858078D01*
X9656814Y16792186D01*
X9784108Y16758078D01*
X9784110Y16758078D01*
X9915890Y16758078D01*
X9915892Y16758078D01*
X10043186Y16792186D01*
X10157314Y16858078D01*
X10250500Y16951264D01*
X10316392Y17065392D01*
X10350500Y17192686D01*
X10350500Y17324470D01*
X10316392Y17451764D01*
X10308236Y17465890D01*
X10281605Y17512017D01*
X10281604Y17512018D01*
X10250500Y17565892D01*
X11699500Y17565892D01*
X11699500Y17434109D01*
X11733608Y17306813D01*
X11766554Y17249750D01*
X11799500Y17192686D01*
X11892686Y17099500D01*
X12006814Y17033608D01*
X12134108Y16999500D01*
X12134110Y16999500D01*
X12265890Y16999500D01*
X12265892Y16999500D01*
X12393186Y17033608D01*
X12507314Y17099500D01*
X12600500Y17192686D01*
X12666392Y17306814D01*
X12700500Y17434108D01*
X12700500Y17465892D01*
X13099500Y17465892D01*
X13099500Y17334108D01*
X13102083Y17324468D01*
X13133608Y17206813D01*
X13141766Y17192684D01*
X13199500Y17092686D01*
X13292686Y16999500D01*
X13391521Y16942437D01*
X13402970Y16935827D01*
X13406814Y16933608D01*
X13534108Y16899500D01*
X13534110Y16899500D01*
X13665890Y16899500D01*
X13665892Y16899500D01*
X13793186Y16933608D01*
X13907314Y16999500D01*
X14000500Y17092686D01*
X14066392Y17206814D01*
X14100500Y17334108D01*
X14100500Y17465892D01*
X14066392Y17593186D01*
X14000500Y17707314D01*
X13907314Y17800500D01*
X13850250Y17833446D01*
X13793187Y17866392D01*
X13728931Y17883609D01*
X13665892Y17900500D01*
X13534108Y17900500D01*
X13406812Y17866392D01*
X13292686Y17800500D01*
X13292683Y17800498D01*
X13199502Y17707317D01*
X13199500Y17707314D01*
X13133608Y17593188D01*
X13126294Y17565890D01*
X13099500Y17465892D01*
X12700500Y17465892D01*
X12700500Y17565892D01*
X12666392Y17693186D01*
X12600500Y17807314D01*
X12507314Y17900500D01*
X12406892Y17958479D01*
X12393187Y17966392D01*
X12329539Y17983446D01*
X12265892Y18000500D01*
X12134108Y18000500D01*
X12006812Y17966392D01*
X11892686Y17900500D01*
X11892683Y17900498D01*
X11799502Y17807317D01*
X11799500Y17807314D01*
X11733608Y17693188D01*
X11699500Y17565892D01*
X10250500Y17565892D01*
X10157314Y17659078D01*
X10073762Y17707317D01*
X10043187Y17724970D01*
X9979539Y17742024D01*
X9915892Y17759078D01*
X9784108Y17759078D01*
X9656812Y17724970D01*
X9542686Y17659078D01*
X9542683Y17659076D01*
X9449502Y17565895D01*
X9449500Y17565892D01*
X9383608Y17451766D01*
X9349500Y17324470D01*
X5547489Y17324470D01*
X5550499Y17343472D01*
X5550499Y17343475D01*
X5550500Y17343481D01*
X5550499Y17806518D01*
X5535646Y17900304D01*
X5478050Y18013342D01*
X5478046Y18013346D01*
X5478045Y18013348D01*
X5388347Y18103046D01*
X5388344Y18103048D01*
X5388342Y18103050D01*
X5282825Y18156814D01*
X5275301Y18160648D01*
X5181524Y18175500D01*
X4218482Y18175500D01*
X4137519Y18162677D01*
X4124696Y18160646D01*
X4011658Y18103050D01*
X4011657Y18103049D01*
X4011652Y18103046D01*
X3921954Y18013348D01*
X3921951Y18013343D01*
X3864352Y17900302D01*
X3849500Y17806525D01*
X3849500Y17343483D01*
X3852512Y17324468D01*
X3864354Y17249696D01*
X3921950Y17136658D01*
X3921952Y17136656D01*
X3921954Y17136653D01*
X4011652Y17046955D01*
X4011656Y17046952D01*
X4011658Y17046950D01*
X4067475Y17018510D01*
X4118270Y16970536D01*
X4135065Y16902715D01*
X4112528Y16836581D01*
X4086672Y16809655D01*
X4081284Y16805521D01*
X3969481Y16693718D01*
X3969475Y16693710D01*
X3890426Y16556791D01*
X3890423Y16556784D01*
X3849500Y16404057D01*
X3849500Y16245943D01*
X3873446Y16156578D01*
X3890423Y16093217D01*
X3890426Y16093210D01*
X3969475Y15956291D01*
X3969479Y15956286D01*
X3969480Y15956284D01*
X4081284Y15844480D01*
X4081285Y15844479D01*
X4081287Y15844478D01*
X4145531Y15807387D01*
X4193746Y15756821D01*
X4206970Y15688214D01*
X4181002Y15623349D01*
X4145531Y15592613D01*
X4081287Y15555523D01*
X4081282Y15555519D01*
X3969481Y15443718D01*
X3969475Y15443710D01*
X3890426Y15306791D01*
X3890423Y15306784D01*
X3849500Y15154057D01*
X3849500Y15074805D01*
X3829815Y15007766D01*
X3777011Y14962011D01*
X3707853Y14952067D01*
X3693408Y14955030D01*
X3582783Y14984671D01*
X3582782Y14984671D01*
X3450998Y14984671D01*
X3323702Y14950563D01*
X3209576Y14884671D01*
X3209573Y14884669D01*
X3116392Y14791488D01*
X3116390Y14791485D01*
X3050498Y14677359D01*
X3017770Y14555214D01*
X3016390Y14550063D01*
X500500Y14550063D01*
X500500Y15768011D01*
X520185Y15835050D01*
X572989Y15880805D01*
X642147Y15890749D01*
X705703Y15861724D01*
X731886Y15830012D01*
X758814Y15783372D01*
X852000Y15690186D01*
X966128Y15624294D01*
X1093422Y15590186D01*
X1093424Y15590186D01*
X1225204Y15590186D01*
X1225206Y15590186D01*
X1352500Y15624294D01*
X1466628Y15690186D01*
X1559814Y15783372D01*
X1625706Y15897500D01*
X1659814Y16024794D01*
X1659814Y16156578D01*
X1625706Y16283872D01*
X1559814Y16398000D01*
X1466628Y16491186D01*
X1409564Y16524132D01*
X1352501Y16557078D01*
X1288853Y16574132D01*
X1225206Y16591186D01*
X1093422Y16591186D01*
X966126Y16557078D01*
X852000Y16491186D01*
X851997Y16491184D01*
X758816Y16398003D01*
X758814Y16398000D01*
X731887Y16351361D01*
X681319Y16303146D01*
X612712Y16289924D01*
X547848Y16315892D01*
X507320Y16372807D01*
X500500Y16413362D01*
X500500Y17845685D01*
X520185Y17912724D01*
X572989Y17958479D01*
X642147Y17968423D01*
X686501Y17953072D01*
X692683Y17949503D01*
X692686Y17949500D01*
X806814Y17883608D01*
X934108Y17849500D01*
X934110Y17849500D01*
X1065890Y17849500D01*
X1065892Y17849500D01*
X1193186Y17883608D01*
X1307314Y17949500D01*
X1400500Y18042686D01*
X1466392Y18156814D01*
X1500500Y18284108D01*
X1500500Y18415892D01*
X1466392Y18543186D01*
X1400500Y18657314D01*
X1307314Y18750500D01*
X1227292Y18796701D01*
X1193187Y18816392D01*
X1129539Y18833446D01*
X1065892Y18850500D01*
X934108Y18850500D01*
X806814Y18816392D01*
X806813Y18816392D01*
X806811Y18816391D01*
X806810Y18816391D01*
X686500Y18746929D01*
X618600Y18730456D01*
X552573Y18753308D01*
X509382Y18808230D01*
X500500Y18854316D01*
X500500Y18986783D01*
X4349500Y18986783D01*
X4349500Y18854999D01*
X4356940Y18827231D01*
X4383608Y18727704D01*
X4416554Y18670641D01*
X4449500Y18613577D01*
X4542686Y18520391D01*
X4656814Y18454499D01*
X4784108Y18420391D01*
X4915892Y18420391D01*
X5043186Y18454499D01*
X5157314Y18520391D01*
X5250500Y18613577D01*
X5316392Y18727705D01*
X5318893Y18737041D01*
X5355257Y18796701D01*
X5418103Y18827231D01*
X5487479Y18818937D01*
X5541358Y18774452D01*
X5558441Y18737044D01*
X5576064Y18671274D01*
X5585220Y18637104D01*
X5602709Y18606813D01*
X5651112Y18522977D01*
X5744298Y18429791D01*
X5858426Y18363899D01*
X5985720Y18329791D01*
X5985722Y18329791D01*
X6117502Y18329791D01*
X6117504Y18329791D01*
X6244798Y18363899D01*
X6358926Y18429791D01*
X6452112Y18522977D01*
X6518004Y18637105D01*
X6552112Y18764399D01*
X6552112Y18865892D01*
X8249500Y18865892D01*
X8249500Y18734109D01*
X8283608Y18606813D01*
X8316554Y18549750D01*
X8349500Y18492686D01*
X8442686Y18399500D01*
X8556814Y18333608D01*
X8684108Y18299500D01*
X8684110Y18299500D01*
X8815890Y18299500D01*
X8815892Y18299500D01*
X8943186Y18333608D01*
X9057314Y18399500D01*
X9150500Y18492686D01*
X9216392Y18606814D01*
X9250500Y18734108D01*
X9250500Y18865892D01*
X9216392Y18993186D01*
X9150500Y19107314D01*
X9057314Y19200500D01*
X9000250Y19233446D01*
X8943187Y19266392D01*
X8830137Y19296683D01*
X8815892Y19300500D01*
X8684108Y19300500D01*
X8556812Y19266392D01*
X8442686Y19200500D01*
X8442683Y19200498D01*
X8349502Y19107317D01*
X8349500Y19107314D01*
X8283608Y18993188D01*
X8249500Y18865892D01*
X6552112Y18865892D01*
X6552112Y18896183D01*
X6518004Y19023477D01*
X6452112Y19137605D01*
X6358926Y19230791D01*
X6297263Y19266392D01*
X6244799Y19296683D01*
X6152593Y19321389D01*
X6117504Y19330791D01*
X5985720Y19330791D01*
X5858424Y19296683D01*
X5744298Y19230791D01*
X5744295Y19230789D01*
X5651114Y19137608D01*
X5651112Y19137605D01*
X5585219Y19023477D01*
X5585219Y19023476D01*
X5582716Y19014135D01*
X5546348Y18954476D01*
X5483499Y18923951D01*
X5414124Y18932249D01*
X5360249Y18976738D01*
X5343170Y19014138D01*
X5316392Y19114077D01*
X5250500Y19228205D01*
X5157314Y19321391D01*
X5100250Y19354337D01*
X5043187Y19387283D01*
X4964256Y19408432D01*
X4915892Y19421391D01*
X4784108Y19421391D01*
X4656812Y19387283D01*
X4542686Y19321391D01*
X4542683Y19321389D01*
X4449502Y19228208D01*
X4449500Y19228205D01*
X4383608Y19114079D01*
X4359332Y19023477D01*
X4349500Y18986783D01*
X500500Y18986783D01*
X500500Y20117668D01*
X520185Y20184707D01*
X572989Y20230462D01*
X642147Y20240406D01*
X705703Y20211381D01*
X731887Y20179668D01*
X781431Y20093856D01*
X874617Y20000670D01*
X988745Y19934778D01*
X1116039Y19900670D01*
X1116041Y19900670D01*
X1247821Y19900670D01*
X1247823Y19900670D01*
X1375117Y19934778D01*
X1489245Y20000670D01*
X1582431Y20093856D01*
X1643489Y20199611D01*
X12283663Y20199611D01*
X12283663Y20067827D01*
X12300717Y20004180D01*
X12317771Y19940532D01*
X12342403Y19897869D01*
X12383663Y19826405D01*
X12476849Y19733219D01*
X12590977Y19667327D01*
X12718271Y19633219D01*
X12718273Y19633219D01*
X12850053Y19633219D01*
X12850055Y19633219D01*
X12977349Y19667327D01*
X13044614Y19706163D01*
X13112511Y19722636D01*
X13178538Y19699785D01*
X13213998Y19660779D01*
X13216500Y19656446D01*
X13309686Y19563260D01*
X13423814Y19497368D01*
X13551108Y19463260D01*
X13551110Y19463260D01*
X13682890Y19463260D01*
X13682892Y19463260D01*
X13810186Y19497368D01*
X13924314Y19563260D01*
X14017500Y19656446D01*
X14073828Y19754008D01*
X16415230Y19754008D01*
X16415230Y19622225D01*
X16449338Y19494929D01*
X16482284Y19437866D01*
X16515230Y19380802D01*
X16608416Y19287616D01*
X16722544Y19221724D01*
X16849838Y19187616D01*
X16849840Y19187616D01*
X16981620Y19187616D01*
X16981622Y19187616D01*
X17108916Y19221724D01*
X17223044Y19287616D01*
X17316230Y19380802D01*
X17382122Y19494930D01*
X17416230Y19622224D01*
X17416230Y19622617D01*
X17416323Y19622935D01*
X17417291Y19630284D01*
X17418436Y19630134D01*
X17435915Y19689656D01*
X17488719Y19735411D01*
X17557877Y19745355D01*
X17621433Y19716330D01*
X17647617Y19684617D01*
X17715227Y19567513D01*
X17715229Y19567511D01*
X17715230Y19567509D01*
X17808416Y19474323D01*
X17922544Y19408431D01*
X18049838Y19374323D01*
X18049840Y19374323D01*
X18181620Y19374323D01*
X18181622Y19374323D01*
X18308916Y19408431D01*
X18423044Y19474323D01*
X18516230Y19567509D01*
X18582122Y19681637D01*
X18616230Y19808931D01*
X18616230Y19940715D01*
X18582122Y20068009D01*
X18516230Y20182137D01*
X18423044Y20275323D01*
X18333702Y20326905D01*
X18308917Y20341215D01*
X18245269Y20358269D01*
X18181622Y20375323D01*
X18049838Y20375323D01*
X17922542Y20341215D01*
X17808416Y20275323D01*
X17808413Y20275321D01*
X17715232Y20182140D01*
X17715230Y20182137D01*
X17649338Y20068011D01*
X17615230Y19940715D01*
X17615230Y19940323D01*
X17615136Y19940006D01*
X17614169Y19932655D01*
X17613022Y19932806D01*
X17595545Y19873284D01*
X17542741Y19827529D01*
X17473583Y19817585D01*
X17410027Y19846610D01*
X17383843Y19878322D01*
X17352386Y19932806D01*
X17316230Y19995430D01*
X17223044Y20088616D01*
X17205206Y20098915D01*
X17193924Y20105429D01*
X17145710Y20155997D01*
X17132488Y20224604D01*
X17158457Y20289468D01*
X17215371Y20329996D01*
X17223784Y20332576D01*
X17264160Y20343394D01*
X17378288Y20409286D01*
X17471474Y20502472D01*
X17537366Y20616600D01*
X17571474Y20743894D01*
X17571474Y20875678D01*
X17537366Y21002972D01*
X17471474Y21117100D01*
X17378288Y21210286D01*
X17315006Y21246822D01*
X17264161Y21276178D01*
X17200513Y21293232D01*
X17136866Y21310286D01*
X17005082Y21310286D01*
X16877786Y21276178D01*
X16763660Y21210286D01*
X16763657Y21210284D01*
X16670476Y21117103D01*
X16670474Y21117100D01*
X16604582Y21002974D01*
X16570474Y20875678D01*
X16570474Y20743895D01*
X16604582Y20616599D01*
X16621554Y20587203D01*
X16670474Y20502472D01*
X16763660Y20409286D01*
X16792778Y20392475D01*
X16840993Y20341907D01*
X16854215Y20273300D01*
X16828247Y20208436D01*
X16771333Y20167908D01*
X16762883Y20165317D01*
X16722544Y20154508D01*
X16722542Y20154508D01*
X16722542Y20154507D01*
X16608416Y20088616D01*
X16608413Y20088614D01*
X16515232Y19995433D01*
X16515230Y19995430D01*
X16449338Y19881304D01*
X16415230Y19754008D01*
X14073828Y19754008D01*
X14083392Y19770574D01*
X14117500Y19897868D01*
X14117500Y20029652D01*
X14083392Y20156946D01*
X14017500Y20271074D01*
X13924314Y20364260D01*
X13846327Y20409286D01*
X13810187Y20430152D01*
X13767255Y20441656D01*
X13682892Y20464260D01*
X13551108Y20464260D01*
X13423811Y20430152D01*
X13356548Y20391317D01*
X13288648Y20374846D01*
X13222621Y20397698D01*
X13187163Y20436703D01*
X13186953Y20437066D01*
X13184663Y20441033D01*
X13091477Y20534219D01*
X13037636Y20565304D01*
X14719327Y20565304D01*
X14719327Y20433520D01*
X14730325Y20392475D01*
X14753435Y20306225D01*
X14763110Y20289468D01*
X14819327Y20192098D01*
X14912513Y20098912D01*
X15026641Y20033020D01*
X15153935Y19998912D01*
X15153937Y19998912D01*
X15285717Y19998912D01*
X15285719Y19998912D01*
X15413013Y20033020D01*
X15527141Y20098912D01*
X15620327Y20192098D01*
X15686219Y20306226D01*
X15720327Y20433520D01*
X15720327Y20565304D01*
X15686219Y20692598D01*
X15620327Y20806726D01*
X15527141Y20899912D01*
X15423785Y20959585D01*
X15413014Y20965804D01*
X15349366Y20982858D01*
X15285719Y20999912D01*
X15153935Y20999912D01*
X15026639Y20965804D01*
X14912513Y20899912D01*
X14912510Y20899910D01*
X14819329Y20806729D01*
X14819327Y20806726D01*
X14753435Y20692600D01*
X14719327Y20565304D01*
X13037636Y20565304D01*
X13021783Y20574457D01*
X12977350Y20600111D01*
X12893149Y20622672D01*
X12850055Y20634219D01*
X12718271Y20634219D01*
X12590975Y20600111D01*
X12476849Y20534219D01*
X12476846Y20534217D01*
X12383665Y20441036D01*
X12383663Y20441033D01*
X12317771Y20326907D01*
X12285906Y20207983D01*
X12283663Y20199611D01*
X1643489Y20199611D01*
X1648323Y20207984D01*
X1682431Y20335278D01*
X1682431Y20467062D01*
X1648323Y20594356D01*
X1582431Y20708484D01*
X1489245Y20801670D01*
X1432181Y20834616D01*
X1375118Y20867562D01*
X1254391Y20899910D01*
X1247823Y20901670D01*
X1116039Y20901670D01*
X988743Y20867562D01*
X874617Y20801670D01*
X874614Y20801668D01*
X781433Y20708487D01*
X781431Y20708484D01*
X731887Y20622672D01*
X681319Y20574457D01*
X612712Y20561235D01*
X547847Y20587203D01*
X507320Y20644118D01*
X500500Y20684673D01*
X500500Y21575000D01*
X3482096Y21575000D01*
X3484584Y21562484D01*
X3484587Y21562477D01*
X3552428Y21398694D01*
X3552433Y21398684D01*
X3650923Y21251284D01*
X3650926Y21251280D01*
X3776279Y21125927D01*
X3776283Y21125924D01*
X3923683Y21027434D01*
X3923692Y21027429D01*
X4087479Y20959587D01*
X4087487Y20959585D01*
X4261353Y20925001D01*
X4261357Y20925000D01*
X4350000Y20925000D01*
X4850000Y20925000D01*
X4938643Y20925000D01*
X4938646Y20925001D01*
X5112512Y20959585D01*
X5112520Y20959587D01*
X5276307Y21027429D01*
X5276316Y21027434D01*
X5423716Y21125924D01*
X5423720Y21125927D01*
X5549073Y21251280D01*
X5549076Y21251284D01*
X5647566Y21398684D01*
X5647571Y21398694D01*
X5715412Y21562477D01*
X5715415Y21562484D01*
X5717904Y21575000D01*
X4850000Y21575000D01*
X4850000Y20925000D01*
X4350000Y20925000D01*
X4350000Y21575000D01*
X3482096Y21575000D01*
X500500Y21575000D01*
X500500Y23824889D01*
X3199500Y23824889D01*
X3199500Y23693105D01*
X3204217Y23675500D01*
X3233608Y23565810D01*
X3256333Y23526450D01*
X3299500Y23451683D01*
X3392686Y23358497D01*
X3482255Y23306784D01*
X3506673Y23292686D01*
X3506814Y23292605D01*
X3634108Y23258497D01*
X3634118Y23258497D01*
X3641682Y23257501D01*
X3705580Y23229236D01*
X3744052Y23170912D01*
X3749500Y23134561D01*
X3749500Y22995944D01*
X3790423Y22843217D01*
X3790423Y22843216D01*
X3861379Y22720315D01*
X3877851Y22652415D01*
X3854998Y22586388D01*
X3822883Y22555215D01*
X3776285Y22524079D01*
X3776279Y22524074D01*
X3650926Y22398721D01*
X3650923Y22398717D01*
X3552433Y22251317D01*
X3552428Y22251307D01*
X3484587Y22087524D01*
X3484584Y22087517D01*
X3482096Y22075000D01*
X4550272Y22075000D01*
X4458386Y22036940D01*
X4388060Y21966614D01*
X4350000Y21874728D01*
X4350000Y21775272D01*
X4388060Y21683386D01*
X4458386Y21613060D01*
X4550272Y21575000D01*
X4649728Y21575000D01*
X4741614Y21613060D01*
X4811940Y21683386D01*
X4850000Y21775272D01*
X4850000Y21874728D01*
X4811940Y21966614D01*
X4741614Y22036940D01*
X4649728Y22075000D01*
X5548655Y22075000D01*
X5615694Y22055315D01*
X5636336Y22038682D01*
X5703265Y21971753D01*
X5817393Y21905861D01*
X5944687Y21871753D01*
X5944689Y21871753D01*
X5958293Y21871753D01*
X6025332Y21852068D01*
X6071087Y21799264D01*
X6082293Y21747753D01*
X6082293Y21681430D01*
X6116401Y21554134D01*
X6144659Y21505190D01*
X6182293Y21440007D01*
X6275479Y21346821D01*
X6340859Y21309074D01*
X6381982Y21285331D01*
X6389607Y21280929D01*
X6516901Y21246821D01*
X6516903Y21246821D01*
X6648683Y21246821D01*
X6648685Y21246821D01*
X6775979Y21280929D01*
X6890107Y21346821D01*
X6897782Y21354496D01*
X9495560Y21354496D01*
X9495560Y21222712D01*
X9503059Y21194724D01*
X9529668Y21095417D01*
X9541746Y21074498D01*
X9595560Y20981290D01*
X9688746Y20888104D01*
X9802874Y20822212D01*
X9930168Y20788104D01*
X9930170Y20788104D01*
X10061950Y20788104D01*
X10061952Y20788104D01*
X10189246Y20822212D01*
X10303374Y20888104D01*
X10396560Y20981290D01*
X10462452Y21095418D01*
X10496560Y21222712D01*
X10496560Y21354496D01*
X10462452Y21481790D01*
X10396560Y21595918D01*
X10303374Y21689104D01*
X10246310Y21722050D01*
X10189247Y21754996D01*
X10113574Y21775272D01*
X10061952Y21789104D01*
X9930168Y21789104D01*
X9802872Y21754996D01*
X9688746Y21689104D01*
X9688743Y21689102D01*
X9595562Y21595921D01*
X9595560Y21595918D01*
X9529668Y21481792D01*
X9509143Y21405188D01*
X9495560Y21354496D01*
X6897782Y21354496D01*
X6983293Y21440007D01*
X7049185Y21554135D01*
X7083293Y21681429D01*
X7083293Y21813213D01*
X7049185Y21940507D01*
X6983293Y22054635D01*
X6890107Y22147821D01*
X6790596Y22205274D01*
X6775980Y22213713D01*
X6712332Y22230767D01*
X6648685Y22247821D01*
X6635079Y22247821D01*
X6626393Y22250372D01*
X6617432Y22249083D01*
X6593391Y22260062D01*
X6568040Y22267506D01*
X6562112Y22274347D01*
X6553876Y22278108D01*
X6539586Y22300343D01*
X6522285Y22320310D01*
X6519997Y22330825D01*
X6516102Y22336886D01*
X6511079Y22371821D01*
X6511079Y22433112D01*
X10356569Y22433112D01*
X10356569Y22301328D01*
X10370568Y22249083D01*
X10390677Y22174033D01*
X10423623Y22116970D01*
X10456569Y22059906D01*
X10549755Y21966720D01*
X10648590Y21909657D01*
X10655165Y21905861D01*
X10663883Y21900828D01*
X10791177Y21866720D01*
X10791179Y21866720D01*
X10922959Y21866720D01*
X10922961Y21866720D01*
X11050255Y21900828D01*
X11164383Y21966720D01*
X11169242Y21971579D01*
X12399602Y21971579D01*
X12399602Y21839795D01*
X12416656Y21776148D01*
X12433710Y21712500D01*
X12451648Y21681431D01*
X12499602Y21598373D01*
X12592788Y21505187D01*
X12691623Y21448124D01*
X12705684Y21440006D01*
X12706916Y21439295D01*
X12834210Y21405187D01*
X12834212Y21405187D01*
X12965992Y21405187D01*
X12965994Y21405187D01*
X13093288Y21439295D01*
X13207416Y21505187D01*
X13300602Y21598373D01*
X13366494Y21712501D01*
X13400602Y21839795D01*
X13400602Y21971579D01*
X13366494Y22098873D01*
X13300602Y22213001D01*
X13207416Y22306187D01*
X13130664Y22350500D01*
X13093289Y22372079D01*
X13029641Y22389133D01*
X12965994Y22406187D01*
X12834210Y22406187D01*
X12706914Y22372079D01*
X12592788Y22306187D01*
X12592785Y22306185D01*
X12499604Y22213004D01*
X12499602Y22213001D01*
X12433710Y22098875D01*
X12417582Y22038682D01*
X12399602Y21971579D01*
X11169242Y21971579D01*
X11257569Y22059906D01*
X11323461Y22174034D01*
X11357569Y22301328D01*
X11357569Y22433112D01*
X11323461Y22560406D01*
X11257569Y22674534D01*
X11164383Y22767720D01*
X11107319Y22800666D01*
X11050256Y22833612D01*
X10954911Y22859159D01*
X10922961Y22867720D01*
X10791177Y22867720D01*
X10663881Y22833612D01*
X10549755Y22767720D01*
X10549752Y22767718D01*
X10456571Y22674537D01*
X10456569Y22674534D01*
X10390677Y22560408D01*
X10383755Y22534574D01*
X10356569Y22433112D01*
X6511079Y22433112D01*
X6511079Y22438143D01*
X6511079Y22438145D01*
X6476971Y22565439D01*
X6411079Y22679567D01*
X6317893Y22772753D01*
X6203765Y22838645D01*
X6142681Y22855013D01*
X6105053Y22865095D01*
X6105051Y22865095D01*
X6076471Y22872753D01*
X5944687Y22872753D01*
X5893953Y22859160D01*
X5893950Y22859159D01*
X5845303Y22846124D01*
X5817393Y22838645D01*
X5817391Y22838645D01*
X5817391Y22838644D01*
X5703265Y22772753D01*
X5703262Y22772751D01*
X5610081Y22679570D01*
X5610074Y22679561D01*
X5559612Y22592159D01*
X5550123Y22583112D01*
X5544463Y22571285D01*
X5525324Y22559467D01*
X5509045Y22543944D01*
X5496170Y22541463D01*
X5485015Y22534574D01*
X5462525Y22534979D01*
X5440438Y22530722D01*
X5426676Y22535624D01*
X5415156Y22535831D01*
X5383321Y22551067D01*
X5377103Y22555223D01*
X5332305Y22608842D01*
X5323607Y22678168D01*
X5338621Y22720316D01*
X5409577Y22843216D01*
X5450500Y22995943D01*
X5450500Y23127324D01*
X5470185Y23194363D01*
X5522989Y23240118D01*
X5592147Y23250062D01*
X5655703Y23221037D01*
X5662181Y23215005D01*
X5677686Y23199500D01*
X5791814Y23133608D01*
X5919108Y23099500D01*
X6050892Y23099500D01*
X6178186Y23133608D01*
X6292314Y23199500D01*
X6385500Y23292686D01*
X6451392Y23406814D01*
X6485500Y23534108D01*
X6485500Y23665892D01*
X6451392Y23793186D01*
X6389921Y23899656D01*
X10990715Y23899656D01*
X10990715Y23767873D01*
X11024823Y23640577D01*
X11034619Y23623611D01*
X11090715Y23526450D01*
X11183901Y23433264D01*
X11298029Y23367372D01*
X11425323Y23333264D01*
X11425325Y23333264D01*
X11557105Y23333264D01*
X11557107Y23333264D01*
X11684401Y23367372D01*
X11798529Y23433264D01*
X11891715Y23526450D01*
X11957607Y23640578D01*
X11991715Y23767872D01*
X11991715Y23899656D01*
X11957607Y24026950D01*
X11891715Y24141078D01*
X11798529Y24234264D01*
X11743748Y24265892D01*
X16599500Y24265892D01*
X16599500Y24134109D01*
X16633608Y24006813D01*
X16661735Y23958096D01*
X16699500Y23892686D01*
X16792686Y23799500D01*
X16906814Y23733608D01*
X17034108Y23699500D01*
X17034110Y23699500D01*
X17165890Y23699500D01*
X17165892Y23699500D01*
X17293186Y23733608D01*
X17407314Y23799500D01*
X17500500Y23892686D01*
X17566392Y24006814D01*
X17600500Y24134108D01*
X17600500Y24265892D01*
X17566392Y24393186D01*
X17500500Y24507314D01*
X17407314Y24600500D01*
X17322442Y24649501D01*
X17293187Y24666392D01*
X17222765Y24685261D01*
X17165892Y24700500D01*
X17034108Y24700500D01*
X16906812Y24666392D01*
X16792686Y24600500D01*
X16792683Y24600498D01*
X16699502Y24507317D01*
X16699500Y24507314D01*
X16633608Y24393188D01*
X16599500Y24265892D01*
X11743748Y24265892D01*
X11735524Y24270640D01*
X11684402Y24300156D01*
X11620754Y24317210D01*
X11557107Y24334264D01*
X11425323Y24334264D01*
X11298027Y24300156D01*
X11183901Y24234264D01*
X11183898Y24234262D01*
X11090717Y24141081D01*
X11090715Y24141078D01*
X11024823Y24026952D01*
X10990715Y23899656D01*
X6389921Y23899656D01*
X6385500Y23907314D01*
X6292314Y24000500D01*
X6202061Y24052608D01*
X6178187Y24066392D01*
X6114539Y24083446D01*
X6050892Y24100500D01*
X5919108Y24100500D01*
X5791812Y24066392D01*
X5677686Y24000500D01*
X5582685Y23905499D01*
X5542162Y23883374D01*
X5543696Y23879262D01*
X5528844Y23810989D01*
X5527401Y23808418D01*
X5518609Y23793190D01*
X5518609Y23793189D01*
X5518608Y23793187D01*
X5518608Y23793186D01*
X5511825Y23767872D01*
X5484500Y23665892D01*
X5484500Y23589098D01*
X5480470Y23575376D01*
X5481297Y23561098D01*
X5470823Y23542521D01*
X5464815Y23522059D01*
X5454007Y23512695D01*
X5446983Y23500235D01*
X5428126Y23490268D01*
X5412011Y23476304D01*
X5397857Y23474269D01*
X5385212Y23467585D01*
X5363961Y23469396D01*
X5342853Y23466360D01*
X5328511Y23472415D01*
X5315594Y23473515D01*
X5296675Y23485856D01*
X5284850Y23490848D01*
X5278493Y23495743D01*
X5218716Y23555520D01*
X5147337Y23596730D01*
X5140818Y23601750D01*
X5124911Y23623611D01*
X5106253Y23643179D01*
X5104660Y23651443D01*
X5099709Y23658247D01*
X5098146Y23685236D01*
X5093029Y23711786D01*
X5096157Y23719601D01*
X5095671Y23728000D01*
X5108947Y23751549D01*
X5118997Y23776651D01*
X5127018Y23783603D01*
X5129985Y23788863D01*
X5137946Y23793072D01*
X5154466Y23807386D01*
X5218716Y23844480D01*
X5330520Y23956284D01*
X5330522Y23956289D01*
X5332330Y23958096D01*
X5372853Y23980224D01*
X5371320Y23984336D01*
X5386172Y24052608D01*
X5387572Y24055103D01*
X5409577Y24093216D01*
X5450500Y24245943D01*
X5450500Y24404057D01*
X5409577Y24556784D01*
X5393136Y24585261D01*
X5330524Y24693710D01*
X5330518Y24693718D01*
X5218717Y24805519D01*
X5213331Y24809652D01*
X5172130Y24866081D01*
X5167977Y24935827D01*
X5202191Y24996747D01*
X5232522Y25018509D01*
X5288342Y25046950D01*
X5378050Y25136658D01*
X5435646Y25249696D01*
X5435646Y25249698D01*
X5435647Y25249699D01*
X5450453Y25343186D01*
X5450500Y25343481D01*
X5450499Y25806518D01*
X5438290Y25883608D01*
X5437514Y25888507D01*
X10257648Y25888507D01*
X10257648Y25756723D01*
X10269773Y25711473D01*
X10291756Y25629428D01*
X10317882Y25584177D01*
X10357648Y25515301D01*
X10450834Y25422115D01*
X10473361Y25409109D01*
X10521577Y25358542D01*
X10534799Y25289935D01*
X10531136Y25269629D01*
X10499525Y25151653D01*
X10499525Y25019869D01*
X10512744Y24970536D01*
X10533633Y24892574D01*
X10562438Y24842684D01*
X10599525Y24778447D01*
X10692711Y24685261D01*
X10806839Y24619369D01*
X10934133Y24585261D01*
X10934135Y24585261D01*
X11065915Y24585261D01*
X11065917Y24585261D01*
X11193211Y24619369D01*
X11307339Y24685261D01*
X11400525Y24778447D01*
X11466417Y24892575D01*
X11500525Y25019869D01*
X11500525Y25151653D01*
X11466417Y25278947D01*
X11400525Y25393075D01*
X11307339Y25486261D01*
X11307336Y25486263D01*
X11307332Y25486266D01*
X11284810Y25499269D01*
X11236595Y25549836D01*
X11229977Y25584177D01*
X12286548Y25584177D01*
X12286548Y25452394D01*
X12320656Y25325098D01*
X12340958Y25289935D01*
X12386548Y25210971D01*
X12479734Y25117785D01*
X12593862Y25051893D01*
X12721156Y25017785D01*
X12721158Y25017785D01*
X12852938Y25017785D01*
X12852940Y25017785D01*
X12980234Y25051893D01*
X13094362Y25117785D01*
X13187548Y25210971D01*
X13190389Y25215892D01*
X13499500Y25215892D01*
X13499500Y25084109D01*
X13533608Y24956813D01*
X13545725Y24935827D01*
X13599500Y24842686D01*
X13692686Y24749500D01*
X13806814Y24683608D01*
X13934108Y24649500D01*
X13934110Y24649500D01*
X14065890Y24649500D01*
X14065892Y24649500D01*
X14193186Y24683608D01*
X14307314Y24749500D01*
X14400500Y24842686D01*
X14466392Y24956814D01*
X14500500Y25084108D01*
X14500500Y25215892D01*
X14466392Y25343186D01*
X14400500Y25457314D01*
X14307314Y25550500D01*
X14248984Y25584177D01*
X14193187Y25616392D01*
X14129539Y25633446D01*
X14065892Y25650500D01*
X13934108Y25650500D01*
X13806812Y25616392D01*
X13692686Y25550500D01*
X13692683Y25550498D01*
X13599502Y25457317D01*
X13599500Y25457314D01*
X13533608Y25343188D01*
X13499500Y25215892D01*
X13190389Y25215892D01*
X13253440Y25325099D01*
X13287548Y25452393D01*
X13287548Y25584177D01*
X13253440Y25711471D01*
X13187548Y25825599D01*
X13094362Y25918785D01*
X13037298Y25951731D01*
X12980235Y25984677D01*
X12916587Y26001731D01*
X12852940Y26018785D01*
X12721156Y26018785D01*
X12593860Y25984677D01*
X12479734Y25918785D01*
X12479731Y25918783D01*
X12386550Y25825602D01*
X12386548Y25825599D01*
X12320656Y25711473D01*
X12286548Y25584177D01*
X11229977Y25584177D01*
X11223373Y25618443D01*
X11227033Y25638735D01*
X11258648Y25756723D01*
X11258648Y25888507D01*
X11224540Y26015801D01*
X11158648Y26129929D01*
X11065462Y26223115D01*
X11008398Y26256061D01*
X10951335Y26289007D01*
X10887687Y26306061D01*
X10824040Y26323115D01*
X10692256Y26323115D01*
X10564960Y26289007D01*
X10450834Y26223115D01*
X10450831Y26223113D01*
X10357650Y26129932D01*
X10357648Y26129929D01*
X10291756Y26015803D01*
X10273991Y25949501D01*
X10257648Y25888507D01*
X5437514Y25888507D01*
X5435647Y25900300D01*
X5435647Y25900301D01*
X5435646Y25900303D01*
X5435646Y25900304D01*
X5378050Y26013342D01*
X5378046Y26013346D01*
X5378045Y26013348D01*
X5281442Y26109951D01*
X5284006Y26112516D01*
X5252416Y26153472D01*
X5246427Y26223085D01*
X5279025Y26284884D01*
X5335866Y26318250D01*
X5393186Y26333608D01*
X5507314Y26399500D01*
X5600500Y26492686D01*
X5666392Y26606814D01*
X5700500Y26734108D01*
X5700500Y26865892D01*
X5666392Y26993186D01*
X5659058Y27005888D01*
X5627769Y27060082D01*
X5600500Y27107314D01*
X5507314Y27200500D01*
X5450250Y27233446D01*
X5393187Y27266392D01*
X5323247Y27285132D01*
X5265892Y27300500D01*
X5134108Y27300500D01*
X4999467Y27264424D01*
X4929617Y27266087D01*
X4871754Y27305250D01*
X4844251Y27369479D01*
X4855838Y27438381D01*
X4879690Y27471877D01*
X4890880Y27483066D01*
X4956772Y27597194D01*
X4990880Y27724488D01*
X4990880Y27799031D01*
X5609500Y27799031D01*
X5609500Y27667250D01*
X5643608Y27539954D01*
X5649582Y27529607D01*
X5709500Y27425827D01*
X5802686Y27332641D01*
X5916814Y27266749D01*
X6044108Y27232641D01*
X6044110Y27232641D01*
X6175890Y27232641D01*
X6175892Y27232641D01*
X6303186Y27266749D01*
X6417314Y27332641D01*
X6510500Y27425827D01*
X6529930Y27459480D01*
X12344486Y27459480D01*
X12344486Y27327696D01*
X12354619Y27289880D01*
X12378594Y27200401D01*
X12380320Y27197412D01*
X12444486Y27086274D01*
X12537672Y26993088D01*
X12651800Y26927196D01*
X12779094Y26893088D01*
X12779096Y26893088D01*
X12910876Y26893088D01*
X12910878Y26893088D01*
X13038172Y26927196D01*
X13152300Y26993088D01*
X13165100Y27005888D01*
X14913101Y27005888D01*
X14913101Y26874104D01*
X14915302Y26865890D01*
X14947209Y26746809D01*
X14980155Y26689746D01*
X15013101Y26632682D01*
X15106287Y26539496D01*
X15220415Y26473604D01*
X15347709Y26439496D01*
X15347711Y26439496D01*
X15479491Y26439496D01*
X15479493Y26439496D01*
X15606787Y26473604D01*
X15720915Y26539496D01*
X15814101Y26632682D01*
X15879993Y26746810D01*
X15914101Y26874104D01*
X15914101Y27005888D01*
X15879993Y27133182D01*
X15879746Y27133609D01*
X15844542Y27194584D01*
X15814101Y27247310D01*
X15720915Y27340496D01*
X15635380Y27389880D01*
X15606788Y27406388D01*
X15534224Y27425831D01*
X15479493Y27440496D01*
X15347709Y27440496D01*
X15220413Y27406388D01*
X15106287Y27340496D01*
X15106284Y27340494D01*
X15013103Y27247313D01*
X15013101Y27247310D01*
X14947209Y27133184D01*
X14928239Y27062385D01*
X14913101Y27005888D01*
X13165100Y27005888D01*
X13245486Y27086274D01*
X13281815Y27149199D01*
X13332380Y27197412D01*
X13400987Y27210636D01*
X13451199Y27194585D01*
X13556814Y27133608D01*
X13684108Y27099500D01*
X13684110Y27099500D01*
X13815890Y27099500D01*
X13815892Y27099500D01*
X13943186Y27133608D01*
X14057314Y27199500D01*
X14150500Y27292686D01*
X14216392Y27406814D01*
X14250500Y27534108D01*
X14250500Y27665892D01*
X14216392Y27793186D01*
X14215872Y27794086D01*
X14202139Y27817873D01*
X14150500Y27907314D01*
X14057314Y28000500D01*
X13970712Y28050500D01*
X13943187Y28066392D01*
X13866271Y28087001D01*
X13815892Y28100500D01*
X13684108Y28100500D01*
X13556812Y28066392D01*
X13442686Y28000500D01*
X13442683Y28000498D01*
X13349502Y27907317D01*
X13349496Y27907308D01*
X13313170Y27844391D01*
X13262603Y27796176D01*
X13193996Y27782954D01*
X13143784Y27799005D01*
X13038175Y27859979D01*
X13038172Y27859980D01*
X12910878Y27894088D01*
X12779094Y27894088D01*
X12651798Y27859980D01*
X12537672Y27794088D01*
X12537669Y27794086D01*
X12444488Y27700905D01*
X12444486Y27700902D01*
X12378594Y27586776D01*
X12363276Y27529607D01*
X12344486Y27459480D01*
X6529930Y27459480D01*
X6576392Y27539955D01*
X6610500Y27667249D01*
X6610500Y27799033D01*
X6576392Y27926327D01*
X6510500Y28040455D01*
X6495311Y28055644D01*
X6461826Y28116967D01*
X6466810Y28186659D01*
X6495311Y28231006D01*
X6530197Y28265892D01*
X6582300Y28317995D01*
X6648192Y28432123D01*
X6682300Y28559417D01*
X6682300Y28691201D01*
X6648192Y28818495D01*
X6647034Y28820500D01*
X6618566Y28869808D01*
X6582300Y28932623D01*
X6489114Y29025809D01*
X6422456Y29064294D01*
X6374987Y29091701D01*
X6302229Y29111196D01*
X6247692Y29125809D01*
X6115908Y29125809D01*
X5988612Y29091701D01*
X5874486Y29025809D01*
X5874483Y29025807D01*
X5781302Y28932626D01*
X5781300Y28932623D01*
X5715408Y28818497D01*
X5704047Y28776095D01*
X5681300Y28691201D01*
X5681300Y28559417D01*
X5685402Y28544109D01*
X5715408Y28432122D01*
X5737887Y28393188D01*
X5781300Y28317995D01*
X5781302Y28317993D01*
X5796489Y28302806D01*
X5829974Y28241483D01*
X5824990Y28171791D01*
X5796489Y28127444D01*
X5709502Y28040458D01*
X5709500Y28040455D01*
X5643608Y27926329D01*
X5618640Y27833146D01*
X5609626Y27799501D01*
X5609501Y27799036D01*
X5609500Y27799031D01*
X4990880Y27799031D01*
X4990880Y27856272D01*
X4956772Y27983566D01*
X4890880Y28097694D01*
X4797694Y28190880D01*
X4719664Y28235931D01*
X4683567Y28256772D01*
X4596179Y28280187D01*
X4556272Y28290880D01*
X4424488Y28290880D01*
X4297192Y28256772D01*
X4183066Y28190880D01*
X4183063Y28190878D01*
X4089882Y28097697D01*
X4089880Y28097694D01*
X4073745Y28069748D01*
X4023176Y28021534D01*
X3954569Y28008313D01*
X3928799Y28014726D01*
X3928682Y28014288D01*
X3920832Y28016392D01*
X3920831Y28016392D01*
X3793537Y28050500D01*
X3661753Y28050500D01*
X3534457Y28016392D01*
X3420331Y27950500D01*
X3420328Y27950498D01*
X3327147Y27857317D01*
X3327145Y27857314D01*
X3261253Y27743188D01*
X3227145Y27615892D01*
X3227145Y27484109D01*
X3261253Y27356813D01*
X3278064Y27327696D01*
X3327145Y27242686D01*
X3420331Y27149500D01*
X3519166Y27092437D01*
X3529839Y27086275D01*
X3534459Y27083608D01*
X3622265Y27060081D01*
X3681923Y27023717D01*
X3712453Y26960871D01*
X3704159Y26891495D01*
X3659674Y26837617D01*
X3622267Y26820533D01*
X3606813Y26816392D01*
X3492686Y26750500D01*
X3492683Y26750498D01*
X3399502Y26657317D01*
X3399500Y26657314D01*
X3333608Y26543188D01*
X3299500Y26415892D01*
X3299500Y26284109D01*
X3333608Y26156813D01*
X3360664Y26109951D01*
X3399500Y26042686D01*
X3492686Y25949500D01*
X3606814Y25883608D01*
X3657594Y25870002D01*
X3717253Y25833639D01*
X3747783Y25770793D01*
X3749500Y25750228D01*
X3749500Y25343483D01*
X3752413Y25325094D01*
X3764354Y25249696D01*
X3821950Y25136658D01*
X3821952Y25136656D01*
X3821954Y25136653D01*
X3911652Y25046955D01*
X3911656Y25046952D01*
X3911658Y25046950D01*
X3967475Y25018510D01*
X4018270Y24970536D01*
X4035065Y24902715D01*
X4012528Y24836581D01*
X3986672Y24809655D01*
X3981284Y24805521D01*
X3869481Y24693718D01*
X3869475Y24693710D01*
X3790426Y24556791D01*
X3790423Y24556784D01*
X3749500Y24404057D01*
X3749500Y24383434D01*
X3729815Y24316395D01*
X3677011Y24270640D01*
X3641690Y24260495D01*
X3634107Y24259497D01*
X3506812Y24225389D01*
X3392686Y24159497D01*
X3392683Y24159495D01*
X3299502Y24066314D01*
X3299500Y24066311D01*
X3233608Y23952185D01*
X3219533Y23899654D01*
X3199500Y23824889D01*
X500500Y23824889D01*
X500500Y28265892D01*
X1649500Y28265892D01*
X1649500Y28134108D01*
X1663044Y28083560D01*
X1683608Y28006813D01*
X1693100Y27990373D01*
X1749500Y27892686D01*
X1842686Y27799500D01*
X1956814Y27733608D01*
X2084108Y27699500D01*
X2084110Y27699500D01*
X2215890Y27699500D01*
X2215892Y27699500D01*
X2343186Y27733608D01*
X2457314Y27799500D01*
X2550500Y27892686D01*
X2616392Y28006814D01*
X2650500Y28134108D01*
X2650500Y28265892D01*
X2616392Y28393186D01*
X2550500Y28507314D01*
X2457314Y28600500D01*
X2380574Y28644806D01*
X2343187Y28666392D01*
X2250604Y28691199D01*
X2215892Y28700500D01*
X2084108Y28700500D01*
X1956812Y28666392D01*
X1842686Y28600500D01*
X1842683Y28600498D01*
X1749502Y28507317D01*
X1749500Y28507314D01*
X1683608Y28393188D01*
X1659391Y28302806D01*
X1649500Y28265892D01*
X500500Y28265892D01*
X500500Y30915892D01*
X849500Y30915892D01*
X849500Y30784108D01*
X866554Y30720461D01*
X883608Y30656813D01*
X894470Y30638000D01*
X949500Y30542686D01*
X1042686Y30449500D01*
X1156814Y30383608D01*
X1284108Y30349500D01*
X1284110Y30349500D01*
X1415890Y30349500D01*
X1415892Y30349500D01*
X1449574Y30358525D01*
X4546698Y30358525D01*
X4546698Y30226742D01*
X4580806Y30099446D01*
X4610055Y30048787D01*
X4646698Y29985319D01*
X4739884Y29892133D01*
X4739887Y29892131D01*
X4746333Y29887185D01*
X4745018Y29885472D01*
X4785391Y29843127D01*
X4798611Y29774519D01*
X4784891Y29731601D01*
X4785418Y29731382D01*
X4782805Y29725075D01*
X4782563Y29724316D01*
X4782309Y29723877D01*
X4782307Y29723872D01*
X4748199Y29596578D01*
X4748199Y29464795D01*
X4782307Y29337499D01*
X4815253Y29280436D01*
X4848199Y29223372D01*
X4941385Y29130186D01*
X5055513Y29064294D01*
X5182807Y29030186D01*
X5182809Y29030186D01*
X5314589Y29030186D01*
X5314591Y29030186D01*
X5441885Y29064294D01*
X5556013Y29130186D01*
X5649199Y29223372D01*
X5715091Y29337500D01*
X5748743Y29463094D01*
X7033345Y29463094D01*
X7033345Y29331311D01*
X7067453Y29204015D01*
X7100399Y29146952D01*
X7133345Y29089888D01*
X7133347Y29089886D01*
X7171171Y29052062D01*
X7204656Y28990739D01*
X7199672Y28921047D01*
X7190877Y28902381D01*
X7133609Y28803190D01*
X7133609Y28803189D01*
X7099500Y28675892D01*
X7099500Y28544109D01*
X7133608Y28416813D01*
X7161157Y28369097D01*
X7199500Y28302686D01*
X7292686Y28209500D01*
X7406814Y28143608D01*
X7534108Y28109500D01*
X7534110Y28109500D01*
X7665890Y28109500D01*
X7665892Y28109500D01*
X7793186Y28143608D01*
X7907314Y28209500D01*
X8000500Y28302686D01*
X8066392Y28416814D01*
X8100500Y28544108D01*
X8100500Y28675892D01*
X8073518Y28776590D01*
X8411818Y28776590D01*
X8411818Y28644806D01*
X8421644Y28608134D01*
X8445926Y28517511D01*
X8464182Y28485892D01*
X8511818Y28403384D01*
X8605004Y28310198D01*
X8719132Y28244306D01*
X8846426Y28210198D01*
X8846428Y28210198D01*
X8978207Y28210198D01*
X8978210Y28210198D01*
X9037926Y28226199D01*
X9107774Y28224536D01*
X9165637Y28185374D01*
X9177405Y28168424D01*
X9197217Y28134109D01*
X9226404Y28083556D01*
X9319590Y27990370D01*
X9433718Y27924478D01*
X9561012Y27890370D01*
X9561014Y27890370D01*
X9692794Y27890370D01*
X9692796Y27890370D01*
X9820090Y27924478D01*
X9934218Y27990370D01*
X10027404Y28083556D01*
X10039979Y28105338D01*
X10090544Y28153552D01*
X10159150Y28166777D01*
X10209366Y28150725D01*
X10260661Y28121110D01*
X10260662Y28121110D01*
X10260665Y28121108D01*
X10387959Y28087000D01*
X10387961Y28087000D01*
X10519741Y28087000D01*
X10519743Y28087000D01*
X10647037Y28121108D01*
X10761165Y28187000D01*
X10854351Y28280186D01*
X10920243Y28394314D01*
X10944781Y28485892D01*
X11315276Y28485892D01*
X11315276Y28354109D01*
X11349384Y28226813D01*
X11373309Y28185374D01*
X11415276Y28112686D01*
X11508462Y28019500D01*
X11622590Y27953608D01*
X11749884Y27919500D01*
X11749886Y27919500D01*
X11881666Y27919500D01*
X11881668Y27919500D01*
X12008962Y27953608D01*
X12123090Y28019500D01*
X12216276Y28112686D01*
X12282168Y28226814D01*
X12316276Y28354108D01*
X12316276Y28485892D01*
X12282168Y28613186D01*
X12216276Y28727314D01*
X12123090Y28820500D01*
X12059417Y28857262D01*
X12008963Y28886392D01*
X11943673Y28903886D01*
X11881668Y28920500D01*
X11749884Y28920500D01*
X11622588Y28886392D01*
X11508462Y28820500D01*
X11508459Y28820498D01*
X11415278Y28727317D01*
X11415276Y28727314D01*
X11349384Y28613188D01*
X11315276Y28485892D01*
X10944781Y28485892D01*
X10954351Y28521608D01*
X10954351Y28653392D01*
X10920243Y28780686D01*
X10854351Y28894814D01*
X10761165Y28988000D01*
X10695678Y29025809D01*
X10647038Y29053892D01*
X10583390Y29070946D01*
X10519743Y29088000D01*
X10387959Y29088000D01*
X10260663Y29053892D01*
X10146537Y28988000D01*
X10146534Y28987998D01*
X10053353Y28894817D01*
X10053349Y28894811D01*
X10040774Y28873031D01*
X9990206Y28824816D01*
X9921599Y28811595D01*
X9871388Y28827646D01*
X9820093Y28857261D01*
X9820090Y28857262D01*
X9692796Y28891370D01*
X9561012Y28891370D01*
X9561008Y28891370D01*
X9501294Y28875370D01*
X9431445Y28877034D01*
X9373583Y28916197D01*
X9361816Y28933145D01*
X9351796Y28950500D01*
X9312818Y29018012D01*
X9219632Y29111198D01*
X9162568Y29144144D01*
X9105505Y29177090D01*
X9041857Y29194144D01*
X8978210Y29211198D01*
X8846426Y29211198D01*
X8719130Y29177090D01*
X8605004Y29111198D01*
X8605001Y29111196D01*
X8511820Y29018015D01*
X8511818Y29018012D01*
X8445926Y28903886D01*
X8411818Y28776590D01*
X8073518Y28776590D01*
X8066392Y28803186D01*
X8000500Y28917314D01*
X7984669Y28933145D01*
X7962672Y28955143D01*
X7929187Y29016466D01*
X7934173Y29086158D01*
X7942968Y29104824D01*
X7957612Y29130187D01*
X8000237Y29204016D01*
X8034345Y29331310D01*
X8034345Y29463094D01*
X8000237Y29590388D01*
X7934345Y29704516D01*
X7841159Y29797702D01*
X7773093Y29837000D01*
X7727032Y29863594D01*
X7638987Y29887185D01*
X7599737Y29897702D01*
X7467953Y29897702D01*
X7340657Y29863594D01*
X7226531Y29797702D01*
X7226528Y29797700D01*
X7133347Y29704519D01*
X7133345Y29704516D01*
X7067453Y29590390D01*
X7033345Y29463094D01*
X5748743Y29463094D01*
X5749199Y29464794D01*
X5749199Y29596578D01*
X5715091Y29723872D01*
X5714396Y29725075D01*
X5687819Y29771108D01*
X5649199Y29838000D01*
X5556013Y29931186D01*
X5556010Y29931188D01*
X5549564Y29936134D01*
X5550879Y29937849D01*
X5510511Y29980181D01*
X5497284Y30048787D01*
X5511007Y30091714D01*
X5510478Y30091933D01*
X5513105Y30098277D01*
X5513343Y30099020D01*
X5513590Y30099447D01*
X5547698Y30226741D01*
X5547698Y30303392D01*
X12299500Y30303392D01*
X12299500Y30171609D01*
X12333608Y30044313D01*
X12364030Y29991622D01*
X12399500Y29930186D01*
X12492686Y29837000D01*
X12606814Y29771108D01*
X12734108Y29737000D01*
X12734110Y29737000D01*
X12865890Y29737000D01*
X12865892Y29737000D01*
X12993186Y29771108D01*
X13107314Y29837000D01*
X13200500Y29930186D01*
X13266392Y30044314D01*
X13300500Y30171608D01*
X13300500Y30303392D01*
X13266392Y30430686D01*
X13200500Y30544814D01*
X13107314Y30638000D01*
X13011825Y30693131D01*
X12993187Y30703892D01*
X12929539Y30720946D01*
X12865892Y30738000D01*
X12734108Y30738000D01*
X12606812Y30703892D01*
X12492686Y30638000D01*
X12492683Y30637998D01*
X12399502Y30544817D01*
X12399500Y30544814D01*
X12333608Y30430688D01*
X12299500Y30303392D01*
X5547698Y30303392D01*
X5547698Y30358525D01*
X5513590Y30485819D01*
X5447698Y30599947D01*
X5354512Y30693133D01*
X5297448Y30726079D01*
X5240385Y30759025D01*
X5146768Y30784109D01*
X5113090Y30793133D01*
X4981306Y30793133D01*
X4854010Y30759025D01*
X4739884Y30693133D01*
X4739881Y30693131D01*
X4646700Y30599950D01*
X4646698Y30599947D01*
X4580806Y30485821D01*
X4546698Y30358525D01*
X1449574Y30358525D01*
X1543186Y30383608D01*
X1657314Y30449500D01*
X1750500Y30542686D01*
X1816392Y30656814D01*
X1850500Y30784108D01*
X1850500Y30915892D01*
X1816392Y31043186D01*
X1750500Y31157314D01*
X1657314Y31250500D01*
X1564532Y31304068D01*
X1543187Y31316392D01*
X1477061Y31334110D01*
X1415892Y31350500D01*
X1284108Y31350500D01*
X1156812Y31316392D01*
X1042686Y31250500D01*
X1042683Y31250498D01*
X949502Y31157317D01*
X949500Y31157314D01*
X883608Y31043188D01*
X871902Y30999500D01*
X849500Y30915892D01*
X500500Y30915892D01*
X500500Y32165892D01*
X1099500Y32165892D01*
X1099500Y32034108D01*
X1116554Y31970461D01*
X1133608Y31906813D01*
X1137253Y31900500D01*
X1199500Y31792686D01*
X1292686Y31699500D01*
X1391521Y31642437D01*
X1404068Y31635193D01*
X1406814Y31633608D01*
X1534108Y31599500D01*
X1534110Y31599500D01*
X1665890Y31599500D01*
X1665892Y31599500D01*
X1793186Y31633608D01*
X1868821Y31677276D01*
X5620205Y31677276D01*
X5620205Y31545493D01*
X5654313Y31418197D01*
X5687259Y31361134D01*
X5720205Y31304070D01*
X5813391Y31210884D01*
X5927519Y31144992D01*
X6054813Y31110884D01*
X6054815Y31110884D01*
X6186595Y31110884D01*
X6186597Y31110884D01*
X6313891Y31144992D01*
X6428019Y31210884D01*
X6521205Y31304070D01*
X6587097Y31418198D01*
X6599876Y31465892D01*
X17249500Y31465892D01*
X17249500Y31334109D01*
X17283608Y31206813D01*
X17312185Y31157317D01*
X17349500Y31092686D01*
X17442686Y30999500D01*
X17556814Y30933608D01*
X17684108Y30899500D01*
X17684110Y30899500D01*
X17815890Y30899500D01*
X17815892Y30899500D01*
X17943186Y30933608D01*
X18057314Y30999500D01*
X18150500Y31092686D01*
X18216392Y31206814D01*
X18250500Y31334108D01*
X18250500Y31465892D01*
X18216392Y31593186D01*
X18211831Y31601085D01*
X18193054Y31633608D01*
X18150500Y31707314D01*
X18057314Y31800500D01*
X18000250Y31833446D01*
X17943187Y31866392D01*
X17879539Y31883446D01*
X17815892Y31900500D01*
X17684108Y31900500D01*
X17556812Y31866392D01*
X17442686Y31800500D01*
X17442683Y31800498D01*
X17349502Y31707317D01*
X17349500Y31707314D01*
X17283608Y31593188D01*
X17249500Y31465892D01*
X6599876Y31465892D01*
X6621205Y31545492D01*
X6621205Y31677276D01*
X6587097Y31804570D01*
X6521205Y31918698D01*
X6428019Y32011884D01*
X6330448Y32068217D01*
X6330447Y32068218D01*
X6313896Y32077774D01*
X6313893Y32077775D01*
X6313892Y32077776D01*
X6313891Y32077776D01*
X6186597Y32111884D01*
X6054813Y32111884D01*
X5927517Y32077776D01*
X5813391Y32011884D01*
X5813388Y32011882D01*
X5720207Y31918701D01*
X5720205Y31918698D01*
X5654313Y31804572D01*
X5620205Y31677276D01*
X1868821Y31677276D01*
X1907314Y31699500D01*
X2000500Y31792686D01*
X2066392Y31906814D01*
X2100500Y32034108D01*
X2100500Y32165892D01*
X2100075Y32167477D01*
X12401784Y32167477D01*
X12401784Y32035693D01*
X12402209Y32034108D01*
X12435892Y31908398D01*
X12460145Y31866392D01*
X12501784Y31794271D01*
X12594970Y31701085D01*
X12709098Y31635193D01*
X12836392Y31601085D01*
X12836394Y31601085D01*
X12968174Y31601085D01*
X12968176Y31601085D01*
X13095470Y31635193D01*
X13209598Y31701085D01*
X13302784Y31794271D01*
X13368676Y31908399D01*
X13402784Y32035693D01*
X13402784Y32167477D01*
X13368676Y32294771D01*
X13302784Y32408899D01*
X13302782Y32408901D01*
X13298720Y32415937D01*
X13300617Y32417033D01*
X13279558Y32471494D01*
X13293591Y32539940D01*
X13306042Y32556747D01*
X13304996Y32557550D01*
X13309940Y32563994D01*
X13309942Y32563999D01*
X13309945Y32564001D01*
X13375837Y32678129D01*
X13409945Y32805423D01*
X13409945Y32937207D01*
X13375837Y33064501D01*
X13375835Y33064504D01*
X13375836Y33064504D01*
X13346166Y33115892D01*
X14499500Y33115892D01*
X14499500Y32984108D01*
X14512067Y32937207D01*
X14533608Y32856813D01*
X14563278Y32805424D01*
X14599500Y32742686D01*
X14692686Y32649500D01*
X14806814Y32583608D01*
X14934108Y32549500D01*
X14934110Y32549500D01*
X15065890Y32549500D01*
X15065892Y32549500D01*
X15193186Y32583608D01*
X15307314Y32649500D01*
X15400500Y32742686D01*
X15466392Y32856814D01*
X15500500Y32984108D01*
X15500500Y33115892D01*
X15466392Y33243186D01*
X15400500Y33357314D01*
X15307314Y33450500D01*
X15222439Y33499503D01*
X15193187Y33516392D01*
X15129539Y33533446D01*
X15065892Y33550500D01*
X14934108Y33550500D01*
X14806812Y33516392D01*
X14692686Y33450500D01*
X14692683Y33450498D01*
X14599502Y33357317D01*
X14599500Y33357314D01*
X14533608Y33243188D01*
X14519219Y33189485D01*
X14499500Y33115892D01*
X13346166Y33115892D01*
X13309945Y33178629D01*
X13216759Y33271815D01*
X13159695Y33304761D01*
X13102632Y33337707D01*
X13029445Y33357317D01*
X12975337Y33371815D01*
X12843553Y33371815D01*
X12716257Y33337707D01*
X12602131Y33271815D01*
X12602128Y33271813D01*
X12508947Y33178632D01*
X12508945Y33178629D01*
X12443053Y33064503D01*
X12408945Y32937207D01*
X12408945Y32805424D01*
X12443053Y32678128D01*
X12459580Y32649503D01*
X12508945Y32564001D01*
X12508946Y32564000D01*
X12513009Y32556963D01*
X12511111Y32555868D01*
X12532171Y32501402D01*
X12518135Y32432957D01*
X12505722Y32416132D01*
X12506736Y32415354D01*
X12501789Y32408907D01*
X12435892Y32294772D01*
X12435892Y32294771D01*
X12401784Y32167477D01*
X2100075Y32167477D01*
X2066392Y32293186D01*
X2000500Y32407314D01*
X1907314Y32500500D01*
X1822442Y32549501D01*
X1793187Y32566392D01*
X1728931Y32583609D01*
X1665892Y32600500D01*
X1534108Y32600500D01*
X1406812Y32566392D01*
X1292686Y32500500D01*
X1292683Y32500498D01*
X1199502Y32407317D01*
X1199500Y32407314D01*
X1133608Y32293188D01*
X1099925Y32167477D01*
X1099500Y32165892D01*
X500500Y32165892D01*
X500500Y32854879D01*
X4971314Y32854879D01*
X4971314Y32723095D01*
X4983363Y32678128D01*
X5005422Y32595800D01*
X5022401Y32566392D01*
X5071314Y32481673D01*
X5164500Y32388487D01*
X5278628Y32322595D01*
X5405922Y32288487D01*
X5405924Y32288487D01*
X5537704Y32288487D01*
X5537706Y32288487D01*
X5665000Y32322595D01*
X5779128Y32388487D01*
X5872314Y32481673D01*
X5938206Y32595801D01*
X5972314Y32723095D01*
X5972314Y32854879D01*
X5938206Y32982173D01*
X5872314Y33096301D01*
X5779128Y33189487D01*
X5686119Y33243186D01*
X5665001Y33255379D01*
X5601353Y33272433D01*
X5537706Y33289487D01*
X5405922Y33289487D01*
X5278626Y33255379D01*
X5164500Y33189487D01*
X5164497Y33189485D01*
X5071316Y33096304D01*
X5071314Y33096301D01*
X5005422Y32982175D01*
X4993373Y32937205D01*
X4971314Y32854879D01*
X500500Y32854879D01*
X500500Y33965892D01*
X1399500Y33965892D01*
X1399500Y33834109D01*
X1433608Y33706813D01*
X1466554Y33649750D01*
X1499500Y33592686D01*
X1592686Y33499500D01*
X1706814Y33433608D01*
X1834108Y33399500D01*
X1834110Y33399500D01*
X1965890Y33399500D01*
X1965892Y33399500D01*
X2093186Y33433608D01*
X2207314Y33499500D01*
X2300500Y33592686D01*
X2366392Y33706814D01*
X2400500Y33834108D01*
X2400500Y33965892D01*
X2366392Y34093186D01*
X2300500Y34207314D01*
X2207314Y34300500D01*
X2150250Y34333446D01*
X2094053Y34365892D01*
X5699500Y34365892D01*
X5699500Y34234108D01*
X5716554Y34170461D01*
X5733608Y34106813D01*
X5741475Y34093188D01*
X5799500Y33992686D01*
X5892686Y33899500D01*
X5991521Y33842437D01*
X6005944Y33834110D01*
X6006814Y33833608D01*
X6134108Y33799500D01*
X6134110Y33799500D01*
X6265890Y33799500D01*
X6265892Y33799500D01*
X6393186Y33833608D01*
X6507314Y33899500D01*
X6600500Y33992686D01*
X6666392Y34106814D01*
X6700500Y34234108D01*
X6700500Y34365892D01*
X6666392Y34493186D01*
X6600500Y34607314D01*
X6507314Y34700500D01*
X6450250Y34733446D01*
X6393187Y34766392D01*
X6329539Y34783446D01*
X6265892Y34800500D01*
X6134108Y34800500D01*
X6006812Y34766392D01*
X5892686Y34700500D01*
X5892683Y34700498D01*
X5799502Y34607317D01*
X5799500Y34607314D01*
X5733608Y34493188D01*
X5717644Y34433608D01*
X5699500Y34365892D01*
X2094053Y34365892D01*
X2093187Y34366392D01*
X2029539Y34383446D01*
X1965892Y34400500D01*
X1834108Y34400500D01*
X1706812Y34366392D01*
X1592686Y34300500D01*
X1592683Y34300498D01*
X1499502Y34207317D01*
X1499500Y34207314D01*
X1433608Y34093188D01*
X1399500Y33965892D01*
X500500Y33965892D01*
X500500Y34965892D01*
X3299500Y34965892D01*
X3299500Y34834109D01*
X3333608Y34706813D01*
X3366554Y34649750D01*
X3399500Y34592686D01*
X3492686Y34499500D01*
X3591521Y34442437D01*
X3606810Y34433610D01*
X3606814Y34433608D01*
X3734108Y34399500D01*
X3734110Y34399500D01*
X3865890Y34399500D01*
X3865892Y34399500D01*
X3993186Y34433608D01*
X4107314Y34499500D01*
X4200500Y34592686D01*
X4266392Y34706814D01*
X4300500Y34834108D01*
X4300500Y34965892D01*
X4266392Y35093186D01*
X4200500Y35207314D01*
X4107314Y35300500D01*
X4050250Y35333446D01*
X3993187Y35366392D01*
X3929539Y35383446D01*
X3865892Y35400500D01*
X3734108Y35400500D01*
X3606812Y35366392D01*
X3492686Y35300500D01*
X3492683Y35300498D01*
X3399502Y35207317D01*
X3399500Y35207314D01*
X3333608Y35093188D01*
X3299500Y34965892D01*
X500500Y34965892D01*
X500500Y35991248D01*
X7005617Y35991248D01*
X7005617Y35859465D01*
X7039725Y35732169D01*
X7072671Y35675106D01*
X7105617Y35618042D01*
X7198803Y35524856D01*
X7312931Y35458964D01*
X7440225Y35424856D01*
X7440227Y35424856D01*
X7572007Y35424856D01*
X7572009Y35424856D01*
X7699303Y35458964D01*
X7813431Y35524856D01*
X7906617Y35618042D01*
X7972509Y35732170D01*
X8006617Y35859464D01*
X8006617Y35991248D01*
X7972509Y36118542D01*
X7906617Y36232670D01*
X7813431Y36325856D01*
X7756367Y36358802D01*
X7699304Y36391748D01*
X7635656Y36408802D01*
X7572009Y36425856D01*
X7440225Y36425856D01*
X7312929Y36391748D01*
X7198803Y36325856D01*
X7198800Y36325854D01*
X7105619Y36232673D01*
X7105617Y36232670D01*
X7039725Y36118544D01*
X7005617Y35991248D01*
X500500Y35991248D01*
X500500Y37665892D01*
X4799500Y37665892D01*
X4799500Y37534109D01*
X4833608Y37406813D01*
X4854349Y37370890D01*
X4899500Y37292686D01*
X4992686Y37199500D01*
X5106814Y37133608D01*
X5234108Y37099500D01*
X5234110Y37099500D01*
X5365890Y37099500D01*
X5365892Y37099500D01*
X5493186Y37133608D01*
X5607314Y37199500D01*
X5700500Y37292686D01*
X5745652Y37370892D01*
X12107518Y37370892D01*
X12107518Y37239109D01*
X12141626Y37111813D01*
X12174572Y37054750D01*
X12207518Y36997686D01*
X12300704Y36904500D01*
X12414832Y36838608D01*
X12542126Y36804500D01*
X12542128Y36804500D01*
X12673911Y36804500D01*
X12675369Y36804692D01*
X12676601Y36804500D01*
X12682037Y36804500D01*
X12682037Y36803653D01*
X12744404Y36793930D01*
X12796662Y36747552D01*
X12815550Y36680284D01*
X12798947Y36619755D01*
X12783608Y36593189D01*
X12749500Y36465892D01*
X12749500Y36334109D01*
X12783608Y36206813D01*
X12816554Y36149750D01*
X12849500Y36092686D01*
X12942686Y35999500D01*
X13056814Y35933608D01*
X13184108Y35899500D01*
X13184110Y35899500D01*
X13315890Y35899500D01*
X13315892Y35899500D01*
X13443186Y35933608D01*
X13557314Y35999500D01*
X13650500Y36092686D01*
X13716392Y36206814D01*
X13750500Y36334108D01*
X13750500Y36465892D01*
X13716392Y36593186D01*
X13650500Y36707314D01*
X13557314Y36800500D01*
X13491309Y36838608D01*
X13443187Y36866392D01*
X13379539Y36883446D01*
X13315892Y36900500D01*
X13184108Y36900500D01*
X13184101Y36900500D01*
X13182634Y36900307D01*
X13181397Y36900500D01*
X13175981Y36900500D01*
X13175981Y36901346D01*
X13113600Y36911078D01*
X13061347Y36957461D01*
X13042467Y37024732D01*
X13059070Y37085246D01*
X13074410Y37111814D01*
X13108518Y37239108D01*
X13108518Y37370892D01*
X13074410Y37498186D01*
X13008518Y37612314D01*
X12915332Y37705500D01*
X12858268Y37738446D01*
X12801205Y37771392D01*
X12719859Y37793188D01*
X12673910Y37805500D01*
X12542126Y37805500D01*
X12414830Y37771392D01*
X12300704Y37705500D01*
X12300701Y37705498D01*
X12207520Y37612317D01*
X12207518Y37612314D01*
X12141626Y37498188D01*
X12107518Y37370892D01*
X5745652Y37370892D01*
X5766392Y37406814D01*
X5800500Y37534108D01*
X5800500Y37665892D01*
X5766392Y37793186D01*
X5759282Y37805500D01*
X5753283Y37815892D01*
X5700500Y37907314D01*
X5607314Y38000500D01*
X5550250Y38033446D01*
X5493187Y38066392D01*
X5429539Y38083446D01*
X5365892Y38100500D01*
X5234108Y38100500D01*
X5106812Y38066392D01*
X4992686Y38000500D01*
X4992683Y38000498D01*
X4899502Y37907317D01*
X4899500Y37907314D01*
X4833608Y37793188D01*
X4799500Y37665892D01*
X500500Y37665892D01*
X500500Y37745934D01*
X500765Y37754044D01*
X501902Y37771392D01*
X517075Y38002898D01*
X519190Y38018952D01*
X567045Y38259538D01*
X571243Y38275203D01*
X611124Y38392690D01*
X650093Y38507488D01*
X656291Y38522453D01*
X764790Y38742467D01*
X772897Y38756507D01*
X831492Y38844201D01*
X909177Y38960466D01*
X919039Y38973319D01*
X1000223Y39065892D01*
X5799500Y39065892D01*
X5799500Y38934108D01*
X5810464Y38893188D01*
X5833608Y38806813D01*
X5862653Y38756507D01*
X5899500Y38692686D01*
X5992686Y38599500D01*
X6106814Y38533608D01*
X6234108Y38499500D01*
X6234110Y38499500D01*
X6365890Y38499500D01*
X6365892Y38499500D01*
X6493186Y38533608D01*
X6607314Y38599500D01*
X6700500Y38692686D01*
X6766392Y38806814D01*
X6800500Y38934108D01*
X6800500Y39065892D01*
X7699500Y39065892D01*
X7699500Y38934108D01*
X7710464Y38893188D01*
X7733608Y38806813D01*
X7762653Y38756507D01*
X7799500Y38692686D01*
X7892686Y38599500D01*
X8006814Y38533608D01*
X8134108Y38499500D01*
X8134110Y38499500D01*
X8265890Y38499500D01*
X8265892Y38499500D01*
X8393186Y38533608D01*
X8507314Y38599500D01*
X8573706Y38665892D01*
X12899500Y38665892D01*
X12899500Y38534108D01*
X12904573Y38515176D01*
X12933608Y38406813D01*
X12941766Y38392684D01*
X12999500Y38292686D01*
X13092686Y38199500D01*
X13206814Y38133608D01*
X13334108Y38099500D01*
X13334110Y38099500D01*
X13465890Y38099500D01*
X13465892Y38099500D01*
X13593186Y38133608D01*
X13707314Y38199500D01*
X13800500Y38292686D01*
X13866392Y38406814D01*
X13866392Y38406815D01*
X13870456Y38413853D01*
X13873011Y38412378D01*
X13907954Y38455759D01*
X13974243Y38477840D01*
X14041946Y38460577D01*
X14086085Y38415921D01*
X14099500Y38392686D01*
X14192686Y38299500D01*
X14306814Y38233608D01*
X14434108Y38199500D01*
X14434110Y38199500D01*
X14565890Y38199500D01*
X14565892Y38199500D01*
X14693186Y38233608D01*
X14807314Y38299500D01*
X14900500Y38392686D01*
X14966392Y38506814D01*
X15000500Y38634108D01*
X15000500Y38765892D01*
X14966392Y38893186D01*
X14900500Y39007314D01*
X14807314Y39100500D01*
X14750250Y39133446D01*
X14693187Y39166392D01*
X14593188Y39193186D01*
X14565892Y39200500D01*
X14434108Y39200500D01*
X14306812Y39166392D01*
X14192686Y39100500D01*
X14192683Y39100498D01*
X14099502Y39007317D01*
X14099500Y39007314D01*
X14029544Y38886147D01*
X14026997Y38887618D01*
X13991985Y38844201D01*
X13925684Y38822159D01*
X13857990Y38839461D01*
X13813914Y38884080D01*
X13800500Y38907314D01*
X13707314Y39000500D01*
X13650250Y39033446D01*
X13593187Y39066392D01*
X13529539Y39083446D01*
X13465892Y39100500D01*
X13334108Y39100500D01*
X13206812Y39066392D01*
X13092686Y39000500D01*
X13092683Y39000498D01*
X12999502Y38907317D01*
X12999500Y38907314D01*
X12933608Y38793188D01*
X12906681Y38692693D01*
X12899500Y38665892D01*
X8573706Y38665892D01*
X8600500Y38692686D01*
X8613023Y38714378D01*
X8625520Y38736020D01*
X8666390Y38806811D01*
X8666392Y38806814D01*
X8700500Y38934108D01*
X8700500Y39065892D01*
X8666392Y39193186D01*
X8600500Y39307314D01*
X8507314Y39400500D01*
X8450250Y39433446D01*
X8393187Y39466392D01*
X8322944Y39485213D01*
X8265892Y39500500D01*
X8134108Y39500500D01*
X8006812Y39466392D01*
X7892686Y39400500D01*
X7892683Y39400498D01*
X7799502Y39307317D01*
X7799500Y39307314D01*
X7733608Y39193188D01*
X7699634Y39066392D01*
X7699500Y39065892D01*
X6800500Y39065892D01*
X6766392Y39193186D01*
X6700500Y39307314D01*
X6607314Y39400500D01*
X6550250Y39433446D01*
X6493187Y39466392D01*
X6422944Y39485213D01*
X6365892Y39500500D01*
X6234108Y39500500D01*
X6106812Y39466392D01*
X5992686Y39400500D01*
X5992683Y39400498D01*
X5899502Y39307317D01*
X5899500Y39307314D01*
X5833608Y39193188D01*
X5799634Y39066392D01*
X5799500Y39065892D01*
X1000223Y39065892D01*
X1080772Y39157740D01*
X1092244Y39169214D01*
X1276681Y39330961D01*
X1289534Y39340823D01*
X1493493Y39477103D01*
X1507533Y39485210D01*
X1727547Y39593709D01*
X1742512Y39599907D01*
X1906762Y39655663D01*
X1974797Y39678757D01*
X1990464Y39682955D01*
X2231048Y39730810D01*
X2247102Y39732925D01*
X2495957Y39749235D01*
X2504067Y39749500D01*
X2565892Y39749500D01*
X17434108Y39749500D01*
X17495933Y39749500D01*
X17504043Y39749235D01*
G37*
%TD.AperFunction*%
%TD*%
M02*
