M48
; DRILL file KiCad 10.0.5 date 2026-09-03T01:40:17
; FORMAT={-:-/ absolute / inch / decimal}
; #@! TF.CreationDate,2026-09-03T01:40:17-07:00
; #@! TF.GenerationSoftware,Kicad,Pcbnew,10.0.5
; #@! TF.FileFunction,Plated,1,4,PTH
FMAT,2
INCH
; #@! TA.AperFunction,Plated,PTH,ViaDrill
T1C0.0118
; #@! TA.AperFunction,Plated,PTH,ComponentDrill
T2C0.0197
; #@! TA.AperFunction,Plated,PTH,ComponentDrill
T3C0.0866
%
G90
G05
T1
X0.0406Y0.723
X0.0456Y0.6335
X0.0465Y0.8032
X0.063Y1.2638
X0.0748Y1.3346
X0.0846Y1.1102
X0.0846Y0.2835
X0.122Y1.1969
X0.1276Y0.3914
X0.1385Y0.5702
X0.1417Y0.5328
X0.1457Y0.9354
X0.1468Y1.0846
X0.1496Y1.374
X0.1496Y1.0374
X0.1552Y0.4949
X0.161Y0.4656
X0.1768Y1.0941
X0.1909Y0.7449
X0.1987Y1.1926
X0.2047Y1.0551
X0.2066Y1.1626
X0.2087Y1.4803
X0.2154Y1.2909
X0.2285Y1.1899
X0.2356Y1.0394
X0.2356Y0.9291
X0.2366Y0.8808
X0.2383Y0.7414
X0.2402Y1.4291
X0.2406Y1.0919
X0.241Y1.2445
X0.2434Y1.127
X0.2441Y1.3504
X0.2441Y0.315
X0.248Y1.5354
X0.2485Y0.5906
X0.2592Y0.8562
X0.261Y0.5046
X0.2638Y0.4026
X0.2818Y0.2486
X0.2955Y1.4144
X0.2966Y1.1574
X0.2971Y0.4053
X0.2992Y1.1264
X0.3125Y0.4541
X0.3189Y1.4441
X0.3228Y1.5354
X0.3228Y1.3189
X0.3231Y1.1966
X0.3307Y0.0413
X0.3445Y0.7447
X0.3509Y1.1303
X0.3622Y0.4391
X0.3693Y1.05
X0.374Y0.374
X0.374Y0.1142
X0.379Y1.1178
X0.3878Y0.6795
X0.3902Y0.9776
X0.3914Y0.9168
X0.3935Y0.8381
X0.4116Y1.1255
X0.4194Y0.718
X0.4235Y1.0166
X0.4274Y0.8806
X0.4331Y0.9876
X0.4409Y1.3189
X0.4409Y1.2008
X0.4409Y0.1457
X0.4508Y1.4685
X0.4524Y0.9383
X0.4596Y0.1739
X0.4676Y1.1024
X0.4774Y0.3425
X0.4803Y0.689
X0.4952Y1.1354
X0.4964Y1.4687
X0.5033Y0.7927
X0.5034Y1.0047
X0.5039Y1.1905
X0.5079Y0.8624
X0.508Y1.2638
X0.5082Y1.2941
X0.51Y1.4213
X0.5139Y0.3938
X0.5189Y0.5778
X0.5276Y1.5197
X0.5276Y0.0945
X0.5315Y0.4921
X0.5354Y0.685
X0.5361Y0.786
X0.5413Y1.1072
X0.5512Y0.9921
X0.5512Y0.5866
X0.5709Y1.5236
X0.5827Y0.5984
X0.5831Y0.9413
X0.5866Y0.0866
X0.5906Y1.3012
X0.5925Y1.2595
X0.5992Y0.8071
X0.6024Y1.0492
X0.6269Y0.5091
X0.6305Y0.7951
X0.666Y0.7751
X0.6693Y0.4094
X0.6695Y1.0423
X0.6721Y0.8193
X0.6977Y1.2646
X0.7132Y0.7825
X0.7161Y0.4097
X0.7283Y0.4882
X0.748Y0.7362
X0.748Y0.5866
T2
X0.1811Y1.0069
X0.1811Y0.9577
X0.1811Y0.9085
X0.1811Y0.8593
X0.185Y0.6919
X0.185Y0.6427
X0.185Y0.5935
X0.185Y0.5443
X0.185Y0.3789
X0.185Y0.3297
X0.2746Y0.185
X0.3238Y0.185
X0.373Y0.185
X0.4222Y0.185
X0.5807Y0.4577
X0.5807Y0.4085
X0.5807Y0.3593
X0.5807Y0.31
T3
X0.1083Y1.4764
X0.1083Y0.1083
X0.6693Y1.4764
X0.689Y0.1181
T2
G00X0.7421Y1.1142
M15
G01X0.7146Y1.1142
M16
G05
G00X0.7421Y0.8543
M15
G01X0.7146Y0.8543
M16
G05
M30
