%TF.GenerationSoftware,KiCad,Pcbnew,10.0.5*%
%TF.CreationDate,2026-09-03T01:40:17-07:00*%
%TF.ProjectId,iris,69726973-2e6b-4696-9361-645f70636258,rev?*%
%TF.SameCoordinates,Original*%
%TF.FileFunction,Copper,L3,Inr*%
%TF.FilePolarity,Positive*%
%FSLAX46Y46*%
G04 Gerber Fmt 4.6, Leading zero omitted, Abs format (unit mm)*
G04 Created by KiCad (PCBNEW 10.0.5) date 2026-09-03 01:40:17*
%MOMM*%
%LPD*%
G01*
G04 APERTURE LIST*
G04 Aperture macros list*
%AMRoundRect*
0 Rectangle with rounded corners*
0 $1 Rounding radius*
0 $2 $3 $4 $5 $6 $7 $8 $9 X,Y pos of 4 corners*
0 Add a 4 corners polygon primitive as box body*
4,1,4,$2,$3,$4,$5,$6,$7,$8,$9,$2,$3,0*
0 Add four circle primitives for the rounded corners*
1,1,$1+$1,$2,$3*
1,1,$1+$1,$4,$5*
1,1,$1+$1,$6,$7*
1,1,$1+$1,$8,$9*
0 Add four rect primitives between the rounded corners*
20,1,$1+$1,$2,$3,$4,$5,0*
20,1,$1+$1,$4,$5,$6,$7,0*
20,1,$1+$1,$6,$7,$8,$9,0*
20,1,$1+$1,$8,$9,$2,$3,0*%
G04 Aperture macros list end*
%TA.AperFunction,ComponentPad*%
%ADD10RoundRect,0.200000X0.450000X-0.200000X0.450000X0.200000X-0.450000X0.200000X-0.450000X-0.200000X0*%
%TD*%
%TA.AperFunction,ComponentPad*%
%ADD11O,1.300000X0.800000*%
%TD*%
%TA.AperFunction,ComponentPad*%
%ADD12RoundRect,0.200000X-0.200000X-0.450000X0.200000X-0.450000X0.200000X0.450000X-0.200000X0.450000X0*%
%TD*%
%TA.AperFunction,ComponentPad*%
%ADD13O,0.800000X1.300000*%
%TD*%
%TA.AperFunction,ComponentPad*%
%ADD14C,3.800000*%
%TD*%
%TA.AperFunction,ComponentPad*%
%ADD15RoundRect,0.200000X-0.450000X0.200000X-0.450000X-0.200000X0.450000X-0.200000X0.450000X0.200000X0*%
%TD*%
%TA.AperFunction,ComponentPad*%
%ADD16O,1.600000X0.900000*%
%TD*%
%TA.AperFunction,ViaPad*%
%ADD17C,0.600000*%
%TD*%
G04 APERTURE END LIST*
D10*
%TO.N,Net-(J6-Pin_1)*%
%TO.C,J6*%
X14750000Y7875000D03*
D11*
%TO.N,/IO/CAN_L*%
X14750000Y9125000D03*
%TO.N,/IO/CAN_H*%
X14750000Y10375000D03*
%TO.N,GND*%
X14750000Y11625000D03*
%TD*%
D12*
%TO.N,/IO/OUT1PWR*%
%TO.C,J5*%
X6975000Y4700000D03*
D13*
%TO.N,/IO/TXD1_MCU*%
X8225000Y4700000D03*
%TO.N,/IO/RXD1_MCU*%
X9475000Y4700000D03*
%TO.N,GND*%
X10725000Y4700000D03*
%TD*%
D14*
%TO.N,GND*%
%TO.C,H6*%
X2750000Y37500000D03*
%TD*%
%TO.N,GND*%
%TO.C,H5*%
X17500000Y3000000D03*
%TD*%
D15*
%TO.N,/IO/OUT3PWR*%
%TO.C,J8*%
X4600000Y25575000D03*
D11*
%TO.N,Net-(J8-Pin_2)*%
X4600000Y24325000D03*
%TO.N,Net-(J8-Pin_3)*%
X4600000Y23075000D03*
%TO.N,GND*%
X4600000Y21825000D03*
%TD*%
D15*
%TO.N,/IO/BATT_RAW*%
%TO.C,J2*%
X4700000Y9625000D03*
D11*
%TO.N,GND*%
X4700000Y8375000D03*
%TD*%
D14*
%TO.N,GND*%
%TO.C,H7*%
X17000000Y37500000D03*
%TD*%
D15*
%TO.N,/IO/OUT2PWR*%
%TO.C,J7*%
X4700000Y17575000D03*
D11*
%TO.N,/IO/TXD0_MCU*%
X4700000Y16325000D03*
%TO.N,/IO/RXD0_MCU*%
X4700000Y15075000D03*
%TO.N,GND*%
X4700000Y13825000D03*
%TD*%
D14*
%TO.N,GND*%
%TO.C,H4*%
X2750000Y2750000D03*
%TD*%
D16*
%TO.N,Net-(J3-Shield)*%
%TO.C,J3*%
X18500000Y28300000D03*
X18500000Y21700000D03*
%TD*%
D17*
%TO.N,/MCU/LED_G*%
X12955000Y36100000D03*
%TO.N,GND*%
X8200000Y33500000D03*
X17000000Y10400000D03*
X6311116Y15001066D03*
X11200000Y33500000D03*
X16015000Y20195464D03*
X19000000Y18700000D03*
X11450000Y37300000D03*
X8100000Y36680000D03*
X5985000Y26400000D03*
X9940410Y23287468D03*
X8207107Y30392893D03*
X9380025Y26669975D03*
X15050000Y31991278D03*
X3100000Y30400000D03*
X6100000Y36300000D03*
X10652447Y18237469D03*
X6700000Y10225000D03*
X6200000Y8000000D03*
X12577617Y28840237D03*
X5803574Y30222815D03*
X9911091Y24831191D03*
X11200000Y30500000D03*
X17721886Y32120721D03*
X14809620Y23909620D03*
X13053650Y10002096D03*
%TO.N,+3V3*%
X16915730Y19688116D03*
X4490380Y27790380D03*
X11876181Y28000860D03*
X12800000Y30237500D03*
X12124914Y8700000D03*
X15000000Y33050000D03*
X7506117Y35925356D03*
X18190118Y10405799D03*
X12784163Y20133719D03*
X6120705Y31611384D03*
X12608018Y37305000D03*
%TO.N,+BATT*%
X4090108Y11826267D03*
X7936603Y11533578D03*
%TO.N,/Load Switches/VIN1*%
X7157694Y6313812D03*
X10857069Y22367220D03*
X14900000Y2200000D03*
%TO.N,/Load Switches/VIN2*%
X3700000Y23758997D03*
X6010579Y22372253D03*
%TO.N,+5V*%
X6051612Y18830291D03*
X8750441Y18915000D03*
X3941806Y12570516D03*
X1030030Y18364836D03*
X9500000Y9500000D03*
X11674427Y4417002D03*
%TO.N,/Load Switches/VIN3*%
X9996060Y21288604D03*
X3600000Y13533199D03*
%TO.N,/IO/TXD1_MCU*%
X5471814Y32788987D03*
%TO.N,/IO/RXD1_MCU*%
X3800000Y34900000D03*
%TO.N,/MCU/RST*%
X13400000Y38600000D03*
X7600000Y28610000D03*
%TO.N,Net-(R46-Pad1)*%
X14000000Y25200000D03*
%TO.N,/IO/BUTTON*%
X8912318Y28710698D03*
X17005738Y26475658D03*
%TO.N,Net-(J8-Pin_2)*%
X5200000Y26800000D03*
X3800000Y26350000D03*
%TO.N,Net-(D1-RK)*%
X5300000Y37600000D03*
%TO.N,Net-(D1-GK)*%
X6300000Y39000000D03*
%TO.N,Net-(D1-BK)*%
X8200000Y39000000D03*
%TO.N,/IO/TXD0_MCU*%
X5248699Y29530686D03*
%TO.N,/IO/RXD0_MCU*%
X5047198Y30292633D03*
%TO.N,Net-(D3-K)*%
X12200000Y17500000D03*
%TO.N,Net-(D2-K)*%
X13600000Y17400000D03*
%TO.N,/Load Switches/CS1*%
X11491215Y23833764D03*
X13400000Y2400000D03*
%TO.N,Net-(Q5-D)*%
X9500000Y2900000D03*
X11200000Y3700000D03*
%TO.N,/Load Switches/EN1*%
X8400000Y1050000D03*
X13500000Y12500000D03*
%TO.N,VBUS*%
X3516890Y14484171D03*
X2150000Y7200000D03*
X15300000Y26650000D03*
%TO.N,/MCU/VSENSE*%
X10453851Y28587500D03*
X2150000Y28200000D03*
X3241722Y9941973D03*
%TO.N,/Load Switches/SDA*%
X6110000Y27733141D03*
X18115730Y19874823D03*
X11000025Y25085761D03*
%TO.N,/Load Switches/EN2*%
X3727645Y27550000D03*
X14800000Y15200000D03*
%TO.N,/MCU/CANRX*%
X15923513Y12930000D03*
X7533845Y29397202D03*
X13750000Y28122047D03*
X13617000Y19963760D03*
%TO.N,/MCU/LS_EN*%
X6200000Y34300000D03*
X19000000Y14900000D03*
%TO.N,/Load Switches/EN3*%
X14000000Y14900000D03*
X9850000Y17258578D03*
X4850000Y18920891D03*
%TO.N,/MCU/5V_EN*%
X13179948Y14676349D03*
X7547223Y10293687D03*
%TO.N,/MCU/LED_B*%
X15219827Y20499412D03*
X14500000Y38700000D03*
%TO.N,/Load Switches/SCL*%
X6181800Y28625309D03*
X17070974Y20809786D03*
X10758148Y25822615D03*
%TO.N,Net-(U6-PS{slash}SYNC)*%
X9200000Y11152817D03*
X6629999Y12816998D03*
%TO.N,/MCU/CANTX*%
X12900102Y21905687D03*
X18500000Y12400000D03*
X12787048Y25518285D03*
X9626904Y28390870D03*
%TO.N,/MCU/RXD0_MCU*%
X12909445Y32871315D03*
X1900000Y33900000D03*
%TO.N,/MCU/TXD0_MCU*%
X1600000Y32100000D03*
X12902284Y32101585D03*
%TO.N,/Load Switches/CS3*%
X1159314Y16090686D03*
X6582793Y21747321D03*
%TO.N,/Load Switches/CS2*%
X1181931Y20401170D03*
X5985000Y23600000D03*
%TD*%
%TA.AperFunction,Conductor*%
%TO.N,GND*%
G36*
X5685098Y39729815D02*
G01*
X5730853Y39677011D01*
X5740797Y39607853D01*
X5711772Y39544297D01*
X5705740Y39537819D01*
X5678213Y39510293D01*
X5678210Y39510289D01*
X5590609Y39379186D01*
X5590602Y39379173D01*
X5530264Y39233502D01*
X5530261Y39233490D01*
X5499500Y39078847D01*
X5499500Y38921154D01*
X5530261Y38766511D01*
X5530264Y38766499D01*
X5590602Y38620828D01*
X5590608Y38620817D01*
X5626527Y38567060D01*
X5647404Y38500382D01*
X5628919Y38433002D01*
X5576940Y38386313D01*
X5507970Y38375137D01*
X5499232Y38376553D01*
X5378844Y38400500D01*
X5378842Y38400500D01*
X5221158Y38400500D01*
X5221155Y38400500D01*
X5066510Y38369739D01*
X5066498Y38369736D01*
X4920827Y38309398D01*
X4920814Y38309391D01*
X4789711Y38221790D01*
X4789707Y38221787D01*
X4678213Y38110293D01*
X4678210Y38110289D01*
X4590609Y37979186D01*
X4590602Y37979173D01*
X4530264Y37833502D01*
X4530261Y37833490D01*
X4499500Y37678847D01*
X4499500Y37521154D01*
X4530261Y37366511D01*
X4530264Y37366499D01*
X4590602Y37220828D01*
X4590609Y37220815D01*
X4678210Y37089712D01*
X4678213Y37089708D01*
X4789707Y36978214D01*
X4789711Y36978211D01*
X4920814Y36890610D01*
X4920827Y36890603D01*
X5066498Y36830265D01*
X5066503Y36830263D01*
X5171418Y36809394D01*
X5221153Y36799501D01*
X5221156Y36799500D01*
X5221158Y36799500D01*
X5378844Y36799500D01*
X5378845Y36799501D01*
X5533497Y36830263D01*
X5679179Y36890606D01*
X5810289Y36978211D01*
X5921789Y37089711D01*
X6009394Y37220821D01*
X6069737Y37366503D01*
X6073187Y37383847D01*
X11807518Y37383847D01*
X11807518Y37226154D01*
X11838279Y37071511D01*
X11838282Y37071499D01*
X11898620Y36925828D01*
X11898627Y36925815D01*
X11986228Y36794712D01*
X11986231Y36794708D01*
X12097725Y36683214D01*
X12097729Y36683211D01*
X12195129Y36618130D01*
X12239934Y36564518D01*
X12248641Y36495193D01*
X12240799Y36467576D01*
X12185264Y36333502D01*
X12185261Y36333490D01*
X12154500Y36178847D01*
X12154500Y36021154D01*
X12185261Y35866511D01*
X12185264Y35866499D01*
X12245602Y35720828D01*
X12245609Y35720815D01*
X12333210Y35589712D01*
X12333213Y35589708D01*
X12444707Y35478214D01*
X12444711Y35478211D01*
X12575814Y35390610D01*
X12575827Y35390603D01*
X12721498Y35330265D01*
X12721503Y35330263D01*
X12855697Y35303570D01*
X12876153Y35299501D01*
X12876156Y35299500D01*
X12876158Y35299500D01*
X13033844Y35299500D01*
X13033845Y35299501D01*
X13188497Y35330263D01*
X13334179Y35390606D01*
X13465289Y35478211D01*
X13576789Y35589711D01*
X13664394Y35720821D01*
X13724737Y35866503D01*
X13755500Y36021158D01*
X13755500Y36178842D01*
X13755500Y36178845D01*
X13755499Y36178847D01*
X13730498Y36304535D01*
X13724737Y36333497D01*
X13724735Y36333502D01*
X13664397Y36479173D01*
X13664390Y36479186D01*
X13576789Y36610289D01*
X13576786Y36610293D01*
X13465292Y36721787D01*
X13465288Y36721790D01*
X13367888Y36786871D01*
X13323083Y36840483D01*
X13314376Y36909808D01*
X13322216Y36937420D01*
X13377755Y37071503D01*
X13408518Y37226158D01*
X13408518Y37383842D01*
X13408518Y37383845D01*
X13408517Y37383847D01*
X13402494Y37414126D01*
X13377755Y37538497D01*
X13340661Y37628049D01*
X13333193Y37697517D01*
X13364468Y37759996D01*
X13424557Y37795648D01*
X13455223Y37799500D01*
X13478844Y37799500D01*
X13478845Y37799501D01*
X13633497Y37830263D01*
X13779179Y37890606D01*
X13910289Y37978211D01*
X13930087Y37998010D01*
X13991408Y38031496D01*
X14061100Y38026513D01*
X14086657Y38013434D01*
X14120821Y37990606D01*
X14120823Y37990606D01*
X14120827Y37990603D01*
X14266498Y37930265D01*
X14266503Y37930263D01*
X14421153Y37899501D01*
X14421156Y37899500D01*
X14421158Y37899500D01*
X14578844Y37899500D01*
X14578845Y37899501D01*
X14733497Y37930263D01*
X14851592Y37979179D01*
X14879172Y37990603D01*
X14879172Y37990604D01*
X14879179Y37990606D01*
X15010289Y38078211D01*
X15121789Y38189711D01*
X15209394Y38320821D01*
X15269737Y38466503D01*
X15300500Y38621158D01*
X15300500Y38778842D01*
X15300500Y38778845D01*
X15300499Y38778847D01*
X15272192Y38921154D01*
X15269737Y38933497D01*
X15209534Y39078842D01*
X15209397Y39079173D01*
X15209390Y39079186D01*
X15121789Y39210289D01*
X15121786Y39210293D01*
X15010292Y39321787D01*
X15010288Y39321790D01*
X14879185Y39409391D01*
X14879172Y39409398D01*
X14733501Y39469736D01*
X14733489Y39469739D01*
X14578845Y39500500D01*
X14578842Y39500500D01*
X14421158Y39500500D01*
X14421155Y39500500D01*
X14266510Y39469739D01*
X14266498Y39469736D01*
X14120827Y39409398D01*
X14120814Y39409391D01*
X13989714Y39321792D01*
X13989708Y39321788D01*
X13969909Y39301988D01*
X13908586Y39268504D01*
X13838894Y39273490D01*
X13813339Y39286569D01*
X13779176Y39309396D01*
X13633501Y39369736D01*
X13633489Y39369739D01*
X13478845Y39400500D01*
X13478842Y39400500D01*
X13321158Y39400500D01*
X13321155Y39400500D01*
X13166510Y39369739D01*
X13166498Y39369736D01*
X13020827Y39309398D01*
X13020814Y39309391D01*
X12889711Y39221790D01*
X12889707Y39221787D01*
X12778213Y39110293D01*
X12778210Y39110289D01*
X12690609Y38979186D01*
X12690602Y38979173D01*
X12630264Y38833502D01*
X12630261Y38833490D01*
X12599500Y38678847D01*
X12599500Y38521154D01*
X12630261Y38366511D01*
X12630263Y38366503D01*
X12661700Y38290606D01*
X12667356Y38276953D01*
X12674825Y38207483D01*
X12643550Y38145004D01*
X12583461Y38109352D01*
X12552795Y38105500D01*
X12529173Y38105500D01*
X12374528Y38074739D01*
X12374516Y38074736D01*
X12228845Y38014398D01*
X12228832Y38014391D01*
X12097729Y37926790D01*
X12097725Y37926787D01*
X11986231Y37815293D01*
X11986228Y37815289D01*
X11898627Y37684186D01*
X11898620Y37684173D01*
X11838282Y37538502D01*
X11838279Y37538490D01*
X11807518Y37383847D01*
X6073187Y37383847D01*
X6079210Y37414126D01*
X6100500Y37521156D01*
X6100500Y37678845D01*
X6100499Y37678847D01*
X6084357Y37759996D01*
X6069737Y37833497D01*
X6042398Y37899500D01*
X6009397Y37979173D01*
X6009387Y37979191D01*
X5973473Y38032941D01*
X5952595Y38099618D01*
X5971080Y38166998D01*
X6023059Y38213688D01*
X6092029Y38224864D01*
X6100751Y38223451D01*
X6149831Y38213688D01*
X6221156Y38199500D01*
X6221158Y38199500D01*
X6378844Y38199500D01*
X6378845Y38199501D01*
X6533497Y38230263D01*
X6679179Y38290606D01*
X6810289Y38378211D01*
X6921789Y38489711D01*
X7009394Y38620821D01*
X7069737Y38766503D01*
X7100500Y38921158D01*
X7100500Y39078842D01*
X7100500Y39078845D01*
X7100499Y39078847D01*
X7074353Y39210289D01*
X7069737Y39233497D01*
X7055237Y39268504D01*
X7009397Y39379173D01*
X7009390Y39379186D01*
X6921789Y39510289D01*
X6921786Y39510293D01*
X6894260Y39537819D01*
X6860775Y39599142D01*
X6865759Y39668834D01*
X6907631Y39724767D01*
X6973095Y39749184D01*
X6981941Y39749500D01*
X7518059Y39749500D01*
X7585098Y39729815D01*
X7630853Y39677011D01*
X7640797Y39607853D01*
X7611772Y39544297D01*
X7605740Y39537819D01*
X7578213Y39510293D01*
X7578210Y39510289D01*
X7490609Y39379186D01*
X7490602Y39379173D01*
X7430264Y39233502D01*
X7430261Y39233490D01*
X7399500Y39078847D01*
X7399500Y38921154D01*
X7430261Y38766511D01*
X7430264Y38766499D01*
X7490602Y38620828D01*
X7490609Y38620815D01*
X7578210Y38489712D01*
X7578213Y38489708D01*
X7689707Y38378214D01*
X7689711Y38378211D01*
X7820814Y38290610D01*
X7820827Y38290603D01*
X7966498Y38230265D01*
X7966503Y38230263D01*
X8121153Y38199501D01*
X8121156Y38199500D01*
X8121158Y38199500D01*
X8278844Y38199500D01*
X8278845Y38199501D01*
X8433497Y38230263D01*
X8579179Y38290606D01*
X8710289Y38378211D01*
X8821789Y38489711D01*
X8909394Y38620821D01*
X8969737Y38766503D01*
X9000500Y38921158D01*
X9000500Y39078842D01*
X9000500Y39078845D01*
X9000499Y39078847D01*
X8974353Y39210289D01*
X8969737Y39233497D01*
X8955237Y39268504D01*
X8909397Y39379173D01*
X8909390Y39379186D01*
X8821789Y39510289D01*
X8821786Y39510293D01*
X8794260Y39537819D01*
X8760775Y39599142D01*
X8765759Y39668834D01*
X8807631Y39724767D01*
X8873095Y39749184D01*
X8881941Y39749500D01*
X17434108Y39749500D01*
X17495933Y39749500D01*
X17504043Y39749235D01*
X17752895Y39732925D01*
X17768953Y39730810D01*
X17976105Y39689605D01*
X18009535Y39682955D01*
X18025202Y39678757D01*
X18193025Y39621789D01*
X18257481Y39599909D01*
X18272458Y39593706D01*
X18385786Y39537819D01*
X18492460Y39485213D01*
X18506506Y39477103D01*
X18710460Y39340826D01*
X18723325Y39330955D01*
X18747911Y39309394D01*
X18907749Y39169219D01*
X18919218Y39157750D01*
X18988117Y39079186D01*
X19075821Y38979179D01*
X19080951Y38973330D01*
X19090825Y38960461D01*
X19227102Y38756507D01*
X19235212Y38742461D01*
X19343702Y38522466D01*
X19349909Y38507480D01*
X19428756Y38275203D01*
X19432954Y38259536D01*
X19480807Y38018965D01*
X19482925Y38002884D01*
X19499235Y37754044D01*
X19499500Y37745934D01*
X19499500Y29241164D01*
X19479815Y29174125D01*
X19427011Y29128370D01*
X19357853Y29118426D01*
X19306615Y29138058D01*
X19300240Y29142317D01*
X19300228Y29142324D01*
X19127251Y29213973D01*
X19127243Y29213975D01*
X18943620Y29250500D01*
X18943616Y29250500D01*
X18056384Y29250500D01*
X18056379Y29250500D01*
X17872756Y29213975D01*
X17872748Y29213973D01*
X17699771Y29142324D01*
X17699762Y29142319D01*
X17544092Y29038303D01*
X17544088Y29038300D01*
X17411700Y28905912D01*
X17411697Y28905908D01*
X17307681Y28750238D01*
X17307676Y28750229D01*
X17236027Y28577252D01*
X17236025Y28577244D01*
X17199500Y28393621D01*
X17199500Y28206380D01*
X17236025Y28022757D01*
X17236027Y28022749D01*
X17307676Y27849772D01*
X17307681Y27849763D01*
X17411697Y27694093D01*
X17411700Y27694089D01*
X17544088Y27561701D01*
X17544092Y27561698D01*
X17699762Y27457682D01*
X17699768Y27457679D01*
X17699769Y27457678D01*
X17872749Y27386027D01*
X18033917Y27353969D01*
X18056379Y27349501D01*
X18056383Y27349500D01*
X18056384Y27349500D01*
X18943617Y27349500D01*
X18943618Y27349501D01*
X19127251Y27386027D01*
X19300231Y27457678D01*
X19300237Y27457682D01*
X19306609Y27461939D01*
X19373286Y27482817D01*
X19440667Y27464333D01*
X19487357Y27412354D01*
X19499500Y27358837D01*
X19499500Y22641164D01*
X19479815Y22574125D01*
X19427011Y22528370D01*
X19357853Y22518426D01*
X19306615Y22538058D01*
X19300240Y22542317D01*
X19300228Y22542324D01*
X19127251Y22613973D01*
X19127243Y22613975D01*
X18943620Y22650500D01*
X18943616Y22650500D01*
X18056384Y22650500D01*
X18056379Y22650500D01*
X17872756Y22613975D01*
X17872748Y22613973D01*
X17699771Y22542324D01*
X17699762Y22542319D01*
X17544092Y22438303D01*
X17544088Y22438300D01*
X17411700Y22305912D01*
X17411697Y22305908D01*
X17307681Y22150238D01*
X17307676Y22150229D01*
X17236027Y21977252D01*
X17236025Y21977244D01*
X17199500Y21793621D01*
X17199500Y21734286D01*
X17179815Y21667247D01*
X17127011Y21621492D01*
X17075500Y21610286D01*
X16992129Y21610286D01*
X16837484Y21579525D01*
X16837472Y21579522D01*
X16691801Y21519184D01*
X16691788Y21519177D01*
X16560685Y21431576D01*
X16560681Y21431573D01*
X16449187Y21320079D01*
X16449184Y21320075D01*
X16361583Y21188972D01*
X16361576Y21188959D01*
X16301238Y21043288D01*
X16301235Y21043276D01*
X16270474Y20888633D01*
X16270474Y20730940D01*
X16301235Y20576297D01*
X16301238Y20576285D01*
X16361576Y20430614D01*
X16361584Y20430600D01*
X16370956Y20416574D01*
X16391835Y20349897D01*
X16373351Y20282517D01*
X16355536Y20260001D01*
X16293943Y20198409D01*
X16293940Y20198405D01*
X16206339Y20067302D01*
X16206332Y20067289D01*
X16145994Y19921618D01*
X16145991Y19921606D01*
X16115230Y19766963D01*
X16115230Y19609270D01*
X16145991Y19454627D01*
X16145994Y19454615D01*
X16206332Y19308944D01*
X16206339Y19308931D01*
X16293940Y19177828D01*
X16293943Y19177824D01*
X16405437Y19066330D01*
X16405441Y19066327D01*
X16536544Y18978726D01*
X16536557Y18978719D01*
X16682228Y18918381D01*
X16682233Y18918379D01*
X16836883Y18887617D01*
X16836886Y18887616D01*
X16836888Y18887616D01*
X16994574Y18887616D01*
X16994575Y18887617D01*
X17149227Y18918379D01*
X17294909Y18978722D01*
X17426019Y19066327D01*
X17537519Y19177827D01*
X17537521Y19177831D01*
X17537849Y19178158D01*
X17599172Y19211643D01*
X17668864Y19206659D01*
X17694423Y19193578D01*
X17736543Y19165434D01*
X17736545Y19165433D01*
X17736551Y19165429D01*
X17736553Y19165428D01*
X17736557Y19165426D01*
X17878148Y19106778D01*
X17882233Y19105086D01*
X17993412Y19082971D01*
X18036883Y19074324D01*
X18036886Y19074323D01*
X18036888Y19074323D01*
X18194574Y19074323D01*
X18194575Y19074324D01*
X18349227Y19105086D01*
X18468237Y19154381D01*
X18494902Y19165426D01*
X18494902Y19165427D01*
X18494909Y19165429D01*
X18626019Y19253034D01*
X18737519Y19364534D01*
X18825124Y19495644D01*
X18885467Y19641326D01*
X18916230Y19795981D01*
X18916230Y19953665D01*
X18916230Y19953668D01*
X18916229Y19953670D01*
X18909329Y19988358D01*
X18885467Y20108320D01*
X18860884Y20167669D01*
X18825127Y20253996D01*
X18825120Y20254009D01*
X18737519Y20385112D01*
X18737516Y20385116D01*
X18626022Y20496610D01*
X18626018Y20496613D01*
X18587428Y20522398D01*
X18542623Y20576010D01*
X18533916Y20645335D01*
X18564070Y20708362D01*
X18623513Y20745082D01*
X18656319Y20749500D01*
X18943617Y20749500D01*
X18943618Y20749501D01*
X19127251Y20786027D01*
X19300231Y20857678D01*
X19300237Y20857682D01*
X19306609Y20861939D01*
X19373286Y20882817D01*
X19440667Y20864333D01*
X19487357Y20812354D01*
X19499500Y20758837D01*
X19499500Y15745135D01*
X19479815Y15678096D01*
X19427011Y15632341D01*
X19357853Y15622397D01*
X19328048Y15630573D01*
X19283476Y15649035D01*
X19233497Y15669737D01*
X19233494Y15669738D01*
X19233491Y15669739D01*
X19078845Y15700500D01*
X19078842Y15700500D01*
X18921158Y15700500D01*
X18921155Y15700500D01*
X18766510Y15669739D01*
X18766498Y15669736D01*
X18620827Y15609398D01*
X18620814Y15609391D01*
X18489711Y15521790D01*
X18489707Y15521787D01*
X18378213Y15410293D01*
X18378210Y15410289D01*
X18290609Y15279186D01*
X18290602Y15279173D01*
X18230264Y15133502D01*
X18230261Y15133490D01*
X18199500Y14978847D01*
X18199500Y14821154D01*
X18230261Y14666511D01*
X18230264Y14666499D01*
X18290602Y14520828D01*
X18290609Y14520815D01*
X18378210Y14389712D01*
X18378213Y14389708D01*
X18489707Y14278214D01*
X18489711Y14278211D01*
X18620814Y14190610D01*
X18620827Y14190603D01*
X18766498Y14130265D01*
X18766503Y14130263D01*
X18921153Y14099501D01*
X18921156Y14099500D01*
X18921158Y14099500D01*
X19078844Y14099500D01*
X19078845Y14099501D01*
X19233497Y14130263D01*
X19328048Y14169428D01*
X19397517Y14176896D01*
X19459996Y14145621D01*
X19495648Y14085532D01*
X19499500Y14054866D01*
X19499500Y12702191D01*
X19479815Y12635152D01*
X19427011Y12589397D01*
X19357853Y12579453D01*
X19294297Y12608478D01*
X19260939Y12654739D01*
X19209397Y12779173D01*
X19209390Y12779186D01*
X19121789Y12910289D01*
X19121786Y12910293D01*
X19010292Y13021787D01*
X19010288Y13021790D01*
X18879185Y13109391D01*
X18879172Y13109398D01*
X18733501Y13169736D01*
X18733489Y13169739D01*
X18578845Y13200500D01*
X18578842Y13200500D01*
X18421158Y13200500D01*
X18421155Y13200500D01*
X18266510Y13169739D01*
X18266498Y13169736D01*
X18120827Y13109398D01*
X18120814Y13109391D01*
X17989711Y13021790D01*
X17989707Y13021787D01*
X17878213Y12910293D01*
X17878210Y12910289D01*
X17790609Y12779186D01*
X17790602Y12779173D01*
X17730264Y12633502D01*
X17730261Y12633490D01*
X17699500Y12478847D01*
X17699500Y12321154D01*
X17730261Y12166511D01*
X17730264Y12166499D01*
X17790602Y12020828D01*
X17790609Y12020815D01*
X17878210Y11889712D01*
X17878213Y11889708D01*
X17989707Y11778214D01*
X17989711Y11778211D01*
X18120814Y11690610D01*
X18120827Y11690603D01*
X18187212Y11663106D01*
X18266503Y11630263D01*
X18421153Y11599501D01*
X18421156Y11599500D01*
X18421158Y11599500D01*
X18578844Y11599500D01*
X18578845Y11599501D01*
X18733497Y11630263D01*
X18879179Y11690606D01*
X19010289Y11778211D01*
X19121789Y11889711D01*
X19209394Y12020821D01*
X19225557Y12059842D01*
X19260939Y12145262D01*
X19304779Y12199666D01*
X19371074Y12221731D01*
X19438773Y12204452D01*
X19486384Y12153315D01*
X19499500Y12097810D01*
X19499500Y2754067D01*
X19499235Y2745957D01*
X19482925Y2497117D01*
X19480807Y2481036D01*
X19432954Y2240465D01*
X19428756Y2224798D01*
X19349909Y1992521D01*
X19343702Y1977535D01*
X19235212Y1757540D01*
X19227102Y1743494D01*
X19090825Y1539540D01*
X19080951Y1526671D01*
X18919218Y1342251D01*
X18907749Y1330782D01*
X18723329Y1169049D01*
X18710460Y1159175D01*
X18506506Y1022898D01*
X18492460Y1014788D01*
X18272465Y906298D01*
X18257479Y900091D01*
X18025202Y821244D01*
X18009535Y817046D01*
X17768964Y769193D01*
X17752883Y767075D01*
X17504043Y750765D01*
X17495933Y750500D01*
X9307703Y750500D01*
X9240664Y770185D01*
X9194909Y822989D01*
X9184965Y892147D01*
X9186086Y898691D01*
X9200499Y971154D01*
X9200500Y971156D01*
X9200500Y1128845D01*
X9200499Y1128847D01*
X9169738Y1283490D01*
X9169737Y1283497D01*
X9147932Y1336140D01*
X9109397Y1429173D01*
X9109390Y1429186D01*
X9021789Y1560289D01*
X9021786Y1560293D01*
X8910292Y1671787D01*
X8910288Y1671790D01*
X8779185Y1759391D01*
X8779172Y1759398D01*
X8633501Y1819736D01*
X8633489Y1819739D01*
X8478845Y1850500D01*
X8478842Y1850500D01*
X8321158Y1850500D01*
X8321155Y1850500D01*
X8166510Y1819739D01*
X8166498Y1819736D01*
X8020827Y1759398D01*
X8020814Y1759391D01*
X7889711Y1671790D01*
X7889707Y1671787D01*
X7778213Y1560293D01*
X7778210Y1560289D01*
X7690609Y1429186D01*
X7690602Y1429173D01*
X7630264Y1283502D01*
X7630261Y1283490D01*
X7599500Y1128847D01*
X7599500Y971154D01*
X7613914Y898691D01*
X7607687Y829100D01*
X7564824Y773922D01*
X7498934Y750678D01*
X7492297Y750500D01*
X2504067Y750500D01*
X2495957Y750765D01*
X2247116Y767075D01*
X2231035Y769193D01*
X1990464Y817046D01*
X1974797Y821244D01*
X1742520Y900091D01*
X1727534Y906298D01*
X1507539Y1014788D01*
X1493493Y1022898D01*
X1289539Y1159175D01*
X1276670Y1169049D01*
X1092250Y1330782D01*
X1080781Y1342251D01*
X950679Y1490603D01*
X919045Y1526675D01*
X909174Y1539540D01*
X772897Y1743494D01*
X764787Y1757540D01*
X733577Y1820828D01*
X656294Y1977542D01*
X650090Y1992521D01*
X640483Y2020821D01*
X606425Y2121154D01*
X571243Y2224798D01*
X567045Y2240465D01*
X550994Y2321158D01*
X519190Y2481047D01*
X517075Y2497105D01*
X500765Y2745957D01*
X500500Y2754067D01*
X500500Y5206614D01*
X6074500Y5206614D01*
X6074500Y4193387D01*
X6080913Y4122808D01*
X6080913Y4122806D01*
X6080914Y4122804D01*
X6131522Y3960394D01*
X6163973Y3906713D01*
X6219530Y3814812D01*
X6339811Y3694531D01*
X6339813Y3694530D01*
X6339815Y3694528D01*
X6485394Y3606522D01*
X6647804Y3555914D01*
X6718384Y3549500D01*
X6718387Y3549500D01*
X7231613Y3549500D01*
X7231616Y3549500D01*
X7302196Y3555914D01*
X7464606Y3606522D01*
X7608125Y3693283D01*
X7675676Y3711118D01*
X7741162Y3690267D01*
X7798450Y3651989D01*
X7798457Y3651985D01*
X7886051Y3615703D01*
X7962334Y3584106D01*
X7962336Y3584106D01*
X7962341Y3584104D01*
X8136304Y3549501D01*
X8136307Y3549500D01*
X8136309Y3549500D01*
X8313693Y3549500D01*
X8313694Y3549501D01*
X8371682Y3561036D01*
X8487658Y3584104D01*
X8487661Y3584106D01*
X8487666Y3584106D01*
X8651547Y3651987D01*
X8781109Y3738558D01*
X8847786Y3759436D01*
X8915166Y3740952D01*
X8918891Y3738558D01*
X8965657Y3707310D01*
X9010462Y3653698D01*
X9019169Y3584373D01*
X8989015Y3521346D01*
X8984448Y3516527D01*
X8878210Y3410289D01*
X8790609Y3279186D01*
X8790602Y3279173D01*
X8730264Y3133502D01*
X8730261Y3133490D01*
X8699500Y2978847D01*
X8699500Y2821154D01*
X8730261Y2666511D01*
X8730264Y2666499D01*
X8790602Y2520828D01*
X8790609Y2520815D01*
X8878210Y2389712D01*
X8878213Y2389708D01*
X8989707Y2278214D01*
X8989711Y2278211D01*
X9120814Y2190610D01*
X9120827Y2190603D01*
X9266498Y2130265D01*
X9266503Y2130263D01*
X9421153Y2099501D01*
X9421156Y2099500D01*
X9421158Y2099500D01*
X9578844Y2099500D01*
X9578845Y2099501D01*
X9733497Y2130263D01*
X9879179Y2190606D01*
X10010289Y2278211D01*
X10121789Y2389711D01*
X10181348Y2478847D01*
X12599500Y2478847D01*
X12599500Y2321154D01*
X12630261Y2166511D01*
X12630264Y2166499D01*
X12690602Y2020828D01*
X12690609Y2020815D01*
X12778210Y1889712D01*
X12778213Y1889708D01*
X12889707Y1778214D01*
X12889711Y1778211D01*
X13020814Y1690610D01*
X13020827Y1690603D01*
X13066254Y1671787D01*
X13166503Y1630263D01*
X13321153Y1599501D01*
X13321156Y1599500D01*
X13321158Y1599500D01*
X13478844Y1599500D01*
X13478845Y1599501D01*
X13633497Y1630263D01*
X13779179Y1690606D01*
X13910289Y1778211D01*
X13989760Y1857683D01*
X14051081Y1891166D01*
X14120773Y1886182D01*
X14176707Y1844311D01*
X14187190Y1825900D01*
X14187736Y1826191D01*
X14190609Y1820815D01*
X14278210Y1689712D01*
X14278213Y1689708D01*
X14389707Y1578214D01*
X14389711Y1578211D01*
X14520814Y1490610D01*
X14520827Y1490603D01*
X14666498Y1430265D01*
X14666503Y1430263D01*
X14821153Y1399501D01*
X14821156Y1399500D01*
X14821158Y1399500D01*
X14978844Y1399500D01*
X14978845Y1399501D01*
X15133497Y1430263D01*
X15279179Y1490606D01*
X15410289Y1578211D01*
X15521789Y1689711D01*
X15609394Y1820821D01*
X15669737Y1966503D01*
X15700500Y2121158D01*
X15700500Y2278842D01*
X15700500Y2278845D01*
X15700499Y2278847D01*
X15700275Y2279974D01*
X15669737Y2433497D01*
X15633569Y2520815D01*
X15609397Y2579173D01*
X15609390Y2579186D01*
X15521789Y2710289D01*
X15521786Y2710293D01*
X15410292Y2821787D01*
X15410288Y2821790D01*
X15279185Y2909391D01*
X15279172Y2909398D01*
X15133501Y2969736D01*
X15133489Y2969739D01*
X14978845Y3000500D01*
X14978842Y3000500D01*
X14821158Y3000500D01*
X14821155Y3000500D01*
X14666510Y2969739D01*
X14666498Y2969736D01*
X14520827Y2909398D01*
X14520814Y2909391D01*
X14389711Y2821790D01*
X14310240Y2742319D01*
X14248916Y2708835D01*
X14179225Y2713819D01*
X14123291Y2755691D01*
X14112810Y2774102D01*
X14112264Y2773809D01*
X14109390Y2779186D01*
X14021789Y2910289D01*
X14021786Y2910293D01*
X13910292Y3021787D01*
X13910288Y3021790D01*
X13779185Y3109391D01*
X13779172Y3109398D01*
X13633501Y3169736D01*
X13633489Y3169739D01*
X13478845Y3200500D01*
X13478842Y3200500D01*
X13321158Y3200500D01*
X13321155Y3200500D01*
X13166510Y3169739D01*
X13166498Y3169736D01*
X13020827Y3109398D01*
X13020814Y3109391D01*
X12889711Y3021790D01*
X12889707Y3021787D01*
X12778213Y2910293D01*
X12778210Y2910289D01*
X12690609Y2779186D01*
X12690602Y2779173D01*
X12630264Y2633502D01*
X12630261Y2633490D01*
X12599500Y2478847D01*
X10181348Y2478847D01*
X10209394Y2520821D01*
X10269737Y2666503D01*
X10300500Y2821158D01*
X10300500Y2978842D01*
X10300500Y2978845D01*
X10300499Y2978847D01*
X10280734Y3078211D01*
X10269737Y3133497D01*
X10269735Y3133502D01*
X10209397Y3279173D01*
X10209390Y3279186D01*
X10121789Y3410289D01*
X10121786Y3410293D01*
X10010292Y3521787D01*
X10005581Y3525653D01*
X10006862Y3527215D01*
X9967991Y3573722D01*
X9959280Y3643046D01*
X9989431Y3706075D01*
X10012787Y3726317D01*
X10031559Y3738860D01*
X10098233Y3759737D01*
X10165613Y3741254D01*
X10169340Y3738859D01*
X10298683Y3652434D01*
X10298696Y3652427D01*
X10340537Y3635096D01*
X10394941Y3591255D01*
X10414702Y3544728D01*
X10430262Y3466508D01*
X10430264Y3466499D01*
X10490602Y3320828D01*
X10490609Y3320815D01*
X10578210Y3189712D01*
X10578213Y3189708D01*
X10689707Y3078214D01*
X10689711Y3078211D01*
X10820814Y2990610D01*
X10820827Y2990603D01*
X10966498Y2930265D01*
X10966503Y2930263D01*
X11121153Y2899501D01*
X11121156Y2899500D01*
X11121158Y2899500D01*
X11278844Y2899500D01*
X11278845Y2899501D01*
X11433497Y2930263D01*
X11579179Y2990606D01*
X11710289Y3078211D01*
X11821789Y3189711D01*
X11909394Y3320821D01*
X11969737Y3466503D01*
X11986246Y3549500D01*
X12001689Y3627132D01*
X12003908Y3626691D01*
X12026251Y3682094D01*
X12054632Y3708294D01*
X12184716Y3795213D01*
X12296216Y3906713D01*
X12383821Y4037823D01*
X12444164Y4183505D01*
X12474927Y4338160D01*
X12474927Y4495844D01*
X12474927Y4495847D01*
X12474926Y4495849D01*
X12444164Y4650499D01*
X12423660Y4700000D01*
X12383824Y4796175D01*
X12383817Y4796188D01*
X12296216Y4927291D01*
X12296213Y4927295D01*
X12184719Y5038789D01*
X12184715Y5038792D01*
X12053612Y5126393D01*
X12053599Y5126400D01*
X11907928Y5186738D01*
X11907916Y5186741D01*
X11753272Y5217502D01*
X11753269Y5217502D01*
X11671205Y5217502D01*
X11604166Y5237187D01*
X11558411Y5289991D01*
X11556644Y5294049D01*
X11522571Y5376307D01*
X11522566Y5376317D01*
X11424076Y5523717D01*
X11424073Y5523721D01*
X11298720Y5649074D01*
X11298716Y5649077D01*
X11151316Y5747567D01*
X11151307Y5747572D01*
X10987519Y5815415D01*
X10975000Y5817906D01*
X10975000Y4844909D01*
X10965563Y4797460D01*
X10965033Y4796183D01*
X10965033Y4796181D01*
X10960395Y4784986D01*
X10936940Y4841614D01*
X10866614Y4911940D01*
X10774728Y4950000D01*
X10675272Y4950000D01*
X10583386Y4911940D01*
X10513060Y4841614D01*
X10485593Y4775304D01*
X10475000Y4824000D01*
X10475000Y5817905D01*
X10474999Y5817906D01*
X10462480Y5815415D01*
X10298692Y5747572D01*
X10298683Y5747567D01*
X10169340Y5661142D01*
X10102662Y5640264D01*
X10035282Y5658749D01*
X10031558Y5661142D01*
X9901552Y5748010D01*
X9901540Y5748017D01*
X9737667Y5815894D01*
X9737658Y5815897D01*
X9563694Y5850500D01*
X9563691Y5850500D01*
X9386309Y5850500D01*
X9386306Y5850500D01*
X9212341Y5815897D01*
X9212332Y5815894D01*
X9048459Y5748017D01*
X9048446Y5748010D01*
X8918891Y5661443D01*
X8852213Y5640565D01*
X8784833Y5659050D01*
X8781109Y5661443D01*
X8651553Y5748010D01*
X8651540Y5748017D01*
X8487667Y5815894D01*
X8487658Y5815897D01*
X8313694Y5850500D01*
X8313691Y5850500D01*
X8136309Y5850500D01*
X8136306Y5850500D01*
X8032466Y5829845D01*
X7962875Y5836072D01*
X7907697Y5878935D01*
X7884453Y5944825D01*
X7893714Y5998915D01*
X7927431Y6080315D01*
X7958194Y6234970D01*
X7958194Y6392654D01*
X7958194Y6392657D01*
X7958193Y6392659D01*
X7950713Y6430265D01*
X7927431Y6547309D01*
X7868447Y6689711D01*
X7867091Y6692985D01*
X7867084Y6692998D01*
X7779483Y6824101D01*
X7779480Y6824105D01*
X7667986Y6935599D01*
X7667982Y6935602D01*
X7536879Y7023203D01*
X7536866Y7023210D01*
X7391195Y7083548D01*
X7391183Y7083551D01*
X7236539Y7114312D01*
X7236536Y7114312D01*
X7078852Y7114312D01*
X7078849Y7114312D01*
X6924204Y7083551D01*
X6924192Y7083548D01*
X6778521Y7023210D01*
X6778508Y7023203D01*
X6647405Y6935602D01*
X6647401Y6935599D01*
X6535907Y6824105D01*
X6535904Y6824101D01*
X6448303Y6692998D01*
X6448296Y6692985D01*
X6387958Y6547314D01*
X6387955Y6547302D01*
X6357194Y6392659D01*
X6357194Y6234966D01*
X6387955Y6080323D01*
X6387958Y6080311D01*
X6448296Y5934640D01*
X6448306Y5934622D01*
X6454067Y5926000D01*
X6474945Y5859323D01*
X6456460Y5791943D01*
X6415116Y5750994D01*
X6339814Y5705472D01*
X6339810Y5705469D01*
X6219530Y5585189D01*
X6131522Y5439607D01*
X6080913Y5277193D01*
X6074500Y5206614D01*
X500500Y5206614D01*
X500500Y7278847D01*
X1349500Y7278847D01*
X1349500Y7121154D01*
X1380261Y6966511D01*
X1380264Y6966499D01*
X1440602Y6820828D01*
X1440609Y6820815D01*
X1528210Y6689712D01*
X1528213Y6689708D01*
X1639707Y6578214D01*
X1639711Y6578211D01*
X1770814Y6490610D01*
X1770827Y6490603D01*
X1916498Y6430265D01*
X1916503Y6430263D01*
X2071153Y6399501D01*
X2071156Y6399500D01*
X2071158Y6399500D01*
X2228844Y6399500D01*
X2228845Y6399501D01*
X2383497Y6430263D01*
X2529179Y6490606D01*
X2660289Y6578211D01*
X2771789Y6689711D01*
X2859394Y6820821D01*
X2919737Y6966503D01*
X2950500Y7121158D01*
X2950500Y7278842D01*
X2950500Y7278845D01*
X2950499Y7278847D01*
X2919738Y7433490D01*
X2919737Y7433497D01*
X2872390Y7547804D01*
X2859397Y7579173D01*
X2859390Y7579186D01*
X2771789Y7710289D01*
X2771786Y7710293D01*
X2660292Y7821787D01*
X2660288Y7821790D01*
X2529185Y7909391D01*
X2529172Y7909398D01*
X2383501Y7969736D01*
X2383489Y7969739D01*
X2228845Y8000500D01*
X2228842Y8000500D01*
X2071158Y8000500D01*
X2071155Y8000500D01*
X1916510Y7969739D01*
X1916498Y7969736D01*
X1770827Y7909398D01*
X1770814Y7909391D01*
X1639711Y7821790D01*
X1639707Y7821787D01*
X1528213Y7710293D01*
X1528210Y7710289D01*
X1440609Y7579186D01*
X1440602Y7579173D01*
X1380264Y7433502D01*
X1380261Y7433490D01*
X1349500Y7278847D01*
X500500Y7278847D01*
X500500Y8125000D01*
X3582096Y8125000D01*
X3584584Y8112484D01*
X3584587Y8112477D01*
X3652428Y7948694D01*
X3652433Y7948684D01*
X3750923Y7801284D01*
X3750926Y7801280D01*
X3876279Y7675927D01*
X3876283Y7675924D01*
X4023683Y7577434D01*
X4023692Y7577429D01*
X4187479Y7509587D01*
X4187487Y7509585D01*
X4361353Y7475001D01*
X4361357Y7475000D01*
X4450000Y7475000D01*
X4950000Y7475000D01*
X5038643Y7475000D01*
X5038646Y7475001D01*
X5212512Y7509585D01*
X5212520Y7509587D01*
X5376307Y7577429D01*
X5376316Y7577434D01*
X5523716Y7675924D01*
X5523720Y7675927D01*
X5649073Y7801280D01*
X5649076Y7801284D01*
X5747566Y7948684D01*
X5747571Y7948694D01*
X5815412Y8112477D01*
X5815415Y8112484D01*
X5817904Y8125000D01*
X4950000Y8125000D01*
X4950000Y7475000D01*
X4450000Y7475000D01*
X4450000Y8125000D01*
X3582096Y8125000D01*
X500500Y8125000D01*
X500500Y10020820D01*
X2441222Y10020820D01*
X2441222Y9863127D01*
X2471983Y9708484D01*
X2471986Y9708472D01*
X2532324Y9562801D01*
X2532331Y9562788D01*
X2619932Y9431685D01*
X2619935Y9431681D01*
X2731429Y9320187D01*
X2731433Y9320184D01*
X2862536Y9232583D01*
X2862549Y9232576D01*
X3005357Y9173424D01*
X3008225Y9172236D01*
X3162875Y9141474D01*
X3162878Y9141473D01*
X3162880Y9141473D01*
X3320566Y9141473D01*
X3320567Y9141474D01*
X3366553Y9150621D01*
X3481194Y9173424D01*
X3481426Y9172258D01*
X3544967Y9172830D01*
X3604083Y9135587D01*
X3617221Y9117696D01*
X3693567Y8991404D01*
X3711403Y8923852D01*
X3690553Y8858366D01*
X3652429Y8801309D01*
X3584587Y8637524D01*
X3584584Y8637517D01*
X3582096Y8625000D01*
X4650272Y8625000D01*
X4558386Y8586940D01*
X4488060Y8516614D01*
X4450000Y8424728D01*
X4450000Y8325272D01*
X4488060Y8233386D01*
X4558386Y8163060D01*
X4650272Y8125000D01*
X4749728Y8125000D01*
X4841614Y8163060D01*
X4911940Y8233386D01*
X4950000Y8325272D01*
X4950000Y8424728D01*
X4911940Y8516614D01*
X4841614Y8586940D01*
X4749728Y8625000D01*
X5817904Y8625000D01*
X5815415Y8637517D01*
X5815412Y8637524D01*
X5747571Y8801307D01*
X5747569Y8801311D01*
X5709447Y8858364D01*
X5688569Y8925042D01*
X5706431Y8991403D01*
X5793478Y9135394D01*
X5844086Y9297804D01*
X5850500Y9368384D01*
X5850500Y9881616D01*
X5844086Y9952196D01*
X5793478Y10114606D01*
X5705472Y10260185D01*
X5705470Y10260187D01*
X5705469Y10260189D01*
X5585188Y10380470D01*
X5580867Y10383082D01*
X5439606Y10468478D01*
X5277196Y10519086D01*
X5277194Y10519087D01*
X5277192Y10519087D01*
X5227778Y10523577D01*
X5206616Y10525500D01*
X4193384Y10525500D01*
X4174145Y10523752D01*
X4122807Y10519087D01*
X4122804Y10519086D01*
X3960394Y10468478D01*
X3960392Y10468477D01*
X3953233Y10466246D01*
X3952857Y10467451D01*
X3891219Y10458942D01*
X3827828Y10488325D01*
X3821876Y10493898D01*
X3752014Y10563760D01*
X3752010Y10563763D01*
X3620907Y10651364D01*
X3620894Y10651371D01*
X3475223Y10711709D01*
X3475211Y10711712D01*
X3320567Y10742473D01*
X3320564Y10742473D01*
X3162880Y10742473D01*
X3162877Y10742473D01*
X3008232Y10711712D01*
X3008220Y10711709D01*
X2862549Y10651371D01*
X2862536Y10651364D01*
X2731433Y10563763D01*
X2731429Y10563760D01*
X2619935Y10452266D01*
X2619932Y10452262D01*
X2532331Y10321159D01*
X2532324Y10321146D01*
X2471986Y10175475D01*
X2471983Y10175463D01*
X2441222Y10020820D01*
X500500Y10020820D01*
X500500Y14563018D01*
X2716390Y14563018D01*
X2716390Y14405325D01*
X2747151Y14250682D01*
X2747154Y14250670D01*
X2807492Y14104999D01*
X2807499Y14104986D01*
X2871229Y14009608D01*
X2892107Y13942930D01*
X2882688Y13893265D01*
X2830264Y13766701D01*
X2830261Y13766689D01*
X2799500Y13612046D01*
X2799500Y13454353D01*
X2830261Y13299710D01*
X2830264Y13299698D01*
X2890602Y13154027D01*
X2890609Y13154014D01*
X2978210Y13022911D01*
X2978213Y13022907D01*
X3089707Y12911413D01*
X3089711Y12911410D01*
X3112372Y12896268D01*
X3157177Y12842656D01*
X3165884Y12773331D01*
X3165098Y12768975D01*
X3141306Y12649363D01*
X3141306Y12491670D01*
X3172067Y12337027D01*
X3172070Y12337015D01*
X3232408Y12191345D01*
X3232418Y12191326D01*
X3291824Y12102418D01*
X3312702Y12035741D01*
X3310339Y12009337D01*
X3289608Y11905114D01*
X3289608Y11747421D01*
X3320369Y11592778D01*
X3320372Y11592766D01*
X3380710Y11447095D01*
X3380717Y11447082D01*
X3468318Y11315979D01*
X3468321Y11315975D01*
X3579815Y11204481D01*
X3579819Y11204478D01*
X3710922Y11116877D01*
X3710935Y11116870D01*
X3814504Y11073971D01*
X3856611Y11056530D01*
X3998607Y11028285D01*
X4011261Y11025768D01*
X4011264Y11025767D01*
X4011266Y11025767D01*
X4168952Y11025767D01*
X4168953Y11025768D01*
X4323605Y11056530D01*
X4469287Y11116873D01*
X4600397Y11204478D01*
X4711897Y11315978D01*
X4799502Y11447088D01*
X4859845Y11592770D01*
X4890608Y11747425D01*
X4890608Y11905109D01*
X4890608Y11905112D01*
X4890607Y11905114D01*
X4873780Y11989708D01*
X4859845Y12059764D01*
X4842177Y12102418D01*
X4799505Y12205440D01*
X4799498Y12205453D01*
X4740089Y12294364D01*
X4719211Y12361041D01*
X4721574Y12387447D01*
X4742306Y12491672D01*
X4742306Y12649361D01*
X4742305Y12649363D01*
X4716955Y12776809D01*
X4723182Y12846400D01*
X4761592Y12895845D01*
X5829499Y12895845D01*
X5829499Y12738152D01*
X5860260Y12583509D01*
X5860263Y12583497D01*
X5920601Y12437826D01*
X5920608Y12437813D01*
X6008209Y12306710D01*
X6008212Y12306706D01*
X6119706Y12195212D01*
X6119710Y12195209D01*
X6250813Y12107608D01*
X6250826Y12107601D01*
X6396497Y12047263D01*
X6396502Y12047261D01*
X6529389Y12020828D01*
X6551152Y12016499D01*
X6551155Y12016498D01*
X6551157Y12016498D01*
X6708843Y12016498D01*
X6708844Y12016499D01*
X6863496Y12047261D01*
X7009178Y12107604D01*
X7119934Y12181610D01*
X7186611Y12202487D01*
X7253991Y12184003D01*
X7300682Y12132024D01*
X7311858Y12063054D01*
X7291927Y12009617D01*
X7227215Y11912769D01*
X7227205Y11912751D01*
X7166867Y11767080D01*
X7166864Y11767068D01*
X7136103Y11612425D01*
X7136103Y11454732D01*
X7166864Y11300089D01*
X7166867Y11300077D01*
X7224791Y11160234D01*
X7232260Y11090764D01*
X7200984Y11028285D01*
X7172948Y11006706D01*
X7173109Y11006466D01*
X7169537Y11004080D01*
X7168691Y11003428D01*
X7168047Y11003084D01*
X7036934Y10915477D01*
X7036930Y10915474D01*
X6925436Y10803980D01*
X6925433Y10803976D01*
X6837832Y10672873D01*
X6837825Y10672860D01*
X6777487Y10527189D01*
X6777484Y10527177D01*
X6746723Y10372534D01*
X6746723Y10214841D01*
X6777484Y10060198D01*
X6777487Y10060186D01*
X6837825Y9914515D01*
X6837832Y9914502D01*
X6925433Y9783399D01*
X6925436Y9783395D01*
X7036930Y9671901D01*
X7036934Y9671898D01*
X7168037Y9584297D01*
X7168050Y9584290D01*
X7313721Y9523952D01*
X7313726Y9523950D01*
X7468376Y9493188D01*
X7468379Y9493187D01*
X7468381Y9493187D01*
X7626067Y9493187D01*
X7626068Y9493188D01*
X7780720Y9523950D01*
X7926402Y9584293D01*
X8057512Y9671898D01*
X8169012Y9783398D01*
X8256617Y9914508D01*
X8316960Y10060190D01*
X8347723Y10214845D01*
X8347723Y10372529D01*
X8347723Y10372532D01*
X8347722Y10372534D01*
X8345225Y10385087D01*
X8316960Y10527184D01*
X8301809Y10563763D01*
X8259034Y10667032D01*
X8251565Y10736501D01*
X8282840Y10798980D01*
X8310463Y10820239D01*
X8310282Y10820507D01*
X8310500Y10820654D01*
X8311356Y10820927D01*
X8315156Y10823850D01*
X8315777Y10824183D01*
X8315782Y10824184D01*
X8315785Y10824187D01*
X8321169Y10827063D01*
X8322547Y10824483D01*
X8377089Y10841814D01*
X8444546Y10823614D01*
X8487032Y10778577D01*
X8487221Y10778703D01*
X8487967Y10777586D01*
X8489185Y10776295D01*
X8490604Y10773640D01*
X8578210Y10642529D01*
X8578213Y10642525D01*
X8689707Y10531031D01*
X8689711Y10531028D01*
X8820814Y10443427D01*
X8820827Y10443420D01*
X8966498Y10383082D01*
X8966503Y10383080D01*
X8992118Y10377985D01*
X9054027Y10345601D01*
X9088602Y10284886D01*
X9084863Y10215117D01*
X9043998Y10158444D01*
X9036819Y10153267D01*
X8989709Y10121789D01*
X8878213Y10010293D01*
X8878210Y10010289D01*
X8790609Y9879186D01*
X8790602Y9879173D01*
X8730264Y9733502D01*
X8730261Y9733490D01*
X8699500Y9578847D01*
X8699500Y9421154D01*
X8730261Y9266511D01*
X8730264Y9266499D01*
X8790602Y9120828D01*
X8790609Y9120815D01*
X8878210Y8989712D01*
X8878213Y8989708D01*
X8989707Y8878214D01*
X8989711Y8878211D01*
X9120814Y8790610D01*
X9120827Y8790603D01*
X9264931Y8730914D01*
X9266503Y8730263D01*
X9421153Y8699501D01*
X9421156Y8699500D01*
X9421158Y8699500D01*
X9578844Y8699500D01*
X9578845Y8699501D01*
X9733497Y8730263D01*
X9850790Y8778847D01*
X11324414Y8778847D01*
X11324414Y8621154D01*
X11355175Y8466511D01*
X11355178Y8466499D01*
X11415516Y8320828D01*
X11415523Y8320815D01*
X11503124Y8189712D01*
X11503127Y8189708D01*
X11614621Y8078214D01*
X11614625Y8078211D01*
X11745728Y7990610D01*
X11745741Y7990603D01*
X11846920Y7948694D01*
X11891417Y7930263D01*
X12046067Y7899501D01*
X12046070Y7899500D01*
X12046072Y7899500D01*
X12203758Y7899500D01*
X12203759Y7899501D01*
X12358411Y7930263D01*
X12504093Y7990606D01*
X12635203Y8078211D01*
X12746703Y8189711D01*
X12834308Y8320821D01*
X12894651Y8466503D01*
X12925414Y8621158D01*
X12925414Y8778842D01*
X12925414Y8778845D01*
X12925413Y8778847D01*
X12909596Y8858364D01*
X12894651Y8933497D01*
X12871366Y8989712D01*
X12834311Y9079173D01*
X12834304Y9079186D01*
X12746703Y9210289D01*
X12746700Y9210293D01*
X12635206Y9321787D01*
X12635202Y9321790D01*
X12504099Y9409391D01*
X12504086Y9409398D01*
X12358415Y9469736D01*
X12358403Y9469739D01*
X12203759Y9500500D01*
X12203756Y9500500D01*
X12046072Y9500500D01*
X12046069Y9500500D01*
X11891424Y9469739D01*
X11891412Y9469736D01*
X11745741Y9409398D01*
X11745728Y9409391D01*
X11614625Y9321790D01*
X11614621Y9321787D01*
X11503127Y9210293D01*
X11503124Y9210289D01*
X11415523Y9079186D01*
X11415516Y9079173D01*
X11355178Y8933502D01*
X11355175Y8933490D01*
X11324414Y8778847D01*
X9850790Y8778847D01*
X9879179Y8790606D01*
X10010289Y8878211D01*
X10121789Y8989711D01*
X10209394Y9120821D01*
X10269737Y9266503D01*
X10300500Y9421158D01*
X10300500Y9578842D01*
X10300500Y9578845D01*
X10300499Y9578847D01*
X10281989Y9671901D01*
X10269737Y9733497D01*
X10249069Y9783395D01*
X10209397Y9879173D01*
X10209390Y9879186D01*
X10121789Y10010289D01*
X10121786Y10010293D01*
X10010292Y10121787D01*
X10010288Y10121790D01*
X9879185Y10209391D01*
X9879172Y10209398D01*
X9733501Y10269736D01*
X9733492Y10269738D01*
X9707880Y10274833D01*
X9692661Y10282795D01*
X9675783Y10285963D01*
X9662345Y10298653D01*
X9645970Y10307219D01*
X9637471Y10322143D01*
X9624985Y10333935D01*
X9620541Y10351874D01*
X9611396Y10367935D01*
X9612315Y10385087D01*
X9608187Y10401755D01*
X9614147Y10419249D01*
X9615137Y10437704D01*
X9625285Y10451939D01*
X9629291Y10463696D01*
X13599500Y10463696D01*
X13599500Y10286305D01*
X13634103Y10112342D01*
X13634106Y10112333D01*
X13701983Y9948460D01*
X13701990Y9948447D01*
X13788557Y9818891D01*
X13809435Y9752213D01*
X13790950Y9684833D01*
X13788557Y9681109D01*
X13701990Y9551554D01*
X13701983Y9551541D01*
X13634106Y9387668D01*
X13634103Y9387659D01*
X13599500Y9213696D01*
X13599500Y9036305D01*
X13634103Y8862342D01*
X13634106Y8862333D01*
X13701983Y8698460D01*
X13701991Y8698445D01*
X13740265Y8641166D01*
X13761144Y8574489D01*
X13743281Y8508125D01*
X13656523Y8364609D01*
X13656522Y8364607D01*
X13656522Y8364606D01*
X13642878Y8320821D01*
X13605913Y8202193D01*
X13599500Y8131614D01*
X13599500Y7618387D01*
X13605913Y7547808D01*
X13605913Y7547806D01*
X13605914Y7547804D01*
X13656522Y7385394D01*
X13720933Y7278845D01*
X13744530Y7239812D01*
X13864811Y7119531D01*
X13864813Y7119530D01*
X13864815Y7119528D01*
X14010394Y7031522D01*
X14172804Y6980914D01*
X14243384Y6974500D01*
X14243387Y6974500D01*
X15256613Y6974500D01*
X15256616Y6974500D01*
X15327196Y6980914D01*
X15489606Y7031522D01*
X15635185Y7119528D01*
X15755472Y7239815D01*
X15843478Y7385394D01*
X15894086Y7547804D01*
X15900500Y7618384D01*
X15900500Y8131616D01*
X15894086Y8202196D01*
X15843478Y8364606D01*
X15756716Y8508127D01*
X15738881Y8575678D01*
X15759731Y8641161D01*
X15798013Y8698453D01*
X15865894Y8862334D01*
X15869053Y8878211D01*
X15900499Y9036305D01*
X15900500Y9036307D01*
X15900500Y9213694D01*
X15900499Y9213696D01*
X15865896Y9387659D01*
X15865893Y9387668D01*
X15798016Y9551541D01*
X15798014Y9551545D01*
X15798013Y9551547D01*
X15741542Y9636061D01*
X15711442Y9681109D01*
X15690564Y9747786D01*
X15709048Y9815166D01*
X15711442Y9818891D01*
X15727352Y9842704D01*
X15798013Y9948453D01*
X15865894Y10112334D01*
X15866347Y10114607D01*
X15888964Y10228318D01*
X15900500Y10286309D01*
X15900500Y10463691D01*
X15900500Y10463694D01*
X15900499Y10463699D01*
X15899933Y10466547D01*
X15896333Y10484646D01*
X17389618Y10484646D01*
X17389618Y10326953D01*
X17420379Y10172310D01*
X17420382Y10172298D01*
X17480720Y10026627D01*
X17480727Y10026614D01*
X17568328Y9895511D01*
X17568331Y9895507D01*
X17679825Y9784013D01*
X17679829Y9784010D01*
X17810932Y9696409D01*
X17810945Y9696402D01*
X17956616Y9636064D01*
X17956621Y9636062D01*
X18111271Y9605300D01*
X18111274Y9605299D01*
X18111276Y9605299D01*
X18268962Y9605299D01*
X18268963Y9605300D01*
X18423615Y9636062D01*
X18569297Y9696405D01*
X18700407Y9784010D01*
X18811907Y9895510D01*
X18899512Y10026620D01*
X18959855Y10172302D01*
X18990618Y10326957D01*
X18990618Y10484641D01*
X18990618Y10484644D01*
X18990617Y10484646D01*
X18983766Y10519087D01*
X18959855Y10639296D01*
X18954855Y10651367D01*
X18899515Y10784972D01*
X18899508Y10784985D01*
X18811907Y10916088D01*
X18811904Y10916092D01*
X18700410Y11027586D01*
X18700406Y11027589D01*
X18569303Y11115190D01*
X18569290Y11115197D01*
X18423619Y11175535D01*
X18423607Y11175538D01*
X18268963Y11206299D01*
X18268960Y11206299D01*
X18111276Y11206299D01*
X18111273Y11206299D01*
X17956628Y11175538D01*
X17956616Y11175535D01*
X17810945Y11115197D01*
X17810932Y11115190D01*
X17679829Y11027589D01*
X17679825Y11027586D01*
X17568331Y10916092D01*
X17568328Y10916088D01*
X17480727Y10784985D01*
X17480720Y10784972D01*
X17420382Y10639301D01*
X17420379Y10639289D01*
X17389618Y10484646D01*
X15896333Y10484646D01*
X15865895Y10637660D01*
X15865894Y10637666D01*
X15835224Y10711710D01*
X15798016Y10801541D01*
X15798014Y10801545D01*
X15798013Y10801547D01*
X15711140Y10931560D01*
X15690263Y10998236D01*
X15708747Y11065616D01*
X15711141Y11069341D01*
X15797566Y11198685D01*
X15797571Y11198694D01*
X15865412Y11362477D01*
X15865415Y11362484D01*
X15867904Y11375000D01*
X14799728Y11375000D01*
X14891614Y11413060D01*
X14961940Y11483386D01*
X15000000Y11575272D01*
X15000000Y11674728D01*
X14961940Y11766614D01*
X14891614Y11836940D01*
X14799728Y11875000D01*
X14700272Y11875000D01*
X14608386Y11836940D01*
X14538060Y11766614D01*
X14500000Y11674728D01*
X14500000Y11575272D01*
X14538060Y11483386D01*
X14608386Y11413060D01*
X14700272Y11375000D01*
X13632096Y11375000D01*
X13634584Y11362484D01*
X13634587Y11362477D01*
X13702428Y11198694D01*
X13702433Y11198684D01*
X13788858Y11069341D01*
X13809736Y11002664D01*
X13791252Y10935283D01*
X13788858Y10931559D01*
X13701990Y10801554D01*
X13701983Y10801541D01*
X13634106Y10637668D01*
X13634103Y10637659D01*
X13599500Y10463696D01*
X9629291Y10463696D01*
X9630721Y10467891D01*
X9650214Y10486904D01*
X9654954Y10493551D01*
X9658946Y10496723D01*
X9710289Y10531028D01*
X9821789Y10642528D01*
X9909394Y10773638D01*
X9969737Y10919320D01*
X10000500Y11073975D01*
X10000500Y11231659D01*
X10000500Y11231662D01*
X10000499Y11231664D01*
X9983728Y11315978D01*
X9969737Y11386314D01*
X9958659Y11413060D01*
X9909397Y11531990D01*
X9909390Y11532003D01*
X9821789Y11663106D01*
X9821786Y11663110D01*
X9710292Y11774604D01*
X9710288Y11774607D01*
X9579185Y11862208D01*
X9579172Y11862215D01*
X9433501Y11922553D01*
X9433489Y11922556D01*
X9278845Y11953317D01*
X9278842Y11953317D01*
X9121158Y11953317D01*
X9121155Y11953317D01*
X8966510Y11922556D01*
X8966498Y11922553D01*
X8820828Y11862215D01*
X8815447Y11859338D01*
X8814148Y11861767D01*
X8758599Y11844565D01*
X8691277Y11863262D01*
X8649561Y11907813D01*
X8649382Y11907692D01*
X8648653Y11908783D01*
X8647414Y11910106D01*
X8645995Y11912761D01*
X8558392Y12043867D01*
X8558389Y12043871D01*
X8446895Y12155365D01*
X8446891Y12155368D01*
X8315788Y12242969D01*
X8315775Y12242976D01*
X8170104Y12303314D01*
X8170092Y12303317D01*
X8015448Y12334078D01*
X8015445Y12334078D01*
X7857761Y12334078D01*
X7857758Y12334078D01*
X7703113Y12303317D01*
X7703101Y12303314D01*
X7557430Y12242976D01*
X7557419Y12242970D01*
X7446666Y12168967D01*
X7379989Y12148090D01*
X7312609Y12166575D01*
X7265919Y12218554D01*
X7254743Y12287524D01*
X7274672Y12340959D01*
X7339393Y12437819D01*
X7397808Y12578847D01*
X12699500Y12578847D01*
X12699500Y12421154D01*
X12730261Y12266511D01*
X12730264Y12266499D01*
X12790602Y12120828D01*
X12790609Y12120815D01*
X12878210Y11989712D01*
X12878213Y11989708D01*
X12989707Y11878214D01*
X12989711Y11878211D01*
X13120814Y11790610D01*
X13120827Y11790603D01*
X13266498Y11730265D01*
X13266503Y11730263D01*
X13421153Y11699501D01*
X13421156Y11699500D01*
X13421158Y11699500D01*
X13578844Y11699500D01*
X13578845Y11699501D01*
X13733497Y11730263D01*
X13879179Y11790606D01*
X13974207Y11854103D01*
X14040884Y11874980D01*
X14043098Y11875000D01*
X14500000Y11875000D01*
X14500000Y12487905D01*
X14392232Y12525000D01*
X15000000Y12525000D01*
X15000000Y11875000D01*
X15867904Y11875000D01*
X15865415Y11887517D01*
X15865412Y11887524D01*
X15836201Y11958047D01*
X15828732Y12027516D01*
X15860007Y12089996D01*
X15920096Y12125648D01*
X15950762Y12129500D01*
X16002357Y12129500D01*
X16002358Y12129501D01*
X16157010Y12160263D01*
X16302692Y12220606D01*
X16433802Y12308211D01*
X16545302Y12419711D01*
X16632907Y12550821D01*
X16693250Y12696503D01*
X16724013Y12851158D01*
X16724013Y13008842D01*
X16724013Y13008845D01*
X16724012Y13008847D01*
X16715727Y13050500D01*
X16693250Y13163497D01*
X16690665Y13169737D01*
X16632910Y13309173D01*
X16632903Y13309186D01*
X16545302Y13440289D01*
X16545299Y13440293D01*
X16433805Y13551787D01*
X16433801Y13551790D01*
X16302698Y13639391D01*
X16302685Y13639398D01*
X16157014Y13699736D01*
X16157002Y13699739D01*
X16002358Y13730500D01*
X16002355Y13730500D01*
X15844671Y13730500D01*
X15844668Y13730500D01*
X15690023Y13699739D01*
X15690011Y13699736D01*
X15544340Y13639398D01*
X15544327Y13639391D01*
X15413224Y13551790D01*
X15413220Y13551787D01*
X15301726Y13440293D01*
X15301723Y13440289D01*
X15214122Y13309186D01*
X15214115Y13309173D01*
X15153777Y13163502D01*
X15153774Y13163490D01*
X15123013Y13008847D01*
X15123013Y12851154D01*
X15153774Y12696511D01*
X15153777Y12696498D01*
X15153796Y12696454D01*
X15153798Y12696430D01*
X15155544Y12690676D01*
X15154452Y12690345D01*
X15161266Y12626985D01*
X15129992Y12564505D01*
X15069904Y12528852D01*
X15039236Y12525000D01*
X15000000Y12525000D01*
X14392232Y12525000D01*
X14372616Y12531752D01*
X14360357Y12540451D01*
X14345935Y12544685D01*
X14332440Y12560259D01*
X14315633Y12572184D01*
X14310022Y12586131D01*
X14300180Y12597489D01*
X14291357Y12624809D01*
X14279614Y12683842D01*
X14269737Y12733497D01*
X14255042Y12768975D01*
X14209397Y12879173D01*
X14209390Y12879186D01*
X14121789Y13010289D01*
X14121786Y13010293D01*
X14010292Y13121787D01*
X14010288Y13121790D01*
X13879185Y13209391D01*
X13879172Y13209398D01*
X13733501Y13269736D01*
X13733489Y13269739D01*
X13578845Y13300500D01*
X13578842Y13300500D01*
X13421158Y13300500D01*
X13421155Y13300500D01*
X13266510Y13269739D01*
X13266498Y13269736D01*
X13120827Y13209398D01*
X13120814Y13209391D01*
X12989711Y13121790D01*
X12989707Y13121787D01*
X12878213Y13010293D01*
X12878210Y13010289D01*
X12790609Y12879186D01*
X12790602Y12879173D01*
X12730264Y12733502D01*
X12730261Y12733490D01*
X12699500Y12578847D01*
X7397808Y12578847D01*
X7399736Y12583501D01*
X7400909Y12589397D01*
X7404834Y12609127D01*
X7404834Y12609129D01*
X7430498Y12738152D01*
X7430499Y12738154D01*
X7430499Y12895843D01*
X7430498Y12895845D01*
X7424698Y12925001D01*
X7399736Y13050495D01*
X7375341Y13109391D01*
X7339396Y13196171D01*
X7339389Y13196184D01*
X7251788Y13327287D01*
X7251785Y13327291D01*
X7140291Y13438785D01*
X7140287Y13438788D01*
X7009184Y13526389D01*
X7009171Y13526396D01*
X6863500Y13586734D01*
X6863488Y13586737D01*
X6708844Y13617498D01*
X6708841Y13617498D01*
X6551157Y13617498D01*
X6551154Y13617498D01*
X6396509Y13586737D01*
X6396497Y13586734D01*
X6250826Y13526396D01*
X6250813Y13526389D01*
X6119710Y13438788D01*
X6119706Y13438785D01*
X6008212Y13327291D01*
X6008209Y13327287D01*
X5920608Y13196184D01*
X5920601Y13196171D01*
X5860263Y13050500D01*
X5860260Y13050488D01*
X5829499Y12895845D01*
X4761592Y12895845D01*
X4766045Y12901578D01*
X4831935Y12924822D01*
X4838572Y12925000D01*
X5038643Y12925000D01*
X5038646Y12925001D01*
X5212512Y12959585D01*
X5212520Y12959587D01*
X5349906Y13016493D01*
X5349907Y13016494D01*
X5376303Y13027427D01*
X5376316Y13027434D01*
X5523716Y13125924D01*
X5523720Y13125927D01*
X5649073Y13251280D01*
X5649076Y13251284D01*
X5747566Y13398684D01*
X5747571Y13398694D01*
X5815412Y13562477D01*
X5815415Y13562484D01*
X5817904Y13575000D01*
X4824000Y13575000D01*
X4780538Y13587762D01*
X4841614Y13613060D01*
X4911940Y13683386D01*
X4950000Y13775272D01*
X4950000Y13874728D01*
X4911940Y13966614D01*
X4841614Y14036940D01*
X4775303Y14064407D01*
X4824000Y14075000D01*
X5817904Y14075000D01*
X5815415Y14087517D01*
X5815412Y14087524D01*
X5747571Y14251307D01*
X5747566Y14251317D01*
X5661141Y14380660D01*
X5640263Y14447337D01*
X5658747Y14514717D01*
X5661129Y14518424D01*
X5748013Y14648453D01*
X5748014Y14648456D01*
X5748016Y14648459D01*
X5792227Y14755196D01*
X12379448Y14755196D01*
X12379448Y14597503D01*
X12410209Y14442860D01*
X12410212Y14442848D01*
X12470550Y14297177D01*
X12470557Y14297164D01*
X12558158Y14166061D01*
X12558161Y14166057D01*
X12669655Y14054563D01*
X12669659Y14054560D01*
X12800762Y13966959D01*
X12800775Y13966952D01*
X12946446Y13906614D01*
X12946451Y13906612D01*
X13101101Y13875850D01*
X13101104Y13875849D01*
X13101106Y13875849D01*
X13258792Y13875849D01*
X13258793Y13875850D01*
X13413445Y13906612D01*
X13559127Y13966955D01*
X13690237Y14054560D01*
X13719167Y14083491D01*
X13780487Y14116975D01*
X13831039Y14117426D01*
X13921155Y14099500D01*
X13921158Y14099500D01*
X14078844Y14099500D01*
X14078845Y14099501D01*
X14233497Y14130263D01*
X14379179Y14190606D01*
X14510289Y14278211D01*
X14599574Y14367497D01*
X14660895Y14400981D01*
X14711450Y14401431D01*
X14721155Y14399500D01*
X14721158Y14399500D01*
X14878844Y14399500D01*
X14878845Y14399501D01*
X15033497Y14430263D01*
X15179179Y14490606D01*
X15310289Y14578211D01*
X15421789Y14689711D01*
X15509394Y14820821D01*
X15569737Y14966503D01*
X15600500Y15121158D01*
X15600500Y15278842D01*
X15600500Y15278845D01*
X15600499Y15278847D01*
X15599325Y15284750D01*
X15569737Y15433497D01*
X15567353Y15439253D01*
X15509397Y15579173D01*
X15509390Y15579186D01*
X15421789Y15710289D01*
X15421786Y15710293D01*
X15310292Y15821787D01*
X15310288Y15821790D01*
X15179185Y15909391D01*
X15179172Y15909398D01*
X15033501Y15969736D01*
X15033489Y15969739D01*
X14878845Y16000500D01*
X14878842Y16000500D01*
X14721158Y16000500D01*
X14721155Y16000500D01*
X14566510Y15969739D01*
X14566498Y15969736D01*
X14420827Y15909398D01*
X14420814Y15909391D01*
X14289711Y15821790D01*
X14289707Y15821787D01*
X14200426Y15732505D01*
X14139103Y15699020D01*
X14088556Y15698568D01*
X14078842Y15700500D01*
X13921158Y15700500D01*
X13921155Y15700500D01*
X13766510Y15669739D01*
X13766498Y15669736D01*
X13620827Y15609398D01*
X13620814Y15609391D01*
X13489714Y15521792D01*
X13460778Y15492857D01*
X13399453Y15459374D01*
X13348908Y15458924D01*
X13258793Y15476849D01*
X13258790Y15476849D01*
X13101106Y15476849D01*
X13101103Y15476849D01*
X12946458Y15446088D01*
X12946446Y15446085D01*
X12800775Y15385747D01*
X12800762Y15385740D01*
X12669659Y15298139D01*
X12669655Y15298136D01*
X12558161Y15186642D01*
X12558158Y15186638D01*
X12470557Y15055535D01*
X12470550Y15055522D01*
X12410212Y14909851D01*
X12410209Y14909839D01*
X12379448Y14755196D01*
X5792227Y14755196D01*
X5814403Y14808735D01*
X5815894Y14812334D01*
X5817583Y14820821D01*
X5838964Y14928318D01*
X5850500Y14986309D01*
X5850500Y15163691D01*
X5850500Y15163694D01*
X5850499Y15163696D01*
X5815896Y15337659D01*
X5815893Y15337668D01*
X5748016Y15501541D01*
X5748014Y15501545D01*
X5748013Y15501547D01*
X5695326Y15580398D01*
X5661442Y15631109D01*
X5640564Y15697786D01*
X5659048Y15765166D01*
X5661442Y15768891D01*
X5720446Y15857197D01*
X5748013Y15898453D01*
X5815894Y16062334D01*
X5850500Y16236309D01*
X5850500Y16413691D01*
X5850500Y16413694D01*
X5850499Y16413696D01*
X5815896Y16587659D01*
X5815893Y16587668D01*
X5748015Y16751543D01*
X5748011Y16751550D01*
X5709733Y16808838D01*
X5688855Y16875515D01*
X5706717Y16941875D01*
X5793478Y17085394D01*
X5844086Y17247804D01*
X5850500Y17318384D01*
X5850500Y17337425D01*
X9049500Y17337425D01*
X9049500Y17179732D01*
X9080261Y17025089D01*
X9080264Y17025077D01*
X9140602Y16879406D01*
X9140609Y16879393D01*
X9228210Y16748290D01*
X9228213Y16748286D01*
X9339707Y16636792D01*
X9339711Y16636789D01*
X9470814Y16549188D01*
X9470827Y16549181D01*
X9616498Y16488843D01*
X9616503Y16488841D01*
X9771153Y16458079D01*
X9771156Y16458078D01*
X9771158Y16458078D01*
X9928844Y16458078D01*
X9928845Y16458079D01*
X10083497Y16488841D01*
X10196166Y16535511D01*
X10229172Y16549181D01*
X10229172Y16549182D01*
X10229179Y16549184D01*
X10360289Y16636789D01*
X10471789Y16748289D01*
X10559394Y16879399D01*
X10619737Y17025081D01*
X10650500Y17179736D01*
X10650500Y17337420D01*
X10650500Y17337423D01*
X10650499Y17337425D01*
X10622369Y17478842D01*
X10619737Y17492075D01*
X10583795Y17578847D01*
X11399500Y17578847D01*
X11399500Y17421154D01*
X11430261Y17266511D01*
X11430264Y17266499D01*
X11490602Y17120828D01*
X11490609Y17120815D01*
X11578210Y16989712D01*
X11578213Y16989708D01*
X11689707Y16878214D01*
X11689711Y16878211D01*
X11820814Y16790610D01*
X11820827Y16790603D01*
X11966498Y16730265D01*
X11966503Y16730263D01*
X12121153Y16699501D01*
X12121156Y16699500D01*
X12121158Y16699500D01*
X12278844Y16699500D01*
X12278845Y16699501D01*
X12433497Y16730263D01*
X12579179Y16790606D01*
X12710289Y16878211D01*
X12768664Y16936587D01*
X12829985Y16970070D01*
X12899677Y16965086D01*
X12955611Y16923215D01*
X12959447Y16917794D01*
X12978212Y16889709D01*
X13089707Y16778214D01*
X13089711Y16778211D01*
X13220814Y16690610D01*
X13220827Y16690603D01*
X13366498Y16630265D01*
X13366503Y16630263D01*
X13513723Y16600979D01*
X13521153Y16599501D01*
X13521156Y16599500D01*
X13521158Y16599500D01*
X13678844Y16599500D01*
X13678845Y16599501D01*
X13833497Y16630263D01*
X13979179Y16690606D01*
X14110289Y16778211D01*
X14221789Y16889711D01*
X14309394Y17020821D01*
X14369737Y17166503D01*
X14400500Y17321158D01*
X14400500Y17478842D01*
X14400500Y17478845D01*
X14400499Y17478847D01*
X14388836Y17537481D01*
X14369737Y17633497D01*
X14367975Y17637751D01*
X14309397Y17779173D01*
X14309390Y17779186D01*
X14221789Y17910289D01*
X14221786Y17910293D01*
X14110292Y18021787D01*
X14110288Y18021790D01*
X13979185Y18109391D01*
X13979172Y18109398D01*
X13833501Y18169736D01*
X13833489Y18169739D01*
X13678845Y18200500D01*
X13678842Y18200500D01*
X13521158Y18200500D01*
X13521155Y18200500D01*
X13366510Y18169739D01*
X13366498Y18169736D01*
X13220827Y18109398D01*
X13220814Y18109391D01*
X13089711Y18021790D01*
X13031336Y17963415D01*
X12970012Y17929931D01*
X12900321Y17934916D01*
X12844387Y17976787D01*
X12840552Y17982208D01*
X12821790Y18010288D01*
X12821786Y18010293D01*
X12710292Y18121787D01*
X12710288Y18121790D01*
X12579185Y18209391D01*
X12579172Y18209398D01*
X12433501Y18269736D01*
X12433489Y18269739D01*
X12278845Y18300500D01*
X12278842Y18300500D01*
X12121158Y18300500D01*
X12121155Y18300500D01*
X11966510Y18269739D01*
X11966498Y18269736D01*
X11820827Y18209398D01*
X11820814Y18209391D01*
X11689711Y18121790D01*
X11689707Y18121787D01*
X11578213Y18010293D01*
X11578210Y18010289D01*
X11490609Y17879186D01*
X11490602Y17879173D01*
X11430264Y17733502D01*
X11430261Y17733490D01*
X11399500Y17578847D01*
X10583795Y17578847D01*
X10575373Y17599180D01*
X10559397Y17637751D01*
X10559390Y17637764D01*
X10471789Y17768867D01*
X10471786Y17768871D01*
X10360292Y17880365D01*
X10360288Y17880368D01*
X10229185Y17967969D01*
X10229172Y17967976D01*
X10083501Y18028314D01*
X10083489Y18028317D01*
X9928845Y18059078D01*
X9928842Y18059078D01*
X9771158Y18059078D01*
X9771155Y18059078D01*
X9616510Y18028317D01*
X9616498Y18028314D01*
X9470827Y17967976D01*
X9470814Y17967969D01*
X9339711Y17880368D01*
X9339707Y17880365D01*
X9228213Y17768871D01*
X9228210Y17768867D01*
X9140609Y17637764D01*
X9140602Y17637751D01*
X9080264Y17492080D01*
X9080261Y17492068D01*
X9049500Y17337425D01*
X5850500Y17337425D01*
X5850500Y17831616D01*
X5844779Y17894570D01*
X5858316Y17963115D01*
X5906762Y18013461D01*
X5968270Y18029791D01*
X6130456Y18029791D01*
X6130457Y18029792D01*
X6285109Y18060554D01*
X6430791Y18120897D01*
X6561901Y18208502D01*
X6673401Y18320002D01*
X6761006Y18451112D01*
X6821349Y18596794D01*
X6852112Y18751449D01*
X6852112Y18909133D01*
X6852112Y18909136D01*
X6852111Y18909138D01*
X6838863Y18975743D01*
X6835262Y18993847D01*
X7949941Y18993847D01*
X7949941Y18836154D01*
X7980702Y18681511D01*
X7980705Y18681499D01*
X8041043Y18535828D01*
X8041050Y18535815D01*
X8128651Y18404712D01*
X8128654Y18404708D01*
X8240148Y18293214D01*
X8240152Y18293211D01*
X8371255Y18205610D01*
X8371268Y18205603D01*
X8516939Y18145265D01*
X8516944Y18145263D01*
X8671594Y18114501D01*
X8671597Y18114500D01*
X8671599Y18114500D01*
X8829285Y18114500D01*
X8829286Y18114501D01*
X8983938Y18145263D01*
X9129620Y18205606D01*
X9260730Y18293211D01*
X9372230Y18404711D01*
X9459835Y18535821D01*
X9520178Y18681503D01*
X9550941Y18836158D01*
X9550941Y18993842D01*
X9550941Y18993845D01*
X9550940Y18993847D01*
X9534932Y19074324D01*
X9520178Y19148497D01*
X9512569Y19166867D01*
X9459838Y19294173D01*
X9459831Y19294186D01*
X9372230Y19425289D01*
X9372227Y19425293D01*
X9260733Y19536787D01*
X9260729Y19536790D01*
X9129626Y19624391D01*
X9129613Y19624398D01*
X8983942Y19684736D01*
X8983930Y19684739D01*
X8829286Y19715500D01*
X8829283Y19715500D01*
X8671599Y19715500D01*
X8671596Y19715500D01*
X8516951Y19684739D01*
X8516939Y19684736D01*
X8371268Y19624398D01*
X8371255Y19624391D01*
X8240152Y19536790D01*
X8240148Y19536787D01*
X8128654Y19425293D01*
X8128651Y19425289D01*
X8041050Y19294186D01*
X8041043Y19294173D01*
X7980705Y19148502D01*
X7980702Y19148490D01*
X7949941Y18993847D01*
X6835262Y18993847D01*
X6821350Y19063783D01*
X6821349Y19063784D01*
X6821349Y19063788D01*
X6813403Y19082971D01*
X6761009Y19209464D01*
X6761002Y19209477D01*
X6673401Y19340580D01*
X6673398Y19340584D01*
X6561904Y19452078D01*
X6561900Y19452081D01*
X6430797Y19539682D01*
X6430784Y19539689D01*
X6285113Y19600027D01*
X6285101Y19600030D01*
X6130457Y19630791D01*
X6130454Y19630791D01*
X5972770Y19630791D01*
X5972767Y19630791D01*
X5818122Y19600030D01*
X5818110Y19600027D01*
X5672439Y19539689D01*
X5672426Y19539682D01*
X5571725Y19472395D01*
X5505047Y19451517D01*
X5437667Y19470002D01*
X5415152Y19487817D01*
X5360292Y19542678D01*
X5360288Y19542681D01*
X5229185Y19630282D01*
X5229172Y19630289D01*
X5083501Y19690627D01*
X5083489Y19690630D01*
X4928845Y19721391D01*
X4928842Y19721391D01*
X4771158Y19721391D01*
X4771155Y19721391D01*
X4616510Y19690630D01*
X4616498Y19690627D01*
X4470827Y19630289D01*
X4470814Y19630282D01*
X4339711Y19542681D01*
X4339707Y19542678D01*
X4228213Y19431184D01*
X4228210Y19431180D01*
X4140609Y19300077D01*
X4140602Y19300064D01*
X4080264Y19154393D01*
X4080261Y19154381D01*
X4049500Y18999738D01*
X4049500Y18842045D01*
X4080261Y18687402D01*
X4080264Y18687390D01*
X4113254Y18607745D01*
X4120723Y18538276D01*
X4089448Y18475797D01*
X4035584Y18441908D01*
X3994480Y18429100D01*
X3960393Y18418478D01*
X3814811Y18330470D01*
X3694530Y18210189D01*
X3606522Y18064607D01*
X3555913Y17902193D01*
X3549500Y17831614D01*
X3549500Y17318387D01*
X3555913Y17247808D01*
X3555913Y17247806D01*
X3555914Y17247804D01*
X3606522Y17085394D01*
X3664366Y16989708D01*
X3693281Y16941878D01*
X3711117Y16874323D01*
X3690267Y16808838D01*
X3651989Y16751551D01*
X3651983Y16751540D01*
X3584106Y16587668D01*
X3584103Y16587659D01*
X3549500Y16413696D01*
X3549500Y16236305D01*
X3584103Y16062342D01*
X3584106Y16062333D01*
X3651983Y15898460D01*
X3651990Y15898447D01*
X3738557Y15768891D01*
X3759435Y15702213D01*
X3740950Y15634833D01*
X3738557Y15631109D01*
X3651990Y15501554D01*
X3651983Y15501542D01*
X3593862Y15361219D01*
X3550022Y15306815D01*
X3483728Y15284750D01*
X3479301Y15284671D01*
X3438045Y15284671D01*
X3283400Y15253910D01*
X3283388Y15253907D01*
X3137717Y15193569D01*
X3137704Y15193562D01*
X3006601Y15105961D01*
X3006597Y15105958D01*
X2895103Y14994464D01*
X2895100Y14994460D01*
X2807499Y14863357D01*
X2807492Y14863344D01*
X2747154Y14717673D01*
X2747151Y14717661D01*
X2716390Y14563018D01*
X500500Y14563018D01*
X500500Y15336151D01*
X520185Y15403190D01*
X572989Y15448945D01*
X642147Y15458889D01*
X693388Y15439255D01*
X780135Y15381292D01*
X780137Y15381291D01*
X780141Y15381289D01*
X925812Y15320951D01*
X925817Y15320949D01*
X1040490Y15298139D01*
X1080467Y15290187D01*
X1080470Y15290186D01*
X1080472Y15290186D01*
X1238158Y15290186D01*
X1238159Y15290187D01*
X1392811Y15320949D01*
X1538493Y15381292D01*
X1669603Y15468897D01*
X1781103Y15580397D01*
X1868708Y15711507D01*
X1929051Y15857189D01*
X1959814Y16011844D01*
X1959814Y16169528D01*
X1959814Y16169531D01*
X1959813Y16169533D01*
X1929052Y16324176D01*
X1929051Y16324183D01*
X1891974Y16413696D01*
X1868711Y16469859D01*
X1868704Y16469872D01*
X1781103Y16600975D01*
X1781100Y16600979D01*
X1669606Y16712473D01*
X1669602Y16712476D01*
X1538499Y16800077D01*
X1538486Y16800084D01*
X1392815Y16860422D01*
X1392803Y16860425D01*
X1238159Y16891186D01*
X1238156Y16891186D01*
X1080472Y16891186D01*
X1080469Y16891186D01*
X925824Y16860425D01*
X925812Y16860422D01*
X780141Y16800084D01*
X780128Y16800077D01*
X693391Y16742120D01*
X626713Y16721242D01*
X559333Y16739727D01*
X512643Y16791705D01*
X500500Y16845222D01*
X500500Y17532141D01*
X520185Y17599180D01*
X572989Y17644935D01*
X642147Y17654879D01*
X671948Y17646704D01*
X796533Y17595099D01*
X951183Y17564337D01*
X951186Y17564336D01*
X951188Y17564336D01*
X1108874Y17564336D01*
X1108875Y17564337D01*
X1263527Y17595099D01*
X1409209Y17655442D01*
X1540319Y17743047D01*
X1651819Y17854547D01*
X1739424Y17985657D01*
X1749629Y18010293D01*
X1792792Y18114500D01*
X1799767Y18131339D01*
X1830530Y18285994D01*
X1830530Y18443678D01*
X1830530Y18443681D01*
X1830529Y18443683D01*
X1825476Y18469086D01*
X1799767Y18598333D01*
X1799765Y18598338D01*
X1739427Y18744009D01*
X1739420Y18744022D01*
X1651819Y18875125D01*
X1651816Y18875129D01*
X1540322Y18986623D01*
X1540318Y18986626D01*
X1409215Y19074227D01*
X1409202Y19074234D01*
X1263531Y19134572D01*
X1263519Y19134575D01*
X1108875Y19165336D01*
X1108872Y19165336D01*
X951188Y19165336D01*
X951185Y19165336D01*
X796540Y19134575D01*
X796528Y19134572D01*
X671952Y19082971D01*
X602483Y19075502D01*
X540004Y19106778D01*
X504352Y19166867D01*
X500500Y19197532D01*
X500500Y19661747D01*
X520185Y19728786D01*
X572989Y19774541D01*
X642147Y19784485D01*
X693390Y19764850D01*
X802752Y19691776D01*
X802754Y19691775D01*
X802758Y19691773D01*
X948429Y19631435D01*
X948434Y19631433D01*
X1103084Y19600671D01*
X1103087Y19600670D01*
X1103089Y19600670D01*
X1260775Y19600670D01*
X1260776Y19600671D01*
X1415428Y19631433D01*
X1558336Y19690627D01*
X1561103Y19691773D01*
X1561103Y19691774D01*
X1561110Y19691776D01*
X1692220Y19779381D01*
X1803720Y19890881D01*
X1891325Y20021991D01*
X1951668Y20167673D01*
X1960598Y20212566D01*
X11983663Y20212566D01*
X11983663Y20054873D01*
X12014424Y19900230D01*
X12014427Y19900218D01*
X12074765Y19754547D01*
X12074772Y19754534D01*
X12162373Y19623431D01*
X12162376Y19623427D01*
X12273870Y19511933D01*
X12273874Y19511930D01*
X12404977Y19424329D01*
X12404990Y19424322D01*
X12550661Y19363984D01*
X12550666Y19363982D01*
X12668295Y19340584D01*
X12705316Y19333220D01*
X12705319Y19333219D01*
X12705321Y19333219D01*
X12863007Y19333219D01*
X13010521Y19362562D01*
X13080113Y19356335D01*
X13103604Y19344047D01*
X13237814Y19254370D01*
X13237827Y19254363D01*
X13375031Y19197532D01*
X13383503Y19194023D01*
X13520025Y19166867D01*
X13538153Y19163261D01*
X13538156Y19163260D01*
X13538158Y19163260D01*
X13695844Y19163260D01*
X13695845Y19163261D01*
X13850497Y19194023D01*
X13992963Y19253034D01*
X13996172Y19254363D01*
X13996172Y19254364D01*
X13996179Y19254366D01*
X14127289Y19341971D01*
X14238789Y19453471D01*
X14326394Y19584581D01*
X14386737Y19730263D01*
X14401488Y19804426D01*
X14418689Y19890892D01*
X14420305Y19890571D01*
X14443482Y19947991D01*
X14500511Y19988358D01*
X14570311Y19991484D01*
X14628416Y19958744D01*
X14709534Y19877626D01*
X14709538Y19877623D01*
X14840641Y19790022D01*
X14840654Y19790015D01*
X14984891Y19730271D01*
X14986330Y19729675D01*
X15140980Y19698913D01*
X15140983Y19698912D01*
X15140985Y19698912D01*
X15298671Y19698912D01*
X15298672Y19698913D01*
X15453324Y19729675D01*
X15599006Y19790018D01*
X15730116Y19877623D01*
X15841616Y19989123D01*
X15929221Y20120233D01*
X15989564Y20265915D01*
X16020327Y20420570D01*
X16020327Y20578254D01*
X16020327Y20578257D01*
X16020326Y20578259D01*
X16009105Y20634672D01*
X15989564Y20732909D01*
X15989321Y20733496D01*
X15929224Y20878585D01*
X15929217Y20878598D01*
X15841616Y21009701D01*
X15841613Y21009705D01*
X15730119Y21121199D01*
X15730115Y21121202D01*
X15599012Y21208803D01*
X15598999Y21208810D01*
X15453328Y21269148D01*
X15453316Y21269151D01*
X15298672Y21299912D01*
X15298669Y21299912D01*
X15140985Y21299912D01*
X15140982Y21299912D01*
X14986337Y21269151D01*
X14986325Y21269148D01*
X14840654Y21208810D01*
X14840641Y21208803D01*
X14709538Y21121202D01*
X14709534Y21121199D01*
X14598040Y21009705D01*
X14598037Y21009701D01*
X14510436Y20878598D01*
X14510429Y20878585D01*
X14450091Y20732914D01*
X14450088Y20732902D01*
X14418138Y20572280D01*
X14416527Y20572601D01*
X14393325Y20515158D01*
X14336286Y20474805D01*
X14266485Y20471696D01*
X14208410Y20504429D01*
X14127292Y20585547D01*
X14127288Y20585550D01*
X13996185Y20673151D01*
X13996172Y20673158D01*
X13850501Y20733496D01*
X13850489Y20733499D01*
X13695845Y20764260D01*
X13695842Y20764260D01*
X13538158Y20764260D01*
X13538153Y20764260D01*
X13390640Y20734918D01*
X13321048Y20741145D01*
X13297558Y20753433D01*
X13163348Y20843110D01*
X13163335Y20843117D01*
X13053737Y20888513D01*
X12999333Y20932354D01*
X12977268Y20998648D01*
X12994547Y21066347D01*
X13045684Y21113958D01*
X13076998Y21124691D01*
X13095405Y21128353D01*
X13133599Y21135950D01*
X13261590Y21188965D01*
X13279274Y21196290D01*
X13279274Y21196291D01*
X13279281Y21196293D01*
X13410391Y21283898D01*
X13521891Y21395398D01*
X13609496Y21526508D01*
X13669839Y21672190D01*
X13700602Y21826845D01*
X13700602Y21984529D01*
X13700602Y21984532D01*
X13700601Y21984534D01*
X13680115Y22087524D01*
X13669839Y22139184D01*
X13629201Y22237294D01*
X13609499Y22284860D01*
X13609492Y22284873D01*
X13521891Y22415976D01*
X13521888Y22415980D01*
X13410394Y22527474D01*
X13410390Y22527477D01*
X13279287Y22615078D01*
X13279274Y22615085D01*
X13133603Y22675423D01*
X13133591Y22675426D01*
X12978947Y22706187D01*
X12978944Y22706187D01*
X12821260Y22706187D01*
X12821257Y22706187D01*
X12666612Y22675426D01*
X12666600Y22675423D01*
X12520929Y22615085D01*
X12520916Y22615078D01*
X12389813Y22527477D01*
X12389809Y22527474D01*
X12278315Y22415980D01*
X12278312Y22415976D01*
X12190711Y22284873D01*
X12190704Y22284860D01*
X12130366Y22139189D01*
X12130363Y22139177D01*
X12099602Y21984534D01*
X12099602Y21826841D01*
X12130363Y21672198D01*
X12130366Y21672186D01*
X12190704Y21526515D01*
X12190711Y21526502D01*
X12278312Y21395399D01*
X12278315Y21395395D01*
X12389809Y21283901D01*
X12389813Y21283898D01*
X12520916Y21196297D01*
X12520928Y21196290D01*
X12630527Y21150894D01*
X12684931Y21107054D01*
X12706996Y21040760D01*
X12689717Y20973060D01*
X12638580Y20925450D01*
X12607268Y20914716D01*
X12550670Y20903458D01*
X12550661Y20903455D01*
X12404990Y20843117D01*
X12404977Y20843110D01*
X12273874Y20755509D01*
X12273870Y20755506D01*
X12162376Y20644012D01*
X12162373Y20644008D01*
X12074772Y20512905D01*
X12074765Y20512892D01*
X12014427Y20367221D01*
X12014424Y20367209D01*
X11983663Y20212566D01*
X1960598Y20212566D01*
X1968840Y20254002D01*
X1982431Y20322326D01*
X1982431Y20480015D01*
X1982430Y20480017D01*
X1975891Y20512892D01*
X1951668Y20634667D01*
X1910978Y20732902D01*
X1891328Y20780343D01*
X1891321Y20780356D01*
X1803720Y20911459D01*
X1803717Y20911463D01*
X1692223Y21022957D01*
X1692219Y21022960D01*
X1561116Y21110561D01*
X1561103Y21110568D01*
X1415432Y21170906D01*
X1415420Y21170909D01*
X1260776Y21201670D01*
X1260773Y21201670D01*
X1103089Y21201670D01*
X1103086Y21201670D01*
X948441Y21170909D01*
X948429Y21170906D01*
X802758Y21110568D01*
X802745Y21110561D01*
X693391Y21037492D01*
X626713Y21016614D01*
X559333Y21035099D01*
X512643Y21087077D01*
X500500Y21140594D01*
X500500Y21575000D01*
X3482096Y21575000D01*
X3484584Y21562484D01*
X3484587Y21562477D01*
X3552428Y21398694D01*
X3552433Y21398684D01*
X3650923Y21251284D01*
X3650926Y21251280D01*
X3776279Y21125927D01*
X3776283Y21125924D01*
X3923683Y21027434D01*
X3923692Y21027429D01*
X4087479Y20959587D01*
X4087487Y20959585D01*
X4261353Y20925001D01*
X4261357Y20925000D01*
X4350000Y20925000D01*
X4350000Y21575000D01*
X3482096Y21575000D01*
X500500Y21575000D01*
X500500Y28278847D01*
X1349500Y28278847D01*
X1349500Y28121154D01*
X1380261Y27966511D01*
X1380264Y27966499D01*
X1440602Y27820828D01*
X1440609Y27820815D01*
X1528210Y27689712D01*
X1528213Y27689708D01*
X1639707Y27578214D01*
X1639711Y27578211D01*
X1770814Y27490610D01*
X1770827Y27490603D01*
X1850319Y27457677D01*
X1916503Y27430263D01*
X2071153Y27399501D01*
X2071156Y27399500D01*
X2071158Y27399500D01*
X2228844Y27399500D01*
X2228845Y27399501D01*
X2383497Y27430263D01*
X2510375Y27482817D01*
X2529172Y27490603D01*
X2529172Y27490604D01*
X2529179Y27490606D01*
X2660289Y27578211D01*
X2687368Y27605290D01*
X2715464Y27633385D01*
X2776787Y27666870D01*
X2846479Y27661886D01*
X2902412Y27620014D01*
X2926829Y27554550D01*
X2927145Y27545704D01*
X2927145Y27471154D01*
X2957906Y27316511D01*
X2957909Y27316499D01*
X3018247Y27170828D01*
X3018254Y27170815D01*
X3105855Y27039712D01*
X3105858Y27039708D01*
X3149137Y26996429D01*
X3182622Y26935106D01*
X3177638Y26865414D01*
X3164558Y26839857D01*
X3090609Y26729186D01*
X3090602Y26729173D01*
X3030264Y26583502D01*
X3030261Y26583490D01*
X2999500Y26428847D01*
X2999500Y26271154D01*
X3030261Y26116511D01*
X3030264Y26116499D01*
X3090602Y25970828D01*
X3090609Y25970815D01*
X3178210Y25839712D01*
X3178213Y25839708D01*
X3289710Y25728211D01*
X3394391Y25658266D01*
X3439196Y25604654D01*
X3449500Y25555164D01*
X3449500Y25318384D01*
X3450051Y25312326D01*
X3455913Y25247808D01*
X3455913Y25247806D01*
X3455914Y25247804D01*
X3506522Y25085394D01*
X3578394Y24966503D01*
X3593281Y24941878D01*
X3611117Y24874323D01*
X3590267Y24808838D01*
X3551989Y24751551D01*
X3551983Y24751540D01*
X3484104Y24587664D01*
X3483209Y24584712D01*
X3482321Y24583358D01*
X3481775Y24582039D01*
X3481524Y24582143D01*
X3444904Y24526279D01*
X3412006Y24506162D01*
X3320824Y24468393D01*
X3320814Y24468388D01*
X3189711Y24380787D01*
X3189707Y24380784D01*
X3078213Y24269290D01*
X3078210Y24269286D01*
X2990609Y24138183D01*
X2990602Y24138170D01*
X2930264Y23992499D01*
X2930261Y23992487D01*
X2899500Y23837844D01*
X2899500Y23680151D01*
X2930261Y23525508D01*
X2930264Y23525496D01*
X2990602Y23379825D01*
X2990609Y23379812D01*
X3078210Y23248709D01*
X3078213Y23248705D01*
X3189707Y23137211D01*
X3189711Y23137208D01*
X3320814Y23049607D01*
X3320816Y23049606D01*
X3320821Y23049603D01*
X3386101Y23022564D01*
X3440501Y22978725D01*
X3460263Y22932196D01*
X3484104Y22812341D01*
X3484106Y22812333D01*
X3551983Y22648460D01*
X3551990Y22648448D01*
X3638858Y22518442D01*
X3659736Y22451765D01*
X3641252Y22384385D01*
X3638858Y22380660D01*
X3552433Y22251317D01*
X3552428Y22251307D01*
X3484587Y22087524D01*
X3484584Y22087517D01*
X3482096Y22075000D01*
X4476000Y22075000D01*
X4519461Y22062239D01*
X4458386Y22036940D01*
X4388060Y21966614D01*
X4350000Y21874728D01*
X4350000Y21775272D01*
X4388060Y21683386D01*
X4458386Y21613060D01*
X4550272Y21575000D01*
X4649728Y21575000D01*
X4741614Y21613060D01*
X4811940Y21683386D01*
X4839406Y21749697D01*
X4850000Y21701000D01*
X4850000Y20925000D01*
X4938643Y20925000D01*
X4938646Y20925001D01*
X5112512Y20959585D01*
X5112520Y20959587D01*
X5276307Y21027429D01*
X5276316Y21027434D01*
X5423716Y21125924D01*
X5423720Y21125927D01*
X5549074Y21251281D01*
X5650280Y21402747D01*
X5703893Y21447553D01*
X5773217Y21456260D01*
X5836245Y21426106D01*
X5867943Y21381312D01*
X5873396Y21368148D01*
X5873402Y21368136D01*
X5961003Y21237033D01*
X5961006Y21237029D01*
X6072500Y21125535D01*
X6072504Y21125532D01*
X6203607Y21037931D01*
X6203620Y21037924D01*
X6349291Y20977586D01*
X6349296Y20977584D01*
X6503946Y20946822D01*
X6503949Y20946821D01*
X6503951Y20946821D01*
X6661637Y20946821D01*
X6661638Y20946822D01*
X6816290Y20977584D01*
X6936627Y21027429D01*
X6961965Y21037924D01*
X6961965Y21037925D01*
X6961972Y21037927D01*
X7093082Y21125532D01*
X7204582Y21237032D01*
X7291725Y21367451D01*
X9195560Y21367451D01*
X9195560Y21209758D01*
X9226321Y21055115D01*
X9226324Y21055103D01*
X9286662Y20909432D01*
X9286669Y20909419D01*
X9374270Y20778316D01*
X9374273Y20778312D01*
X9485767Y20666818D01*
X9485771Y20666815D01*
X9616874Y20579214D01*
X9616887Y20579207D01*
X9754038Y20522398D01*
X9762563Y20518867D01*
X9874441Y20496613D01*
X9917213Y20488105D01*
X9917216Y20488104D01*
X9917218Y20488104D01*
X10074904Y20488104D01*
X10074905Y20488105D01*
X10229557Y20518867D01*
X10359283Y20572601D01*
X10375232Y20579207D01*
X10375232Y20579208D01*
X10375239Y20579210D01*
X10506349Y20666815D01*
X10617849Y20778315D01*
X10705454Y20909425D01*
X10765797Y21055107D01*
X10796560Y21209762D01*
X10796560Y21367446D01*
X10791000Y21395399D01*
X10786399Y21418530D01*
X10792627Y21488121D01*
X10835491Y21543298D01*
X10901381Y21566542D01*
X10908017Y21566720D01*
X10935913Y21566720D01*
X10935914Y21566721D01*
X11090566Y21597483D01*
X11236248Y21657826D01*
X11367358Y21745431D01*
X11478858Y21856931D01*
X11566463Y21988041D01*
X11626806Y22133723D01*
X11657569Y22288378D01*
X11657569Y22446062D01*
X11657569Y22446065D01*
X11657568Y22446067D01*
X11643175Y22518426D01*
X11626806Y22600717D01*
X11621315Y22613973D01*
X11566466Y22746393D01*
X11566459Y22746406D01*
X11500797Y22844676D01*
X11479919Y22911354D01*
X11498404Y22978734D01*
X11550382Y23025424D01*
X11579705Y23035184D01*
X11724712Y23064027D01*
X11870394Y23124370D01*
X12001504Y23211975D01*
X12113004Y23323475D01*
X12200609Y23454585D01*
X12260952Y23600267D01*
X12291715Y23754922D01*
X12291715Y23912606D01*
X12291715Y23912609D01*
X12291714Y23912611D01*
X12278471Y23979186D01*
X12260952Y24067261D01*
X12260950Y24067266D01*
X12200612Y24212937D01*
X12200605Y24212950D01*
X12113004Y24344053D01*
X12113001Y24344057D01*
X12001507Y24455551D01*
X12001503Y24455554D01*
X11870400Y24543155D01*
X11870391Y24543160D01*
X11789774Y24576552D01*
X11735371Y24620393D01*
X11713306Y24686687D01*
X11722665Y24738562D01*
X11769762Y24852264D01*
X11800525Y25006919D01*
X11800525Y25164603D01*
X11769762Y25319258D01*
X11722446Y25433490D01*
X11709422Y25464935D01*
X11709415Y25464947D01*
X11621814Y25596050D01*
X11621811Y25596054D01*
X11620733Y25597132D01*
X11986548Y25597132D01*
X11986548Y25439442D01*
X11986571Y25439324D01*
X11986574Y25439312D01*
X12017311Y25284788D01*
X12039457Y25231322D01*
X12039459Y25231315D01*
X12077650Y25139113D01*
X12077657Y25139100D01*
X12165258Y25007997D01*
X12165261Y25007993D01*
X12276755Y24896499D01*
X12276759Y24896496D01*
X12407862Y24808895D01*
X12407875Y24808888D01*
X12553546Y24748550D01*
X12553551Y24748548D01*
X12708201Y24717786D01*
X12708204Y24717785D01*
X12708206Y24717785D01*
X12865892Y24717785D01*
X12865893Y24717786D01*
X13020545Y24748548D01*
X13076168Y24771588D01*
X13171856Y24811222D01*
X13172497Y24809673D01*
X13233016Y24822282D01*
X13298263Y24797291D01*
X13326186Y24767571D01*
X13378210Y24689712D01*
X13378213Y24689708D01*
X13489707Y24578214D01*
X13489711Y24578211D01*
X13620814Y24490610D01*
X13620827Y24490603D01*
X13766498Y24430265D01*
X13766503Y24430263D01*
X13849816Y24413691D01*
X13921153Y24399501D01*
X13921156Y24399500D01*
X13921158Y24399500D01*
X14078844Y24399500D01*
X14078845Y24399501D01*
X14233497Y24430263D01*
X14379179Y24490606D01*
X14510289Y24578211D01*
X14621789Y24689711D01*
X14709394Y24820821D01*
X14769737Y24966503D01*
X14800500Y25121158D01*
X14800500Y25278842D01*
X14800500Y25278845D01*
X14800499Y25278847D01*
X14793840Y25312323D01*
X14769737Y25433497D01*
X14756710Y25464947D01*
X14709397Y25579173D01*
X14709390Y25579186D01*
X14621789Y25710289D01*
X14621786Y25710293D01*
X14510292Y25821787D01*
X14510288Y25821790D01*
X14379185Y25909391D01*
X14379172Y25909398D01*
X14233501Y25969736D01*
X14233489Y25969739D01*
X14078845Y26000500D01*
X14078842Y26000500D01*
X13921158Y26000500D01*
X13921155Y26000500D01*
X13766510Y25969739D01*
X13766498Y25969736D01*
X13615193Y25907063D01*
X13614555Y25908604D01*
X13553978Y25896009D01*
X13488742Y25921027D01*
X13460861Y25950715D01*
X13408837Y26028574D01*
X13408834Y26028578D01*
X13297340Y26140072D01*
X13297336Y26140075D01*
X13166233Y26227676D01*
X13166220Y26227683D01*
X13020549Y26288021D01*
X13020537Y26288024D01*
X12865893Y26318785D01*
X12865890Y26318785D01*
X12708206Y26318785D01*
X12708203Y26318785D01*
X12553558Y26288024D01*
X12553546Y26288021D01*
X12407875Y26227683D01*
X12407862Y26227676D01*
X12276759Y26140075D01*
X12276755Y26140072D01*
X12165261Y26028578D01*
X12165258Y26028574D01*
X12077657Y25897471D01*
X12077650Y25897458D01*
X12017312Y25751787D01*
X12017309Y25751775D01*
X11986548Y25597132D01*
X11620733Y25597132D01*
X11591486Y25626379D01*
X11558001Y25687702D01*
X11557550Y25738254D01*
X11558648Y25743774D01*
X11558648Y25901460D01*
X11558647Y25901462D01*
X11548850Y25950715D01*
X11527885Y26056112D01*
X11502872Y26116499D01*
X11467545Y26201788D01*
X11467538Y26201801D01*
X11379937Y26332904D01*
X11379934Y26332908D01*
X11268440Y26444402D01*
X11268436Y26444405D01*
X11137333Y26532006D01*
X11137320Y26532013D01*
X10991649Y26592351D01*
X10991639Y26592354D01*
X10886250Y26613317D01*
X10886249Y26613318D01*
X10836993Y26623115D01*
X10836990Y26623115D01*
X10679306Y26623115D01*
X10679303Y26623115D01*
X10524658Y26592354D01*
X10524646Y26592351D01*
X10378975Y26532013D01*
X10378962Y26532006D01*
X10247859Y26444405D01*
X10247855Y26444402D01*
X10136361Y26332908D01*
X10136358Y26332904D01*
X10048757Y26201801D01*
X10048750Y26201788D01*
X9988412Y26056117D01*
X9988409Y26056105D01*
X9957648Y25901462D01*
X9957648Y25743769D01*
X9988409Y25589126D01*
X9988412Y25589114D01*
X10048750Y25443443D01*
X10048757Y25443430D01*
X10136358Y25312327D01*
X10136361Y25312323D01*
X10166686Y25281998D01*
X10200171Y25220675D01*
X10200625Y25170139D01*
X10199525Y25164609D01*
X10199525Y25006915D01*
X10230286Y24852272D01*
X10230289Y24852260D01*
X10290627Y24706589D01*
X10290634Y24706576D01*
X10378235Y24575473D01*
X10378238Y24575469D01*
X10489732Y24463975D01*
X10489736Y24463972D01*
X10620839Y24376371D01*
X10620852Y24376364D01*
X10701464Y24342974D01*
X10755868Y24299134D01*
X10777933Y24232840D01*
X10768573Y24180961D01*
X10721479Y24067266D01*
X10721476Y24067254D01*
X10690715Y23912611D01*
X10690715Y23754918D01*
X10721476Y23600275D01*
X10721479Y23600263D01*
X10781817Y23454592D01*
X10781824Y23454579D01*
X10847486Y23356309D01*
X10868364Y23289631D01*
X10849879Y23222251D01*
X10797900Y23175561D01*
X10768576Y23165801D01*
X10623577Y23136959D01*
X10623567Y23136956D01*
X10477896Y23076618D01*
X10477883Y23076611D01*
X10346780Y22989010D01*
X10346776Y22989007D01*
X10235282Y22877513D01*
X10235279Y22877509D01*
X10147678Y22746406D01*
X10147671Y22746393D01*
X10087333Y22600722D01*
X10087330Y22600710D01*
X10056569Y22446067D01*
X10056569Y22446062D01*
X10056569Y22288378D01*
X10056570Y22288374D01*
X10066730Y22237294D01*
X10060502Y22167703D01*
X10017638Y22112526D01*
X9951748Y22089282D01*
X9945112Y22089104D01*
X9917215Y22089104D01*
X9762570Y22058343D01*
X9762558Y22058340D01*
X9616887Y21998002D01*
X9616874Y21997995D01*
X9485771Y21910394D01*
X9485767Y21910391D01*
X9374273Y21798897D01*
X9374270Y21798893D01*
X9286669Y21667790D01*
X9286662Y21667777D01*
X9226324Y21522106D01*
X9226321Y21522094D01*
X9195560Y21367451D01*
X7291725Y21367451D01*
X7292187Y21368142D01*
X7306521Y21402747D01*
X7314078Y21420991D01*
X7314078Y21420993D01*
X7318461Y21431573D01*
X7352530Y21513824D01*
X7383293Y21668479D01*
X7383293Y21826163D01*
X7383293Y21826166D01*
X7383292Y21826168D01*
X7353241Y21977244D01*
X7352530Y21980818D01*
X7349535Y21988048D01*
X7292190Y22126494D01*
X7292183Y22126507D01*
X7204582Y22257610D01*
X7204579Y22257614D01*
X7093085Y22369108D01*
X7093081Y22369111D01*
X6961978Y22456712D01*
X6961969Y22456717D01*
X6857545Y22499970D01*
X6803142Y22543811D01*
X6783380Y22590341D01*
X6780316Y22605750D01*
X6751456Y22675424D01*
X6719976Y22751426D01*
X6719969Y22751439D01*
X6632368Y22882542D01*
X6632365Y22882546D01*
X6603675Y22911236D01*
X6570190Y22972559D01*
X6575174Y23042251D01*
X6603679Y23086602D01*
X6606789Y23089711D01*
X6694394Y23220821D01*
X6705946Y23248709D01*
X6736915Y23323476D01*
X6754737Y23366503D01*
X6785500Y23521158D01*
X6785500Y23678842D01*
X6785500Y23678845D01*
X6785499Y23678847D01*
X6770367Y23754920D01*
X6754737Y23833497D01*
X6754735Y23833502D01*
X6694397Y23979173D01*
X6694390Y23979186D01*
X6606789Y24110289D01*
X6606786Y24110293D01*
X6495292Y24221787D01*
X6495288Y24221790D01*
X6364185Y24309391D01*
X6364172Y24309398D01*
X6218501Y24369736D01*
X6218489Y24369739D01*
X6063845Y24400500D01*
X6063842Y24400500D01*
X5906158Y24400500D01*
X5906153Y24400500D01*
X5880565Y24395410D01*
X5810973Y24401637D01*
X5755796Y24444500D01*
X5734757Y24492836D01*
X5715896Y24587659D01*
X5715893Y24587668D01*
X5648015Y24751543D01*
X5648011Y24751550D01*
X5609733Y24808838D01*
X5588855Y24875515D01*
X5606717Y24941875D01*
X5693478Y25085394D01*
X5744086Y25247804D01*
X5750500Y25318384D01*
X5750500Y25831616D01*
X5744086Y25902196D01*
X5693478Y26064606D01*
X5693477Y26064607D01*
X5692782Y26066839D01*
X5691632Y26136699D01*
X5723485Y26191408D01*
X5821789Y26289711D01*
X5909394Y26420821D01*
X5912719Y26428847D01*
X5969735Y26566499D01*
X5969737Y26566503D01*
X6000500Y26721158D01*
X6000500Y26728847D01*
X14499500Y26728847D01*
X14499500Y26571154D01*
X14530261Y26416511D01*
X14530264Y26416499D01*
X14590602Y26270828D01*
X14590609Y26270815D01*
X14678210Y26139712D01*
X14678213Y26139708D01*
X14789707Y26028214D01*
X14789711Y26028211D01*
X14920814Y25940610D01*
X14920827Y25940603D01*
X15066498Y25880265D01*
X15066503Y25880263D01*
X15199179Y25853872D01*
X15221153Y25849501D01*
X15221156Y25849500D01*
X15221158Y25849500D01*
X15378844Y25849500D01*
X15378845Y25849501D01*
X15533497Y25880263D01*
X15679179Y25940606D01*
X15810289Y26028211D01*
X15921789Y26139711D01*
X15967175Y26207637D01*
X16012779Y26275886D01*
X16014810Y26274529D01*
X16056210Y26316710D01*
X16124342Y26332198D01*
X16190031Y26308394D01*
X16232423Y26252854D01*
X16235309Y26244440D01*
X16235999Y26242164D01*
X16296340Y26096486D01*
X16296347Y26096473D01*
X16383948Y25965370D01*
X16383951Y25965366D01*
X16495445Y25853872D01*
X16495449Y25853869D01*
X16626552Y25766268D01*
X16626565Y25766261D01*
X16772236Y25705923D01*
X16772241Y25705921D01*
X16926891Y25675159D01*
X16926894Y25675158D01*
X16926896Y25675158D01*
X17084582Y25675158D01*
X17084583Y25675159D01*
X17239235Y25705921D01*
X17384917Y25766264D01*
X17516027Y25853869D01*
X17627527Y25965369D01*
X17715132Y26096479D01*
X17723425Y26116499D01*
X17733189Y26140072D01*
X17775475Y26242161D01*
X17806238Y26396816D01*
X17806238Y26554500D01*
X17806238Y26554503D01*
X17806237Y26554505D01*
X17794538Y26613318D01*
X17775475Y26709155D01*
X17770503Y26721158D01*
X17715135Y26854831D01*
X17715128Y26854844D01*
X17627527Y26985947D01*
X17627524Y26985951D01*
X17516030Y27097445D01*
X17516026Y27097448D01*
X17384923Y27185049D01*
X17384910Y27185056D01*
X17239239Y27245394D01*
X17239227Y27245397D01*
X17084583Y27276158D01*
X17084580Y27276158D01*
X16926896Y27276158D01*
X16926893Y27276158D01*
X16772248Y27245397D01*
X16772236Y27245394D01*
X16626565Y27185056D01*
X16626552Y27185049D01*
X16495449Y27097448D01*
X16495445Y27097445D01*
X16383951Y26985951D01*
X16383948Y26985947D01*
X16292959Y26849772D01*
X16290943Y26851119D01*
X16249437Y26808899D01*
X16181293Y26793467D01*
X16115623Y26817326D01*
X16073277Y26872901D01*
X16070425Y26881228D01*
X16069735Y26883502D01*
X16009397Y27029173D01*
X16009390Y27029186D01*
X15921789Y27160289D01*
X15921786Y27160293D01*
X15810292Y27271787D01*
X15810288Y27271790D01*
X15679185Y27359391D01*
X15679172Y27359398D01*
X15533501Y27419736D01*
X15533489Y27419739D01*
X15378845Y27450500D01*
X15378842Y27450500D01*
X15221158Y27450500D01*
X15221155Y27450500D01*
X15066510Y27419739D01*
X15066498Y27419736D01*
X14920827Y27359398D01*
X14920814Y27359391D01*
X14789711Y27271790D01*
X14789707Y27271787D01*
X14678213Y27160293D01*
X14678210Y27160289D01*
X14590609Y27029186D01*
X14590602Y27029173D01*
X14530264Y26883502D01*
X14530261Y26883490D01*
X14499500Y26728847D01*
X6000500Y26728847D01*
X6000500Y26808641D01*
X6020185Y26875680D01*
X6072989Y26921435D01*
X6124500Y26932641D01*
X6188844Y26932641D01*
X6188845Y26932642D01*
X6343497Y26963404D01*
X6489179Y27023747D01*
X6620289Y27111352D01*
X6731789Y27222852D01*
X6818216Y27352200D01*
X6819390Y27353956D01*
X6819390Y27353957D01*
X6819394Y27353962D01*
X6879737Y27499644D01*
X6910500Y27654299D01*
X6910500Y27811983D01*
X6909350Y27817762D01*
X6901006Y27859711D01*
X6907233Y27929303D01*
X6950095Y27984481D01*
X7015985Y28007726D01*
X7083982Y27991659D01*
X7091514Y27987006D01*
X7220814Y27900610D01*
X7220827Y27900603D01*
X7366498Y27840265D01*
X7366503Y27840263D01*
X7508665Y27811985D01*
X7521153Y27809501D01*
X7521156Y27809500D01*
X7521158Y27809500D01*
X7678844Y27809500D01*
X7678845Y27809501D01*
X7833497Y27840263D01*
X7979179Y27900606D01*
X8110289Y27988211D01*
X8218828Y28096751D01*
X8280149Y28130234D01*
X8349841Y28125250D01*
X8394190Y28096748D01*
X8402029Y28088909D01*
X8444862Y28060289D01*
X8533132Y28001308D01*
X8533145Y28001301D01*
X8678816Y27940963D01*
X8678821Y27940961D01*
X8833471Y27910199D01*
X8833474Y27910198D01*
X8833476Y27910198D01*
X8924135Y27910198D01*
X8991174Y27890513D01*
X9011816Y27873879D01*
X9116611Y27769084D01*
X9116615Y27769081D01*
X9247718Y27681480D01*
X9247731Y27681473D01*
X9392067Y27621688D01*
X9393407Y27621133D01*
X9540194Y27591935D01*
X9548057Y27590371D01*
X9548060Y27590370D01*
X9548062Y27590370D01*
X9705748Y27590370D01*
X9705749Y27590371D01*
X9860401Y27621133D01*
X10006083Y27681476D01*
X10137193Y27769081D01*
X10144728Y27776617D01*
X10206046Y27810101D01*
X10256601Y27810553D01*
X10375006Y27787000D01*
X10375009Y27787000D01*
X10532695Y27787000D01*
X10532696Y27787001D01*
X10687348Y27817763D01*
X10833030Y27878106D01*
X10900620Y27923268D01*
X10967297Y27944146D01*
X11034677Y27925662D01*
X11081368Y27873683D01*
X11091128Y27844358D01*
X11106442Y27767369D01*
X11106445Y27767359D01*
X11166783Y27621688D01*
X11166790Y27621675D01*
X11254391Y27490572D01*
X11254394Y27490568D01*
X11365888Y27379074D01*
X11365892Y27379071D01*
X11496995Y27291470D01*
X11497008Y27291463D01*
X11608223Y27245397D01*
X11642684Y27231123D01*
X11797334Y27200361D01*
X11797337Y27200360D01*
X11797339Y27200360D01*
X11955025Y27200360D01*
X11955026Y27200361D01*
X12109678Y27231123D01*
X12255360Y27291466D01*
X12386470Y27379071D01*
X12497970Y27490571D01*
X12585575Y27621681D01*
X12645918Y27767363D01*
X12676681Y27922018D01*
X12676681Y28079702D01*
X12676681Y28079705D01*
X12676680Y28079707D01*
X12656176Y28182790D01*
X12652575Y28200894D01*
X12949500Y28200894D01*
X12949500Y28043201D01*
X12980261Y27888558D01*
X12980264Y27888546D01*
X13040602Y27742875D01*
X13040609Y27742862D01*
X13128210Y27611759D01*
X13128213Y27611755D01*
X13239707Y27500261D01*
X13239711Y27500258D01*
X13370814Y27412657D01*
X13370827Y27412650D01*
X13512529Y27353956D01*
X13516503Y27352310D01*
X13671153Y27321548D01*
X13671156Y27321547D01*
X13671158Y27321547D01*
X13828844Y27321547D01*
X13828845Y27321548D01*
X13983497Y27352310D01*
X14129179Y27412653D01*
X14260289Y27500258D01*
X14371789Y27611758D01*
X14459394Y27742868D01*
X14519737Y27888550D01*
X14550500Y28043205D01*
X14550500Y28200889D01*
X14550500Y28200892D01*
X14550499Y28200894D01*
X14538863Y28259391D01*
X14519737Y28355544D01*
X14510107Y28378793D01*
X14459397Y28501220D01*
X14459390Y28501233D01*
X14371789Y28632336D01*
X14371786Y28632340D01*
X14260292Y28743834D01*
X14260288Y28743837D01*
X14129185Y28831438D01*
X14129172Y28831445D01*
X13983501Y28891783D01*
X13983489Y28891786D01*
X13828845Y28922547D01*
X13828842Y28922547D01*
X13671158Y28922547D01*
X13671155Y28922547D01*
X13516510Y28891786D01*
X13516498Y28891783D01*
X13370827Y28831445D01*
X13370814Y28831438D01*
X13239711Y28743837D01*
X13239707Y28743834D01*
X13128213Y28632340D01*
X13128210Y28632336D01*
X13040609Y28501233D01*
X13040602Y28501220D01*
X12980264Y28355549D01*
X12980261Y28355537D01*
X12949500Y28200894D01*
X12652575Y28200894D01*
X12645919Y28234352D01*
X12645918Y28234353D01*
X12645918Y28234357D01*
X12635549Y28259391D01*
X12585578Y28380033D01*
X12585571Y28380046D01*
X12497970Y28511149D01*
X12497967Y28511153D01*
X12386473Y28622647D01*
X12386469Y28622650D01*
X12255366Y28710251D01*
X12255353Y28710258D01*
X12109682Y28770596D01*
X12109670Y28770599D01*
X11955026Y28801360D01*
X11955023Y28801360D01*
X11797339Y28801360D01*
X11797336Y28801360D01*
X11642691Y28770599D01*
X11642679Y28770596D01*
X11497008Y28710258D01*
X11496997Y28710252D01*
X11429410Y28665092D01*
X11362732Y28644215D01*
X11295352Y28662700D01*
X11248662Y28714680D01*
X11238903Y28744004D01*
X11223589Y28820990D01*
X11223588Y28820997D01*
X11194268Y28891783D01*
X11163248Y28966673D01*
X11163241Y28966686D01*
X11075640Y29097789D01*
X11075637Y29097793D01*
X10964143Y29209287D01*
X10964139Y29209290D01*
X10833036Y29296891D01*
X10833023Y29296898D01*
X10687352Y29357236D01*
X10687340Y29357239D01*
X10532696Y29388000D01*
X10532693Y29388000D01*
X10375009Y29388000D01*
X10375006Y29388000D01*
X10220361Y29357239D01*
X10220349Y29357236D01*
X10074678Y29296898D01*
X10074665Y29296891D01*
X9943565Y29209292D01*
X9936023Y29201750D01*
X9874698Y29168268D01*
X9824154Y29167818D01*
X9705750Y29191370D01*
X9705746Y29191370D01*
X9615087Y29191370D01*
X9548048Y29211055D01*
X9527406Y29227689D01*
X9422610Y29332485D01*
X9422606Y29332488D01*
X9291503Y29420089D01*
X9291490Y29420096D01*
X9145819Y29480434D01*
X9145807Y29480437D01*
X8991163Y29511198D01*
X8991160Y29511198D01*
X8833476Y29511198D01*
X8833473Y29511198D01*
X8678828Y29480437D01*
X8678816Y29480434D01*
X8533145Y29420096D01*
X8533133Y29420089D01*
X8521790Y29412510D01*
X8455112Y29391635D01*
X8387733Y29410122D01*
X8341044Y29462102D01*
X8331286Y29491424D01*
X8307793Y29609528D01*
X8303582Y29630699D01*
X8287446Y29669656D01*
X8243242Y29776375D01*
X8243235Y29776388D01*
X8155634Y29907491D01*
X8155631Y29907495D01*
X8044137Y30018989D01*
X8044133Y30018992D01*
X7913030Y30106593D01*
X7913017Y30106600D01*
X7767346Y30166938D01*
X7767334Y30166941D01*
X7612690Y30197702D01*
X7612687Y30197702D01*
X7455003Y30197702D01*
X7455000Y30197702D01*
X7300355Y30166941D01*
X7300343Y30166938D01*
X7154672Y30106600D01*
X7154659Y30106593D01*
X7023556Y30018992D01*
X7023552Y30018989D01*
X6912058Y29907495D01*
X6912055Y29907491D01*
X6824454Y29776388D01*
X6824447Y29776375D01*
X6764109Y29630704D01*
X6764106Y29630692D01*
X6733345Y29476049D01*
X6733345Y29448886D01*
X6713660Y29381847D01*
X6660856Y29336092D01*
X6591698Y29326148D01*
X6561893Y29334325D01*
X6415301Y29395045D01*
X6415289Y29395048D01*
X6260645Y29425809D01*
X6260642Y29425809D01*
X6173199Y29425809D01*
X6106160Y29445494D01*
X6060405Y29498298D01*
X6049199Y29549809D01*
X6049199Y29609531D01*
X6049198Y29609533D01*
X6047969Y29615711D01*
X6018436Y29764183D01*
X6013386Y29776375D01*
X5958096Y29909859D01*
X5958089Y29909872D01*
X5870488Y30040975D01*
X5870485Y30040979D01*
X5869673Y30041791D01*
X5869586Y30041951D01*
X5869428Y30042037D01*
X5869059Y30042716D01*
X5866623Y30045685D01*
X5867194Y30046155D01*
X5852803Y30072685D01*
X5836188Y30103114D01*
X5836171Y30103347D01*
X5836114Y30103453D01*
X5836107Y30104256D01*
X5833695Y30138664D01*
X5834256Y30146221D01*
X5847698Y30213791D01*
X5847698Y30316347D01*
X11999500Y30316347D01*
X11999500Y30158654D01*
X12030261Y30004011D01*
X12030264Y30003999D01*
X12090602Y29858328D01*
X12090609Y29858315D01*
X12178210Y29727212D01*
X12178213Y29727208D01*
X12289707Y29615714D01*
X12289711Y29615711D01*
X12420814Y29528110D01*
X12420827Y29528103D01*
X12566498Y29467765D01*
X12566503Y29467763D01*
X12721153Y29437001D01*
X12721156Y29437000D01*
X12721158Y29437000D01*
X12878844Y29437000D01*
X12878845Y29437001D01*
X13033497Y29467763D01*
X13179179Y29528106D01*
X13310289Y29615711D01*
X13421789Y29727211D01*
X13509394Y29858321D01*
X13569737Y30004003D01*
X13600500Y30158658D01*
X13600500Y30316342D01*
X13600500Y30316345D01*
X13600499Y30316347D01*
X13569738Y30470990D01*
X13569737Y30470997D01*
X13546903Y30526123D01*
X13509397Y30616673D01*
X13509390Y30616686D01*
X13421789Y30747789D01*
X13421786Y30747793D01*
X13310292Y30859287D01*
X13310288Y30859290D01*
X13179185Y30946891D01*
X13179172Y30946898D01*
X13033501Y31007236D01*
X13033489Y31007239D01*
X12878845Y31038000D01*
X12878842Y31038000D01*
X12721158Y31038000D01*
X12721155Y31038000D01*
X12566510Y31007239D01*
X12566498Y31007236D01*
X12420827Y30946898D01*
X12420814Y30946891D01*
X12289711Y30859290D01*
X12289707Y30859287D01*
X12178213Y30747793D01*
X12178210Y30747789D01*
X12090609Y30616686D01*
X12090602Y30616673D01*
X12030264Y30471002D01*
X12030261Y30470990D01*
X11999500Y30316347D01*
X5847698Y30316347D01*
X5847698Y30371475D01*
X5847698Y30371478D01*
X5847697Y30371480D01*
X5827903Y30470990D01*
X5816935Y30526130D01*
X5756977Y30670883D01*
X5749508Y30740352D01*
X5780783Y30802831D01*
X5840872Y30838483D01*
X5895729Y30839952D01*
X5923922Y30834345D01*
X6041860Y30810884D01*
X6041863Y30810884D01*
X6199549Y30810884D01*
X6199550Y30810885D01*
X6354202Y30841647D01*
X6499884Y30901990D01*
X6630994Y30989595D01*
X6742494Y31101095D01*
X6830099Y31232205D01*
X6890442Y31377887D01*
X6921205Y31532542D01*
X6921205Y31690226D01*
X6921205Y31690229D01*
X6921204Y31690231D01*
X6914804Y31722406D01*
X6890442Y31844881D01*
X6880831Y31868084D01*
X6830102Y31990557D01*
X6830095Y31990570D01*
X6745197Y32117628D01*
X6745196Y32117629D01*
X6742492Y32121676D01*
X6683736Y32180432D01*
X12101784Y32180432D01*
X12101784Y32022739D01*
X12132545Y31868096D01*
X12132548Y31868084D01*
X12192886Y31722413D01*
X12192893Y31722400D01*
X12280494Y31591297D01*
X12280497Y31591293D01*
X12391991Y31479799D01*
X12391995Y31479796D01*
X12523098Y31392195D01*
X12523111Y31392188D01*
X12668782Y31331850D01*
X12668787Y31331848D01*
X12823437Y31301086D01*
X12823440Y31301085D01*
X12823442Y31301085D01*
X12981128Y31301085D01*
X12981129Y31301086D01*
X13135781Y31331848D01*
X13277629Y31390603D01*
X13281456Y31392188D01*
X13281456Y31392189D01*
X13281463Y31392191D01*
X13412573Y31479796D01*
X13524073Y31591296D01*
X13611678Y31722406D01*
X13672021Y31868088D01*
X13702784Y32022743D01*
X13702784Y32180427D01*
X13702784Y32180430D01*
X13702783Y32180432D01*
X13683237Y32278695D01*
X13672021Y32335082D01*
X13632557Y32430356D01*
X13625089Y32499824D01*
X13632554Y32525250D01*
X13679182Y32637818D01*
X13709945Y32792473D01*
X13709945Y32950157D01*
X13709945Y32950160D01*
X13709944Y32950162D01*
X13679184Y33104803D01*
X13679183Y33104806D01*
X13679182Y33104812D01*
X13669227Y33128845D01*
X13669226Y33128847D01*
X14199500Y33128847D01*
X14199500Y32971154D01*
X14230261Y32816511D01*
X14230264Y32816499D01*
X14290602Y32670828D01*
X14290609Y32670815D01*
X14378210Y32539712D01*
X14378213Y32539708D01*
X14489707Y32428214D01*
X14489711Y32428211D01*
X14620814Y32340610D01*
X14620827Y32340603D01*
X14766498Y32280265D01*
X14766503Y32280263D01*
X14921153Y32249501D01*
X14921156Y32249500D01*
X14921158Y32249500D01*
X15078844Y32249500D01*
X15078845Y32249501D01*
X15233497Y32280263D01*
X15379179Y32340606D01*
X15510289Y32428211D01*
X15621789Y32539711D01*
X15709394Y32670821D01*
X15769737Y32816503D01*
X15800500Y32971158D01*
X15800500Y33128842D01*
X15800500Y33128845D01*
X15800499Y33128847D01*
X15792678Y33168166D01*
X15769737Y33283497D01*
X15760629Y33305485D01*
X15709397Y33429173D01*
X15709390Y33429186D01*
X15621789Y33560289D01*
X15621786Y33560293D01*
X15510292Y33671787D01*
X15510288Y33671790D01*
X15379185Y33759391D01*
X15379172Y33759398D01*
X15233501Y33819736D01*
X15233489Y33819739D01*
X15078845Y33850500D01*
X15078842Y33850500D01*
X14921158Y33850500D01*
X14921155Y33850500D01*
X14766510Y33819739D01*
X14766498Y33819736D01*
X14620827Y33759398D01*
X14620814Y33759391D01*
X14489711Y33671790D01*
X14489707Y33671787D01*
X14378213Y33560293D01*
X14378210Y33560289D01*
X14290609Y33429186D01*
X14290602Y33429173D01*
X14230264Y33283502D01*
X14230261Y33283490D01*
X14199500Y33128847D01*
X13669226Y33128847D01*
X13618842Y33250488D01*
X13618835Y33250501D01*
X13531234Y33381604D01*
X13531231Y33381608D01*
X13419737Y33493102D01*
X13419733Y33493105D01*
X13288630Y33580706D01*
X13288617Y33580713D01*
X13142946Y33641051D01*
X13142934Y33641054D01*
X12988290Y33671815D01*
X12988287Y33671815D01*
X12830603Y33671815D01*
X12830600Y33671815D01*
X12675955Y33641054D01*
X12675943Y33641051D01*
X12530272Y33580713D01*
X12530259Y33580706D01*
X12399156Y33493105D01*
X12399152Y33493102D01*
X12287658Y33381608D01*
X12287655Y33381604D01*
X12200054Y33250501D01*
X12200047Y33250488D01*
X12139709Y33104817D01*
X12139706Y33104805D01*
X12108945Y32950162D01*
X12108945Y32792469D01*
X12139706Y32637826D01*
X12139709Y32637814D01*
X12179170Y32542547D01*
X12186639Y32473078D01*
X12179170Y32447643D01*
X12132548Y32335087D01*
X12132545Y32335075D01*
X12101784Y32180432D01*
X6683736Y32180432D01*
X6630997Y32233171D01*
X6630993Y32233174D01*
X6499890Y32320775D01*
X6499877Y32320782D01*
X6354206Y32381120D01*
X6354196Y32381123D01*
X6331587Y32385620D01*
X6269676Y32418006D01*
X6235102Y32478722D01*
X6238843Y32548491D01*
X6241201Y32554646D01*
X6241551Y32555490D01*
X6272314Y32710145D01*
X6272314Y32867829D01*
X6272314Y32867832D01*
X6272313Y32867834D01*
X6241552Y33022477D01*
X6241551Y33022484D01*
X6207448Y33104817D01*
X6181211Y33168160D01*
X6181204Y33168173D01*
X6090219Y33304341D01*
X6091930Y33305485D01*
X6068293Y33361155D01*
X6080089Y33430021D01*
X6127246Y33481578D01*
X6191460Y33499500D01*
X6278844Y33499500D01*
X6278845Y33499501D01*
X6433497Y33530263D01*
X6555295Y33580713D01*
X6579172Y33590603D01*
X6579172Y33590604D01*
X6579179Y33590606D01*
X6710289Y33678211D01*
X6821789Y33789711D01*
X6909394Y33920821D01*
X6969737Y34066503D01*
X7000500Y34221158D01*
X7000500Y34378842D01*
X7000500Y34378845D01*
X7000499Y34378847D01*
X6994244Y34410293D01*
X6969737Y34533497D01*
X6938298Y34609398D01*
X6909397Y34679173D01*
X6909390Y34679186D01*
X6821789Y34810289D01*
X6821786Y34810293D01*
X6710292Y34921787D01*
X6710288Y34921790D01*
X6579185Y35009391D01*
X6579172Y35009398D01*
X6433501Y35069736D01*
X6433489Y35069739D01*
X6278845Y35100500D01*
X6278842Y35100500D01*
X6121158Y35100500D01*
X6121155Y35100500D01*
X5966510Y35069739D01*
X5966498Y35069736D01*
X5820827Y35009398D01*
X5820814Y35009391D01*
X5689711Y34921790D01*
X5689707Y34921787D01*
X5578213Y34810293D01*
X5578210Y34810289D01*
X5490609Y34679186D01*
X5490602Y34679173D01*
X5430264Y34533502D01*
X5430261Y34533490D01*
X5399500Y34378847D01*
X5399500Y34221154D01*
X5430261Y34066511D01*
X5430264Y34066499D01*
X5490602Y33920828D01*
X5490609Y33920815D01*
X5581595Y33784646D01*
X5579883Y33783503D01*
X5603521Y33727832D01*
X5591725Y33658966D01*
X5544568Y33607409D01*
X5480354Y33589487D01*
X5392969Y33589487D01*
X5238324Y33558726D01*
X5238312Y33558723D01*
X5092641Y33498385D01*
X5092628Y33498378D01*
X4961525Y33410777D01*
X4961521Y33410774D01*
X4850027Y33299280D01*
X4850024Y33299276D01*
X4762423Y33168173D01*
X4762416Y33168160D01*
X4702078Y33022489D01*
X4702075Y33022477D01*
X4671314Y32867834D01*
X4671314Y32710141D01*
X4702075Y32555498D01*
X4702078Y32555486D01*
X4762416Y32409815D01*
X4762423Y32409802D01*
X4850024Y32278699D01*
X4850027Y32278695D01*
X4961521Y32167201D01*
X4961525Y32167198D01*
X5092628Y32079597D01*
X5092641Y32079590D01*
X5233715Y32021156D01*
X5238317Y32019250D01*
X5260929Y32014752D01*
X5322840Y31982369D01*
X5357415Y31921654D01*
X5353676Y31851884D01*
X5351311Y31845712D01*
X5350968Y31844881D01*
X5350967Y31844878D01*
X5350967Y31844877D01*
X5350965Y31844873D01*
X5320205Y31690231D01*
X5320205Y31532538D01*
X5350966Y31377895D01*
X5350969Y31377883D01*
X5410925Y31233135D01*
X5418394Y31163666D01*
X5387118Y31101187D01*
X5327029Y31065535D01*
X5272173Y31064066D01*
X5126043Y31093133D01*
X5126040Y31093133D01*
X4968356Y31093133D01*
X4968353Y31093133D01*
X4813708Y31062372D01*
X4813696Y31062369D01*
X4668025Y31002031D01*
X4668012Y31002024D01*
X4536909Y30914423D01*
X4536905Y30914420D01*
X4425411Y30802926D01*
X4425408Y30802922D01*
X4337807Y30671819D01*
X4337800Y30671806D01*
X4277462Y30526135D01*
X4277459Y30526123D01*
X4246698Y30371480D01*
X4246698Y30213787D01*
X4277459Y30059144D01*
X4277462Y30059132D01*
X4337800Y29913461D01*
X4337807Y29913448D01*
X4425408Y29782345D01*
X4425411Y29782341D01*
X4426223Y29781529D01*
X4426512Y29781000D01*
X4429274Y29777634D01*
X4428635Y29777111D01*
X4459708Y29720206D01*
X4460159Y29669656D01*
X4448199Y29609531D01*
X4448199Y29451840D01*
X4478960Y29297197D01*
X4478963Y29297185D01*
X4539301Y29151514D01*
X4539308Y29151501D01*
X4626909Y29020398D01*
X4626912Y29020394D01*
X4738406Y28908900D01*
X4738410Y28908897D01*
X4869513Y28821296D01*
X4869526Y28821289D01*
X4991909Y28770597D01*
X5015202Y28760949D01*
X5108489Y28742393D01*
X5169852Y28730187D01*
X5169855Y28730186D01*
X5257300Y28730186D01*
X5324339Y28710501D01*
X5370094Y28657697D01*
X5381300Y28606186D01*
X5381300Y28546463D01*
X5412061Y28391820D01*
X5412064Y28391808D01*
X5453780Y28291096D01*
X5461249Y28221627D01*
X5442322Y28174754D01*
X5420151Y28141572D01*
X5366539Y28096767D01*
X5297214Y28088058D01*
X5234186Y28118213D01*
X5202486Y28163012D01*
X5199775Y28169556D01*
X5199774Y28169559D01*
X5199772Y28169562D01*
X5199770Y28169566D01*
X5112169Y28300669D01*
X5112166Y28300673D01*
X5000672Y28412167D01*
X5000668Y28412170D01*
X4869565Y28499771D01*
X4869552Y28499778D01*
X4723881Y28560116D01*
X4723869Y28560119D01*
X4569225Y28590880D01*
X4569222Y28590880D01*
X4411538Y28590880D01*
X4411535Y28590880D01*
X4256890Y28560119D01*
X4256878Y28560116D01*
X4111207Y28499778D01*
X4111194Y28499771D01*
X3980094Y28412172D01*
X3946714Y28378793D01*
X3885390Y28345310D01*
X3834844Y28344860D01*
X3806491Y28350500D01*
X3806487Y28350500D01*
X3648803Y28350500D01*
X3648800Y28350500D01*
X3494155Y28319739D01*
X3494143Y28319736D01*
X3348472Y28259398D01*
X3348459Y28259391D01*
X3217356Y28171790D01*
X3217352Y28171787D01*
X3162181Y28116615D01*
X3100858Y28083130D01*
X3031166Y28088114D01*
X2975233Y28129986D01*
X2950816Y28195450D01*
X2950500Y28204296D01*
X2950500Y28278845D01*
X2950499Y28278847D01*
X2919737Y28433497D01*
X2892286Y28499771D01*
X2859397Y28579173D01*
X2859390Y28579186D01*
X2771789Y28710289D01*
X2771786Y28710293D01*
X2660292Y28821787D01*
X2660288Y28821790D01*
X2529185Y28909391D01*
X2529172Y28909398D01*
X2383501Y28969736D01*
X2383489Y28969739D01*
X2228845Y29000500D01*
X2228842Y29000500D01*
X2071158Y29000500D01*
X2071155Y29000500D01*
X1916510Y28969739D01*
X1916498Y28969736D01*
X1770827Y28909398D01*
X1770814Y28909391D01*
X1639711Y28821790D01*
X1639707Y28821787D01*
X1528213Y28710293D01*
X1528210Y28710289D01*
X1440609Y28579186D01*
X1440602Y28579173D01*
X1380264Y28433502D01*
X1380261Y28433490D01*
X1349500Y28278847D01*
X500500Y28278847D01*
X500500Y32178847D01*
X799500Y32178847D01*
X799500Y32021154D01*
X830261Y31866511D01*
X830264Y31866499D01*
X890602Y31720828D01*
X890609Y31720815D01*
X978210Y31589712D01*
X978213Y31589708D01*
X1089707Y31478214D01*
X1089711Y31478211D01*
X1220814Y31390610D01*
X1220827Y31390603D01*
X1362676Y31331848D01*
X1366503Y31330263D01*
X1513185Y31301086D01*
X1521153Y31299501D01*
X1521156Y31299500D01*
X1521158Y31299500D01*
X1678844Y31299500D01*
X1678845Y31299501D01*
X1833497Y31330263D01*
X1979179Y31390606D01*
X2110289Y31478211D01*
X2221789Y31589711D01*
X2309394Y31720821D01*
X2310054Y31722413D01*
X2323067Y31753834D01*
X2369737Y31866503D01*
X2400500Y32021158D01*
X2400500Y32178842D01*
X2400500Y32178845D01*
X2400499Y32178847D01*
X2389693Y32233173D01*
X2369737Y32333497D01*
X2369083Y32335075D01*
X2309397Y32479173D01*
X2309390Y32479186D01*
X2221789Y32610289D01*
X2221786Y32610293D01*
X2110292Y32721787D01*
X2110288Y32721790D01*
X1979185Y32809391D01*
X1979172Y32809398D01*
X1854738Y32860939D01*
X1800334Y32904779D01*
X1778269Y32971074D01*
X1795548Y33038773D01*
X1846685Y33086384D01*
X1902190Y33099500D01*
X1978844Y33099500D01*
X1978845Y33099501D01*
X2133497Y33130263D01*
X2279179Y33190606D01*
X2410289Y33278211D01*
X2521789Y33389711D01*
X2609394Y33520821D01*
X2669737Y33666503D01*
X2700500Y33821158D01*
X2700500Y33978842D01*
X2700500Y33978845D01*
X2700499Y33978847D01*
X2669738Y34133490D01*
X2669737Y34133497D01*
X2609794Y34278214D01*
X2609397Y34279173D01*
X2609390Y34279186D01*
X2521789Y34410289D01*
X2521786Y34410293D01*
X2410292Y34521787D01*
X2410288Y34521790D01*
X2279185Y34609391D01*
X2279172Y34609398D01*
X2133501Y34669736D01*
X2133489Y34669739D01*
X1978845Y34700500D01*
X1978842Y34700500D01*
X1821158Y34700500D01*
X1821155Y34700500D01*
X1666510Y34669739D01*
X1666498Y34669736D01*
X1520827Y34609398D01*
X1520814Y34609391D01*
X1389711Y34521790D01*
X1389707Y34521787D01*
X1278213Y34410293D01*
X1278210Y34410289D01*
X1190609Y34279186D01*
X1190602Y34279173D01*
X1130264Y34133502D01*
X1130261Y34133490D01*
X1099500Y33978847D01*
X1099500Y33821154D01*
X1130261Y33666511D01*
X1130264Y33666499D01*
X1190602Y33520828D01*
X1190609Y33520815D01*
X1278210Y33389712D01*
X1278213Y33389708D01*
X1389707Y33278214D01*
X1389711Y33278211D01*
X1520814Y33190610D01*
X1520827Y33190603D01*
X1645262Y33139061D01*
X1699666Y33095221D01*
X1721731Y33028926D01*
X1704452Y32961227D01*
X1653315Y32913616D01*
X1597810Y32900500D01*
X1521155Y32900500D01*
X1366510Y32869739D01*
X1366498Y32869736D01*
X1220827Y32809398D01*
X1220814Y32809391D01*
X1089711Y32721790D01*
X1089707Y32721787D01*
X978213Y32610293D01*
X978210Y32610289D01*
X890609Y32479186D01*
X890602Y32479173D01*
X830264Y32333502D01*
X830261Y32333490D01*
X799500Y32178847D01*
X500500Y32178847D01*
X500500Y34978847D01*
X2999500Y34978847D01*
X2999500Y34821154D01*
X3030261Y34666511D01*
X3030264Y34666499D01*
X3090602Y34520828D01*
X3090609Y34520815D01*
X3178210Y34389712D01*
X3178213Y34389708D01*
X3289707Y34278214D01*
X3289711Y34278211D01*
X3420814Y34190610D01*
X3420827Y34190603D01*
X3558683Y34133502D01*
X3566503Y34130263D01*
X3721153Y34099501D01*
X3721156Y34099500D01*
X3721158Y34099500D01*
X3878844Y34099500D01*
X3878845Y34099501D01*
X4033497Y34130263D01*
X4179179Y34190606D01*
X4310289Y34278211D01*
X4421789Y34389711D01*
X4509394Y34520821D01*
X4569737Y34666503D01*
X4600500Y34821158D01*
X4600500Y34978842D01*
X4600500Y34978845D01*
X4600499Y34978847D01*
X4582419Y35069739D01*
X4569737Y35133497D01*
X4560573Y35155621D01*
X4509397Y35279173D01*
X4509390Y35279186D01*
X4421789Y35410289D01*
X4421786Y35410293D01*
X4310292Y35521787D01*
X4310288Y35521790D01*
X4179185Y35609391D01*
X4179172Y35609398D01*
X4033501Y35669736D01*
X4033489Y35669739D01*
X3878845Y35700500D01*
X3878842Y35700500D01*
X3721158Y35700500D01*
X3721155Y35700500D01*
X3566510Y35669739D01*
X3566498Y35669736D01*
X3420827Y35609398D01*
X3420814Y35609391D01*
X3289711Y35521790D01*
X3289707Y35521787D01*
X3178213Y35410293D01*
X3178210Y35410289D01*
X3090609Y35279186D01*
X3090602Y35279173D01*
X3030264Y35133502D01*
X3030261Y35133490D01*
X2999500Y34978847D01*
X500500Y34978847D01*
X500500Y36004203D01*
X6705617Y36004203D01*
X6705617Y35846510D01*
X6736378Y35691867D01*
X6736381Y35691855D01*
X6796719Y35546184D01*
X6796726Y35546171D01*
X6884327Y35415068D01*
X6884330Y35415064D01*
X6995824Y35303570D01*
X6995828Y35303567D01*
X7126931Y35215966D01*
X7126944Y35215959D01*
X7272615Y35155621D01*
X7272620Y35155619D01*
X7427270Y35124857D01*
X7427273Y35124856D01*
X7427275Y35124856D01*
X7584961Y35124856D01*
X7584962Y35124857D01*
X7739614Y35155619D01*
X7885296Y35215962D01*
X8016406Y35303567D01*
X8127906Y35415067D01*
X8215511Y35546177D01*
X8275854Y35691859D01*
X8306617Y35846514D01*
X8306617Y36004198D01*
X8306617Y36004201D01*
X8306616Y36004203D01*
X8275855Y36158846D01*
X8275854Y36158853D01*
X8267572Y36178847D01*
X8215514Y36304529D01*
X8215507Y36304542D01*
X8127906Y36435645D01*
X8127903Y36435649D01*
X8016409Y36547143D01*
X8016405Y36547146D01*
X7885302Y36634747D01*
X7885289Y36634754D01*
X7739618Y36695092D01*
X7739606Y36695095D01*
X7584962Y36725856D01*
X7584959Y36725856D01*
X7427275Y36725856D01*
X7427272Y36725856D01*
X7272627Y36695095D01*
X7272615Y36695092D01*
X7126944Y36634754D01*
X7126931Y36634747D01*
X6995828Y36547146D01*
X6995824Y36547143D01*
X6884330Y36435649D01*
X6884327Y36435645D01*
X6796726Y36304542D01*
X6796719Y36304529D01*
X6736381Y36158858D01*
X6736378Y36158846D01*
X6705617Y36004203D01*
X500500Y36004203D01*
X500500Y37745934D01*
X500765Y37754044D01*
X504779Y37815289D01*
X517075Y38002898D01*
X519190Y38018952D01*
X567045Y38259538D01*
X571243Y38275203D01*
X602238Y38366511D01*
X650093Y38507488D01*
X656291Y38522453D01*
X764790Y38742467D01*
X772897Y38756507D01*
X882910Y38921154D01*
X909177Y38960466D01*
X919039Y38973319D01*
X1080786Y39157756D01*
X1092244Y39169214D01*
X1276681Y39330961D01*
X1289534Y39340823D01*
X1493493Y39477103D01*
X1507533Y39485210D01*
X1727547Y39593709D01*
X1742512Y39599907D01*
X1906762Y39655663D01*
X1974797Y39678757D01*
X1990464Y39682955D01*
X2231048Y39730810D01*
X2247102Y39732925D01*
X2495957Y39749235D01*
X2504067Y39749500D01*
X2565892Y39749500D01*
X5618059Y39749500D01*
X5685098Y39729815D01*
G37*
%TD.AperFunction*%
%TD*%
M02*
