%TF.GenerationSoftware,KiCad,Pcbnew,10.0.4*%
%TF.CreationDate,2026-09-06T22:16:51-07:00*%
%TF.ProjectId,iris,69726973-2e6b-4696-9361-645f70636258,rev?*%
%TF.SameCoordinates,Original*%
%TF.FileFunction,Copper,L4,Bot*%
%TF.FilePolarity,Positive*%
%FSLAX46Y46*%
G04 Gerber Fmt 4.6, Leading zero omitted, Abs format (unit mm)*
G04 Created by KiCad (PCBNEW 10.0.4) date 2026-09-06 22:16:51*
%MOMM*%
%LPD*%
G01*
G04 APERTURE LIST*
G04 Aperture macros list*
%AMRoundRect*
0 Rectangle with rounded corners*
0 $1 Rounding radius*
0 $2 $3 $4 $5 $6 $7 $8 $9 X,Y pos of 4 corners*
0 Add a 4 corners polygon primitive as box body*
4,1,4,$2,$3,$4,$5,$6,$7,$8,$9,$2,$3,0*
0 Add four circle primitives for the rounded corners*
1,1,$1+$1,$2,$3*
1,1,$1+$1,$4,$5*
1,1,$1+$1,$6,$7*
1,1,$1+$1,$8,$9*
0 Add four rect primitives between the rounded corners*
20,1,$1+$1,$2,$3,$4,$5,0*
20,1,$1+$1,$4,$5,$6,$7,0*
20,1,$1+$1,$6,$7,$8,$9,0*
20,1,$1+$1,$8,$9,$2,$3,0*%
%AMFreePoly0*
4,1,15,1.100000,0.175000,0.750000,0.175000,0.750000,-0.175000,1.100000,-0.175000,1.100000,-0.475000,0.750000,-0.475000,-0.750000,-0.475000,-1.100000,-0.475000,-1.100000,-0.175000,-0.750000,-0.175000,-0.750000,0.175000,-1.100000,0.175000,-1.100000,0.475000,1.100000,0.475000,1.100000,0.175000,1.100000,0.175000,$1*%
%AMFreePoly1*
4,1,9,3.862500,-0.866500,0.737500,-0.866500,0.737500,-0.450000,-0.737500,-0.450000,-0.737500,0.450000,0.737500,0.450000,0.737500,0.866500,3.862500,0.866500,3.862500,-0.866500,3.862500,-0.866500,$1*%
G04 Aperture macros list end*
%TA.AperFunction,SMDPad,CuDef*%
%ADD10RoundRect,0.135000X0.135000X0.185000X-0.135000X0.185000X-0.135000X-0.185000X0.135000X-0.185000X0*%
%TD*%
%TA.AperFunction,ComponentPad*%
%ADD11RoundRect,0.200000X0.450000X-0.200000X0.450000X0.200000X-0.450000X0.200000X-0.450000X-0.200000X0*%
%TD*%
%TA.AperFunction,ComponentPad*%
%ADD12O,1.300000X0.800000*%
%TD*%
%TA.AperFunction,ComponentPad*%
%ADD13RoundRect,0.200000X-0.200000X-0.450000X0.200000X-0.450000X0.200000X0.450000X-0.200000X0.450000X0*%
%TD*%
%TA.AperFunction,ComponentPad*%
%ADD14O,0.800000X1.300000*%
%TD*%
%TA.AperFunction,ComponentPad*%
%ADD15C,3.800000*%
%TD*%
%TA.AperFunction,ComponentPad*%
%ADD16RoundRect,0.200000X-0.450000X0.200000X-0.450000X-0.200000X0.450000X-0.200000X0.450000X0.200000X0*%
%TD*%
%TA.AperFunction,SMDPad,CuDef*%
%ADD17RoundRect,0.135000X-0.185000X0.135000X-0.185000X-0.135000X0.185000X-0.135000X0.185000X0.135000X0*%
%TD*%
%TA.AperFunction,SMDPad,CuDef*%
%ADD18RoundRect,0.250000X0.250000X0.475000X-0.250000X0.475000X-0.250000X-0.475000X0.250000X-0.475000X0*%
%TD*%
%TA.AperFunction,SMDPad,CuDef*%
%ADD19RoundRect,0.250000X-0.475000X0.250000X-0.475000X-0.250000X0.475000X-0.250000X0.475000X0.250000X0*%
%TD*%
%TA.AperFunction,SMDPad,CuDef*%
%ADD20RoundRect,0.135000X-0.135000X-0.185000X0.135000X-0.185000X0.135000X0.185000X-0.135000X0.185000X0*%
%TD*%
%TA.AperFunction,SMDPad,CuDef*%
%ADD21FreePoly0,0.000000*%
%TD*%
%TA.AperFunction,SMDPad,CuDef*%
%ADD22RoundRect,0.075000X-0.100000X-0.075000X0.100000X-0.075000X0.100000X0.075000X-0.100000X0.075000X0*%
%TD*%
%TA.AperFunction,SMDPad,CuDef*%
%ADD23RoundRect,0.058750X-0.376250X-0.058750X0.376250X-0.058750X0.376250X0.058750X-0.376250X0.058750X0*%
%TD*%
%TA.AperFunction,SMDPad,CuDef*%
%ADD24RoundRect,0.087500X-0.087500X0.337500X-0.087500X-0.337500X0.087500X-0.337500X0.087500X0.337500X0*%
%TD*%
%TA.AperFunction,HeatsinkPad*%
%ADD25R,2.400000X1.650000*%
%TD*%
%TA.AperFunction,SMDPad,CuDef*%
%ADD26RoundRect,0.140000X0.140000X0.170000X-0.140000X0.170000X-0.140000X-0.170000X0.140000X-0.170000X0*%
%TD*%
%TA.AperFunction,SMDPad,CuDef*%
%ADD27RoundRect,0.140000X-0.140000X-0.170000X0.140000X-0.170000X0.140000X0.170000X-0.140000X0.170000X0*%
%TD*%
%TA.AperFunction,SMDPad,CuDef*%
%ADD28RoundRect,0.135000X0.185000X-0.135000X0.185000X0.135000X-0.185000X0.135000X-0.185000X-0.135000X0*%
%TD*%
%TA.AperFunction,SMDPad,CuDef*%
%ADD29RoundRect,0.140000X0.170000X-0.140000X0.170000X0.140000X-0.170000X0.140000X-0.170000X-0.140000X0*%
%TD*%
%TA.AperFunction,SMDPad,CuDef*%
%ADD30RoundRect,0.225000X0.225000X0.250000X-0.225000X0.250000X-0.225000X-0.250000X0.225000X-0.250000X0*%
%TD*%
%TA.AperFunction,SMDPad,CuDef*%
%ADD31RoundRect,0.100000X-0.575000X0.100000X-0.575000X-0.100000X0.575000X-0.100000X0.575000X0.100000X0*%
%TD*%
%TA.AperFunction,ComponentPad*%
%ADD32O,1.600000X0.900000*%
%TD*%
%TA.AperFunction,SMDPad,CuDef*%
%ADD33RoundRect,0.250000X-0.450000X0.550000X-0.450000X-0.550000X0.450000X-0.550000X0.450000X0.550000X0*%
%TD*%
%TA.AperFunction,SMDPad,CuDef*%
%ADD34RoundRect,0.250000X-0.700000X0.700000X-0.700000X-0.700000X0.700000X-0.700000X0.700000X0.700000X0*%
%TD*%
%TA.AperFunction,SMDPad,CuDef*%
%ADD35RoundRect,0.150000X0.200000X-0.150000X0.200000X0.150000X-0.200000X0.150000X-0.200000X-0.150000X0*%
%TD*%
%TA.AperFunction,SMDPad,CuDef*%
%ADD36RoundRect,0.150000X-0.587500X-0.150000X0.587500X-0.150000X0.587500X0.150000X-0.587500X0.150000X0*%
%TD*%
%TA.AperFunction,SMDPad,CuDef*%
%ADD37RoundRect,0.062500X0.337500X0.062500X-0.337500X0.062500X-0.337500X-0.062500X0.337500X-0.062500X0*%
%TD*%
%TA.AperFunction,SMDPad,CuDef*%
%ADD38RoundRect,0.062500X0.062500X0.337500X-0.062500X0.337500X-0.062500X-0.337500X0.062500X-0.337500X0*%
%TD*%
%TA.AperFunction,HeatsinkPad*%
%ADD39R,2.700000X2.700000*%
%TD*%
%TA.AperFunction,SMDPad,CuDef*%
%ADD40RoundRect,0.140000X-0.170000X0.140000X-0.170000X-0.140000X0.170000X-0.140000X0.170000X0.140000X0*%
%TD*%
%TA.AperFunction,SMDPad,CuDef*%
%ADD41RoundRect,0.037500X0.262500X0.087500X-0.262500X0.087500X-0.262500X-0.087500X0.262500X-0.087500X0*%
%TD*%
%TA.AperFunction,SMDPad,CuDef*%
%ADD42RoundRect,0.037500X-0.262500X-0.087500X0.262500X-0.087500X0.262500X0.087500X-0.262500X0.087500X0*%
%TD*%
%TA.AperFunction,SMDPad,CuDef*%
%ADD43RoundRect,0.037500X0.087500X-0.262500X0.087500X0.262500X-0.087500X0.262500X-0.087500X-0.262500X0*%
%TD*%
%TA.AperFunction,SMDPad,CuDef*%
%ADD44RoundRect,0.037500X-0.087500X0.262500X-0.087500X-0.262500X0.087500X-0.262500X0.087500X0.262500X0*%
%TD*%
%TA.AperFunction,SMDPad,CuDef*%
%ADD45RoundRect,0.037500X-0.637500X-0.087500X0.637500X-0.087500X0.637500X0.087500X-0.637500X0.087500X0*%
%TD*%
%TA.AperFunction,SMDPad,CuDef*%
%ADD46RoundRect,0.037500X-0.812500X-0.087500X0.812500X-0.087500X0.812500X0.087500X-0.812500X0.087500X0*%
%TD*%
%TA.AperFunction,SMDPad,CuDef*%
%ADD47RoundRect,0.037500X0.637500X0.087500X-0.637500X0.087500X-0.637500X-0.087500X0.637500X-0.087500X0*%
%TD*%
%TA.AperFunction,SMDPad,CuDef*%
%ADD48FreePoly0,90.000000*%
%TD*%
%TA.AperFunction,SMDPad,CuDef*%
%ADD49RoundRect,0.075000X0.075000X-0.100000X0.075000X0.100000X-0.075000X0.100000X-0.075000X-0.100000X0*%
%TD*%
%TA.AperFunction,SMDPad,CuDef*%
%ADD50RoundRect,0.058750X0.058750X-0.376250X0.058750X0.376250X-0.058750X0.376250X-0.058750X-0.376250X0*%
%TD*%
%TA.AperFunction,SMDPad,CuDef*%
%ADD51RoundRect,0.062500X0.062500X-0.337500X0.062500X0.337500X-0.062500X0.337500X-0.062500X-0.337500X0*%
%TD*%
%TA.AperFunction,SMDPad,CuDef*%
%ADD52RoundRect,0.062500X0.337500X-0.062500X0.337500X0.062500X-0.337500X0.062500X-0.337500X-0.062500X0*%
%TD*%
%TA.AperFunction,HeatsinkPad*%
%ADD53R,3.700000X3.700000*%
%TD*%
%TA.AperFunction,SMDPad,CuDef*%
%ADD54RoundRect,0.250000X-0.300000X0.300000X-0.300000X-0.300000X0.300000X-0.300000X0.300000X0.300000X0*%
%TD*%
%TA.AperFunction,SMDPad,CuDef*%
%ADD55RoundRect,0.250000X-0.250000X-0.475000X0.250000X-0.475000X0.250000X0.475000X-0.250000X0.475000X0*%
%TD*%
%TA.AperFunction,SMDPad,CuDef*%
%ADD56FreePoly0,270.000000*%
%TD*%
%TA.AperFunction,SMDPad,CuDef*%
%ADD57RoundRect,0.075000X-0.075000X0.100000X-0.075000X-0.100000X0.075000X-0.100000X0.075000X0.100000X0*%
%TD*%
%TA.AperFunction,SMDPad,CuDef*%
%ADD58RoundRect,0.058750X-0.058750X0.376250X-0.058750X-0.376250X0.058750X-0.376250X0.058750X0.376250X0*%
%TD*%
%TA.AperFunction,SMDPad,CuDef*%
%ADD59RoundRect,0.200000X0.200000X0.275000X-0.200000X0.275000X-0.200000X-0.275000X0.200000X-0.275000X0*%
%TD*%
%TA.AperFunction,SMDPad,CuDef*%
%ADD60RoundRect,0.075000X-0.075000X0.337500X-0.075000X-0.337500X0.075000X-0.337500X0.075000X0.337500X0*%
%TD*%
%TA.AperFunction,SMDPad,CuDef*%
%ADD61RoundRect,0.075000X-0.337500X0.075000X-0.337500X-0.075000X0.337500X-0.075000X0.337500X0.075000X0*%
%TD*%
%TA.AperFunction,HeatsinkPad*%
%ADD62R,2.600000X2.600000*%
%TD*%
%TA.AperFunction,SMDPad,CuDef*%
%ADD63RoundRect,0.150000X-0.150000X0.587500X-0.150000X-0.587500X0.150000X-0.587500X0.150000X0.587500X0*%
%TD*%
%TA.AperFunction,SMDPad,CuDef*%
%ADD64RoundRect,0.250000X1.075000X-0.375000X1.075000X0.375000X-1.075000X0.375000X-1.075000X-0.375000X0*%
%TD*%
%TA.AperFunction,SMDPad,CuDef*%
%ADD65RoundRect,0.225000X0.425000X0.225000X-0.425000X0.225000X-0.425000X-0.225000X0.425000X-0.225000X0*%
%TD*%
%TA.AperFunction,SMDPad,CuDef*%
%ADD66FreePoly1,180.000000*%
%TD*%
%TA.AperFunction,SMDPad,CuDef*%
%ADD67R,0.500000X0.600000*%
%TD*%
%TA.AperFunction,SMDPad,CuDef*%
%ADD68RoundRect,0.150000X-0.150000X0.512500X-0.150000X-0.512500X0.150000X-0.512500X0.150000X0.512500X0*%
%TD*%
%TA.AperFunction,ViaPad*%
%ADD69C,0.600000*%
%TD*%
%TA.AperFunction,Conductor*%
%ADD70C,0.200000*%
%TD*%
%TA.AperFunction,Conductor*%
%ADD71C,0.500000*%
%TD*%
G04 APERTURE END LIST*
D10*
%TO.P,R26,1*%
%TO.N,/Load Switches/SCL*%
X6110000Y28650000D03*
%TO.P,R26,2*%
%TO.N,+3V3*%
X5090000Y28650000D03*
%TD*%
%TO.P,R25,1*%
%TO.N,/Load Switches/SDA*%
X6110000Y27650000D03*
%TO.P,R25,2*%
%TO.N,+3V3*%
X5090000Y27650000D03*
%TD*%
D11*
%TO.P,J6,1,Pin_1_1*%
%TO.N,Net-(J6-Pin_1)*%
X14750000Y7875000D03*
D12*
%TO.P,J6,2,Pin_2_2*%
%TO.N,/IO/CAN_L*%
X14750000Y9125000D03*
%TO.P,J6,3,Pin_3_3*%
%TO.N,/IO/CAN_H*%
X14750000Y10375000D03*
%TO.P,J6,4,Pin_4_4*%
%TO.N,GND*%
X14750000Y11625000D03*
%TD*%
D13*
%TO.P,J5,1,Pin_1_1*%
%TO.N,/IO/OUT1PWR*%
X6975000Y4700000D03*
D14*
%TO.P,J5,2,Pin_2_2*%
%TO.N,/IO/TXD1_MCU*%
X8225000Y4700000D03*
%TO.P,J5,3,Pin_3_3*%
%TO.N,/IO/RXD1_MCU*%
X9475000Y4700000D03*
%TO.P,J5,4,Pin_4_4*%
%TO.N,GND*%
X10725000Y4700000D03*
%TD*%
D15*
%TO.P,H6,1,1_1*%
%TO.N,GND*%
X2750000Y37500000D03*
%TD*%
%TO.P,H5,1,1_1*%
%TO.N,GND*%
X17500000Y3000000D03*
%TD*%
D16*
%TO.P,J8,1,Pin_1_1*%
%TO.N,/IO/OUT3PWR*%
X4600000Y25575000D03*
D12*
%TO.P,J8,2,Pin_2_2*%
%TO.N,Net-(J8-Pin_2)*%
X4600000Y24325000D03*
%TO.P,J8,3,Pin_3_3*%
%TO.N,Net-(J8-Pin_3)*%
X4600000Y23075000D03*
%TO.P,J8,4,Pin_4_4*%
%TO.N,GND*%
X4600000Y21825000D03*
%TD*%
D16*
%TO.P,J2,1,Pin_1_1*%
%TO.N,/IO/BATT_RAW*%
X4700000Y9625000D03*
D12*
%TO.P,J2,2,Pin_2_2*%
%TO.N,GND*%
X4700000Y8375000D03*
%TD*%
D15*
%TO.P,H7,1,1_1*%
%TO.N,GND*%
X17000000Y37500000D03*
%TD*%
D16*
%TO.P,J7,1,Pin_1_1*%
%TO.N,/IO/OUT2PWR*%
X4700000Y17575000D03*
D12*
%TO.P,J7,2,Pin_2_2*%
%TO.N,/IO/TXD0_MCU*%
X4700000Y16325000D03*
%TO.P,J7,3,Pin_3_3*%
%TO.N,/IO/RXD0_MCU*%
X4700000Y15075000D03*
%TO.P,J7,4,Pin_4_4*%
%TO.N,GND*%
X4700000Y13825000D03*
%TD*%
D15*
%TO.P,H4,1,1_1*%
%TO.N,GND*%
X2750000Y2750000D03*
%TD*%
D17*
%TO.P,R38,1*%
%TO.N,GND*%
X12200000Y19010000D03*
%TO.P,R38,2*%
%TO.N,Net-(D3-K)*%
X12200000Y17990000D03*
%TD*%
D18*
%TO.P,C24,1*%
%TO.N,+5V*%
X8950000Y20500000D03*
%TO.P,C24,2*%
%TO.N,GND*%
X7050000Y20500000D03*
%TD*%
D19*
%TO.P,C12,1*%
%TO.N,+3V3*%
X14200000Y37400000D03*
%TO.P,C12,2*%
%TO.N,GND*%
X14200000Y35500000D03*
%TD*%
D10*
%TO.P,R40,1*%
%TO.N,Net-(Q3-G)*%
X2010000Y17700000D03*
%TO.P,R40,2*%
%TO.N,/Load Switches/VIN3*%
X990000Y17700000D03*
%TD*%
D20*
%TO.P,R35,1*%
%TO.N,/MCU/TXD1_MCU*%
X3980000Y33000000D03*
%TO.P,R35,2*%
%TO.N,/IO/TXD1_MCU*%
X5000000Y33000000D03*
%TD*%
D21*
%TO.P,Q6,1,D_1*%
%TO.N,/Load Switches/CS1*%
X11325000Y1475000D03*
D22*
%TO.P,Q6,3,G_3*%
%TO.N,Net-(Q5-D)*%
X10400000Y2450000D03*
D23*
%TO.P,Q6,4,S_4*%
%TO.N,/IO/OUT1PWR*%
X11365000Y2450000D03*
D22*
X12250000Y2450000D03*
%TD*%
D24*
%TO.P,U5,1,TXD_1*%
%TO.N,/IO/CANRX*%
X16600000Y9600000D03*
%TO.P,U5,2,GND_2*%
%TO.N,GND*%
X17250000Y9600000D03*
%TO.P,U5,3,VCC_3*%
%TO.N,+3V3*%
X17900000Y9600000D03*
%TO.P,U5,4,RXD_4*%
%TO.N,/IO/CANTX*%
X18550000Y9600000D03*
%TO.P,U5,5,NC_5*%
%TO.N,unconnected-(U5-NC-Pad5)*%
X18550000Y6700000D03*
%TO.P,U5,6,CANL_6*%
%TO.N,/IO/CAN_L*%
X17900000Y6700000D03*
%TO.P,U5,7,CANH_7*%
%TO.N,/IO/CAN_H*%
X17250000Y6700000D03*
%TO.P,U5,8,STB_8*%
%TO.N,Net-(U5-STB)*%
X16600000Y6700000D03*
D25*
%TO.P,U5,9*%
%TO.N,N/C*%
X17575000Y8150000D03*
%TD*%
D26*
%TO.P,C9,1*%
%TO.N,+3V3*%
X6030000Y31237500D03*
%TO.P,C9,2*%
%TO.N,GND*%
X5070000Y31237500D03*
%TD*%
D27*
%TO.P,C3,1*%
%TO.N,+3V3*%
X13470000Y30900000D03*
%TO.P,C3,2*%
%TO.N,GND*%
X14430000Y30900000D03*
%TD*%
D28*
%TO.P,R54,1*%
%TO.N,GND*%
X14700000Y12680000D03*
%TO.P,R54,2*%
%TO.N,/Load Switches/EN1*%
X14700000Y13700000D03*
%TD*%
D10*
%TO.P,R46,1*%
%TO.N,Net-(R46-Pad1)*%
X14155000Y24555000D03*
%TO.P,R46,2*%
%TO.N,GND*%
X13135000Y24555000D03*
%TD*%
D29*
%TO.P,C6,1*%
%TO.N,+3V3*%
X8600000Y35720000D03*
%TO.P,C6,2*%
%TO.N,GND*%
X8600000Y36680000D03*
%TD*%
D30*
%TO.P,C20,1*%
%TO.N,+BATT*%
X8175000Y11200000D03*
%TO.P,C20,2*%
%TO.N,GND*%
X6625000Y11200000D03*
%TD*%
D31*
%TO.P,J3,1,VBUS_1*%
%TO.N,VBUS*%
X15825000Y26300000D03*
%TO.P,J3,2,D-_2*%
%TO.N,/IO/USB_D-*%
X15825000Y25650000D03*
%TO.P,J3,3,D+_3*%
%TO.N,/IO/USB_D+*%
X15825000Y25000000D03*
%TO.P,J3,4,ID_4*%
%TO.N,unconnected-(J3-ID-Pad4)*%
X15825000Y24350000D03*
%TO.P,J3,5,GND_5*%
%TO.N,GND*%
X15825000Y23700000D03*
D32*
%TO.P,J3,SH,Shield_SH*%
%TO.N,Net-(J3-Shield)*%
X18500000Y28300000D03*
D33*
X16050000Y28200000D03*
D34*
X18500000Y26200000D03*
X18500000Y23800000D03*
D33*
X16050000Y21800000D03*
D32*
X18500000Y21700000D03*
%TD*%
D35*
%TO.P,D5,1,K_1*%
%TO.N,Net-(D5-K)*%
X5400000Y3200000D03*
%TO.P,D5,2,A_2*%
%TO.N,Net-(D5-A)*%
X5400000Y1800000D03*
%TD*%
D10*
%TO.P,R21,1*%
%TO.N,/MCU/VSENSE*%
X5410000Y11800000D03*
%TO.P,R21,2*%
%TO.N,+BATT*%
X4390000Y11800000D03*
%TD*%
D36*
%TO.P,Q5,1,G_1*%
%TO.N,/Load Switches/EN1*%
X7100000Y1050000D03*
%TO.P,Q5,2,S_2*%
%TO.N,GND*%
X7100000Y2950000D03*
%TO.P,Q5,3,D_3*%
%TO.N,Net-(Q5-D)*%
X8975000Y2000000D03*
%TD*%
D18*
%TO.P,C18,1*%
%TO.N,+BATT*%
X8250000Y9100000D03*
%TO.P,C18,2*%
%TO.N,GND*%
X6350000Y9100000D03*
%TD*%
D10*
%TO.P,R53,1*%
%TO.N,GND*%
X3410000Y31037500D03*
%TO.P,R53,2*%
%TO.N,/Load Switches/EN2*%
X2390000Y31037500D03*
%TD*%
D20*
%TO.P,R34,1*%
%TO.N,/MCU/CANRX*%
X16940000Y13500000D03*
%TO.P,R34,2*%
%TO.N,/IO/CANRX*%
X17960000Y13500000D03*
%TD*%
D37*
%TO.P,U4,1,A2_1*%
%TO.N,GND*%
X18750000Y17900000D03*
%TO.P,U4,2,A1_2*%
X18750000Y17400000D03*
%TO.P,U4,3,A0_3*%
X18750000Y16900000D03*
%TO.P,U4,4,~{RESET}_4*%
%TO.N,/MCU/LS_EN*%
X18750000Y16400000D03*
%TO.P,U4,5,NC_5*%
%TO.N,unconnected-(U4-NC-Pad5)*%
X18750000Y15900000D03*
D38*
%TO.P,U4,6,NC_6*%
%TO.N,unconnected-(U4-NC-Pad6)*%
X17800000Y14950000D03*
%TO.P,U4,7,INT_7*%
%TO.N,unconnected-(U4-INT-Pad7)*%
X17300000Y14950000D03*
%TO.P,U4,8,NC_8*%
%TO.N,unconnected-(U4-NC-Pad8)*%
X16800000Y14950000D03*
%TO.P,U4,9,GP0_9*%
%TO.N,/Load Switches/EN1*%
X16300000Y14950000D03*
%TO.P,U4,10,GP1_10*%
%TO.N,/Load Switches/EN2*%
X15800000Y14950000D03*
D37*
%TO.P,U4,11,GP2_11*%
%TO.N,/Load Switches/EN3*%
X14850000Y15900000D03*
%TO.P,U4,12,GP3_12*%
%TO.N,/MCU/5V_EN*%
X14850000Y16400000D03*
%TO.P,U4,13,GP4_13*%
%TO.N,unconnected-(U4-GP4-Pad13)*%
X14850000Y16900000D03*
%TO.P,U4,14,GP5_14*%
%TO.N,unconnected-(U4-GP5-Pad14)*%
X14850000Y17400000D03*
%TO.P,U4,15,GP6_15*%
%TO.N,unconnected-(U4-GP6-Pad15)*%
X14850000Y17900000D03*
D38*
%TO.P,U4,16,GP7_16*%
%TO.N,/MCU/LED_B*%
X15800000Y18850000D03*
%TO.P,U4,17,VSS_17*%
%TO.N,GND*%
X16300000Y18850000D03*
%TO.P,U4,18,VDD_18*%
%TO.N,+3V3*%
X16800000Y18850000D03*
%TO.P,U4,19,SCL_19*%
%TO.N,/Load Switches/SCL*%
X17300000Y18850000D03*
%TO.P,U4,20,SDA_20*%
%TO.N,/Load Switches/SDA*%
X17800000Y18850000D03*
D39*
%TO.P,U4,21*%
%TO.N,N/C*%
X16800000Y16900000D03*
%TD*%
D40*
%TO.P,C5,1*%
%TO.N,+3V3*%
X11100000Y28080000D03*
%TO.P,C5,2*%
%TO.N,GND*%
X11100000Y27120000D03*
%TD*%
D30*
%TO.P,C22,1*%
%TO.N,+5V*%
X8975000Y16700000D03*
%TO.P,C22,2*%
%TO.N,GND*%
X7425000Y16700000D03*
%TD*%
D17*
%TO.P,R20,1*%
%TO.N,GND*%
X13300000Y19010000D03*
%TO.P,R20,2*%
%TO.N,Net-(D2-K)*%
X13300000Y17990000D03*
%TD*%
D28*
%TO.P,R18,1*%
%TO.N,/MCU/LED_R*%
X5200000Y35990000D03*
%TO.P,R18,2*%
%TO.N,Net-(D1-RK)*%
X5200000Y37010000D03*
%TD*%
D20*
%TO.P,R9,1*%
%TO.N,+5V*%
X4890000Y12800000D03*
%TO.P,R9,2*%
%TO.N,Net-(U6-PG)*%
X5910000Y12800000D03*
%TD*%
D28*
%TO.P,R41,1*%
%TO.N,Net-(Q5-D)*%
X11800000Y3590000D03*
%TO.P,R41,2*%
%TO.N,/Load Switches/VIN1*%
X11800000Y4610000D03*
%TD*%
D41*
%TO.P,U6,1,PS/SYNC_1*%
%TO.N,Net-(U6-PS{slash}SYNC)*%
X6927951Y13150000D03*
%TO.P,U6,2,PG_2*%
%TO.N,Net-(U6-PG)*%
X6927951Y13650000D03*
%TO.P,U6,3,VAUX_3*%
%TO.N,Net-(U6-VAUX)*%
X6927951Y14150000D03*
D42*
%TO.P,U6,4,GND_4*%
%TO.N,GND*%
X6927951Y14650000D03*
D43*
%TO.P,U6,5,FB_5*%
%TO.N,Net-(U6-FB)*%
X7327951Y15300000D03*
%TO.P,U6,6,FB2_6*%
%TO.N,GND*%
X7827951Y15300000D03*
%TO.P,U6,7,VOUT_7*%
%TO.N,+5V*%
X8327951Y15300000D03*
D44*
%TO.P,U6,8,VOUT_8*%
X8827951Y15300000D03*
D45*
%TO.P,U6,9,L2_9*%
%TO.N,Net-(U6-L2)*%
X8827951Y14400000D03*
D46*
%TO.P,U6,10,PGND_10*%
%TO.N,GND*%
X8677951Y13900000D03*
D47*
%TO.P,U6,11,L1_11*%
%TO.N,Net-(U6-L1)*%
X8827951Y13400000D03*
D44*
%TO.P,U6,12,VIN_12*%
%TO.N,+BATT*%
X8827951Y12500000D03*
%TO.P,U6,13,VIN_13*%
X8327951Y12500000D03*
%TO.P,U6,14,EN_14*%
%TO.N,/MCU/5V_EN*%
X7827951Y12500000D03*
D43*
%TO.P,U6,15,VSEL_15*%
%TO.N,GND*%
X7327951Y12500000D03*
%TD*%
D48*
%TO.P,Q2,1,D_1*%
%TO.N,Net-(D5-K)*%
X2275000Y10825000D03*
D49*
%TO.P,Q2,3,G_3*%
%TO.N,VBUS*%
X1300000Y9900000D03*
D50*
%TO.P,Q2,4,S_4*%
%TO.N,+BATT*%
X1300000Y10865000D03*
D49*
X1300000Y11750000D03*
%TD*%
D51*
%TO.P,U7,1,LNA_IN_1*%
%TO.N,unconnected-(U7-LNA_IN-Pad1)*%
X11450000Y29537500D03*
%TO.P,U7,2,VDD3P3_2*%
%TO.N,+3V3*%
X10950000Y29537500D03*
%TO.P,U7,3,VDD3P3_3*%
X10450000Y29537500D03*
%TO.P,U7,4,XTAL_32K_P_4*%
%TO.N,/MCU/VSENSE*%
X9950000Y29537500D03*
%TO.P,U7,5,XTAL_32K_N_5*%
%TO.N,/MCU/CANTX*%
X9450000Y29537500D03*
%TO.P,U7,6,GPIO2_6*%
%TO.N,/IO/BUTTON*%
X8950000Y29537500D03*
%TO.P,U7,7,CHIP_EN_7*%
%TO.N,/MCU/RST*%
X8450000Y29537500D03*
%TO.P,U7,8,GPIO3_8*%
%TO.N,/MCU/CANRX*%
X7950000Y29537500D03*
D52*
%TO.P,U7,9,MTMS_9*%
%TO.N,/Load Switches/SDA*%
X7250000Y30237500D03*
%TO.P,U7,10,MTDI_10*%
%TO.N,/Load Switches/SCL*%
X7250000Y30737500D03*
%TO.P,U7,11,VDD3P3_RTC_11*%
%TO.N,+3V3*%
X7250000Y31237500D03*
%TO.P,U7,12,MTCK_12*%
%TO.N,/MCU/TXD1_MCU*%
X7250000Y31737500D03*
%TO.P,U7,13,MTDO_13*%
%TO.N,/MCU/RXD1_MCU*%
X7250000Y32237500D03*
%TO.P,U7,14,GPIO8_14*%
%TO.N,/MCU/LED_R*%
X7250000Y32737500D03*
%TO.P,U7,15,GPIO9_15*%
%TO.N,/MCU/LS_EN*%
X7250000Y33237500D03*
%TO.P,U7,16,GPIO10_16*%
%TO.N,/MCU/LED_G*%
X7250000Y33737500D03*
D51*
%TO.P,U7,17,VDD3P3_CPU_17*%
%TO.N,+3V3*%
X7950000Y34437500D03*
%TO.P,U7,18,VDD_SPI_18*%
X8450000Y34437500D03*
%TO.P,U7,19,SPIHD_19*%
%TO.N,unconnected-(U7-SPIHD-Pad19)*%
X8950000Y34437500D03*
%TO.P,U7,20,SPIWP_20*%
%TO.N,unconnected-(U7-SPIWP-Pad20)*%
X9450000Y34437500D03*
%TO.P,U7,21,SPICS0_21*%
%TO.N,unconnected-(U7-SPICS0-Pad21)*%
X9950000Y34437500D03*
%TO.P,U7,22,SPICLK_22*%
%TO.N,unconnected-(U7-SPICLK-Pad22)*%
X10450000Y34437500D03*
%TO.P,U7,23,SPID_23*%
%TO.N,unconnected-(U7-SPID-Pad23)*%
X10950000Y34437500D03*
%TO.P,U7,24,SPIQ_24*%
%TO.N,unconnected-(U7-SPIQ-Pad24)*%
X11450000Y34437500D03*
D52*
%TO.P,U7,25,GPIO18_25*%
%TO.N,Net-(U7-GPIO18)*%
X12150000Y33737500D03*
%TO.P,U7,26,GPIO19_26*%
%TO.N,Net-(U7-GPIO19)*%
X12150000Y33237500D03*
%TO.P,U7,27,U0RXD_27*%
%TO.N,/MCU/RXD0_MCU*%
X12150000Y32737500D03*
%TO.P,U7,28,U0TXD_28*%
%TO.N,/MCU/TXD0_MCU*%
X12150000Y32237500D03*
%TO.P,U7,29,XTAL_N_29*%
%TO.N,unconnected-(U7-XTAL_N-Pad29)*%
X12150000Y31737500D03*
%TO.P,U7,30,XTAL_P_30*%
%TO.N,/MCU/XIN*%
X12150000Y31237500D03*
%TO.P,U7,31,VDDA_31*%
%TO.N,+3V3*%
X12150000Y30737500D03*
%TO.P,U7,32,VDDA_32*%
X12150000Y30237500D03*
D53*
%TO.P,U7,33,GND_33*%
%TO.N,GND*%
X9700000Y31987500D03*
%TD*%
D29*
%TO.P,C21,1*%
%TO.N,Net-(U6-VAUX)*%
X5900000Y13940000D03*
%TO.P,C21,2*%
%TO.N,GND*%
X5900000Y14900000D03*
%TD*%
D20*
%TO.P,R50,1*%
%TO.N,/MCU/RXD0_MCU*%
X1990000Y33185000D03*
%TO.P,R50,2*%
%TO.N,/IO/RXD0_MCU*%
X3010000Y33185000D03*
%TD*%
D10*
%TO.P,R33,1*%
%TO.N,/MCU/CANTX*%
X17960000Y12300000D03*
%TO.P,R33,2*%
%TO.N,/IO/CANTX*%
X16940000Y12300000D03*
%TD*%
D54*
%TO.P,D4,1,K_1*%
%TO.N,+BATT*%
X1500000Y8500000D03*
%TO.P,D4,2,A_2*%
%TO.N,VBUS*%
X1500000Y5700000D03*
%TD*%
D55*
%TO.P,C10,1*%
%TO.N,+BATT*%
X13050000Y4100000D03*
%TO.P,C10,2*%
%TO.N,GND*%
X14950000Y4100000D03*
%TD*%
D18*
%TO.P,C23,1*%
%TO.N,+5V*%
X8950000Y18500000D03*
%TO.P,C23,2*%
%TO.N,GND*%
X7050000Y18500000D03*
%TD*%
D56*
%TO.P,Q3,1,D_1*%
%TO.N,/Load Switches/CS3*%
X1925000Y15740000D03*
D57*
%TO.P,Q3,3,G_3*%
%TO.N,Net-(Q3-G)*%
X2900000Y16665000D03*
D58*
%TO.P,Q3,4,S_4*%
%TO.N,/IO/OUT2PWR*%
X2900000Y15700000D03*
D57*
X2900000Y14815000D03*
%TD*%
D59*
%TO.P,R43,1*%
%TO.N,/Load Switches/VIN3*%
X3225000Y13565000D03*
%TO.P,R43,2*%
%TO.N,/Load Switches/CS3*%
X1575000Y13565000D03*
%TD*%
%TO.P,R44,1*%
%TO.N,/Load Switches/VIN1*%
X15025000Y1600000D03*
%TO.P,R44,2*%
%TO.N,/Load Switches/CS1*%
X13375000Y1600000D03*
%TD*%
D48*
%TO.P,Q1,1,D_1*%
%TO.N,/IO/BATT_RAW*%
X4275000Y6500000D03*
D49*
%TO.P,Q1,3,G_3*%
%TO.N,Net-(D5-A)*%
X3300000Y5575000D03*
D50*
%TO.P,Q1,4,S_4*%
%TO.N,Net-(D5-K)*%
X3300000Y6540000D03*
D49*
X3300000Y7425000D03*
%TD*%
D17*
%TO.P,R55,1*%
%TO.N,GND*%
X6200000Y35810000D03*
%TO.P,R55,2*%
%TO.N,/MCU/LS_EN*%
X6200000Y34790000D03*
%TD*%
D20*
%TO.P,R37,1*%
%TO.N,/MCU/TXD0_MCU*%
X1990000Y32100000D03*
%TO.P,R37,2*%
%TO.N,/IO/TXD0_MCU*%
X3010000Y32100000D03*
%TD*%
D18*
%TO.P,C19,1*%
%TO.N,+BATT*%
X8150000Y7100000D03*
%TO.P,C19,2*%
%TO.N,GND*%
X6250000Y7100000D03*
%TD*%
D60*
%TO.P,U1,1,SLOW_1*%
%TO.N,GND*%
X8050000Y26075000D03*
%TO.P,U1,2,V_{DD}_2*%
%TO.N,+3V3*%
X8700000Y26075000D03*
%TO.P,U1,3,GND_3*%
%TO.N,GND*%
X9350000Y26075000D03*
%TO.P,U1,4,SCL_4*%
%TO.N,/Load Switches/SCL*%
X10000000Y26075000D03*
D61*
%TO.P,U1,5,SDA_5*%
%TO.N,/Load Switches/SDA*%
X10962500Y25112500D03*
%TO.P,U1,6,ADDRSEL_6*%
%TO.N,GND*%
X10962500Y24462500D03*
%TO.P,U1,7,SENSE3-_7*%
%TO.N,/Load Switches/CS1*%
X10962500Y23812500D03*
%TO.P,U1,8,SENSE3+_8*%
%TO.N,/Load Switches/VIN1*%
X10962500Y23162500D03*
D60*
%TO.P,U1,9,SENSE4-_9*%
%TO.N,unconnected-(U1-SENSE4--Pad9)*%
X10000000Y22200000D03*
%TO.P,U1,10,SENSE4+_10*%
%TO.N,unconnected-(U1-SENSE4+-Pad10)*%
X9350000Y22200000D03*
%TO.P,U1,11,SENSE1+_11*%
%TO.N,/Load Switches/VIN3*%
X8700000Y22200000D03*
%TO.P,U1,12,SENSE1-_12*%
%TO.N,/Load Switches/CS3*%
X8050000Y22200000D03*
D61*
%TO.P,U1,13,SENSE2+_13*%
%TO.N,/Load Switches/VIN2*%
X7087500Y23162500D03*
%TO.P,U1,14,SENSE2-_14*%
%TO.N,/Load Switches/CS2*%
X7087500Y23812500D03*
%TO.P,U1,15,V_{DD}IO_15*%
%TO.N,+3V3*%
X7087500Y24462500D03*
%TO.P,U1,16,~{PWRDN}_16*%
X7087500Y25112500D03*
D62*
%TO.P,U1,17,EP_17*%
%TO.N,GND*%
X9025000Y24137500D03*
%TD*%
D10*
%TO.P,R30,1*%
%TO.N,/IO/USB_D-*%
X18110000Y34700000D03*
%TO.P,R30,2*%
%TO.N,Net-(U7-GPIO18)*%
X17090000Y34700000D03*
%TD*%
%TO.P,R51,1*%
%TO.N,GND*%
X19110000Y5500000D03*
%TO.P,R51,2*%
%TO.N,Net-(U5-STB)*%
X18090000Y5500000D03*
%TD*%
%TO.P,R32,1*%
%TO.N,GND*%
X5410000Y10800000D03*
%TO.P,R32,2*%
%TO.N,/MCU/VSENSE*%
X4390000Y10800000D03*
%TD*%
D40*
%TO.P,C27,1*%
%TO.N,+3V3*%
X13300000Y29980000D03*
%TO.P,C27,2*%
%TO.N,GND*%
X13300000Y29020000D03*
%TD*%
%TO.P,C7,1*%
%TO.N,GND*%
X5900000Y25580000D03*
%TO.P,C7,2*%
%TO.N,+3V3*%
X5900000Y24620000D03*
%TD*%
D10*
%TO.P,R48,1*%
%TO.N,Net-(Q11-D)*%
X1910000Y27037500D03*
%TO.P,R48,2*%
%TO.N,/Load Switches/VIN2*%
X890000Y27037500D03*
%TD*%
D28*
%TO.P,R24,1*%
%TO.N,/IO/BUTTON*%
X13100000Y27090000D03*
%TO.P,R24,2*%
%TO.N,+3V3*%
X13100000Y28110000D03*
%TD*%
D40*
%TO.P,C30,1*%
%TO.N,+3V3*%
X15485000Y32745000D03*
%TO.P,C30,2*%
%TO.N,GND*%
X15485000Y31785000D03*
%TD*%
D17*
%TO.P,R7,1*%
%TO.N,+5V*%
X5800000Y19110000D03*
%TO.P,R7,2*%
%TO.N,Net-(U6-FB)*%
X5800000Y18090000D03*
%TD*%
D29*
%TO.P,C26,1*%
%TO.N,+3V3*%
X7600000Y35720000D03*
%TO.P,C26,2*%
%TO.N,GND*%
X7600000Y36680000D03*
%TD*%
D63*
%TO.P,Q11,1,G_1*%
%TO.N,/Load Switches/EN2*%
X1950000Y29475000D03*
%TO.P,Q11,2,S_2*%
%TO.N,GND*%
X3850000Y29475000D03*
%TO.P,Q11,3,D_3*%
%TO.N,Net-(Q11-D)*%
X2900000Y27600000D03*
%TD*%
D26*
%TO.P,C29,1*%
%TO.N,+3V3*%
X16845000Y20015000D03*
%TO.P,C29,2*%
%TO.N,GND*%
X15885000Y20015000D03*
%TD*%
D63*
%TO.P,Q4,1,G_1*%
%TO.N,/Load Switches/EN3*%
X2175000Y20137500D03*
%TO.P,Q4,2,S_2*%
%TO.N,GND*%
X4075000Y20137500D03*
%TO.P,Q4,3,D_3*%
%TO.N,Net-(Q3-G)*%
X3125000Y18262500D03*
%TD*%
D10*
%TO.P,R52,1*%
%TO.N,GND*%
X3260000Y21660000D03*
%TO.P,R52,2*%
%TO.N,/Load Switches/EN3*%
X2240000Y21660000D03*
%TD*%
D64*
%TO.P,L3,1,1_1*%
%TO.N,Net-(U6-L1)*%
X11400000Y13000000D03*
%TO.P,L3,2,2_2*%
%TO.N,Net-(U6-L2)*%
X11400000Y15800000D03*
%TD*%
D28*
%TO.P,R10,1*%
%TO.N,Net-(D5-A)*%
X5900000Y4590000D03*
%TO.P,R10,2*%
%TO.N,GND*%
X5900000Y5610000D03*
%TD*%
D10*
%TO.P,R31,1*%
%TO.N,/IO/USB_D+*%
X15710000Y34100000D03*
%TO.P,R31,2*%
%TO.N,Net-(U7-GPIO19)*%
X14690000Y34100000D03*
%TD*%
D28*
%TO.P,R6,1*%
%TO.N,+BATT*%
X9800000Y10590000D03*
%TO.P,R6,2*%
%TO.N,Net-(U6-PS{slash}SYNC)*%
X9800000Y11610000D03*
%TD*%
D55*
%TO.P,C11,1*%
%TO.N,+3V3*%
X11150000Y11100000D03*
%TO.P,C11,2*%
%TO.N,GND*%
X13050000Y11100000D03*
%TD*%
D10*
%TO.P,R36,1*%
%TO.N,/MCU/RXD1_MCU*%
X5000000Y34250000D03*
%TO.P,R36,2*%
%TO.N,/IO/RXD1_MCU*%
X3980000Y34250000D03*
%TD*%
D26*
%TO.P,C28,1*%
%TO.N,+3V3*%
X18030000Y11000000D03*
%TO.P,C28,2*%
%TO.N,GND*%
X17070000Y11000000D03*
%TD*%
D10*
%TO.P,R19,1*%
%TO.N,/MCU/LED_B*%
X9410000Y38400000D03*
%TO.P,R19,2*%
%TO.N,Net-(D1-BK)*%
X8390000Y38400000D03*
%TD*%
D27*
%TO.P,C8,1*%
%TO.N,+3V3*%
X8620000Y27200000D03*
%TO.P,C8,2*%
%TO.N,GND*%
X9580000Y27200000D03*
%TD*%
D10*
%TO.P,R22,1*%
%TO.N,/MCU/RST*%
X12710000Y38600000D03*
%TO.P,R22,2*%
%TO.N,+3V3*%
X11690000Y38600000D03*
%TD*%
D17*
%TO.P,R47,1*%
%TO.N,GND*%
X14070000Y23455000D03*
%TO.P,R47,2*%
%TO.N,Net-(J3-Shield)*%
X14070000Y22435000D03*
%TD*%
D28*
%TO.P,R17,1*%
%TO.N,/MCU/LED_G*%
X7100000Y38390000D03*
%TO.P,R17,2*%
%TO.N,Net-(D1-GK)*%
X7100000Y39410000D03*
%TD*%
D56*
%TO.P,Q12,1,D_1*%
%TO.N,/Load Switches/CS2*%
X1825000Y25177500D03*
D57*
%TO.P,Q12,3,G_3*%
%TO.N,Net-(Q11-D)*%
X2800000Y26102500D03*
D58*
%TO.P,Q12,4,S_4*%
%TO.N,/IO/OUT3PWR*%
X2800000Y25137500D03*
D57*
X2800000Y24252500D03*
%TD*%
D10*
%TO.P,R23,1*%
%TO.N,/MCU/LS_EN*%
X12710000Y36200000D03*
%TO.P,R23,2*%
%TO.N,+3V3*%
X11690000Y36200000D03*
%TD*%
D40*
%TO.P,C4,1*%
%TO.N,+3V3*%
X12100000Y28080000D03*
%TO.P,C4,2*%
%TO.N,GND*%
X12100000Y27120000D03*
%TD*%
D65*
%TO.P,U2,1,GND_1*%
%TO.N,GND*%
X13250000Y9100000D03*
D66*
%TO.P,U2,2,VOUT_2*%
%TO.N,+3V3*%
X13162500Y7600000D03*
D65*
%TO.P,U2,3,VIN_3*%
%TO.N,+BATT*%
X13250000Y6100000D03*
%TD*%
D19*
%TO.P,C25,1*%
%TO.N,+5V*%
X10700000Y20350000D03*
%TO.P,C25,2*%
%TO.N,GND*%
X10700000Y18450000D03*
%TD*%
D67*
%TO.P,Y1,1,Tri-State_1*%
%TO.N,+3V3*%
X14500000Y33050000D03*
%TO.P,Y1,2,GND_2*%
%TO.N,GND*%
X14500000Y31950000D03*
%TO.P,Y1,3,OUT_3*%
%TO.N,/MCU/XIN*%
X13700000Y31950000D03*
%TO.P,Y1,4,VDD_4*%
%TO.N,+3V3*%
X13700000Y33050000D03*
%TD*%
D28*
%TO.P,R39,1*%
%TO.N,/IO/CAN_L*%
X15300000Y5590000D03*
%TO.P,R39,2*%
%TO.N,/IO/CAN_H*%
X15300000Y6610000D03*
%TD*%
%TO.P,R8,1*%
%TO.N,Net-(U6-FB)*%
X6200000Y15890000D03*
%TO.P,R8,2*%
%TO.N,GND*%
X6200000Y16910000D03*
%TD*%
D59*
%TO.P,R49,1*%
%TO.N,/Load Switches/VIN2*%
X3025000Y23037500D03*
%TO.P,R49,2*%
%TO.N,/Load Switches/CS2*%
X1375000Y23037500D03*
%TD*%
D68*
%TO.P,U9,1,I/O1_1*%
%TO.N,/IO/USB_D+*%
X16825000Y32937500D03*
%TO.P,U9,2,GND_2*%
%TO.N,GND*%
X17775000Y32937500D03*
%TO.P,U9,3,I/O2_3*%
%TO.N,/IO/USB_D-*%
X18725000Y32937500D03*
%TO.P,U9,4,I/O2_4*%
X18725000Y30662500D03*
%TO.P,U9,5,VBUS_5*%
%TO.N,VBUS*%
X17775000Y30662500D03*
%TO.P,U9,6,I/O1_6*%
%TO.N,/IO/USB_D+*%
X16825000Y30662500D03*
%TD*%
D69*
%TO.N,/MCU/LS_EN*%
X13250000Y36400000D03*
%TO.N,GND*%
X8200000Y33500000D03*
X6449968Y17398508D03*
X17000000Y10400000D03*
X6150000Y14900000D03*
X11200000Y33500000D03*
X16015000Y20195464D03*
X19000000Y18700000D03*
X11450000Y37300000D03*
X7848186Y13913520D03*
X8100000Y36680000D03*
X5985000Y26400000D03*
X9940410Y23287468D03*
X8207107Y30392893D03*
X9380025Y26669975D03*
X7200000Y17500000D03*
X15050000Y31991278D03*
X3100000Y30400000D03*
X6100000Y36300000D03*
X10652447Y18237469D03*
X6700000Y10225000D03*
X6200000Y8000000D03*
X12454451Y28824056D03*
X5803574Y30222815D03*
X9911091Y24831191D03*
X11600000Y27120000D03*
X11200000Y30500000D03*
X17716868Y32249356D03*
X14809620Y23909620D03*
X13053650Y10002096D03*
X6600000Y20300000D03*
%TO.N,+3V3*%
X16915730Y19688116D03*
X11815776Y28420000D03*
X4490380Y27790380D03*
X12800000Y30237500D03*
X12124914Y8700000D03*
X15000000Y33050000D03*
X7506117Y35925356D03*
X18190118Y10405799D03*
X12784163Y20133719D03*
X6120705Y31611384D03*
X12608018Y37305000D03*
%TO.N,+BATT*%
X4090108Y11826267D03*
X7881158Y11092496D03*
%TO.N,/Load Switches/VIN1*%
X7157694Y6313812D03*
X10857069Y22367220D03*
X11936987Y5545844D03*
X14900000Y2200000D03*
%TO.N,/Load Switches/VIN2*%
X1350000Y30850000D03*
X3700000Y23758997D03*
X6010579Y22372253D03*
%TO.N,+5V*%
X6051612Y18830291D03*
X8750000Y18800000D03*
X3899999Y12551775D03*
X9500000Y9500000D03*
%TO.N,/Load Switches/VIN3*%
X1000000Y18350000D03*
X9996060Y21288604D03*
X3600000Y13533199D03*
%TO.N,/IO/TXD1_MCU*%
X5471814Y32788987D03*
%TO.N,/IO/RXD1_MCU*%
X3800000Y34900000D03*
%TO.N,/MCU/RST*%
X13400000Y38600000D03*
X7600000Y28610000D03*
%TO.N,Net-(R46-Pad1)*%
X14000000Y25150000D03*
%TO.N,/IO/BUTTON*%
X12844986Y27393588D03*
X17100000Y24200000D03*
X8912318Y28710698D03*
%TO.N,Net-(J8-Pin_2)*%
X5200000Y26800000D03*
X3800000Y26350000D03*
%TO.N,Net-(D1-RK)*%
X5300000Y37600000D03*
%TO.N,Net-(D1-GK)*%
X6300000Y39000000D03*
%TO.N,Net-(D1-BK)*%
X8200000Y39000000D03*
%TO.N,/IO/TXD0_MCU*%
X5248699Y29530686D03*
%TO.N,/IO/RXD0_MCU*%
X5047198Y30292633D03*
%TO.N,Net-(D3-K)*%
X12200000Y17500000D03*
%TO.N,Net-(D2-K)*%
X13600000Y17400000D03*
%TO.N,/Load Switches/CS1*%
X11491215Y23833764D03*
X13400000Y2400000D03*
%TO.N,Net-(Q5-D)*%
X9500000Y2900000D03*
X11200000Y3700000D03*
%TO.N,Net-(U5-STB)*%
X16200000Y6700000D03*
X17606708Y5347579D03*
%TO.N,/Load Switches/EN1*%
X8400000Y1050000D03*
X13500000Y12500000D03*
%TO.N,VBUS*%
X17750000Y31400000D03*
X3516890Y14484171D03*
X2150000Y7200000D03*
X15413601Y26939996D03*
%TO.N,/MCU/VSENSE*%
X10453851Y28587500D03*
X2150000Y28200000D03*
X3241722Y9941973D03*
%TO.N,/Load Switches/SDA*%
X6110000Y27733141D03*
X18115730Y19874823D03*
X11000025Y25085761D03*
%TO.N,/Load Switches/EN2*%
X3727645Y27550000D03*
X14800000Y15200000D03*
%TO.N,/MCU/CANRX*%
X15923513Y12930000D03*
X7533845Y29397202D03*
X13750000Y27600000D03*
X13617000Y19963760D03*
%TO.N,/MCU/LS_EN*%
X6200000Y34300000D03*
X19000000Y14900000D03*
%TO.N,/Load Switches/EN3*%
X14000000Y14900000D03*
X9850000Y17258578D03*
X4850000Y18920891D03*
%TO.N,/MCU/5V_EN*%
X13179948Y14676349D03*
X7547223Y10293687D03*
%TO.N,/MCU/LED_B*%
X15219827Y20499412D03*
X14500000Y38700000D03*
%TO.N,/Load Switches/SCL*%
X6181800Y28625309D03*
X17070974Y20809786D03*
X10758148Y25822615D03*
%TO.N,Net-(U6-PS{slash}SYNC)*%
X9200000Y11152817D03*
X6629999Y12816998D03*
%TO.N,/MCU/CANTX*%
X12900102Y21905687D03*
X18500000Y12400000D03*
X12787048Y25518285D03*
X9626904Y28390870D03*
%TO.N,/MCU/RXD0_MCU*%
X12909445Y32871315D03*
X1900000Y33900000D03*
%TO.N,/MCU/TXD0_MCU*%
X1600000Y32100000D03*
X12902284Y32101585D03*
%TO.N,/Load Switches/CS3*%
X1159314Y16090686D03*
X6582793Y21747321D03*
%TO.N,/Load Switches/CS2*%
X1181931Y20401170D03*
X5985000Y23600000D03*
%TD*%
%TO.N,+3V3*%
D70*
X10999999Y28987501D02*
X10450000Y29537500D01*
X11100000Y28987501D02*
X10999999Y28987501D01*
X11100000Y28987501D02*
X11100000Y28080000D01*
X10950000Y29137501D02*
X11100000Y28987501D01*
X10950000Y29537500D02*
X10950000Y29137501D01*
%TO.N,/MCU/LS_EN*%
X13050000Y36200000D02*
X13250000Y36400000D01*
X12710000Y36200000D02*
X13050000Y36200000D01*
%TO.N,/MCU/LED_G*%
X6770000Y34217500D02*
X6770000Y38060000D01*
X7250000Y33737500D02*
X6770000Y34217500D01*
X6770000Y38060000D02*
X7100000Y38390000D01*
%TO.N,GND*%
X3410000Y30300000D02*
X3200000Y30300000D01*
D71*
X13051554Y10000000D02*
X13053650Y10002096D01*
D70*
X19110000Y4610000D02*
X17500000Y3000000D01*
X8100000Y36680000D02*
X7600000Y36680000D01*
X5410000Y10800000D02*
X6225000Y10800000D01*
X5883845Y30303086D02*
X5803574Y30222815D01*
X14700000Y12680000D02*
X14700000Y11675000D01*
D71*
X6625000Y11200000D02*
X6625000Y11822049D01*
D70*
X7327951Y12792374D02*
X7327951Y12500000D01*
X4075000Y21300000D02*
X4600000Y21825000D01*
X6200000Y35810000D02*
X6200000Y36200000D01*
X11100000Y27120000D02*
X11600000Y27120000D01*
X17775000Y32937500D02*
X17775000Y32307488D01*
X3260000Y21660000D02*
X4435000Y21660000D01*
X6225000Y10800000D02*
X6250000Y10825000D01*
X14070000Y23455000D02*
X14355000Y23455000D01*
X18750000Y16900000D02*
X18750000Y18450000D01*
X5883845Y30423655D02*
X5883845Y30303086D01*
X14800000Y31950000D02*
X15320000Y31950000D01*
X18750000Y18450000D02*
X19000000Y18700000D01*
D71*
X6250000Y10825000D02*
X6625000Y11200000D01*
D70*
X7827951Y13292374D02*
X7327951Y12792374D01*
X6500000Y14650000D02*
X6050000Y14650000D01*
X14070000Y23455000D02*
X14070000Y23480000D01*
X14919240Y23800000D02*
X14809620Y23909620D01*
D71*
X5900000Y5610000D02*
X5900000Y6750000D01*
D70*
X13300000Y29020000D02*
X12650395Y29020000D01*
X8050000Y26075000D02*
X8050000Y25112500D01*
X14355000Y23455000D02*
X14809620Y23909620D01*
X17250000Y10820000D02*
X17070000Y11000000D01*
X14430000Y30900000D02*
X14430000Y31371278D01*
X5900000Y25580000D02*
X5900000Y26315000D01*
X6500000Y14812182D02*
X6412182Y14900000D01*
X11100000Y27120000D02*
X12100000Y27120000D01*
X9350000Y27070000D02*
X9580000Y27300000D01*
D71*
X5900000Y6750000D02*
X6250000Y7100000D01*
D70*
X16300000Y19910464D02*
X16015000Y20195464D01*
X5070000Y31237500D02*
X5883845Y30423655D01*
D71*
X13050000Y10000000D02*
X13051554Y10000000D01*
D70*
X15800000Y23800000D02*
X14919240Y23800000D01*
X6050000Y14650000D02*
X5800000Y14900000D01*
X9350000Y26075000D02*
X9350000Y24462500D01*
X17250000Y10400000D02*
X17250000Y10820000D01*
X7827951Y13900000D02*
X7827951Y15300000D01*
X17775000Y32307488D02*
X17716868Y32249356D01*
X6300000Y17010000D02*
X6990000Y17010000D01*
X19110000Y5500000D02*
X19110000Y4610000D01*
X4075000Y20282500D02*
X4075000Y21300000D01*
X8677951Y13900000D02*
X7827951Y13900000D01*
X6500000Y14650000D02*
X6500000Y14812182D01*
X16300000Y19600000D02*
X15885000Y20015000D01*
X8677951Y13900000D02*
X7861706Y13900000D01*
X4250000Y1250000D02*
X2750000Y2750000D01*
X3200000Y30300000D02*
X3100000Y30400000D01*
X7827951Y13900000D02*
X7827951Y13292374D01*
X5900000Y26315000D02*
X5985000Y26400000D01*
D71*
X6250000Y7100000D02*
X6250000Y10825000D01*
D70*
X14400000Y31950000D02*
X14800000Y31950000D01*
X6412182Y14900000D02*
X6150000Y14900000D01*
X8600000Y36680000D02*
X8100000Y36680000D01*
X5769842Y1250000D02*
X4250000Y1250000D01*
X7100000Y2580158D02*
X5769842Y1250000D01*
X3410000Y30300000D02*
X3410000Y29915000D01*
X7861706Y13900000D02*
X7848186Y13913520D01*
X14950000Y4100000D02*
X16050000Y3000000D01*
X13190000Y24360000D02*
X13190000Y24700000D01*
X14070000Y23480000D02*
X13190000Y24360000D01*
X17250000Y10400000D02*
X17000000Y10400000D01*
X17250000Y9600000D02*
X17250000Y10400000D01*
X12650395Y29020000D02*
X12454451Y28824056D01*
D71*
X13050000Y11100000D02*
X13050000Y10000000D01*
D70*
X10700000Y18450000D02*
X11260000Y19010000D01*
X12469372Y28838977D02*
X12454451Y28824056D01*
X11260000Y19010000D02*
X13300000Y19010000D01*
X14430000Y31371278D02*
X15050000Y31991278D01*
X6990000Y17010000D02*
X7300000Y16700000D01*
X3410000Y29915000D02*
X3850000Y29475000D01*
X6927951Y14650000D02*
X6500000Y14650000D01*
X14200000Y35500000D02*
X15000000Y35500000D01*
X16300000Y18850000D02*
X16300000Y19910464D01*
X7100000Y2950000D02*
X7100000Y2580158D01*
D71*
X13050000Y10000000D02*
X13050000Y9300000D01*
D70*
X15000000Y35500000D02*
X17000000Y37500000D01*
X10962500Y24462500D02*
X9350000Y24462500D01*
X3410000Y31037500D02*
X3410000Y30300000D01*
X5775000Y14900000D02*
X4700000Y13825000D01*
X12577617Y28838977D02*
X12469372Y28838977D01*
X6200000Y36200000D02*
X6100000Y36300000D01*
X9350000Y26075000D02*
X9350000Y27070000D01*
D71*
X6625000Y11822049D02*
X7302951Y12500000D01*
%TO.N,+3V3*%
D70*
X5290000Y28100000D02*
X5290000Y27600000D01*
X11690000Y36386982D02*
X12608018Y37305000D01*
X12150000Y30737500D02*
X12900000Y30737500D01*
D71*
X11150000Y9612500D02*
X11150000Y11100000D01*
D70*
X12900000Y30737500D02*
X13370000Y30737500D01*
X13600000Y33050000D02*
X15000000Y33050000D01*
X12970000Y30237500D02*
X13370000Y29837500D01*
X12900000Y30337500D02*
X12800000Y30237500D01*
X12703018Y37400000D02*
X12608018Y37305000D01*
X12150000Y30237500D02*
X12800000Y30237500D01*
X7087500Y25112500D02*
X7087500Y25900000D01*
X11690000Y38600000D02*
X11690000Y38223018D01*
X11600000Y28110000D02*
X11130000Y28110000D01*
X7950000Y34437500D02*
X7950000Y35370000D01*
X11815776Y28309685D02*
X11815776Y28420000D01*
X17000000Y19600000D02*
X17000000Y19603846D01*
X17900000Y9600000D02*
X17900000Y10870000D01*
X4800000Y28100000D02*
X4490380Y27790380D01*
D71*
X13162500Y7600000D02*
X11150000Y9612500D01*
D70*
X14200000Y37400000D02*
X12703018Y37400000D01*
X7087500Y25900000D02*
X7087500Y25986698D01*
X17000000Y19603846D02*
X16915730Y19688116D01*
X5290000Y28100000D02*
X4800000Y28100000D01*
X15000000Y33050000D02*
X15180000Y33050000D01*
X8300802Y27200000D02*
X8620000Y27200000D01*
X16800000Y18850000D02*
X16800000Y19572386D01*
X7581473Y35850000D02*
X7506117Y35925356D01*
X7087500Y25112500D02*
X6392500Y25112500D01*
X17000000Y19860000D02*
X17000000Y19600000D01*
X7950000Y35370000D02*
X7600000Y35720000D01*
X11616091Y28110000D02*
X11815776Y28309685D01*
X12900000Y30737500D02*
X12900000Y30337500D01*
X7087500Y25900000D02*
X7087500Y26075318D01*
X5290000Y28600000D02*
X5290000Y28100000D01*
X15180000Y33050000D02*
X15485000Y32745000D01*
X6392500Y25112500D02*
X5900000Y24620000D01*
X7087500Y25986698D02*
X8300802Y27200000D01*
X8600000Y35720000D02*
X7802152Y35720000D01*
X11600000Y28110000D02*
X11616091Y28110000D01*
X6132818Y27030000D02*
X5860000Y27030000D01*
X16800000Y19572386D02*
X16915730Y19688116D01*
X11690000Y38223018D02*
X12608018Y37305000D01*
X8700000Y26075000D02*
X8700000Y27220000D01*
X7087500Y24462500D02*
X6057500Y24462500D01*
X6030000Y31237500D02*
X7250000Y31237500D01*
X12800000Y30237500D02*
X12970000Y30237500D01*
X13100000Y28110000D02*
X11600000Y28110000D01*
X5860000Y27030000D02*
X5290000Y27600000D01*
X8450000Y34437500D02*
X8450000Y35570000D01*
X7087500Y26075318D02*
X6132818Y27030000D01*
%TO.N,+BATT*%
D71*
X4390000Y11746117D02*
X3628427Y11746117D01*
X750000Y9350000D02*
X1600000Y8500000D01*
X750000Y10315000D02*
X750000Y9350000D01*
X3708577Y11826267D02*
X4090108Y11826267D01*
X13250000Y6100000D02*
X13250000Y4300000D01*
X1300000Y11997758D02*
X1300000Y11750000D01*
X1300000Y11750000D02*
X1300000Y10865000D01*
X1632242Y12330000D02*
X1300000Y11997758D01*
X8932252Y6317748D02*
X8150000Y7100000D01*
X3628427Y11746117D02*
X3044544Y12330000D01*
X13250000Y6100000D02*
X13032252Y6317748D01*
X3044544Y12330000D02*
X1632242Y12330000D01*
X13032252Y6317748D02*
X8932252Y6317748D01*
D70*
X8069341Y10590000D02*
X8009341Y10650000D01*
D71*
X1300000Y10865000D02*
X750000Y10315000D01*
X3628427Y11746117D02*
X3708577Y11826267D01*
D70*
X9800000Y10590000D02*
X8069341Y10590000D01*
%TO.N,/Load Switches/VIN1*%
X10962500Y22472651D02*
X10857069Y22367220D01*
X10962500Y23162500D02*
X10962500Y22472651D01*
X11800000Y5408857D02*
X11936987Y5545844D01*
X11800000Y4610000D02*
X11800000Y5408857D01*
%TO.N,/Load Switches/VIN2*%
X7087500Y23162500D02*
X6297253Y22372253D01*
X6297253Y22372253D02*
X6010579Y22372253D01*
D71*
X3025000Y23037500D02*
X3025000Y23512500D01*
X3025000Y23512500D02*
X3271497Y23758997D01*
D70*
X890000Y30390000D02*
X1350000Y30850000D01*
D71*
X3271497Y23758997D02*
X3700000Y23758997D01*
D70*
X890000Y27037500D02*
X890000Y30390000D01*
%TO.N,/IO/CAN_L*%
X17900000Y6275001D02*
X17622578Y5997579D01*
X14730000Y6060000D02*
X15300000Y5490000D01*
X15650000Y8475000D02*
X15650000Y7483062D01*
X17900000Y6700000D02*
X17900000Y6275001D01*
X15650000Y7483062D02*
X15391938Y7225000D01*
X15391938Y7225000D02*
X15046786Y7225000D01*
X16539890Y5200000D02*
X15790000Y5200000D01*
X17337469Y5997579D02*
X16539890Y5200000D01*
X17622578Y5997579D02*
X17337469Y5997579D01*
X15000000Y9125000D02*
X15650000Y8475000D01*
X14730000Y6908214D02*
X14730000Y6060000D01*
X15046786Y7225000D02*
X14730000Y6908214D01*
X15790000Y5200000D02*
X15300000Y5690000D01*
%TO.N,/IO/CAN_H*%
X16000000Y7310000D02*
X16000000Y9125000D01*
X16844916Y6000000D02*
X16010000Y6000000D01*
X17250000Y6405084D02*
X16844916Y6000000D01*
X16000000Y9125000D02*
X14750000Y10375000D01*
X16010000Y6000000D02*
X15300000Y6710000D01*
X15300000Y6610000D02*
X16000000Y7310000D01*
%TO.N,+5V*%
X4171290Y12800000D02*
X4890000Y12800000D01*
X3899999Y12551775D02*
X3923065Y12551775D01*
X5800000Y19081903D02*
X6051612Y18830291D01*
X3923065Y12551775D02*
X4171290Y12800000D01*
%TO.N,/Load Switches/VIN3*%
X990000Y17700000D02*
X990000Y18340000D01*
D71*
X3256801Y13533199D02*
X3600000Y13533199D01*
D70*
X9138302Y21537500D02*
X8700000Y21975802D01*
X990000Y18340000D02*
X1000000Y18350000D01*
X9747165Y21537500D02*
X9138302Y21537500D01*
X9996060Y21288604D02*
X9747165Y21537500D01*
%TO.N,/IO/OUT1PWR*%
D71*
X10215000Y3650000D02*
X7375000Y3650000D01*
X11365000Y2500000D02*
X10215000Y3650000D01*
X12250000Y2500000D02*
X11365000Y2500000D01*
X6975000Y4050000D02*
X6975000Y4700000D01*
X7375000Y3650000D02*
X6975000Y4050000D01*
%TO.N,/IO/TXD1_MCU*%
D70*
X5000000Y33000000D02*
X5211013Y32788987D01*
X5211013Y32788987D02*
X5471814Y32788987D01*
%TO.N,/IO/RXD1_MCU*%
X3980000Y34250000D02*
X3980000Y34720000D01*
X3980000Y34720000D02*
X3800000Y34900000D01*
%TO.N,/MCU/RST*%
X8450000Y29037417D02*
X8022583Y28610000D01*
X8022583Y28610000D02*
X7600000Y28610000D01*
X12710000Y38600000D02*
X13400000Y38600000D01*
X8450000Y29537500D02*
X8450000Y29037417D01*
%TO.N,Net-(R46-Pad1)*%
X14155000Y24555000D02*
X14155000Y24995000D01*
X14155000Y24995000D02*
X14000000Y25150000D01*
%TO.N,/IO/BUTTON*%
X8950000Y28748380D02*
X8912318Y28710698D01*
X8950000Y29537500D02*
X8950000Y28748380D01*
X13100000Y27138574D02*
X12844986Y27393588D01*
%TO.N,Net-(J8-Pin_2)*%
X3800000Y26371989D02*
X4228011Y26800000D01*
X3800000Y26350000D02*
X3800000Y26371989D01*
X4228011Y26800000D02*
X5200000Y26800000D01*
%TO.N,/IO/OUT3PWR*%
D71*
X4162500Y25137500D02*
X4600000Y25575000D01*
X2800000Y24252500D02*
X2800000Y25137500D01*
X2800000Y25137500D02*
X4162500Y25137500D01*
%TO.N,Net-(D1-RK)*%
D70*
X5200000Y37010000D02*
X5200000Y37500000D01*
X5200000Y37500000D02*
X5300000Y37600000D01*
%TO.N,Net-(D1-GK)*%
X7100000Y39410000D02*
X6710000Y39410000D01*
X6710000Y39410000D02*
X6300000Y39000000D01*
%TO.N,Net-(D1-BK)*%
X8200000Y38590000D02*
X8390000Y38400000D01*
X8200000Y39000000D02*
X8200000Y38590000D01*
%TO.N,/IO/BATT_RAW*%
D71*
X4275000Y6400000D02*
X4275000Y7225000D01*
X3650000Y8706371D02*
X4568629Y9625000D01*
X3650000Y8043629D02*
X3650000Y8706371D01*
X4275000Y7418629D02*
X3650000Y8043629D01*
X4275000Y6500000D02*
X4275000Y7418629D01*
%TO.N,/IO/OUT2PWR*%
X3450000Y16750000D02*
X4275000Y17575000D01*
X3450000Y16250000D02*
X3450000Y16750000D01*
X4275000Y17575000D02*
X4700000Y17575000D01*
X2900000Y15700000D02*
X3450000Y16250000D01*
X2900000Y14815000D02*
X2900000Y15700000D01*
%TO.N,/IO/TXD0_MCU*%
D70*
X3279999Y32100000D02*
X4100000Y31279999D01*
X3010000Y32100000D02*
X3279999Y32100000D01*
X4100000Y31279999D02*
X4100000Y30532342D01*
X4100000Y30532342D02*
X4400000Y30232342D01*
X4400000Y29882526D02*
X4751840Y29530686D01*
X4751840Y29530686D02*
X5248699Y29530686D01*
X4400000Y30232342D02*
X4400000Y29882526D01*
%TO.N,/IO/RXD0_MCU*%
X4540000Y30799831D02*
X5047198Y30292633D01*
X4540000Y31571786D02*
X4540000Y30799831D01*
X3010000Y33101786D02*
X4540000Y31571786D01*
%TO.N,Net-(D2-K)*%
X13300000Y17990000D02*
X13300000Y17700000D01*
X13300000Y17700000D02*
X13600000Y17400000D01*
%TO.N,Net-(Q3-G)*%
X2010000Y17700000D02*
X2900000Y16810000D01*
X2417500Y17700000D02*
X3125000Y18407500D01*
X2900000Y16810000D02*
X2900000Y16665000D01*
X2010000Y17700000D02*
X2417500Y17700000D01*
%TO.N,/MCU/TXD1_MCU*%
X5610908Y32020826D02*
X5851466Y32261384D01*
X6850001Y31737500D02*
X7250000Y31737500D01*
X5851466Y32261384D02*
X6326117Y32261384D01*
X6326117Y32261384D02*
X6850001Y31737500D01*
X4959174Y32020826D02*
X5610908Y32020826D01*
X3980000Y33000000D02*
X4959174Y32020826D01*
%TO.N,/Load Switches/CS1*%
D71*
X13375000Y2375000D02*
X13400000Y2400000D01*
X13375000Y1600000D02*
X13375000Y2375000D01*
D70*
X10962500Y23812500D02*
X11469951Y23812500D01*
X11469951Y23812500D02*
X11491215Y23833764D01*
D71*
X13375000Y1600000D02*
X11400000Y1600000D01*
%TO.N,Net-(Q5-D)*%
D70*
X9600000Y2500000D02*
X10400000Y2500000D01*
X8975000Y2000000D02*
X9475000Y2500000D01*
X11310000Y3590000D02*
X11200000Y3700000D01*
X9475000Y2500000D02*
X9600000Y2500000D01*
X9600000Y2800000D02*
X9500000Y2900000D01*
X11800000Y3590000D02*
X11310000Y3590000D01*
X9600000Y2500000D02*
X9600000Y2800000D01*
%TO.N,/IO/CANRX*%
X16641786Y12870000D02*
X17330000Y12870000D01*
X16400000Y9800000D02*
X16400000Y12628214D01*
X16600000Y9600000D02*
X16400000Y9800000D01*
X17330000Y12870000D02*
X17960000Y13500000D01*
X16400000Y12628214D02*
X16641786Y12870000D01*
%TO.N,/IO/CANTX*%
X17680000Y11560000D02*
X18335424Y11560000D01*
X18335424Y11560000D02*
X18740118Y11155306D01*
X16940000Y12300000D02*
X17680000Y11560000D01*
X18740118Y11155306D02*
X18740118Y9790118D01*
X18740118Y9790118D02*
X18550000Y9600000D01*
%TO.N,Net-(U5-STB)*%
X16600000Y6700000D02*
X16200000Y6700000D01*
X17759129Y5500000D02*
X17606708Y5347579D01*
X18090000Y5500000D02*
X17759129Y5500000D01*
%TO.N,/Load Switches/EN1*%
X15449999Y13700000D02*
X14700000Y13700000D01*
X8400000Y1050000D02*
X7100000Y1050000D01*
X16300000Y14550001D02*
X15449999Y13700000D01*
X14700000Y13700000D02*
X13500000Y12500000D01*
X16300000Y14950000D02*
X16300000Y14550001D01*
%TO.N,VBUS*%
X15413601Y26939996D02*
X15413601Y26711399D01*
X15800000Y26400000D02*
X15800000Y26500000D01*
X17775000Y31375000D02*
X17750000Y31400000D01*
X17775000Y30662500D02*
X17775000Y31375000D01*
X2150000Y7200000D02*
X2400000Y7200000D01*
X2400000Y6500000D02*
X2400000Y7200000D01*
X15413601Y26711399D02*
X15825000Y26300000D01*
X1300000Y9725001D02*
X1300000Y9900000D01*
X2400000Y7200000D02*
X2400000Y9014034D01*
X1944034Y9470000D02*
X1555001Y9470000D01*
X1555001Y9470000D02*
X1300000Y9725001D01*
X1600000Y5700000D02*
X2400000Y6500000D01*
X2400000Y9014034D02*
X1944034Y9470000D01*
%TO.N,Net-(J3-Shield)*%
D71*
X17965000Y28710000D02*
X18375000Y28300000D01*
X16025000Y28300000D02*
X16435000Y28710000D01*
D70*
X14070000Y22435000D02*
X15490000Y22435000D01*
D71*
X18475000Y26300000D02*
X18475000Y28400000D01*
X16435000Y28710000D02*
X17965000Y28710000D01*
X18475000Y23900000D02*
X18475000Y21800000D01*
X18475000Y23900000D02*
X18475000Y26300000D01*
X18475000Y21800000D02*
X16125000Y21800000D01*
%TO.N,Net-(D5-K)*%
D70*
X2850000Y4950000D02*
X2700000Y5100000D01*
X3807000Y4793000D02*
X3551399Y4793000D01*
D71*
X2950000Y9171140D02*
X2275000Y9846140D01*
D70*
X3394400Y4950000D02*
X2850000Y4950000D01*
X2700000Y5100000D02*
X2700000Y5840000D01*
X5400000Y3200000D02*
X3807000Y4793000D01*
X3551399Y4793000D02*
X3394400Y4950000D01*
D71*
X2950000Y7630761D02*
X3300000Y7280761D01*
X3300000Y7280761D02*
X3300000Y6440000D01*
X2275000Y9846140D02*
X2275000Y10825000D01*
X2950000Y7630761D02*
X2950000Y9171140D01*
D70*
X2700000Y5840000D02*
X3300000Y6440000D01*
%TO.N,Net-(D5-A)*%
X6000000Y2400000D02*
X6000000Y4490000D01*
X5400000Y1800000D02*
X6000000Y2400000D01*
X3300000Y5539374D02*
X3696374Y5143000D01*
X3696374Y5143000D02*
X4057000Y5143000D01*
X4057000Y5143000D02*
X4610000Y4590000D01*
X4610000Y4590000D02*
X5900000Y4590000D01*
%TO.N,/MCU/VSENSE*%
X9950000Y29537500D02*
X9950000Y29091351D01*
X4390000Y10800000D02*
X4099749Y10800000D01*
X4099749Y10800000D02*
X3241722Y9941973D01*
X9950000Y29091351D02*
X10453851Y28587500D01*
X5390000Y11800000D02*
X4390000Y10800000D01*
%TO.N,/Load Switches/SDA*%
X7000000Y28718652D02*
X7000000Y27600000D01*
X7250000Y30237500D02*
X7250000Y30094485D01*
X18115730Y19165730D02*
X18115730Y19874823D01*
X7250000Y30094485D02*
X6823376Y29667861D01*
X6823376Y29667861D02*
X6823376Y28895276D01*
X6243141Y27600000D02*
X6110000Y27733141D01*
X7000000Y27600000D02*
X6243141Y27600000D01*
X7000000Y27600000D02*
X6890320Y27709680D01*
X17800000Y18850000D02*
X18115730Y19165730D01*
X6133461Y27709680D02*
X6110000Y27733141D01*
X6890320Y27709680D02*
X6133461Y27709680D01*
X6823376Y28895276D02*
X7000000Y28718652D01*
%TO.N,/Load Switches/EN2*%
X1950000Y29475000D02*
X1950000Y30597500D01*
X3727645Y28290013D02*
X3727645Y27550000D01*
X1950000Y30597500D02*
X2390000Y31037500D01*
X1950000Y29475000D02*
X2542658Y29475000D01*
X15550000Y15200000D02*
X14800000Y15200000D01*
X15800000Y14950000D02*
X15550000Y15200000D01*
X2542658Y29475000D02*
X3727645Y28290013D01*
%TO.N,/MCU/CANRX*%
X12100000Y25661629D02*
X12719185Y26280815D01*
X7809702Y29397202D02*
X7533845Y29397202D01*
X13750000Y26850000D02*
X13750000Y27600000D01*
X13617000Y20783000D02*
X13144313Y21255687D01*
X12719185Y26280815D02*
X13180815Y26280815D01*
X13180815Y26280815D02*
X13750000Y26850000D01*
X12100000Y21786550D02*
X12100000Y25661629D01*
X13617000Y19963760D02*
X13617000Y20783000D01*
X13144313Y21255687D02*
X12630863Y21255687D01*
X16940000Y13500000D02*
X16493513Y13500000D01*
X16493513Y13500000D02*
X15923513Y12930000D01*
X12630863Y21255687D02*
X12100000Y21786550D01*
X7950000Y29537500D02*
X7809702Y29397202D01*
%TO.N,/MCU/LS_EN*%
X7250000Y33237500D02*
X6906326Y33237500D01*
X6200000Y34400000D02*
X6200000Y34790000D01*
X19200000Y16400000D02*
X19400000Y16200000D01*
X19400000Y15300000D02*
X19000000Y14900000D01*
X6906326Y33237500D02*
X6200000Y33943826D01*
X18750000Y16400000D02*
X19200000Y16400000D01*
X19400000Y16200000D02*
X19400000Y15300000D01*
X6200000Y34400000D02*
X6200000Y34300000D01*
X6200000Y33943826D02*
X6200000Y34400000D01*
%TO.N,/Load Switches/EN3*%
X4007564Y18892436D02*
X4821545Y18892436D01*
X14850000Y15900000D02*
X14450001Y15900000D01*
X2240000Y21660000D02*
X2050000Y21470000D01*
X2050000Y21470000D02*
X2050000Y20075000D01*
X14450001Y15900000D02*
X14000000Y15449999D01*
X2825000Y20075000D02*
X4007564Y18892436D01*
X2050000Y20075000D02*
X2825000Y20075000D01*
X4821545Y18892436D02*
X4850000Y18920891D01*
X14000000Y15449999D02*
X14000000Y14900000D01*
%TO.N,/MCU/5V_EN*%
X13450000Y14946401D02*
X13179948Y14676349D01*
X7827951Y12500000D02*
X7827951Y12200000D01*
X7827951Y12200000D02*
X7325000Y11697049D01*
X14038888Y16400000D02*
X13450000Y15811112D01*
X13450000Y15811112D02*
X13450000Y14946401D01*
X7325000Y11697049D02*
X7325000Y10515910D01*
X7325000Y10515910D02*
X7547223Y10293687D01*
X15050000Y16400000D02*
X14038888Y16400000D01*
%TO.N,/MCU/LED_B*%
X15219827Y19430173D02*
X15219827Y20499412D01*
X9410000Y38400000D02*
X10210000Y39200000D01*
X15800000Y18850000D02*
X15219827Y19430173D01*
X10210000Y39200000D02*
X14000000Y39200000D01*
X14000000Y39200000D02*
X14500000Y38700000D01*
%TO.N,/Load Switches/SCL*%
X7250000Y30737500D02*
X6850001Y30737500D01*
X17300000Y19294568D02*
X17465730Y19460298D01*
X17465730Y19460298D02*
X17465730Y20415030D01*
X10252385Y25822615D02*
X10758148Y25822615D01*
X10000000Y26075000D02*
X10252385Y25822615D01*
X6310000Y29649460D02*
X6310000Y28600000D01*
X6533845Y29873305D02*
X6310000Y29649460D01*
X17465730Y20415030D02*
X17070974Y20809786D01*
X17300000Y18850000D02*
X17300000Y19294568D01*
X6850001Y30737500D02*
X6533845Y30421344D01*
X6533845Y30421344D02*
X6533845Y29873305D01*
%TO.N,/MCU/LED_R*%
X6850001Y32737500D02*
X5520000Y34067501D01*
X5520000Y35670000D02*
X5200000Y35990000D01*
X5520000Y34067501D02*
X5520000Y35670000D01*
X7250000Y32737500D02*
X6850001Y32737500D01*
%TO.N,Net-(U6-PG)*%
X6460000Y13650000D02*
X6927951Y13650000D01*
X5910000Y12910000D02*
X6300000Y13300000D01*
X6460000Y13634576D02*
X6460000Y13650000D01*
X6300000Y13474576D02*
X6460000Y13634576D01*
X6300000Y13300000D02*
X6300000Y13474576D01*
%TO.N,Net-(U6-PS{slash}SYNC)*%
X6927951Y13114950D02*
X6629999Y12816998D01*
X6927951Y13150000D02*
X6927951Y13114950D01*
X9342817Y11152817D02*
X9200000Y11152817D01*
X9800000Y11610000D02*
X9342817Y11152817D01*
%TO.N,Net-(U6-VAUX)*%
X6010000Y14150000D02*
X6927951Y14150000D01*
X5800000Y13940000D02*
X6010000Y14150000D01*
%TO.N,Net-(U6-FB)*%
X5550000Y16644239D02*
X5550000Y17154975D01*
X6200000Y15890000D02*
X5695000Y16395000D01*
X6790000Y15300000D02*
X6200000Y15890000D01*
X5550000Y17154975D02*
X5800000Y17404975D01*
X5695000Y16499239D02*
X5550000Y16644239D01*
X5695000Y16395000D02*
X5695000Y16499239D01*
X7327951Y15300000D02*
X6790000Y15300000D01*
X5800000Y17404975D02*
X5800000Y18090000D01*
%TO.N,/MCU/CANTX*%
X9450000Y29537500D02*
X9450000Y29137501D01*
X12500000Y22305789D02*
X12500000Y24878214D01*
X9450000Y29137501D02*
X9563301Y29024200D01*
X12500000Y24878214D02*
X12852729Y25230943D01*
X12900102Y21905687D02*
X12500000Y22305789D01*
X12852729Y25230943D02*
X12852729Y25452604D01*
X17960000Y12300000D02*
X18400000Y12300000D01*
X9563301Y28454473D02*
X9626904Y28390870D01*
X9563301Y29024200D02*
X9563301Y28454473D01*
X12852729Y25452604D02*
X12787048Y25518285D01*
X18400000Y12300000D02*
X18500000Y12400000D01*
%TO.N,/MCU/RXD1_MCU*%
X6850001Y32237500D02*
X5000000Y34087501D01*
X7250000Y32237500D02*
X6850001Y32237500D01*
%TO.N,Net-(U7-GPIO18)*%
X12150000Y33737500D02*
X13112500Y34700000D01*
X13112500Y34700000D02*
X17090000Y34700000D01*
%TO.N,Net-(U7-GPIO19)*%
X12493674Y33237500D02*
X12150000Y33237500D01*
X13256174Y34000000D02*
X12493674Y33237500D01*
X14690000Y34000000D02*
X13256174Y34000000D01*
%TO.N,/MCU/RXD0_MCU*%
X1990000Y33185000D02*
X1990000Y33810000D01*
X1990000Y33810000D02*
X1900000Y33900000D01*
X12150000Y32737500D02*
X12775630Y32737500D01*
X12775630Y32737500D02*
X12909445Y32871315D01*
X12900001Y32861871D02*
X12909445Y32871315D01*
X12900001Y32813236D02*
X12900001Y32861871D01*
%TO.N,/MCU/TXD0_MCU*%
X12150000Y32237500D02*
X12766369Y32237500D01*
X12766369Y32237500D02*
X12902284Y32101585D01*
%TO.N,/MCU/XIN*%
X12887500Y31237500D02*
X12150000Y31237500D01*
X13600000Y31950000D02*
X12887500Y31237500D01*
%TO.N,/Load Switches/CS3*%
D71*
X1575000Y13565000D02*
X1575000Y15390000D01*
D70*
X8050000Y22200000D02*
X7597321Y21747321D01*
X7597321Y21747321D02*
X6582793Y21747321D01*
D71*
X1575000Y15390000D02*
X1925000Y15740000D01*
D70*
X1925000Y15740000D02*
X1510000Y15740000D01*
X1510000Y15740000D02*
X1159314Y16090686D01*
%TO.N,/Load Switches/CS2*%
X6197500Y23812500D02*
X5985000Y23600000D01*
X1375000Y20594239D02*
X1181931Y20401170D01*
D71*
X1375000Y24727500D02*
X1825000Y25177500D01*
X1375000Y23037500D02*
X1375000Y24727500D01*
D70*
X1375000Y23037500D02*
X1375000Y20594239D01*
X7087500Y23812500D02*
X6197500Y23812500D01*
%TO.N,/IO/USB_D-*%
X18725000Y29875000D02*
X18725000Y30662500D01*
X15800000Y25750000D02*
X15125001Y25750000D01*
X15390992Y29750000D02*
X18600000Y29750000D01*
X18725000Y34085000D02*
X18110000Y34700000D01*
X14750000Y29109008D02*
X15390992Y29750000D01*
X18725000Y32937500D02*
X18725000Y34085000D01*
X14750000Y26125001D02*
X14750000Y29109008D01*
X18725000Y30662500D02*
X18725000Y32937500D01*
X18600000Y29750000D02*
X18725000Y29875000D01*
X15125001Y25750000D02*
X14750000Y26125001D01*
%TO.N,Net-(Q11-D)*%
X2800000Y26102500D02*
X2800000Y27500000D01*
X2337500Y27037500D02*
X2900000Y27600000D01*
X1910000Y27037500D02*
X2337500Y27037500D01*
%TO.N,/IO/USB_D+*%
X16825000Y30662500D02*
X16825000Y32937500D01*
X14400000Y29289950D02*
X15772550Y30662500D01*
X16772500Y32937500D02*
X15710000Y34000000D01*
X15772550Y30662500D02*
X16825000Y30662500D01*
X15125001Y25100000D02*
X14400000Y25825001D01*
X14400000Y25825001D02*
X14400000Y29289950D01*
X15800000Y25100000D02*
X15125001Y25100000D01*
%TD*%
%TA.AperFunction,Conductor*%
%TO.N,Net-(U6-L1)*%
G36*
X12655301Y13654733D02*
G01*
X12670299Y13650329D01*
X12685289Y13640699D01*
X12702370Y13635689D01*
X12729050Y13612584D01*
X12730237Y13611215D01*
X12757713Y13556354D01*
X12759358Y13548796D01*
X12762195Y13522425D01*
X12762195Y12503406D01*
X12757170Y12468462D01*
X12752765Y12453464D01*
X12743142Y12438482D01*
X12738150Y12421437D01*
X12715055Y12394749D01*
X12714050Y12393877D01*
X12658264Y12366182D01*
X12649886Y12364423D01*
X12622601Y12361790D01*
X10109941Y12398399D01*
X10075085Y12403930D01*
X10060151Y12408552D01*
X10045291Y12418411D01*
X10028256Y12423684D01*
X10001936Y12447173D01*
X10001929Y12447177D01*
X10001923Y12447184D01*
X9995655Y12454635D01*
X9971316Y12500394D01*
X9828572Y13000000D01*
X8941407Y13000000D01*
X8938893Y13000500D01*
X8717009Y13000500D01*
X8714495Y13000000D01*
X8453108Y13000000D01*
X8447031Y13000149D01*
X8444324Y13000282D01*
X8439883Y13000500D01*
X8439878Y13000500D01*
X8304026Y13000500D01*
X8304021Y13000501D01*
X8304019Y13000500D01*
X8269085Y13005525D01*
X8254086Y13009930D01*
X8195340Y13047673D01*
X8195311Y13047707D01*
X8195310Y13047707D01*
X8195309Y13047709D01*
X8194153Y13049042D01*
X8166673Y13103917D01*
X8165028Y13111479D01*
X8162196Y13137832D01*
X8162196Y13432671D01*
X8167219Y13467607D01*
X8171623Y13482605D01*
X8209368Y13541356D01*
X8209396Y13541381D01*
X8209395Y13541381D01*
X8210737Y13542544D01*
X8265616Y13570023D01*
X8273175Y13571667D01*
X8299528Y13574500D01*
X9513894Y13574500D01*
X9513895Y13574500D01*
X9548603Y13581405D01*
X9583314Y13588309D01*
X9583317Y13588312D01*
X9587154Y13589901D01*
X9602419Y13593254D01*
X9603259Y13593196D01*
X9604836Y13593760D01*
X9624225Y13597617D01*
X9648418Y13600000D01*
X9923529Y13600000D01*
X9928600Y13602760D01*
X9939062Y13614758D01*
X9954590Y13628129D01*
X10009333Y13655369D01*
X10016728Y13656966D01*
X10042887Y13659756D01*
X12620365Y13659756D01*
X12655301Y13654733D01*
G37*
%TD.AperFunction*%
%TD*%
%TA.AperFunction,Conductor*%
%TO.N,GND*%
G36*
X7893106Y21294977D02*
G01*
X7908104Y21290573D01*
X7923094Y21280943D01*
X7940175Y21275933D01*
X7966855Y21252828D01*
X7968042Y21251459D01*
X7995518Y21196598D01*
X7997163Y21189040D01*
X8000000Y21162669D01*
X8000000Y21135499D01*
X7998730Y21117794D01*
X7994371Y21087579D01*
X7992264Y21058329D01*
X7989549Y15149777D01*
X7989550Y15149757D01*
X7991174Y15123889D01*
X7995099Y15092872D01*
X7997790Y15078814D01*
X8000000Y15055507D01*
X8000000Y15041834D01*
X7998101Y15028633D01*
X7998400Y15028611D01*
X7998045Y15023652D01*
X7996534Y15017734D01*
X7994976Y15006896D01*
X7993693Y15002527D01*
X7992725Y15002812D01*
X7988611Y14986693D01*
X7989297Y14986437D01*
X7988234Y14983589D01*
X7987597Y14982720D01*
X7987159Y14981000D01*
X7985922Y14978291D01*
X7984750Y14978826D01*
X7978166Y14969824D01*
X7972977Y14954892D01*
X7950400Y14931794D01*
X7950773Y14931363D01*
X7949717Y14930449D01*
X7949195Y14930212D01*
X7948588Y14929380D01*
X7945092Y14926638D01*
X7944850Y14926542D01*
X7943970Y14925882D01*
X7943792Y14926120D01*
X7915642Y14914892D01*
X7886258Y14901476D01*
X7884822Y14901269D01*
X7880756Y14900978D01*
X7880194Y14900753D01*
X7879501Y14900888D01*
X7867130Y14900000D01*
X7795281Y14900000D01*
X7760340Y14905025D01*
X7745341Y14909430D01*
X7730353Y14919060D01*
X7713275Y14924068D01*
X7686595Y14947173D01*
X7685408Y14948542D01*
X7657928Y15003417D01*
X7656283Y15010979D01*
X7653451Y15037332D01*
X7653451Y15585947D01*
X7644523Y15630824D01*
X7639642Y15655362D01*
X7639642Y15655363D01*
X7624348Y15678251D01*
X7619800Y15688944D01*
X7619389Y15692447D01*
X7615569Y15700433D01*
X7605664Y15732069D01*
X7600000Y15769119D01*
X7600000Y15800000D01*
X7441407Y15800000D01*
X7438893Y15800500D01*
X7217009Y15800500D01*
X7214495Y15800000D01*
X6862330Y15800000D01*
X6827389Y15805025D01*
X6812390Y15809430D01*
X6753644Y15847173D01*
X6752457Y15848542D01*
X6724977Y15903417D01*
X6723332Y15910979D01*
X6720500Y15937332D01*
X6720500Y16064311D01*
X6720500Y16064317D01*
X6714068Y16113172D01*
X6668688Y16210489D01*
X6664065Y16220404D01*
X6580404Y16304065D01*
X6580403Y16304066D01*
X6571590Y16308176D01*
X6546276Y16330467D01*
X6509108Y16389072D01*
X6504883Y16403678D01*
X6500000Y16438134D01*
X6500000Y18556370D01*
X6504225Y18588464D01*
X6513790Y18624161D01*
X6517325Y18634574D01*
X6518002Y18637103D01*
X6518004Y18637105D01*
X6552112Y18764399D01*
X6552112Y18896183D01*
X6518004Y19023477D01*
X6518003Y19023478D01*
X6517332Y19025985D01*
X6513787Y19036431D01*
X6504225Y19072118D01*
X6500000Y19104211D01*
X6500000Y21104992D01*
X6505023Y21139928D01*
X6509427Y21154926D01*
X6547172Y21213677D01*
X6548541Y21214864D01*
X6603420Y21242344D01*
X6610979Y21243988D01*
X6637332Y21246821D01*
X6648683Y21246821D01*
X6648685Y21246821D01*
X6775979Y21280929D01*
X6775995Y21280939D01*
X6777452Y21281541D01*
X6792818Y21286759D01*
X6826472Y21295777D01*
X6858561Y21300000D01*
X7858170Y21300000D01*
X7893106Y21294977D01*
G37*
%TD.AperFunction*%
%TD*%
%TA.AperFunction,Conductor*%
%TO.N,GND*%
G36*
X7364115Y12868955D02*
G01*
X7423167Y12862935D01*
X7477812Y12819396D01*
X7497271Y12775567D01*
X7499374Y12766304D01*
X7502451Y12738851D01*
X7502451Y12368663D01*
X7502450Y12368661D01*
X7502451Y12368660D01*
X7497427Y12333726D01*
X7490015Y12308485D01*
X7458720Y12255741D01*
X7084544Y11881567D01*
X7084544Y11881566D01*
X7084541Y11881563D01*
X7084541Y11881562D01*
X7084535Y11881554D01*
X7084531Y11881548D01*
X7084526Y11881540D01*
X7050733Y11823010D01*
X7050729Y11823000D01*
X7044982Y11813045D01*
X7044979Y11813040D01*
X7041091Y11798528D01*
X7039597Y11792955D01*
X7039597Y11792953D01*
X7024500Y11736610D01*
X7024500Y10476348D01*
X7040166Y10417882D01*
X7044125Y10393903D01*
X7046457Y10358341D01*
X7046723Y10350227D01*
X7046723Y10227796D01*
X7080831Y10100500D01*
X7102285Y10063342D01*
X7146723Y9986373D01*
X7146725Y9986371D01*
X7160580Y9972516D01*
X7167827Y9961195D01*
X7168568Y9958653D01*
X7172223Y9953771D01*
X7184831Y9930682D01*
X7200000Y9871253D01*
X7200000Y6955132D01*
X7194975Y6920188D01*
X7190570Y6905190D01*
X7180932Y6890195D01*
X7175915Y6873102D01*
X7152804Y6846427D01*
X7148193Y6842431D01*
X7101214Y6816956D01*
X7095967Y6815449D01*
X7093831Y6814856D01*
X6964501Y6780203D01*
X6964500Y6780202D01*
X6850390Y6714319D01*
X6850376Y6714310D01*
X6850371Y6714306D01*
X6757200Y6621135D01*
X6757196Y6621130D01*
X6757187Y6621116D01*
X6691304Y6507006D01*
X6691303Y6507003D01*
X6665078Y6409128D01*
X6665077Y6409126D01*
X6651184Y6376682D01*
X6643049Y6363336D01*
X6591360Y6316344D01*
X6583385Y6312469D01*
X6529193Y6300000D01*
X5944237Y6300000D01*
X5909296Y6305025D01*
X5894297Y6309430D01*
X5879311Y6319057D01*
X5862244Y6324060D01*
X5835560Y6347162D01*
X5834789Y6348051D01*
X5807052Y6404109D01*
X5805260Y6412748D01*
X5802698Y6440318D01*
X5803981Y6507000D01*
X5812599Y6955132D01*
X5898961Y11446018D01*
X5904609Y11480700D01*
X5914799Y11513223D01*
X5929951Y11544929D01*
X6403258Y12254889D01*
X6426806Y12281160D01*
X6438795Y12291200D01*
X6502821Y12319149D01*
X6513566Y12320510D01*
X6561251Y12317264D01*
X6564107Y12316498D01*
X6564108Y12316498D01*
X6695889Y12316498D01*
X6695891Y12316498D01*
X6823185Y12350606D01*
X6937313Y12416498D01*
X7030499Y12509684D01*
X7096391Y12623812D01*
X7122006Y12719414D01*
X7135895Y12751850D01*
X7147206Y12770407D01*
X7198902Y12817402D01*
X7228888Y12827483D01*
X7283314Y12838309D01*
X7301223Y12850276D01*
X7349696Y12866694D01*
X7349231Y12869196D01*
X7353658Y12870020D01*
X7358161Y12869561D01*
X7362174Y12870920D01*
X7363982Y12871036D01*
X7364115Y12868955D01*
G37*
%TD.AperFunction*%
%TD*%
%TA.AperFunction,Conductor*%
%TO.N,+5V*%
G36*
X9423603Y21194977D02*
G01*
X9438601Y21190573D01*
X9453598Y21180936D01*
X9470701Y21175914D01*
X9497375Y21152802D01*
X9503181Y21146102D01*
X9529246Y21096988D01*
X9529665Y21095422D01*
X9537828Y21081283D01*
X9537831Y21081279D01*
X9543664Y21071176D01*
X9595560Y20981290D01*
X9688746Y20888104D01*
X9802874Y20822212D01*
X9930168Y20788104D01*
X9930170Y20788104D01*
X10061950Y20788104D01*
X10061952Y20788104D01*
X10189246Y20822212D01*
X10303374Y20888104D01*
X10396560Y20981290D01*
X10462452Y21095418D01*
X10462453Y21095425D01*
X10465564Y21102932D01*
X10466271Y21102639D01*
X10475130Y21123324D01*
X10483263Y21136666D01*
X10534960Y21183662D01*
X10542949Y21187542D01*
X10597119Y21200000D01*
X11457186Y21200000D01*
X11492122Y21194977D01*
X11507120Y21190573D01*
X11522113Y21180941D01*
X11539194Y21175930D01*
X11565874Y21152825D01*
X11567269Y21151216D01*
X11594616Y21096930D01*
X11596178Y21089913D01*
X11599135Y21064160D01*
X11614596Y19453519D01*
X11609909Y19418538D01*
X11605649Y19403497D01*
X11596147Y19388396D01*
X11591281Y19371228D01*
X11568457Y19344386D01*
X11568441Y19344359D01*
X11568419Y19344340D01*
X11567299Y19343351D01*
X11512177Y19315264D01*
X11508654Y19314480D01*
X11504093Y19313465D01*
X11477144Y19310500D01*
X11220433Y19310500D01*
X11150771Y19291835D01*
X11150749Y19291828D01*
X11144012Y19290022D01*
X11144011Y19290022D01*
X11144009Y19290021D01*
X11144006Y19290020D01*
X11141210Y19288406D01*
X11141208Y19288405D01*
X11075483Y19250457D01*
X11073014Y19247988D01*
X11044766Y19226843D01*
X11029425Y19218467D01*
X11020770Y19213741D01*
X10966740Y19198690D01*
X9500000Y19134809D01*
X9500000Y17685584D01*
X9499999Y17685582D01*
X9500000Y17685580D01*
X9494976Y17650645D01*
X9487564Y17625405D01*
X9456269Y17572663D01*
X9449509Y17565904D01*
X9449500Y17565893D01*
X9449493Y17565882D01*
X9383610Y17451772D01*
X9383609Y17451770D01*
X9349500Y17324470D01*
X9349500Y17192688D01*
X9383608Y17065390D01*
X9415062Y17010912D01*
X9416554Y17008328D01*
X9449500Y16951264D01*
X9449502Y16951262D01*
X9460488Y16940276D01*
X9467687Y16929082D01*
X9468453Y16926475D01*
X9472223Y16921439D01*
X9484831Y16898350D01*
X9500000Y16838921D01*
X9500000Y15407109D01*
X9490660Y15359896D01*
X9408921Y15161388D01*
X9365194Y15106893D01*
X9303735Y15084963D01*
X8346290Y15011595D01*
X8346284Y15011596D01*
X8346284Y15011595D01*
X8311069Y15013936D01*
X8304541Y15015322D01*
X8296195Y15017093D01*
X8234705Y15050269D01*
X8201867Y15107446D01*
X8198973Y15118676D01*
X8195050Y15149677D01*
X8197765Y21058236D01*
X8202803Y21093159D01*
X8207217Y21108164D01*
X8216856Y21123151D01*
X8221878Y21140235D01*
X8244993Y21166898D01*
X8246383Y21168102D01*
X8301231Y21195537D01*
X8308777Y21197176D01*
X8335089Y21200000D01*
X9388667Y21200000D01*
X9423603Y21194977D01*
G37*
%TD.AperFunction*%
%TD*%
%TA.AperFunction,Conductor*%
%TO.N,Net-(U6-L2)*%
G36*
X12743039Y16280315D02*
G01*
X12788794Y16227511D01*
X12800000Y16176000D01*
X12800000Y15124000D01*
X12780315Y15056961D01*
X12727511Y15011206D01*
X12676000Y15000000D01*
X10699999Y15000000D01*
X9569488Y14246326D01*
X9502789Y14225518D01*
X9500705Y14225500D01*
X8295382Y14225500D01*
X8265941Y14234145D01*
X8235955Y14240668D01*
X8230939Y14244423D01*
X8228343Y14245185D01*
X8207701Y14261819D01*
X8164770Y14304750D01*
X8131285Y14366073D01*
X8128451Y14392431D01*
X8128451Y14675500D01*
X8148136Y14742539D01*
X8200940Y14788294D01*
X8252451Y14799500D01*
X8439883Y14799500D01*
X8450061Y14800000D01*
X8714495Y14800000D01*
X8717009Y14799500D01*
X8938893Y14799500D01*
X8941407Y14800000D01*
X9482355Y14800000D01*
X10068382Y16223213D01*
X10112109Y16277708D01*
X10178357Y16299911D01*
X10183042Y16300000D01*
X12676000Y16300000D01*
X12743039Y16280315D01*
G37*
%TD.AperFunction*%
%TD*%
%TA.AperFunction,Conductor*%
%TO.N,+BATT*%
G36*
X8289745Y12796134D02*
G01*
X8297781Y12795619D01*
X8304026Y12795000D01*
X8432304Y12795000D01*
X8432731Y12794997D01*
X8436417Y12794916D01*
X8436948Y12794897D01*
X8436959Y12794896D01*
X8441994Y12794711D01*
X8448071Y12794562D01*
X8453108Y12794500D01*
X8453148Y12794500D01*
X8714495Y12794500D01*
X8714498Y12794500D01*
X8717528Y12794649D01*
X8717530Y12794602D01*
X8725661Y12795000D01*
X8930241Y12795000D01*
X8938371Y12794602D01*
X8938374Y12794649D01*
X8941404Y12794500D01*
X8941407Y12794500D01*
X9074118Y12794500D01*
X9107022Y12784839D01*
X9141061Y12774878D01*
X9141121Y12774826D01*
X9141157Y12774815D01*
X9167756Y12751790D01*
X9167993Y12751517D01*
X9195518Y12696598D01*
X9197163Y12689040D01*
X9200000Y12662669D01*
X9200000Y11783951D01*
X9194975Y11749007D01*
X9190570Y11734009D01*
X9180933Y11719015D01*
X9175918Y11701925D01*
X9152808Y11675249D01*
X9146109Y11669443D01*
X9096989Y11643372D01*
X9066853Y11635297D01*
X9006812Y11619209D01*
X8966122Y11595716D01*
X8892680Y11553314D01*
X8799506Y11460140D01*
X8799502Y11460135D01*
X8799493Y11460121D01*
X8733610Y11346011D01*
X8733609Y11346009D01*
X8699500Y11218709D01*
X8699500Y11086927D01*
X8733608Y10959629D01*
X8766554Y10902567D01*
X8799500Y10845503D01*
X8892686Y10752317D01*
X9006814Y10686425D01*
X9006816Y10686425D01*
X9006817Y10686424D01*
X9090871Y10663903D01*
X9090873Y10663902D01*
X9090875Y10663902D01*
X9123316Y10650010D01*
X9136665Y10641874D01*
X9183657Y10590185D01*
X9187531Y10582212D01*
X9200000Y10528020D01*
X9200000Y9977007D01*
X9194976Y9942068D01*
X9187563Y9916825D01*
X9156268Y9864083D01*
X9099500Y9807316D01*
X9033610Y9693194D01*
X9033609Y9693192D01*
X8999500Y9565892D01*
X8999500Y9434110D01*
X9033608Y9306812D01*
X9059519Y9261935D01*
X9066554Y9249750D01*
X9099500Y9192686D01*
X9099502Y9192684D01*
X9156581Y9135605D01*
X9161358Y9129449D01*
X9163072Y9125084D01*
X9172223Y9112861D01*
X9184831Y9089772D01*
X9200000Y9030343D01*
X9200000Y8723656D01*
X9194976Y8688718D01*
X9186689Y8660498D01*
X9164660Y8618123D01*
X9114851Y8555666D01*
X9114850Y8555663D01*
X9094500Y8466506D01*
X9094500Y6733499D01*
X9099650Y6687775D01*
X9099651Y6687772D01*
X9142356Y6599096D01*
X9142336Y6599087D01*
X9147922Y6588206D01*
X9153892Y6573581D01*
X9161004Y6504075D01*
X9129408Y6441757D01*
X9071600Y6407056D01*
X9061596Y6404338D01*
X9029085Y6400000D01*
X7841830Y6400000D01*
X7806889Y6405025D01*
X7791890Y6409430D01*
X7776902Y6419060D01*
X7759824Y6424068D01*
X7733144Y6447173D01*
X7731957Y6448542D01*
X7704477Y6503417D01*
X7702832Y6510979D01*
X7700000Y6537332D01*
X7700000Y9714545D01*
X7705022Y9749477D01*
X7710324Y9767534D01*
X7718670Y9781227D01*
X7721916Y9794603D01*
X7743729Y9822341D01*
X7751275Y9829536D01*
X7774835Y9847172D01*
X7854537Y9893187D01*
X7947723Y9986373D01*
X8013615Y10100501D01*
X8047723Y10227795D01*
X8047723Y10359579D01*
X8013615Y10486873D01*
X7947723Y10601001D01*
X7854537Y10694187D01*
X7777436Y10738701D01*
X7767430Y10746570D01*
X7749698Y10760516D01*
X7736708Y10774139D01*
X7705950Y10830475D01*
X7703494Y10840601D01*
X7700000Y10869829D01*
X7700000Y11577887D01*
X7705022Y11612820D01*
X7706898Y11619209D01*
X7712434Y11638065D01*
X7743727Y11690806D01*
X7886095Y11833173D01*
X8068411Y12015489D01*
X8102231Y12074068D01*
X8107972Y12084011D01*
X8109706Y12090485D01*
X8114695Y12100881D01*
X8115686Y12101983D01*
X8118951Y12109192D01*
X8118955Y12109196D01*
X8121065Y12113855D01*
X8130909Y12131570D01*
X8139642Y12144637D01*
X8139643Y12144641D01*
X8153451Y12214056D01*
X8153451Y12658171D01*
X8158474Y12693106D01*
X8162652Y12707335D01*
X8200426Y12766113D01*
X8248875Y12788240D01*
X8253602Y12791230D01*
X8256202Y12791586D01*
X8263982Y12795138D01*
X8289555Y12796146D01*
X8289745Y12796134D01*
G37*
%TD.AperFunction*%
%TD*%
M02*
