%TF.GenerationSoftware,KiCad,Pcbnew,10.0.5*%
%TF.CreationDate,2026-08-29T19:51:17-07:00*%
%TF.ProjectId,witnessv0.1,7769746e-6573-4737-9630-2e312e6b6963,rev?*%
%TF.SameCoordinates,Original*%
%TF.FileFunction,Legend,Top*%
%TF.FilePolarity,Positive*%
%FSLAX46Y46*%
G04 Gerber Fmt 4.6, Leading zero omitted, Abs format (unit mm)*
G04 Created by KiCad (PCBNEW 10.0.5) date 2026-08-29 19:51:17*
%MOMM*%
%LPD*%
G01*
G04 APERTURE LIST*
G04 Aperture macros list*
%AMRoundRect*
0 Rectangle with rounded corners*
0 $1 Rounding radius*
0 $2 $3 $4 $5 $6 $7 $8 $9 X,Y pos of 4 corners*
0 Add a 4 corners polygon primitive as box body*
4,1,4,$2,$3,$4,$5,$6,$7,$8,$9,$2,$3,0*
0 Add four circle primitives for the rounded corners*
1,1,$1+$1,$2,$3*
1,1,$1+$1,$4,$5*
1,1,$1+$1,$6,$7*
1,1,$1+$1,$8,$9*
0 Add four rect primitives between the rounded corners*
20,1,$1+$1,$2,$3,$4,$5,0*
20,1,$1+$1,$4,$5,$6,$7,0*
20,1,$1+$1,$6,$7,$8,$9,0*
20,1,$1+$1,$8,$9,$2,$3,0*%
%AMFreePoly0*
4,1,23,0.550000,-0.750000,0.000000,-0.750000,0.000000,-0.745722,-0.065263,-0.745722,-0.191342,-0.711940,-0.304381,-0.646677,-0.396677,-0.554381,-0.461940,-0.441342,-0.495722,-0.315263,-0.495722,-0.250000,-0.500000,-0.250000,-0.500000,0.250000,-0.495722,0.250000,-0.495722,0.315263,-0.461940,0.441342,-0.396677,0.554381,-0.304381,0.646677,-0.191342,0.711940,-0.065263,0.745722,0.000000,0.745722,
0.000000,0.750000,0.550000,0.750000,0.550000,-0.750000,0.550000,-0.750000,$1*%
%AMFreePoly1*
4,1,23,0.000000,0.745722,0.065263,0.745722,0.191342,0.711940,0.304381,0.646677,0.396677,0.554381,0.461940,0.441342,0.495722,0.315263,0.495722,0.250000,0.500000,0.250000,0.500000,-0.250000,0.495722,-0.250000,0.495722,-0.315263,0.461940,-0.441342,0.396677,-0.554381,0.304381,-0.646677,0.191342,-0.711940,0.065263,-0.745722,0.000000,-0.745722,0.000000,-0.750000,-0.550000,-0.750000,
-0.550000,0.750000,0.000000,0.750000,0.000000,0.745722,0.000000,0.745722,$1*%
%AMFreePoly2*
4,1,23,0.500000,-0.750000,0.000000,-0.750000,0.000000,-0.745722,-0.065263,-0.745722,-0.191342,-0.711940,-0.304381,-0.646677,-0.396677,-0.554381,-0.461940,-0.441342,-0.495722,-0.315263,-0.495722,-0.250000,-0.500000,-0.250000,-0.500000,0.250000,-0.495722,0.250000,-0.495722,0.315263,-0.461940,0.441342,-0.396677,0.554381,-0.304381,0.646677,-0.191342,0.711940,-0.065263,0.745722,0.000000,0.745722,
0.000000,0.750000,0.500000,0.750000,0.500000,-0.750000,0.500000,-0.750000,$1*%
%AMFreePoly3*
4,1,23,0.000000,0.745722,0.065263,0.745722,0.191342,0.711940,0.304381,0.646677,0.396677,0.554381,0.461940,0.441342,0.495722,0.315263,0.495722,0.250000,0.500000,0.250000,0.500000,-0.250000,0.495722,-0.250000,0.495722,-0.315263,0.461940,-0.441342,0.396677,-0.554381,0.304381,-0.646677,0.191342,-0.711940,0.065263,-0.745722,0.000000,-0.745722,0.000000,-0.750000,-0.500000,-0.750000,
-0.500000,0.750000,0.000000,0.750000,0.000000,0.745722,0.000000,0.745722,$1*%
G04 Aperture macros list end*
%ADD10C,0.150000*%
%ADD11C,0.120000*%
%ADD12C,0.050000*%
%ADD13C,0.100000*%
%ADD14R,2.000000X1.500000*%
%ADD15FreePoly0,90.000000*%
%ADD16R,1.500000X1.000000*%
%ADD17FreePoly1,90.000000*%
%ADD18RoundRect,0.200000X-0.450000X0.200000X-0.450000X-0.200000X0.450000X-0.200000X0.450000X0.200000X0*%
%ADD19O,1.300000X0.800000*%
%ADD20RoundRect,0.200000X0.450000X-0.200000X0.450000X0.200000X-0.450000X0.200000X-0.450000X-0.200000X0*%
%ADD21FreePoly2,0.000000*%
%ADD22FreePoly3,0.000000*%
%ADD23RoundRect,0.200000X-0.200000X-0.450000X0.200000X-0.450000X0.200000X0.450000X-0.200000X0.450000X0*%
%ADD24O,0.800000X1.300000*%
%ADD25FreePoly2,90.000000*%
%ADD26FreePoly3,90.000000*%
%ADD27C,3.800000*%
%ADD28RoundRect,0.218750X-0.256250X0.218750X-0.256250X-0.218750X0.256250X-0.218750X0.256250X0.218750X0*%
%ADD29R,2.900000X0.800000*%
%ADD30R,3.200000X0.800000*%
%ADD31FreePoly0,0.000000*%
%ADD32R,1.000000X1.500000*%
%ADD33FreePoly1,0.000000*%
%ADD34RoundRect,0.175000X-0.250000X-0.175000X0.250000X-0.175000X0.250000X0.175000X-0.250000X0.175000X0*%
%ADD35R,1.300000X3.400000*%
%ADD36RoundRect,0.218750X-0.218750X-0.256250X0.218750X-0.256250X0.218750X0.256250X-0.218750X0.256250X0*%
%ADD37O,1.600000X0.900000*%
G04 APERTURE END LIST*
%TO.C,U10*%
D10*
X7000000Y48100000D02*
X23500000Y48100000D01*
X7000000Y47350000D02*
X7000000Y48100000D01*
X7000000Y31350000D02*
X7000000Y30600000D01*
X7000000Y30600000D02*
X23500000Y30600000D01*
X23500000Y48100000D02*
X23500000Y47350000D01*
X23500000Y30600000D02*
X23500000Y31350000D01*
D11*
X6700000Y47350000D02*
X6200000Y47350000D01*
X6700000Y47850000D01*
X6700000Y47350000D01*
G36*
X6700000Y47350000D02*
G01*
X6200000Y47350000D01*
X6700000Y47850000D01*
X6700000Y47350000D01*
G37*
%TO.C,JP6*%
X2000000Y37100000D02*
X2000000Y39900000D01*
X2700000Y40550000D02*
X3300000Y40550000D01*
X3300000Y36450000D02*
X2700000Y36450000D01*
X4000000Y39900000D02*
X4000000Y37100000D01*
X4200000Y37300000D02*
X4500000Y37600000D01*
X4200000Y37300000D02*
X4500000Y37000000D01*
X4500000Y37000000D02*
X4500000Y37600000D01*
X2000000Y39850000D02*
G75*
G02*
X2700000Y40550000I700000J0D01*
G01*
X2700000Y36450000D02*
G75*
G02*
X2000000Y37150000I-1J699999D01*
G01*
X3300000Y40550000D02*
G75*
G02*
X4000000Y39850000I0J-700000D01*
G01*
X4000000Y37150000D02*
G75*
G02*
X3300000Y36450000I-699999J-1D01*
G01*
%TO.C,JP4*%
X21700000Y9900000D02*
X21700000Y12700000D01*
X22400000Y13350000D02*
X23000000Y13350000D01*
X23000000Y9250000D02*
X22400000Y9250000D01*
X23700000Y12700000D02*
X23700000Y9900000D01*
X23900000Y10100000D02*
X24200000Y10400000D01*
X23900000Y10100000D02*
X24200000Y9800000D01*
X24200000Y9800000D02*
X24200000Y10400000D01*
X21700000Y12650000D02*
G75*
G02*
X22400000Y13350000I700000J0D01*
G01*
X22400000Y9250000D02*
G75*
G02*
X21700000Y9950000I-1J699999D01*
G01*
X23000000Y13350000D02*
G75*
G02*
X23700000Y12650000I0J-700000D01*
G01*
X23700000Y9950000D02*
G75*
G02*
X23000000Y9250000I-699999J-1D01*
G01*
%TO.C,J7*%
X640000Y16735000D02*
X640000Y13250000D01*
X640000Y9765000D02*
X640000Y13250000D01*
X6060000Y15665000D02*
X6360000Y15665000D01*
X6060000Y13250000D02*
X6060000Y15665000D01*
X6060000Y13250000D02*
X6060000Y10835000D01*
X6060000Y10835000D02*
X6360000Y10835000D01*
X6350000Y15375000D02*
X6650000Y15375000D01*
X6360000Y16735000D02*
X640000Y16735000D01*
X6360000Y15665000D02*
X6360000Y16735000D01*
X6360000Y10835000D02*
X6360000Y9765000D01*
X6360000Y9765000D02*
X640000Y9765000D01*
X6650000Y15375000D02*
X6650000Y15875000D01*
%TO.C,J9*%
X23850000Y19225000D02*
X23850000Y18725000D01*
X24140000Y24835000D02*
X29860000Y24835000D01*
X24140000Y23765000D02*
X24140000Y24835000D01*
X24140000Y18935000D02*
X24140000Y17865000D01*
X24140000Y17865000D02*
X29860000Y17865000D01*
X24150000Y19225000D02*
X23850000Y19225000D01*
X24440000Y23765000D02*
X24140000Y23765000D01*
X24440000Y21350000D02*
X24440000Y23765000D01*
X24440000Y21350000D02*
X24440000Y18935000D01*
X24440000Y18935000D02*
X24140000Y18935000D01*
X29860000Y24835000D02*
X29860000Y21350000D01*
X29860000Y17865000D02*
X29860000Y21350000D01*
%TO.C,J4*%
X200000Y27200000D02*
X200000Y27800000D01*
X900000Y28500000D02*
X2300000Y28500000D01*
X2300000Y26500000D02*
X900000Y26500000D01*
X3000000Y27800000D02*
X3000000Y27200000D01*
X200000Y27800000D02*
G75*
G02*
X900000Y28500000I699999J1D01*
G01*
X900000Y26500000D02*
G75*
G02*
X200000Y27200000I-1J699999D01*
G01*
X2300000Y28500000D02*
G75*
G02*
X3000000Y27800000I0J-700000D01*
G01*
X3000000Y27200000D02*
G75*
G02*
X2300000Y26500000I-700000J0D01*
G01*
%TO.C,J5*%
X7015000Y5860000D02*
X7015000Y140000D01*
X7015000Y140000D02*
X10500000Y140000D01*
X8085000Y5860000D02*
X7015000Y5860000D01*
X8085000Y5560000D02*
X8085000Y5860000D01*
X8375000Y6150000D02*
X7875000Y6150000D01*
X8375000Y5850000D02*
X8375000Y6150000D01*
X10500000Y5560000D02*
X8085000Y5560000D01*
X10500000Y5560000D02*
X12915000Y5560000D01*
X12915000Y5860000D02*
X13985000Y5860000D01*
X12915000Y5560000D02*
X12915000Y5860000D01*
X13985000Y5860000D02*
X13985000Y140000D01*
X13985000Y140000D02*
X10500000Y140000D01*
%TO.C,J1*%
X26500000Y40500000D02*
X26500000Y41900000D01*
X27200000Y42600000D02*
X27800000Y42600000D01*
X27800000Y39800000D02*
X27200000Y39800000D01*
X28500000Y41900000D02*
X28500000Y40500000D01*
X26500000Y41900000D02*
G75*
G02*
X27200000Y42600000I700000J0D01*
G01*
X27200000Y39800000D02*
G75*
G02*
X26500000Y40500000I-1J699999D01*
G01*
X27800000Y42600000D02*
G75*
G02*
X28500000Y41900000I0J-700000D01*
G01*
X28500000Y40500000D02*
G75*
G02*
X27800000Y39800000I-699999J-1D01*
G01*
%TO.C,J6*%
X14765000Y5860000D02*
X14765000Y140000D01*
X14765000Y140000D02*
X18250000Y140000D01*
X15835000Y5860000D02*
X14765000Y5860000D01*
X15835000Y5560000D02*
X15835000Y5860000D01*
X16125000Y6150000D02*
X15625000Y6150000D01*
X16125000Y5850000D02*
X16125000Y6150000D01*
X18250000Y5560000D02*
X15835000Y5560000D01*
X18250000Y5560000D02*
X20665000Y5560000D01*
X20665000Y5860000D02*
X21735000Y5860000D01*
X20665000Y5560000D02*
X20665000Y5860000D01*
X21735000Y5860000D02*
X21735000Y140000D01*
X21735000Y140000D02*
X18250000Y140000D01*
%TO.C,D3*%
X2365000Y20035000D02*
X2365000Y17750000D01*
X3835000Y20035000D02*
X2365000Y20035000D01*
X3835000Y17750000D02*
X3835000Y20035000D01*
%TO.C,JP3*%
X7250000Y13400000D02*
X7250000Y16200000D01*
X7950000Y16850000D02*
X8550000Y16850000D01*
X8550000Y12750000D02*
X7950000Y12750000D01*
X9250000Y16200000D02*
X9250000Y13400000D01*
X9450000Y13600000D02*
X9750000Y13900000D01*
X9450000Y13600000D02*
X9750000Y13300000D01*
X9750000Y13300000D02*
X9750000Y13900000D01*
X7250000Y16150000D02*
G75*
G02*
X7950000Y16850000I700000J0D01*
G01*
X7950000Y12750000D02*
G75*
G02*
X7250000Y13450000I-1J699999D01*
G01*
X8550000Y16850000D02*
G75*
G02*
X9250000Y16150000I0J-700000D01*
G01*
X9250000Y13450000D02*
G75*
G02*
X8550000Y12750000I-699999J-1D01*
G01*
%TO.C,JP5*%
X21457500Y15100000D02*
X21457500Y17900000D01*
X22157500Y18550000D02*
X22757500Y18550000D01*
X22757500Y14450000D02*
X22157500Y14450000D01*
X23457500Y17900000D02*
X23457500Y15100000D01*
X23657500Y15300000D02*
X23957500Y15600000D01*
X23657500Y15300000D02*
X23957500Y15000000D01*
X23957500Y15000000D02*
X23957500Y15600000D01*
X21457500Y17850000D02*
G75*
G02*
X22157500Y18550000I700000J0D01*
G01*
X22157500Y14450000D02*
G75*
G02*
X21457500Y15150000I-1J699999D01*
G01*
X22757500Y18550000D02*
G75*
G02*
X23457500Y17850000I0J-700000D01*
G01*
X23457500Y15150000D02*
G75*
G02*
X22757500Y14450000I-699999J-1D01*
G01*
%TO.C,J10*%
D12*
X7250000Y28750000D02*
X7250000Y19050000D01*
X12050000Y28750000D02*
X7250000Y28750000D01*
X12050000Y28750000D02*
X13150000Y29850000D01*
X14650000Y29850000D02*
X13150000Y29850000D01*
X14650000Y29850000D02*
X14650000Y29250000D01*
X15850000Y29250000D02*
X14650000Y29250000D01*
X15850000Y29250000D02*
X16650000Y30050000D01*
X16650000Y30050000D02*
X22250000Y30050000D01*
X22250000Y30050000D02*
X22250000Y19050000D01*
X22250000Y19050000D02*
X7250000Y19050000D01*
%TO.C,JP1*%
D11*
X6450000Y7200000D02*
X6450000Y7800000D01*
X7000000Y6000000D02*
X7600000Y6000000D01*
X7100000Y8500000D02*
X9900000Y8500000D01*
X7300000Y6300000D02*
X7000000Y6000000D01*
X7300000Y6300000D02*
X7600000Y6000000D01*
X9900000Y6500000D02*
X7100000Y6500000D01*
X10550000Y7800000D02*
X10550000Y7200000D01*
X6450000Y7800000D02*
G75*
G02*
X7150000Y8500000I699999J1D01*
G01*
X7150000Y6500000D02*
G75*
G02*
X6450000Y7200000I-1J699999D01*
G01*
X9850000Y8500000D02*
G75*
G02*
X10550000Y7800000I0J-700000D01*
G01*
X10550000Y7200000D02*
G75*
G02*
X9850000Y6500000I-700000J0D01*
G01*
%TO.C,D1*%
D13*
X3650000Y29425000D02*
X6400000Y29425000D01*
X6400000Y27475000D01*
X3650000Y27475000D01*
X3650000Y29425000D01*
X6625000Y29475000D02*
G75*
G02*
X6525000Y29475000I-50000J0D01*
G01*
X6525000Y29475000D02*
G75*
G02*
X6625000Y29475000I50000J0D01*
G01*
%TO.C,JP2*%
D11*
X14250000Y7250000D02*
X14250000Y7850000D01*
X14800000Y6050000D02*
X15400000Y6050000D01*
X14900000Y8550000D02*
X17700000Y8550000D01*
X15100000Y6350000D02*
X14800000Y6050000D01*
X15100000Y6350000D02*
X15400000Y6050000D01*
X17700000Y6550000D02*
X14900000Y6550000D01*
X18350000Y7850000D02*
X18350000Y7250000D01*
X14250000Y7850000D02*
G75*
G02*
X14950000Y8550000I699999J1D01*
G01*
X14950000Y6550000D02*
G75*
G02*
X14250000Y7250000I-1J699999D01*
G01*
X17650000Y8550000D02*
G75*
G02*
X18350000Y7850000I0J-700000D01*
G01*
X18350000Y7250000D02*
G75*
G02*
X17650000Y6550000I-700000J0D01*
G01*
%TO.C,J2*%
X440000Y25185000D02*
X440000Y22950000D01*
X440000Y20715000D02*
X440000Y22950000D01*
X5860000Y24115000D02*
X6160000Y24115000D01*
X5860000Y22950000D02*
X5860000Y24115000D01*
X5860000Y22950000D02*
X5860000Y21785000D01*
X5860000Y21785000D02*
X6160000Y21785000D01*
X6150000Y23825000D02*
X6450000Y23825000D01*
X6160000Y25185000D02*
X440000Y25185000D01*
X6160000Y24115000D02*
X6160000Y25185000D01*
X6160000Y21785000D02*
X6160000Y20715000D01*
X6160000Y20715000D02*
X440000Y20715000D01*
X6450000Y23825000D02*
X6450000Y24325000D01*
%TO.C,BZ1*%
X10190000Y18260000D02*
X19410000Y18260000D01*
X10190000Y15610000D02*
X9860000Y15610000D01*
X10190000Y15610000D02*
X10190000Y18260000D01*
X10190000Y9040000D02*
X10190000Y11690000D01*
X19410000Y18260000D02*
X19410000Y15610000D01*
X19410000Y11690000D02*
X19410000Y9040000D01*
X19410000Y9040000D02*
X10190000Y9040000D01*
%TO.C,D2*%
X3127500Y12785000D02*
X3127500Y11315000D01*
X3127500Y11315000D02*
X5412500Y11315000D01*
X5412500Y12785000D02*
X3127500Y12785000D01*
%TO.C,J8*%
X23850000Y11375000D02*
X23850000Y10875000D01*
X24140000Y16985000D02*
X29860000Y16985000D01*
X24140000Y15915000D02*
X24140000Y16985000D01*
X24140000Y11085000D02*
X24140000Y10015000D01*
X24140000Y10015000D02*
X29860000Y10015000D01*
X24150000Y11375000D02*
X23850000Y11375000D01*
X24440000Y15915000D02*
X24140000Y15915000D01*
X24440000Y13500000D02*
X24440000Y15915000D01*
X24440000Y13500000D02*
X24440000Y11085000D01*
X24440000Y11085000D02*
X24140000Y11085000D01*
X29860000Y16985000D02*
X29860000Y13500000D01*
X29860000Y10015000D02*
X29860000Y13500000D01*
%TD*%
%LPC*%
%TO.C,JP6*%
G36*
X2250000Y39250000D02*
G01*
X3750000Y39250000D01*
X3750000Y37750000D01*
X2250000Y37750000D01*
X2250000Y39250000D01*
G37*
%TO.C,JP4*%
G36*
X21950000Y12050000D02*
G01*
X23450000Y12050000D01*
X23450000Y10550000D01*
X21950000Y10550000D01*
X21950000Y12050000D01*
G37*
%TO.C,J4*%
G36*
X1450000Y28250000D02*
G01*
X1750000Y28250000D01*
X1750000Y26750000D01*
X1450000Y26750000D01*
X1450000Y28250000D01*
G37*
%TO.C,J1*%
G36*
X26750000Y41350000D02*
G01*
X28250000Y41350000D01*
X28250000Y41050000D01*
X26750000Y41050000D01*
X26750000Y41350000D01*
G37*
%TO.C,JP3*%
G36*
X7500000Y15550000D02*
G01*
X9000000Y15550000D01*
X9000000Y14050000D01*
X7500000Y14050000D01*
X7500000Y15550000D01*
G37*
%TO.C,JP5*%
G36*
X21707500Y17250000D02*
G01*
X23207500Y17250000D01*
X23207500Y15750000D01*
X21707500Y15750000D01*
X21707500Y17250000D01*
G37*
%TO.C,JP1*%
G36*
X7750000Y8250000D02*
G01*
X9250000Y8250000D01*
X9250000Y6750000D01*
X7750000Y6750000D01*
X7750000Y8250000D01*
G37*
%TO.C,JP2*%
G36*
X15550000Y8300000D02*
G01*
X17050000Y8300000D01*
X17050000Y6800000D01*
X15550000Y6800000D01*
X15550000Y8300000D01*
G37*
%TD*%
D14*
%TO.C,U10*%
X7250000Y46350000D03*
X7250000Y44350000D03*
X7250000Y42350000D03*
X7250000Y40350000D03*
X7250000Y38350000D03*
X7250000Y36350000D03*
X7250000Y34350000D03*
X7250000Y32350000D03*
X23250000Y32350000D03*
X23250000Y34350000D03*
X23250000Y36350000D03*
X23250000Y38350000D03*
X23250000Y40350000D03*
X23250000Y42350000D03*
X23250000Y44350000D03*
X23250000Y46350000D03*
%TD*%
D15*
%TO.C,JP6*%
X3000000Y37200000D03*
D16*
X3000000Y38500000D03*
D17*
X3000000Y39800000D03*
%TD*%
D15*
%TO.C,JP4*%
X22700000Y10000000D03*
D16*
X22700000Y11300000D03*
D17*
X22700000Y12600000D03*
%TD*%
D18*
%TO.C,J7*%
X5200000Y15125000D03*
D19*
X5200000Y13875000D03*
X5200000Y12625000D03*
X5200000Y11375000D03*
%TD*%
D20*
%TO.C,J9*%
X25300000Y19475000D03*
D19*
X25300000Y20725000D03*
X25300000Y21975000D03*
X25300000Y23225000D03*
%TD*%
D21*
%TO.C,J4*%
X950000Y27500000D03*
D22*
X2250000Y27500000D03*
%TD*%
D23*
%TO.C,J5*%
X8625000Y4700000D03*
D24*
X9875000Y4700000D03*
X11125000Y4700000D03*
X12375000Y4700000D03*
%TD*%
D25*
%TO.C,J1*%
X27500000Y40550000D03*
D26*
X27500000Y41850000D03*
%TD*%
D23*
%TO.C,J6*%
X16375000Y4700000D03*
D24*
X17625000Y4700000D03*
X18875000Y4700000D03*
X20125000Y4700000D03*
%TD*%
D27*
%TO.C,H6*%
X2750000Y47250000D03*
%TD*%
%TO.C,H5*%
X27250000Y2500000D03*
%TD*%
D28*
%TO.C,D3*%
X3100000Y19337500D03*
X3100000Y17762500D03*
%TD*%
D15*
%TO.C,JP3*%
X8250000Y13500000D03*
D16*
X8250000Y14800000D03*
D17*
X8250000Y16100000D03*
%TD*%
D15*
%TO.C,JP5*%
X22457500Y15200000D03*
D16*
X22457500Y16500000D03*
D17*
X22457500Y17800000D03*
%TD*%
D29*
%TO.C,J10*%
X9800000Y27750000D03*
X9800000Y26650000D03*
D30*
X9650000Y25550000D03*
D29*
X9800000Y24450000D03*
D30*
X9650000Y23350000D03*
D29*
X9800000Y22250000D03*
X9800000Y21150000D03*
X9800000Y20050000D03*
%TD*%
D31*
%TO.C,JP1*%
X7200000Y7500000D03*
D32*
X8500000Y7500000D03*
D33*
X9800000Y7500000D03*
%TD*%
D34*
%TO.C,D1*%
X5750000Y28900000D03*
X5750000Y28000000D03*
X4300000Y28000000D03*
X4300000Y28900000D03*
%TD*%
D31*
%TO.C,JP2*%
X15000000Y7550000D03*
D32*
X16300000Y7550000D03*
D33*
X17600000Y7550000D03*
%TD*%
D18*
%TO.C,J2*%
X5000000Y23575000D03*
D19*
X5000000Y22325000D03*
%TD*%
D27*
%TO.C,H7*%
X27250000Y47250000D03*
%TD*%
D35*
%TO.C,BZ1*%
X10450000Y13650000D03*
X19150000Y13650000D03*
%TD*%
D36*
%TO.C,D2*%
X3825000Y12050000D03*
X5400000Y12050000D03*
%TD*%
D20*
%TO.C,J8*%
X25300000Y11625000D03*
D19*
X25300000Y12875000D03*
X25300000Y14125000D03*
X25300000Y15375000D03*
%TD*%
D27*
%TO.C,H4*%
X2750000Y2750000D03*
%TD*%
D37*
%TO.C,J3*%
X28500000Y33200000D03*
X28500000Y26600000D03*
%TD*%
%LPD*%
M02*
