%TF.GenerationSoftware,KiCad,Pcbnew,10.0.5*%
%TF.CreationDate,2026-09-03T01:40:17-07:00*%
%TF.ProjectId,iris,69726973-2e6b-4696-9361-645f70636258,rev?*%
%TF.SameCoordinates,Original*%
%TF.FileFunction,Copper,L1,Top*%
%TF.FilePolarity,Positive*%
%FSLAX46Y46*%
G04 Gerber Fmt 4.6, Leading zero omitted, Abs format (unit mm)*
G04 Created by KiCad (PCBNEW 10.0.5) date 2026-09-03 01:40:17*
%MOMM*%
%LPD*%
G01*
G04 APERTURE LIST*
G04 Aperture macros list*
%AMRoundRect*
0 Rectangle with rounded corners*
0 $1 Rounding radius*
0 $2 $3 $4 $5 $6 $7 $8 $9 X,Y pos of 4 corners*
0 Add a 4 corners polygon primitive as box body*
4,1,4,$2,$3,$4,$5,$6,$7,$8,$9,$2,$3,0*
0 Add four circle primitives for the rounded corners*
1,1,$1+$1,$2,$3*
1,1,$1+$1,$4,$5*
1,1,$1+$1,$6,$7*
1,1,$1+$1,$8,$9*
0 Add four rect primitives between the rounded corners*
20,1,$1+$1,$2,$3,$4,$5,0*
20,1,$1+$1,$4,$5,$6,$7,0*
20,1,$1+$1,$6,$7,$8,$9,0*
20,1,$1+$1,$8,$9,$2,$3,0*%
%AMFreePoly0*
4,1,23,0.500000,-0.750000,0.000000,-0.750000,0.000000,-0.745722,-0.065263,-0.745722,-0.191342,-0.711940,-0.304381,-0.646677,-0.396677,-0.554381,-0.461940,-0.441342,-0.495722,-0.315263,-0.495722,-0.250000,-0.500000,-0.250000,-0.500000,0.250000,-0.495722,0.250000,-0.495722,0.315263,-0.461940,0.441342,-0.396677,0.554381,-0.304381,0.646677,-0.191342,0.711940,-0.065263,0.745722,0.000000,0.745722,
0.000000,0.750000,0.500000,0.750000,0.500000,-0.750000,0.500000,-0.750000,$1*%
%AMFreePoly1*
4,1,23,0.000000,0.745722,0.065263,0.745722,0.191342,0.711940,0.304381,0.646677,0.396677,0.554381,0.461940,0.441342,0.495722,0.315263,0.495722,0.250000,0.500000,0.250000,0.500000,-0.250000,0.495722,-0.250000,0.495722,-0.315263,0.461940,-0.441342,0.396677,-0.554381,0.304381,-0.646677,0.191342,-0.711940,0.065263,-0.745722,0.000000,-0.745722,0.000000,-0.750000,-0.500000,-0.750000,
-0.500000,0.750000,0.000000,0.750000,0.000000,0.745722,0.000000,0.745722,$1*%
G04 Aperture macros list end*
%TA.AperFunction,SMDPad,CuDef*%
%ADD10FreePoly0,180.000000*%
%TD*%
%TA.AperFunction,SMDPad,CuDef*%
%ADD11FreePoly1,180.000000*%
%TD*%
%TA.AperFunction,SMDPad,CuDef*%
%ADD12RoundRect,0.200000X0.275000X-0.200000X0.275000X0.200000X-0.275000X0.200000X-0.275000X-0.200000X0*%
%TD*%
%TA.AperFunction,SMDPad,CuDef*%
%ADD13RoundRect,0.200000X-0.275000X0.200000X-0.275000X-0.200000X0.275000X-0.200000X0.275000X0.200000X0*%
%TD*%
%TA.AperFunction,SMDPad,CuDef*%
%ADD14RoundRect,0.200000X0.200000X0.275000X-0.200000X0.275000X-0.200000X-0.275000X0.200000X-0.275000X0*%
%TD*%
%TA.AperFunction,ComponentPad*%
%ADD15RoundRect,0.200000X0.450000X-0.200000X0.450000X0.200000X-0.450000X0.200000X-0.450000X-0.200000X0*%
%TD*%
%TA.AperFunction,ComponentPad*%
%ADD16O,1.300000X0.800000*%
%TD*%
%TA.AperFunction,ComponentPad*%
%ADD17RoundRect,0.200000X-0.200000X-0.450000X0.200000X-0.450000X0.200000X0.450000X-0.200000X0.450000X0*%
%TD*%
%TA.AperFunction,ComponentPad*%
%ADD18O,0.800000X1.300000*%
%TD*%
%TA.AperFunction,ComponentPad*%
%ADD19C,3.800000*%
%TD*%
%TA.AperFunction,SMDPad,CuDef*%
%ADD20RoundRect,0.249999X0.750001X0.640001X-0.750001X0.640001X-0.750001X-0.640001X0.750001X-0.640001X0*%
%TD*%
%TA.AperFunction,ComponentPad*%
%ADD21RoundRect,0.200000X-0.450000X0.200000X-0.450000X-0.200000X0.450000X-0.200000X0.450000X0.200000X0*%
%TD*%
%TA.AperFunction,SMDPad,CuDef*%
%ADD22RoundRect,0.175000X0.250000X0.175000X-0.250000X0.175000X-0.250000X-0.175000X0.250000X-0.175000X0*%
%TD*%
%TA.AperFunction,SMDPad,CuDef*%
%ADD23RoundRect,0.218750X0.256250X-0.218750X0.256250X0.218750X-0.256250X0.218750X-0.256250X-0.218750X0*%
%TD*%
%TA.AperFunction,ComponentPad*%
%ADD24O,1.600000X0.900000*%
%TD*%
%TA.AperFunction,ViaPad*%
%ADD25C,0.600000*%
%TD*%
%TA.AperFunction,Conductor*%
%ADD26C,0.200000*%
%TD*%
%TA.AperFunction,Conductor*%
%ADD27C,0.500000*%
%TD*%
G04 APERTURE END LIST*
D10*
%TO.P,J4,1,Pin_1_1*%
%TO.N,/MCU/LED_G*%
X12850000Y36000000D03*
D11*
%TO.P,J4,2,Pin_2_2*%
%TO.N,GND*%
X11550000Y36000000D03*
%TD*%
D12*
%TO.P,R13,1*%
%TO.N,Net-(J6-Pin_1)*%
X12200000Y7850000D03*
%TO.P,R13,2*%
%TO.N,+3V3*%
X12200000Y9500000D03*
%TD*%
D13*
%TO.P,R1,1*%
%TO.N,+BATT*%
X10100000Y8625000D03*
%TO.P,R1,2*%
%TO.N,/Load Switches/VIN1*%
X10100000Y6975000D03*
%TD*%
D14*
%TO.P,R3,1*%
%TO.N,+BATT*%
X9125000Y21600000D03*
%TO.P,R3,2*%
%TO.N,/Load Switches/VIN2*%
X7475000Y21600000D03*
%TD*%
D15*
%TO.P,J6,1,Pin_1_1*%
%TO.N,Net-(J6-Pin_1)*%
X14750000Y7875000D03*
D16*
%TO.P,J6,2,Pin_2_2*%
%TO.N,/IO/CAN_L*%
X14750000Y9125000D03*
%TO.P,J6,3,Pin_3_3*%
%TO.N,/IO/CAN_H*%
X14750000Y10375000D03*
%TO.P,J6,4,Pin_4_4*%
%TO.N,GND*%
X14750000Y11625000D03*
%TD*%
D14*
%TO.P,R11,1*%
%TO.N,+5V*%
X8925000Y15500000D03*
%TO.P,R11,2*%
%TO.N,/Load Switches/VIN3*%
X7275000Y15500000D03*
%TD*%
D17*
%TO.P,J5,1,Pin_1_1*%
%TO.N,/IO/OUT1PWR*%
X6975000Y4700000D03*
D18*
%TO.P,J5,2,Pin_2_2*%
%TO.N,/IO/TXD1_MCU*%
X8225000Y4700000D03*
%TO.P,J5,3,Pin_3_3*%
%TO.N,/IO/RXD1_MCU*%
X9475000Y4700000D03*
%TO.P,J5,4,Pin_4_4*%
%TO.N,GND*%
X10725000Y4700000D03*
%TD*%
D10*
%TO.P,J1,1,Pin_1_1*%
%TO.N,/MCU/RST*%
X12750000Y38550000D03*
D11*
%TO.P,J1,2,Pin_2_2*%
%TO.N,GND*%
X11450000Y38550000D03*
%TD*%
D19*
%TO.P,H6,1,1_1*%
%TO.N,GND*%
X2750000Y37500000D03*
%TD*%
%TO.P,H5,1,1_1*%
%TO.N,GND*%
X17500000Y3000000D03*
%TD*%
D20*
%TO.P,U3,1*%
%TO.N,Net-(R46-Pad1)*%
X16965000Y23930000D03*
%TO.P,U3,2*%
%TO.N,/IO/BUTTON*%
X16965000Y26470000D03*
%TO.P,U3,3*%
%TO.N,Net-(J8-Pin_2)*%
X7435000Y26470000D03*
%TO.P,U3,4*%
%TO.N,Net-(J8-Pin_3)*%
X7435000Y23930000D03*
%TD*%
D21*
%TO.P,J8,1,Pin_1_1*%
%TO.N,/IO/OUT3PWR*%
X4600000Y25575000D03*
D16*
%TO.P,J8,2,Pin_2_2*%
%TO.N,Net-(J8-Pin_2)*%
X4600000Y24325000D03*
%TO.P,J8,3,Pin_3_3*%
%TO.N,Net-(J8-Pin_3)*%
X4600000Y23075000D03*
%TO.P,J8,4,Pin_4_4*%
%TO.N,GND*%
X4600000Y21825000D03*
%TD*%
D22*
%TO.P,D1,1,RK_1*%
%TO.N,Net-(D1-RK)*%
X6175000Y37450000D03*
%TO.P,D1,2,GK_2*%
%TO.N,Net-(D1-GK)*%
X6175000Y38350000D03*
%TO.P,D1,3,BK_3*%
%TO.N,Net-(D1-BK)*%
X7625000Y38350000D03*
%TO.P,D1,4,A_4*%
%TO.N,+3V3*%
X7625000Y37450000D03*
%TD*%
D21*
%TO.P,J2,1,Pin_1_1*%
%TO.N,/IO/BATT_RAW*%
X4700000Y9625000D03*
D16*
%TO.P,J2,2,Pin_2_2*%
%TO.N,GND*%
X4700000Y8375000D03*
%TD*%
D19*
%TO.P,H7,1,1_1*%
%TO.N,GND*%
X17000000Y37500000D03*
%TD*%
D21*
%TO.P,J7,1,Pin_1_1*%
%TO.N,/IO/OUT2PWR*%
X4700000Y17575000D03*
D16*
%TO.P,J7,2,Pin_2_2*%
%TO.N,/IO/TXD0_MCU*%
X4700000Y16325000D03*
%TO.P,J7,3,Pin_3_3*%
%TO.N,/IO/RXD0_MCU*%
X4700000Y15075000D03*
%TO.P,J7,4,Pin_4_4*%
%TO.N,GND*%
X4700000Y13825000D03*
%TD*%
D23*
%TO.P,D3,1,K_1*%
%TO.N,Net-(D3-K)*%
X12200000Y16812500D03*
%TO.P,D3,2,A_2*%
%TO.N,+5V*%
X12200000Y18387500D03*
%TD*%
D13*
%TO.P,R2,1*%
%TO.N,+5V*%
X8590000Y8625000D03*
%TO.P,R2,2*%
%TO.N,/Load Switches/VIN1*%
X8590000Y6975000D03*
%TD*%
D14*
%TO.P,R5,1*%
%TO.N,+BATT*%
X8950000Y14000000D03*
%TO.P,R5,2*%
%TO.N,/Load Switches/VIN3*%
X7300000Y14000000D03*
%TD*%
%TO.P,R4,1*%
%TO.N,+5V*%
X9125000Y20100000D03*
%TO.P,R4,2*%
%TO.N,/Load Switches/VIN2*%
X7475000Y20100000D03*
%TD*%
D23*
%TO.P,D2,1,K_1*%
%TO.N,Net-(D2-K)*%
X13700000Y16800000D03*
%TO.P,D2,2,A_2*%
%TO.N,+3V3*%
X13700000Y18375000D03*
%TD*%
D19*
%TO.P,H4,1,1_1*%
%TO.N,GND*%
X2750000Y2750000D03*
%TD*%
D24*
%TO.P,J3,SH,Shield_SH*%
%TO.N,Net-(J3-Shield)*%
X18500000Y28300000D03*
X18500000Y21700000D03*
%TD*%
D25*
%TO.N,/MCU/LED_G*%
X12955000Y36100000D03*
%TO.N,GND*%
X8200000Y33500000D03*
X17000000Y10400000D03*
X6311116Y15001066D03*
X11200000Y33500000D03*
X16015000Y20195464D03*
X19000000Y18700000D03*
X11450000Y37300000D03*
X8100000Y36680000D03*
X5985000Y26400000D03*
X9940410Y23287468D03*
X8207107Y30392893D03*
X9380025Y26669975D03*
X15050000Y31991278D03*
X3100000Y30400000D03*
X6100000Y36300000D03*
X10652447Y18237469D03*
X6700000Y10225000D03*
X6200000Y8000000D03*
X12577617Y28840237D03*
X5803574Y30222815D03*
X9911091Y24831191D03*
X11200000Y30500000D03*
X17721886Y32120721D03*
X14809620Y23909620D03*
X13053650Y10002096D03*
%TO.N,+3V3*%
X16915730Y19688116D03*
X4490380Y27790380D03*
X11876181Y28000860D03*
X12800000Y30237500D03*
X12124914Y8700000D03*
X15000000Y33050000D03*
X7506117Y35925356D03*
X18190118Y10405799D03*
X12784163Y20133719D03*
X6120705Y31611384D03*
X12608018Y37305000D03*
%TO.N,+BATT*%
X4090108Y11826267D03*
X7936603Y11533578D03*
%TO.N,/Load Switches/VIN1*%
X7157694Y6313812D03*
X10857069Y22367220D03*
X14900000Y2200000D03*
%TO.N,/Load Switches/VIN2*%
X3700000Y23758997D03*
X6010579Y22372253D03*
%TO.N,+5V*%
X6051612Y18830291D03*
X8750441Y18915000D03*
X3941806Y12570516D03*
X1030030Y18364836D03*
X9500000Y9500000D03*
X11674427Y4417002D03*
%TO.N,/Load Switches/VIN3*%
X9996060Y21288604D03*
X3600000Y13533199D03*
%TO.N,/IO/TXD1_MCU*%
X5471814Y32788987D03*
%TO.N,/IO/RXD1_MCU*%
X3800000Y34900000D03*
%TO.N,/MCU/RST*%
X13400000Y38600000D03*
X7600000Y28610000D03*
%TO.N,Net-(R46-Pad1)*%
X14000000Y25200000D03*
%TO.N,/IO/BUTTON*%
X8912318Y28710698D03*
X17005738Y26475658D03*
%TO.N,Net-(J8-Pin_2)*%
X5200000Y26800000D03*
X3800000Y26350000D03*
%TO.N,Net-(D1-RK)*%
X5300000Y37600000D03*
%TO.N,Net-(D1-GK)*%
X6300000Y39000000D03*
%TO.N,Net-(D1-BK)*%
X8200000Y39000000D03*
%TO.N,/IO/TXD0_MCU*%
X5248699Y29530686D03*
%TO.N,/IO/RXD0_MCU*%
X5047198Y30292633D03*
%TO.N,Net-(D3-K)*%
X12200000Y17500000D03*
%TO.N,Net-(D2-K)*%
X13600000Y17400000D03*
%TO.N,/Load Switches/CS1*%
X11491215Y23833764D03*
X13400000Y2400000D03*
%TO.N,Net-(Q5-D)*%
X9500000Y2900000D03*
X11200000Y3700000D03*
%TO.N,/Load Switches/EN1*%
X8400000Y1050000D03*
X13500000Y12500000D03*
%TO.N,VBUS*%
X3516890Y14484171D03*
X2150000Y7200000D03*
X15300000Y26650000D03*
%TO.N,/MCU/VSENSE*%
X10453851Y28587500D03*
X2150000Y28200000D03*
X3241722Y9941973D03*
%TO.N,/Load Switches/SDA*%
X6110000Y27733141D03*
X18115730Y19874823D03*
X11000025Y25085761D03*
%TO.N,/Load Switches/EN2*%
X3727645Y27550000D03*
X14800000Y15200000D03*
%TO.N,/MCU/CANRX*%
X15923513Y12930000D03*
X7533845Y29397202D03*
X13750000Y28122047D03*
X13617000Y19963760D03*
%TO.N,/MCU/LS_EN*%
X6200000Y34300000D03*
X19000000Y14900000D03*
%TO.N,/Load Switches/EN3*%
X14000000Y14900000D03*
X9850000Y17258578D03*
X4850000Y18920891D03*
%TO.N,/MCU/5V_EN*%
X13179948Y14676349D03*
X7547223Y10293687D03*
%TO.N,/MCU/LED_B*%
X15219827Y20499412D03*
X14500000Y38700000D03*
%TO.N,/Load Switches/SCL*%
X6181800Y28625309D03*
X17070974Y20809786D03*
X10758148Y25822615D03*
%TO.N,Net-(U6-PS{slash}SYNC)*%
X9200000Y11152817D03*
X6629999Y12816998D03*
%TO.N,/MCU/CANTX*%
X12900102Y21905687D03*
X18500000Y12400000D03*
X12787048Y25518285D03*
X9626904Y28390870D03*
%TO.N,/MCU/RXD0_MCU*%
X12909445Y32871315D03*
X1900000Y33900000D03*
%TO.N,/MCU/TXD0_MCU*%
X1600000Y32100000D03*
X12902284Y32101585D03*
%TO.N,/Load Switches/CS3*%
X1159314Y16090686D03*
X6582793Y21747321D03*
%TO.N,/Load Switches/CS2*%
X1181931Y20401170D03*
X5985000Y23600000D03*
%TD*%
%TO.N,GND*%
D26*
X11450000Y37300000D02*
X11450000Y36100000D01*
X11450000Y38550000D02*
X11450000Y37300000D01*
%TO.N,Net-(J6-Pin_1)*%
D27*
X14750000Y7875000D02*
X12225000Y7875000D01*
%TO.N,+3V3*%
X12200000Y9500000D02*
X12200000Y8775086D01*
D26*
X7506117Y35925356D02*
X7506117Y37331117D01*
X12784163Y19442285D02*
X12784163Y20133719D01*
X13275000Y18800000D02*
X13275000Y18951448D01*
X13700000Y18375000D02*
X13275000Y18800000D01*
D27*
X12200000Y8775086D02*
X12124914Y8700000D01*
D26*
X13275000Y18951448D02*
X12784163Y19442285D01*
%TO.N,+BATT*%
D27*
X9800000Y10300000D02*
X10200000Y9900000D01*
X8950000Y14000000D02*
X8125000Y14825000D01*
X10200000Y9900000D02*
X10200000Y8725000D01*
X7900000Y9500000D02*
X8700000Y10300000D01*
X6400000Y9500000D02*
X7900000Y9500000D01*
X7929070Y18539559D02*
X7929070Y19225000D01*
X8950000Y14000000D02*
X8950000Y12546975D01*
X8950000Y12546975D02*
X7936603Y11533578D01*
X5900000Y10800000D02*
X5900000Y10000000D01*
X6400000Y9500000D02*
X5900000Y10000000D01*
X8325000Y19620930D02*
X8325000Y20900000D01*
X6633578Y11533578D02*
X5900000Y10800000D01*
X8125000Y18343629D02*
X7929070Y18539559D01*
X7929070Y19225000D02*
X8325000Y19620930D01*
X8700000Y10300000D02*
X9800000Y10300000D01*
X8125000Y14825000D02*
X8125000Y18343629D01*
X10200000Y8725000D02*
X10100000Y8625000D01*
X8325000Y20900000D02*
X9125000Y21700000D01*
X7936603Y11533578D02*
X6633578Y11533578D01*
%TO.N,/Load Switches/VIN1*%
X8590000Y6975000D02*
X10100000Y6975000D01*
X8590000Y6975000D02*
X7818882Y6975000D01*
X7818882Y6975000D02*
X7157694Y6313812D01*
%TO.N,/Load Switches/VIN2*%
D26*
X7475000Y21700000D02*
X7475000Y20200000D01*
X7475000Y21700000D02*
X7475000Y22366990D01*
X7441990Y22400000D02*
X6038326Y22400000D01*
X6038326Y22400000D02*
X6010579Y22372253D01*
X7475000Y22366990D02*
X7441990Y22400000D01*
%TO.N,+5V*%
D27*
X9125000Y20200000D02*
X9125000Y19625002D01*
X9390000Y7825000D02*
X10579070Y7825000D01*
X9000000Y19164559D02*
X8750441Y18915000D01*
D26*
X12000000Y18375000D02*
X10875000Y19500000D01*
D27*
X10975000Y7429070D02*
X10975000Y6525000D01*
X8925000Y18740441D02*
X8750441Y18915000D01*
X8590000Y8625000D02*
X9390000Y7825000D01*
X11674427Y5825573D02*
X11674427Y4417002D01*
X10975000Y6525000D02*
X11674427Y5825573D01*
X10579070Y7825000D02*
X10975000Y7429070D01*
X9429288Y9500000D02*
X9500000Y9500000D01*
D26*
X10875000Y19500000D02*
X8999998Y19500000D01*
D27*
X9000000Y19432453D02*
X9000000Y19164559D01*
X8925000Y15500000D02*
X8925000Y18740441D01*
X8590000Y8660712D02*
X9429288Y9500000D01*
X9125000Y19625002D02*
X8999998Y19500000D01*
%TO.N,/Load Switches/VIN3*%
X3200000Y13133199D02*
X3200000Y11707107D01*
X3600000Y13533199D02*
X3200000Y13133199D01*
X3979520Y10927587D02*
X4382613Y10927587D01*
X4851242Y11396216D02*
X4851242Y12182613D01*
X3200000Y11707107D02*
X3979520Y10927587D01*
X7275000Y15500000D02*
X7275000Y14025000D01*
X4851242Y12182613D02*
X6668629Y14000000D01*
X4382613Y10927587D02*
X4851242Y11396216D01*
X6668629Y14000000D02*
X7300000Y14000000D01*
%TO.N,/IO/TXD1_MCU*%
D26*
X1500000Y21620102D02*
X1500000Y28469239D01*
X1880761Y28850000D02*
X2355026Y28850000D01*
X2355026Y28850000D02*
X5471814Y31966788D01*
X2150000Y14107229D02*
X2150000Y20970102D01*
X6094975Y3700000D02*
X3294976Y6500000D01*
X1500000Y6900000D02*
X1500000Y13457230D01*
X1500000Y13457230D02*
X2150000Y14107229D01*
X1500000Y28469239D02*
X1880761Y28850000D01*
X5471814Y31966788D02*
X5471814Y32788987D01*
X2150000Y20970102D02*
X1500000Y21620102D01*
X7475000Y3700000D02*
X6094975Y3700000D01*
X8225000Y4450000D02*
X7475000Y3700000D01*
X1900000Y6500000D02*
X1500000Y6900000D01*
X3294976Y6500000D02*
X1900000Y6500000D01*
%TO.N,/IO/RXD1_MCU*%
X8225000Y3200000D02*
X9475000Y4450000D01*
X800000Y34100000D02*
X800000Y21825128D01*
X3100000Y6100000D02*
X6000000Y3200000D01*
X3800000Y34900000D02*
X1600000Y34900000D01*
X1400000Y6100000D02*
X3100000Y6100000D01*
X800000Y13252204D02*
X800000Y6700000D01*
X1600000Y34900000D02*
X800000Y34100000D01*
X800000Y6700000D02*
X1400000Y6100000D01*
X1800000Y14252205D02*
X800000Y13252204D01*
X800000Y21825128D02*
X1800000Y20825128D01*
X6000000Y3200000D02*
X8225000Y3200000D01*
X1800000Y20825128D02*
X1800000Y14252205D01*
%TO.N,/MCU/RST*%
X6883845Y29116155D02*
X7390000Y28610000D01*
X8094973Y31100000D02*
X6883845Y29888872D01*
X7390000Y28610000D02*
X7600000Y28610000D01*
X13494975Y31100000D02*
X8094973Y31100000D01*
X13850000Y38150000D02*
X13850000Y31455025D01*
X13400000Y38600000D02*
X13850000Y38150000D01*
X6883845Y29888872D02*
X6883845Y29116155D01*
X13850000Y31455025D02*
X13494975Y31100000D01*
%TO.N,Net-(R46-Pad1)*%
X14000000Y25200000D02*
X14438479Y25200000D01*
X14438479Y25200000D02*
X15608479Y24030000D01*
X15608479Y24030000D02*
X16965000Y24030000D01*
%TO.N,Net-(J8-Pin_2)*%
X3700000Y24875000D02*
X4250000Y24325000D01*
X6955000Y26950000D02*
X5350000Y26950000D01*
X5350000Y26950000D02*
X5200000Y26800000D01*
X3700000Y26182131D02*
X3700000Y24875000D01*
X3800000Y26282131D02*
X3700000Y26182131D01*
X3800000Y26350000D02*
X3800000Y26282131D01*
%TO.N,Net-(J8-Pin_3)*%
X6025000Y24500000D02*
X4600000Y23075000D01*
X6965000Y24500000D02*
X6025000Y24500000D01*
%TO.N,Net-(D1-RK)*%
X5300000Y37600000D02*
X6025000Y37600000D01*
%TO.N,Net-(D1-GK)*%
X6300000Y39000000D02*
X6300000Y38475000D01*
%TO.N,Net-(D1-BK)*%
X7625000Y38425000D02*
X8200000Y39000000D01*
%TO.N,/IO/TXD0_MCU*%
X4314948Y16575000D02*
X3400000Y17489948D01*
X4432921Y28450000D02*
X5248699Y29265778D01*
X3400000Y21205025D02*
X2750000Y21855026D01*
X4700000Y16575000D02*
X4314948Y16575000D01*
X3400000Y17489948D02*
X3400000Y21205025D01*
X3708406Y28450000D02*
X4432921Y28450000D01*
X2750000Y21855026D02*
X2750000Y27491594D01*
X5248699Y29265778D02*
X5248699Y29530686D01*
X2750000Y27491594D02*
X3708406Y28450000D01*
%TO.N,/IO/RXD0_MCU*%
X2399999Y21710052D02*
X2400000Y25572943D01*
X4700000Y15075000D02*
X3050000Y16725000D01*
X2399999Y25572944D02*
X2399999Y26881176D01*
X2400000Y25572943D02*
X2399999Y25572944D01*
X5047198Y30283766D02*
X5047198Y30292633D01*
X3050000Y16725000D02*
X3050000Y21060051D01*
X2400000Y26881177D02*
X2400000Y27636569D01*
X2400000Y27636569D02*
X5047198Y30283766D01*
X2399999Y26881176D02*
X2400000Y26881177D01*
X3050000Y21060051D02*
X2399999Y21710052D01*
%TO.N,Net-(D3-K)*%
X12200000Y16812500D02*
X12200000Y17500000D01*
%TO.N,Net-(Q5-D)*%
X9500000Y2900000D02*
X10400000Y2900000D01*
X10400000Y2900000D02*
X11200000Y3700000D01*
%TO.N,/Load Switches/EN1*%
X12224427Y6708635D02*
X12224427Y3724427D01*
X13500000Y12500000D02*
X11475000Y10475000D01*
X12224427Y3724427D02*
X9550000Y1050000D01*
X9550000Y1050000D02*
X8400000Y1050000D01*
X11475000Y7458062D02*
X12224427Y6708635D01*
X11475000Y10475000D02*
X11475000Y7458062D01*
%TO.N,VBUS*%
X3516890Y14484171D02*
X2600000Y13567281D01*
X2600000Y11571750D02*
X3800000Y10371750D01*
X2600000Y13567281D02*
X2600000Y11571750D01*
X3800000Y10371750D02*
X3800000Y9471830D01*
X2150000Y7821830D02*
X2150000Y7200000D01*
X3800000Y9471830D02*
X2150000Y7821830D01*
%TO.N,/MCU/VSENSE*%
X2700000Y20915076D02*
X2700000Y14162255D01*
X2150000Y28200000D02*
X2300000Y28200000D01*
X2050000Y27950000D02*
X2050000Y21565077D01*
X2300000Y28200000D02*
X2050000Y27950000D01*
X2700000Y14162255D02*
X2250000Y13712255D01*
X2050000Y21565077D02*
X2700000Y20915076D01*
X2250000Y10933695D02*
X3241722Y9941973D01*
X2250000Y13712255D02*
X2250000Y10933695D01*
%TO.N,/Load Switches/SDA*%
X14577209Y21949999D02*
X15050001Y21949999D01*
X9970346Y25600000D02*
X10484585Y25085761D01*
X9400000Y25600000D02*
X9970346Y25600000D01*
X9400000Y25600000D02*
X8700000Y26300000D01*
X8399034Y27610000D02*
X8700000Y27309034D01*
X15050001Y21949999D02*
X16743574Y20256426D01*
X16743574Y20256426D02*
X17734127Y20256426D01*
X6233141Y27610000D02*
X8399034Y27610000D01*
X6110000Y27733141D02*
X6233141Y27610000D01*
X11000025Y25085761D02*
X11267501Y24818285D01*
X11708923Y24818285D02*
X14577209Y21949999D01*
X17734127Y20256426D02*
X18115730Y19874823D01*
X10484585Y25085761D02*
X11000025Y25085761D01*
X11267501Y24818285D02*
X11708923Y24818285D01*
X8700000Y27309034D02*
X8700000Y26300000D01*
%TO.N,/Load Switches/EN2*%
X5460579Y22133660D02*
X5500000Y22094239D01*
X11010505Y21051978D02*
X9272483Y22790000D01*
X5460579Y22600071D02*
X5460579Y22133660D01*
X6510000Y22790000D02*
X6370650Y22790000D01*
X11010505Y20720969D02*
X11010505Y21051978D01*
X5500000Y22094239D02*
X5500000Y21200000D01*
X4100000Y21000000D02*
X3150000Y21950000D01*
X12925000Y18806474D02*
X11010505Y20720969D01*
X5782761Y22922253D02*
X5460579Y22600071D01*
X6510000Y22790000D02*
X6500000Y22800000D01*
X13456026Y15900000D02*
X12925000Y16431026D01*
X3150000Y26641228D02*
X3727645Y27218873D01*
X14100000Y15900000D02*
X13456026Y15900000D01*
X5300000Y21000000D02*
X4100000Y21000000D01*
X14800000Y15200000D02*
X14100000Y15900000D01*
X6238397Y22922253D02*
X5782761Y22922253D01*
X3727645Y27218873D02*
X3727645Y27550000D01*
X3150000Y21950000D02*
X3150000Y26641228D01*
X9272483Y22790000D02*
X6510000Y22790000D01*
X5500000Y21200000D02*
X5300000Y21000000D01*
X12925000Y16431026D02*
X12925000Y18806474D01*
X6370650Y22790000D02*
X6238397Y22922253D01*
%TO.N,/MCU/CANRX*%
X12890741Y29400000D02*
X13290741Y29000000D01*
X13290741Y29000000D02*
X13290741Y28581306D01*
X13290741Y28581306D02*
X13750000Y28122047D01*
X13646292Y19963760D02*
X13617000Y19963760D01*
X15923513Y12930000D02*
X15923513Y17686539D01*
X7536643Y29400000D02*
X12890741Y29400000D01*
X7533845Y29397202D02*
X7536643Y29400000D01*
X15923513Y17686539D02*
X13646292Y19963760D01*
%TO.N,/MCU/LS_EN*%
X13400000Y31500000D02*
X13500000Y31600000D01*
X19000000Y15800000D02*
X14669827Y20130173D01*
X4550000Y27069239D02*
X5250000Y27769239D01*
X5275000Y26225000D02*
X4855761Y26225000D01*
X13500000Y33058578D02*
X12258578Y34300000D01*
X4550000Y26530761D02*
X4550000Y27069239D01*
X5250000Y28750001D02*
X7999999Y31500000D01*
X12900000Y23000000D02*
X11005696Y23000000D01*
X12258578Y34300000D02*
X6200000Y34300000D01*
X19000000Y14900000D02*
X19000000Y15800000D01*
X7999999Y31500000D02*
X13400000Y31500000D01*
X9824505Y24181191D02*
X9518809Y24181191D01*
X8630000Y25070000D02*
X6430000Y25070000D01*
X4855761Y26225000D02*
X4550000Y26530761D01*
X6430000Y25070000D02*
X5275000Y26225000D01*
X14669827Y20130173D02*
X14669827Y21230173D01*
X5250000Y27769239D02*
X5250000Y28750001D01*
X11005696Y23000000D02*
X9824505Y24181191D01*
X13500000Y31600000D02*
X13500000Y33058578D01*
X9518809Y24181191D02*
X8630000Y25070000D01*
X14669827Y21230173D02*
X12900000Y23000000D01*
%TO.N,/Load Switches/EN3*%
X13600000Y15300000D02*
X14000000Y14900000D01*
X9850000Y17258578D02*
X11808578Y15300000D01*
X11808578Y15300000D02*
X13600000Y15300000D01*
%TO.N,/MCU/5V_EN*%
X8550000Y11000000D02*
X7843687Y10293687D01*
X13179948Y14676349D02*
X13179948Y14479948D01*
X8930761Y11802817D02*
X8550000Y11422056D01*
X8550000Y11422056D02*
X8550000Y11000000D01*
X10502817Y11802817D02*
X8930761Y11802817D01*
X13179948Y14479948D02*
X10502817Y11802817D01*
X7843687Y10293687D02*
X7547223Y10293687D01*
%TO.N,/MCU/LED_B*%
X18854843Y19945157D02*
X16150000Y22650000D01*
X14350000Y38550000D02*
X14500000Y38700000D01*
X16150000Y22650000D02*
X15291422Y22650000D01*
X18854843Y19500000D02*
X18854843Y19945157D01*
X13376381Y24565041D02*
X13376381Y26376381D01*
X14350000Y27350000D02*
X14350000Y38550000D01*
X16344974Y19050000D02*
X18404843Y19050000D01*
X15219827Y20499412D02*
X15219827Y20175147D01*
X15291422Y22650000D02*
X13376381Y24565041D01*
X13376381Y26376381D02*
X14350000Y27350000D01*
X18404843Y19050000D02*
X18854843Y19500000D01*
X15219827Y20175147D02*
X16344974Y19050000D01*
%TO.N,/Load Switches/SCL*%
X15005026Y22300000D02*
X12136741Y25168285D01*
X12136741Y25168285D02*
X11736741Y25168285D01*
X11082411Y25822615D02*
X10758146Y25822615D01*
X6181800Y28625309D02*
X6847109Y27960000D01*
X11736741Y25168285D02*
X11082411Y25822615D01*
X6847109Y27960000D02*
X8867818Y27960000D01*
X16912396Y20809786D02*
X15422182Y22300000D01*
X8867818Y27960000D02*
X10758148Y26069670D01*
X17070974Y20809786D02*
X16912396Y20809786D01*
X10758148Y26069670D02*
X10758148Y25822615D01*
X15422182Y22300000D02*
X15005026Y22300000D01*
%TO.N,/MCU/CANTX*%
X11881715Y25518285D02*
X9626904Y27773096D01*
X18350000Y12550000D02*
X18350000Y15755026D01*
X9626904Y27773096D02*
X9626904Y28390870D01*
X14200000Y19905026D02*
X14200000Y21000000D01*
X18350000Y15755026D02*
X14200000Y19905026D01*
X14200000Y21000000D02*
X13294313Y21905687D01*
X12787048Y25518285D02*
X11881715Y25518285D01*
X18500000Y12400000D02*
X18350000Y12550000D01*
X13294313Y21905687D02*
X12900102Y21905687D01*
%TO.N,/MCU/RXD0_MCU*%
X12830760Y32950000D02*
X12909445Y32871315D01*
X1900000Y33900000D02*
X5748849Y33900000D01*
X5859862Y33788987D02*
X5886028Y33788987D01*
X6725015Y32950000D02*
X12830760Y32950000D01*
X5748849Y33900000D02*
X5859862Y33788987D01*
X5886028Y33788987D02*
X6725015Y32950000D01*
%TO.N,/MCU/TXD0_MCU*%
X2700000Y33200000D02*
X1600000Y32100000D01*
X12902284Y32101585D02*
X7078455Y32101585D01*
X5741053Y33438987D02*
X5202575Y33438987D01*
X5202575Y33438987D02*
X4963588Y33200000D01*
X7078455Y32101585D02*
X5741053Y33438987D01*
X4963588Y33200000D02*
X2700000Y33200000D01*
%TD*%
M02*
