%TF.GenerationSoftware,KiCad,Pcbnew,10.0.5*%
%TF.CreationDate,2026-09-03T01:40:17-07:00*%
%TF.ProjectId,iris,69726973-2e6b-4696-9361-645f70636258,rev?*%
%TF.SameCoordinates,Original*%
%TF.FileFunction,Paste,Bot*%
%TF.FilePolarity,Positive*%
%FSLAX46Y46*%
G04 Gerber Fmt 4.6, Leading zero omitted, Abs format (unit mm)*
G04 Created by KiCad (PCBNEW 10.0.5) date 2026-09-03 01:40:17*
%MOMM*%
%LPD*%
G01*
G04 APERTURE LIST*
G04 Aperture macros list*
%AMRoundRect*
0 Rectangle with rounded corners*
0 $1 Rounding radius*
0 $2 $3 $4 $5 $6 $7 $8 $9 X,Y pos of 4 corners*
0 Add a 4 corners polygon primitive as box body*
4,1,4,$2,$3,$4,$5,$6,$7,$8,$9,$2,$3,0*
0 Add four circle primitives for the rounded corners*
1,1,$1+$1,$2,$3*
1,1,$1+$1,$4,$5*
1,1,$1+$1,$6,$7*
1,1,$1+$1,$8,$9*
0 Add four rect primitives between the rounded corners*
20,1,$1+$1,$2,$3,$4,$5,0*
20,1,$1+$1,$4,$5,$6,$7,0*
20,1,$1+$1,$6,$7,$8,$9,0*
20,1,$1+$1,$8,$9,$2,$3,0*%
%AMFreePoly0*
4,1,9,3.862500,-0.866500,0.737500,-0.866500,0.737500,-0.450000,-0.737500,-0.450000,-0.737500,0.450000,0.737500,0.450000,0.737500,0.866500,3.862500,0.866500,3.862500,-0.866500,3.862500,-0.866500,$1*%
G04 Aperture macros list end*
%ADD10RoundRect,0.150000X-0.150000X0.587500X-0.150000X-0.587500X0.150000X-0.587500X0.150000X0.587500X0*%
%ADD11RoundRect,0.135000X-0.185000X0.135000X-0.185000X-0.135000X0.185000X-0.135000X0.185000X0.135000X0*%
%ADD12RoundRect,0.250000X0.250000X0.475000X-0.250000X0.475000X-0.250000X-0.475000X0.250000X-0.475000X0*%
%ADD13RoundRect,0.135000X0.135000X0.185000X-0.135000X0.185000X-0.135000X-0.185000X0.135000X-0.185000X0*%
%ADD14RoundRect,0.135000X-0.135000X-0.185000X0.135000X-0.185000X0.135000X0.185000X-0.135000X0.185000X0*%
%ADD15RoundRect,0.150000X-0.150000X-0.250000X0.150000X-0.250000X0.150000X0.250000X-0.150000X0.250000X0*%
%ADD16RoundRect,0.075000X-0.100000X-0.075000X0.100000X-0.075000X0.100000X0.075000X-0.100000X0.075000X0*%
%ADD17RoundRect,0.058750X-0.376250X-0.058750X0.376250X-0.058750X0.376250X0.058750X-0.376250X0.058750X0*%
%ADD18RoundRect,0.242500X-0.242500X0.422500X-0.242500X-0.422500X0.242500X-0.422500X0.242500X0.422500X0*%
%ADD19RoundRect,0.087500X-0.087500X0.337500X-0.087500X-0.337500X0.087500X-0.337500X0.087500X0.337500X0*%
%ADD20RoundRect,0.140000X0.140000X0.170000X-0.140000X0.170000X-0.140000X-0.170000X0.140000X-0.170000X0*%
%ADD21RoundRect,0.140000X-0.140000X-0.170000X0.140000X-0.170000X0.140000X0.170000X-0.140000X0.170000X0*%
%ADD22RoundRect,0.135000X0.185000X-0.135000X0.185000X0.135000X-0.185000X0.135000X-0.185000X-0.135000X0*%
%ADD23RoundRect,0.140000X0.170000X-0.140000X0.170000X0.140000X-0.170000X0.140000X-0.170000X-0.140000X0*%
%ADD24RoundRect,0.225000X0.225000X0.250000X-0.225000X0.250000X-0.225000X-0.250000X0.225000X-0.250000X0*%
%ADD25RoundRect,0.100000X-0.575000X0.100000X-0.575000X-0.100000X0.575000X-0.100000X0.575000X0.100000X0*%
%ADD26O,1.600000X0.900000*%
%ADD27RoundRect,0.250000X-0.450000X0.550000X-0.450000X-0.550000X0.450000X-0.550000X0.450000X0.550000X0*%
%ADD28RoundRect,0.250000X-0.700000X0.700000X-0.700000X-0.700000X0.700000X-0.700000X0.700000X0.700000X0*%
%ADD29RoundRect,0.150000X0.200000X-0.150000X0.200000X0.150000X-0.200000X0.150000X-0.200000X-0.150000X0*%
%ADD30RoundRect,0.150000X-0.587500X-0.150000X0.587500X-0.150000X0.587500X0.150000X-0.587500X0.150000X0*%
%ADD31RoundRect,0.250000X0.295000X0.295000X-0.295000X0.295000X-0.295000X-0.295000X0.295000X-0.295000X0*%
%ADD32RoundRect,0.062500X0.337500X0.062500X-0.337500X0.062500X-0.337500X-0.062500X0.337500X-0.062500X0*%
%ADD33RoundRect,0.062500X0.062500X0.337500X-0.062500X0.337500X-0.062500X-0.337500X0.062500X-0.337500X0*%
%ADD34RoundRect,0.140000X-0.170000X0.140000X-0.170000X-0.140000X0.170000X-0.140000X0.170000X0.140000X0*%
%ADD35RoundRect,0.037500X0.262500X0.087500X-0.262500X0.087500X-0.262500X-0.087500X0.262500X-0.087500X0*%
%ADD36RoundRect,0.037500X-0.262500X-0.087500X0.262500X-0.087500X0.262500X0.087500X-0.262500X0.087500X0*%
%ADD37RoundRect,0.037500X0.087500X-0.262500X0.087500X0.262500X-0.087500X0.262500X-0.087500X-0.262500X0*%
%ADD38RoundRect,0.037500X-0.087500X0.262500X-0.087500X-0.262500X0.087500X-0.262500X0.087500X0.262500X0*%
%ADD39RoundRect,0.037500X-0.637500X-0.087500X0.637500X-0.087500X0.637500X0.087500X-0.637500X0.087500X0*%
%ADD40RoundRect,0.037500X-0.812500X-0.087500X0.812500X-0.087500X0.812500X0.087500X-0.812500X0.087500X0*%
%ADD41RoundRect,0.037500X0.637500X0.087500X-0.637500X0.087500X-0.637500X-0.087500X0.637500X-0.087500X0*%
%ADD42RoundRect,0.150000X0.250000X-0.150000X0.250000X0.150000X-0.250000X0.150000X-0.250000X-0.150000X0*%
%ADD43RoundRect,0.075000X0.075000X-0.100000X0.075000X0.100000X-0.075000X0.100000X-0.075000X-0.100000X0*%
%ADD44RoundRect,0.058750X0.058750X-0.376250X0.058750X0.376250X-0.058750X0.376250X-0.058750X-0.376250X0*%
%ADD45RoundRect,0.250000X0.495000X-0.495000X0.495000X0.495000X-0.495000X0.495000X-0.495000X-0.495000X0*%
%ADD46RoundRect,0.062500X0.062500X-0.337500X0.062500X0.337500X-0.062500X0.337500X-0.062500X-0.337500X0*%
%ADD47RoundRect,0.062500X0.337500X-0.062500X0.337500X0.062500X-0.337500X0.062500X-0.337500X-0.062500X0*%
%ADD48RoundRect,0.250000X-0.300000X0.300000X-0.300000X-0.300000X0.300000X-0.300000X0.300000X0.300000X0*%
%ADD49RoundRect,0.250000X-0.250000X-0.475000X0.250000X-0.475000X0.250000X0.475000X-0.250000X0.475000X0*%
%ADD50RoundRect,0.150000X-0.250000X0.150000X-0.250000X-0.150000X0.250000X-0.150000X0.250000X0.150000X0*%
%ADD51RoundRect,0.075000X-0.075000X0.100000X-0.075000X-0.100000X0.075000X-0.100000X0.075000X0.100000X0*%
%ADD52RoundRect,0.058750X-0.058750X0.376250X-0.058750X-0.376250X0.058750X-0.376250X0.058750X0.376250X0*%
%ADD53RoundRect,0.200000X0.200000X0.275000X-0.200000X0.275000X-0.200000X-0.275000X0.200000X-0.275000X0*%
%ADD54RoundRect,0.250000X-0.275000X0.275000X-0.275000X-0.275000X0.275000X-0.275000X0.275000X0.275000X0*%
%ADD55RoundRect,0.075000X-0.075000X0.337500X-0.075000X-0.337500X0.075000X-0.337500X0.075000X0.337500X0*%
%ADD56RoundRect,0.075000X-0.337500X0.075000X-0.337500X-0.075000X0.337500X-0.075000X0.337500X0.075000X0*%
%ADD57RoundRect,0.250000X1.075000X-0.375000X1.075000X0.375000X-1.075000X0.375000X-1.075000X-0.375000X0*%
%ADD58RoundRect,0.225000X0.425000X0.225000X-0.425000X0.225000X-0.425000X-0.225000X0.425000X-0.225000X0*%
%ADD59FreePoly0,180.000000*%
%ADD60RoundRect,0.250000X-0.475000X0.250000X-0.475000X-0.250000X0.475000X-0.250000X0.475000X0.250000X0*%
%ADD61R,0.500000X0.600000*%
%ADD62RoundRect,0.150000X-0.150000X0.512500X-0.150000X-0.512500X0.150000X-0.512500X0.150000X0.512500X0*%
G04 APERTURE END LIST*
D10*
%TO.C,Q4*%
X2175000Y20137500D03*
X4075000Y20137500D03*
X3125000Y18262500D03*
%TD*%
D11*
%TO.C,R38*%
X12200000Y19010000D03*
X12200000Y17990000D03*
%TD*%
D12*
%TO.C,C24*%
X8950000Y20500000D03*
X7050000Y20500000D03*
%TD*%
D13*
%TO.C,R40*%
X2010000Y17700000D03*
X990000Y17700000D03*
%TD*%
D14*
%TO.C,R35*%
X3980000Y33000000D03*
X5000000Y33000000D03*
%TD*%
D15*
%TO.C,Q6*%
X10975000Y1475000D03*
X11675000Y1475000D03*
D16*
X10400000Y2450000D03*
D17*
X11365000Y2450000D03*
D16*
X12250000Y2450000D03*
%TD*%
D18*
%TO.C,U5*%
X18175000Y8150000D03*
X16975000Y8150000D03*
D19*
X16600000Y9600000D03*
X17250000Y9600000D03*
X17900000Y9600000D03*
X18550000Y9600000D03*
X18550000Y6700000D03*
X17900000Y6700000D03*
X17250000Y6700000D03*
X16600000Y6700000D03*
%TD*%
D20*
%TO.C,C9*%
X6030000Y31237500D03*
X5070000Y31237500D03*
%TD*%
D21*
%TO.C,C3*%
X13470000Y30900000D03*
X14430000Y30900000D03*
%TD*%
D22*
%TO.C,R54*%
X14700000Y12680000D03*
X14700000Y13700000D03*
%TD*%
D23*
%TO.C,C6*%
X8600000Y35720000D03*
X8600000Y36680000D03*
%TD*%
D24*
%TO.C,C20*%
X8175000Y11200000D03*
X6625000Y11200000D03*
%TD*%
D25*
%TO.C,J3*%
X15825000Y26300000D03*
X15825000Y25650000D03*
X15825000Y25000000D03*
X15825000Y24350000D03*
X15825000Y23700000D03*
D26*
X18500000Y28300000D03*
D27*
X16050000Y28200000D03*
D28*
X18500000Y26200000D03*
X18500000Y23800000D03*
D27*
X16050000Y21800000D03*
D26*
X18500000Y21700000D03*
%TD*%
D29*
%TO.C,D5*%
X5400000Y3200000D03*
X5400000Y1800000D03*
%TD*%
D13*
%TO.C,R21*%
X5410000Y11800000D03*
X4390000Y11800000D03*
%TD*%
D30*
%TO.C,Q5*%
X7100000Y1050000D03*
X7100000Y2950000D03*
X8975000Y2000000D03*
%TD*%
D12*
%TO.C,C18*%
X8250000Y9100000D03*
X6350000Y9100000D03*
%TD*%
D13*
%TO.C,R42*%
X6310000Y27600000D03*
X5290000Y27600000D03*
%TD*%
%TO.C,R53*%
X3410000Y31037500D03*
X2390000Y31037500D03*
%TD*%
D14*
%TO.C,R34*%
X16940000Y13500000D03*
X17960000Y13500000D03*
%TD*%
D31*
%TO.C,U4*%
X17475000Y16225000D03*
X17475000Y17575000D03*
X16125000Y16225000D03*
X16125000Y17575000D03*
D32*
X18750000Y17900000D03*
X18750000Y17400000D03*
X18750000Y16900000D03*
X18750000Y16400000D03*
X18750000Y15900000D03*
D33*
X17800000Y14950000D03*
X17300000Y14950000D03*
X16800000Y14950000D03*
X16300000Y14950000D03*
X15800000Y14950000D03*
D32*
X14850000Y15900000D03*
X14850000Y16400000D03*
X14850000Y16900000D03*
X14850000Y17400000D03*
X14850000Y17900000D03*
D33*
X15800000Y18850000D03*
X16300000Y18850000D03*
X16800000Y18850000D03*
X17300000Y18850000D03*
X17800000Y18850000D03*
%TD*%
D34*
%TO.C,C5*%
X11100000Y28080000D03*
X11100000Y27120000D03*
%TD*%
D24*
%TO.C,C22*%
X8975000Y16700000D03*
X7425000Y16700000D03*
%TD*%
D11*
%TO.C,R20*%
X13300000Y19010000D03*
X13300000Y17990000D03*
%TD*%
D22*
%TO.C,R18*%
X5200000Y35990000D03*
X5200000Y37010000D03*
%TD*%
D14*
%TO.C,R9*%
X4890000Y12800000D03*
X5910000Y12800000D03*
%TD*%
D22*
%TO.C,R41*%
X11800000Y3590000D03*
X11800000Y4610000D03*
%TD*%
D35*
%TO.C,U6*%
X6927951Y13150000D03*
X6927951Y13650000D03*
X6927951Y14150000D03*
D36*
X6927951Y14650000D03*
D37*
X7327951Y15300000D03*
X7827951Y15300000D03*
X8327951Y15300000D03*
D38*
X8827951Y15300000D03*
D39*
X8827951Y14400000D03*
D40*
X8677951Y13900000D03*
D41*
X8827951Y13400000D03*
D38*
X8827951Y12500000D03*
X8327951Y12500000D03*
X7827951Y12500000D03*
D37*
X7327951Y12500000D03*
%TD*%
D42*
%TO.C,Q2*%
X2275000Y10475000D03*
X2275000Y11175000D03*
D43*
X1300000Y9900000D03*
D44*
X1300000Y10865000D03*
D43*
X1300000Y11750000D03*
%TD*%
D45*
%TO.C,U7*%
X8775000Y31062500D03*
X10625000Y31062500D03*
X8775000Y32912500D03*
X10625000Y32912500D03*
D46*
X11450000Y29537500D03*
X10950000Y29537500D03*
X10450000Y29537500D03*
X9950000Y29537500D03*
X9450000Y29537500D03*
X8950000Y29537500D03*
X8450000Y29537500D03*
X7950000Y29537500D03*
D47*
X7250000Y30237500D03*
X7250000Y30737500D03*
X7250000Y31237500D03*
X7250000Y31737500D03*
X7250000Y32237500D03*
X7250000Y32737500D03*
X7250000Y33237500D03*
X7250000Y33737500D03*
D46*
X7950000Y34437500D03*
X8450000Y34437500D03*
X8950000Y34437500D03*
X9450000Y34437500D03*
X9950000Y34437500D03*
X10450000Y34437500D03*
X10950000Y34437500D03*
X11450000Y34437500D03*
D47*
X12150000Y33737500D03*
X12150000Y33237500D03*
X12150000Y32737500D03*
X12150000Y32237500D03*
X12150000Y31737500D03*
X12150000Y31237500D03*
X12150000Y30737500D03*
X12150000Y30237500D03*
%TD*%
D23*
%TO.C,C21*%
X5900000Y13940000D03*
X5900000Y14900000D03*
%TD*%
D14*
%TO.C,R50*%
X1990000Y33185000D03*
X3010000Y33185000D03*
%TD*%
D13*
%TO.C,R33*%
X17960000Y12300000D03*
X16940000Y12300000D03*
%TD*%
D48*
%TO.C,D4*%
X1500000Y8500000D03*
X1500000Y5700000D03*
%TD*%
D49*
%TO.C,C10*%
X13050000Y4100000D03*
X14950000Y4100000D03*
%TD*%
D13*
%TO.C,R46*%
X14210000Y24700000D03*
X13190000Y24700000D03*
%TD*%
D12*
%TO.C,C23*%
X8950000Y18500000D03*
X7050000Y18500000D03*
%TD*%
D50*
%TO.C,Q3*%
X1925000Y16090000D03*
X1925000Y15390000D03*
D51*
X2900000Y16665000D03*
D52*
X2900000Y15700000D03*
D51*
X2900000Y14815000D03*
%TD*%
D53*
%TO.C,R43*%
X3225000Y13565000D03*
X1575000Y13565000D03*
%TD*%
%TO.C,R44*%
X15025000Y1600000D03*
X13375000Y1600000D03*
%TD*%
D42*
%TO.C,Q1*%
X4275000Y6150000D03*
X4275000Y6850000D03*
D43*
X3300000Y5575000D03*
D44*
X3300000Y6540000D03*
D43*
X3300000Y7425000D03*
%TD*%
D11*
%TO.C,R55*%
X6200000Y35810000D03*
X6200000Y34790000D03*
%TD*%
D14*
%TO.C,R37*%
X1990000Y32100000D03*
X3010000Y32100000D03*
%TD*%
D12*
%TO.C,C19*%
X8150000Y7100000D03*
X6250000Y7100000D03*
%TD*%
D54*
%TO.C,U1*%
X9675000Y24787500D03*
X8375000Y24787500D03*
X9675000Y23487500D03*
X8375000Y23487500D03*
D55*
X8050000Y26075000D03*
X8700000Y26075000D03*
X9350000Y26075000D03*
X10000000Y26075000D03*
D56*
X10962500Y25112500D03*
X10962500Y24462500D03*
X10962500Y23812500D03*
X10962500Y23162500D03*
D55*
X10000000Y22200000D03*
X9350000Y22200000D03*
X8700000Y22200000D03*
X8050000Y22200000D03*
D56*
X7087500Y23162500D03*
X7087500Y23812500D03*
X7087500Y24462500D03*
X7087500Y25112500D03*
%TD*%
D13*
%TO.C,R30*%
X18110000Y34700000D03*
X17090000Y34700000D03*
%TD*%
%TO.C,R32*%
X5410000Y10800000D03*
X4390000Y10800000D03*
%TD*%
D34*
%TO.C,C27*%
X13300000Y29980000D03*
X13300000Y29020000D03*
%TD*%
%TO.C,C7*%
X5900000Y25580000D03*
X5900000Y24620000D03*
%TD*%
D13*
%TO.C,R48*%
X1910000Y27037500D03*
X890000Y27037500D03*
%TD*%
%TO.C,R45*%
X6310000Y28600000D03*
X5290000Y28600000D03*
%TD*%
D34*
%TO.C,C30*%
X15485000Y32745000D03*
X15485000Y31785000D03*
%TD*%
D11*
%TO.C,R7*%
X5800000Y19110000D03*
X5800000Y18090000D03*
%TD*%
D23*
%TO.C,C26*%
X7600000Y35720000D03*
X7600000Y36680000D03*
%TD*%
D10*
%TO.C,Q11*%
X1950000Y29475000D03*
X3850000Y29475000D03*
X2900000Y27600000D03*
%TD*%
D20*
%TO.C,C29*%
X16845000Y20015000D03*
X15885000Y20015000D03*
%TD*%
D13*
%TO.C,R52*%
X3260000Y21660000D03*
X2240000Y21660000D03*
%TD*%
D57*
%TO.C,L3*%
X11400000Y13000000D03*
X11400000Y15800000D03*
%TD*%
D22*
%TO.C,R10*%
X5900000Y4590000D03*
X5900000Y5610000D03*
%TD*%
D13*
%TO.C,R31*%
X15710000Y34100000D03*
X14690000Y34100000D03*
%TD*%
D22*
%TO.C,R6*%
X9800000Y10590000D03*
X9800000Y11610000D03*
%TD*%
D49*
%TO.C,C11*%
X11150000Y11100000D03*
X13050000Y11100000D03*
%TD*%
D13*
%TO.C,R36*%
X5000000Y34250000D03*
X3980000Y34250000D03*
%TD*%
D20*
%TO.C,C28*%
X18030000Y11000000D03*
X17070000Y11000000D03*
%TD*%
D13*
%TO.C,R19*%
X9410000Y38400000D03*
X8390000Y38400000D03*
%TD*%
D21*
%TO.C,C8*%
X8620000Y27200000D03*
X9580000Y27200000D03*
%TD*%
D13*
%TO.C,R22*%
X12710000Y38600000D03*
X11690000Y38600000D03*
%TD*%
D11*
%TO.C,R47*%
X14070000Y23455000D03*
X14070000Y22435000D03*
%TD*%
D22*
%TO.C,R17*%
X7100000Y38390000D03*
X7100000Y39410000D03*
%TD*%
D50*
%TO.C,Q12*%
X1825000Y25527500D03*
X1825000Y24827500D03*
D51*
X2800000Y26102500D03*
D52*
X2800000Y25137500D03*
D51*
X2800000Y24252500D03*
%TD*%
D13*
%TO.C,R23*%
X12710000Y36200000D03*
X11690000Y36200000D03*
%TD*%
D34*
%TO.C,C4*%
X12100000Y28080000D03*
X12100000Y27120000D03*
%TD*%
D58*
%TO.C,U2*%
X13250000Y9100000D03*
D59*
X13162500Y7600000D03*
D58*
X13250000Y6100000D03*
%TD*%
D60*
%TO.C,C25*%
X10700000Y20350000D03*
X10700000Y18450000D03*
%TD*%
D61*
%TO.C,Y1*%
X14500000Y33050000D03*
X14500000Y31950000D03*
X13700000Y31950000D03*
X13700000Y33050000D03*
%TD*%
D22*
%TO.C,R39*%
X15300000Y5590000D03*
X15300000Y6610000D03*
%TD*%
%TO.C,R8*%
X6200000Y15890000D03*
X6200000Y16910000D03*
%TD*%
D53*
%TO.C,R49*%
X3025000Y23037500D03*
X1375000Y23037500D03*
%TD*%
D62*
%TO.C,U9*%
X16825000Y32937500D03*
X17775000Y32937500D03*
X18725000Y32937500D03*
X18725000Y30662500D03*
X17775000Y30662500D03*
X16825000Y30662500D03*
%TD*%
M02*
