M48
; DRILL file KiCad 10.0.5 date 2026-08-29T19:51:17
; FORMAT={-:-/ absolute / inch / decimal}
; #@! TF.CreationDate,2026-08-29T19:51:17-07:00
; #@! TF.GenerationSoftware,Kicad,Pcbnew,10.0.5
; #@! TF.FileFunction,Plated,1,4,PTH
FMAT,2
INCH
; #@! TA.AperFunction,Plated,PTH,ComponentDrill
T1C0.0079
; #@! TA.AperFunction,Plated,PTH,ComponentDrill
T2C0.0197
; #@! TA.AperFunction,Plated,PTH,ComponentDrill
T3C0.0866
%
G90
G05
T1
X0.2283Y0.7303
X0.2717Y0.7303
T2
X0.1969Y0.9281
X0.1969Y0.8789
X0.2047Y0.5955
X0.2047Y0.5463
X0.2047Y0.497
X0.2047Y0.4478
X0.3396Y0.185
X0.3888Y0.185
X0.438Y0.185
X0.4872Y0.185
X0.6447Y0.185
X0.6939Y0.185
X0.7431Y0.185
X0.7923Y0.185
X0.9961Y0.9144
X0.9961Y0.8652
X0.9961Y0.8159
X0.9961Y0.7667
X0.9961Y0.6053
X0.9961Y0.5561
X0.9961Y0.5069
X0.9961Y0.4577
T3
X0.1083Y1.8602
X0.1083Y0.1083
X1.0728Y1.8602
X1.0728Y0.0984
T2
G00X1.1358Y1.3071
M15
G01X1.1083Y1.3071
M16
G05
G00X1.1358Y1.0472
M15
G01X1.1083Y1.0472
M16
G05
M30
