%TF.GenerationSoftware,KiCad,Pcbnew,10.0.5*%
%TF.CreationDate,2026-08-29T19:51:17-07:00*%
%TF.ProjectId,witnessv0.1,7769746e-6573-4737-9630-2e312e6b6963,rev?*%
%TF.SameCoordinates,Original*%
%TF.FileFunction,Soldermask,Top*%
%TF.FilePolarity,Negative*%
%FSLAX46Y46*%
G04 Gerber Fmt 4.6, Leading zero omitted, Abs format (unit mm)*
G04 Created by KiCad (PCBNEW 10.0.5) date 2026-08-29 19:51:17*
%MOMM*%
%LPD*%
G01*
G04 APERTURE LIST*
G04 Aperture macros list*
%AMRoundRect*
0 Rectangle with rounded corners*
0 $1 Rounding radius*
0 $2 $3 $4 $5 $6 $7 $8 $9 X,Y pos of 4 corners*
0 Add a 4 corners polygon primitive as box body*
4,1,4,$2,$3,$4,$5,$6,$7,$8,$9,$2,$3,0*
0 Add four circle primitives for the rounded corners*
1,1,$1+$1,$2,$3*
1,1,$1+$1,$4,$5*
1,1,$1+$1,$6,$7*
1,1,$1+$1,$8,$9*
0 Add four rect primitives between the rounded corners*
20,1,$1+$1,$2,$3,$4,$5,0*
20,1,$1+$1,$4,$5,$6,$7,0*
20,1,$1+$1,$6,$7,$8,$9,0*
20,1,$1+$1,$8,$9,$2,$3,0*%
%AMFreePoly0*
4,1,23,0.550000,-0.750000,0.000000,-0.750000,0.000000,-0.745722,-0.065263,-0.745722,-0.191342,-0.711940,-0.304381,-0.646677,-0.396677,-0.554381,-0.461940,-0.441342,-0.495722,-0.315263,-0.495722,-0.250000,-0.500000,-0.250000,-0.500000,0.250000,-0.495722,0.250000,-0.495722,0.315263,-0.461940,0.441342,-0.396677,0.554381,-0.304381,0.646677,-0.191342,0.711940,-0.065263,0.745722,0.000000,0.745722,
0.000000,0.750000,0.550000,0.750000,0.550000,-0.750000,0.550000,-0.750000,$1*%
%AMFreePoly1*
4,1,23,0.000000,0.745722,0.065263,0.745722,0.191342,0.711940,0.304381,0.646677,0.396677,0.554381,0.461940,0.441342,0.495722,0.315263,0.495722,0.250000,0.500000,0.250000,0.500000,-0.250000,0.495722,-0.250000,0.495722,-0.315263,0.461940,-0.441342,0.396677,-0.554381,0.304381,-0.646677,0.191342,-0.711940,0.065263,-0.745722,0.000000,-0.745722,0.000000,-0.750000,-0.550000,-0.750000,
-0.550000,0.750000,0.000000,0.750000,0.000000,0.745722,0.000000,0.745722,$1*%
%AMFreePoly2*
4,1,23,0.500000,-0.750000,0.000000,-0.750000,0.000000,-0.745722,-0.065263,-0.745722,-0.191342,-0.711940,-0.304381,-0.646677,-0.396677,-0.554381,-0.461940,-0.441342,-0.495722,-0.315263,-0.495722,-0.250000,-0.500000,-0.250000,-0.500000,0.250000,-0.495722,0.250000,-0.495722,0.315263,-0.461940,0.441342,-0.396677,0.554381,-0.304381,0.646677,-0.191342,0.711940,-0.065263,0.745722,0.000000,0.745722,
0.000000,0.750000,0.500000,0.750000,0.500000,-0.750000,0.500000,-0.750000,$1*%
%AMFreePoly3*
4,1,23,0.000000,0.745722,0.065263,0.745722,0.191342,0.711940,0.304381,0.646677,0.396677,0.554381,0.461940,0.441342,0.495722,0.315263,0.495722,0.250000,0.500000,0.250000,0.500000,-0.250000,0.495722,-0.250000,0.495722,-0.315263,0.461940,-0.441342,0.396677,-0.554381,0.304381,-0.646677,0.191342,-0.711940,0.065263,-0.745722,0.000000,-0.745722,0.000000,-0.750000,-0.500000,-0.750000,
-0.500000,0.750000,0.000000,0.750000,0.000000,0.745722,0.000000,0.745722,$1*%
G04 Aperture macros list end*
%ADD10R,2.000000X1.500000*%
%ADD11FreePoly0,90.000000*%
%ADD12R,1.500000X1.000000*%
%ADD13FreePoly1,90.000000*%
%ADD14RoundRect,0.200000X-0.450000X0.200000X-0.450000X-0.200000X0.450000X-0.200000X0.450000X0.200000X0*%
%ADD15O,1.300000X0.800000*%
%ADD16RoundRect,0.200000X0.450000X-0.200000X0.450000X0.200000X-0.450000X0.200000X-0.450000X-0.200000X0*%
%ADD17FreePoly2,0.000000*%
%ADD18FreePoly3,0.000000*%
%ADD19RoundRect,0.200000X-0.200000X-0.450000X0.200000X-0.450000X0.200000X0.450000X-0.200000X0.450000X0*%
%ADD20O,0.800000X1.300000*%
%ADD21FreePoly2,90.000000*%
%ADD22FreePoly3,90.000000*%
%ADD23C,3.800000*%
%ADD24RoundRect,0.218750X-0.256250X0.218750X-0.256250X-0.218750X0.256250X-0.218750X0.256250X0.218750X0*%
%ADD25R,2.900000X0.800000*%
%ADD26R,3.200000X0.800000*%
%ADD27FreePoly0,0.000000*%
%ADD28R,1.000000X1.500000*%
%ADD29FreePoly1,0.000000*%
%ADD30RoundRect,0.175000X-0.250000X-0.175000X0.250000X-0.175000X0.250000X0.175000X-0.250000X0.175000X0*%
%ADD31R,1.300000X3.400000*%
%ADD32RoundRect,0.218750X-0.218750X-0.256250X0.218750X-0.256250X0.218750X0.256250X-0.218750X0.256250X0*%
%ADD33O,1.600000X0.900000*%
G04 APERTURE END LIST*
%TO.C,JP6*%
G36*
X2250000Y39250000D02*
G01*
X3750000Y39250000D01*
X3750000Y37750000D01*
X2250000Y37750000D01*
X2250000Y39250000D01*
G37*
%TO.C,JP4*%
G36*
X21950000Y12050000D02*
G01*
X23450000Y12050000D01*
X23450000Y10550000D01*
X21950000Y10550000D01*
X21950000Y12050000D01*
G37*
%TO.C,J4*%
G36*
X1450000Y28250000D02*
G01*
X1750000Y28250000D01*
X1750000Y26750000D01*
X1450000Y26750000D01*
X1450000Y28250000D01*
G37*
%TO.C,J1*%
G36*
X26750000Y41350000D02*
G01*
X28250000Y41350000D01*
X28250000Y41050000D01*
X26750000Y41050000D01*
X26750000Y41350000D01*
G37*
%TO.C,JP3*%
G36*
X7500000Y15550000D02*
G01*
X9000000Y15550000D01*
X9000000Y14050000D01*
X7500000Y14050000D01*
X7500000Y15550000D01*
G37*
%TO.C,JP5*%
G36*
X21707500Y17250000D02*
G01*
X23207500Y17250000D01*
X23207500Y15750000D01*
X21707500Y15750000D01*
X21707500Y17250000D01*
G37*
%TO.C,JP1*%
G36*
X7750000Y8250000D02*
G01*
X9250000Y8250000D01*
X9250000Y6750000D01*
X7750000Y6750000D01*
X7750000Y8250000D01*
G37*
%TO.C,JP2*%
G36*
X15550000Y8300000D02*
G01*
X17050000Y8300000D01*
X17050000Y6800000D01*
X15550000Y6800000D01*
X15550000Y8300000D01*
G37*
%TD*%
D10*
%TO.C,U10*%
X7250000Y46350000D03*
X7250000Y44350000D03*
X7250000Y42350000D03*
X7250000Y40350000D03*
X7250000Y38350000D03*
X7250000Y36350000D03*
X7250000Y34350000D03*
X7250000Y32350000D03*
X23250000Y32350000D03*
X23250000Y34350000D03*
X23250000Y36350000D03*
X23250000Y38350000D03*
X23250000Y40350000D03*
X23250000Y42350000D03*
X23250000Y44350000D03*
X23250000Y46350000D03*
%TD*%
D11*
%TO.C,JP6*%
X3000000Y37200000D03*
D12*
X3000000Y38500000D03*
D13*
X3000000Y39800000D03*
%TD*%
D11*
%TO.C,JP4*%
X22700000Y10000000D03*
D12*
X22700000Y11300000D03*
D13*
X22700000Y12600000D03*
%TD*%
D14*
%TO.C,J7*%
X5200000Y15125000D03*
D15*
X5200000Y13875000D03*
X5200000Y12625000D03*
X5200000Y11375000D03*
%TD*%
D16*
%TO.C,J9*%
X25300000Y19475000D03*
D15*
X25300000Y20725000D03*
X25300000Y21975000D03*
X25300000Y23225000D03*
%TD*%
D17*
%TO.C,J4*%
X950000Y27500000D03*
D18*
X2250000Y27500000D03*
%TD*%
D19*
%TO.C,J5*%
X8625000Y4700000D03*
D20*
X9875000Y4700000D03*
X11125000Y4700000D03*
X12375000Y4700000D03*
%TD*%
D21*
%TO.C,J1*%
X27500000Y40550000D03*
D22*
X27500000Y41850000D03*
%TD*%
D19*
%TO.C,J6*%
X16375000Y4700000D03*
D20*
X17625000Y4700000D03*
X18875000Y4700000D03*
X20125000Y4700000D03*
%TD*%
D23*
%TO.C,H6*%
X2750000Y47250000D03*
%TD*%
%TO.C,H5*%
X27250000Y2500000D03*
%TD*%
D24*
%TO.C,D3*%
X3100000Y19337500D03*
X3100000Y17762500D03*
%TD*%
D11*
%TO.C,JP3*%
X8250000Y13500000D03*
D12*
X8250000Y14800000D03*
D13*
X8250000Y16100000D03*
%TD*%
D11*
%TO.C,JP5*%
X22457500Y15200000D03*
D12*
X22457500Y16500000D03*
D13*
X22457500Y17800000D03*
%TD*%
D25*
%TO.C,J10*%
X9800000Y27750000D03*
X9800000Y26650000D03*
D26*
X9650000Y25550000D03*
D25*
X9800000Y24450000D03*
D26*
X9650000Y23350000D03*
D25*
X9800000Y22250000D03*
X9800000Y21150000D03*
X9800000Y20050000D03*
%TD*%
D27*
%TO.C,JP1*%
X7200000Y7500000D03*
D28*
X8500000Y7500000D03*
D29*
X9800000Y7500000D03*
%TD*%
D30*
%TO.C,D1*%
X5750000Y28900000D03*
X5750000Y28000000D03*
X4300000Y28000000D03*
X4300000Y28900000D03*
%TD*%
D27*
%TO.C,JP2*%
X15000000Y7550000D03*
D28*
X16300000Y7550000D03*
D29*
X17600000Y7550000D03*
%TD*%
D14*
%TO.C,J2*%
X5000000Y23575000D03*
D15*
X5000000Y22325000D03*
%TD*%
D23*
%TO.C,H7*%
X27250000Y47250000D03*
%TD*%
D31*
%TO.C,BZ1*%
X10450000Y13650000D03*
X19150000Y13650000D03*
%TD*%
D32*
%TO.C,D2*%
X3825000Y12050000D03*
X5400000Y12050000D03*
%TD*%
D16*
%TO.C,J8*%
X25300000Y11625000D03*
D15*
X25300000Y12875000D03*
X25300000Y14125000D03*
X25300000Y15375000D03*
%TD*%
D23*
%TO.C,H4*%
X2750000Y2750000D03*
%TD*%
D33*
%TO.C,J3*%
X28500000Y33200000D03*
X28500000Y26600000D03*
%TD*%
M02*
