%TF.GenerationSoftware,KiCad,Pcbnew,10.0.4*%
%TF.CreationDate,2026-09-06T21:52:29-07:00*%
%TF.ProjectId,witness,7769746e-6573-4732-9e6b-696361645f70,rev?*%
%TF.SameCoordinates,Original*%
%TF.FileFunction,Legend,Bot*%
%TF.FilePolarity,Positive*%
%FSLAX46Y46*%
G04 Gerber Fmt 4.6, Leading zero omitted, Abs format (unit mm)*
G04 Created by KiCad (PCBNEW 10.0.4) date 2026-09-06 21:52:29*
%MOMM*%
%LPD*%
G01*
G04 APERTURE LIST*
G04 Aperture macros list*
%AMRoundRect*
0 Rectangle with rounded corners*
0 $1 Rounding radius*
0 $2 $3 $4 $5 $6 $7 $8 $9 X,Y pos of 4 corners*
0 Add a 4 corners polygon primitive as box body*
4,1,4,$2,$3,$4,$5,$6,$7,$8,$9,$2,$3,0*
0 Add four circle primitives for the rounded corners*
1,1,$1+$1,$2,$3*
1,1,$1+$1,$4,$5*
1,1,$1+$1,$6,$7*
1,1,$1+$1,$8,$9*
0 Add four rect primitives between the rounded corners*
20,1,$1+$1,$2,$3,$4,$5,0*
20,1,$1+$1,$4,$5,$6,$7,0*
20,1,$1+$1,$6,$7,$8,$9,0*
20,1,$1+$1,$8,$9,$2,$3,0*%
%AMFreePoly0*
4,1,15,1.100000,0.175000,0.750000,0.175000,0.750000,-0.175000,1.100000,-0.175000,1.100000,-0.475000,0.750000,-0.475000,-0.750000,-0.475000,-1.100000,-0.475000,-1.100000,-0.175000,-0.750000,-0.175000,-0.750000,0.175000,-1.100000,0.175000,-1.100000,0.475000,1.100000,0.475000,1.100000,0.175000,1.100000,0.175000,$1*%
%AMFreePoly1*
4,1,9,3.862500,-0.866500,0.737500,-0.866500,0.737500,-0.450000,-0.737500,-0.450000,-0.737500,0.450000,0.737500,0.450000,0.737500,0.866500,3.862500,0.866500,3.862500,-0.866500,3.862500,-0.866500,$1*%
G04 Aperture macros list end*
%ADD10C,0.200000*%
%ADD11C,0.250000*%
%ADD12C,0.120000*%
%ADD13C,0.100000*%
%ADD14RoundRect,0.200000X0.450000X-0.200000X0.450000X0.200000X-0.450000X0.200000X-0.450000X-0.200000X0*%
%ADD15O,1.300000X0.800000*%
%ADD16RoundRect,0.200000X-0.200000X-0.450000X0.200000X-0.450000X0.200000X0.450000X-0.200000X0.450000X0*%
%ADD17O,0.800000X1.300000*%
%ADD18C,3.800000*%
%ADD19RoundRect,0.200000X-0.450000X0.200000X-0.450000X-0.200000X0.450000X-0.200000X0.450000X0.200000X0*%
%ADD20RoundRect,0.140000X0.140000X0.170000X-0.140000X0.170000X-0.140000X-0.170000X0.140000X-0.170000X0*%
%ADD21RoundRect,0.125000X0.125000X-0.200000X0.125000X0.200000X-0.125000X0.200000X-0.125000X-0.200000X0*%
%ADD22R,4.300000X3.400000*%
%ADD23RoundRect,0.135000X-0.185000X0.135000X-0.185000X-0.135000X0.185000X-0.135000X0.185000X0.135000X0*%
%ADD24RoundRect,0.087500X-0.087500X0.337500X-0.087500X-0.337500X0.087500X-0.337500X0.087500X0.337500X0*%
%ADD25R,2.400000X1.650000*%
%ADD26RoundRect,0.100000X-0.575000X0.100000X-0.575000X-0.100000X0.575000X-0.100000X0.575000X0.100000X0*%
%ADD27O,1.600000X0.900000*%
%ADD28RoundRect,0.250000X-0.450000X0.550000X-0.450000X-0.550000X0.450000X-0.550000X0.450000X0.550000X0*%
%ADD29RoundRect,0.250000X-0.700000X0.700000X-0.700000X-0.700000X0.700000X-0.700000X0.700000X0.700000X0*%
%ADD30RoundRect,0.140000X0.170000X-0.140000X0.170000X0.140000X-0.170000X0.140000X-0.170000X-0.140000X0*%
%ADD31RoundRect,0.140000X-0.170000X0.140000X-0.170000X-0.140000X0.170000X-0.140000X0.170000X0.140000X0*%
%ADD32RoundRect,0.225000X0.250000X-0.225000X0.250000X0.225000X-0.250000X0.225000X-0.250000X-0.225000X0*%
%ADD33RoundRect,0.135000X-0.135000X-0.185000X0.135000X-0.185000X0.135000X0.185000X-0.135000X0.185000X0*%
%ADD34RoundRect,0.150000X0.150000X-0.587500X0.150000X0.587500X-0.150000X0.587500X-0.150000X-0.587500X0*%
%ADD35RoundRect,0.135000X0.185000X-0.135000X0.185000X0.135000X-0.185000X0.135000X-0.185000X-0.135000X0*%
%ADD36RoundRect,0.050000X-0.050000X0.350000X-0.050000X-0.350000X0.050000X-0.350000X0.050000X0.350000X0*%
%ADD37RoundRect,0.050000X-0.350000X0.050000X-0.350000X-0.050000X0.350000X-0.050000X0.350000X0.050000X0*%
%ADD38R,4.000000X4.000000*%
%ADD39FreePoly0,0.000000*%
%ADD40RoundRect,0.075000X-0.100000X-0.075000X0.100000X-0.075000X0.100000X0.075000X-0.100000X0.075000X0*%
%ADD41RoundRect,0.058750X-0.376250X-0.058750X0.376250X-0.058750X0.376250X0.058750X-0.376250X0.058750X0*%
%ADD42R,0.950000X0.550000*%
%ADD43RoundRect,0.135000X0.135000X0.185000X-0.135000X0.185000X-0.135000X-0.185000X0.135000X-0.185000X0*%
%ADD44RoundRect,0.250000X-0.300000X0.300000X-0.300000X-0.300000X0.300000X-0.300000X0.300000X0.300000X0*%
%ADD45RoundRect,0.250000X-0.475000X0.250000X-0.475000X-0.250000X0.475000X-0.250000X0.475000X0.250000X0*%
%ADD46FreePoly0,90.000000*%
%ADD47RoundRect,0.075000X0.075000X-0.100000X0.075000X0.100000X-0.075000X0.100000X-0.075000X-0.100000X0*%
%ADD48RoundRect,0.058750X0.058750X-0.376250X0.058750X0.376250X-0.058750X0.376250X-0.058750X-0.376250X0*%
%ADD49RoundRect,0.150000X-0.200000X0.150000X-0.200000X-0.150000X0.200000X-0.150000X0.200000X0.150000X0*%
%ADD50RoundRect,0.140000X-0.140000X-0.170000X0.140000X-0.170000X0.140000X0.170000X-0.140000X0.170000X0*%
%ADD51RoundRect,0.150000X0.200000X-0.150000X0.200000X0.150000X-0.200000X0.150000X-0.200000X-0.150000X0*%
%ADD52RoundRect,0.250000X0.250000X0.475000X-0.250000X0.475000X-0.250000X-0.475000X0.250000X-0.475000X0*%
%ADD53RoundRect,0.147500X0.172500X-0.147500X0.172500X0.147500X-0.172500X0.147500X-0.172500X-0.147500X0*%
%ADD54R,0.250000X0.675000*%
%ADD55R,0.675000X0.250000*%
%ADD56RoundRect,0.225000X-0.225000X-0.250000X0.225000X-0.250000X0.225000X0.250000X-0.225000X0.250000X0*%
%ADD57RoundRect,0.225000X-0.425000X-0.225000X0.425000X-0.225000X0.425000X0.225000X-0.425000X0.225000X0*%
%ADD58FreePoly1,0.000000*%
%ADD59R,0.600000X0.500000*%
%ADD60RoundRect,0.150000X-0.150000X0.512500X-0.150000X-0.512500X0.150000X-0.512500X0.150000X0.512500X0*%
G04 APERTURE END LIST*
D10*
X18977945Y25208305D02*
X18977945Y26008305D01*
X18977945Y26008305D02*
X18520802Y25208305D01*
X18520802Y25208305D02*
X18520802Y26008305D01*
X17987469Y26008305D02*
X17835088Y26008305D01*
X17835088Y26008305D02*
X17758898Y25970210D01*
X17758898Y25970210D02*
X17682707Y25894020D01*
X17682707Y25894020D02*
X17644612Y25741639D01*
X17644612Y25741639D02*
X17644612Y25474972D01*
X17644612Y25474972D02*
X17682707Y25322591D01*
X17682707Y25322591D02*
X17758898Y25246400D01*
X17758898Y25246400D02*
X17835088Y25208305D01*
X17835088Y25208305D02*
X17987469Y25208305D01*
X17987469Y25208305D02*
X18063660Y25246400D01*
X18063660Y25246400D02*
X18139850Y25322591D01*
X18139850Y25322591D02*
X18177946Y25474972D01*
X18177946Y25474972D02*
X18177946Y25741639D01*
X18177946Y25741639D02*
X18139850Y25894020D01*
X18139850Y25894020D02*
X18063660Y25970210D01*
X18063660Y25970210D02*
X17987469Y26008305D01*
X16692231Y25208305D02*
X16692231Y26008305D01*
X16692231Y26008305D02*
X16501755Y26008305D01*
X16501755Y26008305D02*
X16387469Y25970210D01*
X16387469Y25970210D02*
X16311279Y25894020D01*
X16311279Y25894020D02*
X16273184Y25817829D01*
X16273184Y25817829D02*
X16235088Y25665448D01*
X16235088Y25665448D02*
X16235088Y25551162D01*
X16235088Y25551162D02*
X16273184Y25398781D01*
X16273184Y25398781D02*
X16311279Y25322591D01*
X16311279Y25322591D02*
X16387469Y25246400D01*
X16387469Y25246400D02*
X16501755Y25208305D01*
X16501755Y25208305D02*
X16692231Y25208305D01*
X15930327Y25436877D02*
X15549374Y25436877D01*
X16006517Y25208305D02*
X15739850Y26008305D01*
X15739850Y26008305D02*
X15473184Y25208305D01*
X15320803Y26008305D02*
X14863660Y26008305D01*
X15092232Y25208305D02*
X15092232Y26008305D01*
X14635089Y25436877D02*
X14254136Y25436877D01*
X14711279Y25208305D02*
X14444612Y26008305D01*
X14444612Y26008305D02*
X14177946Y25208305D01*
X13796994Y25284496D02*
X13758898Y25246400D01*
X13758898Y25246400D02*
X13796994Y25208305D01*
X13796994Y25208305D02*
X13835089Y25246400D01*
X13835089Y25246400D02*
X13796994Y25284496D01*
X13796994Y25284496D02*
X13796994Y25208305D01*
X13949375Y25970210D02*
X13873184Y26008305D01*
X13873184Y26008305D02*
X13682708Y26008305D01*
X13682708Y26008305D02*
X13606517Y25970210D01*
X13606517Y25970210D02*
X13568422Y25894020D01*
X13568422Y25894020D02*
X13568422Y25817829D01*
X13568422Y25817829D02*
X13606517Y25741639D01*
X13606517Y25741639D02*
X13644613Y25703543D01*
X13644613Y25703543D02*
X13720803Y25665448D01*
X13720803Y25665448D02*
X13758898Y25627353D01*
X13758898Y25627353D02*
X13796994Y25551162D01*
X13796994Y25551162D02*
X13796994Y25513067D01*
X5422054Y37703741D02*
X5422054Y36903741D01*
X5422054Y36903741D02*
X5612530Y36903741D01*
X5612530Y36903741D02*
X5726816Y36941836D01*
X5726816Y36941836D02*
X5803006Y37018026D01*
X5803006Y37018026D02*
X5841101Y37094217D01*
X5841101Y37094217D02*
X5879197Y37246598D01*
X5879197Y37246598D02*
X5879197Y37360884D01*
X5879197Y37360884D02*
X5841101Y37513265D01*
X5841101Y37513265D02*
X5803006Y37589455D01*
X5803006Y37589455D02*
X5726816Y37665645D01*
X5726816Y37665645D02*
X5612530Y37703741D01*
X5612530Y37703741D02*
X5422054Y37703741D01*
X6222054Y37284693D02*
X6488720Y37284693D01*
X6603006Y37703741D02*
X6222054Y37703741D01*
X6222054Y37703741D02*
X6222054Y36903741D01*
X6222054Y36903741D02*
X6603006Y36903741D01*
X6907768Y37665645D02*
X7022054Y37703741D01*
X7022054Y37703741D02*
X7212530Y37703741D01*
X7212530Y37703741D02*
X7288721Y37665645D01*
X7288721Y37665645D02*
X7326816Y37627550D01*
X7326816Y37627550D02*
X7364911Y37551360D01*
X7364911Y37551360D02*
X7364911Y37475169D01*
X7364911Y37475169D02*
X7326816Y37398979D01*
X7326816Y37398979D02*
X7288721Y37360884D01*
X7288721Y37360884D02*
X7212530Y37322788D01*
X7212530Y37322788D02*
X7060149Y37284693D01*
X7060149Y37284693D02*
X6983959Y37246598D01*
X6983959Y37246598D02*
X6945864Y37208503D01*
X6945864Y37208503D02*
X6907768Y37132312D01*
X6907768Y37132312D02*
X6907768Y37056122D01*
X6907768Y37056122D02*
X6945864Y36979931D01*
X6945864Y36979931D02*
X6983959Y36941836D01*
X6983959Y36941836D02*
X7060149Y36903741D01*
X7060149Y36903741D02*
X7250626Y36903741D01*
X7250626Y36903741D02*
X7364911Y36941836D01*
X7707769Y37703741D02*
X7707769Y36903741D01*
X8507768Y36941836D02*
X8431578Y36903741D01*
X8431578Y36903741D02*
X8317292Y36903741D01*
X8317292Y36903741D02*
X8203006Y36941836D01*
X8203006Y36941836D02*
X8126816Y37018026D01*
X8126816Y37018026D02*
X8088721Y37094217D01*
X8088721Y37094217D02*
X8050625Y37246598D01*
X8050625Y37246598D02*
X8050625Y37360884D01*
X8050625Y37360884D02*
X8088721Y37513265D01*
X8088721Y37513265D02*
X8126816Y37589455D01*
X8126816Y37589455D02*
X8203006Y37665645D01*
X8203006Y37665645D02*
X8317292Y37703741D01*
X8317292Y37703741D02*
X8393483Y37703741D01*
X8393483Y37703741D02*
X8507768Y37665645D01*
X8507768Y37665645D02*
X8545864Y37627550D01*
X8545864Y37627550D02*
X8545864Y37360884D01*
X8545864Y37360884D02*
X8393483Y37360884D01*
X8888721Y37703741D02*
X8888721Y36903741D01*
X8888721Y36903741D02*
X9345864Y37703741D01*
X9345864Y37703741D02*
X9345864Y36903741D01*
X9726816Y37284693D02*
X9993482Y37284693D01*
X10107768Y37703741D02*
X9726816Y37703741D01*
X9726816Y37703741D02*
X9726816Y36903741D01*
X9726816Y36903741D02*
X10107768Y36903741D01*
X10450626Y37703741D02*
X10450626Y36903741D01*
X10450626Y36903741D02*
X10641102Y36903741D01*
X10641102Y36903741D02*
X10755388Y36941836D01*
X10755388Y36941836D02*
X10831578Y37018026D01*
X10831578Y37018026D02*
X10869673Y37094217D01*
X10869673Y37094217D02*
X10907769Y37246598D01*
X10907769Y37246598D02*
X10907769Y37360884D01*
X10907769Y37360884D02*
X10869673Y37513265D01*
X10869673Y37513265D02*
X10831578Y37589455D01*
X10831578Y37589455D02*
X10755388Y37665645D01*
X10755388Y37665645D02*
X10641102Y37703741D01*
X10641102Y37703741D02*
X10450626Y37703741D01*
X12126816Y37284693D02*
X12241102Y37322788D01*
X12241102Y37322788D02*
X12279197Y37360884D01*
X12279197Y37360884D02*
X12317293Y37437074D01*
X12317293Y37437074D02*
X12317293Y37551360D01*
X12317293Y37551360D02*
X12279197Y37627550D01*
X12279197Y37627550D02*
X12241102Y37665645D01*
X12241102Y37665645D02*
X12164912Y37703741D01*
X12164912Y37703741D02*
X11860150Y37703741D01*
X11860150Y37703741D02*
X11860150Y36903741D01*
X11860150Y36903741D02*
X12126816Y36903741D01*
X12126816Y36903741D02*
X12203007Y36941836D01*
X12203007Y36941836D02*
X12241102Y36979931D01*
X12241102Y36979931D02*
X12279197Y37056122D01*
X12279197Y37056122D02*
X12279197Y37132312D01*
X12279197Y37132312D02*
X12241102Y37208503D01*
X12241102Y37208503D02*
X12203007Y37246598D01*
X12203007Y37246598D02*
X12126816Y37284693D01*
X12126816Y37284693D02*
X11860150Y37284693D01*
X12812531Y37322788D02*
X12812531Y37703741D01*
X12545864Y36903741D02*
X12812531Y37322788D01*
X12812531Y37322788D02*
X13079197Y36903741D01*
X13345864Y37627550D02*
X13383959Y37665645D01*
X13383959Y37665645D02*
X13345864Y37703741D01*
X13345864Y37703741D02*
X13307768Y37665645D01*
X13307768Y37665645D02*
X13345864Y37627550D01*
X13345864Y37627550D02*
X13345864Y37703741D01*
X13345864Y37208503D02*
X13383959Y37246598D01*
X13383959Y37246598D02*
X13345864Y37284693D01*
X13345864Y37284693D02*
X13307768Y37246598D01*
X13307768Y37246598D02*
X13345864Y37208503D01*
X13345864Y37208503D02*
X13345864Y37284693D01*
X5422054Y38572648D02*
X5688720Y38572648D01*
X5803006Y38991696D02*
X5422054Y38991696D01*
X5422054Y38991696D02*
X5422054Y38191696D01*
X5422054Y38191696D02*
X5803006Y38191696D01*
X6145864Y38915505D02*
X6183959Y38953600D01*
X6183959Y38953600D02*
X6145864Y38991696D01*
X6145864Y38991696D02*
X6107768Y38953600D01*
X6107768Y38953600D02*
X6145864Y38915505D01*
X6145864Y38915505D02*
X6145864Y38991696D01*
X7098244Y38953600D02*
X7212530Y38991696D01*
X7212530Y38991696D02*
X7403006Y38991696D01*
X7403006Y38991696D02*
X7479197Y38953600D01*
X7479197Y38953600D02*
X7517292Y38915505D01*
X7517292Y38915505D02*
X7555387Y38839315D01*
X7555387Y38839315D02*
X7555387Y38763124D01*
X7555387Y38763124D02*
X7517292Y38686934D01*
X7517292Y38686934D02*
X7479197Y38648839D01*
X7479197Y38648839D02*
X7403006Y38610743D01*
X7403006Y38610743D02*
X7250625Y38572648D01*
X7250625Y38572648D02*
X7174435Y38534553D01*
X7174435Y38534553D02*
X7136340Y38496458D01*
X7136340Y38496458D02*
X7098244Y38420267D01*
X7098244Y38420267D02*
X7098244Y38344077D01*
X7098244Y38344077D02*
X7136340Y38267886D01*
X7136340Y38267886D02*
X7174435Y38229791D01*
X7174435Y38229791D02*
X7250625Y38191696D01*
X7250625Y38191696D02*
X7441102Y38191696D01*
X7441102Y38191696D02*
X7555387Y38229791D01*
X8050626Y38191696D02*
X8203007Y38191696D01*
X8203007Y38191696D02*
X8279197Y38229791D01*
X8279197Y38229791D02*
X8355388Y38305981D01*
X8355388Y38305981D02*
X8393483Y38458362D01*
X8393483Y38458362D02*
X8393483Y38725029D01*
X8393483Y38725029D02*
X8355388Y38877410D01*
X8355388Y38877410D02*
X8279197Y38953600D01*
X8279197Y38953600D02*
X8203007Y38991696D01*
X8203007Y38991696D02*
X8050626Y38991696D01*
X8050626Y38991696D02*
X7974435Y38953600D01*
X7974435Y38953600D02*
X7898245Y38877410D01*
X7898245Y38877410D02*
X7860149Y38725029D01*
X7860149Y38725029D02*
X7860149Y38458362D01*
X7860149Y38458362D02*
X7898245Y38305981D01*
X7898245Y38305981D02*
X7974435Y38229791D01*
X7974435Y38229791D02*
X8050626Y38191696D01*
X8736340Y38991696D02*
X8736340Y38191696D01*
X8736340Y38572648D02*
X9193483Y38572648D01*
X9193483Y38991696D02*
X9193483Y38191696D01*
X9574435Y38991696D02*
X9574435Y38191696D01*
X9574435Y38191696D02*
X10031578Y38991696D01*
X10031578Y38991696D02*
X10031578Y38191696D01*
D11*
X6014619Y13938283D02*
X6728904Y13938283D01*
X6728904Y13938283D02*
X6871761Y13890664D01*
X6871761Y13890664D02*
X6967000Y13795426D01*
X6967000Y13795426D02*
X7014619Y13652569D01*
X7014619Y13652569D02*
X7014619Y13557331D01*
X7014619Y14890664D02*
X7014619Y14414474D01*
X7014619Y14414474D02*
X6014619Y14414474D01*
X6919380Y15795426D02*
X6967000Y15747807D01*
X6967000Y15747807D02*
X7014619Y15604950D01*
X7014619Y15604950D02*
X7014619Y15509712D01*
X7014619Y15509712D02*
X6967000Y15366855D01*
X6967000Y15366855D02*
X6871761Y15271617D01*
X6871761Y15271617D02*
X6776523Y15223998D01*
X6776523Y15223998D02*
X6586047Y15176379D01*
X6586047Y15176379D02*
X6443190Y15176379D01*
X6443190Y15176379D02*
X6252714Y15223998D01*
X6252714Y15223998D02*
X6157476Y15271617D01*
X6157476Y15271617D02*
X6062238Y15366855D01*
X6062238Y15366855D02*
X6014619Y15509712D01*
X6014619Y15509712D02*
X6014619Y15604950D01*
X6014619Y15604950D02*
X6062238Y15747807D01*
X6062238Y15747807D02*
X6109857Y15795426D01*
X6014619Y16509712D02*
X6728904Y16509712D01*
X6728904Y16509712D02*
X6871761Y16462093D01*
X6871761Y16462093D02*
X6967000Y16366855D01*
X6967000Y16366855D02*
X7014619Y16223998D01*
X7014619Y16223998D02*
X7014619Y16128760D01*
X7014619Y17462093D02*
X7014619Y16985903D01*
X7014619Y16985903D02*
X6014619Y16985903D01*
X6919380Y18366855D02*
X6967000Y18319236D01*
X6967000Y18319236D02*
X7014619Y18176379D01*
X7014619Y18176379D02*
X7014619Y18081141D01*
X7014619Y18081141D02*
X6967000Y17938284D01*
X6967000Y17938284D02*
X6871761Y17843046D01*
X6871761Y17843046D02*
X6776523Y17795427D01*
X6776523Y17795427D02*
X6586047Y17747808D01*
X6586047Y17747808D02*
X6443190Y17747808D01*
X6443190Y17747808D02*
X6252714Y17795427D01*
X6252714Y17795427D02*
X6157476Y17843046D01*
X6157476Y17843046D02*
X6062238Y17938284D01*
X6062238Y17938284D02*
X6014619Y18081141D01*
X6014619Y18081141D02*
X6014619Y18176379D01*
X6014619Y18176379D02*
X6062238Y18319236D01*
X6062238Y18319236D02*
X6109857Y18366855D01*
X6014619Y19081141D02*
X6728904Y19081141D01*
X6728904Y19081141D02*
X6871761Y19033522D01*
X6871761Y19033522D02*
X6967000Y18938284D01*
X6967000Y18938284D02*
X7014619Y18795427D01*
X7014619Y18795427D02*
X7014619Y18700189D01*
X7014619Y20033522D02*
X7014619Y19557332D01*
X7014619Y19557332D02*
X6014619Y19557332D01*
X6919380Y20938284D02*
X6967000Y20890665D01*
X6967000Y20890665D02*
X7014619Y20747808D01*
X7014619Y20747808D02*
X7014619Y20652570D01*
X7014619Y20652570D02*
X6967000Y20509713D01*
X6967000Y20509713D02*
X6871761Y20414475D01*
X6871761Y20414475D02*
X6776523Y20366856D01*
X6776523Y20366856D02*
X6586047Y20319237D01*
X6586047Y20319237D02*
X6443190Y20319237D01*
X6443190Y20319237D02*
X6252714Y20366856D01*
X6252714Y20366856D02*
X6157476Y20414475D01*
X6157476Y20414475D02*
X6062238Y20509713D01*
X6062238Y20509713D02*
X6014619Y20652570D01*
X6014619Y20652570D02*
X6014619Y20747808D01*
X6014619Y20747808D02*
X6062238Y20890665D01*
X6062238Y20890665D02*
X6109857Y20938284D01*
X6014619Y21652570D02*
X6728904Y21652570D01*
X6728904Y21652570D02*
X6871761Y21604951D01*
X6871761Y21604951D02*
X6967000Y21509713D01*
X6967000Y21509713D02*
X7014619Y21366856D01*
X7014619Y21366856D02*
X7014619Y21271618D01*
X7014619Y22604951D02*
X7014619Y22128761D01*
X7014619Y22128761D02*
X6014619Y22128761D01*
X6919380Y23509713D02*
X6967000Y23462094D01*
X6967000Y23462094D02*
X7014619Y23319237D01*
X7014619Y23319237D02*
X7014619Y23223999D01*
X7014619Y23223999D02*
X6967000Y23081142D01*
X6967000Y23081142D02*
X6871761Y22985904D01*
X6871761Y22985904D02*
X6776523Y22938285D01*
X6776523Y22938285D02*
X6586047Y22890666D01*
X6586047Y22890666D02*
X6443190Y22890666D01*
X6443190Y22890666D02*
X6252714Y22938285D01*
X6252714Y22938285D02*
X6157476Y22985904D01*
X6157476Y22985904D02*
X6062238Y23081142D01*
X6062238Y23081142D02*
X6014619Y23223999D01*
X6014619Y23223999D02*
X6014619Y23319237D01*
X6014619Y23319237D02*
X6062238Y23462094D01*
X6062238Y23462094D02*
X6109857Y23509713D01*
%TO.C,C32*%
D12*
X4907836Y32860000D02*
X4692164Y32860000D01*
X4907836Y32140000D02*
X4692164Y32140000D01*
%TO.C,U8*%
X13325000Y32560000D02*
X13325000Y24340000D01*
X13325000Y24340000D02*
X14020000Y24340000D01*
X14020000Y32560000D02*
X13325000Y32560000D01*
X18850000Y24340000D02*
X19545000Y24340000D01*
X19545000Y32560000D02*
X18850000Y32560000D01*
X19545000Y24340000D02*
X19545000Y32560000D01*
X18345000Y24110000D02*
X18105000Y23780000D01*
X18585000Y23780000D01*
X18345000Y24110000D01*
G36*
X18585000Y23780000D02*
G01*
X18105000Y23780000D01*
X18345000Y24110000D01*
X18585000Y23780000D01*
G37*
%TO.C,R35*%
X7720000Y2903641D02*
X7720000Y2596359D01*
X8480000Y2903641D02*
X8480000Y2596359D01*
%TO.C,U5*%
X15815000Y10210000D02*
X15815000Y6990000D01*
X15815000Y6990000D02*
X16015000Y6990000D01*
X16015000Y10210000D02*
X15815000Y10210000D01*
X18835000Y6990000D02*
X19035000Y6990000D01*
X19035000Y10210000D02*
X18835000Y10210000D01*
X19035000Y6990000D02*
X19035000Y10210000D01*
X16445000Y10740000D02*
X16685000Y11070000D01*
X16205000Y11070000D01*
X16445000Y10740000D01*
G36*
X16445000Y10740000D02*
G01*
X16205000Y11070000D01*
X16685000Y11070000D01*
X16445000Y10740000D01*
G37*
%TO.C,J3*%
X14865000Y19475000D02*
X14865000Y20135000D01*
X15065000Y22635000D02*
X15065000Y20135000D01*
X15065000Y22635000D02*
X19425000Y22635000D01*
X15065000Y20135000D02*
X14865000Y20135000D01*
X15065000Y16615000D02*
X15065000Y14115000D01*
X15065000Y14115000D02*
X19425000Y14115000D01*
%TO.C,C3*%
X2507836Y26360000D02*
X2292164Y26360000D01*
X2507836Y25640000D02*
X2292164Y25640000D01*
%TO.C,C38*%
X492500Y19294664D02*
X492500Y19510336D01*
X1212500Y19294664D02*
X1212500Y19510336D01*
%TO.C,C6*%
X9090000Y22887836D02*
X9090000Y22672164D01*
X9810000Y22887836D02*
X9810000Y22672164D01*
%TO.C,C31*%
X7290000Y34259420D02*
X7290000Y34540580D01*
X8310000Y34259420D02*
X8310000Y34540580D01*
%TO.C,R21*%
X4620000Y11953641D02*
X4620000Y11646359D01*
X5380000Y11953641D02*
X5380000Y11646359D01*
%TO.C,C33*%
X4907836Y35660000D02*
X4692164Y35660000D01*
X4907836Y34940000D02*
X4692164Y34940000D01*
%TO.C,R34*%
X12646359Y13580000D02*
X12953641Y13580000D01*
X12646359Y12820000D02*
X12953641Y12820000D01*
%TO.C,C5*%
X2507836Y32160000D02*
X2292164Y32160000D01*
X2507836Y31440000D02*
X2292164Y31440000D01*
%TO.C,R27*%
X1296359Y25430000D02*
X1603641Y25430000D01*
X1296359Y24670000D02*
X1603641Y24670000D01*
%TO.C,Q11*%
X11140000Y3760000D02*
X11140000Y2240000D01*
X11140000Y2240000D02*
X11190000Y2240000D01*
X12140000Y3760000D02*
X11140000Y3760000D01*
X12310000Y2240000D02*
X13090000Y2240000D01*
X14210000Y2240000D02*
X14260000Y2240000D01*
X14260000Y3760000D02*
X13260000Y3760000D01*
X14260000Y2240000D02*
X14260000Y3760000D01*
X13080000Y1700000D02*
X12750000Y1940000D01*
X12750000Y1460000D01*
X13080000Y1700000D01*
G36*
X13080000Y1700000D02*
G01*
X12750000Y1460000D01*
X12750000Y1940000D01*
X13080000Y1700000D01*
G37*
%TO.C,R20*%
X3420000Y11536359D02*
X3420000Y11843641D01*
X4180000Y11536359D02*
X4180000Y11843641D01*
%TO.C,R18*%
X9620000Y17053641D02*
X9620000Y16746359D01*
X10380000Y17053641D02*
X10380000Y16746359D01*
%TO.C,U1*%
X4340000Y31410000D02*
X4340000Y30760000D01*
X4340000Y24840000D02*
X4340000Y24190000D01*
X4340000Y24190000D02*
X4990000Y24190000D01*
X4990000Y31410000D02*
X4340000Y31410000D01*
X10910000Y24190000D02*
X11560000Y24190000D01*
X11560000Y31410000D02*
X10910000Y31410000D01*
X11560000Y30760000D02*
X11560000Y31410000D01*
X11560000Y24190000D02*
X11560000Y24840000D01*
X5350000Y31910000D02*
X5590000Y32240000D01*
X5110000Y32240000D01*
X5350000Y31910000D01*
G36*
X5350000Y31910000D02*
G01*
X5110000Y32240000D01*
X5590000Y32240000D01*
X5350000Y31910000D01*
G37*
%TO.C,Q2*%
X1430000Y5275000D02*
X3200000Y5275000D01*
X3200000Y7575000D02*
X1200000Y7575000D01*
X1110000Y5365000D02*
X830000Y5365000D01*
X1110000Y5085000D01*
X1110000Y5365000D01*
G36*
X1110000Y5085000D02*
G01*
X830000Y5365000D01*
X1110000Y5365000D01*
X1110000Y5085000D01*
G37*
%TO.C,U7*%
X1675000Y23325000D02*
X1675000Y22825000D01*
X1975000Y18125000D02*
X2725000Y18125000D01*
X2175000Y23325000D02*
X1675000Y23325000D01*
X4475000Y18125000D02*
X4975000Y18125000D01*
X4975000Y23325000D02*
X4475000Y23325000D01*
X4975000Y22825000D02*
X4975000Y23325000D01*
X4975000Y18125000D02*
X4975000Y18625000D01*
X1775000Y18125000D02*
X1415000Y18125000D01*
X1775000Y17765000D01*
X1775000Y18125000D01*
G36*
X1775000Y17765000D02*
G01*
X1415000Y18125000D01*
X1775000Y18125000D01*
X1775000Y17765000D01*
G37*
%TO.C,R33*%
X12953641Y14780000D02*
X12646359Y14780000D01*
X12953641Y14020000D02*
X12646359Y14020000D01*
%TO.C,D4*%
X1100000Y12310000D02*
X1100000Y8450000D01*
X1100000Y12310000D02*
X3100000Y12310000D01*
X3100000Y12310000D02*
X3100000Y8450000D01*
%TO.C,R25*%
X1553641Y28330000D02*
X1246359Y28330000D01*
X1553641Y27570000D02*
X1246359Y27570000D01*
%TO.C,C37*%
X1240000Y14892164D02*
X1240000Y15107836D01*
X1960000Y14892164D02*
X1960000Y15107836D01*
%TO.C,C10*%
X5965000Y9661252D02*
X5965000Y9138748D01*
X7435000Y9661252D02*
X7435000Y9138748D01*
%TO.C,R51*%
X14046359Y12480000D02*
X14353641Y12480000D01*
X14046359Y11720000D02*
X14353641Y11720000D01*
%TO.C,Q1*%
X3800000Y7150000D02*
X3800000Y5150000D01*
X6100000Y5380000D02*
X6100000Y7150000D01*
X6010000Y5060000D02*
X6010000Y4780000D01*
X6290000Y5060000D01*
X6010000Y5060000D01*
G36*
X6010000Y4780000D02*
G01*
X6010000Y5060000D01*
X6290000Y5060000D01*
X6010000Y4780000D01*
G37*
%TO.C,R37*%
X5646359Y1580000D02*
X5953641Y1580000D01*
X5646359Y820000D02*
X5953641Y820000D01*
%TO.C,D5*%
X5200000Y3800000D02*
X5200000Y1840000D01*
X6400000Y3800000D02*
X6400000Y1840000D01*
X6400000Y1840000D02*
X5200000Y1840000D01*
%TO.C,C7*%
X640000Y29292164D02*
X640000Y29507836D01*
X1360000Y29292164D02*
X1360000Y29507836D01*
%TO.C,C42*%
X14142164Y35160000D02*
X14357836Y35160000D01*
X14142164Y34440000D02*
X14357836Y34440000D01*
%TO.C,R30*%
X12920000Y22446359D02*
X12920000Y22753641D01*
X13680000Y22446359D02*
X13680000Y22753641D01*
%TO.C,R32*%
X6553641Y12680000D02*
X6246359Y12680000D01*
X6553641Y11920000D02*
X6246359Y11920000D01*
%TO.C,C36*%
X2465336Y17760000D02*
X2249664Y17760000D01*
X2465336Y17040000D02*
X2249664Y17040000D01*
%TO.C,D6*%
X11600000Y7460000D02*
X12800000Y7460000D01*
X11600000Y5500000D02*
X11600000Y7460000D01*
X12800000Y5500000D02*
X12800000Y7460000D01*
%TO.C,C12*%
X9736252Y14230000D02*
X9213748Y14230000D01*
X9736252Y12760000D02*
X9213748Y12760000D01*
%TO.C,R24*%
X1246359Y27330000D02*
X1553641Y27330000D01*
X1246359Y26570000D02*
X1553641Y26570000D01*
%TO.C,C26*%
X12240000Y27907836D02*
X12240000Y27692164D01*
X12960000Y27907836D02*
X12960000Y27692164D01*
%TO.C,C27*%
X10090000Y22887836D02*
X10090000Y22672164D01*
X10810000Y22887836D02*
X10810000Y22672164D01*
%TO.C,R31*%
X11870000Y22456359D02*
X11870000Y22763641D01*
X12630000Y22456359D02*
X12630000Y22763641D01*
%TO.C,C11*%
X9761252Y7235000D02*
X9238748Y7235000D01*
X9761252Y5765000D02*
X9238748Y5765000D01*
%TO.C,R36*%
X8970000Y2596359D02*
X8970000Y2903641D01*
X9730000Y2596359D02*
X9730000Y2903641D01*
%TO.C,C28*%
X17307836Y11910000D02*
X17092164Y11910000D01*
X17307836Y11190000D02*
X17092164Y11190000D01*
%TO.C,R19*%
X10620000Y16553641D02*
X10620000Y16246359D01*
X11380000Y16553641D02*
X11380000Y16246359D01*
%TO.C,C30*%
X6240000Y33492164D02*
X6240000Y33707836D01*
X6960000Y33492164D02*
X6960000Y33707836D01*
%TO.C,R26*%
X1603641Y24480000D02*
X1296359Y24480000D01*
X1603641Y23720000D02*
X1296359Y23720000D01*
%TO.C,C35*%
X17542836Y33760000D02*
X17327164Y33760000D01*
X17542836Y33040000D02*
X17327164Y33040000D01*
%TO.C,R22*%
X12353641Y38980000D02*
X12046359Y38980000D01*
X12353641Y38220000D02*
X12046359Y38220000D01*
%TO.C,R28*%
X11746359Y33780000D02*
X12053641Y33780000D01*
X11746359Y33020000D02*
X12053641Y33020000D01*
%TO.C,R38*%
X13715000Y16198641D02*
X13715000Y15891359D01*
X14475000Y16198641D02*
X14475000Y15891359D01*
%TO.C,R17*%
X8620000Y17253641D02*
X8620000Y16946359D01*
X9380000Y17253641D02*
X9380000Y16946359D01*
%TO.C,R29*%
X12053641Y34780000D02*
X11746359Y34780000D01*
X12053641Y34020000D02*
X11746359Y34020000D01*
%TO.C,U4*%
D13*
X2350000Y16600000D02*
X2350000Y15880000D01*
X2350000Y13400000D02*
X2350000Y14120000D01*
X2350000Y13400000D02*
X2570000Y13400000D01*
X2570000Y16600000D02*
X2350000Y16600000D01*
X5050000Y16600000D02*
X4830000Y16600000D01*
X5050000Y15880000D02*
X5050000Y16600000D01*
X5050000Y13600000D02*
X5050000Y14120000D01*
X5050000Y13400000D02*
X5050000Y13040000D01*
X5410000Y13400000D01*
X5050000Y13400000D01*
G36*
X5050000Y13040000D02*
G01*
X5050000Y13400000D01*
X5410000Y13400000D01*
X5050000Y13040000D01*
G37*
%TO.C,R23*%
D12*
X12046359Y36580000D02*
X12353641Y36580000D01*
X12046359Y35820000D02*
X12353641Y35820000D01*
%TO.C,C4*%
X2507836Y31160000D02*
X2292164Y31160000D01*
X2507836Y30440000D02*
X2292164Y30440000D01*
%TO.C,C41*%
X14259420Y34110000D02*
X14540580Y34110000D01*
X14259420Y33090000D02*
X14540580Y33090000D01*
%TO.C,U2*%
X9680000Y7640000D02*
X12260000Y7640000D01*
X12260000Y12360000D02*
X9540000Y12360000D01*
X12260000Y11380000D02*
X12260000Y12360000D01*
X12260000Y8620000D02*
X12260000Y7640000D01*
X9130000Y7790000D02*
X8890000Y7460000D01*
X9370000Y7460000D01*
X9130000Y7790000D01*
G36*
X9370000Y7460000D02*
G01*
X8890000Y7460000D01*
X9130000Y7790000D01*
X9370000Y7460000D01*
G37*
%TO.C,Y1*%
X1600000Y30200000D02*
X3450000Y30200000D01*
X1600000Y28750000D02*
X1600000Y30200000D01*
%TO.C,R39*%
X17453641Y6280000D02*
X17146359Y6280000D01*
X17453641Y5520000D02*
X17146359Y5520000D01*
%TO.C,U9*%
X11340000Y20310000D02*
X11340000Y18490000D01*
X11340000Y18490000D02*
X11390000Y18490000D01*
X11390000Y20310000D02*
X11340000Y20310000D01*
X14410000Y18490000D02*
X14460000Y18490000D01*
X14460000Y20310000D02*
X14410000Y20310000D01*
X14460000Y18490000D02*
X14460000Y20310000D01*
X11390000Y20850000D02*
X11060000Y21090000D01*
X11060000Y20610000D01*
X11390000Y20850000D01*
G36*
X11390000Y20850000D02*
G01*
X11060000Y20610000D01*
X11060000Y21090000D01*
X11390000Y20850000D01*
G37*
%TD*%
%LPC*%
D14*
%TO.C,J6*%
X14300000Y7225000D03*
D15*
X14300000Y8475000D03*
X14300000Y9725000D03*
X14300000Y10975000D03*
%TD*%
D16*
%TO.C,J5*%
X6925000Y4700000D03*
D17*
X8175000Y4700000D03*
X9425000Y4700000D03*
X10675000Y4700000D03*
%TD*%
D18*
%TO.C,H6*%
X2750000Y37500000D03*
%TD*%
%TO.C,H5*%
X17500000Y3000000D03*
%TD*%
D19*
%TO.C,J2*%
X4600000Y9500000D03*
D15*
X4600000Y8250000D03*
%TD*%
D18*
%TO.C,H7*%
X17000000Y37500000D03*
%TD*%
%TO.C,H4*%
X2750000Y2750000D03*
%TD*%
D20*
%TO.C,C32*%
X5280000Y32500000D03*
X4320000Y32500000D03*
%TD*%
D21*
%TO.C,U8*%
X18340000Y24700000D03*
X17070000Y24700000D03*
X15800000Y24700000D03*
X14530000Y24700000D03*
X14530000Y32200000D03*
X15800000Y32200000D03*
X17070000Y32200000D03*
X18340000Y32200000D03*
D22*
X16435000Y28450000D03*
%TD*%
D23*
%TO.C,R35*%
X8100000Y3260000D03*
X8100000Y2240000D03*
%TD*%
D24*
%TO.C,U5*%
X16450000Y10050000D03*
X17100000Y10050000D03*
X17750000Y10050000D03*
X18400000Y10050000D03*
X18400000Y7150000D03*
X17750000Y7150000D03*
X17100000Y7150000D03*
X16450000Y7150000D03*
D25*
X17425000Y8600000D03*
%TD*%
D26*
%TO.C,J3*%
X15800000Y19675000D03*
X15800000Y19025000D03*
X15800000Y18375000D03*
X15800000Y17725000D03*
X15800000Y17075000D03*
D27*
X18475000Y21675000D03*
D28*
X16025000Y21575000D03*
D29*
X18475000Y19575000D03*
X18475000Y17175000D03*
D28*
X16025000Y15175000D03*
D27*
X18475000Y15075000D03*
%TD*%
D20*
%TO.C,C3*%
X2880000Y26000000D03*
X1920000Y26000000D03*
%TD*%
D30*
%TO.C,C38*%
X852500Y18922500D03*
X852500Y19882500D03*
%TD*%
D31*
%TO.C,C6*%
X9450000Y23260000D03*
X9450000Y22300000D03*
%TD*%
D32*
%TO.C,C31*%
X7800000Y33625000D03*
X7800000Y35175000D03*
%TD*%
D23*
%TO.C,R21*%
X5000000Y12310000D03*
X5000000Y11290000D03*
%TD*%
D20*
%TO.C,C33*%
X5280000Y35300000D03*
X4320000Y35300000D03*
%TD*%
D33*
%TO.C,R34*%
X12290000Y13200000D03*
X13310000Y13200000D03*
%TD*%
D20*
%TO.C,C5*%
X2880000Y31800000D03*
X1920000Y31800000D03*
%TD*%
D33*
%TO.C,R27*%
X940000Y25050000D03*
X1960000Y25050000D03*
%TD*%
D34*
%TO.C,Q11*%
X13650000Y2062500D03*
X11750000Y2062500D03*
X12700000Y3937500D03*
%TD*%
D35*
%TO.C,R20*%
X3800000Y11180000D03*
X3800000Y12200000D03*
%TD*%
D23*
%TO.C,R18*%
X10000000Y17410000D03*
X10000000Y16390000D03*
%TD*%
D36*
%TO.C,U1*%
X5350000Y31250000D03*
X5750000Y31250000D03*
X6150000Y31250000D03*
X6550000Y31250000D03*
X6950000Y31250000D03*
X7350000Y31250000D03*
X7750000Y31250000D03*
X8150000Y31250000D03*
X8550000Y31250000D03*
X8950000Y31250000D03*
X9350000Y31250000D03*
X9750000Y31250000D03*
X10150000Y31250000D03*
X10550000Y31250000D03*
D37*
X11400000Y30400000D03*
X11400000Y30000000D03*
X11400000Y29600000D03*
X11400000Y29200000D03*
X11400000Y28800000D03*
X11400000Y28400000D03*
X11400000Y28000000D03*
X11400000Y27600000D03*
X11400000Y27200000D03*
X11400000Y26800000D03*
X11400000Y26400000D03*
X11400000Y26000000D03*
X11400000Y25600000D03*
X11400000Y25200000D03*
D36*
X10550000Y24350000D03*
X10150000Y24350000D03*
X9750000Y24350000D03*
X9350000Y24350000D03*
X8950000Y24350000D03*
X8550000Y24350000D03*
X8150000Y24350000D03*
X7750000Y24350000D03*
X7350000Y24350000D03*
X6950000Y24350000D03*
X6550000Y24350000D03*
X6150000Y24350000D03*
X5750000Y24350000D03*
X5350000Y24350000D03*
D37*
X4500000Y25200000D03*
X4500000Y25600000D03*
X4500000Y26000000D03*
X4500000Y26400000D03*
X4500000Y26800000D03*
X4500000Y27200000D03*
X4500000Y27600000D03*
X4500000Y28000000D03*
X4500000Y28400000D03*
X4500000Y28800000D03*
X4500000Y29200000D03*
X4500000Y29600000D03*
X4500000Y30000000D03*
X4500000Y30400000D03*
D38*
X7950000Y27800000D03*
%TD*%
D39*
%TO.C,Q2*%
X2200000Y6100000D03*
D40*
X1275000Y7075000D03*
D41*
X2240000Y7075000D03*
D40*
X3125000Y7075000D03*
%TD*%
D42*
%TO.C,U7*%
X2250000Y18850000D03*
X2250000Y20100000D03*
X2250000Y21350000D03*
X2250000Y22600000D03*
X4400000Y22600000D03*
X4400000Y21350000D03*
X4400000Y20100000D03*
X4400000Y18850000D03*
%TD*%
D43*
%TO.C,R33*%
X13310000Y14400000D03*
X12290000Y14400000D03*
%TD*%
D44*
%TO.C,D4*%
X2100000Y11500000D03*
X2100000Y8700000D03*
%TD*%
D43*
%TO.C,R25*%
X1910000Y27950000D03*
X890000Y27950000D03*
%TD*%
D30*
%TO.C,C37*%
X1600000Y14520000D03*
X1600000Y15480000D03*
%TD*%
D45*
%TO.C,C10*%
X6700000Y10350000D03*
X6700000Y8450000D03*
%TD*%
D33*
%TO.C,R51*%
X13690000Y12100000D03*
X14710000Y12100000D03*
%TD*%
D46*
%TO.C,Q1*%
X5275000Y6150000D03*
D47*
X4300000Y5225000D03*
D48*
X4300000Y6190000D03*
D47*
X4300000Y7075000D03*
%TD*%
D33*
%TO.C,R37*%
X5290000Y1200000D03*
X6310000Y1200000D03*
%TD*%
D49*
%TO.C,D5*%
X5800000Y2400000D03*
X5800000Y3800000D03*
%TD*%
D30*
%TO.C,C7*%
X1000000Y28920000D03*
X1000000Y29880000D03*
%TD*%
D50*
%TO.C,C42*%
X13770000Y34800000D03*
X14730000Y34800000D03*
%TD*%
D35*
%TO.C,R30*%
X13300000Y22090000D03*
X13300000Y23110000D03*
%TD*%
D43*
%TO.C,R32*%
X6910000Y12300000D03*
X5890000Y12300000D03*
%TD*%
D20*
%TO.C,C36*%
X2837500Y17400000D03*
X1877500Y17400000D03*
%TD*%
D51*
%TO.C,D6*%
X12200000Y6900000D03*
X12200000Y5500000D03*
%TD*%
D52*
%TO.C,C12*%
X10425000Y13495000D03*
X8525000Y13495000D03*
%TD*%
D33*
%TO.C,R24*%
X890000Y26950000D03*
X1910000Y26950000D03*
%TD*%
D31*
%TO.C,C26*%
X12600000Y28280000D03*
X12600000Y27320000D03*
%TD*%
%TO.C,C27*%
X10450000Y23260000D03*
X10450000Y22300000D03*
%TD*%
D35*
%TO.C,R31*%
X12250000Y22100000D03*
X12250000Y23120000D03*
%TD*%
D52*
%TO.C,C11*%
X10450000Y6500000D03*
X8550000Y6500000D03*
%TD*%
D35*
%TO.C,R36*%
X9350000Y2240000D03*
X9350000Y3260000D03*
%TD*%
D53*
%TO.C,Le1*%
X5300000Y33415000D03*
X5300000Y34385000D03*
%TD*%
D20*
%TO.C,C28*%
X17680000Y11550000D03*
X16720000Y11550000D03*
%TD*%
D23*
%TO.C,R19*%
X11000000Y16910000D03*
X11000000Y15890000D03*
%TD*%
D30*
%TO.C,C30*%
X6600000Y33120000D03*
X6600000Y34080000D03*
%TD*%
D43*
%TO.C,R26*%
X1960000Y24100000D03*
X940000Y24100000D03*
%TD*%
D20*
%TO.C,C35*%
X17915000Y33400000D03*
X16955000Y33400000D03*
%TD*%
D43*
%TO.C,R22*%
X12710000Y38600000D03*
X11690000Y38600000D03*
%TD*%
D33*
%TO.C,R28*%
X11390000Y33400000D03*
X12410000Y33400000D03*
%TD*%
D23*
%TO.C,R38*%
X14095000Y16555000D03*
X14095000Y15535000D03*
%TD*%
%TO.C,R17*%
X9000000Y17610000D03*
X9000000Y16590000D03*
%TD*%
D43*
%TO.C,R29*%
X12410000Y34400000D03*
X11390000Y34400000D03*
%TD*%
D54*
%TO.C,U4*%
X4450000Y13737500D03*
X3950000Y13737500D03*
X3450000Y13737500D03*
X2950000Y13737500D03*
D55*
X2687500Y14500000D03*
X2687500Y15000000D03*
X2687500Y15500000D03*
D54*
X2950000Y16262500D03*
X3450000Y16262500D03*
X3950000Y16262500D03*
X4450000Y16262500D03*
D55*
X4712500Y15500000D03*
X4712500Y15000000D03*
X4712500Y14500000D03*
%TD*%
D33*
%TO.C,R23*%
X11690000Y36200000D03*
X12710000Y36200000D03*
%TD*%
D20*
%TO.C,C4*%
X2880000Y30800000D03*
X1920000Y30800000D03*
%TD*%
D56*
%TO.C,C41*%
X13625000Y33600000D03*
X15175000Y33600000D03*
%TD*%
D57*
%TO.C,U2*%
X8950000Y8500000D03*
D58*
X9037500Y10000000D03*
D57*
X8950000Y11500000D03*
%TD*%
D59*
%TO.C,Y1*%
X2050000Y29800000D03*
X3150000Y29800000D03*
X3150000Y29000000D03*
X2050000Y29000000D03*
%TD*%
D43*
%TO.C,R39*%
X17810000Y5900000D03*
X16790000Y5900000D03*
%TD*%
D60*
%TO.C,U9*%
X11950000Y20537500D03*
X12900000Y20537500D03*
X13850000Y20537500D03*
X13850000Y18262500D03*
X12900000Y18262500D03*
X11950000Y18262500D03*
%TD*%
%LPD*%
M02*
