%TF.GenerationSoftware,KiCad,Pcbnew,10.0.5*%
%TF.CreationDate,2026-09-03T01:35:14-07:00*%
%TF.ProjectId,witness,7769746e-6573-4732-9e6b-696361645f70,rev?*%
%TF.SameCoordinates,Original*%
%TF.FileFunction,Soldermask,Top*%
%TF.FilePolarity,Negative*%
%FSLAX46Y46*%
G04 Gerber Fmt 4.6, Leading zero omitted, Abs format (unit mm)*
G04 Created by KiCad (PCBNEW 10.0.5) date 2026-09-03 01:35:14*
%MOMM*%
%LPD*%
G01*
G04 APERTURE LIST*
G04 Aperture macros list*
%AMRoundRect*
0 Rectangle with rounded corners*
0 $1 Rounding radius*
0 $2 $3 $4 $5 $6 $7 $8 $9 X,Y pos of 4 corners*
0 Add a 4 corners polygon primitive as box body*
4,1,4,$2,$3,$4,$5,$6,$7,$8,$9,$2,$3,0*
0 Add four circle primitives for the rounded corners*
1,1,$1+$1,$2,$3*
1,1,$1+$1,$4,$5*
1,1,$1+$1,$6,$7*
1,1,$1+$1,$8,$9*
0 Add four rect primitives between the rounded corners*
20,1,$1+$1,$2,$3,$4,$5,0*
20,1,$1+$1,$4,$5,$6,$7,0*
20,1,$1+$1,$6,$7,$8,$9,0*
20,1,$1+$1,$8,$9,$2,$3,0*%
%AMFreePoly0*
4,1,23,0.500000,-0.750000,0.000000,-0.750000,0.000000,-0.745722,-0.065263,-0.745722,-0.191342,-0.711940,-0.304381,-0.646677,-0.396677,-0.554381,-0.461940,-0.441342,-0.495722,-0.315263,-0.495722,-0.250000,-0.500000,-0.250000,-0.500000,0.250000,-0.495722,0.250000,-0.495722,0.315263,-0.461940,0.441342,-0.396677,0.554381,-0.304381,0.646677,-0.191342,0.711940,-0.065263,0.745722,0.000000,0.745722,
0.000000,0.750000,0.500000,0.750000,0.500000,-0.750000,0.500000,-0.750000,$1*%
%AMFreePoly1*
4,1,23,0.000000,0.745722,0.065263,0.745722,0.191342,0.711940,0.304381,0.646677,0.396677,0.554381,0.461940,0.441342,0.495722,0.315263,0.495722,0.250000,0.500000,0.250000,0.500000,-0.250000,0.495722,-0.250000,0.495722,-0.315263,0.461940,-0.441342,0.396677,-0.554381,0.304381,-0.646677,0.191342,-0.711940,0.065263,-0.745722,0.000000,-0.745722,0.000000,-0.750000,-0.500000,-0.750000,
-0.500000,0.750000,0.000000,0.750000,0.000000,0.745722,0.000000,0.745722,$1*%
G04 Aperture macros list end*
%ADD10R,1.500000X2.000000*%
%ADD11RoundRect,0.100000X0.400000X-0.400000X0.400000X0.400000X-0.400000X0.400000X-0.400000X-0.400000X0*%
%ADD12RoundRect,0.105000X0.995000X-0.420000X0.995000X0.420000X-0.995000X0.420000X-0.995000X-0.420000X0*%
%ADD13FreePoly0,180.000000*%
%ADD14FreePoly1,180.000000*%
%ADD15RoundRect,0.200000X0.450000X-0.200000X0.450000X0.200000X-0.450000X0.200000X-0.450000X-0.200000X0*%
%ADD16O,1.300000X0.800000*%
%ADD17RoundRect,0.200000X-0.200000X-0.450000X0.200000X-0.450000X0.200000X0.450000X-0.200000X0.450000X0*%
%ADD18O,0.800000X1.300000*%
%ADD19C,3.800000*%
%ADD20RoundRect,0.200000X-0.275000X0.200000X-0.275000X-0.200000X0.275000X-0.200000X0.275000X0.200000X0*%
%ADD21RoundRect,0.175000X-0.250000X-0.175000X0.250000X-0.175000X0.250000X0.175000X-0.250000X0.175000X0*%
%ADD22RoundRect,0.200000X-0.450000X0.200000X-0.450000X-0.200000X0.450000X-0.200000X0.450000X0.200000X0*%
%ADD23R,2.000000X1.200000*%
%ADD24RoundRect,0.218750X0.256250X-0.218750X0.256250X0.218750X-0.256250X0.218750X-0.256250X-0.218750X0*%
%ADD25O,1.600000X0.900000*%
G04 APERTURE END LIST*
%TO.C,J4*%
G36*
X12050000Y36750000D02*
G01*
X12350000Y36750000D01*
X12350000Y35250000D01*
X12050000Y35250000D01*
X12050000Y36750000D01*
G37*
%TO.C,J1*%
G36*
X11950000Y39300000D02*
G01*
X12250000Y39300000D01*
X12250000Y37800000D01*
X11950000Y37800000D01*
X11950000Y39300000D01*
G37*
%TD*%
D10*
%TO.C,U10*%
X18300000Y33250000D03*
X16300000Y33250000D03*
X14300000Y33250000D03*
X12300000Y33250000D03*
X10300000Y33250000D03*
X8300000Y33250000D03*
X6300000Y33250000D03*
X4300000Y33250000D03*
X4300000Y17250000D03*
X6300000Y17250000D03*
X8300000Y17250000D03*
X10300000Y17250000D03*
X12300000Y17250000D03*
X14300000Y17250000D03*
X16300000Y17250000D03*
X18300000Y17250000D03*
%TD*%
D11*
%TO.C,AE1*%
X5900000Y37200000D03*
D12*
X7400000Y38675000D03*
D11*
X8900000Y37200000D03*
D12*
X7400000Y35725000D03*
%TD*%
D13*
%TO.C,J4*%
X12850000Y36000000D03*
D14*
X11550000Y36000000D03*
%TD*%
D15*
%TO.C,J6*%
X14300000Y7225000D03*
D16*
X14300000Y8475000D03*
X14300000Y9725000D03*
X14300000Y10975000D03*
%TD*%
D17*
%TO.C,J5*%
X6925000Y4700000D03*
D18*
X8175000Y4700000D03*
X9425000Y4700000D03*
X10675000Y4700000D03*
%TD*%
D13*
%TO.C,J1*%
X12750000Y38550000D03*
D14*
X11450000Y38550000D03*
%TD*%
D19*
%TO.C,H6*%
X2750000Y37500000D03*
%TD*%
%TO.C,H5*%
X17500000Y3000000D03*
%TD*%
D20*
%TO.C,R13*%
X14300000Y4225000D03*
X14300000Y2575000D03*
%TD*%
D21*
%TO.C,D1*%
X10525000Y14750000D03*
X10525000Y13850000D03*
X9075000Y13850000D03*
X9075000Y14750000D03*
%TD*%
D22*
%TO.C,J2*%
X4600000Y9500000D03*
D16*
X4600000Y8250000D03*
%TD*%
D19*
%TO.C,H7*%
X17000000Y37500000D03*
%TD*%
D23*
%TO.C,BZ1*%
X7750000Y7750000D03*
X11650000Y7750000D03*
X7750000Y10750000D03*
%TD*%
D24*
%TO.C,D2*%
X4800000Y12312500D03*
X4800000Y13887500D03*
%TD*%
D19*
%TO.C,H4*%
X2750000Y2750000D03*
%TD*%
D25*
%TO.C,J3*%
X18475000Y21675000D03*
X18475000Y15075000D03*
%TD*%
M02*
