%TF.GenerationSoftware,KiCad,Pcbnew,10.0.4*%
%TF.CreationDate,2026-09-06T21:52:28-07:00*%
%TF.ProjectId,witness,7769746e-6573-4732-9e6b-696361645f70,rev?*%
%TF.SameCoordinates,Original*%
%TF.FileFunction,Legend,Top*%
%TF.FilePolarity,Positive*%
%FSLAX46Y46*%
G04 Gerber Fmt 4.6, Leading zero omitted, Abs format (unit mm)*
G04 Created by KiCad (PCBNEW 10.0.4) date 2026-09-06 21:52:28*
%MOMM*%
%LPD*%
G01*
G04 APERTURE LIST*
G04 Aperture macros list*
%AMRoundRect*
0 Rectangle with rounded corners*
0 $1 Rounding radius*
0 $2 $3 $4 $5 $6 $7 $8 $9 X,Y pos of 4 corners*
0 Add a 4 corners polygon primitive as box body*
4,1,4,$2,$3,$4,$5,$6,$7,$8,$9,$2,$3,0*
0 Add four circle primitives for the rounded corners*
1,1,$1+$1,$2,$3*
1,1,$1+$1,$4,$5*
1,1,$1+$1,$6,$7*
1,1,$1+$1,$8,$9*
0 Add four rect primitives between the rounded corners*
20,1,$1+$1,$2,$3,$4,$5,0*
20,1,$1+$1,$4,$5,$6,$7,0*
20,1,$1+$1,$6,$7,$8,$9,0*
20,1,$1+$1,$8,$9,$2,$3,0*%
%AMFreePoly0*
4,1,23,0.500000,-0.750000,0.000000,-0.750000,0.000000,-0.745722,-0.065263,-0.745722,-0.191342,-0.711940,-0.304381,-0.646677,-0.396677,-0.554381,-0.461940,-0.441342,-0.495722,-0.315263,-0.495722,-0.250000,-0.500000,-0.250000,-0.500000,0.250000,-0.495722,0.250000,-0.495722,0.315263,-0.461940,0.441342,-0.396677,0.554381,-0.304381,0.646677,-0.191342,0.711940,-0.065263,0.745722,0.000000,0.745722,
0.000000,0.750000,0.500000,0.750000,0.500000,-0.750000,0.500000,-0.750000,$1*%
%AMFreePoly1*
4,1,23,0.000000,0.745722,0.065263,0.745722,0.191342,0.711940,0.304381,0.646677,0.396677,0.554381,0.461940,0.441342,0.495722,0.315263,0.495722,0.250000,0.500000,0.250000,0.500000,-0.250000,0.495722,-0.250000,0.495722,-0.315263,0.461940,-0.441342,0.396677,-0.554381,0.304381,-0.646677,0.191342,-0.711940,0.065263,-0.745722,0.000000,-0.745722,0.000000,-0.750000,-0.500000,-0.750000,
-0.500000,0.750000,0.000000,0.750000,0.000000,0.745722,0.000000,0.745722,$1*%
G04 Aperture macros list end*
%ADD10C,0.200000*%
%ADD11C,0.150000*%
%ADD12C,0.120000*%
%ADD13C,0.100000*%
%ADD14R,1.500000X2.000000*%
%ADD15RoundRect,0.100000X0.400000X-0.400000X0.400000X0.400000X-0.400000X0.400000X-0.400000X-0.400000X0*%
%ADD16RoundRect,0.105000X0.995000X-0.420000X0.995000X0.420000X-0.995000X0.420000X-0.995000X-0.420000X0*%
%ADD17FreePoly0,180.000000*%
%ADD18FreePoly1,180.000000*%
%ADD19RoundRect,0.200000X0.450000X-0.200000X0.450000X0.200000X-0.450000X0.200000X-0.450000X-0.200000X0*%
%ADD20O,1.300000X0.800000*%
%ADD21RoundRect,0.200000X-0.200000X-0.450000X0.200000X-0.450000X0.200000X0.450000X-0.200000X0.450000X0*%
%ADD22O,0.800000X1.300000*%
%ADD23C,3.800000*%
%ADD24RoundRect,0.200000X-0.275000X0.200000X-0.275000X-0.200000X0.275000X-0.200000X0.275000X0.200000X0*%
%ADD25RoundRect,0.175000X-0.250000X-0.175000X0.250000X-0.175000X0.250000X0.175000X-0.250000X0.175000X0*%
%ADD26RoundRect,0.200000X-0.450000X0.200000X-0.450000X-0.200000X0.450000X-0.200000X0.450000X0.200000X0*%
%ADD27R,2.000000X1.200000*%
%ADD28RoundRect,0.218750X0.256250X-0.218750X0.256250X0.218750X-0.256250X0.218750X-0.256250X-0.218750X0*%
%ADD29O,1.600000X0.900000*%
G04 APERTURE END LIST*
D10*
X788720Y11877353D02*
X903006Y11839258D01*
X903006Y11839258D02*
X941101Y11801162D01*
X941101Y11801162D02*
X979197Y11724972D01*
X979197Y11724972D02*
X979197Y11610686D01*
X979197Y11610686D02*
X941101Y11534496D01*
X941101Y11534496D02*
X903006Y11496400D01*
X903006Y11496400D02*
X826816Y11458305D01*
X826816Y11458305D02*
X522054Y11458305D01*
X522054Y11458305D02*
X522054Y12258305D01*
X522054Y12258305D02*
X788720Y12258305D01*
X788720Y12258305D02*
X864911Y12220210D01*
X864911Y12220210D02*
X903006Y12182115D01*
X903006Y12182115D02*
X941101Y12105924D01*
X941101Y12105924D02*
X941101Y12029734D01*
X941101Y12029734D02*
X903006Y11953543D01*
X903006Y11953543D02*
X864911Y11915448D01*
X864911Y11915448D02*
X788720Y11877353D01*
X788720Y11877353D02*
X522054Y11877353D01*
X1283958Y11686877D02*
X1664911Y11686877D01*
X1207768Y11458305D02*
X1474435Y12258305D01*
X1474435Y12258305D02*
X1741101Y11458305D01*
X1893482Y12258305D02*
X2350625Y12258305D01*
X2122053Y11458305D02*
X2122053Y12258305D01*
X2503006Y12258305D02*
X2960149Y12258305D01*
X2731577Y11458305D02*
X2731577Y12258305D01*
X3226816Y11763067D02*
X3836340Y11763067D01*
X3531578Y11458305D02*
X3531578Y12067829D01*
X795863Y15658305D02*
X986339Y14858305D01*
X986339Y14858305D02*
X1138720Y15429734D01*
X1138720Y15429734D02*
X1291101Y14858305D01*
X1291101Y14858305D02*
X1481578Y15658305D01*
X1786340Y14858305D02*
X1786340Y15658305D01*
X2053006Y15658305D02*
X2510149Y15658305D01*
X2281577Y14858305D02*
X2281577Y15658305D01*
X2776816Y14858305D02*
X2776816Y15658305D01*
X2776816Y15658305D02*
X3233959Y14858305D01*
X3233959Y14858305D02*
X3233959Y15658305D01*
X3614911Y15277353D02*
X3881577Y15277353D01*
X3995863Y14858305D02*
X3614911Y14858305D01*
X3614911Y14858305D02*
X3614911Y15658305D01*
X3614911Y15658305D02*
X3995863Y15658305D01*
X4300625Y14896400D02*
X4414911Y14858305D01*
X4414911Y14858305D02*
X4605387Y14858305D01*
X4605387Y14858305D02*
X4681578Y14896400D01*
X4681578Y14896400D02*
X4719673Y14934496D01*
X4719673Y14934496D02*
X4757768Y15010686D01*
X4757768Y15010686D02*
X4757768Y15086877D01*
X4757768Y15086877D02*
X4719673Y15163067D01*
X4719673Y15163067D02*
X4681578Y15201162D01*
X4681578Y15201162D02*
X4605387Y15239258D01*
X4605387Y15239258D02*
X4453006Y15277353D01*
X4453006Y15277353D02*
X4376816Y15315448D01*
X4376816Y15315448D02*
X4338721Y15353543D01*
X4338721Y15353543D02*
X4300625Y15429734D01*
X4300625Y15429734D02*
X4300625Y15505924D01*
X4300625Y15505924D02*
X4338721Y15582115D01*
X4338721Y15582115D02*
X4376816Y15620210D01*
X4376816Y15620210D02*
X4453006Y15658305D01*
X4453006Y15658305D02*
X4643483Y15658305D01*
X4643483Y15658305D02*
X4757768Y15620210D01*
X5062530Y14896400D02*
X5176816Y14858305D01*
X5176816Y14858305D02*
X5367292Y14858305D01*
X5367292Y14858305D02*
X5443483Y14896400D01*
X5443483Y14896400D02*
X5481578Y14934496D01*
X5481578Y14934496D02*
X5519673Y15010686D01*
X5519673Y15010686D02*
X5519673Y15086877D01*
X5519673Y15086877D02*
X5481578Y15163067D01*
X5481578Y15163067D02*
X5443483Y15201162D01*
X5443483Y15201162D02*
X5367292Y15239258D01*
X5367292Y15239258D02*
X5214911Y15277353D01*
X5214911Y15277353D02*
X5138721Y15315448D01*
X5138721Y15315448D02*
X5100626Y15353543D01*
X5100626Y15353543D02*
X5062530Y15429734D01*
X5062530Y15429734D02*
X5062530Y15505924D01*
X5062530Y15505924D02*
X5100626Y15582115D01*
X5100626Y15582115D02*
X5138721Y15620210D01*
X5138721Y15620210D02*
X5214911Y15658305D01*
X5214911Y15658305D02*
X5405388Y15658305D01*
X5405388Y15658305D02*
X5519673Y15620210D01*
X6357769Y15658305D02*
X6624436Y14858305D01*
X6624436Y14858305D02*
X6891102Y15658305D01*
X7576816Y14858305D02*
X7119673Y14858305D01*
X7348245Y14858305D02*
X7348245Y15658305D01*
X7348245Y15658305D02*
X7272054Y15544020D01*
X7272054Y15544020D02*
X7195864Y15467829D01*
X7195864Y15467829D02*
X7119673Y15429734D01*
X12272054Y22458305D02*
X12272054Y23258305D01*
X12272054Y23258305D02*
X12729197Y22458305D01*
X12729197Y22458305D02*
X12729197Y23258305D01*
X13262530Y23258305D02*
X13414911Y23258305D01*
X13414911Y23258305D02*
X13491101Y23220210D01*
X13491101Y23220210D02*
X13567292Y23144020D01*
X13567292Y23144020D02*
X13605387Y22991639D01*
X13605387Y22991639D02*
X13605387Y22724972D01*
X13605387Y22724972D02*
X13567292Y22572591D01*
X13567292Y22572591D02*
X13491101Y22496400D01*
X13491101Y22496400D02*
X13414911Y22458305D01*
X13414911Y22458305D02*
X13262530Y22458305D01*
X13262530Y22458305D02*
X13186339Y22496400D01*
X13186339Y22496400D02*
X13110149Y22572591D01*
X13110149Y22572591D02*
X13072053Y22724972D01*
X13072053Y22724972D02*
X13072053Y22991639D01*
X13072053Y22991639D02*
X13110149Y23144020D01*
X13110149Y23144020D02*
X13186339Y23220210D01*
X13186339Y23220210D02*
X13262530Y23258305D01*
X15014911Y22534496D02*
X14976815Y22496400D01*
X14976815Y22496400D02*
X14862530Y22458305D01*
X14862530Y22458305D02*
X14786339Y22458305D01*
X14786339Y22458305D02*
X14672053Y22496400D01*
X14672053Y22496400D02*
X14595863Y22572591D01*
X14595863Y22572591D02*
X14557768Y22648781D01*
X14557768Y22648781D02*
X14519672Y22801162D01*
X14519672Y22801162D02*
X14519672Y22915448D01*
X14519672Y22915448D02*
X14557768Y23067829D01*
X14557768Y23067829D02*
X14595863Y23144020D01*
X14595863Y23144020D02*
X14672053Y23220210D01*
X14672053Y23220210D02*
X14786339Y23258305D01*
X14786339Y23258305D02*
X14862530Y23258305D01*
X14862530Y23258305D02*
X14976815Y23220210D01*
X14976815Y23220210D02*
X15014911Y23182115D01*
X15510149Y23258305D02*
X15662530Y23258305D01*
X15662530Y23258305D02*
X15738720Y23220210D01*
X15738720Y23220210D02*
X15814911Y23144020D01*
X15814911Y23144020D02*
X15853006Y22991639D01*
X15853006Y22991639D02*
X15853006Y22724972D01*
X15853006Y22724972D02*
X15814911Y22572591D01*
X15814911Y22572591D02*
X15738720Y22496400D01*
X15738720Y22496400D02*
X15662530Y22458305D01*
X15662530Y22458305D02*
X15510149Y22458305D01*
X15510149Y22458305D02*
X15433958Y22496400D01*
X15433958Y22496400D02*
X15357768Y22572591D01*
X15357768Y22572591D02*
X15319672Y22724972D01*
X15319672Y22724972D02*
X15319672Y22991639D01*
X15319672Y22991639D02*
X15357768Y23144020D01*
X15357768Y23144020D02*
X15433958Y23220210D01*
X15433958Y23220210D02*
X15510149Y23258305D01*
X16195863Y22458305D02*
X16195863Y23258305D01*
X16195863Y23258305D02*
X16462529Y22686877D01*
X16462529Y22686877D02*
X16729196Y23258305D01*
X16729196Y23258305D02*
X16729196Y22458305D01*
X17110149Y22458305D02*
X17110149Y23258305D01*
X17110149Y23258305D02*
X17376815Y22686877D01*
X17376815Y22686877D02*
X17643482Y23258305D01*
X17643482Y23258305D02*
X17643482Y22458305D01*
X17986339Y22496400D02*
X18100625Y22458305D01*
X18100625Y22458305D02*
X18291101Y22458305D01*
X18291101Y22458305D02*
X18367292Y22496400D01*
X18367292Y22496400D02*
X18405387Y22534496D01*
X18405387Y22534496D02*
X18443482Y22610686D01*
X18443482Y22610686D02*
X18443482Y22686877D01*
X18443482Y22686877D02*
X18405387Y22763067D01*
X18405387Y22763067D02*
X18367292Y22801162D01*
X18367292Y22801162D02*
X18291101Y22839258D01*
X18291101Y22839258D02*
X18138720Y22877353D01*
X18138720Y22877353D02*
X18062530Y22915448D01*
X18062530Y22915448D02*
X18024435Y22953543D01*
X18024435Y22953543D02*
X17986339Y23029734D01*
X17986339Y23029734D02*
X17986339Y23105924D01*
X17986339Y23105924D02*
X18024435Y23182115D01*
X18024435Y23182115D02*
X18062530Y23220210D01*
X18062530Y23220210D02*
X18138720Y23258305D01*
X18138720Y23258305D02*
X18329197Y23258305D01*
X18329197Y23258305D02*
X18443482Y23220210D01*
X18900625Y22534496D02*
X18938721Y22496400D01*
X18938721Y22496400D02*
X18900625Y22458305D01*
X18900625Y22458305D02*
X18862530Y22496400D01*
X18862530Y22496400D02*
X18900625Y22534496D01*
X18900625Y22534496D02*
X18900625Y22458305D01*
X18748244Y23220210D02*
X18824435Y23258305D01*
X18824435Y23258305D02*
X19014911Y23258305D01*
X19014911Y23258305D02*
X19091102Y23220210D01*
X19091102Y23220210D02*
X19129197Y23144020D01*
X19129197Y23144020D02*
X19129197Y23067829D01*
X19129197Y23067829D02*
X19091102Y22991639D01*
X19091102Y22991639D02*
X19053006Y22953543D01*
X19053006Y22953543D02*
X18976816Y22915448D01*
X18976816Y22915448D02*
X18938721Y22877353D01*
X18938721Y22877353D02*
X18900625Y22801162D01*
X18900625Y22801162D02*
X18900625Y22763067D01*
X16079197Y13284496D02*
X16041101Y13246400D01*
X16041101Y13246400D02*
X15926816Y13208305D01*
X15926816Y13208305D02*
X15850625Y13208305D01*
X15850625Y13208305D02*
X15736339Y13246400D01*
X15736339Y13246400D02*
X15660149Y13322591D01*
X15660149Y13322591D02*
X15622054Y13398781D01*
X15622054Y13398781D02*
X15583958Y13551162D01*
X15583958Y13551162D02*
X15583958Y13665448D01*
X15583958Y13665448D02*
X15622054Y13817829D01*
X15622054Y13817829D02*
X15660149Y13894020D01*
X15660149Y13894020D02*
X15736339Y13970210D01*
X15736339Y13970210D02*
X15850625Y14008305D01*
X15850625Y14008305D02*
X15926816Y14008305D01*
X15926816Y14008305D02*
X16041101Y13970210D01*
X16041101Y13970210D02*
X16079197Y13932115D01*
X16383958Y13436877D02*
X16764911Y13436877D01*
X16307768Y13208305D02*
X16574435Y14008305D01*
X16574435Y14008305D02*
X16841101Y13208305D01*
X17107768Y13208305D02*
X17107768Y14008305D01*
X17107768Y14008305D02*
X17564911Y13208305D01*
X17564911Y13208305D02*
X17564911Y14008305D01*
X1108304Y33477946D02*
X1641638Y33477946D01*
X1565447Y33477946D02*
X1603542Y33439851D01*
X1603542Y33439851D02*
X1641638Y33363661D01*
X1641638Y33363661D02*
X1641638Y33249375D01*
X1641638Y33249375D02*
X1603542Y33173184D01*
X1603542Y33173184D02*
X1527352Y33135089D01*
X1527352Y33135089D02*
X1108304Y33135089D01*
X1527352Y33135089D02*
X1603542Y33096994D01*
X1603542Y33096994D02*
X1641638Y33020803D01*
X1641638Y33020803D02*
X1641638Y32906518D01*
X1641638Y32906518D02*
X1603542Y32830327D01*
X1603542Y32830327D02*
X1527352Y32792232D01*
X1527352Y32792232D02*
X1108304Y32792232D01*
X1108304Y32068422D02*
X1527352Y32068422D01*
X1527352Y32068422D02*
X1603542Y32106517D01*
X1603542Y32106517D02*
X1641638Y32182708D01*
X1641638Y32182708D02*
X1641638Y32335089D01*
X1641638Y32335089D02*
X1603542Y32411279D01*
X1146400Y32068422D02*
X1108304Y32144613D01*
X1108304Y32144613D02*
X1108304Y32335089D01*
X1108304Y32335089D02*
X1146400Y32411279D01*
X1146400Y32411279D02*
X1222590Y32449375D01*
X1222590Y32449375D02*
X1298780Y32449375D01*
X1298780Y32449375D02*
X1374971Y32411279D01*
X1374971Y32411279D02*
X1413066Y32335089D01*
X1413066Y32335089D02*
X1413066Y32144613D01*
X1413066Y32144613D02*
X1451161Y32068422D01*
X1108304Y31344612D02*
X1908304Y31344612D01*
X1146400Y31344612D02*
X1108304Y31420803D01*
X1108304Y31420803D02*
X1108304Y31573184D01*
X1108304Y31573184D02*
X1146400Y31649374D01*
X1146400Y31649374D02*
X1184495Y31687469D01*
X1184495Y31687469D02*
X1260685Y31725565D01*
X1260685Y31725565D02*
X1489257Y31725565D01*
X1489257Y31725565D02*
X1565447Y31687469D01*
X1565447Y31687469D02*
X1603542Y31649374D01*
X1603542Y31649374D02*
X1641638Y31573184D01*
X1641638Y31573184D02*
X1641638Y31420803D01*
X1641638Y31420803D02*
X1603542Y31344612D01*
X1146400Y30658897D02*
X1108304Y30735088D01*
X1108304Y30735088D02*
X1108304Y30887469D01*
X1108304Y30887469D02*
X1146400Y30963659D01*
X1146400Y30963659D02*
X1222590Y31001755D01*
X1222590Y31001755D02*
X1527352Y31001755D01*
X1527352Y31001755D02*
X1603542Y30963659D01*
X1603542Y30963659D02*
X1641638Y30887469D01*
X1641638Y30887469D02*
X1641638Y30735088D01*
X1641638Y30735088D02*
X1603542Y30658897D01*
X1603542Y30658897D02*
X1527352Y30620802D01*
X1527352Y30620802D02*
X1451161Y30620802D01*
X1451161Y30620802D02*
X1374971Y31001755D01*
X1108304Y29554136D02*
X1146400Y29630326D01*
X1146400Y29630326D02*
X1184495Y29668421D01*
X1184495Y29668421D02*
X1260685Y29706517D01*
X1260685Y29706517D02*
X1489257Y29706517D01*
X1489257Y29706517D02*
X1565447Y29668421D01*
X1565447Y29668421D02*
X1603542Y29630326D01*
X1603542Y29630326D02*
X1641638Y29554136D01*
X1641638Y29554136D02*
X1641638Y29439850D01*
X1641638Y29439850D02*
X1603542Y29363659D01*
X1603542Y29363659D02*
X1565447Y29325564D01*
X1565447Y29325564D02*
X1489257Y29287469D01*
X1489257Y29287469D02*
X1260685Y29287469D01*
X1260685Y29287469D02*
X1184495Y29325564D01*
X1184495Y29325564D02*
X1146400Y29363659D01*
X1146400Y29363659D02*
X1108304Y29439850D01*
X1108304Y29439850D02*
X1108304Y29554136D01*
X1641638Y28944611D02*
X1108304Y28944611D01*
X1565447Y28944611D02*
X1603542Y28906516D01*
X1603542Y28906516D02*
X1641638Y28830326D01*
X1641638Y28830326D02*
X1641638Y28716040D01*
X1641638Y28716040D02*
X1603542Y28639849D01*
X1603542Y28639849D02*
X1527352Y28601754D01*
X1527352Y28601754D02*
X1108304Y28601754D01*
X1146400Y27306515D02*
X1108304Y27382706D01*
X1108304Y27382706D02*
X1108304Y27535087D01*
X1108304Y27535087D02*
X1146400Y27611277D01*
X1146400Y27611277D02*
X1222590Y27649373D01*
X1222590Y27649373D02*
X1527352Y27649373D01*
X1527352Y27649373D02*
X1603542Y27611277D01*
X1603542Y27611277D02*
X1641638Y27535087D01*
X1641638Y27535087D02*
X1641638Y27382706D01*
X1641638Y27382706D02*
X1603542Y27306515D01*
X1603542Y27306515D02*
X1527352Y27268420D01*
X1527352Y27268420D02*
X1451161Y27268420D01*
X1451161Y27268420D02*
X1374971Y27649373D01*
X1108304Y26582706D02*
X1527352Y26582706D01*
X1527352Y26582706D02*
X1603542Y26620801D01*
X1603542Y26620801D02*
X1641638Y26696992D01*
X1641638Y26696992D02*
X1641638Y26849373D01*
X1641638Y26849373D02*
X1603542Y26925563D01*
X1146400Y26582706D02*
X1108304Y26658897D01*
X1108304Y26658897D02*
X1108304Y26849373D01*
X1108304Y26849373D02*
X1146400Y26925563D01*
X1146400Y26925563D02*
X1222590Y26963659D01*
X1222590Y26963659D02*
X1298780Y26963659D01*
X1298780Y26963659D02*
X1374971Y26925563D01*
X1374971Y26925563D02*
X1413066Y26849373D01*
X1413066Y26849373D02*
X1413066Y26658897D01*
X1413066Y26658897D02*
X1451161Y26582706D01*
X1108304Y26201753D02*
X1641638Y26201753D01*
X1489257Y26201753D02*
X1565447Y26163658D01*
X1565447Y26163658D02*
X1603542Y26125563D01*
X1603542Y26125563D02*
X1641638Y26049372D01*
X1641638Y26049372D02*
X1641638Y25973182D01*
X1641638Y25820801D02*
X1641638Y25516039D01*
X1908304Y25706515D02*
X1222590Y25706515D01*
X1222590Y25706515D02*
X1146400Y25668420D01*
X1146400Y25668420D02*
X1108304Y25592230D01*
X1108304Y25592230D02*
X1108304Y25516039D01*
X1108304Y25249372D02*
X1908304Y25249372D01*
X1108304Y24906515D02*
X1527352Y24906515D01*
X1527352Y24906515D02*
X1603542Y24944610D01*
X1603542Y24944610D02*
X1641638Y25020801D01*
X1641638Y25020801D02*
X1641638Y25135087D01*
X1641638Y25135087D02*
X1603542Y25211277D01*
X1603542Y25211277D02*
X1565447Y25249372D01*
X1146400Y24487467D02*
X1108304Y24487467D01*
X1108304Y24487467D02*
X1032114Y24525562D01*
X1032114Y24525562D02*
X994019Y24563658D01*
X1108304Y23535086D02*
X1908304Y23535086D01*
X1603542Y23535086D02*
X1641638Y23458896D01*
X1641638Y23458896D02*
X1641638Y23306515D01*
X1641638Y23306515D02*
X1603542Y23230324D01*
X1603542Y23230324D02*
X1565447Y23192229D01*
X1565447Y23192229D02*
X1489257Y23154134D01*
X1489257Y23154134D02*
X1260685Y23154134D01*
X1260685Y23154134D02*
X1184495Y23192229D01*
X1184495Y23192229D02*
X1146400Y23230324D01*
X1146400Y23230324D02*
X1108304Y23306515D01*
X1108304Y23306515D02*
X1108304Y23458896D01*
X1108304Y23458896D02*
X1146400Y23535086D01*
X1641638Y22887467D02*
X1108304Y22696991D01*
X1641638Y22506514D02*
X1108304Y22696991D01*
X1108304Y22696991D02*
X917828Y22773181D01*
X917828Y22773181D02*
X879733Y22811276D01*
X879733Y22811276D02*
X841638Y22887467D01*
X1108304Y21592228D02*
X1908304Y21592228D01*
X1108304Y21249371D02*
X1527352Y21249371D01*
X1527352Y21249371D02*
X1603542Y21287466D01*
X1603542Y21287466D02*
X1641638Y21363657D01*
X1641638Y21363657D02*
X1641638Y21477943D01*
X1641638Y21477943D02*
X1603542Y21554133D01*
X1603542Y21554133D02*
X1565447Y21592228D01*
X1641638Y20525561D02*
X1108304Y20525561D01*
X1641638Y20868418D02*
X1222590Y20868418D01*
X1222590Y20868418D02*
X1146400Y20830323D01*
X1146400Y20830323D02*
X1108304Y20754133D01*
X1108304Y20754133D02*
X1108304Y20639847D01*
X1108304Y20639847D02*
X1146400Y20563656D01*
X1146400Y20563656D02*
X1184495Y20525561D01*
X1108304Y20144608D02*
X1641638Y20144608D01*
X1565447Y20144608D02*
X1603542Y20106513D01*
X1603542Y20106513D02*
X1641638Y20030323D01*
X1641638Y20030323D02*
X1641638Y19916037D01*
X1641638Y19916037D02*
X1603542Y19839846D01*
X1603542Y19839846D02*
X1527352Y19801751D01*
X1527352Y19801751D02*
X1108304Y19801751D01*
X1527352Y19801751D02*
X1603542Y19763656D01*
X1603542Y19763656D02*
X1641638Y19687465D01*
X1641638Y19687465D02*
X1641638Y19573180D01*
X1641638Y19573180D02*
X1603542Y19496989D01*
X1603542Y19496989D02*
X1527352Y19458894D01*
X1527352Y19458894D02*
X1108304Y19458894D01*
X1108304Y18735084D02*
X1527352Y18735084D01*
X1527352Y18735084D02*
X1603542Y18773179D01*
X1603542Y18773179D02*
X1641638Y18849370D01*
X1641638Y18849370D02*
X1641638Y19001751D01*
X1641638Y19001751D02*
X1603542Y19077941D01*
X1146400Y18735084D02*
X1108304Y18811275D01*
X1108304Y18811275D02*
X1108304Y19001751D01*
X1108304Y19001751D02*
X1146400Y19077941D01*
X1146400Y19077941D02*
X1222590Y19116037D01*
X1222590Y19116037D02*
X1298780Y19116037D01*
X1298780Y19116037D02*
X1374971Y19077941D01*
X1374971Y19077941D02*
X1413066Y19001751D01*
X1413066Y19001751D02*
X1413066Y18811275D01*
X1413066Y18811275D02*
X1451161Y18735084D01*
X1641638Y18354131D02*
X1108304Y18354131D01*
X1565447Y18354131D02*
X1603542Y18316036D01*
X1603542Y18316036D02*
X1641638Y18239846D01*
X1641638Y18239846D02*
X1641638Y18125560D01*
X1641638Y18125560D02*
X1603542Y18049369D01*
X1603542Y18049369D02*
X1527352Y18011274D01*
X1527352Y18011274D02*
X1108304Y18011274D01*
X1146400Y17668417D02*
X1108304Y17592226D01*
X1108304Y17592226D02*
X1108304Y17439845D01*
X1108304Y17439845D02*
X1146400Y17363655D01*
X1146400Y17363655D02*
X1222590Y17325559D01*
X1222590Y17325559D02*
X1260685Y17325559D01*
X1260685Y17325559D02*
X1336876Y17363655D01*
X1336876Y17363655D02*
X1374971Y17439845D01*
X1374971Y17439845D02*
X1374971Y17554131D01*
X1374971Y17554131D02*
X1413066Y17630321D01*
X1413066Y17630321D02*
X1489257Y17668417D01*
X1489257Y17668417D02*
X1527352Y17668417D01*
X1527352Y17668417D02*
X1603542Y17630321D01*
X1603542Y17630321D02*
X1641638Y17554131D01*
X1641638Y17554131D02*
X1641638Y17439845D01*
X1641638Y17439845D02*
X1603542Y17363655D01*
X13306896Y4108325D02*
X12659277Y4108325D01*
X12659277Y4108325D02*
X12583087Y4070230D01*
X12583087Y4070230D02*
X12544992Y4032135D01*
X12544992Y4032135D02*
X12506896Y3955944D01*
X12506896Y3955944D02*
X12506896Y3803563D01*
X12506896Y3803563D02*
X12544992Y3727373D01*
X12544992Y3727373D02*
X12583087Y3689278D01*
X12583087Y3689278D02*
X12659277Y3651182D01*
X12659277Y3651182D02*
X13306896Y3651182D01*
X12735468Y3308326D02*
X12735468Y2927373D01*
X12506896Y3384516D02*
X13306896Y3117849D01*
X13306896Y3117849D02*
X12506896Y2851183D01*
X12506896Y2127373D02*
X12887849Y2394040D01*
X12506896Y2584516D02*
X13306896Y2584516D01*
X13306896Y2584516D02*
X13306896Y2279754D01*
X13306896Y2279754D02*
X13268801Y2203564D01*
X13268801Y2203564D02*
X13230706Y2165469D01*
X13230706Y2165469D02*
X13154515Y2127373D01*
X13154515Y2127373D02*
X13040230Y2127373D01*
X13040230Y2127373D02*
X12964039Y2165469D01*
X12964039Y2165469D02*
X12925944Y2203564D01*
X12925944Y2203564D02*
X12887849Y2279754D01*
X12887849Y2279754D02*
X12887849Y2584516D01*
X13306896Y1898802D02*
X13306896Y1441659D01*
X12506896Y1670231D02*
X13306896Y1670231D01*
%TO.C,U10*%
D11*
X2550000Y33500000D02*
X2550000Y17000000D01*
X2550000Y17000000D02*
X3300000Y17000000D01*
X3300000Y33500000D02*
X2550000Y33500000D01*
X19300000Y33500000D02*
X20050000Y33500000D01*
X20050000Y33500000D02*
X20050000Y17000000D01*
X20050000Y17000000D02*
X19300000Y17000000D01*
D12*
X19300000Y33800000D02*
X19300000Y34300000D01*
X19800000Y33800000D01*
X19300000Y33800000D01*
G36*
X19800000Y33800000D02*
G01*
X19300000Y33800000D01*
X19300000Y34300000D01*
X19800000Y33800000D01*
G37*
%TO.C,AE1*%
X5900000Y38700000D02*
X6100000Y38700000D01*
X5900000Y37900000D02*
X5900000Y38700000D01*
X5900000Y35700000D02*
X5900000Y36500000D01*
X6100000Y35700000D02*
X5900000Y35700000D01*
X8700000Y38700000D02*
X8900000Y38700000D01*
X8900000Y38700000D02*
X8900000Y37900000D01*
X8900000Y37900000D02*
X9400000Y37900000D01*
X8900000Y36500000D02*
X8900000Y35900000D01*
X8900000Y36500000D02*
X9400000Y36500000D01*
X8900000Y35900000D02*
X8700000Y35700000D01*
%TO.C,J4*%
X10800000Y35700000D02*
X10800000Y36300000D01*
X11500000Y37000000D02*
X12900000Y37000000D01*
X12900000Y35000000D02*
X11500000Y35000000D01*
X13600000Y36300000D02*
X13600000Y35700000D01*
X10800000Y36300000D02*
G75*
G02*
X11500000Y37000000I700000J0D01*
G01*
X11500000Y35000000D02*
G75*
G02*
X10800000Y35700000I0J700000D01*
G01*
X12900000Y37000000D02*
G75*
G02*
X13600000Y36300000I1J-699999D01*
G01*
X13600000Y35700000D02*
G75*
G02*
X12900000Y35000000I-699999J-1D01*
G01*
%TO.C,J6*%
X12850000Y6975000D02*
X12850000Y6475000D01*
X13140000Y12585000D02*
X18860000Y12585000D01*
X13140000Y11515000D02*
X13140000Y12585000D01*
X13140000Y6685000D02*
X13140000Y5615000D01*
X13140000Y5615000D02*
X18860000Y5615000D01*
X13150000Y6975000D02*
X12850000Y6975000D01*
X13440000Y11515000D02*
X13140000Y11515000D01*
X13440000Y9100000D02*
X13440000Y11515000D01*
X13440000Y9100000D02*
X13440000Y6685000D01*
X13440000Y6685000D02*
X13140000Y6685000D01*
X18860000Y12585000D02*
X18860000Y9100000D01*
X18860000Y5615000D02*
X18860000Y9100000D01*
%TO.C,J5*%
X5315000Y5860000D02*
X5315000Y140000D01*
X5315000Y140000D02*
X8800000Y140000D01*
X6385000Y5860000D02*
X5315000Y5860000D01*
X6385000Y5560000D02*
X6385000Y5860000D01*
X6675000Y6150000D02*
X6175000Y6150000D01*
X6675000Y5850000D02*
X6675000Y6150000D01*
X8800000Y5560000D02*
X6385000Y5560000D01*
X8800000Y5560000D02*
X11215000Y5560000D01*
X11215000Y5860000D02*
X12285000Y5860000D01*
X11215000Y5560000D02*
X11215000Y5860000D01*
X12285000Y5860000D02*
X12285000Y140000D01*
X12285000Y140000D02*
X8800000Y140000D01*
%TO.C,J1*%
X10700000Y38250000D02*
X10700000Y38850000D01*
X11400000Y39550000D02*
X12800000Y39550000D01*
X12800000Y37550000D02*
X11400000Y37550000D01*
X13500000Y38850000D02*
X13500000Y38250000D01*
X10700000Y38850000D02*
G75*
G02*
X11400000Y39550000I700000J0D01*
G01*
X11400000Y37550000D02*
G75*
G02*
X10700000Y38250000I0J700000D01*
G01*
X12800000Y39550000D02*
G75*
G02*
X13500000Y38850000I1J-699999D01*
G01*
X13500000Y38250000D02*
G75*
G02*
X12800000Y37550000I-699999J-1D01*
G01*
%TO.C,R13*%
X13777500Y3637258D02*
X13777500Y3162742D01*
X14822500Y3637258D02*
X14822500Y3162742D01*
%TO.C,D1*%
D13*
X8425000Y15275000D02*
X11175000Y15275000D01*
X11175000Y13325000D01*
X8425000Y13325000D01*
X8425000Y15275000D01*
X11400000Y15325000D02*
G75*
G02*
X11300000Y15325000I-50000J0D01*
G01*
X11300000Y15325000D02*
G75*
G02*
X11400000Y15325000I50000J0D01*
G01*
%TO.C,J2*%
D12*
X40000Y11110000D02*
X40000Y8875000D01*
X40000Y6640000D02*
X40000Y8875000D01*
X5460000Y10040000D02*
X5760000Y10040000D01*
X5460000Y8875000D02*
X5460000Y10040000D01*
X5460000Y8875000D02*
X5460000Y7710000D01*
X5460000Y7710000D02*
X5760000Y7710000D01*
X5750000Y9750000D02*
X6050000Y9750000D01*
X5760000Y11110000D02*
X40000Y11110000D01*
X5760000Y10040000D02*
X5760000Y11110000D01*
X5760000Y7710000D02*
X5760000Y6640000D01*
X5760000Y6640000D02*
X40000Y6640000D01*
X6050000Y9750000D02*
X6050000Y10250000D01*
%TO.C,BZ1*%
D13*
X6650000Y11900000D02*
X12750000Y11900000D01*
X12750000Y6600000D01*
X6650000Y6600000D01*
X6650000Y11900000D01*
%TO.C,D2*%
D12*
X4065000Y13900000D02*
X4065000Y11615000D01*
X4065000Y11615000D02*
X5535000Y11615000D01*
X5535000Y11615000D02*
X5535000Y13900000D01*
%TD*%
%LPC*%
%TO.C,J4*%
G36*
X12050000Y36750000D02*
G01*
X12350000Y36750000D01*
X12350000Y35250000D01*
X12050000Y35250000D01*
X12050000Y36750000D01*
G37*
%TO.C,J1*%
G36*
X11950000Y39300000D02*
G01*
X12250000Y39300000D01*
X12250000Y37800000D01*
X11950000Y37800000D01*
X11950000Y39300000D01*
G37*
%TD*%
D14*
%TO.C,U10*%
X18300000Y33250000D03*
X16300000Y33250000D03*
X14300000Y33250000D03*
X12300000Y33250000D03*
X10300000Y33250000D03*
X8300000Y33250000D03*
X6300000Y33250000D03*
X4300000Y33250000D03*
X4300000Y17250000D03*
X6300000Y17250000D03*
X8300000Y17250000D03*
X10300000Y17250000D03*
X12300000Y17250000D03*
X14300000Y17250000D03*
X16300000Y17250000D03*
X18300000Y17250000D03*
%TD*%
D15*
%TO.C,AE1*%
X5900000Y37200000D03*
D16*
X7400000Y38675000D03*
D15*
X8900000Y37200000D03*
D16*
X7400000Y35725000D03*
%TD*%
D17*
%TO.C,J4*%
X12850000Y36000000D03*
D18*
X11550000Y36000000D03*
%TD*%
D19*
%TO.C,J6*%
X14300000Y7225000D03*
D20*
X14300000Y8475000D03*
X14300000Y9725000D03*
X14300000Y10975000D03*
%TD*%
D21*
%TO.C,J5*%
X6925000Y4700000D03*
D22*
X8175000Y4700000D03*
X9425000Y4700000D03*
X10675000Y4700000D03*
%TD*%
D17*
%TO.C,J1*%
X12750000Y38550000D03*
D18*
X11450000Y38550000D03*
%TD*%
D23*
%TO.C,H6*%
X2750000Y37500000D03*
%TD*%
%TO.C,H5*%
X17500000Y3000000D03*
%TD*%
D24*
%TO.C,R13*%
X14300000Y4225000D03*
X14300000Y2575000D03*
%TD*%
D25*
%TO.C,D1*%
X10525000Y14750000D03*
X10525000Y13850000D03*
X9075000Y13850000D03*
X9075000Y14750000D03*
%TD*%
D26*
%TO.C,J2*%
X4600000Y9500000D03*
D20*
X4600000Y8250000D03*
%TD*%
D23*
%TO.C,H7*%
X17000000Y37500000D03*
%TD*%
D27*
%TO.C,BZ1*%
X7750000Y7750000D03*
X11650000Y7750000D03*
X7750000Y10750000D03*
%TD*%
D28*
%TO.C,D2*%
X4800000Y12312500D03*
X4800000Y13887500D03*
%TD*%
D23*
%TO.C,H4*%
X2750000Y2750000D03*
%TD*%
D29*
%TO.C,J3*%
X18475000Y21675000D03*
X18475000Y15075000D03*
%TD*%
%LPD*%
M02*
