M48
; DRILL file KiCad 10.0.5 date 2026-09-03T01:35:14
; FORMAT={-:-/ absolute / inch / decimal}
; #@! TF.CreationDate,2026-09-03T01:35:14-07:00
; #@! TF.GenerationSoftware,Kicad,Pcbnew,10.0.5
; #@! TF.FileFunction,Plated,1,4,PTH
FMAT,2
INCH
; #@! TA.AperFunction,Plated,PTH,ViaDrill
T1C0.0118
; #@! TA.AperFunction,Plated,PTH,ComponentDrill
T2C0.0197
; #@! TA.AperFunction,Plated,PTH,ComponentDrill
T3C0.0866
%
G90
G05
T1
X0.0394Y1.1969
X0.0394Y1.122
X0.0717Y0.9898
X0.0741Y0.8181
X0.0756Y1.2362
X0.0772Y1.0212
X0.0778Y0.6045
X0.0807Y1.1575
X0.0807Y0.715
X0.0807Y0.6656
X0.0827Y0.378
X0.0856Y0.5693
X0.0925Y0.5256
X0.1102Y1.0079
X0.1102Y1.1827
X0.1134Y1.2323
X0.1142Y1.0945
X0.1229Y0.9144
X0.1276Y1.052
X0.1351Y0.5168
X0.1397Y0.6117
X0.1398Y0.7647
X0.1417Y0.6772
X0.1438Y1.0789
X0.1457Y0.5787
X0.1476Y0.9348
X0.1535Y1.3898
X0.1555Y0.8069
X0.1654Y1.252
X0.1654Y0.498
X0.1945Y0.9071
X0.2087Y1.4606
X0.2089Y0.2875
X0.2131Y1.155
X0.2205Y0.8504
X0.224Y0.8139
X0.2441Y0.753
X0.248Y1.1496
X0.2487Y0.9933
X0.2526Y1.0276
X0.2579Y0.6142
X0.2658Y1.3728
X0.2756Y0.2756
X0.2953Y0.4921
X0.3013Y1.1949
X0.3071Y0.2559
X0.3341Y0.5798
X0.3352Y1.1964
X0.3401Y0.1119
X0.3465Y0.6181
X0.3504Y0.9173
X0.3563Y1.3799
X0.3622Y1.1575
X0.3667Y1.1949
X0.378Y1.0276
X0.378Y0.3346
X0.3898Y0.9941
X0.3898Y0.878
X0.3945Y0.8465
X0.3961Y0.1127
X0.4089Y0.6038
X0.4094Y1.1358
X0.4117Y1.1816
X0.4132Y1.5161
X0.4134Y1.0895
X0.4213Y1.2795
X0.437Y1.252
X0.437Y0.4134
X0.437Y0.374
X0.437Y0.0748
X0.4567Y0.9449
X0.4578Y0.4921
X0.4606Y0.7649
X0.4685Y1.3819
X0.4764Y0.6142
X0.4764Y0.4134
X0.4764Y0.374
X0.4803Y0.2402
X0.4822Y1.1064
X0.4822Y0.9961
X0.4924Y1.2043
X0.4953Y1.0611
X0.4966Y1.4555
X0.5079Y1.2441
X0.5079Y0.7677
X0.521Y0.6211
X0.5364Y1.3465
X0.5435Y1.4153
X0.5512Y0.9724
X0.5669Y0.0748
X0.5748Y1.1732
X0.5748Y1.0669
X0.5827Y0.5748
X0.5945Y1.3701
X0.6555Y0.4744
X0.6575Y0.7953
X0.6654Y1.3661
X0.6731Y0.7361
X0.6929Y0.4744
X0.7047Y1.3661
X0.7165Y1.1732
X0.7205Y1.0669
X0.7205Y1.0
T2
X0.1811Y0.374
X0.1811Y0.3248
X0.2726Y0.185
X0.3219Y0.185
X0.3711Y0.185
X0.4203Y0.185
X0.563Y0.4321
X0.563Y0.3829
X0.563Y0.3337
X0.563Y0.2844
T3
X0.1083Y1.4764
X0.1083Y0.1083
X0.6693Y1.4764
X0.689Y0.1181
T2
G00X0.7411Y0.8533
M15
G01X0.7136Y0.8533
M16
G05
G00X0.7411Y0.5935
M15
G01X0.7136Y0.5935
M16
G05
M30
