%TF.GenerationSoftware,KiCad,Pcbnew,10.0.5*%
%TF.CreationDate,2026-09-03T01:35:14-07:00*%
%TF.ProjectId,witness,7769746e-6573-4732-9e6b-696361645f70,rev?*%
%TF.SameCoordinates,Original*%
%TF.FileFunction,Copper,L1,Top*%
%TF.FilePolarity,Positive*%
%FSLAX46Y46*%
G04 Gerber Fmt 4.6, Leading zero omitted, Abs format (unit mm)*
G04 Created by KiCad (PCBNEW 10.0.5) date 2026-09-03 01:35:14*
%MOMM*%
%LPD*%
G01*
G04 APERTURE LIST*
G04 Aperture macros list*
%AMRoundRect*
0 Rectangle with rounded corners*
0 $1 Rounding radius*
0 $2 $3 $4 $5 $6 $7 $8 $9 X,Y pos of 4 corners*
0 Add a 4 corners polygon primitive as box body*
4,1,4,$2,$3,$4,$5,$6,$7,$8,$9,$2,$3,0*
0 Add four circle primitives for the rounded corners*
1,1,$1+$1,$2,$3*
1,1,$1+$1,$4,$5*
1,1,$1+$1,$6,$7*
1,1,$1+$1,$8,$9*
0 Add four rect primitives between the rounded corners*
20,1,$1+$1,$2,$3,$4,$5,0*
20,1,$1+$1,$4,$5,$6,$7,0*
20,1,$1+$1,$6,$7,$8,$9,0*
20,1,$1+$1,$8,$9,$2,$3,0*%
%AMFreePoly0*
4,1,23,0.500000,-0.750000,0.000000,-0.750000,0.000000,-0.745722,-0.065263,-0.745722,-0.191342,-0.711940,-0.304381,-0.646677,-0.396677,-0.554381,-0.461940,-0.441342,-0.495722,-0.315263,-0.495722,-0.250000,-0.500000,-0.250000,-0.500000,0.250000,-0.495722,0.250000,-0.495722,0.315263,-0.461940,0.441342,-0.396677,0.554381,-0.304381,0.646677,-0.191342,0.711940,-0.065263,0.745722,0.000000,0.745722,
0.000000,0.750000,0.500000,0.750000,0.500000,-0.750000,0.500000,-0.750000,$1*%
%AMFreePoly1*
4,1,23,0.000000,0.745722,0.065263,0.745722,0.191342,0.711940,0.304381,0.646677,0.396677,0.554381,0.461940,0.441342,0.495722,0.315263,0.495722,0.250000,0.500000,0.250000,0.500000,-0.250000,0.495722,-0.250000,0.495722,-0.315263,0.461940,-0.441342,0.396677,-0.554381,0.304381,-0.646677,0.191342,-0.711940,0.065263,-0.745722,0.000000,-0.745722,0.000000,-0.750000,-0.500000,-0.750000,
-0.500000,0.750000,0.000000,0.750000,0.000000,0.745722,0.000000,0.745722,$1*%
G04 Aperture macros list end*
%TA.AperFunction,SMDPad,CuDef*%
%ADD10R,1.500000X2.000000*%
%TD*%
%TA.AperFunction,SMDPad,CuDef*%
%ADD11RoundRect,0.100000X0.400000X-0.400000X0.400000X0.400000X-0.400000X0.400000X-0.400000X-0.400000X0*%
%TD*%
%TA.AperFunction,SMDPad,CuDef*%
%ADD12RoundRect,0.105000X0.995000X-0.420000X0.995000X0.420000X-0.995000X0.420000X-0.995000X-0.420000X0*%
%TD*%
%TA.AperFunction,SMDPad,CuDef*%
%ADD13FreePoly0,180.000000*%
%TD*%
%TA.AperFunction,SMDPad,CuDef*%
%ADD14FreePoly1,180.000000*%
%TD*%
%TA.AperFunction,ComponentPad*%
%ADD15RoundRect,0.200000X0.450000X-0.200000X0.450000X0.200000X-0.450000X0.200000X-0.450000X-0.200000X0*%
%TD*%
%TA.AperFunction,ComponentPad*%
%ADD16O,1.300000X0.800000*%
%TD*%
%TA.AperFunction,ComponentPad*%
%ADD17RoundRect,0.200000X-0.200000X-0.450000X0.200000X-0.450000X0.200000X0.450000X-0.200000X0.450000X0*%
%TD*%
%TA.AperFunction,ComponentPad*%
%ADD18O,0.800000X1.300000*%
%TD*%
%TA.AperFunction,ComponentPad*%
%ADD19C,3.800000*%
%TD*%
%TA.AperFunction,SMDPad,CuDef*%
%ADD20RoundRect,0.200000X-0.275000X0.200000X-0.275000X-0.200000X0.275000X-0.200000X0.275000X0.200000X0*%
%TD*%
%TA.AperFunction,SMDPad,CuDef*%
%ADD21RoundRect,0.175000X-0.250000X-0.175000X0.250000X-0.175000X0.250000X0.175000X-0.250000X0.175000X0*%
%TD*%
%TA.AperFunction,ComponentPad*%
%ADD22RoundRect,0.200000X-0.450000X0.200000X-0.450000X-0.200000X0.450000X-0.200000X0.450000X0.200000X0*%
%TD*%
%TA.AperFunction,SMDPad,CuDef*%
%ADD23R,2.000000X1.200000*%
%TD*%
%TA.AperFunction,SMDPad,CuDef*%
%ADD24RoundRect,0.218750X0.256250X-0.218750X0.256250X0.218750X-0.256250X0.218750X-0.256250X-0.218750X0*%
%TD*%
%TA.AperFunction,ComponentPad*%
%ADD25O,1.600000X0.900000*%
%TD*%
%TA.AperFunction,ViaPad*%
%ADD26C,0.600000*%
%TD*%
%TA.AperFunction,ViaPad*%
%ADD27C,0.700000*%
%TD*%
%TA.AperFunction,Conductor*%
%ADD28C,0.200000*%
%TD*%
%TA.AperFunction,Conductor*%
%ADD29C,0.500000*%
%TD*%
G04 APERTURE END LIST*
D10*
%TO.P,U10,1,ANT_1*%
%TO.N,unconnected-(U10-ANT-Pad1)*%
X18300000Y33250000D03*
%TO.P,U10,2,GND_2*%
%TO.N,GND*%
X16300000Y33250000D03*
%TO.P,U10,3,VDD_3*%
%TO.N,+3V3*%
X14300000Y33250000D03*
%TO.P,U10,4,~{RESET}_4*%
%TO.N,/MCU/RAD_RST*%
X12300000Y33250000D03*
%TO.P,U10,5,VCC_PA_5*%
%TO.N,+3V3*%
X10300000Y33250000D03*
%TO.P,U10,6,DIO1_6*%
%TO.N,/MCU/RAD_DIO1*%
X8300000Y33250000D03*
%TO.P,U10,7,DIO2_7*%
%TO.N,/MCU/RAD_DIO2*%
X6300000Y33250000D03*
%TO.P,U10,8,DIO3_8*%
%TO.N,/MCU/RAD_DIO3*%
X4300000Y33250000D03*
%TO.P,U10,9,GND_9*%
%TO.N,GND*%
X4300000Y17250000D03*
%TO.P,U10,10,BUSY_10*%
%TO.N,/MCU/RAD_BUSY*%
X6300000Y17250000D03*
%TO.P,U10,11,RF_EN_11*%
%TO.N,/MCU/RAD_RF_EN*%
X8300000Y17250000D03*
%TO.P,U10,12,SCK_12*%
%TO.N,/MCU/SPI3_SCLK*%
X10300000Y17250000D03*
%TO.P,U10,13,MISO_13*%
%TO.N,/MCU/SPI3_CIPO*%
X12300000Y17250000D03*
%TO.P,U10,14,MOSI_14*%
%TO.N,/MCU/SPI3_COPI*%
X14300000Y17250000D03*
%TO.P,U10,15,~{NSS}_15*%
%TO.N,/MCU/RAD_CS*%
X16300000Y17250000D03*
%TO.P,U10,16,GND_16*%
%TO.N,GND*%
X18300000Y17250000D03*
%TD*%
D11*
%TO.P,AE1,1,A_1*%
%TO.N,Net-(AE1-A)*%
X5900000Y37200000D03*
D12*
%TO.P,AE1,2,Shield_2*%
%TO.N,GND*%
X7400000Y38675000D03*
D11*
X8900000Y37200000D03*
D12*
X7400000Y35725000D03*
%TD*%
D13*
%TO.P,J4,1,Pin_1_1*%
%TO.N,/MCU/GPIO0*%
X12850000Y36000000D03*
D14*
%TO.P,J4,2,Pin_2_2*%
%TO.N,GND*%
X11550000Y36000000D03*
%TD*%
D15*
%TO.P,J6,1,Pin_1_1*%
%TO.N,Net-(J6-Pin_1)*%
X14300000Y7225000D03*
D16*
%TO.P,J6,2,Pin_2_2*%
%TO.N,/IO/CAN_L*%
X14300000Y8475000D03*
%TO.P,J6,3,Pin_3_3*%
%TO.N,/IO/CAN_H*%
X14300000Y9725000D03*
%TO.P,J6,4,Pin_4_4*%
%TO.N,GND*%
X14300000Y10975000D03*
%TD*%
D17*
%TO.P,J5,1,Pin_1_1*%
%TO.N,+3V3*%
X6925000Y4700000D03*
D18*
%TO.P,J5,2,Pin_2_2*%
%TO.N,/IO/TXD_MCU*%
X8175000Y4700000D03*
%TO.P,J5,3,Pin_3_3*%
%TO.N,/IO/RXD_MCU*%
X9425000Y4700000D03*
%TO.P,J5,4,Pin_4_4*%
%TO.N,GND*%
X10675000Y4700000D03*
%TD*%
D13*
%TO.P,J1,1,Pin_1_1*%
%TO.N,/MCU/RST*%
X12750000Y38550000D03*
D14*
%TO.P,J1,2,Pin_2_2*%
%TO.N,GND*%
X11450000Y38550000D03*
%TD*%
D19*
%TO.P,H6,1,1_1*%
%TO.N,GND*%
X2750000Y37500000D03*
%TD*%
%TO.P,H5,1,1_1*%
%TO.N,GND*%
X17500000Y3000000D03*
%TD*%
D20*
%TO.P,R13,1*%
%TO.N,Net-(J6-Pin_1)*%
X14300000Y4225000D03*
%TO.P,R13,2*%
%TO.N,+3V3*%
X14300000Y2575000D03*
%TD*%
D21*
%TO.P,D1,1,RK_1*%
%TO.N,Net-(D1-RK)*%
X10525000Y14750000D03*
%TO.P,D1,2,GK_2*%
%TO.N,Net-(D1-GK)*%
X10525000Y13850000D03*
%TO.P,D1,3,BK_3*%
%TO.N,Net-(D1-BK)*%
X9075000Y13850000D03*
%TO.P,D1,4,A_4*%
%TO.N,+3V3*%
X9075000Y14750000D03*
%TD*%
D22*
%TO.P,J2,1,Pin_1_1*%
%TO.N,/IO/BATT_RAW*%
X4600000Y9500000D03*
D16*
%TO.P,J2,2,Pin_2_2*%
%TO.N,GND*%
X4600000Y8250000D03*
%TD*%
D19*
%TO.P,H7,1,1_1*%
%TO.N,GND*%
X17000000Y37500000D03*
%TD*%
D23*
%TO.P,BZ1,1,+_1*%
%TO.N,+3V3*%
X7750000Y7750000D03*
%TO.P,BZ1,2,-_2*%
%TO.N,Net-(BZ1--)*%
X11650000Y7750000D03*
%TO.P,BZ1,NC*%
%TO.N,N/C*%
X7750000Y10750000D03*
%TD*%
D24*
%TO.P,D2,1,K_1*%
%TO.N,Net-(D2-K)*%
X4800000Y12312500D03*
%TO.P,D2,2,A_2*%
%TO.N,+3V3*%
X4800000Y13887500D03*
%TD*%
D19*
%TO.P,H4,1,1_1*%
%TO.N,GND*%
X2750000Y2750000D03*
%TD*%
D25*
%TO.P,J3,SH,Shield_SH*%
%TO.N,Net-(J3-Shield)*%
X18475000Y21675000D03*
X18475000Y15075000D03*
%TD*%
D26*
%TO.N,GND*%
X9900000Y22300000D03*
X6416554Y26100000D03*
X7500000Y12500000D03*
X16900000Y34700000D03*
X14600000Y29800000D03*
X6750241Y34869481D03*
X4200000Y31799998D03*
X1920000Y31400000D03*
X15100000Y34800000D03*
X6300000Y29200000D03*
D27*
X16649997Y12050000D03*
D26*
X18200000Y29800000D03*
X2800002Y30040000D03*
X11900000Y35100000D03*
X1882900Y20779861D03*
X18300000Y27100000D03*
X3431682Y13125629D03*
X3900000Y35300000D03*
X2050000Y16907106D03*
X9200000Y29400000D03*
X9600000Y8500000D03*
X1000000Y30400000D03*
X12900000Y19500000D03*
X1975380Y15355380D03*
X12581825Y26951550D03*
X3600000Y17200000D03*
X14600000Y27100000D03*
X7800000Y6500000D03*
X14000000Y24700000D03*
X1961484Y25939268D03*
X9600000Y26100000D03*
X11100000Y1900000D03*
X17096576Y18697585D03*
%TO.N,+3V3*%
X14400000Y1900000D03*
X8485299Y14727340D03*
D27*
X11100000Y9500000D03*
D26*
X13805000Y35949212D03*
D27*
X11100000Y10500000D03*
D26*
X1000000Y28500000D03*
X2050000Y29400000D03*
X2174852Y14460483D03*
X8900000Y23300000D03*
X13625000Y34200000D03*
D27*
X17600000Y12050000D03*
D26*
X10700000Y32500000D03*
X12247579Y28101550D03*
D27*
X12100000Y9500000D03*
D26*
X10495000Y38508853D03*
X17900000Y34700002D03*
D27*
X12100000Y10500000D03*
D26*
X2050000Y18160000D03*
X2880000Y31300000D03*
X9050000Y35050000D03*
X7000000Y7000000D03*
X2800000Y25600000D03*
%TO.N,/MCU/RAD_RST*%
X12900000Y31600000D03*
%TO.N,/MCU/RAD_DIO1*%
X10457028Y30013129D03*
%TO.N,/MCU/RAD_DIO2*%
X11100000Y31800000D03*
%TO.N,/MCU/RAD_DIO3*%
X7653668Y30350002D03*
%TO.N,/MCU/RAD_BUSY*%
X3750000Y23744408D03*
%TO.N,/MCU/RAD_RF_EN*%
X3122416Y23224793D03*
%TO.N,/MCU/SPI3_SCLK*%
X3550358Y19422328D03*
X10400000Y28850000D03*
%TO.N,/MCU/SPI3_CIPO*%
X6200000Y19126792D03*
X11600000Y24000000D03*
%TO.N,/MCU/SPI3_COPI*%
X10019237Y21500000D03*
X9900000Y25249998D03*
X3950000Y20494803D03*
X11700000Y19428928D03*
%TO.N,/MCU/RAD_CS*%
X10500002Y27674322D03*
%TO.N,Net-(AE1-A)*%
X5300000Y37100000D03*
%TO.N,/MCU/GPIO0*%
X12613693Y36970000D03*
%TO.N,Net-(D1-RK)*%
X10385907Y15337340D03*
%TO.N,Net-(D1-GK)*%
X8800000Y15700000D03*
%TO.N,Net-(D1-BK)*%
X12100000Y15600000D03*
D27*
%TO.N,/IO/BATT_RAW*%
X5305786Y7301639D03*
D26*
%TO.N,Net-(BZ1--)*%
X12200000Y6100000D03*
%TO.N,Net-(D2-K)*%
X4200000Y12650000D03*
%TO.N,/MCU/FLASH_CS*%
X12507640Y30588401D03*
X18300000Y25400000D03*
%TO.N,/MCU/TXD_MCU*%
X8637337Y2843102D03*
X8514737Y30388852D03*
%TO.N,VBUS*%
X14800000Y14600000D03*
X2100000Y9600000D03*
X16700000Y20200000D03*
%TO.N,/MCU/VSENSE*%
X5412121Y29337481D03*
X5600000Y21600000D03*
%TO.N,/MCU/GPIO45*%
X2900000Y27800000D03*
X1821545Y25140000D03*
%TO.N,/MCU/BUZZER*%
X11627126Y12500000D03*
X13232698Y15774997D03*
%TO.N,/MCU/RXD_MCU*%
X10060322Y2862629D03*
X9314830Y30350002D03*
%TO.N,/MCU/MS56_CS*%
X4940380Y23040380D03*
X12247579Y25301550D03*
%TO.N,/MCU/LSM_CS*%
X5689670Y20671906D03*
X6317006Y25228615D03*
X3700000Y14700000D03*
X6550000Y15600000D03*
%TO.N,/MCU/LSM_INT1*%
X3240437Y26721150D03*
X2350000Y13350000D03*
%TO.N,/MCU/LSM_INT2*%
X3651953Y27403679D03*
X3548520Y15536396D03*
%TD*%
%TO.N,GND*%
D28*
X11550000Y38450000D02*
X11450000Y38550000D01*
X18300000Y17250000D02*
X18300000Y17494161D01*
X16300000Y34100000D02*
X16900000Y34700000D01*
X11550000Y36000000D02*
X11550000Y38450000D01*
X18300000Y17494161D02*
X17096576Y18697585D01*
X16300000Y33250000D02*
X16300000Y34100000D01*
%TO.N,+3V3*%
D29*
X14300000Y2000000D02*
X14400000Y1900000D01*
X7750000Y7750000D02*
X7000000Y7000000D01*
D28*
X4800000Y13737500D02*
X2897835Y13737500D01*
D29*
X14300000Y2575000D02*
X14300000Y2000000D01*
D28*
X9075000Y14750000D02*
X8507959Y14750000D01*
X10300000Y32900000D02*
X10700000Y32500000D01*
X10300000Y33250000D02*
X10300000Y32900000D01*
X2897835Y13737500D02*
X2174852Y14460483D01*
X8507959Y14750000D02*
X8485299Y14727340D01*
%TO.N,/MCU/RAD_RST*%
X12300000Y33250000D02*
X12300000Y32200000D01*
X12300000Y32200000D02*
X12900000Y31600000D01*
%TO.N,/MCU/RAD_DIO1*%
X10457028Y30842972D02*
X10457028Y30013129D01*
X8300000Y33250000D02*
X8300000Y33000000D01*
X8300000Y33000000D02*
X10457028Y30842972D01*
%TO.N,/MCU/RAD_DIO2*%
X9300000Y34500000D02*
X7300000Y34500000D01*
X6300000Y33500000D02*
X6300000Y33250000D01*
X11300000Y34500000D02*
X10700000Y35100000D01*
X7300000Y34500000D02*
X6300000Y33500000D01*
X11300000Y32000000D02*
X11300000Y34500000D01*
X9600000Y35100000D02*
X9600000Y34800000D01*
X10700000Y35100000D02*
X9600000Y35100000D01*
X11100000Y31800000D02*
X11300000Y32000000D01*
X9600000Y34800000D02*
X9300000Y34500000D01*
%TO.N,/MCU/RAD_DIO3*%
X5300000Y32000000D02*
X6055732Y32000000D01*
X6055732Y32000000D02*
X7653668Y30402064D01*
X7653668Y30402064D02*
X7653668Y30350002D01*
X4300000Y33250000D02*
X4300000Y33000000D01*
X4300000Y33000000D02*
X5300000Y32000000D01*
%TO.N,/MCU/RAD_BUSY*%
X5300000Y18500000D02*
X3058473Y18500000D01*
X3058473Y18500000D02*
X2461062Y19097411D01*
X2472416Y21730528D02*
X2472416Y23494032D01*
X2853177Y23874793D02*
X3619615Y23874793D01*
X2950000Y20432747D02*
X2950000Y21252944D01*
X2950000Y21252944D02*
X2472416Y21730528D01*
X2472416Y23494032D02*
X2853177Y23874793D01*
X6300000Y17500000D02*
X5300000Y18500000D01*
X2461062Y19943809D02*
X2950000Y20432747D01*
X3619615Y23874793D02*
X3750000Y23744408D01*
X6300000Y17250000D02*
X6300000Y17500000D01*
X2461062Y19097411D02*
X2461062Y19943809D01*
%TO.N,/MCU/RAD_RF_EN*%
X3203447Y18850000D02*
X2900358Y19153089D01*
X2900358Y19153089D02*
X2900358Y19841170D01*
X3300000Y21397918D02*
X2992156Y21705762D01*
X8300000Y17500000D02*
X7300000Y18500000D01*
X2992156Y21705762D02*
X2992156Y23094533D01*
X7300000Y18500000D02*
X6023098Y18500000D01*
X6023098Y18500000D02*
X5673098Y18850000D01*
X2992156Y23094533D02*
X3122416Y23224793D01*
X8300000Y17250000D02*
X8300000Y17500000D01*
X3300000Y20240812D02*
X3300000Y21397918D01*
X2900358Y19841170D02*
X3300000Y20240812D01*
X5673098Y18850000D02*
X3203447Y18850000D01*
%TO.N,/MCU/SPI3_SCLK*%
X10300000Y20764269D02*
X10300000Y17250000D01*
X3550358Y19422328D02*
X3728030Y19600000D01*
X11050000Y21514269D02*
X10400000Y20864269D01*
X6550000Y19750000D02*
X6942309Y20142309D01*
X10400000Y28850000D02*
X10055025Y28850000D01*
X10055025Y28850000D02*
X9350000Y28144975D01*
X3728030Y19628030D02*
X3850000Y19750000D01*
X11050000Y25455026D02*
X11050000Y21514269D01*
X3850000Y19750000D02*
X6550000Y19750000D01*
X10400000Y20864269D02*
X10300000Y20764269D01*
X9350000Y28144975D02*
X9350000Y27155026D01*
X9914269Y20864269D02*
X10400000Y20864269D01*
X6942309Y20142309D02*
X9192309Y20142309D01*
X9192309Y20142309D02*
X9914269Y20864269D01*
X3728030Y19600000D02*
X3728030Y19628030D01*
X9350000Y27155026D02*
X11050000Y25455026D01*
%TO.N,/MCU/SPI3_CIPO*%
X11300000Y16000000D02*
X9300000Y16000000D01*
X6223208Y19150000D02*
X6200000Y19126792D01*
X10900000Y20514270D02*
X11600000Y21214269D01*
X11600000Y21214269D02*
X11600000Y24000000D01*
X12300000Y17250000D02*
X12300000Y17500000D01*
X8650000Y19150000D02*
X6223208Y19150000D01*
X12300000Y17250000D02*
X12300000Y17000000D01*
X9300000Y16000000D02*
X9300000Y18500000D01*
X12300000Y17000000D02*
X11300000Y16000000D01*
X9300000Y18500000D02*
X8650000Y19150000D01*
X10900000Y18900000D02*
X10900000Y20514270D01*
X12300000Y17500000D02*
X10900000Y18900000D01*
%TO.N,/MCU/SPI3_COPI*%
X10019239Y21500000D02*
X10550000Y22030761D01*
X13300000Y18500000D02*
X12628928Y18500000D01*
X10004968Y21514269D02*
X10019237Y21500000D01*
X3950000Y20494803D02*
X4344803Y20100000D01*
X4344803Y20100000D02*
X6051168Y20100000D01*
X9100000Y21500000D02*
X9114269Y21514269D01*
X10550000Y22569239D02*
X9900000Y23219239D01*
X9114269Y21514269D02*
X10004968Y21514269D01*
X10550000Y22030761D02*
X10550000Y22569239D01*
X12628928Y18500000D02*
X11700000Y19428928D01*
X9100000Y21500000D02*
X10019239Y21500000D01*
X8100000Y20500000D02*
X9100000Y21500000D01*
X14300000Y17500000D02*
X13300000Y18500000D01*
X6451167Y20500000D02*
X8100000Y20500000D01*
X14300000Y17250000D02*
X14300000Y17500000D01*
X9900000Y23219239D02*
X9900000Y25249998D01*
X6051168Y20100000D02*
X6451167Y20500000D01*
%TO.N,/MCU/RAD_CS*%
X16300000Y17405026D02*
X12800000Y20905026D01*
X12800000Y25526947D02*
X12800000Y25200000D01*
X12400000Y25900000D02*
X12426947Y25900000D01*
X12800000Y20905026D02*
X12800000Y25526947D01*
X12400000Y25900000D02*
X12155110Y25900000D01*
X16300000Y17250000D02*
X16300000Y17405026D01*
X10500002Y27555108D02*
X10500002Y27674322D01*
X12426947Y25900000D02*
X12800000Y25526947D01*
X12155110Y25900000D02*
X10500002Y27555108D01*
%TO.N,Net-(J6-Pin_1)*%
D29*
X14300000Y4225000D02*
X14300000Y7225000D01*
%TO.N,Net-(D1-GK)*%
D28*
X8900000Y15600000D02*
X8800000Y15700000D01*
X9800000Y15055890D02*
X9255890Y15600000D01*
X10100000Y13850000D02*
X9800000Y14150000D01*
X9800000Y14150000D02*
X9800000Y15055890D01*
X9255890Y15600000D02*
X8900000Y15600000D01*
X10525000Y13850000D02*
X10100000Y13850000D01*
%TO.N,Net-(D1-BK)*%
X11038729Y13250000D02*
X9675000Y13250000D01*
X12140000Y14351271D02*
X11038729Y13250000D01*
X12140000Y15560000D02*
X12140000Y14351271D01*
X9675000Y13250000D02*
X9075000Y13850000D01*
X12100000Y15600000D02*
X12140000Y15560000D01*
%TO.N,/IO/BATT_RAW*%
D29*
X4600000Y9500000D02*
X3950000Y9500000D01*
X3550000Y7918629D02*
X4166990Y7301639D01*
X3550000Y9100000D02*
X3550000Y7918629D01*
X4166990Y7301639D02*
X5305786Y7301639D01*
X3950000Y9500000D02*
X3550000Y9100000D01*
%TO.N,Net-(BZ1--)*%
D28*
X12200000Y6100000D02*
X12200000Y7200000D01*
X12200000Y7200000D02*
X11650000Y7750000D01*
%TO.N,/MCU/FLASH_CS*%
X17100000Y26000000D02*
X17100000Y28900000D01*
X17700000Y25400000D02*
X17100000Y26000000D01*
X12919239Y31000000D02*
X12507640Y30588401D01*
X15000000Y31000000D02*
X12919239Y31000000D01*
X17100000Y28900000D02*
X15000000Y31000000D01*
X18300000Y25400000D02*
X17700000Y25400000D01*
%TO.N,/MCU/TXD_MCU*%
X700000Y8100000D02*
X700000Y20053573D01*
X8500000Y30333551D02*
X8500000Y30374115D01*
X8500000Y30374115D02*
X8514737Y30388852D01*
X600000Y21406149D02*
X700000Y21506149D01*
X8637337Y2843102D02*
X5956898Y2843102D01*
X700000Y21506149D02*
X700000Y26994975D01*
X5900000Y31300000D02*
X7400000Y29800000D01*
X600000Y20153574D02*
X600000Y21406149D01*
X700000Y20053573D02*
X600000Y20153574D01*
X700000Y26994975D02*
X2455025Y28750000D01*
X2455025Y28750000D02*
X2455025Y28755025D01*
X5000000Y31300000D02*
X5900000Y31300000D01*
X7925885Y29800000D02*
X8514737Y30388852D01*
X5956898Y2843102D02*
X700000Y8100000D01*
X7400000Y29800000D02*
X7925885Y29800000D01*
X2455025Y28755025D02*
X5000000Y31300000D01*
%TO.N,VBUS*%
D29*
X11018629Y11750000D02*
X5743606Y11750000D01*
X4293606Y10300000D02*
X2800000Y10300000D01*
X5743606Y11750000D02*
X4293606Y10300000D01*
X11800000Y11600000D02*
X11168629Y11600000D01*
X14800000Y14600000D02*
X11800000Y11600000D01*
X11168629Y11600000D02*
X11018629Y11750000D01*
X2800000Y10300000D02*
X2100000Y9600000D01*
%TO.N,/MCU/VSENSE*%
D28*
X4400000Y22661521D02*
X4400000Y22200000D01*
X4400000Y23419239D02*
X4290380Y23309619D01*
X5000000Y22200000D02*
X5600000Y21600000D01*
X4290380Y22771141D02*
X4400000Y22661521D01*
X4400000Y22200000D02*
X5000000Y22200000D01*
X4290380Y23309619D02*
X4290380Y22771141D01*
X5412121Y29337481D02*
X4400000Y28325360D01*
X4400000Y28325360D02*
X4400000Y23419239D01*
%TO.N,/MCU/GPIO45*%
X1821545Y25140000D02*
X1400000Y25561545D01*
X1400000Y25561545D02*
X1400000Y26300000D01*
X1400000Y26300000D02*
X2900000Y27800000D01*
%TO.N,/MCU/BUZZER*%
X13232698Y13940331D02*
X11792367Y12500000D01*
X11792367Y12500000D02*
X11627126Y12500000D01*
X13232698Y15774997D02*
X13232698Y13940331D01*
%TO.N,/MCU/RXD_MCU*%
X9300000Y30250000D02*
X9310715Y30250000D01*
X9122951Y3800000D02*
X6352000Y3800000D01*
X9310715Y30250000D02*
X9314830Y30254115D01*
X9314830Y30254115D02*
X9314830Y30350002D01*
X1050000Y20198548D02*
X950000Y20298548D01*
X950000Y20298548D02*
X950000Y21261174D01*
X6352000Y3800000D02*
X1050000Y9102000D01*
X1050000Y26750000D02*
X5200000Y30900000D01*
X7000000Y29400000D02*
X8364828Y29400000D01*
X5500000Y30900000D02*
X7000000Y29400000D01*
X10060322Y2862629D02*
X9122951Y3800000D01*
X1050000Y9102000D02*
X1050000Y20198548D01*
X5200000Y30900000D02*
X5500000Y30900000D01*
X1050000Y21361175D02*
X1050000Y26750000D01*
X8364828Y29400000D02*
X9314830Y30350002D01*
X950000Y21261174D02*
X1050000Y21361175D01*
%TO.N,/MCU/MS56_CS*%
X9700000Y27435872D02*
X9700000Y28000000D01*
X5100000Y23200000D02*
X4940380Y23040380D01*
X12247579Y25301550D02*
X11834322Y25301550D01*
X10019239Y29400000D02*
X7369239Y26750000D01*
X11834322Y25301550D02*
X9700000Y27435872D01*
X11000000Y29027818D02*
X10627818Y29400000D01*
X5762121Y26367147D02*
X5762121Y25167146D01*
X5100000Y24505025D02*
X5100000Y23200000D01*
X11000000Y28600000D02*
X11000000Y29027818D01*
X9700000Y28000000D02*
X10000000Y28300000D01*
X7369239Y26750000D02*
X6144974Y26750000D01*
X10700000Y28300000D02*
X11000000Y28600000D01*
X10000000Y28300000D02*
X10700000Y28300000D01*
X6144974Y26750000D02*
X5762121Y26367147D01*
X5762121Y25167146D02*
X5100000Y24505025D01*
X10627818Y29400000D02*
X10019239Y29400000D01*
%TO.N,/MCU/LSM_CS*%
X3700000Y14700000D02*
X5800000Y14700000D01*
X5689670Y20671906D02*
X6128098Y20671906D01*
X6550000Y15450000D02*
X6550000Y15600000D01*
X6128098Y20671906D02*
X6200000Y20743808D01*
X5800000Y14700000D02*
X6550000Y15450000D01*
X6200000Y20743808D02*
X6200000Y25111609D01*
X6200000Y25111609D02*
X6317006Y25228615D01*
%TO.N,/MCU/LSM_INT1*%
X3528000Y26268411D02*
X3447999Y26348413D01*
X1400000Y14300000D02*
X1400000Y20343522D01*
X1400000Y23414393D02*
X2645316Y24659710D01*
X1400000Y20343522D02*
X1300000Y20443522D01*
X3447999Y26348413D02*
X3447999Y26351240D01*
X2647829Y24662223D02*
X3528000Y25542394D01*
X1300000Y21116201D02*
X1400001Y21216202D01*
X1300000Y20443522D02*
X1300000Y21116201D01*
X3528000Y25542394D02*
X3528000Y26268411D01*
X2350000Y13350000D02*
X1400000Y14300000D01*
X3240437Y26558802D02*
X3240437Y26721150D01*
X3447999Y26351240D02*
X3240437Y26558802D01*
X1400001Y21216202D02*
X1400000Y23414393D01*
%TO.N,/MCU/LSM_INT2*%
X2111062Y18952436D02*
X2111062Y20088783D01*
X3548520Y15536396D02*
X3412124Y15400000D01*
X2850000Y18213498D02*
X2111062Y18952436D01*
X2122416Y23639006D02*
X3880000Y25396590D01*
X2111062Y20088783D02*
X2600000Y20577721D01*
X2600000Y20577721D02*
X2600000Y21107970D01*
X2600000Y21107970D02*
X2122416Y21585554D01*
X3880000Y27175632D02*
X3651953Y27403679D01*
X3412124Y15400000D02*
X2850000Y15400000D01*
X2850000Y15400000D02*
X2850000Y18213498D01*
X2122416Y21585554D02*
X2122416Y23639006D01*
X3880000Y25396590D02*
X3880000Y27175632D01*
%TD*%
%TA.AperFunction,Conductor*%
%TO.N,GND*%
G36*
X9443039Y39180315D02*
G01*
X9488794Y39127511D01*
X9500000Y39076000D01*
X9500000Y35915638D01*
X9480315Y35848599D01*
X9427511Y35802844D01*
X9358353Y35792900D01*
X9328548Y35801077D01*
X9283501Y35819736D01*
X9283489Y35819739D01*
X9128845Y35850500D01*
X9128842Y35850500D01*
X8971158Y35850500D01*
X8971155Y35850500D01*
X8816510Y35819739D01*
X8816498Y35819736D01*
X8670827Y35759398D01*
X8670814Y35759391D01*
X8539711Y35671790D01*
X8539707Y35671787D01*
X8428213Y35560293D01*
X8428210Y35560289D01*
X8340609Y35429186D01*
X8340602Y35429173D01*
X8280264Y35283502D01*
X8280261Y35283492D01*
X8263715Y35200308D01*
X8231330Y35138397D01*
X8170614Y35103823D01*
X8142098Y35100500D01*
X7386670Y35100500D01*
X7386654Y35100501D01*
X7379058Y35100501D01*
X7220943Y35100501D01*
X7144579Y35080039D01*
X7068214Y35059577D01*
X7068209Y35059574D01*
X6931290Y34980525D01*
X6931282Y34980519D01*
X6887083Y34936319D01*
X6825760Y34902834D01*
X6799402Y34900000D01*
X5424000Y34900000D01*
X5356961Y34919685D01*
X5311206Y34972489D01*
X5300000Y35024000D01*
X5300000Y36079254D01*
X5319685Y36146293D01*
X5372489Y36192048D01*
X5440185Y36202193D01*
X5460639Y36199500D01*
X6339360Y36199501D01*
X6339363Y36199501D01*
X6456753Y36214954D01*
X6456757Y36214956D01*
X6456762Y36214956D01*
X6602841Y36275464D01*
X6728282Y36371718D01*
X6824536Y36497159D01*
X6885044Y36643238D01*
X6900500Y36760639D01*
X6900499Y37639360D01*
X6900499Y37639364D01*
X6885046Y37756754D01*
X6885044Y37756759D01*
X6885044Y37756762D01*
X6824536Y37902841D01*
X6728282Y38028282D01*
X6602841Y38124536D01*
X6456762Y38185044D01*
X6456760Y38185045D01*
X6339361Y38200500D01*
X5460641Y38200500D01*
X5440181Y38197806D01*
X5371146Y38208574D01*
X5318892Y38254956D01*
X5300000Y38320746D01*
X5300000Y39076000D01*
X5319685Y39143039D01*
X5372489Y39188794D01*
X5424000Y39200000D01*
X9376000Y39200000D01*
X9443039Y39180315D01*
G37*
%TD.AperFunction*%
%TD*%
M02*
